<svg width="400" height="500" viewBox="0 0 400 500" fill="none" xmlns="http://www.w3.org/2000/svg">
<path d="M58.5175 28.252C57.2855 28.252 56.232 28.0245 55.357 27.5695C54.489 27.1075 53.824 26.439 53.362 25.564C52.907 24.689 52.6795 23.632 52.6795 22.393V13.3H55.399V22.393C55.399 23.506 55.6475 24.325 56.1445 24.85C56.6415 25.375 57.4325 25.6375 58.5175 25.6375C59.2035 25.6375 59.7775 25.529 60.2395 25.312C60.7015 25.095 61.048 24.7485 61.279 24.2725C61.51 23.7895 61.6255 23.163 61.6255 22.393V13.3H64.3555V22.393C64.3555 23.429 64.2015 24.318 63.8935 25.06C63.5925 25.802 63.1725 26.411 62.6335 26.887C62.1015 27.356 61.482 27.7025 60.775 27.9265C60.068 28.1435 59.3155 28.252 58.5175 28.252ZM67.6297 32.263V17.269H70.2547V18.0565C70.8427 17.3635 71.6302 17.017 72.6172 17.017C73.5342 17.017 74.3252 17.2445 74.9902 17.6995C75.6552 18.1475 76.1662 18.7915 76.5232 19.6315C76.8802 20.4715 77.0587 21.4725 77.0587 22.6345C77.0587 23.7615 76.8732 24.7485 76.5022 25.5955C76.1312 26.4355 75.6097 27.09 74.9377 27.559C74.2657 28.021 73.4817 28.252 72.5857 28.252C72.0957 28.252 71.6547 28.1645 71.2627 27.9895C70.8707 27.8075 70.5347 27.5415 70.2547 27.1915V31.0765L67.6297 32.263ZM72.1972 25.7425C72.9112 25.7425 73.4607 25.473 73.8457 24.934C74.2307 24.388 74.4232 23.6215 74.4232 22.6345C74.4232 21.6475 74.2272 20.881 73.8352 20.335C73.4432 19.789 72.8972 19.516 72.1972 19.516C71.7702 19.516 71.3957 19.593 71.0737 19.747C70.7587 19.901 70.4857 20.1355 70.2547 20.4505V24.787C70.4437 25.088 70.7097 25.3225 71.0527 25.4905C71.4027 25.6585 71.7842 25.7425 72.1972 25.7425ZM79.8753 28V14.0245L82.5003 12.838V28H79.8753ZM90.2077 28.252C88.6957 28.252 87.5022 27.7515 86.6272 26.7505C85.7522 25.7495 85.3147 24.381 85.3147 22.645C85.3147 21.497 85.5142 20.503 85.9132 19.663C86.3122 18.816 86.8757 18.165 87.6037 17.71C88.3387 17.248 89.2067 17.017 90.2077 17.017C91.2017 17.017 92.0627 17.2445 92.7907 17.6995C93.5187 18.1545 94.0787 18.802 94.4707 19.642C94.8627 20.482 95.0587 21.4795 95.0587 22.6345C95.0587 23.7965 94.8627 24.7975 94.4707 25.6375C94.0857 26.4775 93.5292 27.125 92.8012 27.58C92.0732 28.028 91.2087 28.252 90.2077 28.252ZM90.2077 25.7425C90.9147 25.7425 91.4642 25.4695 91.8562 24.9235C92.2482 24.3775 92.4442 23.6145 92.4442 22.6345C92.4442 21.6545 92.2447 20.8915 91.8457 20.3455C91.4537 19.7925 90.9077 19.516 90.2077 19.516C89.5007 19.516 88.9477 19.7925 88.5487 20.3455C88.1497 20.8985 87.9502 21.665 87.9502 22.645C87.9502 23.611 88.1497 24.3705 88.5487 24.9235C88.9477 25.4695 89.5007 25.7425 90.2077 25.7425ZM101.029 28.252C99.8602 28.252 98.9327 27.937 98.2467 27.307C97.5677 26.67 97.2282 25.809 97.2282 24.724C97.2282 24.024 97.4032 23.4115 97.7532 22.8865C98.1102 22.3545 98.6037 21.945 99.2337 21.658C99.8707 21.364 100.613 21.217 101.46 21.217C101.929 21.217 102.38 21.2625 102.814 21.3535C103.255 21.4375 103.64 21.56 103.969 21.721V21.049C103.969 20.447 103.798 19.9955 103.455 19.6945C103.119 19.3865 102.622 19.2325 101.964 19.2325C101.439 19.2325 100.9 19.327 100.347 19.516C99.7937 19.705 99.2337 19.985 98.6667 20.356L97.8792 18.2875C98.4952 17.8815 99.1812 17.57 99.9372 17.353C100.693 17.129 101.456 17.017 102.226 17.017C103.668 17.017 104.746 17.36 105.46 18.046C106.174 18.725 106.531 19.74 106.531 21.091V28H103.969V27.139C103.605 27.503 103.171 27.7795 102.667 27.9685C102.17 28.1575 101.624 28.252 101.029 28.252ZM101.638 26.0365C102.072 26.0365 102.489 25.9525 102.888 25.7845C103.294 25.6095 103.654 25.3645 103.969 25.0495V23.779C103.668 23.632 103.332 23.52 102.961 23.443C102.597 23.359 102.233 23.317 101.869 23.317C101.218 23.317 100.704 23.443 100.326 23.695C99.9547 23.94 99.7692 24.283 99.7692 24.724C99.7692 25.137 99.9337 25.459 100.263 25.69C100.592 25.921 101.05 26.0365 101.638 26.0365ZM113.504 28.252C112.125 28.252 111.043 27.755 110.259 26.761C109.475 25.767 109.083 24.388 109.083 22.624C109.083 21.504 109.269 20.524 109.64 19.684C110.011 18.844 110.529 18.1895 111.194 17.7205C111.866 17.2515 112.646 17.017 113.535 17.017C114.487 17.017 115.268 17.367 115.877 18.067V14.0245L118.491 12.838V28H115.877V27.118C115.359 27.874 114.568 28.252 113.504 28.252ZM113.934 25.7425C114.382 25.7425 114.764 25.6655 115.079 25.5115C115.394 25.3505 115.66 25.1125 115.877 24.7975V20.461C115.66 20.167 115.376 19.936 115.026 19.768C114.683 19.6 114.319 19.516 113.934 19.516C113.227 19.516 112.681 19.7855 112.296 20.3245C111.911 20.8565 111.719 21.623 111.719 22.624C111.719 23.282 111.806 23.8455 111.981 24.3145C112.156 24.7765 112.408 25.13 112.737 25.375C113.066 25.62 113.465 25.7425 113.934 25.7425ZM130.191 28.252C129.022 28.252 128.095 27.937 127.409 27.307C126.73 26.67 126.39 25.809 126.39 24.724C126.39 24.024 126.565 23.4115 126.915 22.8865C127.272 22.3545 127.766 21.945 128.396 21.658C129.033 21.364 129.775 21.217 130.622 21.217C131.091 21.217 131.542 21.2625 131.976 21.3535C132.417 21.4375 132.802 21.56 133.131 21.721V21.049C133.131 20.447 132.96 19.9955 132.617 19.6945C132.281 19.3865 131.784 19.2325 131.126 19.2325C130.601 19.2325 130.062 19.327 129.509 19.516C128.956 19.705 128.396 19.985 127.829 20.356L127.041 18.2875C127.657 17.8815 128.343 17.57 129.099 17.353C129.855 17.129 130.618 17.017 131.388 17.017C132.83 17.017 133.908 17.36 134.622 18.046C135.336 18.725 135.693 19.74 135.693 21.091V28H133.131V27.139C132.767 27.503 132.333 27.7795 131.829 27.9685C131.332 28.1575 130.786 28.252 130.191 28.252ZM130.8 26.0365C131.234 26.0365 131.651 25.9525 132.05 25.7845C132.456 25.6095 132.816 25.3645 133.131 25.0495V23.779C132.83 23.632 132.494 23.52 132.123 23.443C131.759 23.359 131.395 23.317 131.031 23.317C130.38 23.317 129.866 23.443 129.488 23.695C129.117 23.94 128.931 24.283 128.931 24.724C128.931 25.137 129.096 25.459 129.425 25.69C129.754 25.921 130.212 26.0365 130.8 26.0365ZM138.833 28V17.269H141.458V18.298C141.801 17.871 142.21 17.5525 142.686 17.3425C143.169 17.1255 143.719 17.017 144.335 17.017C145.532 17.017 146.456 17.388 147.107 18.13C147.758 18.865 148.083 19.9255 148.083 21.3115V28H145.469V22.12C145.469 21.217 145.311 20.559 144.996 20.146C144.688 19.726 144.205 19.516 143.547 19.516C142.833 19.516 142.305 19.726 141.962 20.146C141.626 20.559 141.458 21.203 141.458 22.078V28H138.833ZM155.217 28.252C153.838 28.252 152.756 27.755 151.972 26.761C151.188 25.767 150.796 24.388 150.796 22.624C150.796 21.504 150.982 20.524 151.353 19.684C151.724 18.844 152.242 18.1895 152.907 17.7205C153.579 17.2515 154.359 17.017 155.248 17.017C156.2 17.017 156.981 17.367 157.59 18.067V14.0245L160.204 12.838V28H157.59V27.118C157.072 27.874 156.281 28.252 155.217 28.252ZM155.647 25.7425C156.095 25.7425 156.477 25.6655 156.792 25.5115C157.107 25.3505 157.373 25.1125 157.59 24.7975V20.461C157.373 20.167 157.089 19.936 156.739 19.768C156.396 19.6 156.032 19.516 155.647 19.516C154.94 19.516 154.394 19.7855 154.009 20.3245C153.624 20.8565 153.432 21.623 153.432 22.624C153.432 23.282 153.519 23.8455 153.694 24.3145C153.869 24.7765 154.121 25.13 154.45 25.375C154.779 25.62 155.178 25.7425 155.647 25.7425ZM172.24 28.252C171.4 28.252 170.595 28.0735 169.825 27.7165C169.062 27.3595 168.457 26.88 168.009 26.278L169.731 24.829C170.088 25.207 170.501 25.508 170.97 25.732C171.439 25.949 171.887 26.0575 172.314 26.0575C172.846 26.0575 173.255 25.97 173.542 25.795C173.829 25.613 173.973 25.361 173.973 25.039C173.973 24.829 173.903 24.6435 173.763 24.4825C173.63 24.3145 173.392 24.1465 173.049 23.9785C172.706 23.8035 172.223 23.604 171.6 23.38C170.396 22.939 169.542 22.463 169.038 21.952C168.534 21.434 168.282 20.7795 168.282 19.9885C168.282 19.1065 168.639 18.3925 169.353 17.8465C170.067 17.2935 170.998 17.017 172.146 17.017C172.93 17.017 173.651 17.164 174.309 17.458C174.974 17.752 175.544 18.1825 176.02 18.7495L174.309 20.167C173.679 19.53 172.944 19.2115 172.104 19.2115C171.677 19.2115 171.334 19.292 171.075 19.453C170.816 19.607 170.686 19.817 170.686 20.083C170.686 20.342 170.837 20.573 171.138 20.776C171.446 20.979 172.016 21.217 172.849 21.49C173.675 21.749 174.344 22.043 174.855 22.372C175.373 22.701 175.751 23.0825 175.989 23.5165C176.234 23.9505 176.356 24.451 176.356 25.018C176.356 26.026 175.989 26.817 175.254 27.391C174.526 27.965 173.521 28.252 172.24 28.252ZM183.305 28.252C182.276 28.252 181.387 28.021 180.638 27.559C179.896 27.097 179.322 26.446 178.916 25.606C178.517 24.759 178.318 23.765 178.318 22.624C178.318 21.469 178.521 20.4715 178.927 19.6315C179.34 18.7915 179.917 18.1475 180.659 17.6995C181.408 17.2445 182.29 17.017 183.305 17.017C184.173 17.017 184.961 17.199 185.668 17.563C186.375 17.927 186.938 18.487 187.358 19.243C187.778 19.992 187.988 20.9475 187.988 22.1095C187.988 22.2915 187.981 22.5155 187.967 22.7815C187.96 23.0405 187.943 23.303 187.915 23.569H180.911C180.939 24.059 181.051 24.4895 181.247 24.8605C181.45 25.2245 181.727 25.508 182.077 25.711C182.427 25.914 182.84 26.0155 183.316 26.0155C183.827 26.0155 184.271 25.9315 184.649 25.7635C185.027 25.5885 185.384 25.312 185.72 24.934L187.232 26.4985C186.77 27.0235 186.214 27.447 185.563 27.769C184.912 28.091 184.159 28.252 183.305 28.252ZM180.922 21.5215H185.447C185.412 21.0525 185.307 20.65 185.132 20.314C184.957 19.971 184.712 19.7085 184.397 19.5265C184.082 19.3445 183.701 19.2535 183.253 19.2535C182.637 19.2535 182.112 19.4425 181.678 19.8205C181.244 20.1985 180.992 20.7655 180.922 21.5215ZM190.679 28V14.0245L193.304 12.838V28H190.679ZM201.106 28.252C200.077 28.252 199.188 28.021 198.439 27.559C197.697 27.097 197.123 26.446 196.717 25.606C196.318 24.759 196.118 23.765 196.118 22.624C196.118 21.469 196.321 20.4715 196.727 19.6315C197.14 18.7915 197.718 18.1475 198.46 17.6995C199.209 17.2445 200.091 17.017 201.106 17.017C201.974 17.017 202.761 17.199 203.468 17.563C204.175 17.927 204.739 18.487 205.159 19.243C205.579 19.992 205.789 20.9475 205.789 22.1095C205.789 22.2915 205.782 22.5155 205.768 22.7815C205.761 23.0405 205.743 23.303 205.715 23.569H198.712C198.74 24.059 198.852 24.4895 199.048 24.8605C199.251 25.2245 199.527 25.508 199.877 25.711C200.227 25.914 200.64 26.0155 201.116 26.0155C201.627 26.0155 202.072 25.9315 202.45 25.7635C202.828 25.5885 203.185 25.312 203.521 24.934L205.033 26.4985C204.571 27.0235 204.014 27.447 203.363 27.769C202.712 28.091 201.96 28.252 201.106 28.252ZM198.722 21.5215H203.248C203.213 21.0525 203.108 20.65 202.933 20.314C202.758 19.971 202.513 19.7085 202.198 19.5265C201.883 19.3445 201.501 19.2535 201.053 19.2535C200.437 19.2535 199.912 19.4425 199.478 19.8205C199.044 20.1985 198.792 20.7655 198.722 21.5215ZM212.996 28.252C212.009 28.252 211.155 28.0245 210.434 27.5695C209.713 27.1145 209.157 26.4705 208.765 25.6375C208.373 24.7975 208.177 23.8 208.177 22.645C208.177 21.49 208.373 20.4925 208.765 19.6525C209.164 18.8125 209.727 18.165 210.455 17.71C211.183 17.248 212.041 17.017 213.028 17.017C214.141 17.017 215.065 17.276 215.8 17.794C216.542 18.305 217.077 19.0645 217.406 20.0725L214.918 20.9125C214.75 20.4645 214.505 20.1215 214.183 19.8835C213.861 19.6385 213.49 19.516 213.07 19.516C212.391 19.516 211.848 19.796 211.442 20.356C211.043 20.916 210.844 21.679 210.844 22.645C210.844 23.597 211.04 24.353 211.432 24.913C211.824 25.473 212.352 25.753 213.017 25.753C213.486 25.753 213.885 25.62 214.214 25.354C214.55 25.088 214.799 24.6995 214.96 24.1885L217.438 24.934C217.123 26.033 216.587 26.8625 215.831 27.4225C215.082 27.9755 214.137 28.252 212.996 28.252ZM223.132 28.252C222.278 28.252 221.637 28.0175 221.21 27.5485C220.783 27.0795 220.57 26.3795 220.57 25.4485V19.5685H219.005V17.269H220.57V14.0875L223.174 12.838V17.269H225.61V19.5685H223.174V24.976C223.174 25.312 223.24 25.5605 223.373 25.7215C223.513 25.8825 223.73 25.963 224.024 25.963C224.542 25.963 225.109 25.802 225.725 25.48L225.421 27.769C225.099 27.93 224.749 28.049 224.371 28.126C223.993 28.21 223.58 28.252 223.132 28.252ZM237.749 28.252C236.762 28.252 235.908 28.0245 235.187 27.5695C234.466 27.1145 233.91 26.4705 233.518 25.6375C233.126 24.7975 232.93 23.8 232.93 22.645C232.93 21.49 233.126 20.4925 233.518 19.6525C233.917 18.8125 234.48 18.165 235.208 17.71C235.936 17.248 236.794 17.017 237.781 17.017C238.894 17.017 239.818 17.276 240.553 17.794C241.295 18.305 241.83 19.0645 242.159 20.0725L239.671 20.9125C239.503 20.4645 239.258 20.1215 238.936 19.8835C238.614 19.6385 238.243 19.516 237.823 19.516C237.144 19.516 236.601 19.796 236.195 20.356C235.796 20.916 235.597 21.679 235.597 22.645C235.597 23.597 235.793 24.353 236.185 24.913C236.577 25.473 237.105 25.753 237.77 25.753C238.239 25.753 238.638 25.62 238.967 25.354C239.303 25.088 239.552 24.6995 239.713 24.1885L242.191 24.934C241.876 26.033 241.34 26.8625 240.584 27.4225C239.835 27.9755 238.89 28.252 237.749 28.252ZM249.143 28.252C247.631 28.252 246.438 27.7515 245.563 26.7505C244.688 25.7495 244.25 24.381 244.25 22.645C244.25 21.497 244.45 20.503 244.849 19.663C245.248 18.816 245.811 18.165 246.539 17.71C247.274 17.248 248.142 17.017 249.143 17.017C250.137 17.017 250.998 17.2445 251.726 17.6995C252.454 18.1545 253.014 18.802 253.406 19.642C253.798 20.482 253.994 21.4795 253.994 22.6345C253.994 23.7965 253.798 24.7975 253.406 25.6375C253.021 26.4775 252.465 27.125 251.737 27.58C251.009 28.028 250.144 28.252 249.143 28.252ZM249.143 25.7425C249.85 25.7425 250.4 25.4695 250.792 24.9235C251.184 24.3775 251.38 23.6145 251.38 22.6345C251.38 21.6545 251.18 20.8915 250.781 20.3455C250.389 19.7925 249.843 19.516 249.143 19.516C248.436 19.516 247.883 19.7925 247.484 20.3455C247.085 20.8985 246.886 21.665 246.886 22.645C246.886 23.611 247.085 24.3705 247.484 24.9235C247.883 25.4695 248.436 25.7425 249.143 25.7425ZM256.507 28V17.269H259.132V18.298C259.475 17.871 259.884 17.5525 260.36 17.3425C260.843 17.1255 261.393 17.017 262.009 17.017C263.206 17.017 264.13 17.388 264.781 18.13C265.432 18.865 265.757 19.9255 265.757 21.3115V28H263.143V22.12C263.143 21.217 262.985 20.559 262.67 20.146C262.362 19.726 261.879 19.516 261.221 19.516C260.507 19.516 259.979 19.726 259.636 20.146C259.3 20.559 259.132 21.203 259.132 22.078V28H256.507ZM271.756 28.252C270.902 28.252 270.261 28.0175 269.834 27.5485C269.407 27.0795 269.194 26.3795 269.194 25.4485V19.5685H267.629V17.269H269.194V14.0875L271.798 12.838V17.269H274.234V19.5685H271.798V24.976C271.798 25.312 271.864 25.5605 271.997 25.7215C272.137 25.8825 272.354 25.963 272.648 25.963C273.166 25.963 273.733 25.802 274.349 25.48L274.045 27.769C273.723 27.93 273.373 28.049 272.995 28.126C272.617 28.21 272.204 28.252 271.756 28.252ZM281.189 28.252C280.16 28.252 279.271 28.021 278.522 27.559C277.78 27.097 277.206 26.446 276.8 25.606C276.401 24.759 276.201 23.765 276.201 22.624C276.201 21.469 276.404 20.4715 276.81 19.6315C277.223 18.7915 277.801 18.1475 278.543 17.6995C279.292 17.2445 280.174 17.017 281.189 17.017C282.057 17.017 282.844 17.199 283.551 17.563C284.258 17.927 284.822 18.487 285.242 19.243C285.662 19.992 285.872 20.9475 285.872 22.1095C285.872 22.2915 285.865 22.5155 285.851 22.7815C285.844 23.0405 285.826 23.303 285.798 23.569H278.795C278.823 24.059 278.935 24.4895 279.131 24.8605C279.334 25.2245 279.61 25.508 279.96 25.711C280.31 25.914 280.723 26.0155 281.199 26.0155C281.71 26.0155 282.155 25.9315 282.533 25.7635C282.911 25.5885 283.268 25.312 283.604 24.934L285.116 26.4985C284.654 27.0235 284.097 27.447 283.446 27.769C282.795 28.091 282.043 28.252 281.189 28.252ZM278.805 21.5215H283.331C283.296 21.0525 283.191 20.65 283.016 20.314C282.841 19.971 282.596 19.7085 282.281 19.5265C281.966 19.3445 281.584 19.2535 281.136 19.2535C280.52 19.2535 279.995 19.4425 279.561 19.8205C279.127 20.1985 278.875 20.7655 278.805 21.5215ZM288.519 28V17.269H291.144V18.298C291.487 17.871 291.897 17.5525 292.373 17.3425C292.856 17.1255 293.405 17.017 294.021 17.017C295.218 17.017 296.142 17.388 296.793 18.13C297.444 18.865 297.77 19.9255 297.77 21.3115V28H295.155V22.12C295.155 21.217 294.998 20.559 294.683 20.146C294.375 19.726 293.892 19.516 293.234 19.516C292.52 19.516 291.991 19.726 291.648 20.146C291.312 20.559 291.144 21.203 291.144 22.078V28H288.519ZM303.768 28.252C302.914 28.252 302.274 28.0175 301.847 27.5485C301.42 27.0795 301.206 26.3795 301.206 25.4485V19.5685H299.642V17.269H301.206V14.0875L303.81 12.838V17.269H306.246V19.5685H303.81V24.976C303.81 25.312 303.877 25.5605 304.01 25.7215C304.15 25.8825 304.367 25.963 304.661 25.963C305.179 25.963 305.746 25.802 306.362 25.48L306.057 27.769C305.735 27.93 305.385 28.049 305.007 28.126C304.629 28.21 304.216 28.252 303.768 28.252ZM317.305 28.252C316.136 28.252 315.208 27.937 314.522 27.307C313.843 26.67 313.504 25.809 313.504 24.724C313.504 24.024 313.679 23.4115 314.029 22.8865C314.386 22.3545 314.879 21.945 315.509 21.658C316.146 21.364 316.888 21.217 317.735 21.217C318.204 21.217 318.656 21.2625 319.09 21.3535C319.531 21.4375 319.916 21.56 320.245 21.721V21.049C320.245 20.447 320.073 19.9955 319.73 19.6945C319.394 19.3865 318.897 19.2325 318.239 19.2325C317.714 19.2325 317.175 19.327 316.622 19.516C316.069 19.705 315.509 19.985 314.942 20.356L314.155 18.2875C314.771 17.8815 315.457 17.57 316.213 17.353C316.969 17.129 317.732 17.017 318.502 17.017C319.944 17.017 321.022 17.36 321.736 18.046C322.45 18.725 322.807 19.74 322.807 21.091V28H320.245V27.139C319.881 27.503 319.447 27.7795 318.943 27.9685C318.446 28.1575 317.9 28.252 317.305 28.252ZM317.914 26.0365C318.348 26.0365 318.764 25.9525 319.163 25.7845C319.569 25.6095 319.93 25.3645 320.245 25.0495V23.779C319.944 23.632 319.608 23.52 319.237 23.443C318.873 23.359 318.509 23.317 318.145 23.317C317.494 23.317 316.979 23.443 316.601 23.695C316.23 23.94 316.045 24.283 316.045 24.724C316.045 25.137 316.209 25.459 316.538 25.69C316.867 25.921 317.326 26.0365 317.914 26.0365ZM325.946 28V17.269H328.571V18.298C328.914 17.871 329.324 17.5525 329.8 17.3425C330.283 17.1255 330.832 17.017 331.448 17.017C332.645 17.017 333.569 17.388 334.22 18.13C334.871 18.865 335.197 19.9255 335.197 21.3115V28H332.582V22.12C332.582 21.217 332.425 20.559 332.11 20.146C331.802 19.726 331.319 19.516 330.661 19.516C329.947 19.516 329.418 19.726 329.075 20.146C328.739 20.559 328.571 21.203 328.571 22.078V28H325.946ZM342.33 28.252C340.951 28.252 339.869 27.755 339.085 26.761C338.301 25.767 337.909 24.388 337.909 22.624C337.909 21.504 338.095 20.524 338.466 19.684C338.837 18.844 339.355 18.1895 340.02 17.7205C340.692 17.2515 341.472 17.017 342.361 17.017C343.313 17.017 344.094 17.367 344.703 18.067V14.0245L347.317 12.838V28H344.703V27.118C344.185 27.874 343.394 28.252 342.33 28.252ZM342.76 25.7425C343.208 25.7425 343.59 25.6655 343.905 25.5115C344.22 25.3505 344.486 25.1125 344.703 24.7975V20.461C344.486 20.167 344.202 19.936 343.852 19.768C343.509 19.6 343.145 19.516 342.76 19.516C342.053 19.516 341.507 19.7855 341.122 20.3245C340.737 20.8565 340.545 21.623 340.545 22.624C340.545 23.282 340.632 23.8455 340.807 24.3145C340.982 24.7765 341.234 25.13 341.563 25.375C341.892 25.62 342.291 25.7425 342.76 25.7425ZM151.187 55.252C149.808 55.252 148.726 54.755 147.942 53.761C147.158 52.767 146.766 51.388 146.766 49.624C146.766 48.504 146.952 47.524 147.323 46.684C147.694 45.844 148.212 45.1895 148.877 44.7205C149.549 44.2515 150.329 44.017 151.218 44.017C152.17 44.017 152.951 44.367 153.56 45.067V41.0245L156.174 39.838V55H153.56V54.118C153.042 54.874 152.251 55.252 151.187 55.252ZM151.617 52.7425C152.065 52.7425 152.447 52.6655 152.762 52.5115C153.077 52.3505 153.343 52.1125 153.56 51.7975V47.461C153.343 47.167 153.059 46.936 152.709 46.768C152.366 46.6 152.002 46.516 151.617 46.516C150.91 46.516 150.364 46.7855 149.979 47.3245C149.594 47.8565 149.402 48.623 149.402 49.624C149.402 50.282 149.489 50.8455 149.664 51.3145C149.839 51.7765 150.091 52.13 150.42 52.375C150.749 52.62 151.148 52.7425 151.617 52.7425ZM163.779 55.252C162.267 55.252 161.074 54.7515 160.199 53.7505C159.324 52.7495 158.886 51.381 158.886 49.645C158.886 48.497 159.086 47.503 159.485 46.663C159.884 45.816 160.447 45.165 161.175 44.71C161.91 44.248 162.778 44.017 163.779 44.017C164.773 44.017 165.634 44.2445 166.362 44.6995C167.09 45.1545 167.65 45.802 168.042 46.642C168.434 47.482 168.63 48.4795 168.63 49.6345C168.63 50.7965 168.434 51.7975 168.042 52.6375C167.657 53.4775 167.101 54.125 166.373 54.58C165.645 55.028 164.78 55.252 163.779 55.252ZM163.779 52.7425C164.486 52.7425 165.036 52.4695 165.428 51.9235C165.82 51.3775 166.016 50.6145 166.016 49.6345C166.016 48.6545 165.816 47.8915 165.417 47.3455C165.025 46.7925 164.479 46.516 163.779 46.516C163.072 46.516 162.519 46.7925 162.12 47.3455C161.721 47.8985 161.522 48.665 161.522 49.645C161.522 50.611 161.721 51.3705 162.12 51.9235C162.519 52.4695 163.072 52.7425 163.779 52.7425ZM175.724 55.252C174.737 55.252 173.883 55.0245 173.162 54.5695C172.441 54.1145 171.884 53.4705 171.492 52.6375C171.1 51.7975 170.904 50.8 170.904 49.645C170.904 48.49 171.1 47.4925 171.492 46.6525C171.891 45.8125 172.455 45.165 173.183 44.71C173.911 44.248 174.768 44.017 175.755 44.017C176.868 44.017 177.792 44.276 178.527 44.794C179.269 45.305 179.805 46.0645 180.134 47.0725L177.645 47.9125C177.477 47.4645 177.232 47.1215 176.91 46.8835C176.588 46.6385 176.217 46.516 175.797 46.516C175.118 46.516 174.576 46.796 174.17 47.356C173.771 47.916 173.571 48.679 173.571 49.645C173.571 50.597 173.767 51.353 174.159 51.913C174.551 52.473 175.08 52.753 175.745 52.753C176.214 52.753 176.613 52.62 176.942 52.354C177.278 52.088 177.526 51.6995 177.687 51.1885L180.165 51.934C179.85 53.033 179.315 53.8625 178.559 54.4225C177.81 54.9755 176.865 55.252 175.724 55.252ZM186.394 55.252C185.197 55.252 184.27 54.881 183.612 54.139C182.954 53.39 182.625 52.333 182.625 50.968V44.269H185.25V50.149C185.25 51.052 185.404 51.71 185.712 52.123C186.02 52.536 186.506 52.7425 187.171 52.7425C187.885 52.7425 188.41 52.536 188.746 52.123C189.089 51.703 189.261 51.059 189.261 50.191V44.269H191.875V55H189.261V53.992C188.932 54.412 188.526 54.727 188.043 54.937C187.567 55.147 187.017 55.252 186.394 55.252ZM195.178 55V44.269H197.803V45.2665C198.146 44.8325 198.531 44.5175 198.958 44.3215C199.392 44.1185 199.882 44.017 200.428 44.017C201.065 44.017 201.611 44.1465 202.066 44.4055C202.521 44.6645 202.875 45.0425 203.127 45.5395C203.484 45.0495 203.942 44.675 204.502 44.416C205.062 44.15 205.696 44.017 206.403 44.017C207.719 44.017 208.713 44.3705 209.385 45.0775C210.057 45.7845 210.393 46.8345 210.393 48.2275V55H207.778V49.1305C207.778 48.2345 207.631 47.5765 207.337 47.1565C207.043 46.7295 206.588 46.516 205.972 46.516C205.552 46.516 205.202 46.6105 204.922 46.7995C204.649 46.9885 204.443 47.2755 204.303 47.6605C204.163 48.0385 204.093 48.518 204.093 49.099V55H201.478V49.1305C201.478 48.2275 201.335 47.566 201.048 47.146C200.761 46.726 200.306 46.516 199.683 46.516C199.046 46.516 198.573 46.7225 198.265 47.1355C197.957 47.5485 197.803 48.189 197.803 49.057V55H195.178ZM218.097 55.252C217.068 55.252 216.179 55.021 215.43 54.559C214.688 54.097 214.114 53.446 213.708 52.606C213.309 51.759 213.109 50.765 213.109 49.624C213.109 48.469 213.312 47.4715 213.718 46.6315C214.131 45.7915 214.709 45.1475 215.451 44.6995C216.2 44.2445 217.082 44.017 218.097 44.017C218.965 44.017 219.752 44.199 220.459 44.563C221.166 44.927 221.73 45.487 222.15 46.243C222.57 46.992 222.78 47.9475 222.78 49.1095C222.78 49.2915 222.773 49.5155 222.759 49.7815C222.752 50.0405 222.734 50.303 222.706 50.569H215.703C215.731 51.059 215.843 51.4895 216.039 51.8605C216.242 52.2245 216.518 52.508 216.868 52.711C217.218 52.914 217.631 53.0155 218.107 53.0155C218.618 53.0155 219.063 52.9315 219.441 52.7635C219.819 52.5885 220.176 52.312 220.512 51.934L222.024 53.4985C221.562 54.0235 221.005 54.447 220.354 54.769C219.703 55.091 218.951 55.252 218.097 55.252ZM215.713 48.5215H220.239C220.204 48.0525 220.099 47.65 219.924 47.314C219.749 46.971 219.504 46.7085 219.189 46.5265C218.874 46.3445 218.492 46.2535 218.044 46.2535C217.428 46.2535 216.903 46.4425 216.469 46.8205C216.035 47.1985 215.783 47.7655 215.713 48.5215ZM225.427 55V44.269H228.052V45.298C228.395 44.871 228.805 44.5525 229.281 44.3425C229.764 44.1255 230.313 44.017 230.929 44.017C232.126 44.017 233.05 44.388 233.701 45.13C234.352 45.865 234.678 46.9255 234.678 48.3115V55H232.063V49.12C232.063 48.217 231.906 47.559 231.591 47.146C231.283 46.726 230.8 46.516 230.142 46.516C229.428 46.516 228.899 46.726 228.556 47.146C228.22 47.559 228.052 48.203 228.052 49.078V55H225.427ZM240.676 55.252C239.822 55.252 239.182 55.0175 238.755 54.5485C238.328 54.0795 238.114 53.3795 238.114 52.4485V46.5685H236.55V44.269H238.114V41.0875L240.718 39.838V44.269H243.154V46.5685H240.718V51.976C240.718 52.312 240.785 52.5605 240.918 52.7215C241.058 52.8825 241.275 52.963 241.569 52.963C242.087 52.963 242.654 52.802 243.27 52.48L242.965 54.769C242.643 54.93 242.293 55.049 241.915 55.126C241.537 55.21 241.124 55.252 240.676 55.252ZM249.114 55.252C248.274 55.252 247.469 55.0735 246.699 54.7165C245.936 54.3595 245.33 53.88 244.882 53.278L246.604 51.829C246.961 52.207 247.374 52.508 247.843 52.732C248.312 52.949 248.76 53.0575 249.187 53.0575C249.719 53.0575 250.129 52.97 250.416 52.795C250.703 52.613 250.846 52.361 250.846 52.039C250.846 51.829 250.776 51.6435 250.636 51.4825C250.503 51.3145 250.265 51.1465 249.922 50.9785C249.579 50.8035 249.096 50.604 248.473 50.38C247.269 49.939 246.415 49.463 245.911 48.952C245.407 48.434 245.155 47.7795 245.155 46.9885C245.155 46.1065 245.512 45.3925 246.226 44.8465C246.94 44.2935 247.871 44.017 249.019 44.017C249.803 44.017 250.524 44.164 251.182 44.458C251.847 44.752 252.418 45.1825 252.894 45.7495L251.182 47.167C250.552 46.53 249.817 46.2115 248.977 46.2115C248.55 46.2115 248.207 46.292 247.948 46.453C247.689 46.607 247.56 46.817 247.56 47.083C247.56 47.342 247.71 47.573 248.011 47.776C248.319 47.979 248.89 48.217 249.723 48.49C250.549 48.749 251.217 49.043 251.728 49.372C252.246 49.701 252.624 50.0825 252.862 50.5165C253.107 50.9505 253.23 51.451 253.23 52.018C253.23 53.026 252.862 53.817 252.127 54.391C251.399 54.965 250.395 55.252 249.114 55.252Z" fill="white"/>
<path d="M195.56 173C195.008 173 194.617 173.676 194.893 174.155L199.333 181.845C199.609 182.324 200.391 182.324 200.667 181.845L205.107 174.155C205.383 173.676 204.992 173 204.44 173H195.56ZM199 103V174H201V103H199Z" fill="#FC00FF"/>
<path d="M85.515 242V227.3H90.471C91.745 227.3 92.83 227.51 93.726 227.93C94.622 228.343 95.3465 228.903 95.8995 229.61C96.4595 230.31 96.8655 231.097 97.1175 231.972C97.3765 232.84 97.506 233.733 97.506 234.65C97.506 235.49 97.3835 236.34 97.1385 237.201C96.9005 238.062 96.5085 238.857 95.9625 239.585C95.4165 240.306 94.685 240.89 93.768 241.338C92.858 241.779 91.731 242 90.387 242H85.515ZM88.2345 239.417H90.6705C91.4195 239.417 92.0495 239.277 92.5605 238.997C93.0715 238.71 93.481 238.335 93.789 237.873C94.104 237.404 94.3315 236.89 94.4715 236.33C94.6185 235.763 94.692 235.203 94.692 234.65C94.692 234.062 94.6185 233.484 94.4715 232.917C94.3245 232.35 94.097 231.836 93.789 231.374C93.481 230.912 93.089 230.544 92.613 230.271C92.137 229.998 91.5665 229.862 90.9015 229.862H88.2345V239.417ZM103.984 242.252C102.787 242.252 101.859 241.881 101.201 241.139C100.543 240.39 100.214 239.333 100.214 237.968V231.269H102.839V237.149C102.839 238.052 102.993 238.71 103.301 239.123C103.609 239.536 104.096 239.742 104.761 239.742C105.475 239.742 106 239.536 106.336 239.123C106.679 238.703 106.85 238.059 106.85 237.191V231.269H109.465V242H106.85V240.992C106.521 241.412 106.115 241.727 105.632 241.937C105.156 242.147 104.607 242.252 103.984 242.252ZM117.619 242.252C117.129 242.252 116.705 242.165 116.348 241.989C115.998 241.814 115.673 241.531 115.372 241.139V242H112.747V228.024L115.372 226.838V232.109C115.645 231.759 115.981 231.489 116.38 231.3C116.786 231.111 117.227 231.017 117.703 231.017C118.592 231.017 119.369 231.251 120.034 231.72C120.699 232.189 121.217 232.847 121.588 233.694C121.966 234.534 122.155 235.511 122.155 236.624C122.155 238.395 121.752 239.777 120.947 240.771C120.149 241.758 119.04 242.252 117.619 242.252ZM117.304 239.742C118.018 239.742 118.564 239.473 118.942 238.934C119.327 238.395 119.519 237.625 119.519 236.624C119.519 235.623 119.327 234.856 118.942 234.324C118.564 233.785 118.018 233.516 117.304 233.516C116.912 233.516 116.541 233.603 116.191 233.778C115.841 233.946 115.568 234.174 115.372 234.461V238.797C115.589 239.105 115.855 239.34 116.17 239.501C116.485 239.662 116.863 239.742 117.304 239.742ZM129.739 242.252C129.249 242.252 128.826 242.165 128.469 241.989C128.119 241.814 127.793 241.531 127.492 241.139V242H124.867V228.024L127.492 226.838V232.109C127.765 231.759 128.101 231.489 128.5 231.3C128.906 231.111 129.347 231.017 129.823 231.017C130.712 231.017 131.489 231.251 132.154 231.72C132.819 232.189 133.337 232.847 133.708 233.694C134.086 234.534 134.275 235.511 134.275 236.624C134.275 238.395 133.873 239.777 133.068 240.771C132.27 241.758 131.16 242.252 129.739 242.252ZM129.424 239.742C130.138 239.742 130.684 239.473 131.062 238.934C131.447 238.395 131.64 237.625 131.64 236.624C131.64 235.623 131.447 234.856 131.062 234.324C130.684 233.785 130.138 233.516 129.424 233.516C129.032 233.516 128.661 233.603 128.311 233.778C127.961 233.946 127.688 234.174 127.492 234.461V238.797C127.709 239.105 127.975 239.34 128.29 239.501C128.605 239.662 128.983 239.742 129.424 239.742ZM141.531 242.252C140.502 242.252 139.613 242.021 138.864 241.559C138.122 241.097 137.548 240.446 137.142 239.606C136.743 238.759 136.543 237.765 136.543 236.624C136.543 235.469 136.746 234.471 137.152 233.631C137.565 232.791 138.143 232.147 138.885 231.699C139.634 231.244 140.516 231.017 141.531 231.017C142.399 231.017 143.186 231.199 143.893 231.563C144.6 231.927 145.164 232.487 145.584 233.243C146.004 233.992 146.214 234.947 146.214 236.109C146.214 236.291 146.207 236.515 146.193 236.781C146.186 237.04 146.168 237.303 146.14 237.569H139.137C139.165 238.059 139.277 238.489 139.473 238.86C139.676 239.224 139.952 239.508 140.302 239.711C140.652 239.914 141.065 240.015 141.541 240.015C142.052 240.015 142.497 239.931 142.875 239.763C143.253 239.588 143.61 239.312 143.946 238.934L145.458 240.498C144.996 241.023 144.439 241.447 143.788 241.769C143.137 242.091 142.385 242.252 141.531 242.252ZM139.147 235.521H143.673C143.638 235.052 143.533 234.65 143.358 234.314C143.183 233.971 142.938 233.708 142.623 233.526C142.308 233.344 141.926 233.253 141.478 233.253C140.862 233.253 140.337 233.442 139.903 233.82C139.469 234.198 139.217 234.765 139.147 235.521ZM153.022 242.252C151.643 242.252 150.562 241.755 149.778 240.761C148.994 239.767 148.602 238.388 148.602 236.624C148.602 235.504 148.787 234.524 149.158 233.684C149.529 232.844 150.047 232.189 150.712 231.72C151.384 231.251 152.165 231.017 153.054 231.017C154.006 231.017 154.786 231.367 155.395 232.067V228.024L158.01 226.838V242H155.395V241.118C154.877 241.874 154.086 242.252 153.022 242.252ZM153.453 239.742C153.901 239.742 154.282 239.665 154.597 239.511C154.912 239.35 155.178 239.112 155.395 238.797V234.461C155.178 234.167 154.895 233.936 154.545 233.768C154.202 233.6 153.838 233.516 153.453 233.516C152.746 233.516 152.2 233.785 151.815 234.324C151.43 234.856 151.237 235.623 151.237 236.624C151.237 237.282 151.325 237.845 151.5 238.314C151.675 238.776 151.927 239.13 152.256 239.375C152.585 239.62 152.984 239.742 153.453 239.742ZM169.71 242.252C168.541 242.252 167.613 241.937 166.927 241.307C166.248 240.67 165.909 239.809 165.909 238.724C165.909 238.024 166.084 237.411 166.434 236.886C166.791 236.354 167.284 235.945 167.914 235.658C168.551 235.364 169.293 235.217 170.14 235.217C170.609 235.217 171.061 235.262 171.495 235.353C171.936 235.437 172.321 235.56 172.65 235.721V235.049C172.65 234.447 172.478 233.995 172.135 233.694C171.799 233.386 171.302 233.232 170.644 233.232C170.119 233.232 169.58 233.327 169.027 233.516C168.474 233.705 167.914 233.985 167.347 234.356L166.56 232.287C167.176 231.881 167.862 231.57 168.618 231.353C169.374 231.129 170.137 231.017 170.907 231.017C172.349 231.017 173.427 231.36 174.141 232.046C174.855 232.725 175.212 233.74 175.212 235.091V242H172.65V241.139C172.286 241.503 171.852 241.779 171.348 241.968C170.851 242.158 170.305 242.252 169.71 242.252ZM170.319 240.036C170.753 240.036 171.169 239.952 171.568 239.784C171.974 239.609 172.335 239.364 172.65 239.049V237.779C172.349 237.632 172.013 237.52 171.642 237.443C171.278 237.359 170.914 237.317 170.55 237.317C169.899 237.317 169.384 237.443 169.006 237.695C168.635 237.94 168.45 238.283 168.45 238.724C168.45 239.137 168.614 239.459 168.943 239.69C169.272 239.921 169.731 240.036 170.319 240.036ZM178.351 242V231.269H180.976V232.298C181.319 231.871 181.729 231.552 182.205 231.342C182.688 231.125 183.237 231.017 183.853 231.017C185.05 231.017 185.974 231.388 186.625 232.13C187.276 232.865 187.602 233.925 187.602 235.311V242H184.987V236.12C184.987 235.217 184.83 234.559 184.515 234.146C184.207 233.726 183.724 233.516 183.066 233.516C182.352 233.516 181.823 233.726 181.48 234.146C181.144 234.559 180.976 235.203 180.976 236.078V242H178.351ZM194.735 242.252C193.356 242.252 192.275 241.755 191.491 240.761C190.707 239.767 190.315 238.388 190.315 236.624C190.315 235.504 190.5 234.524 190.871 233.684C191.242 232.844 191.76 232.189 192.425 231.72C193.097 231.251 193.878 231.017 194.767 231.017C195.719 231.017 196.499 231.367 197.108 232.067V228.024L199.723 226.838V242H197.108V241.118C196.59 241.874 195.799 242.252 194.735 242.252ZM195.166 239.742C195.614 239.742 195.995 239.665 196.31 239.511C196.625 239.35 196.891 239.112 197.108 238.797V234.461C196.891 234.167 196.608 233.936 196.258 233.768C195.915 233.6 195.551 233.516 195.166 233.516C194.459 233.516 193.913 233.785 193.528 234.324C193.143 234.856 192.95 235.623 192.95 236.624C192.95 237.282 193.038 237.845 193.213 238.314C193.388 238.776 193.64 239.13 193.969 239.375C194.298 239.62 194.697 239.742 195.166 239.742ZM212.672 242.252C211.643 242.252 210.754 242.021 210.005 241.559C209.263 241.097 208.689 240.446 208.283 239.606C207.884 238.759 207.685 237.765 207.685 236.624C207.685 235.469 207.888 234.471 208.294 233.631C208.707 232.791 209.284 232.147 210.026 231.699C210.775 231.244 211.657 231.017 212.672 231.017C213.54 231.017 214.328 231.199 215.035 231.563C215.742 231.927 216.305 232.487 216.725 233.243C217.145 233.992 217.355 234.947 217.355 236.109C217.355 236.291 217.348 236.515 217.334 236.781C217.327 237.04 217.31 237.303 217.282 237.569H210.278C210.306 238.059 210.418 238.489 210.614 238.86C210.817 239.224 211.094 239.508 211.444 239.711C211.794 239.914 212.207 240.015 212.683 240.015C213.194 240.015 213.638 239.931 214.016 239.763C214.394 239.588 214.751 239.312 215.087 238.934L216.599 240.498C216.137 241.023 215.581 241.447 214.93 241.769C214.279 242.091 213.526 242.252 212.672 242.252ZM210.289 235.521H214.814C214.779 235.052 214.674 234.65 214.499 234.314C214.324 233.971 214.079 233.708 213.764 233.526C213.449 233.344 213.068 233.253 212.62 233.253C212.004 233.253 211.479 233.442 211.045 233.82C210.611 234.198 210.359 234.765 210.289 235.521ZM224.164 242.252C222.785 242.252 221.703 241.755 220.919 240.761C220.135 239.767 219.743 238.388 219.743 236.624C219.743 235.504 219.929 234.524 220.3 233.684C220.671 232.844 221.189 232.189 221.854 231.72C222.526 231.251 223.306 231.017 224.195 231.017C225.147 231.017 225.928 231.367 226.537 232.067V228.024L229.151 226.838V242H226.537V241.118C226.019 241.874 225.228 242.252 224.164 242.252ZM224.594 239.742C225.042 239.742 225.424 239.665 225.739 239.511C226.054 239.35 226.32 239.112 226.537 238.797V234.461C226.32 234.167 226.036 233.936 225.686 233.768C225.343 233.6 224.979 233.516 224.594 233.516C223.887 233.516 223.341 233.785 222.956 234.324C222.571 234.856 222.379 235.623 222.379 236.624C222.379 237.282 222.466 237.845 222.641 238.314C222.816 238.776 223.068 239.13 223.397 239.375C223.726 239.62 224.125 239.742 224.594 239.742ZM232.451 242V231.269H235.076V242H232.451ZM233.764 229.925C233.344 229.925 232.98 229.774 232.672 229.473C232.371 229.165 232.22 228.801 232.22 228.381C232.22 227.961 232.371 227.604 232.672 227.31C232.973 227.009 233.337 226.859 233.764 226.859C234.205 226.859 234.572 227.006 234.866 227.3C235.16 227.594 235.307 227.954 235.307 228.381C235.307 228.808 235.157 229.172 234.856 229.473C234.562 229.774 234.198 229.925 233.764 229.925ZM241.507 242.252C240.653 242.252 240.012 242.017 239.585 241.548C239.158 241.079 238.945 240.379 238.945 239.448V233.568H237.38V231.269H238.945V228.087L241.549 226.838V231.269H243.985V233.568H241.549V238.976C241.549 239.312 241.615 239.56 241.748 239.721C241.888 239.882 242.105 239.963 242.399 239.963C242.917 239.963 243.484 239.802 244.1 239.48L243.796 241.769C243.474 241.93 243.124 242.049 242.746 242.126C242.368 242.21 241.955 242.252 241.507 242.252ZM250.94 242.252C249.911 242.252 249.022 242.021 248.273 241.559C247.531 241.097 246.957 240.446 246.551 239.606C246.152 238.759 245.952 237.765 245.952 236.624C245.952 235.469 246.155 234.471 246.561 233.631C246.974 232.791 247.552 232.147 248.294 231.699C249.043 231.244 249.925 231.017 250.94 231.017C251.808 231.017 252.595 231.199 253.302 231.563C254.009 231.927 254.573 232.487 254.993 233.243C255.413 233.992 255.623 234.947 255.623 236.109C255.623 236.291 255.616 236.515 255.602 236.781C255.595 237.04 255.577 237.303 255.549 237.569H248.546C248.574 238.059 248.686 238.489 248.882 238.86C249.085 239.224 249.361 239.508 249.711 239.711C250.061 239.914 250.474 240.015 250.95 240.015C251.461 240.015 251.906 239.931 252.284 239.763C252.662 239.588 253.019 239.312 253.355 238.934L254.867 240.498C254.405 241.023 253.848 241.447 253.197 241.769C252.546 242.091 251.794 242.252 250.94 242.252ZM248.556 235.521H253.082C253.047 235.052 252.942 234.65 252.767 234.314C252.592 233.971 252.347 233.708 252.032 233.526C251.717 233.344 251.335 233.253 250.887 233.253C250.271 233.253 249.746 233.442 249.312 233.82C248.878 234.198 248.626 234.765 248.556 235.521ZM262.431 242.252C261.052 242.252 259.971 241.755 259.187 240.761C258.403 239.767 258.011 238.388 258.011 236.624C258.011 235.504 258.196 234.524 258.567 233.684C258.938 232.844 259.456 232.189 260.121 231.72C260.793 231.251 261.574 231.017 262.463 231.017C263.415 231.017 264.195 231.367 264.804 232.067V228.024L267.419 226.838V242H264.804V241.118C264.286 241.874 263.495 242.252 262.431 242.252ZM262.862 239.742C263.31 239.742 263.691 239.665 264.006 239.511C264.321 239.35 264.587 239.112 264.804 238.797V234.461C264.587 234.167 264.304 233.936 263.954 233.768C263.611 233.6 263.247 233.516 262.862 233.516C262.155 233.516 261.609 233.785 261.224 234.324C260.839 234.856 260.646 235.623 260.646 236.624C260.646 237.282 260.734 237.845 260.909 238.314C261.084 238.776 261.336 239.13 261.665 239.375C261.994 239.62 262.393 239.742 262.862 239.742ZM278.027 242L275.066 231.269H277.649L278.951 236.634C279 236.823 279.049 237.054 279.098 237.327C279.154 237.593 279.2 237.842 279.235 238.073C279.284 237.849 279.34 237.6 279.403 237.327C279.466 237.054 279.522 236.823 279.571 236.634L281.009 231.269H283.298L284.726 236.634C284.775 236.83 284.831 237.065 284.894 237.338C284.964 237.611 285.02 237.859 285.062 238.083C285.104 237.852 285.15 237.604 285.199 237.338C285.248 237.072 285.297 236.837 285.346 236.634L286.679 231.269H289.262L286.27 242H283.949L282.542 236.634C282.493 236.438 282.43 236.179 282.353 235.857C282.276 235.535 282.21 235.248 282.154 234.996C282.105 235.248 282.042 235.535 281.965 235.857C281.888 236.179 281.825 236.438 281.776 236.634L280.358 242H278.027ZM291.678 242V231.269H294.303V242H291.678ZM292.991 229.925C292.571 229.925 292.207 229.774 291.899 229.473C291.598 229.165 291.447 228.801 291.447 228.381C291.447 227.961 291.598 227.604 291.899 227.31C292.2 227.009 292.564 226.859 292.991 226.859C293.432 226.859 293.799 227.006 294.093 227.3C294.387 227.594 294.534 227.954 294.534 228.381C294.534 228.808 294.384 229.172 294.083 229.473C293.789 229.774 293.425 229.925 292.991 229.925ZM300.733 242.252C299.879 242.252 299.239 242.017 298.812 241.548C298.385 241.079 298.171 240.379 298.171 239.448V233.568H296.607V231.269H298.171V228.087L300.775 226.838V231.269H303.211V233.568H300.775V238.976C300.775 239.312 300.842 239.56 300.975 239.721C301.115 239.882 301.332 239.963 301.626 239.963C302.144 239.963 302.711 239.802 303.327 239.48L303.022 241.769C302.7 241.93 302.35 242.049 301.972 242.126C301.594 242.21 301.181 242.252 300.733 242.252ZM305.438 242V228.045L308.063 226.838V232.308C308.406 231.874 308.816 231.552 309.292 231.342C309.775 231.125 310.324 231.017 310.94 231.017C311.766 231.017 312.456 231.192 313.009 231.542C313.569 231.885 313.989 232.378 314.269 233.022C314.549 233.659 314.689 234.422 314.689 235.311V242H312.074V236.12C312.074 235.238 311.924 234.583 311.623 234.156C311.322 233.729 310.832 233.516 310.153 233.516C309.439 233.516 308.91 233.726 308.567 234.146C308.231 234.559 308.063 235.203 308.063 236.078V242H305.438ZM79.8318 273.263V258.269H82.4568V259.056C83.0448 258.363 83.8323 258.017 84.8193 258.017C85.7363 258.017 86.5273 258.244 87.1923 258.699C87.8573 259.147 88.3683 259.791 88.7253 260.631C89.0823 261.471 89.2608 262.472 89.2608 263.634C89.2608 264.761 89.0753 265.748 88.7043 266.595C88.3333 267.435 87.8118 268.09 87.1398 268.559C86.4678 269.021 85.6838 269.252 84.7878 269.252C84.2978 269.252 83.8568 269.165 83.4648 268.989C83.0728 268.807 82.7368 268.541 82.4568 268.191V272.077L79.8318 273.263ZM84.3993 266.742C85.1133 266.742 85.6628 266.473 86.0478 265.934C86.4328 265.388 86.6253 264.621 86.6253 263.634C86.6253 262.647 86.4293 261.881 86.0373 261.335C85.6453 260.789 85.0993 260.516 84.3993 260.516C83.9723 260.516 83.5978 260.593 83.2758 260.747C82.9608 260.901 82.6878 261.135 82.4568 261.45V265.787C82.6458 266.088 82.9118 266.322 83.2548 266.49C83.6048 266.658 83.9863 266.742 84.3993 266.742ZM91.7674 269V258.269H94.3924V259.424C94.5884 259.011 94.8964 258.675 95.3164 258.416C95.7364 258.15 96.1774 258.017 96.6394 258.017C97.4024 258.017 98.0464 258.279 98.5714 258.804L98.2039 261.209C97.9169 260.971 97.6369 260.803 97.3639 260.705C97.0909 260.607 96.7899 260.558 96.4609 260.558C96.0269 260.558 95.6559 260.659 95.3479 260.862C95.0399 261.065 94.8019 261.359 94.6339 261.744C94.4729 262.129 94.3924 262.591 94.3924 263.13V269H91.7674ZM104.276 269.252C102.764 269.252 101.571 268.751 100.696 267.75C99.8205 266.749 99.383 265.381 99.383 263.645C99.383 262.497 99.5825 261.503 99.9815 260.663C100.381 259.816 100.944 259.165 101.672 258.71C102.407 258.248 103.275 258.017 104.276 258.017C105.27 258.017 106.131 258.244 106.859 258.699C107.587 259.154 108.147 259.802 108.539 260.642C108.931 261.482 109.127 262.479 109.127 263.634C109.127 264.796 108.931 265.797 108.539 266.637C108.154 267.477 107.598 268.125 106.87 268.58C106.142 269.028 105.277 269.252 104.276 269.252ZM104.276 266.742C104.983 266.742 105.533 266.469 105.925 265.923C106.317 265.377 106.513 264.614 106.513 263.634C106.513 262.654 106.313 261.891 105.914 261.345C105.522 260.792 104.976 260.516 104.276 260.516C103.569 260.516 103.016 260.792 102.617 261.345C102.218 261.898 102.019 262.665 102.019 263.645C102.019 264.611 102.218 265.37 102.617 265.923C103.016 266.469 103.569 266.742 104.276 266.742ZM112.248 269V260.568H110.736V258.269H112.248V256.61C112.248 255.77 112.468 255.133 112.909 254.699C113.357 254.265 114.005 254.048 114.852 254.048C115.328 254.048 115.751 254.093 116.122 254.184C116.5 254.268 116.861 254.398 117.204 254.573V256.715C116.917 256.596 116.644 256.505 116.385 256.442C116.126 256.372 115.888 256.337 115.671 256.337C115.405 256.337 115.205 256.403 115.072 256.536C114.939 256.662 114.873 256.858 114.873 257.124V258.269H117.204V260.568H114.873V269H112.248ZM123.238 269.252C122.209 269.252 121.32 269.021 120.571 268.559C119.829 268.097 119.255 267.446 118.849 266.606C118.45 265.759 118.25 264.765 118.25 263.624C118.25 262.469 118.453 261.471 118.859 260.631C119.272 259.791 119.85 259.147 120.592 258.699C121.341 258.244 122.223 258.017 123.238 258.017C124.106 258.017 124.893 258.199 125.6 258.563C126.307 258.927 126.871 259.487 127.291 260.243C127.711 260.992 127.921 261.947 127.921 263.109C127.921 263.291 127.914 263.515 127.9 263.781C127.893 264.04 127.875 264.303 127.847 264.569H120.844C120.872 265.059 120.984 265.489 121.18 265.86C121.383 266.224 121.659 266.508 122.009 266.711C122.359 266.914 122.772 267.015 123.248 267.015C123.759 267.015 124.204 266.931 124.582 266.763C124.96 266.588 125.317 266.312 125.653 265.934L127.165 267.498C126.703 268.023 126.146 268.447 125.495 268.769C124.844 269.091 124.092 269.252 123.238 269.252ZM120.854 262.521H125.38C125.345 262.052 125.24 261.65 125.065 261.314C124.89 260.971 124.645 260.708 124.33 260.526C124.015 260.344 123.633 260.253 123.185 260.253C122.569 260.253 122.044 260.442 121.61 260.82C121.176 261.198 120.924 261.765 120.854 262.521ZM133.829 269.252C132.989 269.252 132.184 269.073 131.414 268.716C130.651 268.359 130.046 267.88 129.598 267.278L131.32 265.829C131.677 266.207 132.09 266.508 132.559 266.732C133.028 266.949 133.476 267.057 133.903 267.057C134.435 267.057 134.844 266.97 135.131 266.795C135.418 266.613 135.562 266.361 135.562 266.039C135.562 265.829 135.492 265.643 135.352 265.482C135.219 265.314 134.981 265.146 134.638 264.978C134.295 264.803 133.812 264.604 133.189 264.38C131.985 263.939 131.131 263.463 130.627 262.952C130.123 262.434 129.871 261.779 129.871 260.988C129.871 260.106 130.228 259.392 130.942 258.846C131.656 258.293 132.587 258.017 133.735 258.017C134.519 258.017 135.24 258.164 135.898 258.458C136.563 258.752 137.133 259.182 137.609 259.749L135.898 261.167C135.268 260.53 134.533 260.211 133.693 260.211C133.266 260.211 132.923 260.292 132.664 260.453C132.405 260.607 132.275 260.817 132.275 261.083C132.275 261.342 132.426 261.573 132.727 261.776C133.035 261.979 133.605 262.217 134.438 262.49C135.264 262.749 135.933 263.043 136.444 263.372C136.962 263.701 137.34 264.082 137.578 264.516C137.823 264.95 137.945 265.451 137.945 266.018C137.945 267.026 137.578 267.817 136.843 268.391C136.115 268.965 135.11 269.252 133.829 269.252ZM144.165 269.252C143.325 269.252 142.52 269.073 141.75 268.716C140.987 268.359 140.382 267.88 139.934 267.278L141.656 265.829C142.013 266.207 142.426 266.508 142.895 266.732C143.364 266.949 143.812 267.057 144.239 267.057C144.771 267.057 145.18 266.97 145.467 266.795C145.754 266.613 145.898 266.361 145.898 266.039C145.898 265.829 145.828 265.643 145.688 265.482C145.555 265.314 145.317 265.146 144.974 264.978C144.631 264.803 144.148 264.604 143.525 264.38C142.321 263.939 141.467 263.463 140.963 262.952C140.459 262.434 140.207 261.779 140.207 260.988C140.207 260.106 140.564 259.392 141.278 258.846C141.992 258.293 142.923 258.017 144.071 258.017C144.855 258.017 145.576 258.164 146.234 258.458C146.899 258.752 147.469 259.182 147.945 259.749L146.234 261.167C145.604 260.53 144.869 260.211 144.029 260.211C143.602 260.211 143.259 260.292 143 260.453C142.741 260.607 142.611 260.817 142.611 261.083C142.611 261.342 142.762 261.573 143.063 261.776C143.371 261.979 143.941 262.217 144.774 262.49C145.6 262.749 146.269 263.043 146.78 263.372C147.298 263.701 147.676 264.082 147.914 264.516C148.159 264.95 148.281 265.451 148.281 266.018C148.281 267.026 147.914 267.817 147.179 268.391C146.451 268.965 145.446 269.252 144.165 269.252ZM151.015 269V258.269H153.64V269H151.015ZM152.327 256.925C151.907 256.925 151.543 256.774 151.235 256.473C150.934 256.165 150.784 255.801 150.784 255.381C150.784 254.961 150.934 254.604 151.235 254.31C151.536 254.009 151.9 253.859 152.327 253.859C152.768 253.859 153.136 254.006 153.43 254.3C153.724 254.594 153.871 254.954 153.871 255.381C153.871 255.808 153.72 256.172 153.419 256.473C153.125 256.774 152.761 256.925 152.327 256.925ZM161.267 269.252C159.755 269.252 158.562 268.751 157.687 267.75C156.812 266.749 156.374 265.381 156.374 263.645C156.374 262.497 156.574 261.503 156.973 260.663C157.372 259.816 157.935 259.165 158.663 258.71C159.398 258.248 160.266 258.017 161.267 258.017C162.261 258.017 163.122 258.244 163.85 258.699C164.578 259.154 165.138 259.802 165.53 260.642C165.922 261.482 166.118 262.479 166.118 263.634C166.118 264.796 165.922 265.797 165.53 266.637C165.145 267.477 164.589 268.125 163.861 268.58C163.133 269.028 162.268 269.252 161.267 269.252ZM161.267 266.742C161.974 266.742 162.524 266.469 162.916 265.923C163.308 265.377 163.504 264.614 163.504 263.634C163.504 262.654 163.304 261.891 162.905 261.345C162.513 260.792 161.967 260.516 161.267 260.516C160.56 260.516 160.007 260.792 159.608 261.345C159.209 261.898 159.01 262.665 159.01 263.645C159.01 264.611 159.209 265.37 159.608 265.923C160.007 266.469 160.56 266.742 161.267 266.742ZM168.631 269V258.269H171.256V259.298C171.599 258.871 172.008 258.552 172.484 258.342C172.967 258.125 173.517 258.017 174.133 258.017C175.33 258.017 176.254 258.388 176.905 259.13C177.556 259.865 177.881 260.925 177.881 262.311V269H175.267V263.12C175.267 262.217 175.109 261.559 174.794 261.146C174.486 260.726 174.003 260.516 173.345 260.516C172.631 260.516 172.103 260.726 171.76 261.146C171.424 261.559 171.256 262.203 171.256 263.078V269H168.631ZM184.25 269.252C183.081 269.252 182.153 268.937 181.467 268.307C180.788 267.67 180.449 266.809 180.449 265.724C180.449 265.024 180.624 264.411 180.974 263.886C181.331 263.354 181.824 262.945 182.454 262.658C183.091 262.364 183.833 262.217 184.68 262.217C185.149 262.217 185.601 262.262 186.035 262.353C186.476 262.437 186.861 262.56 187.19 262.721V262.049C187.19 261.447 187.018 260.995 186.675 260.694C186.339 260.386 185.842 260.232 185.184 260.232C184.659 260.232 184.12 260.327 183.567 260.516C183.014 260.705 182.454 260.985 181.887 261.356L181.1 259.287C181.716 258.881 182.402 258.57 183.158 258.353C183.914 258.129 184.677 258.017 185.447 258.017C186.889 258.017 187.967 258.36 188.681 259.046C189.395 259.725 189.752 260.74 189.752 262.091V269H187.19V268.139C186.826 268.503 186.392 268.779 185.888 268.968C185.391 269.158 184.845 269.252 184.25 269.252ZM184.859 267.036C185.293 267.036 185.709 266.952 186.108 266.784C186.514 266.609 186.875 266.364 187.19 266.049V264.779C186.889 264.632 186.553 264.52 186.182 264.443C185.818 264.359 185.454 264.317 185.09 264.317C184.439 264.317 183.924 264.443 183.546 264.695C183.175 264.94 182.99 265.283 182.99 265.724C182.99 266.137 183.154 266.459 183.483 266.69C183.812 266.921 184.271 267.036 184.859 267.036ZM192.873 269V255.024L195.498 253.838V269H192.873ZM207.007 269L203.08 258.269H205.799L208.046 264.653C208.109 264.807 208.165 264.971 208.214 265.146C208.263 265.321 208.312 265.496 208.361 265.671C208.41 265.496 208.459 265.321 208.508 265.146C208.564 264.971 208.617 264.807 208.666 264.653L210.902 258.269H213.611L209.684 269H207.007ZM219.899 269.252C218.387 269.252 217.194 268.751 216.319 267.75C215.444 266.749 215.006 265.381 215.006 263.645C215.006 262.497 215.206 261.503 215.605 260.663C216.004 259.816 216.567 259.165 217.295 258.71C218.03 258.248 218.898 258.017 219.899 258.017C220.893 258.017 221.754 258.244 222.482 258.699C223.21 259.154 223.77 259.802 224.162 260.642C224.554 261.482 224.75 262.479 224.75 263.634C224.75 264.796 224.554 265.797 224.162 266.637C223.777 267.477 223.221 268.125 222.493 268.58C221.765 269.028 220.9 269.252 219.899 269.252ZM219.899 266.742C220.606 266.742 221.156 266.469 221.548 265.923C221.94 265.377 222.136 264.614 222.136 263.634C222.136 262.654 221.936 261.891 221.537 261.345C221.145 260.792 220.599 260.516 219.899 260.516C219.192 260.516 218.639 260.792 218.24 261.345C217.841 261.898 217.642 262.665 217.642 263.645C217.642 264.611 217.841 265.37 218.24 265.923C218.639 266.469 219.192 266.742 219.899 266.742ZM227.489 269V258.269H230.114V269H227.489ZM228.801 256.925C228.381 256.925 228.017 256.774 227.709 256.473C227.408 256.165 227.258 255.801 227.258 255.381C227.258 254.961 227.408 254.604 227.709 254.31C228.01 254.009 228.374 253.859 228.801 253.859C229.242 253.859 229.61 254.006 229.904 254.3C230.198 254.594 230.345 254.954 230.345 255.381C230.345 255.808 230.194 256.172 229.893 256.473C229.599 256.774 229.235 256.925 228.801 256.925ZM237.667 269.252C236.68 269.252 235.826 269.024 235.105 268.569C234.384 268.114 233.828 267.47 233.436 266.637C233.044 265.797 232.848 264.8 232.848 263.645C232.848 262.49 233.044 261.492 233.436 260.652C233.835 259.812 234.398 259.165 235.126 258.71C235.854 258.248 236.712 258.017 237.699 258.017C238.812 258.017 239.736 258.276 240.471 258.794C241.213 259.305 241.748 260.064 242.077 261.072L239.589 261.912C239.421 261.464 239.176 261.121 238.854 260.883C238.532 260.638 238.161 260.516 237.741 260.516C237.062 260.516 236.519 260.796 236.113 261.356C235.714 261.916 235.515 262.679 235.515 263.645C235.515 264.597 235.711 265.353 236.103 265.913C236.495 266.473 237.023 266.753 237.688 266.753C238.157 266.753 238.556 266.62 238.885 266.354C239.221 266.088 239.47 265.699 239.631 265.188L242.109 265.934C241.794 267.033 241.258 267.862 240.502 268.422C239.753 268.975 238.808 269.252 237.667 269.252ZM249.156 269.252C248.127 269.252 247.238 269.021 246.489 268.559C245.747 268.097 245.173 267.446 244.767 266.606C244.368 265.759 244.168 264.765 244.168 263.624C244.168 262.469 244.371 261.471 244.777 260.631C245.19 259.791 245.768 259.147 246.51 258.699C247.259 258.244 248.141 258.017 249.156 258.017C250.024 258.017 250.811 258.199 251.518 258.563C252.225 258.927 252.789 259.487 253.209 260.243C253.629 260.992 253.839 261.947 253.839 263.109C253.839 263.291 253.832 263.515 253.818 263.781C253.811 264.04 253.793 264.303 253.765 264.569H246.762C246.79 265.059 246.902 265.489 247.098 265.86C247.301 266.224 247.577 266.508 247.927 266.711C248.277 266.914 248.69 267.015 249.166 267.015C249.677 267.015 250.122 266.931 250.5 266.763C250.878 266.588 251.235 266.312 251.571 265.934L253.083 267.498C252.621 268.023 252.064 268.447 251.413 268.769C250.762 269.091 250.01 269.252 249.156 269.252ZM246.772 262.521H251.298C251.263 262.052 251.158 261.65 250.983 261.314C250.808 260.971 250.563 260.708 250.248 260.526C249.933 260.344 249.551 260.253 249.103 260.253C248.487 260.253 247.962 260.442 247.528 260.82C247.094 261.198 246.842 261.765 246.772 262.521ZM264.846 269.252C263.677 269.252 262.749 268.937 262.063 268.307C261.384 267.67 261.045 266.809 261.045 265.724C261.045 265.024 261.22 264.411 261.57 263.886C261.927 263.354 262.42 262.945 263.05 262.658C263.687 262.364 264.429 262.217 265.276 262.217C265.745 262.217 266.197 262.262 266.631 262.353C267.072 262.437 267.457 262.56 267.786 262.721V262.049C267.786 261.447 267.614 260.995 267.271 260.694C266.935 260.386 266.438 260.232 265.78 260.232C265.255 260.232 264.716 260.327 264.163 260.516C263.61 260.705 263.05 260.985 262.483 261.356L261.696 259.287C262.312 258.881 262.998 258.57 263.754 258.353C264.51 258.129 265.273 258.017 266.043 258.017C267.485 258.017 268.563 258.36 269.277 259.046C269.991 259.725 270.348 260.74 270.348 262.091V269H267.786V268.139C267.422 268.503 266.988 268.779 266.484 268.968C265.987 269.158 265.441 269.252 264.846 269.252ZM265.455 267.036C265.889 267.036 266.305 266.952 266.704 266.784C267.11 266.609 267.471 266.364 267.786 266.049V264.779C267.485 264.632 267.149 264.52 266.778 264.443C266.414 264.359 266.05 264.317 265.686 264.317C265.035 264.317 264.52 264.443 264.142 264.695C263.771 264.94 263.586 265.283 263.586 265.724C263.586 266.137 263.75 266.459 264.079 266.69C264.408 266.921 264.867 267.036 265.455 267.036ZM277.719 269.252C276.732 269.252 275.878 269.024 275.157 268.569C274.436 268.114 273.88 267.47 273.488 266.637C273.096 265.797 272.9 264.8 272.9 263.645C272.9 262.49 273.096 261.492 273.488 260.652C273.887 259.812 274.45 259.165 275.178 258.71C275.906 258.248 276.764 258.017 277.751 258.017C278.864 258.017 279.788 258.276 280.523 258.794C281.265 259.305 281.8 260.064 282.129 261.072L279.641 261.912C279.473 261.464 279.228 261.121 278.906 260.883C278.584 260.638 278.213 260.516 277.793 260.516C277.114 260.516 276.571 260.796 276.165 261.356C275.766 261.916 275.567 262.679 275.567 263.645C275.567 264.597 275.763 265.353 276.155 265.913C276.547 266.473 277.075 266.753 277.74 266.753C278.209 266.753 278.608 266.62 278.937 266.354C279.273 266.088 279.522 265.699 279.683 265.188L282.161 265.934C281.846 267.033 281.31 267.862 280.554 268.422C279.805 268.975 278.86 269.252 277.719 269.252ZM287.854 269.252C287 269.252 286.36 269.017 285.933 268.548C285.506 268.079 285.292 267.379 285.292 266.448V260.568H283.728V258.269H285.292V255.087L287.896 253.838V258.269H290.332V260.568H287.896V265.976C287.896 266.312 287.963 266.56 288.096 266.721C288.236 266.882 288.453 266.963 288.747 266.963C289.265 266.963 289.832 266.802 290.448 266.48L290.143 268.769C289.821 268.93 289.471 269.049 289.093 269.126C288.715 269.21 288.302 269.252 287.854 269.252ZM297.193 269.252C295.681 269.252 294.488 268.751 293.613 267.75C292.738 266.749 292.3 265.381 292.3 263.645C292.3 262.497 292.5 261.503 292.899 260.663C293.298 259.816 293.861 259.165 294.589 258.71C295.324 258.248 296.192 258.017 297.193 258.017C298.187 258.017 299.048 258.244 299.776 258.699C300.504 259.154 301.064 259.802 301.456 260.642C301.848 261.482 302.044 262.479 302.044 263.634C302.044 264.796 301.848 265.797 301.456 266.637C301.071 267.477 300.515 268.125 299.787 268.58C299.059 269.028 298.194 269.252 297.193 269.252ZM297.193 266.742C297.9 266.742 298.45 266.469 298.842 265.923C299.234 265.377 299.43 264.614 299.43 263.634C299.43 262.654 299.23 261.891 298.831 261.345C298.439 260.792 297.893 260.516 297.193 260.516C296.486 260.516 295.933 260.792 295.534 261.345C295.135 261.898 294.936 262.665 294.936 263.645C294.936 264.611 295.135 265.37 295.534 265.923C295.933 266.469 296.486 266.742 297.193 266.742ZM304.556 269V258.269H307.181V259.424C307.377 259.011 307.685 258.675 308.105 258.416C308.525 258.15 308.966 258.017 309.428 258.017C310.191 258.017 310.835 258.279 311.36 258.804L310.993 261.209C310.706 260.971 310.426 260.803 310.153 260.705C309.88 260.607 309.579 260.558 309.25 260.558C308.816 260.558 308.445 260.659 308.137 260.862C307.829 261.065 307.591 261.359 307.423 261.744C307.262 262.129 307.181 262.591 307.181 263.13V269H304.556ZM316.615 269.252C315.775 269.252 314.97 269.073 314.2 268.716C313.437 268.359 312.832 267.88 312.384 267.278L314.106 265.829C314.463 266.207 314.876 266.508 315.345 266.732C315.814 266.949 316.262 267.057 316.689 267.057C317.221 267.057 317.63 266.97 317.917 266.795C318.204 266.613 318.348 266.361 318.348 266.039C318.348 265.829 318.278 265.643 318.138 265.482C318.005 265.314 317.767 265.146 317.424 264.978C317.081 264.803 316.598 264.604 315.975 264.38C314.771 263.939 313.917 263.463 313.413 262.952C312.909 262.434 312.657 261.779 312.657 260.988C312.657 260.106 313.014 259.392 313.728 258.846C314.442 258.293 315.373 258.017 316.521 258.017C317.305 258.017 318.026 258.164 318.684 258.458C319.349 258.752 319.919 259.182 320.395 259.749L318.684 261.167C318.054 260.53 317.319 260.211 316.479 260.211C316.052 260.211 315.709 260.292 315.45 260.453C315.191 260.607 315.061 260.817 315.061 261.083C315.061 261.342 315.212 261.573 315.513 261.776C315.821 261.979 316.391 262.217 317.224 262.49C318.05 262.749 318.719 263.043 319.23 263.372C319.748 263.701 320.126 264.082 320.364 264.516C320.609 264.95 320.731 265.451 320.731 266.018C320.731 267.026 320.364 267.817 319.629 268.391C318.901 268.965 317.896 269.252 316.615 269.252Z" fill="white"/>
<path d="M195.56 387C195.008 387 194.617 387.676 194.893 388.155L199.333 395.845C199.609 396.324 200.391 396.324 200.667 395.845L205.107 388.155C205.383 387.676 204.992 387 204.44 387H195.56ZM199 317V388H201V317H199Z" fill="#FC00FF"/>
<path d="M98.9983 456.252C98.0813 456.252 97.2483 456.091 96.4993 455.769C95.7503 455.447 95.1063 454.992 94.5673 454.404C94.0353 453.809 93.6363 453.109 93.3703 452.304L95.8378 451.39C96.1528 452.062 96.5903 452.615 97.1503 453.049C97.7173 453.476 98.3543 453.69 99.0613 453.69C99.8103 453.69 100.405 453.532 100.846 453.217C101.294 452.902 101.518 452.444 101.518 451.842C101.518 451.429 101.385 451.086 101.119 450.813C100.86 450.533 100.507 450.295 100.059 450.099C99.6178 449.896 99.1173 449.7 98.5573 449.511C98.0183 449.329 97.4758 449.126 96.9298 448.902C96.3838 448.678 95.8833 448.405 95.4283 448.083C94.9733 447.754 94.6058 447.341 94.3258 446.844C94.0528 446.347 93.9163 445.738 93.9163 445.017C93.9163 444.296 94.1088 443.634 94.4938 443.032C94.8788 442.43 95.4353 441.951 96.1633 441.594C96.8983 441.23 97.7873 441.048 98.8303 441.048C99.6843 441.048 100.44 441.195 101.098 441.489C101.763 441.776 102.313 442.168 102.747 442.665C103.181 443.162 103.482 443.725 103.65 444.355L101.214 445.164C101.018 444.723 100.717 444.355 100.311 444.061C99.9118 443.76 99.3693 443.61 98.6833 443.61C98.0393 443.61 97.5388 443.736 97.1818 443.988C96.8248 444.24 96.6463 444.597 96.6463 445.059C96.6463 445.374 96.7653 445.643 97.0033 445.867C97.2483 446.084 97.5738 446.28 97.9798 446.455C98.3928 446.63 98.8583 446.809 99.3763 446.991C99.9573 447.187 100.535 447.411 101.109 447.663C101.69 447.908 102.215 448.209 102.684 448.566C103.16 448.923 103.541 449.367 103.828 449.899C104.115 450.424 104.259 451.068 104.259 451.831C104.259 452.769 104.024 453.567 103.555 454.225C103.093 454.883 102.467 455.387 101.676 455.737C100.885 456.081 99.9923 456.252 98.9983 456.252ZM109.908 456.252C109.054 456.252 108.414 456.017 107.987 455.548C107.56 455.079 107.346 454.379 107.346 453.448V447.568H105.782V445.269H107.346V442.087L109.95 440.838V445.269H112.386V447.568H109.95V452.976C109.95 453.312 110.017 453.56 110.15 453.721C110.29 453.882 110.507 453.963 110.801 453.963C111.319 453.963 111.886 453.802 112.502 453.48L112.197 455.769C111.875 455.93 111.525 456.049 111.147 456.126C110.769 456.21 110.356 456.252 109.908 456.252ZM118.092 456.252C116.923 456.252 115.995 455.937 115.309 455.307C114.63 454.67 114.291 453.809 114.291 452.724C114.291 452.024 114.466 451.411 114.816 450.886C115.173 450.354 115.666 449.945 116.296 449.658C116.933 449.364 117.675 449.217 118.522 449.217C118.991 449.217 119.443 449.262 119.877 449.353C120.318 449.437 120.703 449.56 121.032 449.721V449.049C121.032 448.447 120.86 447.995 120.517 447.694C120.181 447.386 119.684 447.232 119.026 447.232C118.501 447.232 117.962 447.327 117.409 447.516C116.856 447.705 116.296 447.985 115.729 448.356L114.942 446.287C115.558 445.881 116.244 445.57 117 445.353C117.756 445.129 118.519 445.017 119.289 445.017C120.731 445.017 121.809 445.36 122.523 446.046C123.237 446.725 123.594 447.74 123.594 449.091V456H121.032V455.139C120.668 455.503 120.234 455.779 119.73 455.968C119.233 456.158 118.687 456.252 118.092 456.252ZM118.701 454.036C119.135 454.036 119.551 453.952 119.95 453.784C120.356 453.609 120.717 453.364 121.032 453.049V451.779C120.731 451.632 120.395 451.52 120.024 451.443C119.66 451.359 119.296 451.317 118.932 451.317C118.281 451.317 117.766 451.443 117.388 451.695C117.017 451.94 116.832 452.283 116.832 452.724C116.832 453.137 116.996 453.459 117.325 453.69C117.654 453.921 118.113 454.036 118.701 454.036ZM126.733 456V445.269H129.358V446.424C129.554 446.011 129.862 445.675 130.282 445.416C130.702 445.15 131.143 445.017 131.605 445.017C132.368 445.017 133.012 445.279 133.537 445.804L133.17 448.209C132.883 447.971 132.603 447.803 132.33 447.705C132.057 447.607 131.756 447.558 131.427 447.558C130.993 447.558 130.622 447.659 130.314 447.862C130.006 448.065 129.768 448.359 129.6 448.744C129.439 449.129 129.358 449.591 129.358 450.13V456H126.733ZM138.701 456.252C137.847 456.252 137.207 456.017 136.78 455.548C136.353 455.079 136.139 454.379 136.139 453.448V447.568H134.575V445.269H136.139V442.087L138.743 440.838V445.269H141.179V447.568H138.743V452.976C138.743 453.312 138.81 453.56 138.943 453.721C139.083 453.882 139.3 453.963 139.594 453.963C140.112 453.963 140.679 453.802 141.295 453.48L140.99 455.769C140.668 455.93 140.318 456.049 139.94 456.126C139.562 456.21 139.149 456.252 138.701 456.252ZM149.066 456V445.269H151.691V446.266C152.034 445.832 152.419 445.517 152.846 445.321C153.28 445.118 153.77 445.017 154.316 445.017C154.953 445.017 155.499 445.146 155.954 445.405C156.409 445.664 156.763 446.042 157.015 446.539C157.372 446.049 157.83 445.675 158.39 445.416C158.95 445.15 159.584 445.017 160.291 445.017C161.607 445.017 162.601 445.37 163.273 446.077C163.945 446.784 164.281 447.834 164.281 449.227V456H161.666V450.13C161.666 449.234 161.519 448.576 161.225 448.156C160.931 447.729 160.476 447.516 159.86 447.516C159.44 447.516 159.09 447.61 158.81 447.799C158.537 447.988 158.331 448.275 158.191 448.66C158.051 449.038 157.981 449.518 157.981 450.099V456H155.366V450.13C155.366 449.227 155.223 448.566 154.936 448.146C154.649 447.726 154.194 447.516 153.571 447.516C152.934 447.516 152.461 447.722 152.153 448.135C151.845 448.548 151.691 449.189 151.691 450.057V456H149.066ZM171.89 456.252C170.378 456.252 169.185 455.751 168.31 454.75C167.435 453.749 166.997 452.381 166.997 450.645C166.997 449.497 167.197 448.503 167.596 447.663C167.995 446.816 168.558 446.165 169.286 445.71C170.021 445.248 170.889 445.017 171.89 445.017C172.884 445.017 173.745 445.244 174.473 445.699C175.201 446.154 175.761 446.802 176.153 447.642C176.545 448.482 176.741 449.479 176.741 450.634C176.741 451.796 176.545 452.797 176.153 453.637C175.768 454.477 175.212 455.125 174.484 455.58C173.756 456.028 172.891 456.252 171.89 456.252ZM171.89 453.742C172.597 453.742 173.147 453.469 173.539 452.923C173.931 452.377 174.127 451.614 174.127 450.634C174.127 449.654 173.927 448.891 173.528 448.345C173.136 447.792 172.59 447.516 171.89 447.516C171.183 447.516 170.63 447.792 170.231 448.345C169.832 448.898 169.633 449.665 169.633 450.645C169.633 451.611 169.832 452.37 170.231 452.923C170.63 453.469 171.183 453.742 171.89 453.742ZM179.254 456V445.269H181.879V446.298C182.222 445.871 182.631 445.552 183.107 445.342C183.59 445.125 184.14 445.017 184.756 445.017C185.953 445.017 186.877 445.388 187.528 446.13C188.179 446.865 188.504 447.925 188.504 449.311V456H185.89V450.12C185.89 449.217 185.732 448.559 185.417 448.146C185.109 447.726 184.626 447.516 183.968 447.516C183.254 447.516 182.726 447.726 182.383 448.146C182.047 448.559 181.879 449.203 181.879 450.078V456H179.254ZM196.204 456.252C195.175 456.252 194.286 456.021 193.537 455.559C192.795 455.097 192.221 454.446 191.815 453.606C191.416 452.759 191.217 451.765 191.217 450.624C191.217 449.469 191.42 448.471 191.826 447.631C192.239 446.791 192.816 446.147 193.558 445.699C194.307 445.244 195.189 445.017 196.204 445.017C197.072 445.017 197.86 445.199 198.567 445.563C199.274 445.927 199.837 446.487 200.257 447.243C200.677 447.992 200.887 448.947 200.887 450.109C200.887 450.291 200.88 450.515 200.866 450.781C200.859 451.04 200.842 451.303 200.814 451.569H193.81C193.838 452.059 193.95 452.489 194.146 452.86C194.349 453.224 194.626 453.508 194.976 453.711C195.326 453.914 195.739 454.015 196.215 454.015C196.726 454.015 197.17 453.931 197.548 453.763C197.926 453.588 198.283 453.312 198.619 452.934L200.131 454.498C199.669 455.023 199.113 455.447 198.462 455.769C197.811 456.091 197.058 456.252 196.204 456.252ZM193.821 449.521H198.346C198.311 449.052 198.206 448.65 198.031 448.314C197.856 447.971 197.611 447.708 197.296 447.526C196.981 447.344 196.6 447.253 196.152 447.253C195.536 447.253 195.011 447.442 194.577 447.82C194.143 448.198 193.891 448.765 193.821 449.521ZM206.5 456.252C205.646 456.252 205.005 456.017 204.578 455.548C204.151 455.079 203.938 454.379 203.938 453.448V447.568H202.373V445.269H203.938V442.087L206.542 440.838V445.269H208.978V447.568H206.542V452.976C206.542 453.312 206.608 453.56 206.741 453.721C206.881 453.882 207.098 453.963 207.392 453.963C207.91 453.963 208.477 453.802 209.093 453.48L208.789 455.769C208.467 455.93 208.117 456.049 207.739 456.126C207.361 456.21 206.948 456.252 206.5 456.252ZM211.226 456V445.269H213.851V456H211.226ZM212.538 443.925C212.118 443.925 211.754 443.774 211.446 443.473C211.145 443.165 210.995 442.801 210.995 442.381C210.995 441.961 211.145 441.604 211.446 441.31C211.747 441.009 212.111 440.859 212.538 440.859C212.979 440.859 213.347 441.006 213.641 441.3C213.935 441.594 214.082 441.954 214.082 442.381C214.082 442.808 213.931 443.172 213.63 443.473C213.336 443.774 212.972 443.925 212.538 443.925ZM216.732 456V454.015L222.234 447.6H217.131V445.269H225.605V447.201L220.124 453.658H225.584V456H216.732ZM228.596 456V445.269H231.221V456H228.596ZM229.909 443.925C229.489 443.925 229.125 443.774 228.817 443.473C228.516 443.165 228.365 442.801 228.365 442.381C228.365 441.961 228.516 441.604 228.817 441.31C229.118 441.009 229.482 440.859 229.909 440.859C230.35 440.859 230.717 441.006 231.011 441.3C231.305 441.594 231.452 441.954 231.452 442.381C231.452 442.808 231.302 443.172 231.001 443.473C230.707 443.774 230.343 443.925 229.909 443.925ZM234.522 456V445.269H237.147V446.298C237.49 445.871 237.9 445.552 238.376 445.342C238.859 445.125 239.408 445.017 240.024 445.017C241.221 445.017 242.145 445.388 242.796 446.13C243.447 446.865 243.773 447.925 243.773 449.311V456H241.158V450.12C241.158 449.217 241.001 448.559 240.686 448.146C240.378 447.726 239.895 447.516 239.237 447.516C238.523 447.516 237.994 447.726 237.651 448.146C237.315 448.559 237.147 449.203 237.147 450.078V456H234.522ZM250.843 460.473L249.394 458.279C250.416 458.202 251.207 458.086 251.767 457.932C252.334 457.778 252.73 457.558 252.954 457.271C253.178 456.984 253.29 456.609 253.29 456.147V455.37C252.744 455.958 251.974 456.252 250.98 456.252C250.049 456.252 249.247 456.028 248.575 455.58C247.903 455.125 247.385 454.477 247.021 453.637C246.664 452.79 246.486 451.786 246.486 450.624C246.486 449.49 246.671 448.503 247.042 447.663C247.42 446.823 247.945 446.172 248.617 445.71C249.296 445.248 250.091 445.017 251.001 445.017C251.477 445.017 251.911 445.09 252.303 445.237C252.702 445.384 253.031 445.598 253.29 445.878V445.269H255.904V455.034C255.904 455.986 255.817 456.791 255.642 457.449C255.467 458.107 255.18 458.646 254.781 459.066C254.389 459.486 253.871 459.805 253.227 460.022C252.583 460.246 251.788 460.396 250.843 460.473ZM251.41 453.742C251.781 453.742 252.128 453.658 252.45 453.49C252.779 453.315 253.059 453.081 253.29 452.787V448.461C253.094 448.188 252.824 447.964 252.481 447.789C252.138 447.607 251.792 447.516 251.442 447.516C250.686 447.516 250.108 447.782 249.709 448.314C249.317 448.839 249.121 449.609 249.121 450.624C249.121 451.282 249.209 451.845 249.384 452.314C249.566 452.776 249.828 453.13 250.171 453.375C250.514 453.62 250.927 453.742 251.41 453.742ZM265.767 460.074L267.394 455.811L263.373 445.269H266.071L268.413 451.548C268.476 451.695 268.535 451.856 268.591 452.031C268.647 452.206 268.7 452.381 268.749 452.556C268.791 452.381 268.84 452.209 268.896 452.041C268.959 451.866 269.022 451.702 269.085 451.548L271.426 445.269H274.125L268.476 460.074H265.767ZM280.418 456.252C278.906 456.252 277.712 455.751 276.837 454.75C275.962 453.749 275.525 452.381 275.525 450.645C275.525 449.497 275.724 448.503 276.123 447.663C276.522 446.816 277.086 446.165 277.814 445.71C278.549 445.248 279.417 445.017 280.418 445.017C281.412 445.017 282.273 445.244 283.001 445.699C283.729 446.154 284.289 446.802 284.681 447.642C285.073 448.482 285.269 449.479 285.269 450.634C285.269 451.796 285.073 452.797 284.681 453.637C284.296 454.477 283.739 455.125 283.011 455.58C282.283 456.028 281.419 456.252 280.418 456.252ZM280.418 453.742C281.125 453.742 281.674 453.469 282.066 452.923C282.458 452.377 282.654 451.614 282.654 450.634C282.654 449.654 282.455 448.891 282.056 448.345C281.664 447.792 281.118 447.516 280.418 447.516C279.711 447.516 279.158 447.792 278.759 448.345C278.36 448.898 278.16 449.665 278.16 450.645C278.16 451.611 278.36 452.37 278.759 452.923C279.158 453.469 279.711 453.742 280.418 453.742ZM291.651 456.252C290.454 456.252 289.526 455.881 288.868 455.139C288.21 454.39 287.881 453.333 287.881 451.968V445.269H290.506V451.149C290.506 452.052 290.66 452.71 290.968 453.123C291.276 453.536 291.763 453.742 292.428 453.742C293.142 453.742 293.667 453.536 294.003 453.123C294.346 452.703 294.517 452.059 294.517 451.191V445.269H297.132V456H294.517V454.992C294.188 455.412 293.782 455.727 293.299 455.937C292.823 456.147 292.274 456.252 291.651 456.252ZM300.434 456V445.269H303.059V446.424C303.255 446.011 303.563 445.675 303.983 445.416C304.403 445.15 304.844 445.017 305.306 445.017C306.069 445.017 306.713 445.279 307.238 445.804L306.871 448.209C306.584 447.971 306.304 447.803 306.031 447.705C305.758 447.607 305.457 447.558 305.128 447.558C304.694 447.558 304.323 447.659 304.015 447.862C303.707 448.065 303.469 448.359 303.301 448.744C303.14 449.129 303.059 449.591 303.059 450.13V456H300.434ZM91.409 483V472.269H94.034V483H91.409ZM92.7215 470.925C92.3015 470.925 91.9375 470.774 91.6295 470.473C91.3285 470.165 91.178 469.801 91.178 469.381C91.178 468.961 91.3285 468.604 91.6295 468.31C91.9305 468.009 92.2945 467.859 92.7215 467.859C93.1625 467.859 93.53 468.006 93.824 468.3C94.118 468.594 94.265 468.954 94.265 469.381C94.265 469.808 94.1145 470.172 93.8135 470.473C93.5195 470.774 93.1555 470.925 92.7215 470.925ZM97.3353 483V472.269H99.9603V473.298C100.303 472.871 100.713 472.552 101.189 472.342C101.672 472.125 102.221 472.017 102.837 472.017C104.034 472.017 104.958 472.388 105.609 473.13C106.26 473.865 106.586 474.925 106.586 476.311V483H103.971V477.12C103.971 476.217 103.814 475.559 103.499 475.146C103.191 474.726 102.708 474.516 102.05 474.516C101.336 474.516 100.807 474.726 100.464 475.146C100.128 475.559 99.9603 476.203 99.9603 477.078V483H97.3353ZM112.584 483.252C111.73 483.252 111.09 483.017 110.663 482.548C110.236 482.079 110.022 481.379 110.022 480.448V474.568H108.458V472.269H110.022V469.087L112.626 467.838V472.269H115.062V474.568H112.626V479.976C112.626 480.312 112.693 480.56 112.826 480.721C112.966 480.882 113.183 480.963 113.477 480.963C113.995 480.963 114.562 480.802 115.178 480.48L114.873 482.769C114.551 482.93 114.201 483.049 113.823 483.126C113.445 483.21 113.032 483.252 112.584 483.252ZM122.017 483.252C120.988 483.252 120.099 483.021 119.35 482.559C118.608 482.097 118.034 481.446 117.628 480.606C117.229 479.759 117.03 478.765 117.03 477.624C117.03 476.469 117.233 475.471 117.639 474.631C118.052 473.791 118.629 473.147 119.371 472.699C120.12 472.244 121.002 472.017 122.017 472.017C122.885 472.017 123.673 472.199 124.38 472.563C125.087 472.927 125.65 473.487 126.07 474.243C126.49 474.992 126.7 475.947 126.7 477.109C126.7 477.291 126.693 477.515 126.679 477.781C126.672 478.04 126.655 478.303 126.627 478.569H119.623C119.651 479.059 119.763 479.489 119.959 479.86C120.162 480.224 120.439 480.508 120.789 480.711C121.139 480.914 121.552 481.015 122.028 481.015C122.539 481.015 122.983 480.931 123.361 480.763C123.739 480.588 124.096 480.312 124.432 479.934L125.944 481.498C125.482 482.023 124.926 482.447 124.275 482.769C123.624 483.091 122.871 483.252 122.017 483.252ZM119.634 476.521H124.159C124.124 476.052 124.019 475.65 123.844 475.314C123.669 474.971 123.424 474.708 123.109 474.526C122.794 474.344 122.413 474.253 121.965 474.253C121.349 474.253 120.824 474.442 120.39 474.82C119.956 475.198 119.704 475.765 119.634 476.521ZM129.348 483V472.269H131.973V473.424C132.169 473.011 132.477 472.675 132.897 472.416C133.317 472.15 133.758 472.017 134.22 472.017C134.983 472.017 135.627 472.279 136.152 472.804L135.784 475.209C135.497 474.971 135.217 474.803 134.944 474.705C134.671 474.607 134.37 474.558 134.041 474.558C133.607 474.558 133.236 474.659 132.928 474.862C132.62 475.065 132.382 475.359 132.214 475.744C132.053 476.129 131.973 476.591 131.973 477.13V483H129.348ZM137.818 483V472.269H140.443V473.298C140.786 472.871 141.195 472.552 141.671 472.342C142.154 472.125 142.704 472.017 143.32 472.017C144.517 472.017 145.441 472.388 146.092 473.13C146.743 473.865 147.068 474.925 147.068 476.311V483H144.454V477.12C144.454 476.217 144.296 475.559 143.981 475.146C143.673 474.726 143.19 474.516 142.532 474.516C141.818 474.516 141.29 474.726 140.947 475.146C140.611 475.559 140.443 476.203 140.443 477.078V483H137.818ZM153.437 483.252C152.268 483.252 151.34 482.937 150.654 482.307C149.975 481.67 149.636 480.809 149.636 479.724C149.636 479.024 149.811 478.411 150.161 477.886C150.518 477.354 151.011 476.945 151.641 476.658C152.278 476.364 153.02 476.217 153.867 476.217C154.336 476.217 154.788 476.262 155.222 476.353C155.663 476.437 156.048 476.56 156.377 476.721V476.049C156.377 475.447 156.205 474.995 155.862 474.694C155.526 474.386 155.029 474.232 154.371 474.232C153.846 474.232 153.307 474.327 152.754 474.516C152.201 474.705 151.641 474.985 151.074 475.356L150.287 473.287C150.903 472.881 151.589 472.57 152.345 472.353C153.101 472.129 153.864 472.017 154.634 472.017C156.076 472.017 157.154 472.36 157.868 473.046C158.582 473.725 158.939 474.74 158.939 476.091V483H156.377V482.139C156.013 482.503 155.579 482.779 155.075 482.968C154.578 483.158 154.032 483.252 153.437 483.252ZM154.046 481.036C154.48 481.036 154.896 480.952 155.295 480.784C155.701 480.609 156.062 480.364 156.377 480.049V478.779C156.076 478.632 155.74 478.52 155.369 478.443C155.005 478.359 154.641 478.317 154.277 478.317C153.626 478.317 153.111 478.443 152.733 478.695C152.362 478.94 152.177 479.283 152.177 479.724C152.177 480.137 152.341 480.459 152.67 480.69C152.999 480.921 153.458 481.036 154.046 481.036ZM164.777 483.252C163.923 483.252 163.282 483.017 162.855 482.548C162.428 482.079 162.215 481.379 162.215 480.448V474.568H160.65V472.269H162.215V469.087L164.819 467.838V472.269H167.255V474.568H164.819V479.976C164.819 480.312 164.885 480.56 165.018 480.721C165.158 480.882 165.375 480.963 165.669 480.963C166.187 480.963 166.754 480.802 167.37 480.48L167.066 482.769C166.744 482.93 166.394 483.049 166.016 483.126C165.638 483.21 165.225 483.252 164.777 483.252ZM169.503 483V472.269H172.128V483H169.503ZM170.815 470.925C170.395 470.925 170.031 470.774 169.723 470.473C169.422 470.165 169.272 469.801 169.272 469.381C169.272 468.961 169.422 468.604 169.723 468.31C170.024 468.009 170.388 467.859 170.815 467.859C171.256 467.859 171.624 468.006 171.918 468.3C172.212 468.594 172.359 468.954 172.359 469.381C172.359 469.808 172.208 470.172 171.907 470.473C171.613 470.774 171.249 470.925 170.815 470.925ZM179.755 483.252C178.243 483.252 177.05 482.751 176.175 481.75C175.3 480.749 174.862 479.381 174.862 477.645C174.862 476.497 175.062 475.503 175.461 474.663C175.86 473.816 176.423 473.165 177.151 472.71C177.886 472.248 178.754 472.017 179.755 472.017C180.749 472.017 181.61 472.244 182.338 472.699C183.066 473.154 183.626 473.802 184.018 474.642C184.41 475.482 184.606 476.479 184.606 477.634C184.606 478.796 184.41 479.797 184.018 480.637C183.633 481.477 183.077 482.125 182.349 482.58C181.621 483.028 180.756 483.252 179.755 483.252ZM179.755 480.742C180.462 480.742 181.012 480.469 181.404 479.923C181.796 479.377 181.992 478.614 181.992 477.634C181.992 476.654 181.792 475.891 181.393 475.345C181.001 474.792 180.455 474.516 179.755 474.516C179.048 474.516 178.495 474.792 178.096 475.345C177.697 475.898 177.498 476.665 177.498 477.645C177.498 478.611 177.697 479.37 178.096 479.923C178.495 480.469 179.048 480.742 179.755 480.742ZM187.118 483V472.269H189.743V473.298C190.086 472.871 190.496 472.552 190.972 472.342C191.455 472.125 192.004 472.017 192.62 472.017C193.817 472.017 194.741 472.388 195.392 473.13C196.043 473.865 196.369 474.925 196.369 476.311V483H193.754V477.12C193.754 476.217 193.597 475.559 193.282 475.146C192.974 474.726 192.491 474.516 191.833 474.516C191.119 474.516 190.59 474.726 190.247 475.146C189.911 475.559 189.743 476.203 189.743 477.078V483H187.118ZM202.738 483.252C201.569 483.252 200.641 482.937 199.955 482.307C199.276 481.67 198.937 480.809 198.937 479.724C198.937 479.024 199.112 478.411 199.462 477.886C199.819 477.354 200.312 476.945 200.942 476.658C201.579 476.364 202.321 476.217 203.168 476.217C203.637 476.217 204.089 476.262 204.523 476.353C204.964 476.437 205.349 476.56 205.678 476.721V476.049C205.678 475.447 205.506 474.995 205.163 474.694C204.827 474.386 204.33 474.232 203.672 474.232C203.147 474.232 202.608 474.327 202.055 474.516C201.502 474.705 200.942 474.985 200.375 475.356L199.588 473.287C200.204 472.881 200.89 472.57 201.646 472.353C202.402 472.129 203.165 472.017 203.935 472.017C205.377 472.017 206.455 472.36 207.169 473.046C207.883 473.725 208.24 474.74 208.24 476.091V483H205.678V482.139C205.314 482.503 204.88 482.779 204.376 482.968C203.879 483.158 203.333 483.252 202.738 483.252ZM203.347 481.036C203.781 481.036 204.197 480.952 204.596 480.784C205.002 480.609 205.363 480.364 205.678 480.049V478.779C205.377 478.632 205.041 478.52 204.67 478.443C204.306 478.359 203.942 478.317 203.578 478.317C202.927 478.317 202.412 478.443 202.034 478.695C201.663 478.94 201.478 479.283 201.478 479.724C201.478 480.137 201.642 480.459 201.971 480.69C202.3 480.921 202.759 481.036 203.347 481.036ZM211.361 483V469.024L213.986 467.838V483H211.361ZM225.788 483.252C224.619 483.252 223.692 482.937 223.006 482.307C222.327 481.67 221.987 480.809 221.987 479.724C221.987 479.024 222.162 478.411 222.512 477.886C222.869 477.354 223.363 476.945 223.993 476.658C224.63 476.364 225.372 476.217 226.219 476.217C226.688 476.217 227.139 476.262 227.573 476.353C228.014 476.437 228.399 476.56 228.728 476.721V476.049C228.728 475.447 228.557 474.995 228.214 474.694C227.878 474.386 227.381 474.232 226.723 474.232C226.198 474.232 225.659 474.327 225.106 474.516C224.553 474.705 223.993 474.985 223.426 475.356L222.638 473.287C223.254 472.881 223.94 472.57 224.696 472.353C225.452 472.129 226.215 472.017 226.985 472.017C228.427 472.017 229.505 472.36 230.219 473.046C230.933 473.725 231.29 474.74 231.29 476.091V483H228.728V482.139C228.364 482.503 227.93 482.779 227.426 482.968C226.929 483.158 226.383 483.252 225.788 483.252ZM226.397 481.036C226.831 481.036 227.248 480.952 227.647 480.784C228.053 480.609 228.413 480.364 228.728 480.049V478.779C228.427 478.632 228.091 478.52 227.72 478.443C227.356 478.359 226.992 478.317 226.628 478.317C225.977 478.317 225.463 478.443 225.085 478.695C224.714 478.94 224.528 479.283 224.528 479.724C224.528 480.137 224.693 480.459 225.022 480.69C225.351 480.921 225.809 481.036 226.397 481.036ZM237.971 483.252C236.774 483.252 235.847 482.881 235.189 482.139C234.531 481.39 234.202 480.333 234.202 478.968V472.269H236.827V478.149C236.827 479.052 236.981 479.71 237.289 480.123C237.597 480.536 238.083 480.742 238.748 480.742C239.462 480.742 239.987 480.536 240.323 480.123C240.666 479.703 240.838 479.059 240.838 478.191V472.269H243.452V483H240.838V481.992C240.509 482.412 240.103 482.727 239.62 482.937C239.144 483.147 238.594 483.252 237.971 483.252ZM250.383 483.252C249.004 483.252 247.923 482.755 247.139 481.761C246.355 480.767 245.963 479.388 245.963 477.624C245.963 476.504 246.148 475.524 246.519 474.684C246.89 473.844 247.408 473.189 248.073 472.72C248.745 472.251 249.526 472.017 250.415 472.017C251.367 472.017 252.147 472.367 252.756 473.067V469.024L255.371 467.838V483H252.756V482.118C252.238 482.874 251.447 483.252 250.383 483.252ZM250.814 480.742C251.262 480.742 251.643 480.665 251.958 480.511C252.273 480.35 252.539 480.112 252.756 479.797V475.461C252.539 475.167 252.256 474.936 251.906 474.768C251.563 474.6 251.199 474.516 250.814 474.516C250.107 474.516 249.561 474.785 249.176 475.324C248.791 475.856 248.598 476.623 248.598 477.624C248.598 478.282 248.686 478.845 248.861 479.314C249.036 479.776 249.288 480.13 249.617 480.375C249.946 480.62 250.345 480.742 250.814 480.742ZM258.671 483V472.269H261.296V483H258.671ZM259.983 470.925C259.563 470.925 259.199 470.774 258.891 470.473C258.59 470.165 258.44 469.801 258.44 469.381C258.44 468.961 258.59 468.604 258.891 468.31C259.192 468.009 259.556 467.859 259.983 467.859C260.424 467.859 260.792 468.006 261.086 468.3C261.38 468.594 261.527 468.954 261.527 469.381C261.527 469.808 261.376 470.172 261.075 470.473C260.781 470.774 260.417 470.925 259.983 470.925ZM269.017 483.252C267.988 483.252 267.099 483.021 266.35 482.559C265.608 482.097 265.034 481.446 264.628 480.606C264.229 479.759 264.03 478.765 264.03 477.624C264.03 476.469 264.233 475.471 264.639 474.631C265.052 473.791 265.629 473.147 266.371 472.699C267.12 472.244 268.002 472.017 269.017 472.017C269.885 472.017 270.673 472.199 271.38 472.563C272.087 472.927 272.65 473.487 273.07 474.243C273.49 474.992 273.7 475.947 273.7 477.109C273.7 477.291 273.693 477.515 273.679 477.781C273.672 478.04 273.655 478.303 273.627 478.569H266.623C266.651 479.059 266.763 479.489 266.959 479.86C267.162 480.224 267.439 480.508 267.789 480.711C268.139 480.914 268.552 481.015 269.028 481.015C269.539 481.015 269.983 480.931 270.361 480.763C270.739 480.588 271.096 480.312 271.432 479.934L272.944 481.498C272.482 482.023 271.926 482.447 271.275 482.769C270.624 483.091 269.871 483.252 269.017 483.252ZM266.634 476.521H271.159C271.124 476.052 271.019 475.65 270.844 475.314C270.669 474.971 270.424 474.708 270.109 474.526C269.794 474.344 269.413 474.253 268.965 474.253C268.349 474.253 267.824 474.442 267.39 474.82C266.956 475.198 266.704 475.765 266.634 476.521ZM276.348 483V472.269H278.973V473.298C279.316 472.871 279.725 472.552 280.201 472.342C280.684 472.125 281.234 472.017 281.85 472.017C283.047 472.017 283.971 472.388 284.622 473.13C285.273 473.865 285.598 474.925 285.598 476.311V483H282.984V477.12C282.984 476.217 282.826 475.559 282.511 475.146C282.203 474.726 281.72 474.516 281.062 474.516C280.348 474.516 279.82 474.726 279.477 475.146C279.141 475.559 278.973 476.203 278.973 477.078V483H276.348ZM293.131 483.252C292.144 483.252 291.29 483.024 290.569 482.569C289.848 482.114 289.291 481.47 288.899 480.637C288.507 479.797 288.311 478.8 288.311 477.645C288.311 476.49 288.507 475.492 288.899 474.652C289.298 473.812 289.862 473.165 290.59 472.71C291.318 472.248 292.175 472.017 293.162 472.017C294.275 472.017 295.199 472.276 295.934 472.794C296.676 473.305 297.212 474.064 297.541 475.072L295.052 475.912C294.884 475.464 294.639 475.121 294.317 474.883C293.995 474.638 293.624 474.516 293.204 474.516C292.525 474.516 291.983 474.796 291.577 475.356C291.178 475.916 290.978 476.679 290.978 477.645C290.978 478.597 291.174 479.353 291.566 479.913C291.958 480.473 292.487 480.753 293.152 480.753C293.621 480.753 294.02 480.62 294.349 480.354C294.685 480.088 294.933 479.699 295.094 479.188L297.572 479.934C297.257 481.033 296.722 481.862 295.966 482.422C295.217 482.975 294.272 483.252 293.131 483.252ZM304.619 483.252C303.59 483.252 302.701 483.021 301.952 482.559C301.21 482.097 300.636 481.446 300.23 480.606C299.831 479.759 299.632 478.765 299.632 477.624C299.632 476.469 299.835 475.471 300.241 474.631C300.654 473.791 301.231 473.147 301.973 472.699C302.722 472.244 303.604 472.017 304.619 472.017C305.487 472.017 306.275 472.199 306.982 472.563C307.689 472.927 308.252 473.487 308.672 474.243C309.092 474.992 309.302 475.947 309.302 477.109C309.302 477.291 309.295 477.515 309.281 477.781C309.274 478.04 309.257 478.303 309.229 478.569H302.225C302.253 479.059 302.365 479.489 302.561 479.86C302.764 480.224 303.041 480.508 303.391 480.711C303.741 480.914 304.154 481.015 304.63 481.015C305.141 481.015 305.585 480.931 305.963 480.763C306.341 480.588 306.698 480.312 307.034 479.934L308.546 481.498C308.084 482.023 307.528 482.447 306.877 482.769C306.226 483.091 305.473 483.252 304.619 483.252ZM302.236 476.521H306.761C306.726 476.052 306.621 475.65 306.446 475.314C306.271 474.971 306.026 474.708 305.711 474.526C305.396 474.344 305.015 474.253 304.567 474.253C303.951 474.253 303.426 474.442 302.992 474.82C302.558 475.198 302.306 475.765 302.236 476.521Z" fill="white"/>
</svg>
