<svg width="400" height="500" viewBox="0 0 400 500" fill="none" xmlns="http://www.w3.org/2000/svg">
<path d="M79.6495 21.288C78.2415 21.288 77.0375 21.028 76.0375 20.508C75.0455 19.98 74.2855 19.216 73.7575 18.216C73.2375 17.216 72.9775 16.008 72.9775 14.592V4.2H76.0855V14.592C76.0855 15.864 76.3695 16.8 76.9375 17.4C77.5055 18 78.4095 18.3 79.6495 18.3C80.4335 18.3 81.0895 18.176 81.6175 17.928C82.1455 17.68 82.5415 17.284 82.8055 16.74C83.0695 16.188 83.2015 15.472 83.2015 14.592V4.2H86.3215V14.592C86.3215 15.776 86.1455 16.792 85.7935 17.64C85.4495 18.488 84.9695 19.184 84.3535 19.728C83.7455 20.264 83.0375 20.66 82.2295 20.916C81.4215 21.164 80.5615 21.288 79.6495 21.288ZM90.0634 25.872V8.736H93.0634V9.636C93.7354 8.844 94.6354 8.448 95.7634 8.448C96.8114 8.448 97.7154 8.708 98.4754 9.228C99.2354 9.74 99.8194 10.476 100.227 11.436C100.635 12.396 100.839 13.54 100.839 14.868C100.839 16.156 100.627 17.284 100.203 18.252C99.7794 19.212 99.1834 19.96 98.4154 20.496C97.6474 21.024 96.7514 21.288 95.7274 21.288C95.1674 21.288 94.6634 21.188 94.2154 20.988C93.7674 20.78 93.3834 20.476 93.0634 20.076V24.516L90.0634 25.872ZM95.2834 18.42C96.0994 18.42 96.7274 18.112 97.1674 17.496C97.6074 16.872 97.8274 15.996 97.8274 14.868C97.8274 13.74 97.6034 12.864 97.1554 12.24C96.7074 11.616 96.0834 11.304 95.2834 11.304C94.7954 11.304 94.3674 11.392 93.9994 11.568C93.6394 11.744 93.3274 12.012 93.0634 12.372V17.328C93.2794 17.672 93.5834 17.94 93.9754 18.132C94.3754 18.324 94.8114 18.42 95.2834 18.42ZM104.058 21V5.028L107.058 3.672V21H104.058ZM115.867 21.288C114.139 21.288 112.775 20.716 111.775 19.572C110.775 18.428 110.275 16.864 110.275 14.88C110.275 13.568 110.503 12.432 110.959 11.472C111.415 10.504 112.059 9.76 112.891 9.24C113.731 8.712 114.723 8.448 115.867 8.448C117.003 8.448 117.987 8.708 118.819 9.228C119.651 9.748 120.291 10.488 120.739 11.448C121.187 12.408 121.411 13.548 121.411 14.868C121.411 16.196 121.187 17.34 120.739 18.3C120.299 19.26 119.663 20 118.831 20.52C117.999 21.032 117.011 21.288 115.867 21.288ZM115.867 18.42C116.675 18.42 117.303 18.108 117.751 17.484C118.199 16.86 118.423 15.988 118.423 14.868C118.423 13.748 118.195 12.876 117.739 12.252C117.291 11.62 116.667 11.304 115.867 11.304C115.059 11.304 114.427 11.62 113.971 12.252C113.515 12.884 113.287 13.76 113.287 14.88C113.287 15.984 113.515 16.852 113.971 17.484C114.427 18.108 115.059 18.42 115.867 18.42ZM128.234 21.288C126.898 21.288 125.838 20.928 125.054 20.208C124.278 19.48 123.89 18.496 123.89 17.256C123.89 16.456 124.09 15.756 124.49 15.156C124.898 14.548 125.462 14.08 126.182 13.752C126.91 13.416 127.758 13.248 128.726 13.248C129.262 13.248 129.778 13.3 130.274 13.404C130.778 13.5 131.218 13.64 131.594 13.824V13.056C131.594 12.368 131.398 11.852 131.006 11.508C130.622 11.156 130.054 10.98 129.302 10.98C128.702 10.98 128.086 11.088 127.454 11.304C126.822 11.52 126.182 11.84 125.534 12.264L124.634 9.9C125.338 9.436 126.122 9.08 126.986 8.832C127.85 8.576 128.722 8.448 129.602 8.448C131.25 8.448 132.482 8.84 133.298 9.624C134.114 10.4 134.522 11.56 134.522 13.104V21H131.594V20.016C131.178 20.432 130.682 20.748 130.106 20.964C129.538 21.18 128.914 21.288 128.234 21.288ZM128.93 18.756C129.426 18.756 129.902 18.66 130.358 18.468C130.822 18.268 131.234 17.988 131.594 17.628V16.176C131.25 16.008 130.866 15.88 130.442 15.792C130.026 15.696 129.61 15.648 129.194 15.648C128.45 15.648 127.862 15.792 127.43 16.08C127.006 16.36 126.794 16.752 126.794 17.256C126.794 17.728 126.982 18.096 127.358 18.36C127.734 18.624 128.258 18.756 128.93 18.756ZM142.491 21.288C140.915 21.288 139.679 20.72 138.783 19.584C137.887 18.448 137.439 16.872 137.439 14.856C137.439 13.576 137.651 12.456 138.075 11.496C138.499 10.536 139.091 9.788 139.851 9.252C140.619 8.716 141.511 8.448 142.527 8.448C143.615 8.448 144.507 8.848 145.203 9.648V5.028L148.191 3.672V21H145.203V19.992C144.611 20.856 143.707 21.288 142.491 21.288ZM142.983 18.42C143.495 18.42 143.931 18.332 144.291 18.156C144.651 17.972 144.955 17.7 145.203 17.34V12.384C144.955 12.048 144.631 11.784 144.231 11.592C143.839 11.4 143.423 11.304 142.983 11.304C142.175 11.304 141.551 11.612 141.111 12.228C140.671 12.836 140.451 13.712 140.451 14.856C140.451 15.608 140.551 16.252 140.751 16.788C140.951 17.316 141.239 17.72 141.615 18C141.991 18.28 142.447 18.42 142.983 18.42ZM161.562 21.288C160.226 21.288 159.166 20.928 158.382 20.208C157.606 19.48 157.218 18.496 157.218 17.256C157.218 16.456 157.418 15.756 157.818 15.156C158.226 14.548 158.79 14.08 159.51 13.752C160.238 13.416 161.086 13.248 162.054 13.248C162.59 13.248 163.106 13.3 163.602 13.404C164.106 13.5 164.546 13.64 164.922 13.824V13.056C164.922 12.368 164.726 11.852 164.334 11.508C163.95 11.156 163.382 10.98 162.63 10.98C162.03 10.98 161.414 11.088 160.782 11.304C160.15 11.52 159.51 11.84 158.862 12.264L157.962 9.9C158.666 9.436 159.45 9.08 160.314 8.832C161.178 8.576 162.05 8.448 162.93 8.448C164.578 8.448 165.81 8.84 166.626 9.624C167.442 10.4 167.85 11.56 167.85 13.104V21H164.922V20.016C164.506 20.432 164.01 20.748 163.434 20.964C162.866 21.18 162.242 21.288 161.562 21.288ZM162.258 18.756C162.754 18.756 163.23 18.66 163.686 18.468C164.15 18.268 164.562 17.988 164.922 17.628V16.176C164.578 16.008 164.194 15.88 163.77 15.792C163.354 15.696 162.938 15.648 162.522 15.648C161.778 15.648 161.19 15.792 160.758 16.08C160.334 16.36 160.122 16.752 160.122 17.256C160.122 17.728 160.31 18.096 160.686 18.36C161.062 18.624 161.586 18.756 162.258 18.756ZM171.438 21V8.736H174.438V9.912C174.83 9.424 175.298 9.06 175.842 8.82C176.394 8.572 177.022 8.448 177.726 8.448C179.094 8.448 180.15 8.872 180.894 9.72C181.638 10.56 182.01 11.772 182.01 13.356V21H179.022V14.28C179.022 13.248 178.842 12.496 178.482 12.024C178.13 11.544 177.578 11.304 176.826 11.304C176.01 11.304 175.406 11.544 175.014 12.024C174.63 12.496 174.438 13.232 174.438 14.232V21H171.438ZM190.163 21.288C188.587 21.288 187.351 20.72 186.455 19.584C185.559 18.448 185.111 16.872 185.111 14.856C185.111 13.576 185.323 12.456 185.747 11.496C186.171 10.536 186.763 9.788 187.523 9.252C188.291 8.716 189.183 8.448 190.199 8.448C191.287 8.448 192.179 8.848 192.875 9.648V5.028L195.863 3.672V21H192.875V19.992C192.283 20.856 191.379 21.288 190.163 21.288ZM190.655 18.42C191.167 18.42 191.603 18.332 191.963 18.156C192.323 17.972 192.627 17.7 192.875 17.34V12.384C192.627 12.048 192.303 11.784 191.903 11.592C191.511 11.4 191.095 11.304 190.655 11.304C189.847 11.304 189.223 11.612 188.783 12.228C188.343 12.836 188.123 13.712 188.123 14.856C188.123 15.608 188.223 16.252 188.423 16.788C188.623 17.316 188.911 17.72 189.287 18C189.663 18.28 190.119 18.42 190.655 18.42ZM209.618 21.288C208.658 21.288 207.738 21.084 206.858 20.676C205.986 20.268 205.294 19.72 204.782 19.032L206.75 17.376C207.158 17.808 207.63 18.152 208.166 18.408C208.702 18.656 209.214 18.78 209.702 18.78C210.31 18.78 210.778 18.68 211.106 18.48C211.434 18.272 211.598 17.984 211.598 17.616C211.598 17.376 211.518 17.164 211.358 16.98C211.206 16.788 210.934 16.596 210.542 16.404C210.15 16.204 209.598 15.976 208.886 15.72C207.51 15.216 206.534 14.672 205.958 14.088C205.382 13.496 205.094 12.748 205.094 11.844C205.094 10.836 205.502 10.02 206.318 9.396C207.134 8.764 208.198 8.448 209.51 8.448C210.406 8.448 211.23 8.616 211.982 8.952C212.742 9.288 213.394 9.78 213.938 10.428L211.982 12.048C211.262 11.32 210.422 10.956 209.462 10.956C208.974 10.956 208.582 11.048 208.286 11.232C207.99 11.408 207.842 11.648 207.842 11.952C207.842 12.248 208.014 12.512 208.358 12.744C208.71 12.976 209.362 13.248 210.314 13.56C211.258 13.856 212.022 14.192 212.606 14.568C213.198 14.944 213.63 15.38 213.902 15.876C214.182 16.372 214.322 16.944 214.322 17.592C214.322 18.744 213.902 19.648 213.062 20.304C212.23 20.96 211.082 21.288 209.618 21.288ZM222.264 21.288C221.088 21.288 220.072 21.024 219.216 20.496C218.368 19.968 217.712 19.224 217.248 18.264C216.792 17.296 216.564 16.16 216.564 14.856C216.564 13.536 216.796 12.396 217.26 11.436C217.732 10.476 218.392 9.74 219.24 9.228C220.096 8.708 221.104 8.448 222.264 8.448C223.256 8.448 224.156 8.656 224.964 9.072C225.772 9.488 226.416 10.128 226.896 10.992C227.376 11.848 227.616 12.94 227.616 14.268C227.616 14.476 227.608 14.732 227.592 15.036C227.584 15.332 227.564 15.632 227.532 15.936H219.528C219.56 16.496 219.688 16.988 219.912 17.412C220.144 17.828 220.46 18.152 220.86 18.384C221.26 18.616 221.732 18.732 222.276 18.732C222.86 18.732 223.368 18.636 223.8 18.444C224.232 18.244 224.64 17.928 225.024 17.496L226.752 19.284C226.224 19.884 225.588 20.368 224.844 20.736C224.1 21.104 223.24 21.288 222.264 21.288ZM219.54 13.596H224.712C224.672 13.06 224.552 12.6 224.352 12.216C224.152 11.824 223.872 11.524 223.512 11.316C223.152 11.108 222.716 11.004 222.204 11.004C221.5 11.004 220.9 11.22 220.404 11.652C219.908 12.084 219.62 12.732 219.54 13.596ZM230.691 21V5.028L233.691 3.672V21H230.691ZM242.608 21.288C241.432 21.288 240.416 21.024 239.56 20.496C238.712 19.968 238.056 19.224 237.592 18.264C237.136 17.296 236.908 16.16 236.908 14.856C236.908 13.536 237.14 12.396 237.604 11.436C238.076 10.476 238.736 9.74 239.584 9.228C240.44 8.708 241.448 8.448 242.608 8.448C243.6 8.448 244.5 8.656 245.308 9.072C246.116 9.488 246.76 10.128 247.24 10.992C247.72 11.848 247.96 12.94 247.96 14.268C247.96 14.476 247.952 14.732 247.936 15.036C247.928 15.332 247.908 15.632 247.876 15.936H239.872C239.904 16.496 240.032 16.988 240.256 17.412C240.488 17.828 240.804 18.152 241.204 18.384C241.604 18.616 242.076 18.732 242.62 18.732C243.204 18.732 243.712 18.636 244.144 18.444C244.576 18.244 244.984 17.928 245.368 17.496L247.096 19.284C246.568 19.884 245.932 20.368 245.188 20.736C244.444 21.104 243.584 21.288 242.608 21.288ZM239.884 13.596H245.056C245.016 13.06 244.896 12.6 244.696 12.216C244.496 11.824 244.216 11.524 243.856 11.316C243.496 11.108 243.06 11.004 242.548 11.004C241.844 11.004 241.244 11.22 240.748 11.652C240.252 12.084 239.964 12.732 239.884 13.596ZM256.197 21.288C255.069 21.288 254.093 21.028 253.269 20.508C252.445 19.988 251.809 19.252 251.361 18.3C250.913 17.34 250.689 16.2 250.689 14.88C250.689 13.56 250.913 12.42 251.361 11.46C251.817 10.5 252.461 9.76 253.293 9.24C254.125 8.712 255.105 8.448 256.233 8.448C257.505 8.448 258.561 8.744 259.401 9.336C260.249 9.92 260.861 10.788 261.237 11.94L258.393 12.9C258.201 12.388 257.921 11.996 257.553 11.724C257.185 11.444 256.761 11.304 256.281 11.304C255.505 11.304 254.885 11.624 254.421 12.264C253.965 12.904 253.737 13.776 253.737 14.88C253.737 15.968 253.961 16.832 254.409 17.472C254.857 18.112 255.461 18.432 256.221 18.432C256.757 18.432 257.213 18.28 257.589 17.976C257.973 17.672 258.257 17.228 258.441 16.644L261.273 17.496C260.913 18.752 260.301 19.7 259.437 20.34C258.581 20.972 257.501 21.288 256.197 21.288ZM267.78 21.288C266.804 21.288 266.072 21.02 265.584 20.484C265.096 19.948 264.852 19.148 264.852 18.084V11.364H263.064V8.736H264.852V5.1L267.828 3.672V8.736H270.612V11.364H267.828V17.544C267.828 17.928 267.904 18.212 268.056 18.396C268.216 18.58 268.464 18.672 268.8 18.672C269.392 18.672 270.04 18.488 270.744 18.12L270.396 20.736C270.028 20.92 269.628 21.056 269.196 21.144C268.764 21.24 268.292 21.288 267.78 21.288ZM281.162 25.656L283.022 20.784L278.426 8.736H281.51L284.186 15.912C284.258 16.08 284.326 16.264 284.39 16.464C284.454 16.664 284.514 16.864 284.57 17.064C284.618 16.864 284.674 16.668 284.738 16.476C284.81 16.276 284.882 16.088 284.954 15.912L287.63 8.736H290.714L284.258 25.656H281.162ZM297.906 21.288C296.178 21.288 294.814 20.716 293.814 19.572C292.814 18.428 292.314 16.864 292.314 14.88C292.314 13.568 292.542 12.432 292.998 11.472C293.454 10.504 294.098 9.76 294.93 9.24C295.77 8.712 296.762 8.448 297.906 8.448C299.042 8.448 300.026 8.708 300.858 9.228C301.69 9.748 302.33 10.488 302.778 11.448C303.226 12.408 303.45 13.548 303.45 14.868C303.45 16.196 303.226 17.34 302.778 18.3C302.338 19.26 301.702 20 300.87 20.52C300.038 21.032 299.05 21.288 297.906 21.288ZM297.906 18.42C298.714 18.42 299.342 18.108 299.79 17.484C300.238 16.86 300.462 15.988 300.462 14.868C300.462 13.748 300.234 12.876 299.778 12.252C299.33 11.62 298.706 11.304 297.906 11.304C297.098 11.304 296.466 11.62 296.01 12.252C295.554 12.884 295.326 13.76 295.326 14.88C295.326 15.984 295.554 16.852 296.01 17.484C296.466 18.108 297.098 18.42 297.906 18.42ZM310.744 21.288C309.376 21.288 308.316 20.864 307.564 20.016C306.812 19.16 306.436 17.952 306.436 16.392V8.736H309.436V15.456C309.436 16.488 309.612 17.24 309.964 17.712C310.316 18.184 310.872 18.42 311.632 18.42C312.448 18.42 313.048 18.184 313.432 17.712C313.824 17.232 314.02 16.496 314.02 15.504V8.736H317.008V21H314.02V19.848C313.644 20.328 313.18 20.688 312.628 20.928C312.084 21.168 311.456 21.288 310.744 21.288ZM320.782 21V8.736H323.782V10.056C324.006 9.584 324.358 9.2 324.838 8.904C325.318 8.6 325.822 8.448 326.35 8.448C327.222 8.448 327.958 8.748 328.558 9.348L328.138 12.096C327.81 11.824 327.49 11.632 327.178 11.52C326.866 11.408 326.522 11.352 326.146 11.352C325.65 11.352 325.226 11.468 324.874 11.7C324.522 11.932 324.25 12.268 324.058 12.708C323.874 13.148 323.782 13.676 323.782 14.292V21H320.782ZM128.379 51L123.891 38.736H126.999L129.567 46.032C129.639 46.208 129.703 46.396 129.759 46.596C129.815 46.796 129.871 46.996 129.927 47.196C129.983 46.996 130.039 46.796 130.095 46.596C130.159 46.396 130.219 46.208 130.275 46.032L132.831 38.736H135.927L131.439 51H128.379ZM138.498 51V38.736H141.498V51H138.498ZM139.998 37.2C139.518 37.2 139.102 37.028 138.75 36.684C138.406 36.332 138.234 35.916 138.234 35.436C138.234 34.956 138.406 34.548 138.75 34.212C139.094 33.868 139.51 33.696 139.998 33.696C140.502 33.696 140.922 33.864 141.258 34.2C141.594 34.536 141.762 34.948 141.762 35.436C141.762 35.924 141.59 36.34 141.246 36.684C140.91 37.028 140.494 37.2 139.998 37.2ZM149.674 51.288C148.098 51.288 146.862 50.72 145.966 49.584C145.07 48.448 144.622 46.872 144.622 44.856C144.622 43.576 144.834 42.456 145.258 41.496C145.682 40.536 146.274 39.788 147.034 39.252C147.802 38.716 148.694 38.448 149.71 38.448C150.798 38.448 151.69 38.848 152.386 39.648V35.028L155.374 33.672V51H152.386V49.992C151.794 50.856 150.89 51.288 149.674 51.288ZM150.166 48.42C150.678 48.42 151.114 48.332 151.474 48.156C151.834 47.972 152.138 47.7 152.386 47.34V42.384C152.138 42.048 151.814 41.784 151.414 41.592C151.022 41.4 150.606 41.304 150.166 41.304C149.358 41.304 148.734 41.612 148.294 42.228C147.854 42.836 147.634 43.712 147.634 44.856C147.634 45.608 147.734 46.252 147.934 46.788C148.134 47.316 148.422 47.72 148.798 48C149.174 48.28 149.63 48.42 150.166 48.42ZM164.174 51.288C162.998 51.288 161.982 51.024 161.126 50.496C160.278 49.968 159.622 49.224 159.158 48.264C158.702 47.296 158.474 46.16 158.474 44.856C158.474 43.536 158.706 42.396 159.17 41.436C159.642 40.476 160.302 39.74 161.15 39.228C162.006 38.708 163.014 38.448 164.174 38.448C165.166 38.448 166.066 38.656 166.874 39.072C167.682 39.488 168.326 40.128 168.806 40.992C169.286 41.848 169.526 42.94 169.526 44.268C169.526 44.476 169.518 44.732 169.502 45.036C169.494 45.332 169.474 45.632 169.442 45.936H161.438C161.47 46.496 161.598 46.988 161.822 47.412C162.054 47.828 162.37 48.152 162.77 48.384C163.17 48.616 163.642 48.732 164.186 48.732C164.77 48.732 165.278 48.636 165.71 48.444C166.142 48.244 166.55 47.928 166.934 47.496L168.662 49.284C168.134 49.884 167.498 50.368 166.754 50.736C166.01 51.104 165.15 51.288 164.174 51.288ZM161.45 43.596H166.622C166.582 43.06 166.462 42.6 166.262 42.216C166.062 41.824 165.782 41.524 165.422 41.316C165.062 41.108 164.626 41.004 164.114 41.004C163.41 41.004 162.81 41.22 162.314 41.652C161.818 42.084 161.53 42.732 161.45 43.596ZM177.847 51.288C176.119 51.288 174.755 50.716 173.755 49.572C172.755 48.428 172.255 46.864 172.255 44.88C172.255 43.568 172.483 42.432 172.939 41.472C173.395 40.504 174.039 39.76 174.871 39.24C175.711 38.712 176.703 38.448 177.847 38.448C178.983 38.448 179.967 38.708 180.799 39.228C181.631 39.748 182.271 40.488 182.719 41.448C183.167 42.408 183.391 43.548 183.391 44.868C183.391 46.196 183.167 47.34 182.719 48.3C182.279 49.26 181.643 50 180.811 50.52C179.979 51.032 178.991 51.288 177.847 51.288ZM177.847 48.42C178.655 48.42 179.283 48.108 179.731 47.484C180.179 46.86 180.403 45.988 180.403 44.868C180.403 43.748 180.175 42.876 179.719 42.252C179.271 41.62 178.647 41.304 177.847 41.304C177.039 41.304 176.407 41.62 175.951 42.252C175.495 42.884 175.267 43.76 175.267 44.88C175.267 45.984 175.495 46.852 175.951 47.484C176.407 48.108 177.039 48.42 177.847 48.42ZM197.357 51.288C196.229 51.288 195.253 51.028 194.429 50.508C193.605 49.988 192.969 49.252 192.521 48.3C192.073 47.34 191.849 46.2 191.849 44.88C191.849 43.56 192.073 42.42 192.521 41.46C192.977 40.5 193.621 39.76 194.453 39.24C195.285 38.712 196.265 38.448 197.393 38.448C198.665 38.448 199.721 38.744 200.561 39.336C201.409 39.92 202.021 40.788 202.397 41.94L199.553 42.9C199.361 42.388 199.081 41.996 198.713 41.724C198.345 41.444 197.921 41.304 197.441 41.304C196.665 41.304 196.045 41.624 195.581 42.264C195.125 42.904 194.897 43.776 194.897 44.88C194.897 45.968 195.121 46.832 195.569 47.472C196.017 48.112 196.621 48.432 197.381 48.432C197.917 48.432 198.373 48.28 198.749 47.976C199.133 47.672 199.417 47.228 199.601 46.644L202.433 47.496C202.073 48.752 201.461 49.7 200.597 50.34C199.741 50.972 198.661 51.288 197.357 51.288ZM210.379 51.288C208.651 51.288 207.287 50.716 206.287 49.572C205.287 48.428 204.787 46.864 204.787 44.88C204.787 43.568 205.015 42.432 205.471 41.472C205.927 40.504 206.571 39.76 207.403 39.24C208.243 38.712 209.235 38.448 210.379 38.448C211.515 38.448 212.499 38.708 213.331 39.228C214.163 39.748 214.803 40.488 215.251 41.448C215.699 42.408 215.923 43.548 215.923 44.868C215.923 46.196 215.699 47.34 215.251 48.3C214.811 49.26 214.175 50 213.343 50.52C212.511 51.032 211.523 51.288 210.379 51.288ZM210.379 48.42C211.187 48.42 211.815 48.108 212.263 47.484C212.711 46.86 212.935 45.988 212.935 44.868C212.935 43.748 212.707 42.876 212.251 42.252C211.803 41.62 211.179 41.304 210.379 41.304C209.571 41.304 208.939 41.62 208.483 42.252C208.027 42.884 207.799 43.76 207.799 44.88C207.799 45.984 208.027 46.852 208.483 47.484C208.939 48.108 209.571 48.42 210.379 48.42ZM218.794 51V38.736H221.794V39.912C222.186 39.424 222.654 39.06 223.198 38.82C223.75 38.572 224.378 38.448 225.082 38.448C226.45 38.448 227.506 38.872 228.25 39.72C228.994 40.56 229.366 41.772 229.366 43.356V51H226.378V44.28C226.378 43.248 226.198 42.496 225.838 42.024C225.486 41.544 224.934 41.304 224.182 41.304C223.366 41.304 222.762 41.544 222.37 42.024C221.986 42.496 221.794 43.232 221.794 44.232V51H218.794ZM236.221 51.288C235.245 51.288 234.513 51.02 234.025 50.484C233.537 49.948 233.293 49.148 233.293 48.084V41.364H231.505V38.736H233.293V35.1L236.269 33.672V38.736H239.053V41.364H236.269V47.544C236.269 47.928 236.345 48.212 236.497 48.396C236.657 48.58 236.905 48.672 237.241 48.672C237.833 48.672 238.481 48.488 239.185 48.12L238.837 50.736C238.469 50.92 238.069 51.056 237.637 51.144C237.205 51.24 236.733 51.288 236.221 51.288ZM247.002 51.288C245.826 51.288 244.81 51.024 243.954 50.496C243.106 49.968 242.45 49.224 241.986 48.264C241.53 47.296 241.302 46.16 241.302 44.856C241.302 43.536 241.534 42.396 241.998 41.436C242.47 40.476 243.13 39.74 243.978 39.228C244.834 38.708 245.842 38.448 247.002 38.448C247.994 38.448 248.894 38.656 249.702 39.072C250.51 39.488 251.154 40.128 251.634 40.992C252.114 41.848 252.354 42.94 252.354 44.268C252.354 44.476 252.346 44.732 252.33 45.036C252.322 45.332 252.302 45.632 252.27 45.936H244.266C244.298 46.496 244.426 46.988 244.65 47.412C244.882 47.828 245.198 48.152 245.598 48.384C245.998 48.616 246.47 48.732 247.014 48.732C247.598 48.732 248.106 48.636 248.538 48.444C248.97 48.244 249.378 47.928 249.762 47.496L251.49 49.284C250.962 49.884 250.326 50.368 249.582 50.736C248.838 51.104 247.978 51.288 247.002 51.288ZM244.278 43.596H249.45C249.41 43.06 249.29 42.6 249.09 42.216C248.89 41.824 248.61 41.524 248.25 41.316C247.89 41.108 247.454 41.004 246.942 41.004C246.238 41.004 245.638 41.22 245.142 41.652C244.646 42.084 244.358 42.732 244.278 43.596ZM255.38 51V38.736H258.38V39.912C258.772 39.424 259.24 39.06 259.784 38.82C260.336 38.572 260.964 38.448 261.668 38.448C263.036 38.448 264.092 38.872 264.836 39.72C265.58 40.56 265.952 41.772 265.952 43.356V51H262.964V44.28C262.964 43.248 262.784 42.496 262.424 42.024C262.072 41.544 261.52 41.304 260.768 41.304C259.952 41.304 259.348 41.544 258.956 42.024C258.572 42.496 258.38 43.232 258.38 44.232V51H255.38ZM272.807 51.288C271.831 51.288 271.099 51.02 270.611 50.484C270.123 49.948 269.879 49.148 269.879 48.084V41.364H268.091V38.736H269.879V35.1L272.855 33.672V38.736H275.639V41.364H272.855V47.544C272.855 47.928 272.931 48.212 273.083 48.396C273.243 48.58 273.491 48.672 273.827 48.672C274.419 48.672 275.067 48.488 275.771 48.12L275.423 50.736C275.055 50.92 274.655 51.056 274.223 51.144C273.791 51.24 273.319 51.288 272.807 51.288Z" fill="white"/>
<path d="M195.56 170C195.008 170 194.617 170.676 194.893 171.155L199.333 178.845C199.609 179.324 200.391 179.324 200.667 178.845L205.107 171.155C205.383 170.676 204.992 170 204.44 170H195.56ZM199 100V171H201V100H199Z" fill="#FC00FF"/>
<path d="M50.9648 241V227.188H46.2008V224.2H58.8608V227.188H54.0728V241H50.9648ZM60.04 241V228.736H63.04V230.056C63.264 229.584 63.616 229.2 64.096 228.904C64.576 228.6 65.08 228.448 65.608 228.448C66.48 228.448 67.216 228.748 67.816 229.348L67.396 232.096C67.068 231.824 66.748 231.632 66.436 231.52C66.124 231.408 65.78 231.352 65.404 231.352C64.908 231.352 64.484 231.468 64.132 231.7C63.78 231.932 63.508 232.268 63.316 232.708C63.132 233.148 63.04 233.676 63.04 234.292V241H60.04ZM73.3905 241.288C72.0545 241.288 70.9945 240.928 70.2105 240.208C69.4345 239.48 69.0465 238.496 69.0465 237.256C69.0465 236.456 69.2465 235.756 69.6465 235.156C70.0545 234.548 70.6185 234.08 71.3385 233.752C72.0665 233.416 72.9145 233.248 73.8825 233.248C74.4185 233.248 74.9345 233.3 75.4305 233.404C75.9345 233.5 76.3745 233.64 76.7505 233.824V233.056C76.7505 232.368 76.5545 231.852 76.1625 231.508C75.7785 231.156 75.2105 230.98 74.4585 230.98C73.8585 230.98 73.2425 231.088 72.6105 231.304C71.9785 231.52 71.3385 231.84 70.6905 232.264L69.7905 229.9C70.4945 229.436 71.2785 229.08 72.1425 228.832C73.0065 228.576 73.8785 228.448 74.7585 228.448C76.4065 228.448 77.6385 228.84 78.4545 229.624C79.2705 230.4 79.6785 231.56 79.6785 233.104V241H76.7505V240.016C76.3345 240.432 75.8385 240.748 75.2625 240.964C74.6945 241.18 74.0705 241.288 73.3905 241.288ZM74.0865 238.756C74.5825 238.756 75.0585 238.66 75.5145 238.468C75.9785 238.268 76.3905 237.988 76.7505 237.628V236.176C76.4065 236.008 76.0225 235.88 75.5985 235.792C75.1825 235.696 74.7665 235.648 74.3505 235.648C73.6065 235.648 73.0185 235.792 72.5865 236.08C72.1625 236.36 71.9505 236.752 71.9505 237.256C71.9505 237.728 72.1385 238.096 72.5145 238.36C72.8905 238.624 73.4145 238.756 74.0865 238.756ZM83.2665 241V228.736H86.2665V229.912C86.6585 229.424 87.1265 229.06 87.6705 228.82C88.2225 228.572 88.8505 228.448 89.5545 228.448C90.9225 228.448 91.9785 228.872 92.7225 229.72C93.4665 230.56 93.8385 231.772 93.8385 233.356V241H90.8505V234.28C90.8505 233.248 90.6705 232.496 90.3105 232.024C89.9585 231.544 89.4065 231.304 88.6545 231.304C87.8385 231.304 87.2345 231.544 86.8425 232.024C86.4585 232.496 86.2665 233.232 86.2665 234.232V241H83.2665ZM101.478 241.288C100.518 241.288 99.5977 241.084 98.7177 240.676C97.8457 240.268 97.1537 239.72 96.6417 239.032L98.6097 237.376C99.0177 237.808 99.4897 238.152 100.026 238.408C100.562 238.656 101.074 238.78 101.562 238.78C102.17 238.78 102.638 238.68 102.966 238.48C103.294 238.272 103.458 237.984 103.458 237.616C103.458 237.376 103.378 237.164 103.218 236.98C103.066 236.788 102.794 236.596 102.402 236.404C102.01 236.204 101.458 235.976 100.746 235.72C99.3697 235.216 98.3937 234.672 97.8177 234.088C97.2417 233.496 96.9537 232.748 96.9537 231.844C96.9537 230.836 97.3617 230.02 98.1777 229.396C98.9937 228.764 100.058 228.448 101.37 228.448C102.266 228.448 103.09 228.616 103.842 228.952C104.602 229.288 105.254 229.78 105.798 230.428L103.842 232.048C103.122 231.32 102.282 230.956 101.322 230.956C100.834 230.956 100.442 231.048 100.146 231.232C99.8497 231.408 99.7017 231.648 99.7017 231.952C99.7017 232.248 99.8737 232.512 100.218 232.744C100.57 232.976 101.222 233.248 102.174 233.56C103.118 233.856 103.882 234.192 104.466 234.568C105.058 234.944 105.49 235.38 105.762 235.876C106.042 236.372 106.182 236.944 106.182 237.592C106.182 238.744 105.762 239.648 104.922 240.304C104.09 240.96 102.942 241.288 101.478 241.288ZM109.402 241V225.028L112.402 223.672V241H109.402ZM119.891 241.288C118.555 241.288 117.495 240.928 116.711 240.208C115.935 239.48 115.547 238.496 115.547 237.256C115.547 236.456 115.747 235.756 116.147 235.156C116.555 234.548 117.119 234.08 117.839 233.752C118.567 233.416 119.415 233.248 120.383 233.248C120.919 233.248 121.435 233.3 121.931 233.404C122.435 233.5 122.875 233.64 123.251 233.824V233.056C123.251 232.368 123.055 231.852 122.663 231.508C122.279 231.156 121.711 230.98 120.959 230.98C120.359 230.98 119.743 231.088 119.111 231.304C118.479 231.52 117.839 231.84 117.191 232.264L116.291 229.9C116.995 229.436 117.779 229.08 118.643 228.832C119.507 228.576 120.379 228.448 121.259 228.448C122.907 228.448 124.139 228.84 124.955 229.624C125.771 230.4 126.179 231.56 126.179 233.104V241H123.251V240.016C122.835 240.432 122.339 240.748 121.763 240.964C121.195 241.18 120.571 241.288 119.891 241.288ZM120.587 238.756C121.083 238.756 121.559 238.66 122.015 238.468C122.479 238.268 122.891 237.988 123.251 237.628V236.176C122.907 236.008 122.523 235.88 122.099 235.792C121.683 235.696 121.267 235.648 120.851 235.648C120.107 235.648 119.519 235.792 119.087 236.08C118.663 236.36 118.451 236.752 118.451 237.256C118.451 237.728 118.639 238.096 119.015 238.36C119.391 238.624 119.915 238.756 120.587 238.756ZM132.85 241.288C131.874 241.288 131.142 241.02 130.654 240.484C130.166 239.948 129.922 239.148 129.922 238.084V231.364H128.134V228.736H129.922V225.1L132.898 223.672V228.736H135.682V231.364H132.898V237.544C132.898 237.928 132.974 238.212 133.126 238.396C133.286 238.58 133.534 238.672 133.87 238.672C134.462 238.672 135.11 238.488 135.814 238.12L135.466 240.736C135.098 240.92 134.698 241.056 134.266 241.144C133.834 241.24 133.362 241.288 132.85 241.288ZM138.251 241V228.736H141.251V241H138.251ZM139.751 227.2C139.271 227.2 138.855 227.028 138.503 226.684C138.159 226.332 137.987 225.916 137.987 225.436C137.987 224.956 138.159 224.548 138.503 224.212C138.847 223.868 139.263 223.696 139.751 223.696C140.255 223.696 140.675 223.864 141.011 224.2C141.347 224.536 141.515 224.948 141.515 225.436C141.515 225.924 141.343 226.34 140.999 226.684C140.663 227.028 140.247 227.2 139.751 227.2ZM149.968 241.288C148.24 241.288 146.876 240.716 145.876 239.572C144.876 238.428 144.376 236.864 144.376 234.88C144.376 233.568 144.604 232.432 145.06 231.472C145.516 230.504 146.16 229.76 146.992 229.24C147.832 228.712 148.824 228.448 149.968 228.448C151.104 228.448 152.088 228.708 152.92 229.228C153.752 229.748 154.392 230.488 154.84 231.448C155.288 232.408 155.512 233.548 155.512 234.868C155.512 236.196 155.288 237.34 154.84 238.3C154.4 239.26 153.764 240 152.932 240.52C152.1 241.032 151.112 241.288 149.968 241.288ZM149.968 238.42C150.776 238.42 151.404 238.108 151.852 237.484C152.3 236.86 152.524 235.988 152.524 234.868C152.524 233.748 152.296 232.876 151.84 232.252C151.392 231.62 150.768 231.304 149.968 231.304C149.16 231.304 148.528 231.62 148.072 232.252C147.616 232.884 147.388 233.76 147.388 234.88C147.388 235.984 147.616 236.852 148.072 237.484C148.528 238.108 149.16 238.42 149.968 238.42ZM158.384 241V228.736H161.384V229.912C161.776 229.424 162.244 229.06 162.788 228.82C163.34 228.572 163.968 228.448 164.672 228.448C166.04 228.448 167.096 228.872 167.84 229.72C168.584 230.56 168.956 231.772 168.956 233.356V241H165.968V234.28C165.968 233.248 165.788 232.496 165.428 232.024C165.076 231.544 164.524 231.304 163.772 231.304C162.956 231.304 162.352 231.544 161.96 232.024C161.576 232.496 161.384 233.232 161.384 234.232V241H158.384ZM176.595 241.288C175.635 241.288 174.715 241.084 173.835 240.676C172.963 240.268 172.271 239.72 171.759 239.032L173.727 237.376C174.135 237.808 174.607 238.152 175.143 238.408C175.679 238.656 176.191 238.78 176.679 238.78C177.287 238.78 177.755 238.68 178.083 238.48C178.411 238.272 178.575 237.984 178.575 237.616C178.575 237.376 178.495 237.164 178.335 236.98C178.183 236.788 177.911 236.596 177.519 236.404C177.127 236.204 176.575 235.976 175.863 235.72C174.487 235.216 173.511 234.672 172.935 234.088C172.359 233.496 172.071 232.748 172.071 231.844C172.071 230.836 172.479 230.02 173.295 229.396C174.111 228.764 175.175 228.448 176.487 228.448C177.383 228.448 178.207 228.616 178.959 228.952C179.719 229.288 180.371 229.78 180.915 230.428L178.959 232.048C178.239 231.32 177.399 230.956 176.439 230.956C175.951 230.956 175.559 231.048 175.263 231.232C174.967 231.408 174.819 231.648 174.819 231.952C174.819 232.248 174.991 232.512 175.335 232.744C175.687 232.976 176.339 233.248 177.291 233.56C178.235 233.856 178.999 234.192 179.583 234.568C180.175 234.944 180.607 235.38 180.879 235.876C181.159 236.372 181.299 236.944 181.299 237.592C181.299 238.744 180.879 239.648 180.039 240.304C179.207 240.96 178.059 241.288 176.595 241.288ZM195.259 241.288C194.131 241.288 193.155 241.028 192.331 240.508C191.507 239.988 190.871 239.252 190.423 238.3C189.975 237.34 189.751 236.2 189.751 234.88C189.751 233.56 189.975 232.42 190.423 231.46C190.879 230.5 191.523 229.76 192.355 229.24C193.187 228.712 194.167 228.448 195.295 228.448C196.567 228.448 197.623 228.744 198.463 229.336C199.311 229.92 199.923 230.788 200.299 231.94L197.455 232.9C197.263 232.388 196.983 231.996 196.615 231.724C196.247 231.444 195.823 231.304 195.343 231.304C194.567 231.304 193.947 231.624 193.483 232.264C193.027 232.904 192.799 233.776 192.799 234.88C192.799 235.968 193.023 236.832 193.471 237.472C193.919 238.112 194.523 238.432 195.283 238.432C195.819 238.432 196.275 238.28 196.651 237.976C197.035 237.672 197.319 237.228 197.503 236.644L200.335 237.496C199.975 238.752 199.363 239.7 198.499 240.34C197.643 240.972 196.563 241.288 195.259 241.288ZM208.281 241.288C206.553 241.288 205.189 240.716 204.189 239.572C203.189 238.428 202.689 236.864 202.689 234.88C202.689 233.568 202.917 232.432 203.373 231.472C203.829 230.504 204.473 229.76 205.305 229.24C206.145 228.712 207.137 228.448 208.281 228.448C209.417 228.448 210.401 228.708 211.233 229.228C212.065 229.748 212.705 230.488 213.153 231.448C213.601 232.408 213.825 233.548 213.825 234.868C213.825 236.196 213.601 237.34 213.153 238.3C212.713 239.26 212.077 240 211.245 240.52C210.413 241.032 209.425 241.288 208.281 241.288ZM208.281 238.42C209.089 238.42 209.717 238.108 210.165 237.484C210.613 236.86 210.837 235.988 210.837 234.868C210.837 233.748 210.609 232.876 210.153 232.252C209.705 231.62 209.081 231.304 208.281 231.304C207.473 231.304 206.841 231.62 206.385 232.252C205.929 232.884 205.701 233.76 205.701 234.88C205.701 235.984 205.929 236.852 206.385 237.484C206.841 238.108 207.473 238.42 208.281 238.42ZM216.696 241V228.736H219.696V229.876C220.088 229.38 220.528 229.02 221.016 228.796C221.512 228.564 222.072 228.448 222.696 228.448C223.424 228.448 224.048 228.596 224.568 228.892C225.088 229.188 225.492 229.62 225.78 230.188C226.188 229.628 226.712 229.2 227.352 228.904C227.992 228.6 228.716 228.448 229.524 228.448C231.028 228.448 232.164 228.852 232.932 229.66C233.7 230.468 234.084 231.668 234.084 233.26V241H231.096V234.292C231.096 233.268 230.928 232.516 230.592 232.036C230.256 231.548 229.736 231.304 229.032 231.304C228.552 231.304 228.152 231.412 227.832 231.628C227.52 231.844 227.284 232.172 227.124 232.612C226.964 233.044 226.884 233.592 226.884 234.256V241H223.896V234.292C223.896 233.26 223.732 232.504 223.404 232.024C223.076 231.544 222.556 231.304 221.844 231.304C221.116 231.304 220.576 231.54 220.224 232.012C219.872 232.484 219.696 233.216 219.696 234.208V241H216.696ZM237.86 245.872V228.736H240.86V229.636C241.532 228.844 242.432 228.448 243.56 228.448C244.608 228.448 245.512 228.708 246.272 229.228C247.032 229.74 247.616 230.476 248.024 231.436C248.432 232.396 248.636 233.54 248.636 234.868C248.636 236.156 248.424 237.284 248 238.252C247.576 239.212 246.98 239.96 246.212 240.496C245.444 241.024 244.548 241.288 243.524 241.288C242.964 241.288 242.46 241.188 242.012 240.988C241.564 240.78 241.18 240.476 240.86 240.076V244.516L237.86 245.872ZM243.08 238.42C243.896 238.42 244.524 238.112 244.964 237.496C245.404 236.872 245.624 235.996 245.624 234.868C245.624 233.74 245.4 232.864 244.952 232.24C244.504 231.616 243.88 231.304 243.08 231.304C242.592 231.304 242.164 231.392 241.796 231.568C241.436 231.744 241.124 232.012 240.86 232.372V237.328C241.076 237.672 241.38 237.94 241.772 238.132C242.172 238.324 242.608 238.42 243.08 238.42ZM251.855 241V225.028L254.855 223.672V241H251.855ZM263.772 241.288C262.596 241.288 261.58 241.024 260.724 240.496C259.876 239.968 259.22 239.224 258.756 238.264C258.3 237.296 258.072 236.16 258.072 234.856C258.072 233.536 258.304 232.396 258.768 231.436C259.24 230.476 259.9 229.74 260.748 229.228C261.604 228.708 262.612 228.448 263.772 228.448C264.764 228.448 265.664 228.656 266.472 229.072C267.28 229.488 267.924 230.128 268.404 230.992C268.884 231.848 269.124 232.94 269.124 234.268C269.124 234.476 269.116 234.732 269.1 235.036C269.092 235.332 269.072 235.632 269.04 235.936H261.036C261.068 236.496 261.196 236.988 261.42 237.412C261.652 237.828 261.968 238.152 262.368 238.384C262.768 238.616 263.24 238.732 263.784 238.732C264.368 238.732 264.876 238.636 265.308 238.444C265.74 238.244 266.148 237.928 266.532 237.496L268.26 239.284C267.732 239.884 267.096 240.368 266.352 240.736C265.608 241.104 264.748 241.288 263.772 241.288ZM261.048 233.596H266.22C266.18 233.06 266.06 232.6 265.86 232.216C265.66 231.824 265.38 231.524 265.02 231.316C264.66 231.108 264.224 231.004 263.712 231.004C263.008 231.004 262.408 231.22 261.912 231.652C261.416 232.084 261.128 232.732 261.048 233.596ZM275.538 241.288C274.562 241.288 273.83 241.02 273.342 240.484C272.854 239.948 272.61 239.148 272.61 238.084V231.364H270.822V228.736H272.61V225.1L275.586 223.672V228.736H278.37V231.364H275.586V237.544C275.586 237.928 275.662 238.212 275.814 238.396C275.974 238.58 276.222 238.672 276.558 238.672C277.15 238.672 277.798 238.488 278.502 238.12L278.154 240.736C277.786 240.92 277.386 241.056 276.954 241.144C276.522 241.24 276.05 241.288 275.538 241.288ZM286.319 241.288C285.143 241.288 284.127 241.024 283.271 240.496C282.423 239.968 281.767 239.224 281.303 238.264C280.847 237.296 280.619 236.16 280.619 234.856C280.619 233.536 280.851 232.396 281.315 231.436C281.787 230.476 282.447 229.74 283.295 229.228C284.151 228.708 285.159 228.448 286.319 228.448C287.311 228.448 288.211 228.656 289.019 229.072C289.827 229.488 290.471 230.128 290.951 230.992C291.431 231.848 291.671 232.94 291.671 234.268C291.671 234.476 291.663 234.732 291.647 235.036C291.639 235.332 291.619 235.632 291.587 235.936H283.583C283.615 236.496 283.743 236.988 283.967 237.412C284.199 237.828 284.515 238.152 284.915 238.384C285.315 238.616 285.787 238.732 286.331 238.732C286.915 238.732 287.423 238.636 287.855 238.444C288.287 238.244 288.695 237.928 289.079 237.496L290.807 239.284C290.279 239.884 289.643 240.368 288.899 240.736C288.155 241.104 287.295 241.288 286.319 241.288ZM283.595 233.596H288.767C288.727 233.06 288.607 232.6 288.407 232.216C288.207 231.824 287.927 231.524 287.567 231.316C287.207 231.108 286.771 231.004 286.259 231.004C285.555 231.004 284.955 231.22 284.459 231.652C283.963 232.084 283.675 232.732 283.595 233.596ZM299.452 241.288C297.876 241.288 296.64 240.72 295.744 239.584C294.848 238.448 294.4 236.872 294.4 234.856C294.4 233.576 294.612 232.456 295.036 231.496C295.46 230.536 296.052 229.788 296.812 229.252C297.58 228.716 298.472 228.448 299.488 228.448C300.576 228.448 301.468 228.848 302.164 229.648V225.028L305.152 223.672V241H302.164V239.992C301.572 240.856 300.668 241.288 299.452 241.288ZM299.944 238.42C300.456 238.42 300.892 238.332 301.252 238.156C301.612 237.972 301.916 237.7 302.164 237.34V232.384C301.916 232.048 301.592 231.784 301.192 231.592C300.8 231.4 300.384 231.304 299.944 231.304C299.136 231.304 298.512 231.612 298.072 232.228C297.632 232.836 297.412 233.712 297.412 234.856C297.412 235.608 297.512 236.252 297.712 236.788C297.912 237.316 298.2 237.72 298.576 238C298.952 238.28 299.408 238.42 299.944 238.42ZM318.523 241.288C317.187 241.288 316.127 240.928 315.343 240.208C314.567 239.48 314.179 238.496 314.179 237.256C314.179 236.456 314.379 235.756 314.779 235.156C315.187 234.548 315.751 234.08 316.471 233.752C317.199 233.416 318.047 233.248 319.015 233.248C319.551 233.248 320.067 233.3 320.563 233.404C321.067 233.5 321.507 233.64 321.883 233.824V233.056C321.883 232.368 321.687 231.852 321.295 231.508C320.911 231.156 320.343 230.98 319.591 230.98C318.991 230.98 318.375 231.088 317.743 231.304C317.111 231.52 316.471 231.84 315.823 232.264L314.923 229.9C315.627 229.436 316.411 229.08 317.275 228.832C318.139 228.576 319.011 228.448 319.891 228.448C321.539 228.448 322.771 228.84 323.587 229.624C324.403 230.4 324.811 231.56 324.811 233.104V241H321.883V240.016C321.467 240.432 320.971 240.748 320.395 240.964C319.827 241.18 319.203 241.288 318.523 241.288ZM319.219 238.756C319.715 238.756 320.191 238.66 320.647 238.468C321.111 238.268 321.523 237.988 321.883 237.628V236.176C321.539 236.008 321.155 235.88 320.731 235.792C320.315 235.696 319.899 235.648 319.483 235.648C318.739 235.648 318.151 235.792 317.719 236.08C317.295 236.36 317.083 236.752 317.083 237.256C317.083 237.728 317.271 238.096 317.647 238.36C318.023 238.624 318.547 238.756 319.219 238.756ZM328.399 241V228.736H331.399V229.912C331.791 229.424 332.259 229.06 332.803 228.82C333.355 228.572 333.983 228.448 334.687 228.448C336.055 228.448 337.111 228.872 337.855 229.72C338.599 230.56 338.971 231.772 338.971 233.356V241H335.983V234.28C335.983 233.248 335.803 232.496 335.443 232.024C335.091 231.544 334.539 231.304 333.787 231.304C332.971 231.304 332.367 231.544 331.975 232.024C331.591 232.496 331.399 233.232 331.399 234.232V241H328.399ZM347.124 241.288C345.548 241.288 344.312 240.72 343.416 239.584C342.52 238.448 342.072 236.872 342.072 234.856C342.072 233.576 342.284 232.456 342.708 231.496C343.132 230.536 343.724 229.788 344.484 229.252C345.252 228.716 346.144 228.448 347.16 228.448C348.248 228.448 349.14 228.848 349.836 229.648V225.028L352.824 223.672V241H349.836V239.992C349.244 240.856 348.34 241.288 347.124 241.288ZM347.616 238.42C348.128 238.42 348.564 238.332 348.924 238.156C349.284 237.972 349.588 237.7 349.836 237.34V232.384C349.588 232.048 349.264 231.784 348.864 231.592C348.472 231.4 348.056 231.304 347.616 231.304C346.808 231.304 346.184 231.612 345.744 232.228C345.304 232.836 345.084 233.712 345.084 234.856C345.084 235.608 345.184 236.252 345.384 236.788C345.584 237.316 345.872 237.72 346.248 238C346.624 238.28 347.08 238.42 347.616 238.42ZM63.3139 271.288C61.9459 271.288 60.8859 270.864 60.1339 270.016C59.3819 269.16 59.0059 267.952 59.0059 266.392V258.736H62.0059V265.456C62.0059 266.488 62.1819 267.24 62.5339 267.712C62.8859 268.184 63.4419 268.42 64.2019 268.42C65.0179 268.42 65.6179 268.184 66.0019 267.712C66.3939 267.232 66.5899 266.496 66.5899 265.504V258.736H69.5779V271H66.5899V269.848C66.2139 270.328 65.7499 270.688 65.1979 270.928C64.6539 271.168 64.0259 271.288 63.3139 271.288ZM73.3525 275.872V258.736H76.3525V259.636C77.0245 258.844 77.9245 258.448 79.0525 258.448C80.1005 258.448 81.0045 258.708 81.7645 259.228C82.5245 259.74 83.1085 260.476 83.5165 261.436C83.9245 262.396 84.1285 263.54 84.1285 264.868C84.1285 266.156 83.9165 267.284 83.4925 268.252C83.0685 269.212 82.4725 269.96 81.7045 270.496C80.9365 271.024 80.0405 271.288 79.0165 271.288C78.4565 271.288 77.9525 271.188 77.5045 270.988C77.0565 270.78 76.6725 270.476 76.3525 270.076V274.516L73.3525 275.872ZM78.5725 268.42C79.3885 268.42 80.0165 268.112 80.4565 267.496C80.8965 266.872 81.1165 265.996 81.1165 264.868C81.1165 263.74 80.8925 262.864 80.4445 262.24C79.9965 261.616 79.3725 261.304 78.5725 261.304C78.0845 261.304 77.6565 261.392 77.2885 261.568C76.9285 261.744 76.6165 262.012 76.3525 262.372V267.328C76.5685 267.672 76.8725 267.94 77.2645 268.132C77.6645 268.324 78.1005 268.42 78.5725 268.42ZM87.3475 271V255.028L90.3475 253.672V271H87.3475ZM99.1558 271.288C97.4278 271.288 96.0638 270.716 95.0638 269.572C94.0638 268.428 93.5638 266.864 93.5638 264.88C93.5638 263.568 93.7918 262.432 94.2478 261.472C94.7038 260.504 95.3478 259.76 96.1798 259.24C97.0198 258.712 98.0118 258.448 99.1558 258.448C100.292 258.448 101.276 258.708 102.108 259.228C102.94 259.748 103.58 260.488 104.028 261.448C104.476 262.408 104.7 263.548 104.7 264.868C104.7 266.196 104.476 267.34 104.028 268.3C103.588 269.26 102.952 270 102.12 270.52C101.288 271.032 100.3 271.288 99.1558 271.288ZM99.1558 268.42C99.9638 268.42 100.592 268.108 101.04 267.484C101.488 266.86 101.712 265.988 101.712 264.868C101.712 263.748 101.484 262.876 101.028 262.252C100.58 261.62 99.9558 261.304 99.1558 261.304C98.3478 261.304 97.7158 261.62 97.2598 262.252C96.8038 262.884 96.5758 263.76 96.5758 264.88C96.5758 265.984 96.8038 266.852 97.2598 267.484C97.7158 268.108 98.3478 268.42 99.1558 268.42ZM111.523 271.288C110.187 271.288 109.127 270.928 108.343 270.208C107.567 269.48 107.179 268.496 107.179 267.256C107.179 266.456 107.379 265.756 107.779 265.156C108.187 264.548 108.751 264.08 109.471 263.752C110.199 263.416 111.047 263.248 112.015 263.248C112.551 263.248 113.067 263.3 113.563 263.404C114.067 263.5 114.507 263.64 114.883 263.824V263.056C114.883 262.368 114.687 261.852 114.295 261.508C113.911 261.156 113.343 260.98 112.591 260.98C111.991 260.98 111.375 261.088 110.743 261.304C110.111 261.52 109.471 261.84 108.823 262.264L107.923 259.9C108.627 259.436 109.411 259.08 110.275 258.832C111.139 258.576 112.011 258.448 112.891 258.448C114.539 258.448 115.771 258.84 116.587 259.624C117.403 260.4 117.811 261.56 117.811 263.104V271H114.883V270.016C114.467 270.432 113.971 270.748 113.395 270.964C112.827 271.18 112.203 271.288 111.523 271.288ZM112.219 268.756C112.715 268.756 113.191 268.66 113.647 268.468C114.111 268.268 114.523 267.988 114.883 267.628V266.176C114.539 266.008 114.155 265.88 113.731 265.792C113.315 265.696 112.899 265.648 112.483 265.648C111.739 265.648 111.151 265.792 110.719 266.08C110.295 266.36 110.083 266.752 110.083 267.256C110.083 267.728 110.271 268.096 110.647 268.36C111.023 268.624 111.547 268.756 112.219 268.756ZM125.78 271.288C124.204 271.288 122.968 270.72 122.072 269.584C121.176 268.448 120.728 266.872 120.728 264.856C120.728 263.576 120.94 262.456 121.364 261.496C121.788 260.536 122.38 259.788 123.14 259.252C123.908 258.716 124.8 258.448 125.816 258.448C126.904 258.448 127.796 258.848 128.492 259.648V255.028L131.48 253.672V271H128.492V269.992C127.9 270.856 126.996 271.288 125.78 271.288ZM126.272 268.42C126.784 268.42 127.22 268.332 127.58 268.156C127.94 267.972 128.244 267.7 128.492 267.34V262.384C128.244 262.048 127.92 261.784 127.52 261.592C127.128 261.4 126.712 261.304 126.272 261.304C125.464 261.304 124.84 261.612 124.4 262.228C123.96 262.836 123.74 263.712 123.74 264.856C123.74 265.608 123.84 266.252 124.04 266.788C124.24 267.316 124.528 267.72 124.904 268C125.28 268.28 125.736 268.42 126.272 268.42ZM140.279 271.288C139.103 271.288 138.087 271.024 137.231 270.496C136.383 269.968 135.727 269.224 135.263 268.264C134.807 267.296 134.579 266.16 134.579 264.856C134.579 263.536 134.811 262.396 135.275 261.436C135.747 260.476 136.407 259.74 137.255 259.228C138.111 258.708 139.119 258.448 140.279 258.448C141.271 258.448 142.171 258.656 142.979 259.072C143.787 259.488 144.431 260.128 144.911 260.992C145.391 261.848 145.631 262.94 145.631 264.268C145.631 264.476 145.623 264.732 145.607 265.036C145.599 265.332 145.579 265.632 145.547 265.936H137.543C137.575 266.496 137.703 266.988 137.927 267.412C138.159 267.828 138.475 268.152 138.875 268.384C139.275 268.616 139.747 268.732 140.291 268.732C140.875 268.732 141.383 268.636 141.815 268.444C142.247 268.244 142.655 267.928 143.039 267.496L144.767 269.284C144.239 269.884 143.603 270.368 142.859 270.736C142.115 271.104 141.255 271.288 140.279 271.288ZM137.555 263.596H142.727C142.687 263.06 142.567 262.6 142.367 262.216C142.167 261.824 141.887 261.524 141.527 261.316C141.167 261.108 140.731 261.004 140.219 261.004C139.515 261.004 138.915 261.22 138.419 261.652C137.923 262.084 137.635 262.732 137.555 263.596ZM153.413 271.288C151.837 271.288 150.601 270.72 149.705 269.584C148.809 268.448 148.361 266.872 148.361 264.856C148.361 263.576 148.573 262.456 148.997 261.496C149.421 260.536 150.013 259.788 150.773 259.252C151.541 258.716 152.433 258.448 153.449 258.448C154.537 258.448 155.429 258.848 156.125 259.648V255.028L159.113 253.672V271H156.125V269.992C155.533 270.856 154.629 271.288 153.413 271.288ZM153.905 268.42C154.417 268.42 154.853 268.332 155.213 268.156C155.573 267.972 155.877 267.7 156.125 267.34V262.384C155.877 262.048 155.553 261.784 155.153 261.592C154.761 261.4 154.345 261.304 153.905 261.304C153.097 261.304 152.473 261.612 152.033 262.228C151.593 262.836 151.373 263.712 151.373 264.856C151.373 265.608 151.473 266.252 151.673 266.788C151.873 267.316 152.161 267.72 152.537 268C152.913 268.28 153.369 268.42 153.905 268.42ZM172.436 271.288C171.46 271.288 170.728 271.02 170.24 270.484C169.752 269.948 169.508 269.148 169.508 268.084V261.364H167.72V258.736H169.508V255.1L172.484 253.672V258.736H175.268V261.364H172.484V267.544C172.484 267.928 172.56 268.212 172.712 268.396C172.872 268.58 173.12 268.672 173.456 268.672C174.048 268.672 174.696 268.488 175.4 268.12L175.052 270.736C174.684 270.92 174.284 271.056 173.852 271.144C173.42 271.24 172.948 271.288 172.436 271.288ZM183.109 271.288C181.381 271.288 180.017 270.716 179.017 269.572C178.017 268.428 177.517 266.864 177.517 264.88C177.517 263.568 177.745 262.432 178.201 261.472C178.657 260.504 179.301 259.76 180.133 259.24C180.973 258.712 181.965 258.448 183.109 258.448C184.245 258.448 185.229 258.708 186.061 259.228C186.893 259.748 187.533 260.488 187.981 261.448C188.429 262.408 188.653 263.548 188.653 264.868C188.653 266.196 188.429 267.34 187.981 268.3C187.541 269.26 186.905 270 186.073 270.52C185.241 271.032 184.253 271.288 183.109 271.288ZM183.109 268.42C183.917 268.42 184.545 268.108 184.993 267.484C185.441 266.86 185.665 265.988 185.665 264.868C185.665 263.748 185.437 262.876 184.981 262.252C184.533 261.62 183.909 261.304 183.109 261.304C182.301 261.304 181.669 261.62 181.213 262.252C180.757 262.884 180.529 263.76 180.529 264.88C180.529 265.984 180.757 266.852 181.213 267.484C181.669 268.108 182.301 268.42 183.109 268.42ZM199.295 275.656L201.155 270.784L196.559 258.736H199.643L202.319 265.912C202.391 266.08 202.459 266.264 202.523 266.464C202.587 266.664 202.647 266.864 202.703 267.064C202.751 266.864 202.807 266.668 202.871 266.476C202.943 266.276 203.015 266.088 203.087 265.912L205.763 258.736H208.847L202.391 275.656H199.295ZM216.039 271.288C214.311 271.288 212.947 270.716 211.947 269.572C210.947 268.428 210.447 266.864 210.447 264.88C210.447 263.568 210.675 262.432 211.131 261.472C211.587 260.504 212.231 259.76 213.063 259.24C213.903 258.712 214.895 258.448 216.039 258.448C217.175 258.448 218.159 258.708 218.991 259.228C219.823 259.748 220.463 260.488 220.911 261.448C221.359 262.408 221.583 263.548 221.583 264.868C221.583 266.196 221.359 267.34 220.911 268.3C220.471 269.26 219.835 270 219.003 270.52C218.171 271.032 217.183 271.288 216.039 271.288ZM216.039 268.42C216.847 268.42 217.475 268.108 217.923 267.484C218.371 266.86 218.595 265.988 218.595 264.868C218.595 263.748 218.367 262.876 217.911 262.252C217.463 261.62 216.839 261.304 216.039 261.304C215.231 261.304 214.599 261.62 214.143 262.252C213.687 262.884 213.459 263.76 213.459 264.88C213.459 265.984 213.687 266.852 214.143 267.484C214.599 268.108 215.231 268.42 216.039 268.42ZM228.876 271.288C227.508 271.288 226.448 270.864 225.696 270.016C224.944 269.16 224.568 267.952 224.568 266.392V258.736H227.568V265.456C227.568 266.488 227.744 267.24 228.096 267.712C228.448 268.184 229.004 268.42 229.764 268.42C230.58 268.42 231.18 268.184 231.564 267.712C231.956 267.232 232.152 266.496 232.152 265.504V258.736H235.14V271H232.152V269.848C231.776 270.328 231.312 270.688 230.76 270.928C230.216 271.168 229.588 271.288 228.876 271.288ZM238.915 271V258.736H241.915V260.056C242.139 259.584 242.491 259.2 242.971 258.904C243.451 258.6 243.955 258.448 244.483 258.448C245.355 258.448 246.091 258.748 246.691 259.348L246.271 262.096C245.943 261.824 245.623 261.632 245.311 261.52C244.999 261.408 244.655 261.352 244.279 261.352C243.783 261.352 243.359 261.468 243.007 261.7C242.655 261.932 242.383 262.268 242.191 262.708C242.007 263.148 241.915 263.676 241.915 264.292V271H238.915ZM259.759 271.288C258.631 271.288 257.655 271.028 256.831 270.508C256.007 269.988 255.371 269.252 254.923 268.3C254.475 267.34 254.251 266.2 254.251 264.88C254.251 263.56 254.475 262.42 254.923 261.46C255.379 260.5 256.023 259.76 256.855 259.24C257.687 258.712 258.667 258.448 259.795 258.448C261.067 258.448 262.123 258.744 262.963 259.336C263.811 259.92 264.423 260.788 264.799 261.94L261.955 262.9C261.763 262.388 261.483 261.996 261.115 261.724C260.747 261.444 260.323 261.304 259.843 261.304C259.067 261.304 258.447 261.624 257.983 262.264C257.527 262.904 257.299 263.776 257.299 264.88C257.299 265.968 257.523 266.832 257.971 267.472C258.419 268.112 259.023 268.432 259.783 268.432C260.319 268.432 260.775 268.28 261.151 267.976C261.535 267.672 261.819 267.228 262.003 266.644L264.835 267.496C264.475 268.752 263.863 269.7 262.999 270.34C262.143 270.972 261.063 271.288 259.759 271.288ZM267.884 271V255.052L270.884 253.672V259.924C271.276 259.428 271.744 259.06 272.288 258.82C272.84 258.572 273.468 258.448 274.172 258.448C275.116 258.448 275.904 258.648 276.536 259.048C277.176 259.44 277.656 260.004 277.976 260.74C278.296 261.468 278.456 262.34 278.456 263.356V271H275.468V264.28C275.468 263.272 275.296 262.524 274.952 262.036C274.608 261.548 274.048 261.304 273.272 261.304C272.456 261.304 271.852 261.544 271.46 262.024C271.076 262.496 270.884 263.232 270.884 264.232V271H267.884ZM285.734 271.288C284.398 271.288 283.338 270.928 282.554 270.208C281.778 269.48 281.39 268.496 281.39 267.256C281.39 266.456 281.59 265.756 281.99 265.156C282.398 264.548 282.962 264.08 283.682 263.752C284.41 263.416 285.258 263.248 286.226 263.248C286.762 263.248 287.278 263.3 287.774 263.404C288.278 263.5 288.718 263.64 289.094 263.824V263.056C289.094 262.368 288.898 261.852 288.506 261.508C288.122 261.156 287.554 260.98 286.802 260.98C286.202 260.98 285.586 261.088 284.954 261.304C284.322 261.52 283.682 261.84 283.034 262.264L282.134 259.9C282.838 259.436 283.622 259.08 284.486 258.832C285.35 258.576 286.222 258.448 287.102 258.448C288.75 258.448 289.982 258.84 290.798 259.624C291.614 260.4 292.022 261.56 292.022 263.104V271H289.094V270.016C288.678 270.432 288.182 270.748 287.606 270.964C287.038 271.18 286.414 271.288 285.734 271.288ZM286.43 268.756C286.926 268.756 287.402 268.66 287.858 268.468C288.322 268.268 288.734 267.988 289.094 267.628V266.176C288.75 266.008 288.366 265.88 287.942 265.792C287.526 265.696 287.11 265.648 286.694 265.648C285.95 265.648 285.362 265.792 284.93 266.08C284.506 266.36 284.294 266.752 284.294 267.256C284.294 267.728 284.482 268.096 284.858 268.36C285.234 268.624 285.758 268.756 286.43 268.756ZM295.61 271V258.736H298.61V259.912C299.002 259.424 299.47 259.06 300.014 258.82C300.566 258.572 301.194 258.448 301.898 258.448C303.266 258.448 304.322 258.872 305.066 259.72C305.81 260.56 306.182 261.772 306.182 263.356V271H303.194V264.28C303.194 263.248 303.014 262.496 302.654 262.024C302.302 261.544 301.75 261.304 300.998 261.304C300.182 261.304 299.578 261.544 299.186 262.024C298.802 262.496 298.61 263.232 298.61 264.232V271H295.61ZM309.954 271V258.736H312.954V259.912C313.346 259.424 313.814 259.06 314.358 258.82C314.91 258.572 315.538 258.448 316.242 258.448C317.61 258.448 318.666 258.872 319.41 259.72C320.154 260.56 320.526 261.772 320.526 263.356V271H317.538V264.28C317.538 263.248 317.358 262.496 316.998 262.024C316.646 261.544 316.094 261.304 315.342 261.304C314.526 261.304 313.922 261.544 313.53 262.024C313.146 262.496 312.954 263.232 312.954 264.232V271H309.954ZM329.326 271.288C328.15 271.288 327.134 271.024 326.278 270.496C325.43 269.968 324.774 269.224 324.31 268.264C323.854 267.296 323.626 266.16 323.626 264.856C323.626 263.536 323.858 262.396 324.322 261.436C324.794 260.476 325.454 259.74 326.302 259.228C327.158 258.708 328.166 258.448 329.326 258.448C330.318 258.448 331.218 258.656 332.026 259.072C332.834 259.488 333.478 260.128 333.958 260.992C334.438 261.848 334.678 262.94 334.678 264.268C334.678 264.476 334.67 264.732 334.654 265.036C334.646 265.332 334.626 265.632 334.594 265.936H326.59C326.622 266.496 326.75 266.988 326.974 267.412C327.206 267.828 327.522 268.152 327.922 268.384C328.322 268.616 328.794 268.732 329.338 268.732C329.922 268.732 330.43 268.636 330.862 268.444C331.294 268.244 331.702 267.928 332.086 267.496L333.814 269.284C333.286 269.884 332.65 270.368 331.906 270.736C331.162 271.104 330.302 271.288 329.326 271.288ZM326.602 263.596H331.774C331.734 263.06 331.614 262.6 331.414 262.216C331.214 261.824 330.934 261.524 330.574 261.316C330.214 261.108 329.778 261.004 329.266 261.004C328.562 261.004 327.962 261.22 327.466 261.652C326.97 262.084 326.682 262.732 326.602 263.596ZM337.754 271V255.028L340.754 253.672V271H337.754Z" fill="white"/>
<path d="M195.56 390C195.008 390 194.617 390.676 194.893 391.155L199.333 398.845C199.609 399.324 200.391 399.324 200.667 398.845L205.107 391.155C205.383 390.676 204.992 390 204.44 390H195.56ZM199 320V391H201V320H199Z" fill="#FC00FF"/>
<path d="M84.5695 461.288C83.5215 461.288 82.5695 461.104 81.7135 460.736C80.8575 460.368 80.1215 459.848 79.5055 459.176C78.8975 458.496 78.4415 457.696 78.1375 456.776L80.9575 455.732C81.3175 456.5 81.8175 457.132 82.4575 457.628C83.1055 458.116 83.8335 458.36 84.6415 458.36C85.4975 458.36 86.1775 458.18 86.6815 457.82C87.1935 457.46 87.4495 456.936 87.4495 456.248C87.4495 455.776 87.2975 455.384 86.9935 455.072C86.6975 454.752 86.2935 454.48 85.7815 454.256C85.2775 454.024 84.7055 453.8 84.0655 453.584C83.4495 453.376 82.8295 453.144 82.2055 452.888C81.5815 452.632 81.0095 452.32 80.4895 451.952C79.9695 451.576 79.5495 451.104 79.2295 450.536C78.9175 449.968 78.7615 449.272 78.7615 448.448C78.7615 447.624 78.9815 446.868 79.4215 446.18C79.8615 445.492 80.4975 444.944 81.3295 444.536C82.1695 444.12 83.1855 443.912 84.3775 443.912C85.3535 443.912 86.2175 444.08 86.9695 444.416C87.7295 444.744 88.3575 445.192 88.8535 445.76C89.3495 446.328 89.6935 446.972 89.8855 447.692L87.1015 448.616C86.8775 448.112 86.5335 447.692 86.0695 447.356C85.6135 447.012 84.9935 446.84 84.2095 446.84C83.4735 446.84 82.9015 446.984 82.4935 447.272C82.0855 447.56 81.8815 447.968 81.8815 448.496C81.8815 448.856 82.0175 449.164 82.2895 449.42C82.5695 449.668 82.9415 449.892 83.4055 450.092C83.8775 450.292 84.4095 450.496 85.0015 450.704C85.6655 450.928 86.3255 451.184 86.9815 451.472C87.6455 451.752 88.2455 452.096 88.7815 452.504C89.3255 452.912 89.7615 453.42 90.0895 454.028C90.4175 454.628 90.5815 455.364 90.5815 456.236C90.5815 457.308 90.3135 458.22 89.7775 458.972C89.2495 459.724 88.5335 460.3 87.6295 460.7C86.7255 461.092 85.7055 461.288 84.5695 461.288ZM97.0378 461.288C96.0618 461.288 95.3298 461.02 94.8418 460.484C94.3538 459.948 94.1098 459.148 94.1098 458.084V451.364H92.3218V448.736H94.1098V445.1L97.0858 443.672V448.736H99.8698V451.364H97.0858V457.544C97.0858 457.928 97.1618 458.212 97.3138 458.396C97.4738 458.58 97.7218 458.672 98.0578 458.672C98.6498 458.672 99.2978 458.488 100.002 458.12L99.6538 460.736C99.2858 460.92 98.8858 461.056 98.4538 461.144C98.0218 461.24 97.5498 461.288 97.0378 461.288ZM106.391 461.288C105.055 461.288 103.995 460.928 103.211 460.208C102.435 459.48 102.047 458.496 102.047 457.256C102.047 456.456 102.247 455.756 102.647 455.156C103.055 454.548 103.619 454.08 104.339 453.752C105.067 453.416 105.915 453.248 106.883 453.248C107.419 453.248 107.935 453.3 108.431 453.404C108.935 453.5 109.375 453.64 109.751 453.824V453.056C109.751 452.368 109.555 451.852 109.163 451.508C108.779 451.156 108.211 450.98 107.459 450.98C106.859 450.98 106.243 451.088 105.611 451.304C104.979 451.52 104.339 451.84 103.691 452.264L102.791 449.9C103.495 449.436 104.279 449.08 105.143 448.832C106.007 448.576 106.879 448.448 107.759 448.448C109.407 448.448 110.639 448.84 111.455 449.624C112.271 450.4 112.679 451.56 112.679 453.104V461H109.751V460.016C109.335 460.432 108.839 460.748 108.263 460.964C107.695 461.18 107.071 461.288 106.391 461.288ZM107.087 458.756C107.583 458.756 108.059 458.66 108.515 458.468C108.979 458.268 109.391 457.988 109.751 457.628V456.176C109.407 456.008 109.023 455.88 108.599 455.792C108.183 455.696 107.767 455.648 107.351 455.648C106.607 455.648 106.019 455.792 105.587 456.08C105.163 456.36 104.951 456.752 104.951 457.256C104.951 457.728 105.139 458.096 105.515 458.36C105.891 458.624 106.415 458.756 107.087 458.756ZM116.267 461V448.736H119.267V450.056C119.491 449.584 119.843 449.2 120.323 448.904C120.803 448.6 121.307 448.448 121.835 448.448C122.707 448.448 123.443 448.748 124.043 449.348L123.623 452.096C123.295 451.824 122.975 451.632 122.663 451.52C122.351 451.408 122.007 451.352 121.631 451.352C121.135 451.352 120.711 451.468 120.359 451.7C120.007 451.932 119.735 452.268 119.543 452.708C119.359 453.148 119.267 453.676 119.267 454.292V461H116.267ZM129.944 461.288C128.968 461.288 128.236 461.02 127.748 460.484C127.26 459.948 127.016 459.148 127.016 458.084V451.364H125.228V448.736H127.016V445.1L129.992 443.672V448.736H132.776V451.364H129.992V457.544C129.992 457.928 130.068 458.212 130.22 458.396C130.38 458.58 130.628 458.672 130.964 458.672C131.556 458.672 132.204 458.488 132.908 458.12L132.56 460.736C132.192 460.92 131.792 461.056 131.36 461.144C130.928 461.24 130.456 461.288 129.944 461.288ZM141.79 461V448.736H144.79V449.876C145.182 449.38 145.622 449.02 146.11 448.796C146.606 448.564 147.166 448.448 147.79 448.448C148.518 448.448 149.142 448.596 149.662 448.892C150.182 449.188 150.586 449.62 150.874 450.188C151.282 449.628 151.806 449.2 152.446 448.904C153.086 448.6 153.81 448.448 154.618 448.448C156.122 448.448 157.258 448.852 158.026 449.66C158.794 450.468 159.178 451.668 159.178 453.26V461H156.19V454.292C156.19 453.268 156.022 452.516 155.686 452.036C155.35 451.548 154.83 451.304 154.126 451.304C153.646 451.304 153.246 451.412 152.926 451.628C152.614 451.844 152.378 452.172 152.218 452.612C152.058 453.044 151.978 453.592 151.978 454.256V461H148.99V454.292C148.99 453.26 148.826 452.504 148.498 452.024C148.17 451.544 147.65 451.304 146.938 451.304C146.21 451.304 145.67 451.54 145.318 452.012C144.966 452.484 144.79 453.216 144.79 454.208V461H141.79ZM167.875 461.288C166.147 461.288 164.783 460.716 163.783 459.572C162.783 458.428 162.283 456.864 162.283 454.88C162.283 453.568 162.511 452.432 162.967 451.472C163.423 450.504 164.067 449.76 164.899 449.24C165.739 448.712 166.731 448.448 167.875 448.448C169.011 448.448 169.995 448.708 170.827 449.228C171.659 449.748 172.299 450.488 172.747 451.448C173.195 452.408 173.419 453.548 173.419 454.868C173.419 456.196 173.195 457.34 172.747 458.3C172.307 459.26 171.671 460 170.839 460.52C170.007 461.032 169.019 461.288 167.875 461.288ZM167.875 458.42C168.683 458.42 169.311 458.108 169.759 457.484C170.207 456.86 170.431 455.988 170.431 454.868C170.431 453.748 170.203 452.876 169.747 452.252C169.299 451.62 168.675 451.304 167.875 451.304C167.067 451.304 166.435 451.62 165.979 452.252C165.523 452.884 165.295 453.76 165.295 454.88C165.295 455.984 165.523 456.852 165.979 457.484C166.435 458.108 167.067 458.42 167.875 458.42ZM176.29 461V448.736H179.29V449.912C179.682 449.424 180.15 449.06 180.694 448.82C181.246 448.572 181.874 448.448 182.578 448.448C183.946 448.448 185.002 448.872 185.746 449.72C186.49 450.56 186.862 451.772 186.862 453.356V461H183.874V454.28C183.874 453.248 183.694 452.496 183.334 452.024C182.982 451.544 182.43 451.304 181.678 451.304C180.862 451.304 180.258 451.544 179.866 452.024C179.482 452.496 179.29 453.232 179.29 454.232V461H176.29ZM195.662 461.288C194.486 461.288 193.47 461.024 192.614 460.496C191.766 459.968 191.11 459.224 190.646 458.264C190.19 457.296 189.962 456.16 189.962 454.856C189.962 453.536 190.194 452.396 190.658 451.436C191.13 450.476 191.79 449.74 192.638 449.228C193.494 448.708 194.502 448.448 195.662 448.448C196.654 448.448 197.554 448.656 198.362 449.072C199.17 449.488 199.814 450.128 200.294 450.992C200.774 451.848 201.014 452.94 201.014 454.268C201.014 454.476 201.006 454.732 200.99 455.036C200.982 455.332 200.962 455.632 200.93 455.936H192.926C192.958 456.496 193.086 456.988 193.31 457.412C193.542 457.828 193.858 458.152 194.258 458.384C194.658 458.616 195.13 458.732 195.674 458.732C196.258 458.732 196.766 458.636 197.198 458.444C197.63 458.244 198.038 457.928 198.422 457.496L200.15 459.284C199.622 459.884 198.986 460.368 198.242 460.736C197.498 461.104 196.638 461.288 195.662 461.288ZM192.938 453.596H198.11C198.07 453.06 197.95 452.6 197.75 452.216C197.55 451.824 197.27 451.524 196.91 451.316C196.55 451.108 196.114 451.004 195.602 451.004C194.898 451.004 194.298 451.22 193.802 451.652C193.306 452.084 193.018 452.732 192.938 453.596ZM207.428 461.288C206.452 461.288 205.72 461.02 205.232 460.484C204.744 459.948 204.5 459.148 204.5 458.084V451.364H202.712V448.736H204.5V445.1L207.476 443.672V448.736H210.26V451.364H207.476V457.544C207.476 457.928 207.552 458.212 207.704 458.396C207.864 458.58 208.112 458.672 208.448 458.672C209.04 458.672 209.688 458.488 210.392 458.12L210.044 460.736C209.676 460.92 209.276 461.056 208.844 461.144C208.412 461.24 207.94 461.288 207.428 461.288ZM212.83 461V448.736H215.83V461H212.83ZM214.33 447.2C213.85 447.2 213.434 447.028 213.082 446.684C212.738 446.332 212.566 445.916 212.566 445.436C212.566 444.956 212.738 444.548 213.082 444.212C213.426 443.868 213.842 443.696 214.33 443.696C214.834 443.696 215.254 443.864 215.59 444.2C215.926 444.536 216.094 444.948 216.094 445.436C216.094 445.924 215.922 446.34 215.578 446.684C215.242 447.028 214.826 447.2 214.33 447.2ZM219.122 461V458.732L225.41 451.4H219.578V448.736H229.262V450.944L222.998 458.324H229.238V461H219.122ZM232.681 461V448.736H235.681V461H232.681ZM234.181 447.2C233.701 447.2 233.285 447.028 232.933 446.684C232.589 446.332 232.417 445.916 232.417 445.436C232.417 444.956 232.589 444.548 232.933 444.212C233.277 443.868 233.693 443.696 234.181 443.696C234.685 443.696 235.105 443.864 235.441 444.2C235.777 444.536 235.945 444.948 235.945 445.436C235.945 445.924 235.773 446.34 235.429 446.684C235.093 447.028 234.677 447.2 234.181 447.2ZM239.454 461V448.736H242.454V449.912C242.846 449.424 243.314 449.06 243.858 448.82C244.41 448.572 245.038 448.448 245.742 448.448C247.11 448.448 248.166 448.872 248.91 449.72C249.654 450.56 250.026 451.772 250.026 453.356V461H247.038V454.28C247.038 453.248 246.858 452.496 246.498 452.024C246.146 451.544 245.594 451.304 244.842 451.304C244.026 451.304 243.422 451.544 243.03 452.024C242.646 452.496 242.454 453.232 242.454 454.232V461H239.454ZM258.106 466.112L256.45 463.604C257.618 463.516 258.522 463.384 259.162 463.208C259.81 463.032 260.262 462.78 260.518 462.452C260.774 462.124 260.902 461.696 260.902 461.168V460.28C260.278 460.952 259.398 461.288 258.262 461.288C257.198 461.288 256.282 461.032 255.514 460.52C254.746 460 254.154 459.26 253.738 458.3C253.33 457.332 253.126 456.184 253.126 454.856C253.126 453.56 253.338 452.432 253.762 451.472C254.194 450.512 254.794 449.768 255.562 449.24C256.338 448.712 257.246 448.448 258.286 448.448C258.83 448.448 259.326 448.532 259.774 448.7C260.23 448.868 260.606 449.112 260.902 449.432V448.736H263.89V459.896C263.89 460.984 263.79 461.904 263.59 462.656C263.39 463.408 263.062 464.024 262.606 464.504C262.158 464.984 261.566 465.348 260.83 465.596C260.094 465.852 259.186 466.024 258.106 466.112ZM258.754 458.42C259.178 458.42 259.574 458.324 259.942 458.132C260.318 457.932 260.638 457.664 260.902 457.328V452.384C260.678 452.072 260.37 451.816 259.978 451.616C259.586 451.408 259.19 451.304 258.79 451.304C257.926 451.304 257.266 451.608 256.81 452.216C256.362 452.816 256.138 453.696 256.138 454.856C256.138 455.608 256.238 456.252 256.438 456.788C256.646 457.316 256.946 457.72 257.338 458C257.73 458.28 258.202 458.42 258.754 458.42ZM275.162 465.656L277.022 460.784L272.426 448.736H275.51L278.186 455.912C278.258 456.08 278.326 456.264 278.39 456.464C278.454 456.664 278.514 456.864 278.57 457.064C278.618 456.864 278.674 456.668 278.738 456.476C278.81 456.276 278.882 456.088 278.954 455.912L281.63 448.736H284.714L278.258 465.656H275.162ZM291.906 461.288C290.178 461.288 288.814 460.716 287.814 459.572C286.814 458.428 286.314 456.864 286.314 454.88C286.314 453.568 286.542 452.432 286.998 451.472C287.454 450.504 288.098 449.76 288.93 449.24C289.77 448.712 290.762 448.448 291.906 448.448C293.042 448.448 294.026 448.708 294.858 449.228C295.69 449.748 296.33 450.488 296.778 451.448C297.226 452.408 297.45 453.548 297.45 454.868C297.45 456.196 297.226 457.34 296.778 458.3C296.338 459.26 295.702 460 294.87 460.52C294.038 461.032 293.05 461.288 291.906 461.288ZM291.906 458.42C292.714 458.42 293.342 458.108 293.79 457.484C294.238 456.86 294.462 455.988 294.462 454.868C294.462 453.748 294.234 452.876 293.778 452.252C293.33 451.62 292.706 451.304 291.906 451.304C291.098 451.304 290.466 451.62 290.01 452.252C289.554 452.884 289.326 453.76 289.326 454.88C289.326 455.984 289.554 456.852 290.01 457.484C290.466 458.108 291.098 458.42 291.906 458.42ZM304.744 461.288C303.376 461.288 302.316 460.864 301.564 460.016C300.812 459.16 300.436 457.952 300.436 456.392V448.736H303.436V455.456C303.436 456.488 303.612 457.24 303.964 457.712C304.316 458.184 304.872 458.42 305.632 458.42C306.448 458.42 307.048 458.184 307.432 457.712C307.824 457.232 308.02 456.496 308.02 455.504V448.736H311.008V461H308.02V459.848C307.644 460.328 307.18 460.688 306.628 460.928C306.084 461.168 305.456 461.288 304.744 461.288ZM314.782 461V448.736H317.782V450.056C318.006 449.584 318.358 449.2 318.838 448.904C319.318 448.6 319.822 448.448 320.35 448.448C321.222 448.448 321.958 448.748 322.558 449.348L322.138 452.096C321.81 451.824 321.49 451.632 321.178 451.52C320.866 451.408 320.522 451.352 320.146 451.352C319.65 451.352 319.226 451.468 318.874 451.7C318.522 451.932 318.25 452.268 318.058 452.708C317.874 453.148 317.782 453.676 317.782 454.292V461H314.782ZM75.896 491V478.736H78.896V491H75.896ZM77.396 477.2C76.916 477.2 76.5 477.028 76.148 476.684C75.804 476.332 75.632 475.916 75.632 475.436C75.632 474.956 75.804 474.548 76.148 474.212C76.492 473.868 76.908 473.696 77.396 473.696C77.9 473.696 78.32 473.864 78.656 474.2C78.992 474.536 79.16 474.948 79.16 475.436C79.16 475.924 78.988 476.34 78.644 476.684C78.308 477.028 77.892 477.2 77.396 477.2ZM82.6689 491V478.736H85.6689V479.912C86.0609 479.424 86.5289 479.06 87.0729 478.82C87.6249 478.572 88.2529 478.448 88.9569 478.448C90.3249 478.448 91.3809 478.872 92.1249 479.72C92.8689 480.56 93.2409 481.772 93.2409 483.356V491H90.2529V484.28C90.2529 483.248 90.0729 482.496 89.7129 482.024C89.3609 481.544 88.8089 481.304 88.0569 481.304C87.2409 481.304 86.6369 481.544 86.2449 482.024C85.8609 482.496 85.6689 483.232 85.6689 484.232V491H82.6689ZM100.096 491.288C99.1204 491.288 98.3884 491.02 97.9004 490.484C97.4124 489.948 97.1684 489.148 97.1684 488.084V481.364H95.3804V478.736H97.1684V475.1L100.144 473.672V478.736H102.928V481.364H100.144V487.544C100.144 487.928 100.22 488.212 100.372 488.396C100.532 488.58 100.78 488.672 101.116 488.672C101.708 488.672 102.356 488.488 103.06 488.12L102.712 490.736C102.344 490.92 101.944 491.056 101.512 491.144C101.08 491.24 100.608 491.288 100.096 491.288ZM110.877 491.288C109.701 491.288 108.685 491.024 107.829 490.496C106.981 489.968 106.325 489.224 105.861 488.264C105.405 487.296 105.177 486.16 105.177 484.856C105.177 483.536 105.409 482.396 105.873 481.436C106.345 480.476 107.005 479.74 107.853 479.228C108.709 478.708 109.717 478.448 110.877 478.448C111.869 478.448 112.769 478.656 113.577 479.072C114.385 479.488 115.029 480.128 115.509 480.992C115.989 481.848 116.229 482.94 116.229 484.268C116.229 484.476 116.221 484.732 116.205 485.036C116.197 485.332 116.177 485.632 116.145 485.936H108.141C108.173 486.496 108.301 486.988 108.525 487.412C108.757 487.828 109.073 488.152 109.473 488.384C109.873 488.616 110.345 488.732 110.889 488.732C111.473 488.732 111.981 488.636 112.413 488.444C112.845 488.244 113.253 487.928 113.637 487.496L115.365 489.284C114.837 489.884 114.201 490.368 113.457 490.736C112.713 491.104 111.853 491.288 110.877 491.288ZM108.153 483.596H113.325C113.285 483.06 113.165 482.6 112.965 482.216C112.765 481.824 112.485 481.524 112.125 481.316C111.765 481.108 111.329 481.004 110.817 481.004C110.113 481.004 109.513 481.22 109.017 481.652C108.521 482.084 108.233 482.732 108.153 483.596ZM119.255 491V478.736H122.255V480.056C122.479 479.584 122.831 479.2 123.311 478.904C123.791 478.6 124.295 478.448 124.823 478.448C125.695 478.448 126.431 478.748 127.031 479.348L126.611 482.096C126.283 481.824 125.963 481.632 125.651 481.52C125.339 481.408 124.995 481.352 124.619 481.352C124.123 481.352 123.699 481.468 123.347 481.7C122.995 481.932 122.723 482.268 122.531 482.708C122.347 483.148 122.255 483.676 122.255 484.292V491H119.255ZM128.935 491V478.736H131.935V479.912C132.327 479.424 132.795 479.06 133.339 478.82C133.891 478.572 134.519 478.448 135.223 478.448C136.591 478.448 137.647 478.872 138.391 479.72C139.135 480.56 139.507 481.772 139.507 483.356V491H136.519V484.28C136.519 483.248 136.339 482.496 135.979 482.024C135.627 481.544 135.075 481.304 134.323 481.304C133.507 481.304 132.903 481.544 132.511 482.024C132.127 482.496 131.935 483.232 131.935 484.232V491H128.935ZM146.785 491.288C145.449 491.288 144.389 490.928 143.605 490.208C142.829 489.48 142.441 488.496 142.441 487.256C142.441 486.456 142.641 485.756 143.041 485.156C143.449 484.548 144.013 484.08 144.733 483.752C145.461 483.416 146.309 483.248 147.277 483.248C147.813 483.248 148.329 483.3 148.825 483.404C149.329 483.5 149.769 483.64 150.145 483.824V483.056C150.145 482.368 149.949 481.852 149.557 481.508C149.173 481.156 148.605 480.98 147.853 480.98C147.253 480.98 146.637 481.088 146.005 481.304C145.373 481.52 144.733 481.84 144.085 482.264L143.185 479.9C143.889 479.436 144.673 479.08 145.537 478.832C146.401 478.576 147.273 478.448 148.153 478.448C149.801 478.448 151.033 478.84 151.849 479.624C152.665 480.4 153.073 481.56 153.073 483.104V491H150.145V490.016C149.729 490.432 149.233 490.748 148.657 490.964C148.089 491.18 147.465 491.288 146.785 491.288ZM147.481 488.756C147.977 488.756 148.453 488.66 148.909 488.468C149.373 488.268 149.785 487.988 150.145 487.628V486.176C149.801 486.008 149.417 485.88 148.993 485.792C148.577 485.696 148.161 485.648 147.745 485.648C147.001 485.648 146.413 485.792 145.981 486.08C145.557 486.36 145.345 486.752 145.345 487.256C145.345 487.728 145.533 488.096 145.909 488.36C146.285 488.624 146.809 488.756 147.481 488.756ZM159.745 491.288C158.769 491.288 158.037 491.02 157.549 490.484C157.061 489.948 156.817 489.148 156.817 488.084V481.364H155.029V478.736H156.817V475.1L159.793 473.672V478.736H162.577V481.364H159.793V487.544C159.793 487.928 159.869 488.212 160.021 488.396C160.181 488.58 160.429 488.672 160.765 488.672C161.357 488.672 162.005 488.488 162.709 488.12L162.361 490.736C161.993 490.92 161.593 491.056 161.161 491.144C160.729 491.24 160.257 491.288 159.745 491.288ZM165.146 491V478.736H168.146V491H165.146ZM166.646 477.2C166.166 477.2 165.75 477.028 165.398 476.684C165.054 476.332 164.882 475.916 164.882 475.436C164.882 474.956 165.054 474.548 165.398 474.212C165.742 473.868 166.158 473.696 166.646 473.696C167.15 473.696 167.57 473.864 167.906 474.2C168.242 474.536 168.41 474.948 168.41 475.436C168.41 475.924 168.238 476.34 167.894 476.684C167.558 477.028 167.142 477.2 166.646 477.2ZM176.863 491.288C175.135 491.288 173.771 490.716 172.771 489.572C171.771 488.428 171.271 486.864 171.271 484.88C171.271 483.568 171.499 482.432 171.955 481.472C172.411 480.504 173.055 479.76 173.887 479.24C174.727 478.712 175.719 478.448 176.863 478.448C177.999 478.448 178.983 478.708 179.815 479.228C180.647 479.748 181.287 480.488 181.735 481.448C182.183 482.408 182.407 483.548 182.407 484.868C182.407 486.196 182.183 487.34 181.735 488.3C181.295 489.26 180.659 490 179.827 490.52C178.995 491.032 178.007 491.288 176.863 491.288ZM176.863 488.42C177.671 488.42 178.299 488.108 178.747 487.484C179.195 486.86 179.419 485.988 179.419 484.868C179.419 483.748 179.191 482.876 178.735 482.252C178.287 481.62 177.663 481.304 176.863 481.304C176.055 481.304 175.423 481.62 174.967 482.252C174.511 482.884 174.283 483.76 174.283 484.88C174.283 485.984 174.511 486.852 174.967 487.484C175.423 488.108 176.055 488.42 176.863 488.42ZM185.278 491V478.736H188.278V479.912C188.67 479.424 189.138 479.06 189.682 478.82C190.234 478.572 190.862 478.448 191.566 478.448C192.934 478.448 193.99 478.872 194.734 479.72C195.478 480.56 195.85 481.772 195.85 483.356V491H192.862V484.28C192.862 483.248 192.682 482.496 192.322 482.024C191.97 481.544 191.418 481.304 190.666 481.304C189.85 481.304 189.246 481.544 188.854 482.024C188.47 482.496 188.278 483.232 188.278 484.232V491H185.278ZM203.129 491.288C201.793 491.288 200.733 490.928 199.949 490.208C199.173 489.48 198.785 488.496 198.785 487.256C198.785 486.456 198.985 485.756 199.385 485.156C199.793 484.548 200.357 484.08 201.077 483.752C201.805 483.416 202.653 483.248 203.621 483.248C204.157 483.248 204.673 483.3 205.169 483.404C205.673 483.5 206.113 483.64 206.489 483.824V483.056C206.489 482.368 206.293 481.852 205.901 481.508C205.517 481.156 204.949 480.98 204.197 480.98C203.597 480.98 202.981 481.088 202.349 481.304C201.717 481.52 201.077 481.84 200.429 482.264L199.529 479.9C200.233 479.436 201.017 479.08 201.881 478.832C202.745 478.576 203.617 478.448 204.497 478.448C206.145 478.448 207.377 478.84 208.193 479.624C209.009 480.4 209.417 481.56 209.417 483.104V491H206.489V490.016C206.073 490.432 205.577 490.748 205.001 490.964C204.433 491.18 203.809 491.288 203.129 491.288ZM203.825 488.756C204.321 488.756 204.797 488.66 205.253 488.468C205.717 488.268 206.129 487.988 206.489 487.628V486.176C206.145 486.008 205.761 485.88 205.337 485.792C204.921 485.696 204.505 485.648 204.089 485.648C203.345 485.648 202.757 485.792 202.325 486.08C201.901 486.36 201.689 486.752 201.689 487.256C201.689 487.728 201.877 488.096 202.253 488.36C202.629 488.624 203.153 488.756 203.825 488.756ZM212.984 491V475.028L215.984 473.672V491H212.984ZM229.473 491.288C228.137 491.288 227.077 490.928 226.293 490.208C225.517 489.48 225.129 488.496 225.129 487.256C225.129 486.456 225.329 485.756 225.729 485.156C226.137 484.548 226.701 484.08 227.421 483.752C228.149 483.416 228.997 483.248 229.965 483.248C230.501 483.248 231.017 483.3 231.513 483.404C232.017 483.5 232.457 483.64 232.833 483.824V483.056C232.833 482.368 232.637 481.852 232.245 481.508C231.861 481.156 231.293 480.98 230.541 480.98C229.941 480.98 229.325 481.088 228.693 481.304C228.061 481.52 227.421 481.84 226.773 482.264L225.873 479.9C226.577 479.436 227.361 479.08 228.225 478.832C229.089 478.576 229.961 478.448 230.841 478.448C232.489 478.448 233.721 478.84 234.537 479.624C235.353 480.4 235.761 481.56 235.761 483.104V491H232.833V490.016C232.417 490.432 231.921 490.748 231.345 490.964C230.777 491.18 230.153 491.288 229.473 491.288ZM230.169 488.756C230.665 488.756 231.141 488.66 231.597 488.468C232.061 488.268 232.473 487.988 232.833 487.628V486.176C232.489 486.008 232.105 485.88 231.681 485.792C231.265 485.696 230.849 485.648 230.433 485.648C229.689 485.648 229.101 485.792 228.669 486.08C228.245 486.36 228.033 486.752 228.033 487.256C228.033 487.728 228.221 488.096 228.597 488.36C228.973 488.624 229.497 488.756 230.169 488.756ZM243.396 491.288C242.028 491.288 240.968 490.864 240.216 490.016C239.464 489.16 239.088 487.952 239.088 486.392V478.736H242.088V485.456C242.088 486.488 242.264 487.24 242.616 487.712C242.968 488.184 243.524 488.42 244.284 488.42C245.1 488.42 245.7 488.184 246.084 487.712C246.476 487.232 246.672 486.496 246.672 485.504V478.736H249.66V491H246.672V489.848C246.296 490.328 245.832 490.688 245.28 490.928C244.736 491.168 244.108 491.288 243.396 491.288ZM257.581 491.288C256.005 491.288 254.769 490.72 253.873 489.584C252.977 488.448 252.529 486.872 252.529 484.856C252.529 483.576 252.741 482.456 253.165 481.496C253.589 480.536 254.181 479.788 254.941 479.252C255.709 478.716 256.601 478.448 257.617 478.448C258.705 478.448 259.597 478.848 260.293 479.648V475.028L263.281 473.672V491H260.293V489.992C259.701 490.856 258.797 491.288 257.581 491.288ZM258.073 488.42C258.585 488.42 259.021 488.332 259.381 488.156C259.741 487.972 260.045 487.7 260.293 487.34V482.384C260.045 482.048 259.721 481.784 259.321 481.592C258.929 481.4 258.513 481.304 258.073 481.304C257.265 481.304 256.641 481.612 256.201 482.228C255.761 482.836 255.541 483.712 255.541 484.856C255.541 485.608 255.641 486.252 255.841 486.788C256.041 487.316 256.329 487.72 256.705 488C257.081 488.28 257.537 488.42 258.073 488.42ZM267.052 491V478.736H270.052V491H267.052ZM268.552 477.2C268.072 477.2 267.656 477.028 267.304 476.684C266.96 476.332 266.788 475.916 266.788 475.436C266.788 474.956 266.96 474.548 267.304 474.212C267.648 473.868 268.064 473.696 268.552 473.696C269.056 473.696 269.476 473.864 269.812 474.2C270.148 474.536 270.316 474.948 270.316 475.436C270.316 475.924 270.144 476.34 269.8 476.684C269.464 477.028 269.048 477.2 268.552 477.2ZM278.877 491.288C277.701 491.288 276.685 491.024 275.829 490.496C274.981 489.968 274.325 489.224 273.861 488.264C273.405 487.296 273.177 486.16 273.177 484.856C273.177 483.536 273.409 482.396 273.873 481.436C274.345 480.476 275.005 479.74 275.853 479.228C276.709 478.708 277.717 478.448 278.877 478.448C279.869 478.448 280.769 478.656 281.577 479.072C282.385 479.488 283.029 480.128 283.509 480.992C283.989 481.848 284.229 482.94 284.229 484.268C284.229 484.476 284.221 484.732 284.205 485.036C284.197 485.332 284.177 485.632 284.145 485.936H276.141C276.173 486.496 276.301 486.988 276.525 487.412C276.757 487.828 277.073 488.152 277.473 488.384C277.873 488.616 278.345 488.732 278.889 488.732C279.473 488.732 279.981 488.636 280.413 488.444C280.845 488.244 281.253 487.928 281.637 487.496L283.365 489.284C282.837 489.884 282.201 490.368 281.457 490.736C280.713 491.104 279.853 491.288 278.877 491.288ZM276.153 483.596H281.325C281.285 483.06 281.165 482.6 280.965 482.216C280.765 481.824 280.485 481.524 280.125 481.316C279.765 481.108 279.329 481.004 278.817 481.004C278.113 481.004 277.513 481.22 277.017 481.652C276.521 482.084 276.233 482.732 276.153 483.596ZM287.255 491V478.736H290.255V479.912C290.647 479.424 291.115 479.06 291.659 478.82C292.211 478.572 292.839 478.448 293.543 478.448C294.911 478.448 295.967 478.872 296.711 479.72C297.455 480.56 297.827 481.772 297.827 483.356V491H294.839V484.28C294.839 483.248 294.659 482.496 294.299 482.024C293.947 481.544 293.395 481.304 292.643 481.304C291.827 481.304 291.223 481.544 290.831 482.024C290.447 482.496 290.255 483.232 290.255 484.232V491H287.255ZM306.435 491.288C305.307 491.288 304.331 491.028 303.507 490.508C302.683 489.988 302.047 489.252 301.599 488.3C301.151 487.34 300.927 486.2 300.927 484.88C300.927 483.56 301.151 482.42 301.599 481.46C302.055 480.5 302.699 479.76 303.531 479.24C304.363 478.712 305.343 478.448 306.471 478.448C307.743 478.448 308.799 478.744 309.639 479.336C310.487 479.92 311.099 480.788 311.475 481.94L308.631 482.9C308.439 482.388 308.159 481.996 307.791 481.724C307.423 481.444 306.999 481.304 306.519 481.304C305.743 481.304 305.123 481.624 304.659 482.264C304.203 482.904 303.975 483.776 303.975 484.88C303.975 485.968 304.199 486.832 304.647 487.472C305.095 488.112 305.699 488.432 306.459 488.432C306.995 488.432 307.451 488.28 307.827 487.976C308.211 487.672 308.495 487.228 308.679 486.644L311.511 487.496C311.151 488.752 310.539 489.7 309.675 490.34C308.819 490.972 307.739 491.288 306.435 491.288ZM319.565 491.288C318.389 491.288 317.373 491.024 316.517 490.496C315.669 489.968 315.013 489.224 314.549 488.264C314.093 487.296 313.865 486.16 313.865 484.856C313.865 483.536 314.097 482.396 314.561 481.436C315.033 480.476 315.693 479.74 316.541 479.228C317.397 478.708 318.405 478.448 319.565 478.448C320.557 478.448 321.457 478.656 322.265 479.072C323.073 479.488 323.717 480.128 324.197 480.992C324.677 481.848 324.917 482.94 324.917 484.268C324.917 484.476 324.909 484.732 324.893 485.036C324.885 485.332 324.865 485.632 324.833 485.936H316.829C316.861 486.496 316.989 486.988 317.213 487.412C317.445 487.828 317.761 488.152 318.161 488.384C318.561 488.616 319.033 488.732 319.577 488.732C320.161 488.732 320.669 488.636 321.101 488.444C321.533 488.244 321.941 487.928 322.325 487.496L324.053 489.284C323.525 489.884 322.889 490.368 322.145 490.736C321.401 491.104 320.541 491.288 319.565 491.288ZM316.841 483.596H322.013C321.973 483.06 321.853 482.6 321.653 482.216C321.453 481.824 321.173 481.524 320.813 481.316C320.453 481.108 320.017 481.004 319.505 481.004C318.801 481.004 318.201 481.22 317.705 481.652C317.209 482.084 316.921 482.732 316.841 483.596Z" fill="white"/>
</svg>
