<svg width="1240" height="120" viewBox="0 0 1240 120" fill="none" xmlns="http://www.w3.org/2000/svg">
<path d="M28.2198 50.788C26.8118 50.788 25.6078 50.528 24.6078 50.008C23.6158 49.48 22.8558 48.716 22.3278 47.716C21.8078 46.716 21.5478 45.508 21.5478 44.092V33.7H24.6558V44.092C24.6558 45.364 24.9398 46.3 25.5078 46.9C26.0758 47.5 26.9798 47.8 28.2198 47.8C29.0038 47.8 29.6598 47.676 30.1878 47.428C30.7158 47.18 31.1118 46.784 31.3758 46.24C31.6398 45.688 31.7718 44.972 31.7718 44.092V33.7H34.8918V44.092C34.8918 45.276 34.7158 46.292 34.3638 47.14C34.0198 47.988 33.5398 48.684 32.9238 49.228C32.3158 49.764 31.6078 50.16 30.7998 50.416C29.9918 50.664 29.1318 50.788 28.2198 50.788ZM38.6337 55.372V38.236H41.6337V39.136C42.3057 38.344 43.2057 37.948 44.3337 37.948C45.3817 37.948 46.2857 38.208 47.0457 38.728C47.8057 39.24 48.3897 39.976 48.7977 40.936C49.2057 41.896 49.4097 43.04 49.4097 44.368C49.4097 45.656 49.1977 46.784 48.7737 47.752C48.3497 48.712 47.7537 49.46 46.9857 49.996C46.2177 50.524 45.3217 50.788 44.2977 50.788C43.7377 50.788 43.2337 50.688 42.7857 50.488C42.3377 50.28 41.9537 49.976 41.6337 49.576V54.016L38.6337 55.372ZM43.8537 47.92C44.6697 47.92 45.2977 47.612 45.7377 46.996C46.1777 46.372 46.3977 45.496 46.3977 44.368C46.3977 43.24 46.1737 42.364 45.7257 41.74C45.2777 41.116 44.6537 40.804 43.8537 40.804C43.3657 40.804 42.9377 40.892 42.5697 41.068C42.2097 41.244 41.8977 41.512 41.6337 41.872V46.828C41.8497 47.172 42.1537 47.44 42.5457 47.632C42.9457 47.824 43.3817 47.92 43.8537 47.92ZM52.6287 50.5V34.528L55.6287 33.172V50.5H52.6287ZM64.4371 50.788C62.7091 50.788 61.3451 50.216 60.3451 49.072C59.3451 47.928 58.8451 46.364 58.8451 44.38C58.8451 43.068 59.0731 41.932 59.5291 40.972C59.9851 40.004 60.6291 39.26 61.4611 38.74C62.3011 38.212 63.2931 37.948 64.4371 37.948C65.5731 37.948 66.5571 38.208 67.3891 38.728C68.2211 39.248 68.8611 39.988 69.3091 40.948C69.7571 41.908 69.9811 43.048 69.9811 44.368C69.9811 45.696 69.7571 46.84 69.3091 47.8C68.8691 48.76 68.2331 49.5 67.4011 50.02C66.5691 50.532 65.5811 50.788 64.4371 50.788ZM64.4371 47.92C65.2451 47.92 65.8731 47.608 66.3211 46.984C66.7691 46.36 66.9931 45.488 66.9931 44.368C66.9931 43.248 66.7651 42.376 66.3091 41.752C65.8611 41.12 65.2371 40.804 64.4371 40.804C63.6291 40.804 62.9971 41.12 62.5411 41.752C62.0851 42.384 61.8571 43.26 61.8571 44.38C61.8571 45.484 62.0851 46.352 62.5411 46.984C62.9971 47.608 63.6291 47.92 64.4371 47.92ZM76.8046 50.788C75.4686 50.788 74.4086 50.428 73.6246 49.708C72.8486 48.98 72.4606 47.996 72.4606 46.756C72.4606 45.956 72.6606 45.256 73.0606 44.656C73.4686 44.048 74.0326 43.58 74.7526 43.252C75.4806 42.916 76.3286 42.748 77.2966 42.748C77.8326 42.748 78.3486 42.8 78.8446 42.904C79.3486 43 79.7886 43.14 80.1646 43.324V42.556C80.1646 41.868 79.9686 41.352 79.5766 41.008C79.1926 40.656 78.6246 40.48 77.8726 40.48C77.2726 40.48 76.6566 40.588 76.0246 40.804C75.3926 41.02 74.7526 41.34 74.1046 41.764L73.2046 39.4C73.9086 38.936 74.6926 38.58 75.5566 38.332C76.4206 38.076 77.2926 37.948 78.1726 37.948C79.8206 37.948 81.0526 38.34 81.8686 39.124C82.6846 39.9 83.0926 41.06 83.0926 42.604V50.5H80.1646V49.516C79.7486 49.932 79.2526 50.248 78.6766 50.464C78.1086 50.68 77.4846 50.788 76.8046 50.788ZM77.5006 48.256C77.9966 48.256 78.4726 48.16 78.9286 47.968C79.3926 47.768 79.8046 47.488 80.1646 47.128V45.676C79.8206 45.508 79.4366 45.38 79.0126 45.292C78.5966 45.196 78.1806 45.148 77.7646 45.148C77.0206 45.148 76.4326 45.292 76.0006 45.58C75.5766 45.86 75.3646 46.252 75.3646 46.756C75.3646 47.228 75.5526 47.596 75.9286 47.86C76.3046 48.124 76.8286 48.256 77.5006 48.256ZM91.0612 50.788C89.4852 50.788 88.2492 50.22 87.3532 49.084C86.4572 47.948 86.0092 46.372 86.0092 44.356C86.0092 43.076 86.2212 41.956 86.6452 40.996C87.0692 40.036 87.6612 39.288 88.4212 38.752C89.1892 38.216 90.0812 37.948 91.0972 37.948C92.1852 37.948 93.0772 38.348 93.7732 39.148V34.528L96.7612 33.172V50.5H93.7732V49.492C93.1812 50.356 92.2772 50.788 91.0612 50.788ZM91.5532 47.92C92.0652 47.92 92.5012 47.832 92.8612 47.656C93.2212 47.472 93.5252 47.2 93.7732 46.84V41.884C93.5252 41.548 93.2012 41.284 92.8012 41.092C92.4092 40.9 91.9932 40.804 91.5532 40.804C90.7452 40.804 90.1212 41.112 89.6812 41.728C89.2412 42.336 89.0212 43.212 89.0212 44.356C89.0212 45.108 89.1212 45.752 89.3212 46.288C89.5212 46.816 89.8092 47.22 90.1852 47.5C90.5612 47.78 91.0172 47.92 91.5532 47.92ZM110.133 50.788C108.797 50.788 107.737 50.428 106.953 49.708C106.177 48.98 105.789 47.996 105.789 46.756C105.789 45.956 105.989 45.256 106.389 44.656C106.797 44.048 107.361 43.58 108.081 43.252C108.809 42.916 109.657 42.748 110.625 42.748C111.161 42.748 111.677 42.8 112.173 42.904C112.677 43 113.117 43.14 113.493 43.324V42.556C113.493 41.868 113.297 41.352 112.905 41.008C112.521 40.656 111.953 40.48 111.201 40.48C110.601 40.48 109.985 40.588 109.353 40.804C108.721 41.02 108.081 41.34 107.433 41.764L106.533 39.4C107.237 38.936 108.021 38.58 108.885 38.332C109.749 38.076 110.621 37.948 111.501 37.948C113.149 37.948 114.381 38.34 115.197 39.124C116.013 39.9 116.421 41.06 116.421 42.604V50.5H113.493V49.516C113.077 49.932 112.581 50.248 112.005 50.464C111.437 50.68 110.813 50.788 110.133 50.788ZM110.829 48.256C111.325 48.256 111.801 48.16 112.257 47.968C112.721 47.768 113.133 47.488 113.493 47.128V45.676C113.149 45.508 112.765 45.38 112.341 45.292C111.925 45.196 111.509 45.148 111.093 45.148C110.349 45.148 109.761 45.292 109.329 45.58C108.905 45.86 108.693 46.252 108.693 46.756C108.693 47.228 108.881 47.596 109.257 47.86C109.633 48.124 110.157 48.256 110.829 48.256ZM120.009 50.5V38.236H123.009V39.412C123.401 38.924 123.869 38.56 124.413 38.32C124.965 38.072 125.593 37.948 126.297 37.948C127.665 37.948 128.721 38.372 129.465 39.22C130.209 40.06 130.581 41.272 130.581 42.856V50.5H127.593V43.78C127.593 42.748 127.413 41.996 127.053 41.524C126.701 41.044 126.149 40.804 125.397 40.804C124.581 40.804 123.977 41.044 123.585 41.524C123.201 41.996 123.009 42.732 123.009 43.732V50.5H120.009ZM138.733 50.788C137.157 50.788 135.921 50.22 135.025 49.084C134.129 47.948 133.681 46.372 133.681 44.356C133.681 43.076 133.893 41.956 134.317 40.996C134.741 40.036 135.333 39.288 136.093 38.752C136.861 38.216 137.753 37.948 138.769 37.948C139.857 37.948 140.749 38.348 141.445 39.148V34.528L144.433 33.172V50.5H141.445V49.492C140.853 50.356 139.949 50.788 138.733 50.788ZM139.225 47.92C139.737 47.92 140.173 47.832 140.533 47.656C140.893 47.472 141.197 47.2 141.445 46.84V41.884C141.197 41.548 140.873 41.284 140.473 41.092C140.081 40.9 139.665 40.804 139.225 40.804C138.417 40.804 137.793 41.112 137.353 41.728C136.913 42.336 136.693 43.212 136.693 44.356C136.693 45.108 136.793 45.752 136.993 46.288C137.193 46.816 137.481 47.22 137.857 47.5C138.233 47.78 138.689 47.92 139.225 47.92ZM158.189 50.788C157.229 50.788 156.309 50.584 155.429 50.176C154.557 49.768 153.865 49.22 153.353 48.532L155.321 46.876C155.729 47.308 156.201 47.652 156.737 47.908C157.273 48.156 157.785 48.28 158.273 48.28C158.881 48.28 159.349 48.18 159.677 47.98C160.005 47.772 160.169 47.484 160.169 47.116C160.169 46.876 160.089 46.664 159.929 46.48C159.777 46.288 159.505 46.096 159.113 45.904C158.721 45.704 158.169 45.476 157.457 45.22C156.081 44.716 155.105 44.172 154.529 43.588C153.953 42.996 153.665 42.248 153.665 41.344C153.665 40.336 154.073 39.52 154.889 38.896C155.705 38.264 156.769 37.948 158.081 37.948C158.977 37.948 159.801 38.116 160.553 38.452C161.313 38.788 161.965 39.28 162.509 39.928L160.553 41.548C159.833 40.82 158.993 40.456 158.033 40.456C157.545 40.456 157.153 40.548 156.857 40.732C156.561 40.908 156.413 41.148 156.413 41.452C156.413 41.748 156.585 42.012 156.929 42.244C157.281 42.476 157.933 42.748 158.885 43.06C159.829 43.356 160.593 43.692 161.177 44.068C161.769 44.444 162.201 44.88 162.473 45.376C162.753 45.872 162.893 46.444 162.893 47.092C162.893 48.244 162.473 49.148 161.633 49.804C160.801 50.46 159.653 50.788 158.189 50.788ZM170.834 50.788C169.658 50.788 168.642 50.524 167.786 49.996C166.938 49.468 166.282 48.724 165.818 47.764C165.362 46.796 165.134 45.66 165.134 44.356C165.134 43.036 165.366 41.896 165.83 40.936C166.302 39.976 166.962 39.24 167.81 38.728C168.666 38.208 169.674 37.948 170.834 37.948C171.826 37.948 172.726 38.156 173.534 38.572C174.342 38.988 174.986 39.628 175.466 40.492C175.946 41.348 176.186 42.44 176.186 43.768C176.186 43.976 176.178 44.232 176.162 44.536C176.154 44.832 176.134 45.132 176.102 45.436H168.098C168.13 45.996 168.258 46.488 168.482 46.912C168.714 47.328 169.03 47.652 169.43 47.884C169.83 48.116 170.302 48.232 170.846 48.232C171.43 48.232 171.938 48.136 172.37 47.944C172.802 47.744 173.21 47.428 173.594 46.996L175.322 48.784C174.794 49.384 174.158 49.868 173.414 50.236C172.67 50.604 171.81 50.788 170.834 50.788ZM168.11 43.096H173.282C173.242 42.56 173.122 42.1 172.922 41.716C172.722 41.324 172.442 41.024 172.082 40.816C171.722 40.608 171.286 40.504 170.774 40.504C170.07 40.504 169.47 40.72 168.974 41.152C168.478 41.584 168.19 42.232 168.11 43.096ZM179.262 50.5V34.528L182.262 33.172V50.5H179.262ZM191.178 50.788C190.002 50.788 188.986 50.524 188.13 49.996C187.282 49.468 186.626 48.724 186.162 47.764C185.706 46.796 185.478 45.66 185.478 44.356C185.478 43.036 185.71 41.896 186.174 40.936C186.646 39.976 187.306 39.24 188.154 38.728C189.01 38.208 190.018 37.948 191.178 37.948C192.17 37.948 193.07 38.156 193.878 38.572C194.686 38.988 195.33 39.628 195.81 40.492C196.29 41.348 196.53 42.44 196.53 43.768C196.53 43.976 196.522 44.232 196.506 44.536C196.498 44.832 196.478 45.132 196.446 45.436H188.442C188.474 45.996 188.602 46.488 188.826 46.912C189.058 47.328 189.374 47.652 189.774 47.884C190.174 48.116 190.646 48.232 191.19 48.232C191.774 48.232 192.282 48.136 192.714 47.944C193.146 47.744 193.554 47.428 193.938 46.996L195.666 48.784C195.138 49.384 194.502 49.868 193.758 50.236C193.014 50.604 192.154 50.788 191.178 50.788ZM188.454 43.096H193.626C193.586 42.56 193.466 42.1 193.266 41.716C193.066 41.324 192.786 41.024 192.426 40.816C192.066 40.608 191.63 40.504 191.118 40.504C190.414 40.504 189.814 40.72 189.318 41.152C188.822 41.584 188.534 42.232 188.454 43.096ZM204.767 50.788C203.639 50.788 202.663 50.528 201.839 50.008C201.015 49.488 200.379 48.752 199.931 47.8C199.483 46.84 199.259 45.7 199.259 44.38C199.259 43.06 199.483 41.92 199.931 40.96C200.387 40 201.031 39.26 201.863 38.74C202.695 38.212 203.675 37.948 204.803 37.948C206.075 37.948 207.131 38.244 207.971 38.836C208.819 39.42 209.431 40.288 209.807 41.44L206.963 42.4C206.771 41.888 206.491 41.496 206.123 41.224C205.755 40.944 205.331 40.804 204.851 40.804C204.075 40.804 203.455 41.124 202.991 41.764C202.535 42.404 202.307 43.276 202.307 44.38C202.307 45.468 202.531 46.332 202.979 46.972C203.427 47.612 204.031 47.932 204.791 47.932C205.327 47.932 205.783 47.78 206.159 47.476C206.543 47.172 206.827 46.728 207.011 46.144L209.843 46.996C209.483 48.252 208.871 49.2 208.007 49.84C207.151 50.472 206.071 50.788 204.767 50.788ZM216.35 50.788C215.374 50.788 214.642 50.52 214.154 49.984C213.666 49.448 213.422 48.648 213.422 47.584V40.864H211.634V38.236H213.422V34.6L216.398 33.172V38.236H219.182V40.864H216.398V47.044C216.398 47.428 216.474 47.712 216.626 47.896C216.786 48.08 217.034 48.172 217.37 48.172C217.962 48.172 218.61 47.988 219.314 47.62L218.966 50.236C218.598 50.42 218.198 50.556 217.766 50.644C217.334 50.74 216.862 50.788 216.35 50.788ZM18.0564 85.156L19.9164 80.284L15.3204 68.236H18.4044L21.0804 75.412C21.1524 75.58 21.2204 75.764 21.2844 75.964C21.3484 76.164 21.4084 76.364 21.4644 76.564C21.5124 76.364 21.5684 76.168 21.6324 75.976C21.7044 75.776 21.7764 75.588 21.8484 75.412L24.5244 68.236H27.6084L21.1524 85.156H18.0564ZM34.8004 80.788C33.0724 80.788 31.7084 80.216 30.7084 79.072C29.7084 77.928 29.2084 76.364 29.2084 74.38C29.2084 73.068 29.4364 71.932 29.8924 70.972C30.3484 70.004 30.9924 69.26 31.8244 68.74C32.6644 68.212 33.6564 67.948 34.8004 67.948C35.9364 67.948 36.9204 68.208 37.7524 68.728C38.5844 69.248 39.2244 69.988 39.6724 70.948C40.1204 71.908 40.3444 73.048 40.3444 74.368C40.3444 75.696 40.1204 76.84 39.6724 77.8C39.2324 78.76 38.5964 79.5 37.7644 80.02C36.9324 80.532 35.9444 80.788 34.8004 80.788ZM34.8004 77.92C35.6084 77.92 36.2364 77.608 36.6844 76.984C37.1324 76.36 37.3564 75.488 37.3564 74.368C37.3564 73.248 37.1284 72.376 36.6724 71.752C36.2244 71.12 35.6004 70.804 34.8004 70.804C33.9924 70.804 33.3604 71.12 32.9044 71.752C32.4484 72.384 32.2204 73.26 32.2204 74.38C32.2204 75.484 32.4484 76.352 32.9044 76.984C33.3604 77.608 33.9924 77.92 34.8004 77.92ZM47.6381 80.788C46.2701 80.788 45.2101 80.364 44.4581 79.516C43.7061 78.66 43.3301 77.452 43.3301 75.892V68.236H46.3301V74.956C46.3301 75.988 46.5061 76.74 46.8581 77.212C47.2101 77.684 47.7661 77.92 48.5261 77.92C49.3421 77.92 49.9421 77.684 50.3261 77.212C50.7181 76.732 50.9141 75.996 50.9141 75.004V68.236H53.9021V80.5H50.9141V79.348C50.5381 79.828 50.0741 80.188 49.5221 80.428C48.9781 80.668 48.3501 80.788 47.6381 80.788ZM57.6767 80.5V68.236H60.6767V69.556C60.9007 69.084 61.2527 68.7 61.7327 68.404C62.2127 68.1 62.7167 67.948 63.2447 67.948C64.1167 67.948 64.8527 68.248 65.4527 68.848L65.0327 71.596C64.7047 71.324 64.3847 71.132 64.0727 71.02C63.7607 70.908 63.4167 70.852 63.0407 70.852C62.5447 70.852 62.1207 70.968 61.7687 71.2C61.4167 71.432 61.1447 71.768 60.9527 72.208C60.7687 72.648 60.6767 73.176 60.6767 73.792V80.5H57.6767ZM76.9491 80.5L72.4611 68.236H75.5691L78.1371 75.532C78.2091 75.708 78.2731 75.896 78.3291 76.096C78.3851 76.296 78.4411 76.496 78.4971 76.696C78.5531 76.496 78.6091 76.296 78.6651 76.096C78.7291 75.896 78.7891 75.708 78.8451 75.532L81.4011 68.236H84.4971L80.0091 80.5H76.9491ZM87.0679 80.5V68.236H90.0679V80.5H87.0679ZM88.5679 66.7C88.0879 66.7 87.6719 66.528 87.3199 66.184C86.9759 65.832 86.8039 65.416 86.8039 64.936C86.8039 64.456 86.9759 64.048 87.3199 63.712C87.6639 63.368 88.0799 63.196 88.5679 63.196C89.0719 63.196 89.4919 63.364 89.8279 63.7C90.1639 64.036 90.3319 64.448 90.3319 64.936C90.3319 65.424 90.1599 65.84 89.8159 66.184C89.4799 66.528 89.0639 66.7 88.5679 66.7ZM98.2448 80.788C96.6688 80.788 95.4328 80.22 94.5368 79.084C93.6408 77.948 93.1928 76.372 93.1928 74.356C93.1928 73.076 93.4048 71.956 93.8288 70.996C94.2528 70.036 94.8448 69.288 95.6048 68.752C96.3728 68.216 97.2648 67.948 98.2808 67.948C99.3688 67.948 100.261 68.348 100.957 69.148V64.528L103.945 63.172V80.5H100.957V79.492C100.365 80.356 99.4608 80.788 98.2448 80.788ZM98.7368 77.92C99.2488 77.92 99.6848 77.832 100.045 77.656C100.405 77.472 100.709 77.2 100.957 76.84V71.884C100.709 71.548 100.385 71.284 99.9848 71.092C99.5928 70.9 99.1768 70.804 98.7368 70.804C97.9288 70.804 97.3048 71.112 96.8648 71.728C96.4248 72.336 96.2048 73.212 96.2048 74.356C96.2048 75.108 96.3048 75.752 96.5048 76.288C96.7048 76.816 96.9928 77.22 97.3688 77.5C97.7448 77.78 98.2008 77.92 98.7368 77.92ZM112.744 80.788C111.568 80.788 110.552 80.524 109.696 79.996C108.848 79.468 108.192 78.724 107.728 77.764C107.272 76.796 107.044 75.66 107.044 74.356C107.044 73.036 107.276 71.896 107.74 70.936C108.212 69.976 108.872 69.24 109.72 68.728C110.576 68.208 111.584 67.948 112.744 67.948C113.736 67.948 114.636 68.156 115.444 68.572C116.252 68.988 116.896 69.628 117.376 70.492C117.856 71.348 118.096 72.44 118.096 73.768C118.096 73.976 118.088 74.232 118.072 74.536C118.064 74.832 118.044 75.132 118.012 75.436H110.008C110.04 75.996 110.168 76.488 110.392 76.912C110.624 77.328 110.94 77.652 111.34 77.884C111.74 78.116 112.212 78.232 112.756 78.232C113.34 78.232 113.848 78.136 114.28 77.944C114.712 77.744 115.12 77.428 115.504 76.996L117.232 78.784C116.704 79.384 116.068 79.868 115.324 80.236C114.58 80.604 113.72 80.788 112.744 80.788ZM110.02 73.096H115.192C115.152 72.56 115.032 72.1 114.832 71.716C114.632 71.324 114.352 71.024 113.992 70.816C113.632 70.608 113.196 70.504 112.684 70.504C111.98 70.504 111.38 70.72 110.884 71.152C110.388 71.584 110.1 72.232 110.02 73.096ZM126.418 80.788C124.69 80.788 123.326 80.216 122.326 79.072C121.326 77.928 120.826 76.364 120.826 74.38C120.826 73.068 121.054 71.932 121.51 70.972C121.966 70.004 122.61 69.26 123.442 68.74C124.282 68.212 125.274 67.948 126.418 67.948C127.554 67.948 128.538 68.208 129.37 68.728C130.202 69.248 130.842 69.988 131.29 70.948C131.738 71.908 131.962 73.048 131.962 74.368C131.962 75.696 131.738 76.84 131.29 77.8C130.85 78.76 130.214 79.5 129.382 80.02C128.55 80.532 127.562 80.788 126.418 80.788ZM126.418 77.92C127.226 77.92 127.854 77.608 128.302 76.984C128.75 76.36 128.974 75.488 128.974 74.368C128.974 73.248 128.746 72.376 128.29 71.752C127.842 71.12 127.218 70.804 126.418 70.804C125.61 70.804 124.978 71.12 124.522 71.752C124.066 72.384 123.838 73.26 123.838 74.38C123.838 75.484 124.066 76.352 124.522 76.984C124.978 77.608 125.61 77.92 126.418 77.92ZM145.927 80.788C144.799 80.788 143.823 80.528 142.999 80.008C142.175 79.488 141.539 78.752 141.091 77.8C140.643 76.84 140.419 75.7 140.419 74.38C140.419 73.06 140.643 71.92 141.091 70.96C141.547 70 142.191 69.26 143.023 68.74C143.855 68.212 144.835 67.948 145.963 67.948C147.235 67.948 148.291 68.244 149.131 68.836C149.979 69.42 150.591 70.288 150.967 71.44L148.123 72.4C147.931 71.888 147.651 71.496 147.283 71.224C146.915 70.944 146.491 70.804 146.011 70.804C145.235 70.804 144.615 71.124 144.151 71.764C143.695 72.404 143.467 73.276 143.467 74.38C143.467 75.468 143.691 76.332 144.139 76.972C144.587 77.612 145.191 77.932 145.951 77.932C146.487 77.932 146.943 77.78 147.319 77.476C147.703 77.172 147.987 76.728 148.171 76.144L151.003 76.996C150.643 78.252 150.031 79.2 149.167 79.84C148.311 80.472 147.231 80.788 145.927 80.788ZM158.949 80.788C157.221 80.788 155.857 80.216 154.857 79.072C153.857 77.928 153.357 76.364 153.357 74.38C153.357 73.068 153.585 71.932 154.041 70.972C154.497 70.004 155.141 69.26 155.973 68.74C156.813 68.212 157.805 67.948 158.949 67.948C160.085 67.948 161.069 68.208 161.901 68.728C162.733 69.248 163.373 69.988 163.821 70.948C164.269 71.908 164.493 73.048 164.493 74.368C164.493 75.696 164.269 76.84 163.821 77.8C163.381 78.76 162.745 79.5 161.913 80.02C161.081 80.532 160.093 80.788 158.949 80.788ZM158.949 77.92C159.757 77.92 160.385 77.608 160.833 76.984C161.281 76.36 161.505 75.488 161.505 74.368C161.505 73.248 161.277 72.376 160.821 71.752C160.373 71.12 159.749 70.804 158.949 70.804C158.141 70.804 157.509 71.12 157.053 71.752C156.597 72.384 156.369 73.26 156.369 74.38C156.369 75.484 156.597 76.352 157.053 76.984C157.509 77.608 158.141 77.92 158.949 77.92ZM167.364 80.5V68.236H170.364V69.412C170.756 68.924 171.224 68.56 171.768 68.32C172.32 68.072 172.948 67.948 173.652 67.948C175.02 67.948 176.076 68.372 176.82 69.22C177.564 70.06 177.936 71.272 177.936 72.856V80.5H174.948V73.78C174.948 72.748 174.768 71.996 174.408 71.524C174.056 71.044 173.504 70.804 172.752 70.804C171.936 70.804 171.332 71.044 170.94 71.524C170.556 71.996 170.364 72.732 170.364 73.732V80.5H167.364ZM184.792 80.788C183.816 80.788 183.084 80.52 182.596 79.984C182.108 79.448 181.864 78.648 181.864 77.584V70.864H180.076V68.236H181.864V64.6L184.84 63.172V68.236H187.624V70.864H184.84V77.044C184.84 77.428 184.916 77.712 185.068 77.896C185.228 78.08 185.476 78.172 185.812 78.172C186.404 78.172 187.052 77.988 187.756 77.62L187.408 80.236C187.04 80.42 186.64 80.556 186.208 80.644C185.776 80.74 185.304 80.788 184.792 80.788ZM195.572 80.788C194.396 80.788 193.38 80.524 192.524 79.996C191.676 79.468 191.02 78.724 190.556 77.764C190.1 76.796 189.872 75.66 189.872 74.356C189.872 73.036 190.104 71.896 190.568 70.936C191.04 69.976 191.7 69.24 192.548 68.728C193.404 68.208 194.412 67.948 195.572 67.948C196.564 67.948 197.464 68.156 198.272 68.572C199.08 68.988 199.724 69.628 200.204 70.492C200.684 71.348 200.924 72.44 200.924 73.768C200.924 73.976 200.916 74.232 200.9 74.536C200.892 74.832 200.872 75.132 200.84 75.436H192.836C192.868 75.996 192.996 76.488 193.22 76.912C193.452 77.328 193.768 77.652 194.168 77.884C194.568 78.116 195.04 78.232 195.584 78.232C196.168 78.232 196.676 78.136 197.108 77.944C197.54 77.744 197.948 77.428 198.332 76.996L200.06 78.784C199.532 79.384 198.896 79.868 198.152 80.236C197.408 80.604 196.548 80.788 195.572 80.788ZM192.848 73.096H198.02C197.98 72.56 197.86 72.1 197.66 71.716C197.46 71.324 197.18 71.024 196.82 70.816C196.46 70.608 196.024 70.504 195.512 70.504C194.808 70.504 194.208 70.72 193.712 71.152C193.216 71.584 192.928 72.232 192.848 73.096ZM203.95 80.5V68.236H206.95V69.412C207.342 68.924 207.81 68.56 208.354 68.32C208.906 68.072 209.534 67.948 210.238 67.948C211.606 67.948 212.662 68.372 213.406 69.22C214.15 70.06 214.522 71.272 214.522 72.856V80.5H211.534V73.78C211.534 72.748 211.354 71.996 210.994 71.524C210.642 71.044 210.09 70.804 209.338 70.804C208.522 70.804 207.918 71.044 207.526 71.524C207.142 71.996 206.95 72.732 206.95 73.732V80.5H203.95ZM221.378 80.788C220.402 80.788 219.67 80.52 219.182 79.984C218.694 79.448 218.45 78.648 218.45 77.584V70.864H216.662V68.236H218.45V64.6L221.426 63.172V68.236H224.21V70.864H221.426V77.044C221.426 77.428 221.502 77.712 221.654 77.896C221.814 78.08 222.062 78.172 222.398 78.172C222.99 78.172 223.638 77.988 224.342 77.62L223.994 80.236C223.626 80.42 223.226 80.556 222.794 80.644C222.362 80.74 221.89 80.788 221.378 80.788Z" fill="white"/>
<path d="M316.664 63.9402C316.664 64.4925 317.34 64.883 317.819 64.6068L325.509 60.1667C325.988 59.8905 325.988 59.1095 325.509 58.8333L317.819 54.3932C317.34 54.117 316.664 54.5075 316.664 55.0598V63.9402ZM246.664 60.5H317.664V58.5H246.664V60.5Z" fill="#FC00FF"/>
<path d="M349.449 35.5V18.7H355.113C356.569 18.7 357.809 18.94 358.833 19.42C359.857 19.892 360.685 20.532 361.317 21.34C361.957 22.14 362.421 23.04 362.709 24.04C363.005 25.032 363.153 26.052 363.153 27.1C363.153 28.06 363.013 29.032 362.733 30.016C362.461 31 362.013 31.908 361.389 32.74C360.765 33.564 359.929 34.232 358.881 34.744C357.841 35.248 356.553 35.5 355.017 35.5H349.449ZM352.557 32.548H355.341C356.197 32.548 356.917 32.388 357.501 32.068C358.085 31.74 358.553 31.312 358.905 30.784C359.265 30.248 359.525 29.66 359.685 29.02C359.853 28.372 359.937 27.732 359.937 27.1C359.937 26.428 359.853 25.768 359.685 25.12C359.517 24.472 359.257 23.884 358.905 23.356C358.553 22.828 358.105 22.408 357.561 22.096C357.017 21.784 356.365 21.628 355.605 21.628H352.557V32.548ZM370.556 35.788C369.188 35.788 368.128 35.364 367.376 34.516C366.624 33.66 366.248 32.452 366.248 30.892V23.236H369.248V29.956C369.248 30.988 369.424 31.74 369.776 32.212C370.128 32.684 370.684 32.92 371.444 32.92C372.26 32.92 372.86 32.684 373.244 32.212C373.636 31.732 373.832 30.996 373.832 30.004V23.236H376.82V35.5H373.832V34.348C373.456 34.828 372.992 35.188 372.44 35.428C371.896 35.668 371.268 35.788 370.556 35.788ZM386.139 35.788C385.579 35.788 385.095 35.688 384.687 35.488C384.287 35.288 383.915 34.964 383.571 34.516V35.5H380.571V19.528L383.571 18.172V24.196C383.883 23.796 384.267 23.488 384.723 23.272C385.187 23.056 385.691 22.948 386.235 22.948C387.251 22.948 388.139 23.216 388.899 23.752C389.659 24.288 390.251 25.04 390.675 26.008C391.107 26.968 391.323 28.084 391.323 29.356C391.323 31.38 390.863 32.96 389.943 34.096C389.031 35.224 387.763 35.788 386.139 35.788ZM385.779 32.92C386.595 32.92 387.219 32.612 387.651 31.996C388.091 31.38 388.311 30.5 388.311 29.356C388.311 28.212 388.091 27.336 387.651 26.728C387.219 26.112 386.595 25.804 385.779 25.804C385.331 25.804 384.907 25.904 384.507 26.104C384.107 26.296 383.795 26.556 383.571 26.884V31.84C383.819 32.192 384.123 32.46 384.483 32.644C384.843 32.828 385.275 32.92 385.779 32.92ZM399.991 35.788C399.431 35.788 398.947 35.688 398.539 35.488C398.139 35.288 397.767 34.964 397.423 34.516V35.5H394.423V19.528L397.423 18.172V24.196C397.735 23.796 398.119 23.488 398.575 23.272C399.039 23.056 399.543 22.948 400.087 22.948C401.103 22.948 401.991 23.216 402.751 23.752C403.511 24.288 404.103 25.04 404.527 26.008C404.959 26.968 405.175 28.084 405.175 29.356C405.175 31.38 404.715 32.96 403.795 34.096C402.883 35.224 401.615 35.788 399.991 35.788ZM399.631 32.92C400.447 32.92 401.071 32.612 401.503 31.996C401.943 31.38 402.163 30.5 402.163 29.356C402.163 28.212 401.943 27.336 401.503 26.728C401.071 26.112 400.447 25.804 399.631 25.804C399.183 25.804 398.759 25.904 398.359 26.104C397.959 26.296 397.647 26.556 397.423 26.884V31.84C397.671 32.192 397.975 32.46 398.335 32.644C398.695 32.828 399.127 32.92 399.631 32.92ZM413.467 35.788C412.291 35.788 411.275 35.524 410.419 34.996C409.571 34.468 408.915 33.724 408.451 32.764C407.995 31.796 407.767 30.66 407.767 29.356C407.767 28.036 407.999 26.896 408.463 25.936C408.935 24.976 409.595 24.24 410.443 23.728C411.299 23.208 412.307 22.948 413.467 22.948C414.459 22.948 415.359 23.156 416.167 23.572C416.975 23.988 417.619 24.628 418.099 25.492C418.579 26.348 418.819 27.44 418.819 28.768C418.819 28.976 418.811 29.232 418.795 29.536C418.787 29.832 418.767 30.132 418.735 30.436H410.731C410.763 30.996 410.891 31.488 411.115 31.912C411.347 32.328 411.663 32.652 412.063 32.884C412.463 33.116 412.935 33.232 413.479 33.232C414.063 33.232 414.571 33.136 415.003 32.944C415.435 32.744 415.843 32.428 416.227 31.996L417.955 33.784C417.427 34.384 416.791 34.868 416.047 35.236C415.303 35.604 414.443 35.788 413.467 35.788ZM410.743 28.096H415.915C415.875 27.56 415.755 27.1 415.555 26.716C415.355 26.324 415.075 26.024 414.715 25.816C414.355 25.608 413.919 25.504 413.407 25.504C412.703 25.504 412.103 25.72 411.607 26.152C411.111 26.584 410.823 27.232 410.743 28.096ZM426.6 35.788C425.024 35.788 423.788 35.22 422.892 34.084C421.996 32.948 421.548 31.372 421.548 29.356C421.548 28.076 421.76 26.956 422.184 25.996C422.608 25.036 423.2 24.288 423.96 23.752C424.728 23.216 425.62 22.948 426.636 22.948C427.724 22.948 428.616 23.348 429.312 24.148V19.528L432.3 18.172V35.5H429.312V34.492C428.72 35.356 427.816 35.788 426.6 35.788ZM427.092 32.92C427.604 32.92 428.04 32.832 428.4 32.656C428.76 32.472 429.064 32.2 429.312 31.84V26.884C429.064 26.548 428.74 26.284 428.34 26.092C427.948 25.9 427.532 25.804 427.092 25.804C426.284 25.804 425.66 26.112 425.22 26.728C424.78 27.336 424.56 28.212 424.56 29.356C424.56 30.108 424.66 30.752 424.86 31.288C425.06 31.816 425.348 32.22 425.724 32.5C426.1 32.78 426.556 32.92 427.092 32.92ZM445.672 35.788C444.336 35.788 443.276 35.428 442.492 34.708C441.716 33.98 441.328 32.996 441.328 31.756C441.328 30.956 441.528 30.256 441.928 29.656C442.336 29.048 442.9 28.58 443.62 28.252C444.348 27.916 445.196 27.748 446.164 27.748C446.7 27.748 447.216 27.8 447.712 27.904C448.216 28 448.656 28.14 449.032 28.324V27.556C449.032 26.868 448.836 26.352 448.444 26.008C448.06 25.656 447.492 25.48 446.74 25.48C446.14 25.48 445.524 25.588 444.892 25.804C444.26 26.02 443.62 26.34 442.972 26.764L442.072 24.4C442.776 23.936 443.56 23.58 444.424 23.332C445.288 23.076 446.16 22.948 447.04 22.948C448.688 22.948 449.92 23.34 450.736 24.124C451.552 24.9 451.96 26.06 451.96 27.604V35.5H449.032V34.516C448.616 34.932 448.12 35.248 447.544 35.464C446.976 35.68 446.352 35.788 445.672 35.788ZM446.368 33.256C446.864 33.256 447.34 33.16 447.796 32.968C448.26 32.768 448.672 32.488 449.032 32.128V30.676C448.688 30.508 448.304 30.38 447.88 30.292C447.464 30.196 447.048 30.148 446.632 30.148C445.888 30.148 445.3 30.292 444.868 30.58C444.444 30.86 444.232 31.252 444.232 31.756C444.232 32.228 444.42 32.596 444.796 32.86C445.172 33.124 445.696 33.256 446.368 33.256ZM455.548 35.5V23.236H458.548V24.412C458.94 23.924 459.408 23.56 459.952 23.32C460.504 23.072 461.132 22.948 461.836 22.948C463.204 22.948 464.26 23.372 465.004 24.22C465.748 25.06 466.12 26.272 466.12 27.856V35.5H463.132V28.78C463.132 27.748 462.952 26.996 462.592 26.524C462.24 26.044 461.688 25.804 460.936 25.804C460.12 25.804 459.516 26.044 459.124 26.524C458.74 26.996 458.548 27.732 458.548 28.732V35.5H455.548ZM474.272 35.788C472.696 35.788 471.46 35.22 470.564 34.084C469.668 32.948 469.22 31.372 469.22 29.356C469.22 28.076 469.432 26.956 469.856 25.996C470.28 25.036 470.872 24.288 471.632 23.752C472.4 23.216 473.292 22.948 474.308 22.948C475.396 22.948 476.288 23.348 476.984 24.148V19.528L479.972 18.172V35.5H476.984V34.492C476.392 35.356 475.488 35.788 474.272 35.788ZM474.764 32.92C475.276 32.92 475.712 32.832 476.072 32.656C476.432 32.472 476.736 32.2 476.984 31.84V26.884C476.736 26.548 476.412 26.284 476.012 26.092C475.62 25.9 475.204 25.804 474.764 25.804C473.956 25.804 473.332 26.112 472.892 26.728C472.452 27.336 472.232 28.212 472.232 29.356C472.232 30.108 472.332 30.752 472.532 31.288C472.732 31.816 473.02 32.22 473.396 32.5C473.772 32.78 474.228 32.92 474.764 32.92ZM494.772 35.788C493.596 35.788 492.58 35.524 491.724 34.996C490.876 34.468 490.22 33.724 489.756 32.764C489.3 31.796 489.072 30.66 489.072 29.356C489.072 28.036 489.304 26.896 489.768 25.936C490.24 24.976 490.9 24.24 491.748 23.728C492.604 23.208 493.612 22.948 494.772 22.948C495.764 22.948 496.664 23.156 497.472 23.572C498.28 23.988 498.924 24.628 499.404 25.492C499.884 26.348 500.124 27.44 500.124 28.768C500.124 28.976 500.116 29.232 500.1 29.536C500.092 29.832 500.072 30.132 500.04 30.436H492.036C492.068 30.996 492.196 31.488 492.42 31.912C492.652 32.328 492.968 32.652 493.368 32.884C493.768 33.116 494.24 33.232 494.784 33.232C495.368 33.232 495.876 33.136 496.308 32.944C496.74 32.744 497.148 32.428 497.532 31.996L499.26 33.784C498.732 34.384 498.096 34.868 497.352 35.236C496.608 35.604 495.748 35.788 494.772 35.788ZM492.048 28.096H497.22C497.18 27.56 497.06 27.1 496.86 26.716C496.66 26.324 496.38 26.024 496.02 25.816C495.66 25.608 495.224 25.504 494.712 25.504C494.008 25.504 493.408 25.72 492.912 26.152C492.416 26.584 492.128 27.232 492.048 28.096ZM507.905 35.788C506.329 35.788 505.093 35.22 504.197 34.084C503.301 32.948 502.853 31.372 502.853 29.356C502.853 28.076 503.065 26.956 503.489 25.996C503.913 25.036 504.505 24.288 505.265 23.752C506.033 23.216 506.925 22.948 507.941 22.948C509.029 22.948 509.921 23.348 510.617 24.148V19.528L513.605 18.172V35.5H510.617V34.492C510.025 35.356 509.121 35.788 507.905 35.788ZM508.397 32.92C508.909 32.92 509.345 32.832 509.705 32.656C510.065 32.472 510.369 32.2 510.617 31.84V26.884C510.369 26.548 510.045 26.284 509.645 26.092C509.253 25.9 508.837 25.804 508.397 25.804C507.589 25.804 506.965 26.112 506.525 26.728C506.085 27.336 505.865 28.212 505.865 29.356C505.865 30.108 505.965 30.752 506.165 31.288C506.365 31.816 506.653 32.22 507.029 32.5C507.405 32.78 507.861 32.92 508.397 32.92ZM517.376 35.5V23.236H520.376V35.5H517.376ZM518.876 21.7C518.396 21.7 517.98 21.528 517.628 21.184C517.284 20.832 517.112 20.416 517.112 19.936C517.112 19.456 517.284 19.048 517.628 18.712C517.972 18.368 518.388 18.196 518.876 18.196C519.38 18.196 519.8 18.364 520.136 18.7C520.472 19.036 520.64 19.448 520.64 19.936C520.64 20.424 520.468 20.84 520.124 21.184C519.788 21.528 519.372 21.7 518.876 21.7ZM527.725 35.788C526.749 35.788 526.017 35.52 525.529 34.984C525.041 34.448 524.797 33.648 524.797 32.584V25.864H523.009V23.236H524.797V19.6L527.773 18.172V23.236H530.557V25.864H527.773V32.044C527.773 32.428 527.849 32.712 528.001 32.896C528.161 33.08 528.409 33.172 528.745 33.172C529.337 33.172 529.985 32.988 530.689 32.62L530.341 35.236C529.973 35.42 529.573 35.556 529.141 35.644C528.709 35.74 528.237 35.788 527.725 35.788ZM538.506 35.788C537.33 35.788 536.314 35.524 535.458 34.996C534.61 34.468 533.954 33.724 533.49 32.764C533.034 31.796 532.806 30.66 532.806 29.356C532.806 28.036 533.038 26.896 533.502 25.936C533.974 24.976 534.634 24.24 535.482 23.728C536.338 23.208 537.346 22.948 538.506 22.948C539.498 22.948 540.398 23.156 541.206 23.572C542.014 23.988 542.658 24.628 543.138 25.492C543.618 26.348 543.858 27.44 543.858 28.768C543.858 28.976 543.85 29.232 543.834 29.536C543.826 29.832 543.806 30.132 543.774 30.436H535.77C535.802 30.996 535.93 31.488 536.154 31.912C536.386 32.328 536.702 32.652 537.102 32.884C537.502 33.116 537.974 33.232 538.518 33.232C539.102 33.232 539.61 33.136 540.042 32.944C540.474 32.744 540.882 32.428 541.266 31.996L542.994 33.784C542.466 34.384 541.83 34.868 541.086 35.236C540.342 35.604 539.482 35.788 538.506 35.788ZM535.782 28.096H540.954C540.914 27.56 540.794 27.1 540.594 26.716C540.394 26.324 540.114 26.024 539.754 25.816C539.394 25.608 538.958 25.504 538.446 25.504C537.742 25.504 537.142 25.72 536.646 26.152C536.15 26.584 535.862 27.232 535.782 28.096ZM551.639 35.788C550.063 35.788 548.827 35.22 547.931 34.084C547.035 32.948 546.587 31.372 546.587 29.356C546.587 28.076 546.799 26.956 547.223 25.996C547.647 25.036 548.239 24.288 548.999 23.752C549.767 23.216 550.659 22.948 551.675 22.948C552.763 22.948 553.655 23.348 554.351 24.148V19.528L557.339 18.172V35.5H554.351V34.492C553.759 35.356 552.855 35.788 551.639 35.788ZM552.131 32.92C552.643 32.92 553.079 32.832 553.439 32.656C553.799 32.472 554.103 32.2 554.351 31.84V26.884C554.103 26.548 553.779 26.284 553.379 26.092C552.987 25.9 552.571 25.804 552.131 25.804C551.323 25.804 550.699 26.112 550.259 26.728C549.819 27.336 549.599 28.212 549.599 29.356C549.599 30.108 549.699 30.752 549.899 31.288C550.099 31.816 550.387 32.22 550.763 32.5C551.139 32.78 551.595 32.92 552.131 32.92ZM362.603 65.5L359.219 53.236H362.171L363.659 59.368C363.715 59.584 363.771 59.848 363.827 60.16C363.891 60.464 363.943 60.748 363.983 61.012C364.039 60.756 364.103 60.472 364.175 60.16C364.247 59.848 364.311 59.584 364.367 59.368L366.011 53.236H368.627L370.259 59.368C370.315 59.592 370.379 59.86 370.451 60.172C370.531 60.484 370.595 60.768 370.643 61.024C370.691 60.76 370.743 60.476 370.799 60.172C370.855 59.868 370.911 59.6 370.967 59.368L372.491 53.236H375.443L372.023 65.5H369.371L367.763 59.368C367.707 59.144 367.635 58.848 367.547 58.48C367.459 58.112 367.383 57.784 367.319 57.496C367.263 57.784 367.191 58.112 367.103 58.48C367.015 58.848 366.943 59.144 366.887 59.368L365.267 65.5H362.603ZM378.205 65.5V53.236H381.205V65.5H378.205ZM379.705 51.7C379.225 51.7 378.809 51.528 378.457 51.184C378.113 50.832 377.941 50.416 377.941 49.936C377.941 49.456 378.113 49.048 378.457 48.712C378.801 48.368 379.217 48.196 379.705 48.196C380.209 48.196 380.629 48.364 380.965 48.7C381.301 49.036 381.469 49.448 381.469 49.936C381.469 50.424 381.297 50.84 380.953 51.184C380.617 51.528 380.201 51.7 379.705 51.7ZM388.553 65.788C387.577 65.788 386.845 65.52 386.357 64.984C385.869 64.448 385.625 63.648 385.625 62.584V55.864H383.837V53.236H385.625V49.6L388.601 48.172V53.236H391.385V55.864H388.601V62.044C388.601 62.428 388.677 62.712 388.829 62.896C388.989 63.08 389.237 63.172 389.573 63.172C390.165 63.172 390.813 62.988 391.517 62.62L391.169 65.236C390.801 65.42 390.401 65.556 389.969 65.644C389.537 65.74 389.065 65.788 388.553 65.788ZM393.931 65.5V49.552L396.931 48.172V54.424C397.323 53.928 397.791 53.56 398.335 53.32C398.887 53.072 399.515 52.948 400.219 52.948C401.163 52.948 401.951 53.148 402.583 53.548C403.223 53.94 403.703 54.504 404.023 55.24C404.343 55.968 404.503 56.84 404.503 57.856V65.5H401.515V58.78C401.515 57.772 401.343 57.024 400.999 56.536C400.655 56.048 400.095 55.804 399.319 55.804C398.503 55.804 397.899 56.044 397.507 56.524C397.123 56.996 396.931 57.732 396.931 58.732V65.5H393.931ZM414.134 70.372V53.236H417.134V54.136C417.806 53.344 418.706 52.948 419.834 52.948C420.882 52.948 421.786 53.208 422.546 53.728C423.306 54.24 423.89 54.976 424.298 55.936C424.706 56.896 424.91 58.04 424.91 59.368C424.91 60.656 424.698 61.784 424.274 62.752C423.85 63.712 423.254 64.46 422.486 64.996C421.718 65.524 420.822 65.788 419.798 65.788C419.238 65.788 418.734 65.688 418.286 65.488C417.838 65.28 417.454 64.976 417.134 64.576V69.016L414.134 70.372ZM419.354 62.92C420.17 62.92 420.798 62.612 421.238 61.996C421.678 61.372 421.898 60.496 421.898 59.368C421.898 58.24 421.674 57.364 421.226 56.74C420.778 56.116 420.154 55.804 419.354 55.804C418.866 55.804 418.438 55.892 418.07 56.068C417.71 56.244 417.398 56.512 417.134 56.872V61.828C417.35 62.172 417.654 62.44 418.046 62.632C418.446 62.824 418.882 62.92 419.354 62.92ZM427.774 65.5V53.236H430.774V54.556C430.998 54.084 431.35 53.7 431.83 53.404C432.31 53.1 432.814 52.948 433.342 52.948C434.214 52.948 434.95 53.248 435.55 53.848L435.13 56.596C434.802 56.324 434.482 56.132 434.17 56.02C433.858 55.908 433.514 55.852 433.138 55.852C432.642 55.852 432.218 55.968 431.866 56.2C431.514 56.432 431.242 56.768 431.05 57.208C430.866 57.648 430.774 58.176 430.774 58.792V65.5H427.774ZM442.07 65.788C440.342 65.788 438.978 65.216 437.978 64.072C436.978 62.928 436.478 61.364 436.478 59.38C436.478 58.068 436.706 56.932 437.162 55.972C437.618 55.004 438.262 54.26 439.094 53.74C439.934 53.212 440.926 52.948 442.07 52.948C443.206 52.948 444.19 53.208 445.022 53.728C445.854 54.248 446.494 54.988 446.942 55.948C447.39 56.908 447.614 58.048 447.614 59.368C447.614 60.696 447.39 61.84 446.942 62.8C446.502 63.76 445.866 64.5 445.034 65.02C444.202 65.532 443.214 65.788 442.07 65.788ZM442.07 62.92C442.878 62.92 443.506 62.608 443.954 61.984C444.402 61.36 444.626 60.488 444.626 59.368C444.626 58.248 444.398 57.376 443.942 56.752C443.494 56.12 442.87 55.804 442.07 55.804C441.262 55.804 440.63 56.12 440.174 56.752C439.718 57.384 439.49 58.26 439.49 59.38C439.49 60.484 439.718 61.352 440.174 61.984C440.63 62.608 441.262 62.92 442.07 62.92ZM451.181 65.5V55.864H449.453V53.236H451.181V51.34C451.181 50.38 451.433 49.652 451.937 49.156C452.449 48.66 453.189 48.412 454.157 48.412C454.701 48.412 455.185 48.464 455.609 48.568C456.041 48.664 456.453 48.812 456.845 49.012V51.46C456.517 51.324 456.205 51.22 455.909 51.148C455.613 51.068 455.341 51.028 455.093 51.028C454.789 51.028 454.561 51.104 454.409 51.256C454.257 51.4 454.181 51.624 454.181 51.928V53.236H456.845V55.864H454.181V65.5H451.181ZM463.74 65.788C462.564 65.788 461.548 65.524 460.692 64.996C459.844 64.468 459.188 63.724 458.724 62.764C458.268 61.796 458.04 60.66 458.04 59.356C458.04 58.036 458.272 56.896 458.736 55.936C459.208 54.976 459.868 54.24 460.716 53.728C461.572 53.208 462.58 52.948 463.74 52.948C464.732 52.948 465.632 53.156 466.44 53.572C467.248 53.988 467.892 54.628 468.372 55.492C468.852 56.348 469.092 57.44 469.092 58.768C469.092 58.976 469.084 59.232 469.068 59.536C469.06 59.832 469.04 60.132 469.008 60.436H461.004C461.036 60.996 461.164 61.488 461.388 61.912C461.62 62.328 461.936 62.652 462.336 62.884C462.736 63.116 463.208 63.232 463.752 63.232C464.336 63.232 464.844 63.136 465.276 62.944C465.708 62.744 466.116 62.428 466.5 61.996L468.228 63.784C467.7 64.384 467.064 64.868 466.32 65.236C465.576 65.604 464.716 65.788 463.74 65.788ZM461.016 58.096H466.188C466.148 57.56 466.028 57.1 465.828 56.716C465.628 56.324 465.348 56.024 464.988 55.816C464.628 55.608 464.192 55.504 463.68 55.504C462.976 55.504 462.376 55.72 461.88 56.152C461.384 56.584 461.096 57.232 461.016 58.096ZM475.845 65.788C474.885 65.788 473.965 65.584 473.085 65.176C472.213 64.768 471.521 64.22 471.009 63.532L472.977 61.876C473.385 62.308 473.857 62.652 474.393 62.908C474.929 63.156 475.441 63.28 475.929 63.28C476.537 63.28 477.005 63.18 477.333 62.98C477.661 62.772 477.825 62.484 477.825 62.116C477.825 61.876 477.745 61.664 477.585 61.48C477.433 61.288 477.161 61.096 476.769 60.904C476.377 60.704 475.825 60.476 475.113 60.22C473.737 59.716 472.761 59.172 472.185 58.588C471.609 57.996 471.321 57.248 471.321 56.344C471.321 55.336 471.729 54.52 472.545 53.896C473.361 53.264 474.425 52.948 475.737 52.948C476.633 52.948 477.457 53.116 478.209 53.452C478.969 53.788 479.621 54.28 480.165 54.928L478.209 56.548C477.489 55.82 476.649 55.456 475.689 55.456C475.201 55.456 474.809 55.548 474.513 55.732C474.217 55.908 474.069 56.148 474.069 56.452C474.069 56.748 474.241 57.012 474.585 57.244C474.937 57.476 475.589 57.748 476.541 58.06C477.485 58.356 478.249 58.692 478.833 59.068C479.425 59.444 479.857 59.88 480.129 60.376C480.409 60.872 480.549 61.444 480.549 62.092C480.549 63.244 480.129 64.148 479.289 64.804C478.457 65.46 477.309 65.788 475.845 65.788ZM487.657 65.788C486.697 65.788 485.777 65.584 484.897 65.176C484.025 64.768 483.333 64.22 482.821 63.532L484.789 61.876C485.197 62.308 485.669 62.652 486.205 62.908C486.741 63.156 487.253 63.28 487.741 63.28C488.349 63.28 488.817 63.18 489.145 62.98C489.473 62.772 489.637 62.484 489.637 62.116C489.637 61.876 489.557 61.664 489.397 61.48C489.245 61.288 488.973 61.096 488.581 60.904C488.189 60.704 487.637 60.476 486.925 60.22C485.549 59.716 484.573 59.172 483.997 58.588C483.421 57.996 483.133 57.248 483.133 56.344C483.133 55.336 483.541 54.52 484.357 53.896C485.173 53.264 486.237 52.948 487.549 52.948C488.445 52.948 489.269 53.116 490.021 53.452C490.781 53.788 491.433 54.28 491.977 54.928L490.021 56.548C489.301 55.82 488.461 55.456 487.501 55.456C487.013 55.456 486.621 55.548 486.325 55.732C486.029 55.908 485.881 56.148 485.881 56.452C485.881 56.748 486.053 57.012 486.397 57.244C486.749 57.476 487.401 57.748 488.353 58.06C489.297 58.356 490.061 58.692 490.645 59.068C491.237 59.444 491.669 59.88 491.941 60.376C492.221 60.872 492.361 61.444 492.361 62.092C492.361 63.244 491.941 64.148 491.101 64.804C490.269 65.46 489.121 65.788 487.657 65.788ZM495.486 65.5V53.236H498.486V65.5H495.486ZM496.986 51.7C496.506 51.7 496.09 51.528 495.738 51.184C495.394 50.832 495.222 50.416 495.222 49.936C495.222 49.456 495.394 49.048 495.738 48.712C496.082 48.368 496.498 48.196 496.986 48.196C497.49 48.196 497.91 48.364 498.246 48.7C498.582 49.036 498.75 49.448 498.75 49.936C498.75 50.424 498.578 50.84 498.234 51.184C497.898 51.528 497.482 51.7 496.986 51.7ZM507.203 65.788C505.475 65.788 504.111 65.216 503.111 64.072C502.111 62.928 501.611 61.364 501.611 59.38C501.611 58.068 501.839 56.932 502.295 55.972C502.751 55.004 503.395 54.26 504.227 53.74C505.067 53.212 506.059 52.948 507.203 52.948C508.339 52.948 509.323 53.208 510.155 53.728C510.987 54.248 511.627 54.988 512.075 55.948C512.523 56.908 512.747 58.048 512.747 59.368C512.747 60.696 512.523 61.84 512.075 62.8C511.635 63.76 510.999 64.5 510.167 65.02C509.335 65.532 508.347 65.788 507.203 65.788ZM507.203 62.92C508.011 62.92 508.639 62.608 509.087 61.984C509.535 61.36 509.759 60.488 509.759 59.368C509.759 58.248 509.531 57.376 509.075 56.752C508.627 56.12 508.003 55.804 507.203 55.804C506.395 55.804 505.763 56.12 505.307 56.752C504.851 57.384 504.623 58.26 504.623 59.38C504.623 60.484 504.851 61.352 505.307 61.984C505.763 62.608 506.395 62.92 507.203 62.92ZM515.618 65.5V53.236H518.618V54.412C519.01 53.924 519.478 53.56 520.022 53.32C520.574 53.072 521.202 52.948 521.906 52.948C523.274 52.948 524.33 53.372 525.074 54.22C525.818 55.06 526.19 56.272 526.19 57.856V65.5H523.202V58.78C523.202 57.748 523.022 56.996 522.662 56.524C522.31 56.044 521.758 55.804 521.006 55.804C520.19 55.804 519.586 56.044 519.194 56.524C518.81 56.996 518.618 57.732 518.618 58.732V65.5H515.618ZM533.469 65.788C532.133 65.788 531.073 65.428 530.289 64.708C529.513 63.98 529.125 62.996 529.125 61.756C529.125 60.956 529.325 60.256 529.725 59.656C530.133 59.048 530.697 58.58 531.417 58.252C532.145 57.916 532.993 57.748 533.961 57.748C534.497 57.748 535.013 57.8 535.509 57.904C536.013 58 536.453 58.14 536.829 58.324V57.556C536.829 56.868 536.633 56.352 536.241 56.008C535.857 55.656 535.289 55.48 534.537 55.48C533.937 55.48 533.321 55.588 532.689 55.804C532.057 56.02 531.417 56.34 530.769 56.764L529.869 54.4C530.573 53.936 531.357 53.58 532.221 53.332C533.085 53.076 533.957 52.948 534.837 52.948C536.485 52.948 537.717 53.34 538.533 54.124C539.349 54.9 539.757 56.06 539.757 57.604V65.5H536.829V64.516C536.413 64.932 535.917 65.248 535.341 65.464C534.773 65.68 534.149 65.788 533.469 65.788ZM534.165 63.256C534.661 63.256 535.137 63.16 535.593 62.968C536.057 62.768 536.469 62.488 536.829 62.128V60.676C536.485 60.508 536.101 60.38 535.677 60.292C535.261 60.196 534.845 60.148 534.429 60.148C533.685 60.148 533.097 60.292 532.665 60.58C532.241 60.86 532.029 61.252 532.029 61.756C532.029 62.228 532.217 62.596 532.593 62.86C532.969 63.124 533.493 63.256 534.165 63.256ZM543.324 65.5V49.528L546.324 48.172V65.5H543.324ZM390.316 95.5L385.828 83.236H388.936L391.504 90.532C391.576 90.708 391.64 90.896 391.696 91.096C391.752 91.296 391.808 91.496 391.864 91.696C391.92 91.496 391.976 91.296 392.032 91.096C392.096 90.896 392.156 90.708 392.212 90.532L394.768 83.236H397.864L393.376 95.5H390.316ZM405.05 95.788C403.322 95.788 401.958 95.216 400.958 94.072C399.958 92.928 399.458 91.364 399.458 89.38C399.458 88.068 399.686 86.932 400.142 85.972C400.598 85.004 401.242 84.26 402.074 83.74C402.914 83.212 403.906 82.948 405.05 82.948C406.186 82.948 407.17 83.208 408.002 83.728C408.834 84.248 409.474 84.988 409.922 85.948C410.37 86.908 410.594 88.048 410.594 89.368C410.594 90.696 410.37 91.84 409.922 92.8C409.482 93.76 408.846 94.5 408.014 95.02C407.182 95.532 406.194 95.788 405.05 95.788ZM405.05 92.92C405.858 92.92 406.486 92.608 406.934 91.984C407.382 91.36 407.606 90.488 407.606 89.368C407.606 88.248 407.378 87.376 406.922 86.752C406.474 86.12 405.85 85.804 405.05 85.804C404.242 85.804 403.61 86.12 403.154 86.752C402.698 87.384 402.47 88.26 402.47 89.38C402.47 90.484 402.698 91.352 403.154 91.984C403.61 92.608 404.242 92.92 405.05 92.92ZM413.724 95.5V83.236H416.724V95.5H413.724ZM415.224 81.7C414.744 81.7 414.328 81.528 413.976 81.184C413.632 80.832 413.46 80.416 413.46 79.936C413.46 79.456 413.632 79.048 413.976 78.712C414.32 78.368 414.736 78.196 415.224 78.196C415.728 78.196 416.148 78.364 416.484 78.7C416.82 79.036 416.988 79.448 416.988 79.936C416.988 80.424 416.816 80.84 416.472 81.184C416.136 81.528 415.72 81.7 415.224 81.7ZM425.357 95.788C424.229 95.788 423.253 95.528 422.429 95.008C421.605 94.488 420.969 93.752 420.521 92.8C420.073 91.84 419.849 90.7 419.849 89.38C419.849 88.06 420.073 86.92 420.521 85.96C420.977 85 421.621 84.26 422.453 83.74C423.285 83.212 424.265 82.948 425.393 82.948C426.665 82.948 427.721 83.244 428.561 83.836C429.409 84.42 430.021 85.288 430.397 86.44L427.553 87.4C427.361 86.888 427.081 86.496 426.713 86.224C426.345 85.944 425.921 85.804 425.441 85.804C424.665 85.804 424.045 86.124 423.581 86.764C423.125 87.404 422.897 88.276 422.897 89.38C422.897 90.468 423.121 91.332 423.569 91.972C424.017 92.612 424.621 92.932 425.381 92.932C425.917 92.932 426.373 92.78 426.749 92.476C427.133 92.172 427.417 91.728 427.601 91.144L430.433 91.996C430.073 93.252 429.461 94.2 428.597 94.84C427.741 95.472 426.661 95.788 425.357 95.788ZM438.487 95.788C437.311 95.788 436.295 95.524 435.439 94.996C434.591 94.468 433.935 93.724 433.471 92.764C433.015 91.796 432.787 90.66 432.787 89.356C432.787 88.036 433.019 86.896 433.483 85.936C433.955 84.976 434.615 84.24 435.463 83.728C436.319 83.208 437.327 82.948 438.487 82.948C439.479 82.948 440.379 83.156 441.187 83.572C441.995 83.988 442.639 84.628 443.119 85.492C443.599 86.348 443.839 87.44 443.839 88.768C443.839 88.976 443.831 89.232 443.815 89.536C443.807 89.832 443.787 90.132 443.755 90.436H435.751C435.783 90.996 435.911 91.488 436.135 91.912C436.367 92.328 436.683 92.652 437.083 92.884C437.483 93.116 437.955 93.232 438.499 93.232C439.083 93.232 439.591 93.136 440.023 92.944C440.455 92.744 440.863 92.428 441.247 91.996L442.975 93.784C442.447 94.384 441.811 94.868 441.067 95.236C440.323 95.604 439.463 95.788 438.487 95.788ZM435.763 88.096H440.935C440.895 87.56 440.775 87.1 440.575 86.716C440.375 86.324 440.095 86.024 439.735 85.816C439.375 85.608 438.939 85.504 438.427 85.504C437.723 85.504 437.123 85.72 436.627 86.152C436.131 86.584 435.843 87.232 435.763 88.096ZM456.418 95.788C455.082 95.788 454.022 95.428 453.238 94.708C452.462 93.98 452.074 92.996 452.074 91.756C452.074 90.956 452.274 90.256 452.674 89.656C453.082 89.048 453.646 88.58 454.366 88.252C455.094 87.916 455.942 87.748 456.91 87.748C457.446 87.748 457.962 87.8 458.458 87.904C458.962 88 459.402 88.14 459.778 88.324V87.556C459.778 86.868 459.582 86.352 459.19 86.008C458.806 85.656 458.238 85.48 457.486 85.48C456.886 85.48 456.27 85.588 455.638 85.804C455.006 86.02 454.366 86.34 453.718 86.764L452.818 84.4C453.522 83.936 454.306 83.58 455.17 83.332C456.034 83.076 456.906 82.948 457.786 82.948C459.434 82.948 460.666 83.34 461.482 84.124C462.298 84.9 462.706 86.06 462.706 87.604V95.5H459.778V94.516C459.362 94.932 458.866 95.248 458.29 95.464C457.722 95.68 457.098 95.788 456.418 95.788ZM457.114 93.256C457.61 93.256 458.086 93.16 458.542 92.968C459.006 92.768 459.418 92.488 459.778 92.128V90.676C459.434 90.508 459.05 90.38 458.626 90.292C458.21 90.196 457.794 90.148 457.378 90.148C456.634 90.148 456.046 90.292 455.614 90.58C455.19 90.86 454.978 91.252 454.978 91.756C454.978 92.228 455.166 92.596 455.542 92.86C455.918 93.124 456.442 93.256 457.114 93.256ZM471.13 95.788C470.002 95.788 469.026 95.528 468.202 95.008C467.378 94.488 466.742 93.752 466.294 92.8C465.846 91.84 465.622 90.7 465.622 89.38C465.622 88.06 465.846 86.92 466.294 85.96C466.75 85 467.394 84.26 468.226 83.74C469.058 83.212 470.038 82.948 471.166 82.948C472.438 82.948 473.494 83.244 474.334 83.836C475.182 84.42 475.794 85.288 476.17 86.44L473.326 87.4C473.134 86.888 472.854 86.496 472.486 86.224C472.118 85.944 471.694 85.804 471.214 85.804C470.438 85.804 469.818 86.124 469.354 86.764C468.898 87.404 468.67 88.276 468.67 89.38C468.67 90.468 468.894 91.332 469.342 91.972C469.79 92.612 470.394 92.932 471.154 92.932C471.69 92.932 472.146 92.78 472.522 92.476C472.906 92.172 473.19 91.728 473.374 91.144L476.206 91.996C475.846 93.252 475.234 94.2 474.37 94.84C473.514 95.472 472.434 95.788 471.13 95.788ZM482.714 95.788C481.738 95.788 481.006 95.52 480.518 94.984C480.03 94.448 479.786 93.648 479.786 92.584V85.864H477.998V83.236H479.786V79.6L482.762 78.172V83.236H485.546V85.864H482.762V92.044C482.762 92.428 482.838 92.712 482.99 92.896C483.15 93.08 483.398 93.172 483.734 93.172C484.326 93.172 484.974 92.988 485.678 92.62L485.33 95.236C484.962 95.42 484.562 95.556 484.13 95.644C483.698 95.74 483.226 95.788 482.714 95.788ZM493.386 95.788C491.658 95.788 490.294 95.216 489.294 94.072C488.294 92.928 487.794 91.364 487.794 89.38C487.794 88.068 488.022 86.932 488.478 85.972C488.934 85.004 489.578 84.26 490.41 83.74C491.25 83.212 492.242 82.948 493.386 82.948C494.522 82.948 495.506 83.208 496.338 83.728C497.17 84.248 497.81 84.988 498.258 85.948C498.706 86.908 498.93 88.048 498.93 89.368C498.93 90.696 498.706 91.84 498.258 92.8C497.818 93.76 497.182 94.5 496.35 95.02C495.518 95.532 494.53 95.788 493.386 95.788ZM493.386 92.92C494.194 92.92 494.822 92.608 495.27 91.984C495.718 91.36 495.942 90.488 495.942 89.368C495.942 88.248 495.714 87.376 495.258 86.752C494.81 86.12 494.186 85.804 493.386 85.804C492.578 85.804 491.946 86.12 491.49 86.752C491.034 87.384 490.806 88.26 490.806 89.38C490.806 90.484 491.034 91.352 491.49 91.984C491.946 92.608 492.578 92.92 493.386 92.92ZM501.802 95.5V83.236H504.802V84.556C505.026 84.084 505.378 83.7 505.858 83.404C506.338 83.1 506.842 82.948 507.37 82.948C508.242 82.948 508.978 83.248 509.578 83.848L509.158 86.596C508.83 86.324 508.51 86.132 508.198 86.02C507.886 85.908 507.542 85.852 507.166 85.852C506.67 85.852 506.246 85.968 505.894 86.2C505.542 86.432 505.27 86.768 505.078 87.208C504.894 87.648 504.802 88.176 504.802 88.792V95.5H501.802ZM515.583 95.788C514.623 95.788 513.703 95.584 512.823 95.176C511.951 94.768 511.259 94.22 510.747 93.532L512.715 91.876C513.123 92.308 513.595 92.652 514.131 92.908C514.667 93.156 515.179 93.28 515.667 93.28C516.275 93.28 516.743 93.18 517.071 92.98C517.399 92.772 517.563 92.484 517.563 92.116C517.563 91.876 517.483 91.664 517.323 91.48C517.171 91.288 516.899 91.096 516.507 90.904C516.115 90.704 515.563 90.476 514.851 90.22C513.475 89.716 512.499 89.172 511.923 88.588C511.347 87.996 511.059 87.248 511.059 86.344C511.059 85.336 511.467 84.52 512.283 83.896C513.099 83.264 514.163 82.948 515.475 82.948C516.371 82.948 517.195 83.116 517.947 83.452C518.707 83.788 519.359 84.28 519.903 84.928L517.947 86.548C517.227 85.82 516.387 85.456 515.427 85.456C514.939 85.456 514.547 85.548 514.251 85.732C513.955 85.908 513.807 86.148 513.807 86.452C513.807 86.748 513.979 87.012 514.323 87.244C514.675 87.476 515.327 87.748 516.279 88.06C517.223 88.356 517.987 88.692 518.571 89.068C519.163 89.444 519.595 89.88 519.867 90.376C520.147 90.872 520.287 91.444 520.287 92.092C520.287 93.244 519.867 94.148 519.027 94.804C518.195 95.46 517.047 95.788 515.583 95.788Z" fill="white"/>
<path d="M650 63.9402C650 64.4925 650.676 64.883 651.155 64.6068L658.845 60.1667C659.324 59.8905 659.324 59.1095 658.845 58.8333L651.155 54.3932C650.676 54.117 650 54.5075 650 55.0598V63.9402ZM580 60.5H651V58.5H580V60.5Z" fill="#FC00FF"/>
<path d="M684.288 31.288C687.84 31.288 690.84 29.56 690.84 24.592V14.2H687.96V24.592C687.96 27.664 686.448 28.528 684.288 28.528C682.104 28.528 680.616 27.664 680.616 24.592V14.2H677.736V24.592C677.736 29.632 680.832 31.288 684.288 31.288ZM700.154 31.288C703.13 31.288 705.218 28.912 705.218 24.88C705.218 20.776 703.226 18.448 700.178 18.448C698.858 18.448 697.97 18.952 697.37 19.672V18.736H694.562V35.824L697.37 34.528V30.016C697.946 30.736 698.834 31.288 700.154 31.288ZM699.746 28.6C698.618 28.6 697.802 28.024 697.37 27.4V22.312C697.874 21.568 698.642 21.112 699.746 21.112C701.474 21.112 702.41 22.648 702.41 24.88C702.41 27.28 701.45 28.6 699.746 28.6ZM708.346 31H711.154V13.672L708.346 14.992V31ZM719.898 31.288C723.354 31.288 725.538 28.912 725.538 24.88C725.538 20.872 723.354 18.448 719.898 18.448C716.466 18.448 714.282 20.872 714.282 24.88C714.282 28.912 716.466 31.288 719.898 31.288ZM719.898 28.6C718.194 28.6 717.09 27.208 717.09 24.88C717.09 22.552 718.194 21.112 719.898 21.112C721.65 21.112 722.73 22.552 722.73 24.88C722.73 27.208 721.65 28.6 719.898 28.6ZM735.53 31H738.266V23.104C738.266 18.976 735.578 18.448 733.418 18.448C731.354 18.448 729.722 19.048 728.618 19.792L729.482 22.072C730.514 21.352 731.642 20.92 733.13 20.92C734.738 20.92 735.53 21.544 735.53 23.152V23.8C734.762 23.368 733.778 23.152 732.626 23.152C730.202 23.152 727.826 24.376 727.826 27.208C727.826 29.896 729.746 31.288 732.266 31.288C733.898 31.288 734.93 30.64 735.53 30.016V31ZM732.794 28.816C731.33 28.816 730.562 28.168 730.562 27.208C730.562 26.032 731.69 25.552 733.082 25.552C733.994 25.552 734.882 25.744 735.53 26.056V27.64C734.906 28.288 733.994 28.816 732.794 28.816ZM746.112 31.288C747.408 31.288 748.296 30.856 748.872 30.112V31H751.68V13.672L748.872 14.944V19.6C748.296 18.928 747.408 18.448 746.112 18.448C743.16 18.448 741.024 20.848 741.024 24.856C741.024 28.936 743.016 31.288 746.112 31.288ZM746.544 28.6C744.816 28.6 743.832 27.088 743.832 24.856C743.832 22.432 744.816 21.112 746.544 21.112C747.72 21.112 748.512 21.76 748.872 22.288V27.424C748.368 28.192 747.6 28.6 746.544 28.6ZM766.043 31.288C768.587 31.288 770.267 30.04 770.963 27.616L768.275 26.8C767.939 27.952 767.147 28.576 766.043 28.576C764.435 28.576 763.427 27.16 763.427 24.88C763.427 22.6 764.435 21.136 766.139 21.136C767.147 21.136 767.891 21.784 768.251 22.72L770.915 21.832C770.171 19.48 768.419 18.448 766.043 18.448C762.707 18.448 760.571 20.872 760.571 24.88C760.571 28.912 762.707 31.288 766.043 31.288ZM778.914 31.288C782.37 31.288 784.554 28.912 784.554 24.88C784.554 20.872 782.37 18.448 778.914 18.448C775.482 18.448 773.298 20.872 773.298 24.88C773.298 28.912 775.482 31.288 778.914 31.288ZM778.914 28.6C777.21 28.6 776.106 27.208 776.106 24.88C776.106 22.552 777.21 21.112 778.914 21.112C780.666 21.112 781.746 22.552 781.746 24.88C781.746 27.208 780.666 28.6 778.914 28.6ZM795.146 31H797.954V23.464C797.954 19.72 795.938 18.448 793.61 18.448C792.218 18.448 791.162 18.928 790.37 19.888V18.736H787.562V31H790.37V23.92C790.37 21.904 791.354 21.112 792.866 21.112C794.282 21.112 795.146 21.952 795.146 23.968V31ZM805.037 31.288C806.045 31.288 806.909 31.096 807.605 30.736L807.941 28.216C807.293 28.576 806.645 28.768 806.021 28.768C805.277 28.768 804.989 28.288 804.989 27.592V21.184H807.821V18.736H804.989V13.672L802.181 15.016V18.736H800.357V21.184H802.181V28.144C802.181 30.088 803.021 31.288 805.037 31.288ZM815.571 31.288C817.539 31.288 818.979 30.52 819.939 29.368L818.163 27.544C817.515 28.408 816.651 28.816 815.571 28.816C814.107 28.816 812.787 27.736 812.691 25.936H820.827C820.899 25.384 820.923 24.712 820.923 24.208C820.923 20.272 818.523 18.448 815.571 18.448C812.139 18.448 809.907 20.848 809.907 24.856C809.907 28.888 812.091 31.288 815.571 31.288ZM812.715 23.608C812.859 21.688 814.059 20.92 815.571 20.92C816.843 20.92 818.019 21.736 818.139 23.608H812.715ZM831.38 31H834.188V23.464C834.188 19.72 832.172 18.448 829.844 18.448C828.452 18.448 827.396 18.928 826.604 19.888V18.736H823.796V31H826.604V23.92C826.604 21.904 827.588 21.112 829.1 21.112C830.516 21.112 831.38 21.952 831.38 23.968V31ZM841.271 31.288C842.279 31.288 843.143 31.096 843.839 30.736L844.175 28.216C843.527 28.576 842.879 28.768 842.255 28.768C841.511 28.768 841.223 28.288 841.223 27.592V21.184H844.055V18.736H841.223V13.672L838.415 15.016V18.736H836.591V21.184H838.415V28.144C838.415 30.088 839.255 31.288 841.271 31.288ZM857.828 31.288C861.284 31.288 863.468 28.912 863.468 24.88C863.468 20.872 861.284 18.448 857.828 18.448C854.396 18.448 852.212 20.872 852.212 24.88C852.212 28.912 854.396 31.288 857.828 31.288ZM857.828 28.6C856.124 28.6 855.02 27.208 855.02 24.88C855.02 22.552 856.124 21.112 857.828 21.112C859.58 21.112 860.66 22.552 860.66 24.88C860.66 27.208 859.58 28.6 857.828 28.6ZM874.06 31H876.868V23.464C876.868 19.72 874.852 18.448 872.524 18.448C871.132 18.448 870.076 18.928 869.284 19.888V18.736H866.476V31H869.284V23.92C869.284 21.904 870.268 21.112 871.78 21.112C873.196 21.112 874.06 21.952 874.06 23.968V31ZM893.218 31H895.954V23.104C895.954 18.976 893.266 18.448 891.106 18.448C889.042 18.448 887.41 19.048 886.306 19.792L887.17 22.072C888.202 21.352 889.33 20.92 890.818 20.92C892.426 20.92 893.218 21.544 893.218 23.152V23.8C892.45 23.368 891.466 23.152 890.314 23.152C887.89 23.152 885.514 24.376 885.514 27.208C885.514 29.896 887.434 31.288 889.954 31.288C891.586 31.288 892.618 30.64 893.218 30.016V31ZM890.482 28.816C889.018 28.816 888.25 28.168 888.25 27.208C888.25 26.032 889.378 25.552 890.77 25.552C891.682 25.552 892.57 25.744 893.218 26.056V27.64C892.594 28.288 891.682 28.816 890.482 28.816ZM699.603 68H702.411V60.464C702.411 56.72 700.395 55.448 698.067 55.448C696.675 55.448 695.619 55.928 694.827 56.888V55.736H692.019V68H694.827V60.92C694.827 58.904 695.811 58.112 697.323 58.112C698.739 58.112 699.603 58.952 699.603 60.968V68ZM710.958 68.288C712.926 68.288 714.366 67.52 715.326 66.368L713.55 64.544C712.902 65.408 712.038 65.816 710.958 65.816C709.494 65.816 708.174 64.736 708.078 62.936H716.214C716.286 62.384 716.31 61.712 716.31 61.208C716.31 57.272 713.91 55.448 710.958 55.448C707.526 55.448 705.294 57.848 705.294 61.856C705.294 65.888 707.478 68.288 710.958 68.288ZM708.102 60.608C708.246 58.688 709.446 57.92 710.958 57.92C712.23 57.92 713.406 58.736 713.526 60.608H708.102ZM721.395 68H723.867L725.667 61.376C725.787 60.896 725.979 60.104 726.051 59.696C726.099 60.104 726.315 60.896 726.435 61.376L728.235 68H730.731L734.091 55.736H731.331L729.723 62.528C729.603 63.032 729.507 63.56 729.435 63.968C729.363 63.56 729.243 63.008 729.123 62.528L727.347 55.736H724.779L722.979 62.528C722.859 63.008 722.739 63.56 722.667 63.968C722.595 63.56 722.499 63.032 722.379 62.528L720.795 55.736H718.035L721.395 68ZM744.06 54.056C744.996 54.056 745.716 53.312 745.716 52.376C745.716 51.464 744.996 50.72 744.06 50.72C743.124 50.72 742.38 51.464 742.38 52.376C742.38 53.312 743.124 54.056 744.06 54.056ZM742.644 68H745.452V55.736H742.644V68ZM756.65 68H759.458V60.464C759.458 56.72 757.442 55.448 755.114 55.448C753.722 55.448 752.666 55.928 751.874 56.888V55.736H749.066V68H751.874V60.92C751.874 58.904 752.858 58.112 754.37 58.112C755.786 58.112 756.65 58.952 756.65 60.968V68ZM766.541 68.288C767.549 68.288 768.413 68.096 769.109 67.736L769.445 65.216C768.797 65.576 768.149 65.768 767.525 65.768C766.781 65.768 766.493 65.288 766.493 64.592V58.184H769.325V55.736H766.493V50.672L763.685 52.016V55.736H761.861V58.184H763.685V65.144C763.685 67.088 764.525 68.288 766.541 68.288ZM777.075 68.288C779.043 68.288 780.483 67.52 781.443 66.368L779.667 64.544C779.019 65.408 778.155 65.816 777.075 65.816C775.611 65.816 774.291 64.736 774.195 62.936H782.331C782.403 62.384 782.427 61.712 782.427 61.208C782.427 57.272 780.027 55.448 777.075 55.448C773.643 55.448 771.411 57.848 771.411 61.856C771.411 65.888 773.595 68.288 777.075 68.288ZM774.219 60.608C774.363 58.688 775.563 57.92 777.075 57.92C778.347 57.92 779.523 58.736 779.643 60.608H774.219ZM785.3 68H788.108V61.136C788.108 58.808 789.332 58.208 790.412 58.208C791.348 58.208 791.996 58.496 792.5 58.856L792.908 56.288C792.284 55.76 791.54 55.448 790.628 55.448C789.404 55.448 788.588 56 788.108 57.008V55.736H785.3V68ZM802.564 68H805.372V60.464C805.372 56.72 803.356 55.448 801.028 55.448C799.636 55.448 798.58 55.928 797.788 56.888V55.736H794.98V68H797.788V60.92C797.788 58.904 798.772 58.112 800.284 58.112C801.7 58.112 802.564 58.952 802.564 60.968V68ZM815.839 68H818.575V60.104C818.575 55.976 815.887 55.448 813.727 55.448C811.663 55.448 810.031 56.048 808.927 56.792L809.791 59.072C810.823 58.352 811.951 57.92 813.439 57.92C815.047 57.92 815.839 58.544 815.839 60.152V60.8C815.071 60.368 814.087 60.152 812.935 60.152C810.511 60.152 808.135 61.376 808.135 64.208C808.135 66.896 810.055 68.288 812.575 68.288C814.207 68.288 815.239 67.64 815.839 67.016V68ZM813.103 65.816C811.639 65.816 810.871 65.168 810.871 64.208C810.871 63.032 811.999 62.552 813.391 62.552C814.303 62.552 815.191 62.744 815.839 63.056V64.64C815.215 65.288 814.303 65.816 813.103 65.816ZM825.533 68.288C826.541 68.288 827.405 68.096 828.101 67.736L828.437 65.216C827.789 65.576 827.141 65.768 826.517 65.768C825.773 65.768 825.485 65.288 825.485 64.592V58.184H828.317V55.736H825.485V50.672L822.677 52.016V55.736H820.853V58.184H822.677V65.144C822.677 67.088 823.517 68.288 825.533 68.288ZM832.631 54.056C833.567 54.056 834.287 53.312 834.287 52.376C834.287 51.464 833.567 50.72 832.631 50.72C831.695 50.72 830.951 51.464 830.951 52.376C830.951 53.312 831.695 54.056 832.631 54.056ZM831.215 68H834.023V55.736H831.215V68ZM842.652 68.288C846.108 68.288 848.292 65.912 848.292 61.88C848.292 57.872 846.108 55.448 842.652 55.448C839.22 55.448 837.036 57.872 837.036 61.88C837.036 65.912 839.22 68.288 842.652 68.288ZM842.652 65.6C840.948 65.6 839.844 64.208 839.844 61.88C839.844 59.552 840.948 58.112 842.652 58.112C844.404 58.112 845.484 59.552 845.484 61.88C845.484 64.208 844.404 65.6 842.652 65.6ZM858.884 68H861.692V60.464C861.692 56.72 859.676 55.448 857.348 55.448C855.956 55.448 854.9 55.928 854.108 56.888V55.736H851.3V68H854.108V60.92C854.108 58.904 855.092 58.112 856.604 58.112C858.02 58.112 858.884 58.952 858.884 60.968V68ZM872.159 68H874.895V60.104C874.895 55.976 872.207 55.448 870.047 55.448C867.983 55.448 866.351 56.048 865.247 56.792L866.111 59.072C867.143 58.352 868.271 57.92 869.759 57.92C871.367 57.92 872.159 58.544 872.159 60.152V60.8C871.391 60.368 870.407 60.152 869.255 60.152C866.831 60.152 864.455 61.376 864.455 64.208C864.455 66.896 866.375 68.288 868.895 68.288C870.527 68.288 871.559 67.64 872.159 67.016V68ZM869.423 65.816C867.959 65.816 867.191 65.168 867.191 64.208C867.191 63.032 868.319 62.552 869.711 62.552C870.623 62.552 871.511 62.744 872.159 63.056V64.64C871.535 65.288 870.623 65.816 869.423 65.816ZM878.373 68H881.181V50.672L878.373 51.992V68ZM749.613 105.288C752.157 105.288 753.837 104.04 754.533 101.616L751.845 100.8C751.509 101.952 750.717 102.576 749.613 102.576C748.005 102.576 746.997 101.16 746.997 98.88C746.997 96.6 748.005 95.136 749.709 95.136C750.717 95.136 751.461 95.784 751.821 96.72L754.485 95.832C753.741 93.48 751.989 92.448 749.613 92.448C746.277 92.448 744.141 94.872 744.141 98.88C744.141 102.912 746.277 105.288 749.613 105.288ZM757.538 105H760.346V97.872C760.346 95.856 761.402 95.112 762.842 95.112C764.234 95.112 765.122 95.928 765.122 97.92V105H767.93V97.464C767.93 93.72 765.914 92.448 763.586 92.448C762.194 92.448 761.138 92.928 760.346 93.888V87.672L757.538 88.968V105ZM778.397 105H781.133V97.104C781.133 92.976 778.445 92.448 776.285 92.448C774.221 92.448 772.589 93.048 771.485 93.792L772.349 96.072C773.381 95.352 774.509 94.92 775.997 94.92C777.605 94.92 778.397 95.544 778.397 97.152V97.8C777.629 97.368 776.645 97.152 775.493 97.152C773.069 97.152 770.693 98.376 770.693 101.208C770.693 103.896 772.613 105.288 775.133 105.288C776.765 105.288 777.797 104.64 778.397 104.016V105ZM775.661 102.816C774.197 102.816 773.429 102.168 773.429 101.208C773.429 100.032 774.557 99.552 775.949 99.552C776.861 99.552 777.749 99.744 778.397 100.056V101.64C777.773 102.288 776.861 102.816 775.661 102.816ZM792.075 105H794.883V97.464C794.883 93.72 792.867 92.448 790.539 92.448C789.147 92.448 788.091 92.928 787.299 93.888V92.736H784.491V105H787.299V97.92C787.299 95.904 788.283 95.112 789.795 95.112C791.211 95.112 792.075 95.952 792.075 97.968V105ZM805.95 105H808.758V97.464C808.758 93.72 806.742 92.448 804.414 92.448C803.022 92.448 801.966 92.928 801.174 93.888V92.736H798.366V105H801.174V97.92C801.174 95.904 802.158 95.112 803.67 95.112C805.086 95.112 805.95 95.952 805.95 97.968V105ZM817.305 105.288C819.273 105.288 820.713 104.52 821.673 103.368L819.897 101.544C819.249 102.408 818.385 102.816 817.305 102.816C815.841 102.816 814.521 101.736 814.425 99.936H822.561C822.633 99.384 822.657 98.712 822.657 98.208C822.657 94.272 820.257 92.448 817.305 92.448C813.873 92.448 811.641 94.848 811.641 98.856C811.641 102.888 813.825 105.288 817.305 105.288ZM814.449 97.608C814.593 95.688 815.793 94.92 817.305 94.92C818.577 94.92 819.753 95.736 819.873 97.608H814.449ZM825.65 105H828.458V87.672L825.65 88.992V105Z" fill="white"/>
<path d="M983.336 63.9402C983.336 64.4925 984.012 64.883 984.491 64.6068L992.181 60.1667C992.66 59.8905 992.66 59.1095 992.181 58.8333L984.491 54.3932C984.012 54.117 983.336 54.5075 983.336 55.0598V63.9402ZM913.336 60.5H984.336V58.5H913.336V60.5Z" fill="#FC00FF"/>
<path d="M1033.14 50.788C1032.09 50.788 1031.14 50.604 1030.28 50.236C1029.43 49.868 1028.69 49.348 1028.08 48.676C1027.47 47.996 1027.01 47.196 1026.71 46.276L1029.53 45.232C1029.89 46 1030.39 46.632 1031.03 47.128C1031.68 47.616 1032.4 47.86 1033.21 47.86C1034.07 47.86 1034.75 47.68 1035.25 47.32C1035.76 46.96 1036.02 46.436 1036.02 45.748C1036.02 45.276 1035.87 44.884 1035.56 44.572C1035.27 44.252 1034.86 43.98 1034.35 43.756C1033.85 43.524 1033.28 43.3 1032.64 43.084C1032.02 42.876 1031.4 42.644 1030.78 42.388C1030.15 42.132 1029.58 41.82 1029.06 41.452C1028.54 41.076 1028.12 40.604 1027.8 40.036C1027.49 39.468 1027.33 38.772 1027.33 37.948C1027.33 37.124 1027.55 36.368 1027.99 35.68C1028.43 34.992 1029.07 34.444 1029.9 34.036C1030.74 33.62 1031.76 33.412 1032.95 33.412C1033.92 33.412 1034.79 33.58 1035.54 33.916C1036.3 34.244 1036.93 34.692 1037.42 35.26C1037.92 35.828 1038.26 36.472 1038.46 37.192L1035.67 38.116C1035.45 37.612 1035.1 37.192 1034.64 36.856C1034.18 36.512 1033.56 36.34 1032.78 36.34C1032.04 36.34 1031.47 36.484 1031.06 36.772C1030.66 37.06 1030.45 37.468 1030.45 37.996C1030.45 38.356 1030.59 38.664 1030.86 38.92C1031.14 39.168 1031.51 39.392 1031.98 39.592C1032.45 39.792 1032.98 39.996 1033.57 40.204C1034.24 40.428 1034.9 40.684 1035.55 40.972C1036.22 41.252 1036.82 41.596 1037.35 42.004C1037.9 42.412 1038.33 42.92 1038.66 43.528C1038.99 44.128 1039.15 44.864 1039.15 45.736C1039.15 46.808 1038.88 47.72 1038.35 48.472C1037.82 49.224 1037.1 49.8 1036.2 50.2C1035.3 50.592 1034.28 50.788 1033.14 50.788ZM1045.61 50.788C1044.63 50.788 1043.9 50.52 1043.41 49.984C1042.92 49.448 1042.68 48.648 1042.68 47.584V40.864H1040.89V38.236H1042.68V34.6L1045.66 33.172V38.236H1048.44V40.864H1045.66V47.044C1045.66 47.428 1045.73 47.712 1045.88 47.896C1046.04 48.08 1046.29 48.172 1046.63 48.172C1047.22 48.172 1047.87 47.988 1048.57 47.62L1048.22 50.236C1047.86 50.42 1047.46 50.556 1047.02 50.644C1046.59 50.74 1046.12 50.788 1045.61 50.788ZM1054.96 50.788C1053.62 50.788 1052.56 50.428 1051.78 49.708C1051 48.98 1050.62 47.996 1050.62 46.756C1050.62 45.956 1050.82 45.256 1051.22 44.656C1051.62 44.048 1052.19 43.58 1052.91 43.252C1053.64 42.916 1054.48 42.748 1055.45 42.748C1055.99 42.748 1056.5 42.8 1057 42.904C1057.5 43 1057.94 43.14 1058.32 43.324V42.556C1058.32 41.868 1058.12 41.352 1057.73 41.008C1057.35 40.656 1056.78 40.48 1056.03 40.48C1055.43 40.48 1054.81 40.588 1054.18 40.804C1053.55 41.02 1052.91 41.34 1052.26 41.764L1051.36 39.4C1052.06 38.936 1052.85 38.58 1053.71 38.332C1054.58 38.076 1055.45 37.948 1056.33 37.948C1057.98 37.948 1059.21 38.34 1060.02 39.124C1060.84 39.9 1061.25 41.06 1061.25 42.604V50.5H1058.32V49.516C1057.9 49.932 1057.41 50.248 1056.83 50.464C1056.26 50.68 1055.64 50.788 1054.96 50.788ZM1055.66 48.256C1056.15 48.256 1056.63 48.16 1057.08 47.968C1057.55 47.768 1057.96 47.488 1058.32 47.128V45.676C1057.98 45.508 1057.59 45.38 1057.17 45.292C1056.75 45.196 1056.34 45.148 1055.92 45.148C1055.18 45.148 1054.59 45.292 1054.16 45.58C1053.73 45.86 1053.52 46.252 1053.52 46.756C1053.52 47.228 1053.71 47.596 1054.08 47.86C1054.46 48.124 1054.98 48.256 1055.66 48.256ZM1064.84 50.5V38.236H1067.84V39.556C1068.06 39.084 1068.41 38.7 1068.89 38.404C1069.37 38.1 1069.88 37.948 1070.4 37.948C1071.28 37.948 1072.01 38.248 1072.61 38.848L1072.19 41.596C1071.86 41.324 1071.54 41.132 1071.23 41.02C1070.92 40.908 1070.58 40.852 1070.2 40.852C1069.7 40.852 1069.28 40.968 1068.93 41.2C1068.58 41.432 1068.3 41.768 1068.11 42.208C1067.93 42.648 1067.84 43.176 1067.84 43.792V50.5H1064.84ZM1078.51 50.788C1077.54 50.788 1076.81 50.52 1076.32 49.984C1075.83 49.448 1075.59 48.648 1075.59 47.584V40.864H1073.8V38.236H1075.59V34.6L1078.56 33.172V38.236H1081.35V40.864H1078.56V47.044C1078.56 47.428 1078.64 47.712 1078.79 47.896C1078.95 48.08 1079.2 48.172 1079.53 48.172C1080.13 48.172 1080.77 47.988 1081.48 47.62L1081.13 50.236C1080.76 50.42 1080.36 50.556 1079.93 50.644C1079.5 50.74 1079.03 50.788 1078.51 50.788ZM1090.36 50.5V38.236H1093.36V39.376C1093.75 38.88 1094.19 38.52 1094.68 38.296C1095.18 38.064 1095.74 37.948 1096.36 37.948C1097.09 37.948 1097.71 38.096 1098.23 38.392C1098.75 38.688 1099.16 39.12 1099.44 39.688C1099.85 39.128 1100.38 38.7 1101.02 38.404C1101.66 38.1 1102.38 37.948 1103.19 37.948C1104.69 37.948 1105.83 38.352 1106.6 39.16C1107.36 39.968 1107.75 41.168 1107.75 42.76V50.5H1104.76V43.792C1104.76 42.768 1104.59 42.016 1104.26 41.536C1103.92 41.048 1103.4 40.804 1102.7 40.804C1102.22 40.804 1101.82 40.912 1101.5 41.128C1101.18 41.344 1100.95 41.672 1100.79 42.112C1100.63 42.544 1100.55 43.092 1100.55 43.756V50.5H1097.56V43.792C1097.56 42.76 1097.4 42.004 1097.07 41.524C1096.74 41.044 1096.22 40.804 1095.51 40.804C1094.78 40.804 1094.24 41.04 1093.89 41.512C1093.54 41.984 1093.36 42.716 1093.36 43.708V50.5H1090.36ZM1116.44 50.788C1114.72 50.788 1113.35 50.216 1112.35 49.072C1111.35 47.928 1110.85 46.364 1110.85 44.38C1110.85 43.068 1111.08 41.932 1111.54 40.972C1111.99 40.004 1112.64 39.26 1113.47 38.74C1114.31 38.212 1115.3 37.948 1116.44 37.948C1117.58 37.948 1118.56 38.208 1119.4 38.728C1120.23 39.248 1120.87 39.988 1121.32 40.948C1121.76 41.908 1121.99 43.048 1121.99 44.368C1121.99 45.696 1121.76 46.84 1121.32 47.8C1120.88 48.76 1120.24 49.5 1119.41 50.02C1118.58 50.532 1117.59 50.788 1116.44 50.788ZM1116.44 47.92C1117.25 47.92 1117.88 47.608 1118.33 46.984C1118.78 46.36 1119 45.488 1119 44.368C1119 43.248 1118.77 42.376 1118.32 41.752C1117.87 41.12 1117.24 40.804 1116.44 40.804C1115.64 40.804 1115 41.12 1114.55 41.752C1114.09 42.384 1113.86 43.26 1113.86 44.38C1113.86 45.484 1114.09 46.352 1114.55 46.984C1115 47.608 1115.64 47.92 1116.44 47.92ZM1124.86 50.5V38.236H1127.86V39.412C1128.25 38.924 1128.72 38.56 1129.26 38.32C1129.82 38.072 1130.44 37.948 1131.15 37.948C1132.52 37.948 1133.57 38.372 1134.32 39.22C1135.06 40.06 1135.43 41.272 1135.43 42.856V50.5H1132.44V43.78C1132.44 42.748 1132.26 41.996 1131.9 41.524C1131.55 41.044 1131 40.804 1130.25 40.804C1129.43 40.804 1128.83 41.044 1128.44 41.524C1128.05 41.996 1127.86 42.732 1127.86 43.732V50.5H1124.86ZM1144.23 50.788C1143.06 50.788 1142.04 50.524 1141.18 49.996C1140.34 49.468 1139.68 48.724 1139.22 47.764C1138.76 46.796 1138.53 45.66 1138.53 44.356C1138.53 43.036 1138.76 41.896 1139.23 40.936C1139.7 39.976 1140.36 39.24 1141.21 38.728C1142.06 38.208 1143.07 37.948 1144.23 37.948C1145.22 37.948 1146.12 38.156 1146.93 38.572C1147.74 38.988 1148.38 39.628 1148.86 40.492C1149.34 41.348 1149.58 42.44 1149.58 43.768C1149.58 43.976 1149.58 44.232 1149.56 44.536C1149.55 44.832 1149.53 45.132 1149.5 45.436H1141.5C1141.53 45.996 1141.66 46.488 1141.88 46.912C1142.11 47.328 1142.43 47.652 1142.83 47.884C1143.23 48.116 1143.7 48.232 1144.24 48.232C1144.83 48.232 1145.34 48.136 1145.77 47.944C1146.2 47.744 1146.61 47.428 1146.99 46.996L1148.72 48.784C1148.19 49.384 1147.56 49.868 1146.81 50.236C1146.07 50.604 1145.21 50.788 1144.23 50.788ZM1141.51 43.096H1146.68C1146.64 42.56 1146.52 42.1 1146.32 41.716C1146.12 41.324 1145.84 41.024 1145.48 40.816C1145.12 40.608 1144.68 40.504 1144.17 40.504C1143.47 40.504 1142.87 40.72 1142.37 41.152C1141.88 41.584 1141.59 42.232 1141.51 43.096ZM1156 50.788C1155.02 50.788 1154.29 50.52 1153.8 49.984C1153.31 49.448 1153.07 48.648 1153.07 47.584V40.864H1151.28V38.236H1153.07V34.6L1156.05 33.172V38.236H1158.83V40.864H1156.05V47.044C1156.05 47.428 1156.12 47.712 1156.27 47.896C1156.43 48.08 1156.68 48.172 1157.02 48.172C1157.61 48.172 1158.26 47.988 1158.96 47.62L1158.61 50.236C1158.25 50.42 1157.85 50.556 1157.41 50.644C1156.98 50.74 1156.51 50.788 1156 50.788ZM1161.4 50.5V38.236H1164.4V50.5H1161.4ZM1162.9 36.7C1162.42 36.7 1162 36.528 1161.65 36.184C1161.31 35.832 1161.14 35.416 1161.14 34.936C1161.14 34.456 1161.31 34.048 1161.65 33.712C1162 33.368 1162.41 33.196 1162.9 33.196C1163.4 33.196 1163.82 33.364 1164.16 33.7C1164.5 34.036 1164.66 34.448 1164.66 34.936C1164.66 35.424 1164.49 35.84 1164.15 36.184C1163.81 36.528 1163.4 36.7 1162.9 36.7ZM1167.69 50.5V48.232L1173.98 40.9H1168.15V38.236H1177.83V40.444L1171.57 47.824H1177.81V50.5H1167.69ZM1181.25 50.5V38.236H1184.25V50.5H1181.25ZM1182.75 36.7C1182.27 36.7 1181.86 36.528 1181.5 36.184C1181.16 35.832 1180.99 35.416 1180.99 34.936C1180.99 34.456 1181.16 34.048 1181.5 33.712C1181.85 33.368 1182.26 33.196 1182.75 33.196C1183.26 33.196 1183.68 33.364 1184.01 33.7C1184.35 34.036 1184.52 34.448 1184.52 34.936C1184.52 35.424 1184.34 35.84 1184 36.184C1183.66 36.528 1183.25 36.7 1182.75 36.7ZM1188.02 50.5V38.236H1191.02V39.412C1191.42 38.924 1191.88 38.56 1192.43 38.32C1192.98 38.072 1193.61 37.948 1194.31 37.948C1195.68 37.948 1196.74 38.372 1197.48 39.22C1198.22 40.06 1198.6 41.272 1198.6 42.856V50.5H1195.61V43.78C1195.61 42.748 1195.43 41.996 1195.07 41.524C1194.72 41.044 1194.16 40.804 1193.41 40.804C1192.6 40.804 1191.99 41.044 1191.6 41.524C1191.22 41.996 1191.02 42.732 1191.02 43.732V50.5H1188.02ZM1206.68 55.612L1205.02 53.104C1206.19 53.016 1207.09 52.884 1207.73 52.708C1208.38 52.532 1208.83 52.28 1209.09 51.952C1209.34 51.624 1209.47 51.196 1209.47 50.668V49.78C1208.85 50.452 1207.97 50.788 1206.83 50.788C1205.77 50.788 1204.85 50.532 1204.08 50.02C1203.32 49.5 1202.72 48.76 1202.31 47.8C1201.9 46.832 1201.7 45.684 1201.7 44.356C1201.7 43.06 1201.91 41.932 1202.33 40.972C1202.76 40.012 1203.36 39.268 1204.13 38.74C1204.91 38.212 1205.82 37.948 1206.86 37.948C1207.4 37.948 1207.9 38.032 1208.34 38.2C1208.8 38.368 1209.18 38.612 1209.47 38.932V38.236H1212.46V49.396C1212.46 50.484 1212.36 51.404 1212.16 52.156C1211.96 52.908 1211.63 53.524 1211.18 54.004C1210.73 54.484 1210.14 54.848 1209.4 55.096C1208.66 55.352 1207.76 55.524 1206.68 55.612ZM1207.32 47.92C1207.75 47.92 1208.14 47.824 1208.51 47.632C1208.89 47.432 1209.21 47.164 1209.47 46.828V41.884C1209.25 41.572 1208.94 41.316 1208.55 41.116C1208.16 40.908 1207.76 40.804 1207.36 40.804C1206.5 40.804 1205.84 41.108 1205.38 41.716C1204.93 42.316 1204.71 43.196 1204.71 44.356C1204.71 45.108 1204.81 45.752 1205.01 46.288C1205.22 46.816 1205.52 47.22 1205.91 47.5C1206.3 47.78 1206.77 47.92 1207.32 47.92ZM1039.6 80.5V68.236H1042.6V80.5H1039.6ZM1041.1 66.7C1040.62 66.7 1040.2 66.528 1039.85 66.184C1039.5 65.832 1039.33 65.416 1039.33 64.936C1039.33 64.456 1039.5 64.048 1039.85 63.712C1040.19 63.368 1040.61 63.196 1041.1 63.196C1041.6 63.196 1042.02 63.364 1042.36 63.7C1042.69 64.036 1042.86 64.448 1042.86 64.936C1042.86 65.424 1042.69 65.84 1042.34 66.184C1042.01 66.528 1041.59 66.7 1041.1 66.7ZM1046.37 80.5V68.236H1049.37V69.412C1049.76 68.924 1050.23 68.56 1050.77 68.32C1051.32 68.072 1051.95 67.948 1052.66 67.948C1054.02 67.948 1055.08 68.372 1055.82 69.22C1056.57 70.06 1056.94 71.272 1056.94 72.856V80.5H1053.95V73.78C1053.95 72.748 1053.77 71.996 1053.41 71.524C1053.06 71.044 1052.51 70.804 1051.76 70.804C1050.94 70.804 1050.34 71.044 1049.94 71.524C1049.56 71.996 1049.37 72.732 1049.37 73.732V80.5H1046.37ZM1063.8 80.788C1062.82 80.788 1062.09 80.52 1061.6 79.984C1061.11 79.448 1060.87 78.648 1060.87 77.584V70.864H1059.08V68.236H1060.87V64.6L1063.84 63.172V68.236H1066.63V70.864H1063.84V77.044C1063.84 77.428 1063.92 77.712 1064.07 77.896C1064.23 78.08 1064.48 78.172 1064.82 78.172C1065.41 78.172 1066.06 77.988 1066.76 77.62L1066.41 80.236C1066.04 80.42 1065.64 80.556 1065.21 80.644C1064.78 80.74 1064.31 80.788 1063.8 80.788ZM1074.58 80.788C1073.4 80.788 1072.38 80.524 1071.53 79.996C1070.68 79.468 1070.02 78.724 1069.56 77.764C1069.1 76.796 1068.88 75.66 1068.88 74.356C1068.88 73.036 1069.11 71.896 1069.57 70.936C1070.04 69.976 1070.7 69.24 1071.55 68.728C1072.41 68.208 1073.42 67.948 1074.58 67.948C1075.57 67.948 1076.47 68.156 1077.28 68.572C1078.08 68.988 1078.73 69.628 1079.21 70.492C1079.69 71.348 1079.93 72.44 1079.93 73.768C1079.93 73.976 1079.92 74.232 1079.9 74.536C1079.9 74.832 1079.88 75.132 1079.84 75.436H1071.84C1071.87 75.996 1072 76.488 1072.22 76.912C1072.46 77.328 1072.77 77.652 1073.17 77.884C1073.57 78.116 1074.04 78.232 1074.59 78.232C1075.17 78.232 1075.68 78.136 1076.11 77.944C1076.54 77.744 1076.95 77.428 1077.34 76.996L1079.06 78.784C1078.54 79.384 1077.9 79.868 1077.16 80.236C1076.41 80.604 1075.55 80.788 1074.58 80.788ZM1071.85 73.096H1077.02C1076.98 72.56 1076.86 72.1 1076.66 71.716C1076.46 71.324 1076.18 71.024 1075.82 70.816C1075.46 70.608 1075.03 70.504 1074.52 70.504C1073.81 70.504 1073.21 70.72 1072.72 71.152C1072.22 71.584 1071.93 72.232 1071.85 73.096ZM1082.95 80.5V68.236H1085.95V69.556C1086.18 69.084 1086.53 68.7 1087.01 68.404C1087.49 68.1 1087.99 67.948 1088.52 67.948C1089.39 67.948 1090.13 68.248 1090.73 68.848L1090.31 71.596C1089.98 71.324 1089.66 71.132 1089.35 71.02C1089.04 70.908 1088.69 70.852 1088.32 70.852C1087.82 70.852 1087.4 70.968 1087.05 71.2C1086.69 71.432 1086.42 71.768 1086.23 72.208C1086.05 72.648 1085.95 73.176 1085.95 73.792V80.5H1082.95ZM1092.63 80.5V68.236H1095.63V69.412C1096.03 68.924 1096.49 68.56 1097.04 68.32C1097.59 68.072 1098.22 67.948 1098.92 67.948C1100.29 67.948 1101.35 68.372 1102.09 69.22C1102.83 70.06 1103.21 71.272 1103.21 72.856V80.5H1100.22V73.78C1100.22 72.748 1100.04 71.996 1099.68 71.524C1099.33 71.044 1098.77 70.804 1098.02 70.804C1097.21 70.804 1096.6 71.044 1096.21 71.524C1095.83 71.996 1095.63 72.732 1095.63 73.732V80.5H1092.63ZM1110.48 80.788C1109.15 80.788 1108.09 80.428 1107.3 79.708C1106.53 78.98 1106.14 77.996 1106.14 76.756C1106.14 75.956 1106.34 75.256 1106.74 74.656C1107.15 74.048 1107.71 73.58 1108.43 73.252C1109.16 72.916 1110.01 72.748 1110.98 72.748C1111.51 72.748 1112.03 72.8 1112.52 72.904C1113.03 73 1113.47 73.14 1113.84 73.324V72.556C1113.84 71.868 1113.65 71.352 1113.26 71.008C1112.87 70.656 1112.3 70.48 1111.55 70.48C1110.95 70.48 1110.34 70.588 1109.7 70.804C1109.07 71.02 1108.43 71.34 1107.78 71.764L1106.88 69.4C1107.59 68.936 1108.37 68.58 1109.24 68.332C1110.1 68.076 1110.97 67.948 1111.85 67.948C1113.5 67.948 1114.73 68.34 1115.55 69.124C1116.36 69.9 1116.77 71.06 1116.77 72.604V80.5H1113.84V79.516C1113.43 79.932 1112.93 80.248 1112.36 80.464C1111.79 80.68 1111.16 80.788 1110.48 80.788ZM1111.18 78.256C1111.68 78.256 1112.15 78.16 1112.61 77.968C1113.07 77.768 1113.48 77.488 1113.84 77.128V75.676C1113.5 75.508 1113.12 75.38 1112.69 75.292C1112.28 75.196 1111.86 75.148 1111.44 75.148C1110.7 75.148 1110.11 75.292 1109.68 75.58C1109.26 75.86 1109.04 76.252 1109.04 76.756C1109.04 77.228 1109.23 77.596 1109.61 77.86C1109.98 78.124 1110.51 78.256 1111.18 78.256ZM1123.44 80.788C1122.47 80.788 1121.74 80.52 1121.25 79.984C1120.76 79.448 1120.52 78.648 1120.52 77.584V70.864H1118.73V68.236H1120.52V64.6L1123.49 63.172V68.236H1126.28V70.864H1123.49V77.044C1123.49 77.428 1123.57 77.712 1123.72 77.896C1123.88 78.08 1124.13 78.172 1124.46 78.172C1125.06 78.172 1125.7 77.988 1126.41 77.62L1126.06 80.236C1125.69 80.42 1125.29 80.556 1124.86 80.644C1124.43 80.74 1123.96 80.788 1123.44 80.788ZM1128.85 80.5V68.236H1131.85V80.5H1128.85ZM1130.35 66.7C1129.87 66.7 1129.45 66.528 1129.1 66.184C1128.75 65.832 1128.58 65.416 1128.58 64.936C1128.58 64.456 1128.75 64.048 1129.1 63.712C1129.44 63.368 1129.86 63.196 1130.35 63.196C1130.85 63.196 1131.27 63.364 1131.61 63.7C1131.94 64.036 1132.11 64.448 1132.11 64.936C1132.11 65.424 1131.94 65.84 1131.59 66.184C1131.26 66.528 1130.84 66.7 1130.35 66.7ZM1140.56 80.788C1138.83 80.788 1137.47 80.216 1136.47 79.072C1135.47 77.928 1134.97 76.364 1134.97 74.38C1134.97 73.068 1135.2 71.932 1135.65 70.972C1136.11 70.004 1136.75 69.26 1137.59 68.74C1138.43 68.212 1139.42 67.948 1140.56 67.948C1141.7 67.948 1142.68 68.208 1143.51 68.728C1144.35 69.248 1144.99 69.988 1145.43 70.948C1145.88 71.908 1146.11 73.048 1146.11 74.368C1146.11 75.696 1145.88 76.84 1145.43 77.8C1144.99 78.76 1144.36 79.5 1143.53 80.02C1142.69 80.532 1141.71 80.788 1140.56 80.788ZM1140.56 77.92C1141.37 77.92 1142 77.608 1142.45 76.984C1142.89 76.36 1143.12 75.488 1143.12 74.368C1143.12 73.248 1142.89 72.376 1142.43 71.752C1141.99 71.12 1141.36 70.804 1140.56 70.804C1139.75 70.804 1139.12 71.12 1138.67 71.752C1138.21 72.384 1137.98 73.26 1137.98 74.38C1137.98 75.484 1138.21 76.352 1138.67 76.984C1139.12 77.608 1139.75 77.92 1140.56 77.92ZM1148.98 80.5V68.236H1151.98V69.412C1152.37 68.924 1152.84 68.56 1153.38 68.32C1153.93 68.072 1154.56 67.948 1155.27 67.948C1156.63 67.948 1157.69 68.372 1158.43 69.22C1159.18 70.06 1159.55 71.272 1159.55 72.856V80.5H1156.56V73.78C1156.56 72.748 1156.38 71.996 1156.02 71.524C1155.67 71.044 1155.12 70.804 1154.37 70.804C1153.55 70.804 1152.95 71.044 1152.55 71.524C1152.17 71.996 1151.98 72.732 1151.98 73.732V80.5H1148.98ZM1166.83 80.788C1165.49 80.788 1164.43 80.428 1163.65 79.708C1162.87 78.98 1162.48 77.996 1162.48 76.756C1162.48 75.956 1162.68 75.256 1163.08 74.656C1163.49 74.048 1164.06 73.58 1164.78 73.252C1165.5 72.916 1166.35 72.748 1167.32 72.748C1167.86 72.748 1168.37 72.8 1168.87 72.904C1169.37 73 1169.81 73.14 1170.19 73.324V72.556C1170.19 71.868 1169.99 71.352 1169.6 71.008C1169.22 70.656 1168.65 70.48 1167.9 70.48C1167.3 70.48 1166.68 70.588 1166.05 70.804C1165.42 71.02 1164.78 71.34 1164.13 71.764L1163.23 69.4C1163.93 68.936 1164.72 68.58 1165.58 68.332C1166.44 68.076 1167.32 67.948 1168.2 67.948C1169.84 67.948 1171.08 68.34 1171.89 69.124C1172.71 69.9 1173.12 71.06 1173.12 72.604V80.5H1170.19V79.516C1169.77 79.932 1169.28 80.248 1168.7 80.464C1168.13 80.68 1167.51 80.788 1166.83 80.788ZM1167.52 78.256C1168.02 78.256 1168.5 78.16 1168.95 77.968C1169.42 77.768 1169.83 77.488 1170.19 77.128V75.676C1169.84 75.508 1169.46 75.38 1169.04 75.292C1168.62 75.196 1168.2 75.148 1167.79 75.148C1167.04 75.148 1166.46 75.292 1166.02 75.58C1165.6 75.86 1165.39 76.252 1165.39 76.756C1165.39 77.228 1165.58 77.596 1165.95 77.86C1166.33 78.124 1166.85 78.256 1167.52 78.256ZM1176.68 80.5V64.528L1179.68 63.172V80.5H1176.68ZM1183.67 80.5V64.528L1186.67 63.172V80.5H1183.67ZM1192.07 85.156L1193.93 80.284L1189.33 68.236H1192.42L1195.09 75.412C1195.16 75.58 1195.23 75.764 1195.3 75.964C1195.36 76.164 1195.42 76.364 1195.48 76.564C1195.52 76.364 1195.58 76.168 1195.64 75.976C1195.72 75.776 1195.79 75.588 1195.86 75.412L1198.54 68.236H1201.62L1195.16 85.156H1192.07Z" fill="white"/>
</svg>
