<?xml version="1.0" encoding="UTF-8"?>
<svg version="1.1" xmlns="http://www.w3.org/2000/svg" width="540" height="361">
<path d="M0 0 C178.2 0 356.4 0 540 0 C540 119.13 540 238.26 540 361 C361.8 361 183.6 361 0 361 C0 241.87 0 122.74 0 0 Z " fill="#FEFEFE" transform="translate(0,0)"/>
<path d="M0 0 C0.82373761 -0.00322445 1.64747522 -0.00644889 2.49617457 -0.00977105 C3.85330023 -0.00744815 3.85330023 -0.00744815 5.23784256 -0.00507832 C6.19918523 -0.00734387 7.1605279 -0.00960943 8.15100217 -0.01194364 C11.38676848 -0.01829639 14.62249305 -0.01745345 17.85826492 -0.01662922 C20.17244394 -0.01961995 22.48662246 -0.02302228 24.80080032 -0.02680683 C31.09841517 -0.0356607 37.39601643 -0.03798555 43.69363689 -0.03862262 C48.94711299 -0.03957084 54.20058591 -0.04324822 59.45406079 -0.04679471 C71.13975656 -0.05447899 82.82544569 -0.05746286 94.51114377 -0.05678936 C95.21253946 -0.0567494 95.91393514 -0.05670945 96.63658524 -0.05666828 C97.33883764 -0.0566274 98.04109005 -0.05658652 98.76462284 -0.0565444 C110.14080395 -0.05613812 121.51695194 -0.06570258 132.89312348 -0.07980665 C144.57419332 -0.09417439 156.2552455 -0.10089349 167.93632436 -0.10021287 C174.49425058 -0.09995771 181.05213935 -0.10281877 187.61005783 -0.11339092 C193.77909412 -0.12306402 199.94805709 -0.12315644 206.11709595 -0.11587429 C208.38141486 -0.11482741 210.64573833 -0.11719747 212.91004944 -0.12323475 C216.0013339 -0.13094301 219.09236441 -0.1263174 222.18364334 -0.11860371 C223.07947089 -0.12374727 223.97529844 -0.12889083 224.89827228 -0.13419026 C230.57780833 -0.10287881 236.43840743 -0.05229899 240.93649673 3.83085918 C245.48010862 10.54400005 245.80148696 16.2974824 245.65611649 24.2653532 C245.65474182 25.50356319 245.65336716 26.74177319 245.65195084 28.01750469 C245.64292603 30.62210045 245.61939519 33.22668206 245.58214188 35.83102703 C245.52722814 39.81483571 245.52061428 43.794883 245.52135086 47.77902508 C245.50660763 50.31615251 245.48912365 52.85326581 245.46861649 55.3903532 C245.46527802 56.57795742 245.46193954 57.76556164 245.45849991 58.98915386 C245.2724529 69.79529875 245.2724529 69.79529875 241.96471024 74.12863445 C236.29511585 79.59689518 231.80090612 81.00833309 224.04561234 80.9083128 C223.07520842 80.9196396 222.10480451 80.9309664 221.10499442 80.94263643 C217.86811964 80.97314412 214.63283773 80.96116968 211.39586258 80.94919109 C209.06945647 80.96227843 206.74306368 80.97794891 204.41669083 80.99600506 C198.10899182 81.03724233 191.80176598 81.04124004 185.49395323 81.03772187 C179.56108699 81.03932997 173.62838008 81.06667888 167.69558091 81.09312194 C155.94153454 81.14441431 144.18760914 81.16690189 132.43346024 81.17331219 C121.03390829 81.17955053 109.63466124 81.20683418 98.23521805 81.25729656 C97.5327943 81.26040343 96.83037056 81.26351029 96.10666125 81.2667113 C95.05482588 81.27136542 95.05482588 81.27136542 93.98174131 81.27611357 C81.65105227 81.33050392 69.32037835 81.36733596 56.98960114 81.39471531 C51.74170727 81.40637909 46.49386751 81.4232156 41.2460022 81.44402027 C35.06867746 81.46737527 28.89151708 81.47532263 22.71415138 81.47131634 C20.44617611 81.47218166 18.17819621 81.4781681 15.91024971 81.48962498 C12.81659459 81.50435143 9.72350612 81.50048626 6.62984085 81.49180889 C5.73062011 81.50034565 4.83139937 81.5088824 3.90492952 81.51767784 C-3.46929481 81.46285288 -8.60348705 79.25867035 -14.03528976 74.12863445 C-15.85942261 70.43878383 -16.29465673 67.4241186 -16.32581711 63.33200359 C-16.33857681 62.19054379 -16.35133652 61.04908398 -16.36448288 59.87303448 C-16.36782135 58.03695881 -16.36782135 58.03695881 -16.37122726 56.1637907 C-16.37788406 54.89772488 -16.38454086 53.63165905 -16.39139938 52.32722759 C-16.40151785 49.65159298 -16.40708274 46.97636488 -16.40589523 44.30075359 C-16.40569196 40.8832081 -16.4330123 37.46649339 -16.46743965 34.04914474 C-16.49510523 30.77489163 -16.49385891 27.5006448 -16.49622726 24.2262907 C-16.5105983 23.00426449 -16.52496933 21.78223827 -16.53977585 20.52318096 C-16.50528025 14.10640713 -16.4566956 9.95368982 -12.03528976 5.12863445 C-8.13848515 1.6120059 -5.25211031 0.00519639 0 0 Z " fill="#6D7AE5" transform="translate(157.0352897644043,139.87136554718018)"/>
<path d="M0 0 C6.32358866 -0.51457774 11.52402669 -0.88011811 16.5625 3.37109375 C20.22945635 7.52631331 22 11.47273994 22 17 C21.34 17 20.68 17 20 17 C18.4087311 21.873261 17.78807779 25.80790596 18 31 C18.66 31.33 19.32 31.66 20 32 C19 35 19 35 16 36.6875 C11.73719396 38.37320591 7.52766716 38.47950854 3 38 C2.34 37.67 1.68 37.34 1 37 C1 33.7 1 30.4 1 27 C-0.32 26.34 -1.64 25.68 -3 25 C-3 24.01 -3 23.02 -3 22 C-3.99 22 -4.98 22 -6 22 C-8.14912995 17.52264593 -9.78867467 14.07005143 -9 9 C-6.76793569 6.15219381 -5.45007001 5.15002334 -2 4 C-0.79117904 1.99983534 -0.79117904 1.99983534 0 0 Z " fill="#E0B290" transform="translate(462,163)"/>
<path d="M0 0 C4.06195866 3.13878624 6.2552832 7.23184749 7.75 12.125 C7.32206245 15.79767924 6.45043538 20.42456462 3.75 23.125 C3.70907063 25.45797433 3.70758277 27.79205225 3.75 30.125 C4.41 30.455 5.07 30.785 5.75 31.125 C5.42 32.115 5.09 33.105 4.75 34.125 C-1.35320421 36.96614679 -6.57757914 38.37518583 -13.1875 36.125 C-14.2084375 35.63 -14.2084375 35.63 -15.25 35.125 C-14.92 34.465 -14.59 33.805 -14.25 33.125 C-13.71369144 28.36564866 -13.71369144 28.36564866 -15.75 24.3125 C-16.245 23.920625 -16.74 23.52875 -17.25 23.125 C-17.25 22.465 -17.25 21.805 -17.25 21.125 C-18.24 20.795 -19.23 20.465 -20.25 20.125 C-22.70811625 16.43782562 -22.56118164 14.48154296 -22.25 10.125 C-21.59 9.135 -20.93 8.145 -20.25 7.125 C-19.59 7.125 -18.93 7.125 -18.25 7.125 C-18.25 6.135 -18.25 5.145 -18.25 4.125 C-12.7357256 -1.95484101 -7.69148747 -2.07078509 0 0 Z " fill="#714F3B" transform="translate(476.25,51.875)"/>
<path d="M0 0 C4.06195866 3.13878624 6.2552832 7.23184749 7.75 12.125 C7.32206245 15.79767924 6.45043538 20.42456462 3.75 23.125 C3.70907063 25.45797433 3.70758277 27.79205225 3.75 30.125 C4.41 30.455 5.07 30.785 5.75 31.125 C5.42 32.115 5.09 33.105 4.75 34.125 C-1.35320421 36.96614679 -6.57757914 38.37518583 -13.1875 36.125 C-14.2084375 35.63 -14.2084375 35.63 -15.25 35.125 C-14.92 34.465 -14.59 33.805 -14.25 33.125 C-13.71369144 28.36564866 -13.71369144 28.36564866 -15.75 24.3125 C-16.245 23.920625 -16.74 23.52875 -17.25 23.125 C-17.25 22.465 -17.25 21.805 -17.25 21.125 C-18.24 20.795 -19.23 20.465 -20.25 20.125 C-22.70811625 16.43782562 -22.56118164 14.48154296 -22.25 10.125 C-21.59 9.135 -20.93 8.145 -20.25 7.125 C-19.59 7.125 -18.93 7.125 -18.25 7.125 C-18.25 6.135 -18.25 5.145 -18.25 4.125 C-12.7357256 -1.95484101 -7.69148747 -2.07078509 0 0 Z " fill="#714F3B" transform="translate(180.25,51.875)"/>
<path d="M0 0 C4.02856909 1.79819272 6.46186989 4.24325453 9 7.8125 C10.54309577 12.73111778 9.89615682 16.83868062 7.9375 21.5625 C6.69493063 24.79318036 6.87503662 27.56350704 7 31 C7 32.32 7 33.64 7 35 C3.40537669 37.25998595 0.43404325 37.20868087 -3.75 37.125 C-4.92046875 37.10695313 -6.0909375 37.08890625 -7.296875 37.0703125 C-8.18890625 37.04710937 -9.0809375 37.02390625 -10 37 C-11.231394 33.30581799 -10.64432764 30.7943739 -10 27 C-10.99 26.67 -11.98 26.34 -13 26 C-13.6875 23.9375 -13.6875 23.9375 -14 22 C-14.99 22 -15.98 22 -17 22 C-17 21.34 -17 20.68 -17 20 C-17.66 20 -18.32 20 -19 20 C-19.86638608 16.25694139 -20.39199474 12.83742217 -20 9 C-17.79229992 5.95637464 -15.13974769 4.02431101 -12 2 C-7.94436176 -0.70375883 -4.76309564 -0.76747554 0 0 Z " fill="#E6CBB0" transform="translate(473,275)"/>
<path d="M0 0 C4.02856909 1.79819272 6.46186989 4.24325453 9 7.8125 C10.54309577 12.73111778 9.89615682 16.83868062 7.9375 21.5625 C6.69493063 24.79318036 6.87503662 27.56350704 7 31 C7 32.32 7 33.64 7 35 C3.40537669 37.25998595 0.43404325 37.20868087 -3.75 37.125 C-4.92046875 37.10695313 -6.0909375 37.08890625 -7.296875 37.0703125 C-8.18890625 37.04710937 -9.0809375 37.02390625 -10 37 C-11.231394 33.30581799 -10.64432764 30.7943739 -10 27 C-10.99 26.67 -11.98 26.34 -13 26 C-13.6875 23.9375 -13.6875 23.9375 -14 22 C-14.99 22 -15.98 22 -17 22 C-17 21.34 -17 20.68 -17 20 C-17.66 20 -18.32 20 -19 20 C-19.86638608 16.25694139 -20.39199474 12.83742217 -20 9 C-17.79229992 5.95637464 -15.13974769 4.02431101 -12 2 C-7.94436176 -0.70375883 -4.76309564 -0.76747554 0 0 Z " fill="#E6CBB0" transform="translate(177,275)"/>
<path d="M0 0 C3.8673861 1.80906834 5.80055834 4.6590191 7.9375 8.3125 C9.3400162 13.18005623 9.39737907 17.36963939 6.9375 22 C5.02163064 26.08718797 5.60166448 30.80499343 7 35 C4.78770401 37.54414039 3.34873329 38.54746847 0 39 C-6.01235146 39.39425255 -9.62157476 38.68921262 -15 36 C-13.02 35.505 -13.02 35.505 -11 35 C-11.13277344 34.40832031 -11.26554688 33.81664062 -11.40234375 33.20703125 C-12.31005178 29.14553475 -13.2091113 25.08625829 -14 21 C-14.99 20.67 -15.98 20.34 -17 20 C-17 19.34 -17 18.68 -17 18 C-17.66 18 -18.32 18 -19 18 C-18.67 14.7 -18.34 11.4 -18 8 C-17.34 8 -16.68 8 -16 8 C-15.7525 7.236875 -15.505 6.47375 -15.25 5.6875 C-12.18776822 -0.89629833 -6.52956091 -1.08310252 0 0 Z " fill="#CEA07E" transform="translate(181,162)"/>
<path d="M0 0 C3.81569684 3.02647897 5.62519305 6.08261041 7.171875 10.72265625 C7.90763131 18.94331814 6.40483225 24.2437568 1.171875 30.72265625 C-0.478125 30.39265625 -2.128125 30.06265625 -3.828125 29.72265625 C-4.14389723 23.72298387 -3.34307939 20.27651387 -0.828125 14.72265625 C0.03639178 9.90606275 -2.15853092 5.66113147 -4.828125 1.72265625 C-8.53279013 -1.73713763 -11.51239483 -1.83716402 -16.4140625 -1.70703125 C-20.08378941 -1.05384361 -21.66957422 0.79816809 -23.828125 3.72265625 C-24.158125 4.38265625 -24.488125 5.04265625 -24.828125 5.72265625 C-25.488125 5.72265625 -26.148125 5.72265625 -26.828125 5.72265625 C-26.8075 7.00140625 -26.786875 8.28015625 -26.765625 9.59765625 C-26.703125 13.47265625 -26.703125 13.47265625 -27.828125 15.72265625 C-27.168125 15.72265625 -26.508125 15.72265625 -25.828125 15.72265625 C-22.4070467 18.25127934 -21.19816362 21.80826019 -19.828125 25.72265625 C-19.640625 29.66015625 -19.640625 29.66015625 -19.828125 32.72265625 C-23.23454686 32.43067723 -24.76012696 31.77770228 -27.453125 29.59765625 C-31.68312959 24.47712438 -33.44789571 19.57216323 -33.16796875 12.98828125 C-32.26278479 6.95372149 -29.58916305 3.01582039 -24.828125 -0.71484375 C-16.6339337 -6.58841447 -8.09577761 -5.31756821 0 0 Z " fill="#F5F1EF" transform="translate(189.828125,164.27734375)"/>
<path d="M0 0 C8.87813287 -0.62060735 8.87813287 -0.62060735 12.9375 1.625 C15.71155086 4.81936159 17.96682876 7.58797718 18.02734375 11.98828125 C17.70610686 15.08967744 17.1347741 17.67495658 15.9375 20.5625 C14.69493063 23.79318036 14.87503662 26.56350704 15 30 C15 31.32 15 32.64 15 34 C11.34148709 36.34144827 8.27169964 36.44965259 4 36 C1.0625 34 1.0625 34 -1 32 C-0.67 30.68 -0.34 29.36 0 28 C1.423125 28.061875 1.423125 28.061875 2.875 28.125 C6.10244856 28.34973818 6.10244856 28.34973818 8 26 C8.254589 23.99511162 8.50556865 21.98801927 8.65625 19.97265625 C9 18 9 18 11 15 C9.35 14.67 7.7 14.34 6 14 C5.67 16.31 5.34 18.62 5 21 C4.34 21 3.68 21 3 21 C3.14107747 19.54119891 3.28802415 18.08296449 3.4375 16.625 C3.51871094 15.81289063 3.59992188 15.00078125 3.68359375 14.1640625 C4 12 4 12 5 10 C6.32 10 7.64 10 9 10 C8.67 8.02 8.34 6.04 8 4 C5.62625139 3.66574265 5.62625139 3.66574265 3 4 C1.29467677 5.94009522 1.29467677 5.94009522 0 8 C-0.66 8 -1.32 8 -2 8 C-3.125 4.25 -3.125 4.25 -2 2 C-1.34 2 -0.68 2 0 2 C0 1.34 0 0.68 0 0 Z " fill="#644A37" transform="translate(465,276)"/>
<path d="M0 0 C8.87813287 -0.62060735 8.87813287 -0.62060735 12.9375 1.625 C15.71155086 4.81936159 17.96682876 7.58797718 18.02734375 11.98828125 C17.70610686 15.08967744 17.1347741 17.67495658 15.9375 20.5625 C14.69493063 23.79318036 14.87503662 26.56350704 15 30 C15 31.32 15 32.64 15 34 C11.34148709 36.34144827 8.27169964 36.44965259 4 36 C1.0625 34 1.0625 34 -1 32 C-0.67 30.68 -0.34 29.36 0 28 C1.423125 28.061875 1.423125 28.061875 2.875 28.125 C6.10244856 28.34973818 6.10244856 28.34973818 8 26 C8.254589 23.99511162 8.50556865 21.98801927 8.65625 19.97265625 C9 18 9 18 11 15 C9.35 14.67 7.7 14.34 6 14 C5.67 16.31 5.34 18.62 5 21 C4.34 21 3.68 21 3 21 C3.14107747 19.54119891 3.28802415 18.08296449 3.4375 16.625 C3.51871094 15.81289063 3.59992188 15.00078125 3.68359375 14.1640625 C4 12 4 12 5 10 C6.32 10 7.64 10 9 10 C8.67 8.02 8.34 6.04 8 4 C5.62625139 3.66574265 5.62625139 3.66574265 3 4 C1.29467677 5.94009522 1.29467677 5.94009522 0 8 C-0.66 8 -1.32 8 -2 8 C-3.125 4.25 -3.125 4.25 -2 2 C-1.34 2 -0.68 2 0 2 C0 1.34 0 0.68 0 0 Z " fill="#644A37" transform="translate(169,276)"/>
<path d="M0 0 C8.81849315 -0.61643836 8.81849315 -0.61643836 12.875 1.5 C16.68332649 5.9803841 19 10.0651698 19 16 C18.34 16 17.68 16 17 16 C15.4087311 20.873261 14.78807779 24.80790596 15 30 C15.66 30.33 16.32 30.66 17 31 C16 34 16 34 14 35 C11.94140625 35.203125 11.94140625 35.203125 9.5625 35.25 C8.78003906 35.27578125 7.99757813 35.3015625 7.19140625 35.328125 C4.49198652 34.92393381 3.62540456 34.15326907 2 32 C2 31.34 2 30.68 2 30 C3.63631892 28.95107762 5.30485863 27.95093297 7 27 C8.4284032 25.78309459 8.4284032 25.78309459 8.375 22.1875 C8.7607589 18.6650786 9.48682882 16.6224395 12 14 C10.02 14 8.04 14 6 14 C5.67 16.31 5.34 18.62 5 21 C4.34 21 3.68 21 3 21 C3.33 17.7 3.66 14.4 4 11 C5.65 10.67 7.3 10.34 9 10 C8.67 8.02 8.34 6.04 8 4 C4.37471432 3.79859524 2.13498292 4.14223235 -1 6 C-1.33 5.01 -1.66 4.02 -2 3 C-1.34 3 -0.68 3 0 3 C0 2.01 0 1.02 0 0 Z " fill="#8A6851" transform="translate(465,164)"/>
<path d="M0 0 C0 0.99 0 1.98 0 3 C1.32 3.33 2.64 3.66 4 4 C4 4.99 4 5.98 4 7 C2.68 7.33 1.36 7.66 0 8 C-0.66 11.3 -1.32 14.6 -2 18 C-1.34 18 -0.68 18 0 18 C0 15.69 0 13.38 0 11 C2.6666419 9.66667905 4.16680303 10.32897967 7 11 C6.46059411 16.28617772 5.39176094 20.30846894 3 25 C0 27 0 27 -3 27 C-1.8321734 30.81413002 -1.8321734 30.81413002 1.125 33.3125 C1.74375 33.539375 2.3625 33.76625 3 34 C-1.54805635 34.17835515 -4.8794254 33.99785435 -9 32 C-8.67 31.34 -8.34 30.68 -8 30 C-7.46369144 25.24064866 -7.46369144 25.24064866 -9.5 21.1875 C-9.995 20.795625 -10.49 20.40375 -11 20 C-11 19.34 -11 18.68 -11 18 C-11.99 17.67 -12.98 17.34 -14 17 C-16.4294516 13.3558226 -16.16179575 11.28758728 -16 7 C-15.34 6.67 -14.68 6.34 -14 6 C-14.061875 6.928125 -14.12375 7.85625 -14.1875 8.8125 C-14.3156235 11.9655797 -14.3156235 11.9655797 -12.5625 13.75 C-12.046875 14.1625 -11.53125 14.575 -11 15 C-10.67 15.66 -10.34 16.32 -10 17 C-9.67 15.68 -9.34 14.36 -9 13 C-7.35 12.67 -5.7 12.34 -4 12 C-4.350625 11.443125 -4.70125 10.88625 -5.0625 10.3125 C-6.2500817 7.3831318 -5.99130348 5.97391045 -5 3 C-2.62068966 0 -2.62068966 0 0 0 Z " fill="#D8AE8E" transform="translate(470,55)"/>
<path d="M0 0 C0 0.99 0 1.98 0 3 C1.32 3.33 2.64 3.66 4 4 C4 4.99 4 5.98 4 7 C2.68 7.33 1.36 7.66 0 8 C-0.66 11.3 -1.32 14.6 -2 18 C-1.34 18 -0.68 18 0 18 C0 15.69 0 13.38 0 11 C2.6666419 9.66667905 4.16680303 10.32897967 7 11 C6.46059411 16.28617772 5.39176094 20.30846894 3 25 C0 27 0 27 -3 27 C-1.8321734 30.81413002 -1.8321734 30.81413002 1.125 33.3125 C1.74375 33.539375 2.3625 33.76625 3 34 C-1.54805635 34.17835515 -4.8794254 33.99785435 -9 32 C-8.67 31.34 -8.34 30.68 -8 30 C-7.46369144 25.24064866 -7.46369144 25.24064866 -9.5 21.1875 C-9.995 20.795625 -10.49 20.40375 -11 20 C-11 19.34 -11 18.68 -11 18 C-11.99 17.67 -12.98 17.34 -14 17 C-16.4294516 13.3558226 -16.16179575 11.28758728 -16 7 C-15.34 6.67 -14.68 6.34 -14 6 C-14.061875 6.928125 -14.12375 7.85625 -14.1875 8.8125 C-14.3156235 11.9655797 -14.3156235 11.9655797 -12.5625 13.75 C-12.046875 14.1625 -11.53125 14.575 -11 15 C-10.67 15.66 -10.34 16.32 -10 17 C-9.67 15.68 -9.34 14.36 -9 13 C-7.35 12.67 -5.7 12.34 -4 12 C-4.350625 11.443125 -4.70125 10.88625 -5.0625 10.3125 C-6.2500817 7.3831318 -5.99130348 5.97391045 -5 3 C-2.62068966 0 -2.62068966 0 0 0 Z " fill="#D8AE8E" transform="translate(174,55)"/>
<path d="M0 0 C4.5009052 -0.17650609 8.01029221 -0.21650433 12 2 C14.89525965 5.10972333 17.03827492 8.60303297 16.96875 12.95703125 C16.66147457 15.91455723 16.34091612 18.35827553 14.9375 21 C13.42940794 24.21726305 13.87718468 27.50658653 14 31 C14 32.32 14 33.64 14 35 C10.96663814 35.22893297 8.02534949 35.36475845 5 35 C2.9375 33 2.9375 33 2 31 C2.78375 30.525625 3.5675 30.05125 4.375 29.5625 C7.55605688 26.45718257 7.88747609 24.39260089 8.54296875 20.12109375 C9 18 9 18 11 15 C9.02 15 7.04 15 5 15 C4.67 16.98 4.34 18.96 4 21 C3.34 21 2.68 21 2 21 C2.06006078 19.54052295 2.1488689 18.08220728 2.25 16.625 C2.29640625 15.81289062 2.3428125 15.00078125 2.390625 14.1640625 C3 12 3 12 5.046875 10.7109375 C6.01367188 10.35902344 6.01367188 10.35902344 7 10 C7 8.35 7 6.7 7 5 C3.37471432 4.79859524 1.13498292 5.14223235 -2 7 C-2.33 5.68 -2.66 4.36 -3 3 C-2.34 3 -1.68 3 -1 3 C-0.67 2.01 -0.34 1.02 0 0 Z " fill="#755542" transform="translate(173,163)"/>
<path d="M0 0 C0.680625 0.763125 1.36125 1.52625 2.0625 2.3125 C8.18643086 7.91524525 13.83907491 8.44171482 21.80125427 8.39872742 C22.7709536 8.40537424 23.74065293 8.41202107 24.73973709 8.41886932 C27.97951239 8.4374783 31.21891769 8.43489539 34.45874023 8.43237305 C36.78487163 8.44139146 39.11099827 8.45171888 41.43711853 8.46325684 C47.74643269 8.49084341 54.05565671 8.50011367 60.36502337 8.50611091 C66.29236551 8.51453972 72.21964318 8.5366686 78.14694787 8.55872939 C89.88399901 8.60196816 101.62104487 8.6319515 113.3581543 8.65356445 C124.75694376 8.67458288 136.15568996 8.70186549 147.55444336 8.73754883 C148.25753525 8.73974765 148.96062714 8.74194648 149.68502485 8.74421193 C153.21237155 8.7552818 156.73971785 8.76647457 160.26706398 8.77772844 C189.51133522 8.87087231 218.75563784 8.94226795 248 9 C248 9.33 248 9.66 248 10 C217.90982487 10.19597557 187.81958716 10.37647909 157.72919392 10.53537826 C154.17688387 10.5541507 150.62457454 10.57305508 147.07226562 10.59204102 C146.36506379 10.59581856 145.65786195 10.59959611 144.92922975 10.60348812 C133.47777151 10.6649712 122.02640431 10.73714291 110.57503508 10.8132638 C98.82518734 10.89113088 87.0753152 10.95751373 75.32534134 11.01323253 C68.72542019 11.04502842 62.12562579 11.08217161 55.52581406 11.13199425 C49.31582171 11.17870688 43.10591695 11.21127267 36.89578819 11.2329216 C34.61489673 11.24337896 32.33402235 11.25903459 30.05320549 11.28024101 C26.94166877 11.30839819 23.83061126 11.31793749 20.71896362 11.32279968 C19.36194708 11.34174389 19.36194708 11.34174389 17.97751606 11.36107081 C10.63202011 11.33923415 5.36412424 9.20635588 0 4 C0 2.68 0 1.36 0 0 Z " fill="#B286EC" transform="translate(143,210)"/>
<path d="M0 0 C2.33333333 0 4.66666667 0 7 0 C7.845625 -0.020625 8.69125 -0.04125 9.5625 -0.0625 C12 0 12 0 13 1 C13.04080783 2.99958364 13.04254356 5.00045254 13 7 C13.99 7 14.98 7 16 7 C16.99 4.69 17.98 2.38 19 0 C19.99 0 20.98 0 22 0 C22.33 1.32 22.66 2.64 23 4 C23.33 2.68 23.66 1.36 24 0 C24.66 0 25.32 0 26 0 C26.33 1.65 26.66 3.3 27 5 C27.66 5 28.32 5 29 5 C29.66 3.68 30.32 2.36 31 1 C31.33 1 31.66 1 32 1 C32 3.64 32 6.28 32 9 C31.34 8.01 30.68 7.02 30 6 C29.67 6.99 29.34 7.98 29 9 C27.35 9.33 25.7 9.66 24 10 C24 9.34 24 8.68 24 8 C23.34 8 22.68 8 22 8 C22 8.66 22 9.32 22 10 C19.36 10 16.72 10 14 10 C14 9.34 14 8.68 14 8 C13.34 8 12.68 8 12 8 C12 8.66 12 9.32 12 10 C7.71 10 3.42 10 -1 10 C-0.67 8.35 -0.34 6.7 0 5 C0.99 4.67 1.98 4.34 3 4 C3.33 3.34 3.66 2.68 4 2 C2.68 2.33 1.36 2.66 0 3 C0 2.01 0 1.02 0 0 Z " fill="#B77CEC" transform="translate(214,189)"/>
<path d="M0 0 C1.21816406 0.03480469 1.21816406 0.03480469 2.4609375 0.0703125 C3.68683594 0.09738281 3.68683594 0.09738281 4.9375 0.125 C5.87722656 0.15980469 5.87722656 0.15980469 6.8359375 0.1953125 C6.8359375 0.5253125 6.8359375 0.8553125 6.8359375 1.1953125 C4.1959375 1.1953125 1.5559375 1.1953125 -1.1640625 1.1953125 C-1.1640625 2.1853125 -1.1640625 3.1753125 -1.1640625 4.1953125 C-1.8240625 4.1953125 -2.4840625 4.1953125 -3.1640625 4.1953125 C-2.8340625 4.8553125 -2.5040625 5.5153125 -2.1640625 6.1953125 C-1.2359375 5.8446875 -0.3078125 5.4940625 0.6484375 5.1328125 C3.8359375 4.1953125 3.8359375 4.1953125 6.8359375 5.1953125 C7.1659375 7.1753125 7.4959375 9.1553125 7.8359375 11.1953125 C6.5159375 11.5253125 5.1959375 11.8553125 3.8359375 12.1953125 C3.5059375 14.8353125 3.1759375 17.4753125 2.8359375 20.1953125 C2.1759375 18.8753125 1.5159375 17.5553125 0.8359375 16.1953125 C-1.1440625 16.5253125 -3.1240625 16.8553125 -5.1640625 17.1953125 C-5.1640625 18.8453125 -5.1640625 20.4953125 -5.1640625 22.1953125 C-7.1484375 21.01953125 -7.1484375 21.01953125 -9.1640625 19.1953125 C-9.5546875 16.71484375 -9.5546875 16.71484375 -9.4140625 14.0078125 C-9.37796875 13.10675781 -9.341875 12.20570313 -9.3046875 11.27734375 C-9.23507812 10.24673828 -9.23507812 10.24673828 -9.1640625 9.1953125 C-7.8440625 9.1953125 -6.5240625 9.1953125 -5.1640625 9.1953125 C-4.9784375 7.5246875 -4.9784375 7.5246875 -4.7890625 5.8203125 C-3.84539786 0.34705757 -3.84539786 0.34705757 0 0 Z " fill="#B58362" transform="translate(466.1640625,162.8046875)"/>
<path d="M0 0 C0 0.33 0 0.66 0 1 C-2.64 1 -5.28 1 -8 1 C-8 1.66 -8 2.32 -8 3 C-8.66 3 -9.32 3 -10 3 C-9.814375 4.11375 -9.62875 5.2275 -9.4375 6.375 C-9 10 -9 10 -10 12 C-9.01 12.33 -8.02 12.66 -7 13 C-7 13.99 -7 14.98 -7 16 C-8.65 16.33 -10.3 16.66 -12 17 C-11.67 18.65 -11.34 20.3 -11 22 C-11.66 22.33 -12.32 22.66 -13 23 C-13 22.34 -13 21.68 -13 21 C-13.99 21 -14.98 21 -16 21 C-16 20.01 -16 19.02 -16 18 C-16.66 18 -17.32 18 -18 18 C-18.84062281 14.17898724 -19.20356229 11.63613217 -18 7.875 C-13.16381726 0.92298731 -8.32239935 -0.84922442 0 0 Z " fill="#B18963" transform="translate(473,275)"/>
<path d="M0 0 C0 0.33 0 0.66 0 1 C-2.64 1 -5.28 1 -8 1 C-8 1.66 -8 2.32 -8 3 C-8.66 3 -9.32 3 -10 3 C-9.814375 4.11375 -9.62875 5.2275 -9.4375 6.375 C-9 10 -9 10 -10 12 C-9.01 12.33 -8.02 12.66 -7 13 C-7 13.99 -7 14.98 -7 16 C-8.65 16.33 -10.3 16.66 -12 17 C-11.67 18.65 -11.34 20.3 -11 22 C-11.66 22.33 -12.32 22.66 -13 23 C-13 22.34 -13 21.68 -13 21 C-13.99 21 -14.98 21 -16 21 C-16 20.01 -16 19.02 -16 18 C-16.66 18 -17.32 18 -18 18 C-18.84062281 14.17898724 -19.20356229 11.63613217 -18 7.875 C-13.16381726 0.92298731 -8.32239935 -0.84922442 0 0 Z " fill="#B18963" transform="translate(177,275)"/>
<path d="M0 0 C0.66 0 1.32 0 2 0 C2.33 2.97 2.66 5.94 3 9 C3.804375 9.268125 4.60875 9.53625 5.4375 9.8125 C6.283125 10.204375 7.12875 10.59625 8 11 C8.33 11.99 8.66 12.98 9 14 C9.515625 14.4125 10.03125 14.825 10.5625 15.25 C12.8039884 17.97876849 12.1923317 20.60213991 12 24 C8.59357814 23.70802098 7.06799804 23.05504603 4.375 20.875 C-0.08091132 15.48100209 -1.34420293 10.74849194 -1.203125 3.91796875 C-1 2 -1 2 0 0 Z " fill="#FAF6F3" transform="translate(158,173)"/>
<path d="M0 0 C1.33804688 0.04060547 1.33804688 0.04060547 2.703125 0.08203125 C3.37859375 0.11683594 4.0540625 0.15164062 4.75 0.1875 C5.08 0.8475 5.41 1.5075 5.75 2.1875 C2.78 2.1875 -0.19 2.1875 -3.25 2.1875 C-3.58 2.8475 -3.91 3.5075 -4.25 4.1875 C-4.91 4.1875 -5.57 4.1875 -6.25 4.1875 C-5.26 5.6725 -5.26 5.6725 -4.25 7.1875 C-3.92 7.8475 -3.59 8.5075 -3.25 9.1875 C-3.58 9.8475 -3.91 10.5075 -4.25 11.1875 C-4.91 11.1875 -5.57 11.1875 -6.25 11.1875 C-6.25 11.8475 -6.25 12.5075 -6.25 13.1875 C-5.26 13.1875 -4.27 13.1875 -3.25 13.1875 C-3.25 14.5075 -3.25 15.8275 -3.25 17.1875 C-5.23 17.1875 -7.21 17.1875 -9.25 17.1875 C-9.25 18.1775 -9.25 19.1675 -9.25 20.1875 C-10.24 20.1875 -11.23 20.1875 -12.25 20.1875 C-12.25 19.5275 -12.25 18.8675 -12.25 18.1875 C-12.91 18.1875 -13.57 18.1875 -14.25 18.1875 C-13.92 14.8875 -13.59 11.5875 -13.25 8.1875 C-12.59 8.1875 -11.93 8.1875 -11.25 8.1875 C-11.0025 7.424375 -10.755 6.66125 -10.5 5.875 C-8.19858508 0.92695793 -5.30091544 -0.20924666 0 0 Z " fill="#B38159" transform="translate(176.25,161.8125)"/>
<path d="M0 0 C2.475 0.99 2.475 0.99 5 2 C4.74412595 3.77305664 4.46972261 5.54344608 4.1875 7.3125 C4.03667969 8.29863281 3.88585937 9.28476562 3.73046875 10.30078125 C2.95599104 13.16262134 2.39543338 14.29555702 0 16 C-3.1875 16.1875 -3.1875 16.1875 -6 16 C-6.33 16.99 -6.66 17.98 -7 19 C-6.360625 19.28875 -5.72125 19.5775 -5.0625 19.875 C-3 21 -3 21 -2 23 C-3.98 23 -5.96 23 -8 23 C-9.04976964 19.85069107 -9.10131595 17.61185544 -9.0625 14.3125 C-9.05347656 13.31863281 -9.04445313 12.32476562 -9.03515625 11.30078125 C-9.02355469 10.54152344 -9.01195312 9.78226562 -9 9 C-8.01 9.495 -8.01 9.495 -7 10 C-6.34 9.34 -5.68 8.68 -5 8 C-5 7.34 -5 6.68 -5 6 C-4.34 6 -3.68 6 -3 6 C-3 6.66 -3 7.32 -3 8 C-2.34 8 -1.68 8 -1 8 C-1.020625 6.865625 -1.04125 5.73125 -1.0625 4.5625 C-1 1 -1 1 0 0 Z " fill="#B98066" transform="translate(471,289)"/>
<path d="M0 0 C2.475 0.99 2.475 0.99 5 2 C4.74412595 3.77305664 4.46972261 5.54344608 4.1875 7.3125 C4.03667969 8.29863281 3.88585937 9.28476562 3.73046875 10.30078125 C2.95599104 13.16262134 2.39543338 14.29555702 0 16 C-3.1875 16.1875 -3.1875 16.1875 -6 16 C-6.33 16.99 -6.66 17.98 -7 19 C-6.360625 19.28875 -5.72125 19.5775 -5.0625 19.875 C-3 21 -3 21 -2 23 C-3.98 23 -5.96 23 -8 23 C-9.04976964 19.85069107 -9.10131595 17.61185544 -9.0625 14.3125 C-9.05347656 13.31863281 -9.04445312 12.32476562 -9.03515625 11.30078125 C-9.02355469 10.54152344 -9.01195312 9.78226562 -9 9 C-8.01 9.495 -8.01 9.495 -7 10 C-6.34 9.34 -5.68 8.68 -5 8 C-5 7.34 -5 6.68 -5 6 C-4.34 6 -3.68 6 -3 6 C-3 6.66 -3 7.32 -3 8 C-2.34 8 -1.68 8 -1 8 C-1.020625 6.865625 -1.04125 5.73125 -1.0625 4.5625 C-1 1 -1 1 0 0 Z " fill="#B98066" transform="translate(175,289)"/>
<path d="M0 0 C0.66 0.33 1.32 0.66 2 1 C1.67 1.99 1.34 2.98 1 4 C0.34 4 -0.32 4 -1 4 C-0.690625 4.680625 -0.38125 5.36125 -0.0625 6.0625 C1.13370649 9.36965912 1.59005397 12.51545878 2 16 C0.35 16.33 -1.3 16.66 -3 17 C-3 18.65 -3 20.3 -3 22 C-4.5 20.625 -4.5 20.625 -6 19 C-6 18.34 -6 17.68 -6 17 C-6.99 16.67 -7.98 16.34 -9 16 C-8.67 13.36 -8.34 10.72 -8 8 C-7.34 8 -6.68 8 -6 8 C-6 7.01 -6 6.02 -6 5 C-4.17806158 3.0750353 -2.10764717 1.62464469 0 0 Z " fill="#AB7A58" transform="translate(464,51)"/>
<path d="M0 0 C0.66 0.33 1.32 0.66 2 1 C1.67 1.99 1.34 2.98 1 4 C0.34 4 -0.32 4 -1 4 C-0.690625 4.680625 -0.38125 5.36125 -0.0625 6.0625 C1.13370649 9.36965912 1.59005397 12.51545878 2 16 C0.35 16.33 -1.3 16.66 -3 17 C-3 18.65 -3 20.3 -3 22 C-4.5 20.625 -4.5 20.625 -6 19 C-6 18.34 -6 17.68 -6 17 C-6.99 16.67 -7.98 16.34 -9 16 C-8.67 13.36 -8.34 10.72 -8 8 C-7.34 8 -6.68 8 -6 8 C-6 7.01 -6 6.02 -6 5 C-4.17806158 3.0750353 -2.10764717 1.62464469 0 0 Z " fill="#AB7A58" transform="translate(168,51)"/>
<path d="M0 0 C0.680625 0.763125 1.36125 1.52625 2.0625 2.3125 C7.45402193 7.245169 12.31903155 8.37018225 19.49584961 8.43237305 C20.20888245 8.4425647 20.92191528 8.45275635 21.65655518 8.46325684 C23.9885666 8.49319608 26.32016603 8.50262304 28.65234375 8.51171875 C30.27903081 8.52857967 31.90570495 8.5467318 33.53236389 8.56611633 C37.79509443 8.61346932 42.05777258 8.64337344 46.32067871 8.66955566 C50.67808372 8.69943571 55.0353085 8.74594034 59.39257812 8.79101562 C67.92829655 8.87688132 76.46403166 8.9443006 85 9 C85 9.33 85 9.66 85 10 C77.99729549 10.14558491 70.99452366 10.28755072 63.99169922 10.42724609 C61.61993836 10.47495669 59.24819275 10.52343256 56.87646484 10.57275391 C50.01970748 10.71505849 43.16298239 10.84120969 36.30554199 10.94580078 C34.11997929 10.98163629 31.93449795 11.02288563 29.74914551 11.06982422 C26.72081992 11.13396531 23.69278934 11.17870178 20.6640625 11.21875 C19.77069183 11.24199341 18.87732117 11.26523682 17.95687866 11.28918457 C10.6016604 11.35151466 5.36804158 9.210158 0 4 C0 2.68 0 1.36 0 0 Z " fill="#E968EE" transform="translate(143,210)"/>
<path d="M0 0 C6.8359375 -0.29296875 6.8359375 -0.29296875 9 0 C11 3 11 3 10.75 5.5625 C10 8 10 8 8 10 C5.375 10.125 5.375 10.125 3 10 C3 11.65 3 13.3 3 15 C2.01 15 1.02 15 0 15 C0 10.05 0 5.1 0 0 Z " fill="#9EBDEF" transform="translate(275,161)"/>
<path d="M0 0 C4.5009052 -0.17650609 8.01029221 -0.21650433 12 2 C13.875 3.875 13.875 3.875 15 6 C14.6875 8.25 14.6875 8.25 14 10 C14 9.01 14 8.02 14 7 C12.68 6.67 11.36 6.34 10 6 C10.33 5.01 10.66 4.02 11 3 C10.01 3.495 10.01 3.495 9 4 C8.94600264 5.45792884 8.90720823 6.91642712 8.875 8.375 C8.85179687 9.18710938 8.82859375 9.99921875 8.8046875 10.8359375 C8.78629949 13.21342243 8.78629949 13.21342243 11 15 C9.02 15 7.04 15 5 15 C4.67 16.98 4.34 18.96 4 21 C3.34 21 2.68 21 2 21 C2.06006078 19.54052295 2.1488689 18.08220728 2.25 16.625 C2.29640625 15.81289062 2.3428125 15.00078125 2.390625 14.1640625 C3 12 3 12 5.046875 10.7109375 C6.01367188 10.35902344 6.01367188 10.35902344 7 10 C7 8.35 7 6.7 7 5 C3.37471432 4.79859524 1.13498292 5.14223235 -2 7 C-2.33 5.68 -2.66 4.36 -3 3 C-2.34 3 -1.68 3 -1 3 C-0.67 2.01 -0.34 1.02 0 0 Z " fill="#8B6142" transform="translate(173,163)"/>
<path d="M0 0 C1.67542976 0.28604898 3.34385343 0.61781233 5 1 C5.33 2.65 5.66 4.3 6 6 C5.360625 6.185625 4.72125 6.37125 4.0625 6.5625 C1.60697604 7.9151029 1.60697604 7.9151029 1.375 11.375 C1.25125 12.57125 1.1275 13.7675 1 15 C-0.0625 17.4375 -0.0625 17.4375 -1 19 C-2.875 18.8125 -2.875 18.8125 -5 18 C-6.25 15.4375 -6.25 15.4375 -7 13 C-5.35 12.67 -3.7 12.34 -2 12 C-2 10.68 -2 9.36 -2 8 C-2.99 8 -3.98 8 -5 8 C-5 7.34 -5 6.68 -5 6 C-4.34 6 -3.68 6 -3 6 C-2.690625 5.195625 -2.38125 4.39125 -2.0625 3.5625 C-1 1 -1 1 0 0 Z " fill="#E0B694" transform="translate(175,167)"/>
<path d="M0 0 C1.33333333 0 2.66666667 0 4 0 C4.12375 0.804375 4.2475 1.60875 4.375 2.4375 C4.58125 3.283125 4.7875 4.12875 5 5 C5.66 5.33 6.32 5.66 7 6 C6 9 6 9 4.4375 10.1875 C0.88877617 11.37040794 -2.26701621 11.12443279 -6 11 C-6.66 9.02 -7.32 7.04 -8 5 C-6.20963542 3.99088542 -4.41927083 2.98177083 -2.62890625 1.97265625 C-1.02121854 1.1027487 -1.02121854 1.1027487 0 0 Z " fill="#5B4132" transform="translate(475,77)"/>
<path d="M0 0 C1.33333333 0 2.66666667 0 4 0 C4.12375 0.804375 4.2475 1.60875 4.375 2.4375 C4.58125 3.283125 4.7875 4.12875 5 5 C5.66 5.33 6.32 5.66 7 6 C6 9 6 9 4.4375 10.1875 C0.88877617 11.37040794 -2.26701621 11.12443279 -6 11 C-6.66 9.02 -7.32 7.04 -8 5 C-6.20963542 3.99088542 -4.41927083 2.98177083 -2.62890625 1.97265625 C-1.02121854 1.1027487 -1.02121854 1.1027487 0 0 Z " fill="#5B4132" transform="translate(179,77)"/>
<path d="M0 0 C0 0.99 0 1.98 0 3 C1.32 3.33 2.64 3.66 4 4 C4 4.99 4 5.98 4 7 C2.68 7.33 1.36 7.66 0 8 C-0.33 10.64 -0.66 13.28 -1 16 C-1.99 16 -2.98 16 -4 16 C-3.67 16.99 -3.34 17.98 -3 19 C-3.99 19 -4.98 19 -6 19 C-6.33 17.68 -6.66 16.36 -7 15 C-7.66 15 -8.32 15 -9 15 C-9 14.34 -9 13.68 -9 13 C-7.35 12.67 -5.7 12.34 -4 12 C-4.350625 11.443125 -4.70125 10.88625 -5.0625 10.3125 C-6.2500817 7.3831318 -5.99130348 5.97391045 -5 3 C-2.62068966 0 -2.62068966 0 0 0 Z " fill="#E1B694" transform="translate(470,55)"/>
<path d="M0 0 C0 0.99 0 1.98 0 3 C1.32 3.33 2.64 3.66 4 4 C4 4.99 4 5.98 4 7 C2.68 7.33 1.36 7.66 0 8 C-0.33 10.64 -0.66 13.28 -1 16 C-1.99 16 -2.98 16 -4 16 C-3.67 16.99 -3.34 17.98 -3 19 C-3.99 19 -4.98 19 -6 19 C-6.33 17.68 -6.66 16.36 -7 15 C-7.66 15 -8.32 15 -9 15 C-9 14.34 -9 13.68 -9 13 C-7.35 12.67 -5.7 12.34 -4 12 C-4.350625 11.443125 -4.70125 10.88625 -5.0625 10.3125 C-6.2500817 7.3831318 -5.99130348 5.97391045 -5 3 C-2.62068966 0 -2.62068966 0 0 0 Z " fill="#E1B694" transform="translate(174,55)"/>
<path d="M0 0 C0.79921875 0.00902344 1.5984375 0.01804688 2.421875 0.02734375 C3.02515625 0.03894531 3.6284375 0.05054688 4.25 0.0625 C1.38394967 1.65185519 -1.0200708 2.34792114 -4.25 2.8125 C-8.1426672 3.59231182 -8.57851639 3.84264922 -11.1875 7.1875 C-11.703125 8.13625 -12.21875 9.085 -12.75 10.0625 C-13.41 10.0625 -14.07 10.0625 -14.75 10.0625 C-14.729375 11.34125 -14.70875 12.62 -14.6875 13.9375 C-14.625 17.8125 -14.625 17.8125 -15.75 20.0625 C-15.09 20.0625 -14.43 20.0625 -13.75 20.0625 C-11.4216065 21.83207906 -10.79711194 22.87833516 -10.0625 25.75 C-9.959375 26.513125 -9.85625 27.27625 -9.75 28.0625 C-10.41 27.7325 -11.07 27.4025 -11.75 27.0625 C-11.75 26.0725 -11.75 25.0825 -11.75 24.0625 C-12.54148438 23.85109375 -13.33296875 23.6396875 -14.1484375 23.421875 C-16.75 22.0625 -16.75 22.0625 -17.8515625 19.453125 C-19.22335951 11.22234296 -19.22335951 11.22234296 -17.92578125 8.04296875 C-13.19542204 2.14867258 -7.30168695 -0.10737775 0 0 Z " fill="#E6DAE3" transform="translate(177.75,159.9375)"/>
<path d="M0 0 C8.85699167 -0.61912951 8.85699167 -0.61912951 13 1.625 C15.26870488 4.31908705 16.15060066 6.60240263 17 10 C16.34 10 15.68 10 15 10 C15 9.01 15 8.02 15 7 C14.34 7 13.68 7 13 7 C13 7.66 13 8.32 13 9 C12.01 9 11.02 9 10 9 C10 9.66 10 10.32 10 11 C8.35 11 6.7 11 5 11 C6.32 10.67 7.64 10.34 9 10 C8.67 8.02 8.34 6.04 8 4 C4.37471432 3.79859524 2.13498292 4.14223235 -1 6 C-1.33 5.01 -1.66 4.02 -2 3 C-1.34 3 -0.68 3 0 3 C0 2.01 0 1.02 0 0 Z " fill="#745B43" transform="translate(465,164)"/>
<path d="M0 0 C1.134375 0.020625 2.26875 0.04125 3.4375 0.0625 C3.49139087 2.02053507 3.53024217 3.97898909 3.5625 5.9375 C3.58570313 7.02804688 3.60890625 8.11859375 3.6328125 9.2421875 C3.4375 12.0625 3.4375 12.0625 1.4375 14.0625 C0.4475 13.7325 -0.5425 13.4025 -1.5625 13.0625 C-0.5725 12.0725 0.4175 11.0825 1.4375 10.0625 C0.261875 10.1553125 0.261875 10.1553125 -0.9375 10.25 C-2.236875 10.1571875 -2.236875 10.1571875 -3.5625 10.0625 C-5.5625 7.0625 -5.5625 7.0625 -5.25 3.9375 C-4.32657507 0.07590483 -4.32657507 0.07590483 0 0 Z " fill="#C9E9F7" transform="translate(347.5625,165.9375)"/>
<path d="M0 0 C1.134375 0.020625 2.26875 0.04125 3.4375 0.0625 C3.4375 4.3525 3.4375 8.6425 3.4375 13.0625 C1.7875 13.3925 0.1375 13.7225 -1.5625 14.0625 C-1.5625 13.4025 -1.5625 12.7425 -1.5625 12.0625 C-0.5725 12.0625 0.4175 12.0625 1.4375 12.0625 C1.4375 11.4025 1.4375 10.7425 1.4375 10.0625 C-0.2125 10.0625 -1.8625 10.0625 -3.5625 10.0625 C-5.05356457 7.08037087 -4.68191467 4.34640342 -4.5625 1.0625 C-3.5625 0.0625 -3.5625 0.0625 0 0 Z " fill="#E1E1F9" transform="translate(241.5625,165.9375)"/>
<path d="M0 0 C3.3 0 6.6 0 10 0 C10 4 10 8 10 12 C9.34 12 8.68 12 8 12 C7.67 12.66 7.34 13.32 7 14 C6.67 14 6.34 14 6 14 C5.67 16.31 5.34 18.62 5 21 C4.34 21 3.68 21 3 21 C3.14107747 19.54119891 3.28802415 18.08296449 3.4375 16.625 C3.51871094 15.81289063 3.59992188 15.00078125 3.68359375 14.1640625 C4 12 4 12 5 10 C6.32 10 7.64 10 9 10 C8.67 8.02 8.34 6.04 8 4 C5.62625139 3.66574265 5.62625139 3.66574265 3 4 C1.29467677 5.94009522 1.29467677 5.94009522 0 8 C-0.66 8 -1.32 8 -2 8 C-3.125 4.25 -3.125 4.25 -2 2 C-1.34 2 -0.68 2 0 2 C0 1.34 0 0.68 0 0 Z " fill="#896246" transform="translate(465,276)"/>
<path d="M0 0 C3.3 0 6.6 0 10 0 C10 4 10 8 10 12 C9.34 12 8.68 12 8 12 C7.67 12.66 7.34 13.32 7 14 C6.67 14 6.34 14 6 14 C5.67 16.31 5.34 18.62 5 21 C4.34 21 3.68 21 3 21 C3.14107747 19.54119891 3.28802415 18.08296449 3.4375 16.625 C3.51871094 15.81289063 3.59992188 15.00078125 3.68359375 14.1640625 C4 12 4 12 5 10 C6.32 10 7.64 10 9 10 C8.67 8.02 8.34 6.04 8 4 C5.62625139 3.66574265 5.62625139 3.66574265 3 4 C1.29467677 5.94009522 1.29467677 5.94009522 0 8 C-0.66 8 -1.32 8 -2 8 C-3.125 4.25 -3.125 4.25 -2 2 C-1.34 2 -0.68 2 0 2 C0 1.34 0 0.68 0 0 Z " fill="#896246" transform="translate(169,276)"/>
<path d="M0 0 C4 0 8 0 12 0 C11.835 0.763125 11.67 1.52625 11.5 2.3125 C10.90854604 5.03596236 10.90854604 5.03596236 11 8 C9.68 7.67 8.36 7.34 7 7 C6.67 7.99 6.34 8.98 6 10 C3.69 10 1.38 10 -1 10 C-0.67 8.35 -0.34 6.7 0 5 C0.99 4.67 1.98 4.34 3 4 C3.33 3.34 3.66 2.68 4 2 C2.68 2.33 1.36 2.66 0 3 C0 2.01 0 1.02 0 0 Z " fill="#AD57E7" transform="translate(214,189)"/>
<path d="M0 0 C2.5 -0.375 2.5 -0.375 5 0 C7.30441554 3.45662331 7.25860135 4.94857881 7 9 C6.67 9.66 6.34 10.32 6 11 C3.125 11.1875 3.125 11.1875 0 11 C-2.1642235 7.75366476 -2.37569856 6.75698557 -2 3 C-1.34 2.01 -0.68 1.02 0 0 Z " fill="#D8D3F7" transform="translate(227,165)"/>
<path d="M0 0 C2.00720923 0.28674418 4.0085944 0.61866701 6 1 C5.57835981 2.98260599 5.13721222 4.96107245 4.6875 6.9375 C4.44386719 8.03964844 4.20023438 9.14179688 3.94921875 10.27734375 C3.63597656 11.17582031 3.32273438 12.07429687 3 13 C2.01 13.33 1.02 13.66 0 14 C0 13.34 0 12.68 0 12 C-2.97 11.505 -2.97 11.505 -6 11 C-5.67 9.35 -5.34 7.7 -5 6 C-3.02 6.495 -3.02 6.495 -1 7 C-1.020625 6.030625 -1.04125 5.06125 -1.0625 4.0625 C-1 1 -1 1 0 0 Z " fill="#CB9574" transform="translate(178,177)"/>
<path d="M0 0 C0.66 0 1.32 0 2 0 C2 2.97 2 5.94 2 9 C1.34 9 0.68 9 0 9 C-0.33 8.01 -0.66 7.02 -1 6 C-1.33 7.32 -1.66 8.64 -2 10 C-4.64 9.67 -7.28 9.34 -10 9 C-10 7.02 -10 5.04 -10 3 C-6.47652211 2.0604059 -3.68770169 2 0 2 C0 1.34 0 0.68 0 0 Z " fill="#A597ED" transform="translate(285,189)"/>
<path d="M0 0 C1.1446875 0.3403125 1.1446875 0.3403125 2.3125 0.6875 C2.6425 2.6675 2.9725 4.6475 3.3125 6.6875 C1.9925 6.6875 0.6725 6.6875 -0.6875 6.6875 C-1.0175 9.6575 -1.3475 12.6275 -1.6875 15.6875 C-3.57963369 13.30176621 -4.71141783 11.61574652 -5.6875 8.6875 C-6.3475 8.3575 -7.0075 8.0275 -7.6875 7.6875 C-4.79076087 -0.55706522 -4.79076087 -0.55706522 0 0 Z " fill="#E8C09D" transform="translate(470.6875,279.3125)"/>
<path d="M0 0 C1.1446875 0.3403125 1.1446875 0.3403125 2.3125 0.6875 C2.6425 2.6675 2.9725 4.6475 3.3125 6.6875 C1.9925 6.6875 0.6725 6.6875 -0.6875 6.6875 C-1.0175 9.6575 -1.3475 12.6275 -1.6875 15.6875 C-3.57963369 13.30176621 -4.71141783 11.61574652 -5.6875 8.6875 C-6.3475 8.3575 -7.0075 8.0275 -7.6875 7.6875 C-4.79076087 -0.55706522 -4.79076087 -0.55706522 0 0 Z " fill="#E8C09D" transform="translate(174.6875,279.3125)"/>
<path d="M0 0 C2.00720923 0.28674418 4.0085944 0.61866701 6 1 C5.690625 1.495 5.38125 1.99 5.0625 2.5 C4.03771524 4.91125826 3.78714563 6.55093549 3.5625 9.125 C3.376875 10.40375 3.19125 11.6825 3 13 C2.01 13.66 1.02 14.32 0 15 C0 14.01 0 13.02 0 12 C-1.65 11.67 -3.3 11.34 -5 11 C-5 9.35 -5 7.7 -5 6 C-4.34 6 -3.68 6 -3 6 C-3 6.66 -3 7.32 -3 8 C-2.34 8 -1.68 8 -1 8 C-1.020625 6.865625 -1.04125 5.73125 -1.0625 4.5625 C-1 1 -1 1 0 0 Z " fill="#BA8166" transform="translate(471,177)"/>
<path d="M0 0 C3 3.75 3 3.75 3 6 C4.98 6 6.96 6 9 6 C8.67 6.66 8.34 7.32 8 8 C7.01 8 6.02 8 5 8 C6.03712176 10.08261145 6.03712176 10.08261145 8 12 C11.60465748 12.81314911 11.60465748 12.81314911 15 13 C11.842224 15.105184 11.04602866 15.25289344 7.4375 15.1875 C6.65246094 15.18105469 5.86742187 15.17460937 5.05859375 15.16796875 C3 15 3 15 1 14 C0.5859375 10.83984375 0.5859375 10.83984375 0.375 6.9375 C0.30023438 5.64714844 0.22546875 4.35679687 0.1484375 3.02734375 C0.09945313 2.02832031 0.05046875 1.02929688 0 0 Z " fill="#C9A084" transform="translate(462,186)"/>
<path d="M0 0 C0.66 0 1.32 0 2 0 C2 0.66 2 1.32 2 2 C4.64 2.33 7.28 2.66 10 3 C10.33 4.98 10.66 6.96 11 9 C7.37 9 3.74 9 0 9 C0 6.03 0 3.06 0 0 Z " fill="#AD91ED" transform="translate(263,189)"/>
<path d="M0 0 C0.99 0.495 0.99 0.495 2 1 C2.99 0.67 3.98 0.34 5 0 C5 0.99 5 1.98 5 3 C6.32 3 7.64 3 9 3 C9 4.32 9 5.64 9 7 C7.02 7 5.04 7 3 7 C2.67 7.99 2.34 8.98 2 10 C2.639375 10.28875 3.27875 10.5775 3.9375 10.875 C6 12 6 12 7 14 C5.02 14 3.04 14 1 14 C-0.04976964 10.85069107 -0.10131595 8.61185544 -0.0625 5.3125 C-0.05347656 4.31863281 -0.04445313 3.32476562 -0.03515625 2.30078125 C-0.02355469 1.54152344 -0.01195312 0.78226562 0 0 Z " fill="#C89979" transform="translate(462,298)"/>
<path d="M0 0 C0.99 0.495 0.99 0.495 2 1 C2.99 0.67 3.98 0.34 5 0 C5 0.99 5 1.98 5 3 C6.32 3 7.64 3 9 3 C9 4.32 9 5.64 9 7 C7.02 7 5.04 7 3 7 C2.67 7.99 2.34 8.98 2 10 C2.639375 10.28875 3.27875 10.5775 3.9375 10.875 C6 12 6 12 7 14 C5.02 14 3.04 14 1 14 C-0.04976964 10.85069107 -0.10131595 8.61185544 -0.0625 5.3125 C-0.05347656 4.31863281 -0.04445312 3.32476562 -0.03515625 2.30078125 C-0.02355469 1.54152344 -0.01195312 0.78226562 0 0 Z " fill="#C89979" transform="translate(166,298)"/>
<path d="M0 0 C2.64 0 5.28 0 8 0 C8 0.66 8 1.32 8 2 C6.02 2 4.04 2 2 2 C2 2.99 2 3.98 2 5 C3.32 5 4.64 5 6 5 C6 5.99 6 6.98 6 8 C4.68 8 3.36 8 2 8 C2 9.32 2 10.64 2 12 C3.98 12 5.96 12 8 12 C8 12.66 8 13.32 8 14 C5.36 14 2.72 14 0 14 C0 9.38 0 4.76 0 0 Z " fill="#C4E2F6" transform="translate(320,162)"/>
<path d="M0 0 C1.99954746 -0.04254356 4.00041636 -0.04080783 6 0 C7 1 7 1 7.09765625 3.06640625 C7.08605469 3.89011719 7.07445312 4.71382812 7.0625 5.5625 C7.05347656 6.38878906 7.04445313 7.21507812 7.03515625 8.06640625 C7.02355469 8.70449219 7.01195312 9.34257812 7 10 C4.69 10 2.38 10 0 10 C-0.625 7.625 -0.625 7.625 -1 5 C-0.34 4.34 0.32 3.68 1 3 C2.32 3 3.64 3 5 3 C5 2.34 5 1.68 5 1 C3.35 1.33 1.7 1.66 0 2 C0 1.34 0 0.68 0 0 Z " fill="#DFDFF8" transform="translate(249,166)"/>
<path d="M0 0 C2.00720923 0.28674418 4.0085944 0.61866701 6 1 C5.46148032 6.27749285 4.22656164 10.25645564 2 15 C0.87241911 11.61725734 1.18249738 10.23221777 1.9375 6.8125 C2.13214844 5.91144531 2.32679688 5.01039062 2.52734375 4.08203125 C2.68332031 3.39496094 2.83929688 2.70789063 3 2 C2.01 2 1.02 2 0 2 C0.33 4.97 0.66 7.94 1 11 C-1.31 11 -3.62 11 -6 11 C-5.34 10.67 -4.68 10.34 -4 10 C-4.33 8.68 -4.66 7.36 -5 6 C-4.34 6 -3.68 6 -3 6 C-3 6.66 -3 7.32 -3 8 C-2.34 8 -1.68 8 -1 8 C-1.020625 6.865625 -1.04125 5.73125 -1.0625 4.5625 C-1 1 -1 1 0 0 Z " fill="#BA8166" transform="translate(471,65)"/>
<path d="M0 0 C2.00720923 0.28674418 4.0085944 0.61866701 6 1 C5.46148032 6.27749285 4.22656164 10.25645564 2 15 C0.87241911 11.61725734 1.18249738 10.23221777 1.9375 6.8125 C2.13214844 5.91144531 2.32679688 5.01039062 2.52734375 4.08203125 C2.68332031 3.39496094 2.83929688 2.70789063 3 2 C2.01 2 1.02 2 0 2 C0.33 4.97 0.66 7.94 1 11 C-1.31 11 -3.62 11 -6 11 C-5.34 10.67 -4.68 10.34 -4 10 C-4.33 8.68 -4.66 7.36 -5 6 C-4.34 6 -3.68 6 -3 6 C-3 6.66 -3 7.32 -3 8 C-2.34 8 -1.68 8 -1 8 C-1.020625 6.865625 -1.04125 5.73125 -1.0625 4.5625 C-1 1 -1 1 0 0 Z " fill="#BA8166" transform="translate(175,65)"/>
<path d="M0 0 C6.29213483 -0.36300778 6.29213483 -0.36300778 9.4375 1.25 C11 3 11 3 11 7 C10.443125 6.855625 9.88625 6.71125 9.3125 6.5625 C8.549375 6.376875 7.78625 6.19125 7 6 C6.175 5.773125 5.35 5.54625 4.5 5.3125 C1.60892503 4.95111563 0.4264363 5.47224381 -2 7 C-2.33 6.01 -2.66 5.02 -3 4 C-2.34 4 -1.68 4 -1 4 C-0.67 2.68 -0.34 1.36 0 0 Z " fill="#745034" transform="translate(466,51)"/>
<path d="M0 0 C6.29213483 -0.36300778 6.29213483 -0.36300778 9.4375 1.25 C11 3 11 3 11 7 C10.443125 6.855625 9.88625 6.71125 9.3125 6.5625 C8.549375 6.376875 7.78625 6.19125 7 6 C6.175 5.773125 5.35 5.54625 4.5 5.3125 C1.60892503 4.95111563 0.4264363 5.47224381 -2 7 C-2.33 6.01 -2.66 5.02 -3 4 C-2.34 4 -1.68 4 -1 4 C-0.67 2.68 -0.34 1.36 0 0 Z " fill="#745034" transform="translate(170,51)"/>
<path d="M0 0 C1.1446875 0.3403125 1.1446875 0.3403125 2.3125 0.6875 C2.6425 2.6675 2.9725 4.6475 3.3125 6.6875 C-0.36160785 7.86321451 -3.85679183 7.76116746 -7.6875 7.6875 C-4.79076087 -0.55706522 -4.79076087 -0.55706522 0 0 Z " fill="#E6BE9B" transform="translate(470.6875,167.3125)"/>
<path d="M0 0 C1.99954746 -0.04254356 4.00041636 -0.04080783 6 0 C7 1 7 1 7.09765625 3.06640625 C7.08605469 3.89011719 7.07445312 4.71382812 7.0625 5.5625 C7.05347656 6.38878906 7.04445313 7.21507812 7.03515625 8.06640625 C7.02355469 8.70449219 7.01195312 9.34257812 7 10 C4.69 10 2.38 10 0 10 C-0.38218767 8.34385343 -0.71395102 6.67542976 -1 5 C0 4 0 4 2.5625 3.9375 C3.7690625 3.9684375 3.7690625 3.9684375 5 4 C5 3.01 5 2.02 5 1 C3.35 1.33 1.7 1.66 0 2 C0 1.34 0 0.68 0 0 Z " fill="#C2D5F5" transform="translate(288,166)"/>
<path d="M0 0 C0.66 2.64 1.32 5.28 2 8 C-1.03336186 8.22893297 -3.97465051 8.36475845 -7 8 C-9.0625 6 -9.0625 6 -10 4 C-8.52184338 3.3310968 -7.04244528 2.66493641 -5.5625 2 C-4.73878906 1.62875 -3.91507813 1.2575 -3.06640625 0.875 C-1 0 -1 0 0 0 Z " fill="#593B2E" transform="translate(185,190)"/>
<path d="M0 0 C0.66 0 1.32 0 2 0 C2 0.99 2 1.98 2 3 C2.66 3 3.32 3 4 3 C4 4.32 4 5.64 4 7 C3.01 7 2.02 7 1 7 C1 6.34 1 5.68 1 5 C0.34 5.66 -0.32 6.32 -1 7 C-4.125 7.125 -4.125 7.125 -7 7 C-7.33 9.31 -7.66 11.62 -8 14 C-8.66 14 -9.32 14 -10 14 C-9.67 10.7 -9.34 7.4 -9 4 C-7.02 4 -5.04 4 -3 4 C-3 3.34 -3 2.68 -3 2 C-2.01 2 -1.02 2 0 2 C0 1.34 0 0.68 0 0 Z " fill="#7B523C" transform="translate(478,171)"/>
<path d="M0 0 C0 2.83967231 -0.40267181 5.23735711 -1 8 C0.98 8 2.96 8 5 8 C3 10 3 10 -0.3125 10.375 C-4.51083317 9.94805086 -6.01974864 8.88994071 -9 6 C-8.67 4.68 -8.34 3.36 -8 2 C-7.05125 2.04125 -6.1025 2.0825 -5.125 2.125 C-1.89755144 2.34973818 -1.89755144 2.34973818 0 0 Z " fill="#7A543D" transform="translate(473,302)"/>
<path d="M0 0 C0 2.83967231 -0.40267181 5.23735711 -1 8 C0.98 8 2.96 8 5 8 C3 10 3 10 -0.3125 10.375 C-4.51083317 9.94805086 -6.01974864 8.88994071 -9 6 C-8.67 4.68 -8.34 3.36 -8 2 C-7.05125 2.04125 -6.1025 2.0825 -5.125 2.125 C-1.89755144 2.34973818 -1.89755144 2.34973818 0 0 Z " fill="#7A543D" transform="translate(177,302)"/>
<path d="M0 0 C3.375 -0.1875 3.375 -0.1875 7 0 C9.67927341 4.01891012 9.15601248 6.24161923 9 11 C8.34 11 7.68 11 7 11 C6.67 8.69 6.34 6.38 6 4 C4.68 3.67 3.36 3.34 2 3 C2 5.64 2 8.28 2 11 C1.34 11 0.68 11 0 11 C0 7.37 0 3.74 0 0 Z " fill="#CBD4F6" transform="translate(259,165)"/>
<path d="M0 0 C1.875 0.3125 1.875 0.3125 4 1 C4.66 1.99 5.32 2.98 6 4 C8.19454681 4.57993699 8.19454681 4.57993699 10.625 4.6875 C11.44226563 4.75324219 12.25953125 4.81898438 13.1015625 4.88671875 C13.72804687 4.92410156 14.35453125 4.96148437 15 5 C11.90196361 8.09803639 9.54282728 7.96440477 5.1875 8.25 C0.86217008 8.21753974 -2.15856569 6.92071716 -6 5 C-2.67465243 3.89155081 -0.37817425 4.15545644 3 5 C2.01 3.35 1.02 1.7 0 0 Z " fill="#AC538A" transform="translate(172,193)"/>
<path d="M0 0 C0.12375 0.804375 0.2475 1.60875 0.375 2.4375 C0.58125 3.283125 0.7875 4.12875 1 5 C1.66 5.33 2.32 5.66 3 6 C2.67 6.99 2.34 7.98 2 9 C-0.97 8.67 -3.94 8.34 -7 8 C-7 6.68 -7 5.36 -7 4 C-1.77777778 0 -1.77777778 0 0 0 Z " fill="#5A4233" transform="translate(479,189)"/>
<path d="M0 0 C0.66 0 1.32 0 2 0 C2 0.99 2 1.98 2 3 C2.99 3.33 3.98 3.66 5 4 C6.1875 7.5625 6.1875 7.5625 7 11 C4.08517222 11.80967438 2.53886783 12.21845993 -0.3125 11.0625 C-0.869375 10.711875 -1.42625 10.36125 -2 10 C-1.34 10 -0.68 10 0 10 C-0.08378906 9.36191406 -0.16757813 8.72382813 -0.25390625 8.06640625 C-0.35574219 7.24011719 -0.45757812 6.41382813 -0.5625 5.5625 C-0.66691406 4.73878906 -0.77132812 3.91507813 -0.87890625 3.06640625 C-0.91886719 2.38449219 -0.95882812 1.70257813 -1 1 C-0.67 0.67 -0.34 0.34 0 0 Z " fill="#60442F" transform="translate(182,166)"/>
<path d="M0 0 C0.99 0 1.98 0 3 0 C3.33 0.66 3.66 1.32 4 2 C6.02463255 2.65213292 6.02463255 2.65213292 8 3 C8 4.32 8 5.64 8 7 C6.02 7 4.04 7 2 7 C2 7.99 2 8.98 2 10 C1.01 10 0.02 10 -1 10 C-1.125 3.375 -1.125 3.375 0 0 Z " fill="#8F6547" transform="translate(165,172)"/>
<path d="M0 0 C0.66 0 1.32 0 2 0 C2 0.66 2 1.32 2 2 C3.65 2.33 5.3 2.66 7 3 C8.28317892 6.84953676 8.06643637 9.94738135 8 14 C7.34 14 6.68 14 6 14 C6 11.36 6 8.72 6 6 C4.68 6.33 3.36 6.66 2 7 C1.67 9.31 1.34 11.62 1 14 C0.67 14 0.34 14 0 14 C0 9.38 0 4.76 0 0 Z " fill="#C1EFF7" transform="translate(374,162)"/>
<path d="M0 0 C2.64 0 5.28 0 8 0 C7.67 0.66 7.34 1.32 7 2 C6.01 2 5.02 2 4 2 C5.1678266 5.81413002 5.1678266 5.81413002 8.125 8.3125 C8.74375 8.539375 9.3625 8.76625 10 9 C5.45194365 9.17835515 2.1205746 8.99785435 -2 7 C-1.34 4.69 -0.68 2.38 0 0 Z " fill="#C9A084" transform="translate(463,80)"/>
<path d="M0 0 C2.64 0 5.28 0 8 0 C7.67 0.66 7.34 1.32 7 2 C6.01 2 5.02 2 4 2 C5.1678266 5.81413002 5.1678266 5.81413002 8.125 8.3125 C8.74375 8.539375 9.3625 8.76625 10 9 C5.45194365 9.17835515 2.1205746 8.99785435 -2 7 C-1.34 4.69 -0.68 2.38 0 0 Z " fill="#C9A084" transform="translate(167,80)"/>
<path d="M0 0 C1.32 0 2.64 0 4 0 C4 0.99 4 1.98 4 3 C4.66 3 5.32 3 6 3 C7.125 8.625 7.125 8.625 6 12 C4.35 12 2.7 12 1 12 C0.75 4.375 0.75 4.375 3 1 C2.01 0.67 1.02 0.34 0 0 Z " fill="#7D6552" transform="translate(473,290)"/>
<path d="M0 0 C1.32 0 2.64 0 4 0 C4 0.99 4 1.98 4 3 C4.66 3 5.32 3 6 3 C7.125 8.625 7.125 8.625 6 12 C4.35 12 2.7 12 1 12 C0.75 4.375 0.75 4.375 3 1 C2.01 0.67 1.02 0.34 0 0 Z " fill="#7D6552" transform="translate(177,290)"/>
<path d="M0 0 C3.37462715 0.54723683 5.08235 1.0549 8 3 C8 3.99 8 4.98 8 6 C6.02 6 4.04 6 2 6 C2 7.32 2 8.64 2 10 C1.34 10 0.68 10 0 10 C-1.125 2.25 -1.125 2.25 0 0 Z " fill="#A47456" transform="translate(458,285)"/>
<path d="M0 0 C3.37462715 0.54723683 5.08235 1.0549 8 3 C8 3.99 8 4.98 8 6 C6.02 6 4.04 6 2 6 C2 7.32 2 8.64 2 10 C1.34 10 0.68 10 0 10 C-1.125 2.25 -1.125 2.25 0 0 Z " fill="#A47456" transform="translate(162,285)"/>
<path d="M0 0 C2.97 0.495 2.97 0.495 6 1 C6.12375 1.639375 6.2475 2.27875 6.375 2.9375 C6.684375 3.9584375 6.684375 3.9584375 7 5 C7.66 5.33 8.32 5.66 9 6 C9 4.35 9 2.7 9 1 C9.33 1 9.66 1 10 1 C10 2.98 10 4.96 10 7 C6.7 7.33 3.4 7.66 0 8 C0 5.33333333 0 2.66666667 0 0 Z " fill="#B690ED" transform="translate(251,191)"/>
<path d="M0 0 C2.3125 0.5 2.3125 0.5 5 2 C6.34219295 4.5690412 7.20425705 7.21813439 8 10 C7.34 10 6.68 10 6 10 C6 9.01 6 8.02 6 7 C5.34 7 4.68 7 4 7 C4 7.66 4 8.32 4 9 C3.01 9 2.02 9 1 9 C1 9.99 1 10.98 1 12 C-0.65 11.67 -2.3 11.34 -4 11 C-2.68 10.67 -1.36 10.34 0 10 C-0.33 9.01 -0.66 8.02 -1 7 C-1.99 6.67 -2.98 6.34 -4 6 C-4 5.34 -4 4.68 -4 4 C-1.61435923 4.57584432 0.66682784 5.22227595 3 6 C3 4.68 3 3.36 3 2 C2.01 1.67 1.02 1.34 0 1 C0 0.67 0 0.34 0 0 Z " fill="#947357" transform="translate(474,52)"/>
<path d="M0 0 C2.3125 0.5 2.3125 0.5 5 2 C6.34219295 4.5690412 7.20425705 7.21813439 8 10 C7.34 10 6.68 10 6 10 C6 9.01 6 8.02 6 7 C5.34 7 4.68 7 4 7 C4 7.66 4 8.32 4 9 C3.01 9 2.02 9 1 9 C1 9.99 1 10.98 1 12 C-0.65 11.67 -2.3 11.34 -4 11 C-2.68 10.67 -1.36 10.34 0 10 C-0.33 9.01 -0.66 8.02 -1 7 C-1.99 6.67 -2.98 6.34 -4 6 C-4 5.34 -4 4.68 -4 4 C-1.61435923 4.57584432 0.66682784 5.22227595 3 6 C3 4.68 3 3.36 3 2 C2.01 1.67 1.02 1.34 0 1 C0 0.67 0 0.34 0 0 Z " fill="#947357" transform="translate(178,52)"/>
<path d="M0 0 C0.66 0 1.32 0 2 0 C2 1.32 2 2.64 2 4 C-0.5 5.625 -0.5 5.625 -3 7 C-3 7.66 -3 8.32 -3 9 C-0.69 9.66 1.62 10.32 4 11 C4 11.33 4 11.66 4 12 C2.56344146 12.08131463 1.1255517 12.13933559 -0.3125 12.1875 C-1.51326172 12.23970703 -1.51326172 12.23970703 -2.73828125 12.29296875 C-5 12 -5 12 -6.79296875 10.61328125 C-8 9 -8 9 -8 7 C-7.236875 6.54625 -6.47375 6.0925 -5.6875 5.625 C-2.9717328 3.9829082 -1.82635004 2.52210243 0 0 Z " fill="#74513C" transform="translate(475,187)"/>
<path d="M0 0 C0.66 0 1.32 0 2 0 C2 2.64 2 5.28 2 8 C3.32 8 4.64 8 6 8 C6 5.36 6 2.72 6 0 C6.66 0 7.32 0 8 0 C8 3.3 8 6.6 8 10 C5.69 10 3.38 10 1 10 C-0.60725635 6.78548731 -0.05748185 3.56387464 0 0 Z " fill="#DCE9F9" transform="translate(298,166)"/>
<path d="M0 0 C0.99 0 1.98 0 3 0 C3 4.95 3 9.9 3 15 C2.01 15 1.02 15 0 15 C0 10.05 0 5.1 0 0 Z " fill="#A9D1F2" transform="translate(309,161)"/>
<path d="M0 0 C2.64 0 5.28 0 8 0 C7.67 1.32 7.34 2.64 7 4 C6.21625 4.103125 5.4325 4.20625 4.625 4.3125 C1.66954819 4.77595022 1.66954819 4.77595022 0 8 C-0.66 8 -1.32 8 -2 8 C-3.125 4.25 -3.125 4.25 -2 2 C-1.34 2 -0.68 2 0 2 C0 1.34 0 0.68 0 0 Z " fill="#7A5033" transform="translate(465,276)"/>
<path d="M0 0 C2.64 0 5.28 0 8 0 C7.67 1.32 7.34 2.64 7 4 C6.21625 4.103125 5.4325 4.20625 4.625 4.3125 C1.66954819 4.77595022 1.66954819 4.77595022 0 8 C-0.66 8 -1.32 8 -2 8 C-3.125 4.25 -3.125 4.25 -2 2 C-1.34 2 -0.68 2 0 2 C0 1.34 0 0.68 0 0 Z " fill="#7A5033" transform="translate(169,276)"/>
<path d="M0 0 C0.99 0 1.98 0 3 0 C3 4.95 3 9.9 3 15 C2.01 15 1.02 15 0 15 C0 10.05 0 5.1 0 0 Z " fill="#8EDBF1" transform="translate(359,161)"/>
<path d="M0 0 C0.66 0 1.32 0 2 0 C2 3.96 2 7.92 2 12 C4.31 12 6.62 12 9 12 C9 12.66 9 13.32 9 14 C6.03 14 3.06 14 0 14 C0 9.38 0 4.76 0 0 Z " fill="#E2D9F8" transform="translate(215,162)"/>
<path d="M0 0 C0.66 0.33 1.32 0.66 2 1 C1.01 3.64 0.02 6.28 -1 9 C-2.32 9 -3.64 9 -5 9 C-5 11.64 -5 14.28 -5 17 C-5.66 17 -6.32 17 -7 17 C-7.33 15.02 -7.66 13.04 -8 11 C-7.34 11 -6.68 11 -6 11 C-5.67 9.02 -5.34 7.04 -5 5 C-4.01 4.67 -3.02 4.34 -2 4 C-0.79117904 1.99983534 -0.79117904 1.99983534 0 0 Z " fill="#C19D78" transform="translate(462,163)"/>
<path d="M0 0 C1.2065625 0.0309375 1.2065625 0.0309375 2.4375 0.0625 C2.1075 0.7225 1.7775 1.3825 1.4375 2.0625 C0.4475 1.7325 -0.5425 1.4025 -1.5625 1.0625 C-1.5625 2.0525 -1.5625 3.0425 -1.5625 4.0625 C-0.2425 4.3925 1.0775 4.7225 2.4375 5.0625 C3.5625 8.8125 3.5625 8.8125 2.4375 11.0625 C0.7875 11.0625 -0.8625 11.0625 -2.5625 11.0625 C-2.8925 10.0725 -3.2225 9.0825 -3.5625 8.0625 C-1.9125 8.0625 -0.2625 8.0625 1.4375 8.0625 C1.4375 7.4025 1.4375 6.7425 1.4375 6.0625 C0.1175 5.7325 -1.2025 5.4025 -2.5625 5.0625 C-3.125 3.125 -3.125 3.125 -3.5625 1.0625 C-2.5625 0.0625 -2.5625 0.0625 0 0 Z " fill="#BDE8F6" transform="translate(367.5625,165.9375)"/>
<path d="M0 0 C1.33333333 0 2.66666667 0 4 0 C4.125 7.75 4.125 7.75 3 10 C3.66 10 4.32 10 5 10 C7.3283935 11.76957906 7.95288806 12.81583516 8.6875 15.6875 C8.790625 16.450625 8.89375 17.21375 9 18 C8.34 17.67 7.68 17.34 7 17 C7 16.01 7 15.02 7 14 C6.20207031 13.79632813 5.40414062 13.59265625 4.58203125 13.3828125 C2 12 2 12 1.07421875 9.1796875 C0.94660156 8.08914062 0.81898438 6.99859375 0.6875 5.875 C0.54699219 4.77929688 0.40648437 3.68359375 0.26171875 2.5546875 C0.17535156 1.71164063 0.08898437 0.86859375 0 0 Z " fill="#DECEB6" transform="translate(159,170)"/>
<path d="M0 0 C0.33 0 0.66 0 1 0 C1 1.98 1 3.96 1 6 C2.98 5.67 4.96 5.34 7 5 C7.33 3.68 7.66 2.36 8 1 C8.66 1 9.32 1 10 1 C9.25 5.75 9.25 5.75 7 8 C4.375 8.125 4.375 8.125 2 8 C2 9.65 2 11.3 2 13 C1.34 13 0.68 13 0 13 C0 8.71 0 4.42 0 0 Z " fill="#D9E3F8" transform="translate(276,163)"/>
<path d="M0 0 C1.33804688 0.04060547 1.33804688 0.04060547 2.703125 0.08203125 C3.37859375 0.11683594 4.0540625 0.15164062 4.75 0.1875 C5.08 0.8475 5.41 1.5075 5.75 2.1875 C4.87988281 2.06568359 4.87988281 2.06568359 3.9921875 1.94140625 C-0.94849174 1.49905234 -0.94849174 1.49905234 -5.18359375 3.74609375 C-6.65776 5.50307366 -7.99984202 7.26568852 -9.25 9.1875 C-10.57 8.8575 -11.89 8.5275 -13.25 8.1875 C-12.59 8.1875 -11.93 8.1875 -11.25 8.1875 C-11.0025 7.424375 -10.755 6.66125 -10.5 5.875 C-8.19858508 0.92695793 -5.30091544 -0.20924666 0 0 Z " fill="#BA9A78" transform="translate(176.25,161.8125)"/>
<path d="M0 0 C1.98 0.495 1.98 0.495 4 1 C4 4.63 4 8.26 4 12 C3.34 11.67 2.68 11.34 2 11 C2 10.34 2 9.68 2 9 C1.01 8.67 0.02 8.34 -1 8 C-0.67 5.36 -0.34 2.72 0 0 Z " fill="#A77B54" transform="translate(456,59)"/>
<path d="M0 0 C1.98 0.495 1.98 0.495 4 1 C4 4.63 4 8.26 4 12 C3.34 11.67 2.68 11.34 2 11 C2 10.34 2 9.68 2 9 C1.01 8.67 0.02 8.34 -1 8 C-0.67 5.36 -0.34 2.72 0 0 Z " fill="#A77B54" transform="translate(160,59)"/>
<path d="M0 0 C0.33 0 0.66 0 1 0 C1.125 6.625 1.125 6.625 0 10 C-1.875 9.8125 -1.875 9.8125 -4 9 C-5.25 6.4375 -5.25 6.4375 -6 4 C-4.7934375 3.566875 -4.7934375 3.566875 -3.5625 3.125 C-0.8673532 2.26737432 -0.8673532 2.26737432 0 0 Z " fill="#EABC9B" transform="translate(174,176)"/>
<path d="M0 0 C2.0625 0.4375 2.0625 0.4375 4 1 C4.38218767 2.65614657 4.71395102 4.32457024 5 6 C4 7 4 7 1.4375 7.0625 C0.2309375 7.0315625 0.2309375 7.0315625 -1 7 C-1.04254356 5.00045254 -1.04080783 2.99958364 -1 1 C-0.67 0.67 -0.34 0.34 0 0 Z " fill="#8B70E6" transform="translate(276,191)"/>
<path d="M0 0 C0.99 0 1.98 0 3 0 C3.08086147 1.79093191 3.13912702 3.58289628 3.1875 5.375 C3.22230469 6.37273437 3.25710938 7.37046875 3.29296875 8.3984375 C3.19628906 9.25695312 3.09960938 10.11546875 3 11 C2.01 11.66 1.02 12.32 0 13 C0 12.01 0 11.02 0 10 C-0.99 9.67 -1.98 9.34 -3 9 C-1.68 9 -0.36 9 1 9 C0.67 8.34 0.34 7.68 0 7 C-0.04022391 4.6670134 -0.04320247 2.33293334 0 0 Z " fill="#D09B7A" transform="translate(471,179)"/>
<path d="M0 0 C2 2 2 2 2 6 C1.34 6 0.68 6 0 6 C-0.33 7.32 -0.66 8.64 -1 10 C-1.66 10 -2.32 10 -3 10 C-3 9.01 -3 8.02 -3 7 C-3.66 7 -4.32 7 -5 7 C-5.33 5.35 -5.66 3.7 -6 2 C-5.01 2 -4.02 2 -3 2 C-3 2.66 -3 3.32 -3 4 C-2.01 4 -1.02 4 0 4 C0 2.68 0 1.36 0 0 Z " fill="#5D412F" transform="translate(482,174)"/>
<path d="M0 0 C0.66 0.33 1.32 0.66 2 1 C1.53328373 6.41390868 0.75702189 10.20517932 -2 15 C-2.33 15 -2.66 15 -3 15 C-3 11.7 -3 8.4 -3 5 C-1.68 4.67 -0.36 4.34 1 4 C0.67 2.68 0.34 1.36 0 0 Z " fill="#796049" transform="translate(188,173)"/>
<path d="M0 0 C2.33294775 -0.04241723 4.66702567 -0.04092937 7 0 C8 1 8 1 8.09765625 3.06640625 C8.08605469 3.89011719 8.07445312 4.71382812 8.0625 5.5625 C8.05347656 6.38878906 8.04445313 7.21507812 8.03515625 8.06640625 C8.02355469 8.70449219 8.01195312 9.34257812 8 10 C7.67 10 7.34 10 7 10 C6.67 7.03 6.34 4.06 6 1 C5.01 1.33 4.02 1.66 3 2 C2.67 4.64 2.34 7.28 2 10 C1.34 10 0.68 10 0 10 C0 6.7 0 3.4 0 0 Z " fill="#E1F2FB" transform="translate(331,166)"/>
<path d="M0 0 C0.33 0 0.66 0 1 0 C1.66 3.96 2.32 7.92 3 12 C3.66 12 4.32 12 5 12 C5 10.68 5 9.36 5 8 C6.32 8.33 7.64 8.66 9 9 C8.01 9 7.02 9 6 9 C6.33 10.65 6.66 12.3 7 14 C6.01 14.495 6.01 14.495 5 15 C5 14.34 5 13.68 5 13 C4.01 13 3.02 13 2 13 C2 12.01 2 11.02 2 10 C1.34 10 0.68 10 0 10 C-1.125 3.375 -1.125 3.375 0 0 Z " fill="#C39E7B" transform="translate(455,283)"/>
<path d="M0 0 C0.33 0 0.66 0 1 0 C1.66 3.96 2.32 7.92 3 12 C3.66 12 4.32 12 5 12 C5 10.68 5 9.36 5 8 C6.32 8.33 7.64 8.66 9 9 C8.01 9 7.02 9 6 9 C6.33 10.65 6.66 12.3 7 14 C6.01 14.495 6.01 14.495 5 15 C5 14.34 5 13.68 5 13 C4.01 13 3.02 13 2 13 C2 12.01 2 11.02 2 10 C1.34 10 0.68 10 0 10 C-1.125 3.375 -1.125 3.375 0 0 Z " fill="#C39E7B" transform="translate(159,283)"/>
<path d="M0 0 C0.33 0.99 0.66 1.98 1 3 C0.34 3 -0.32 3 -1 3 C-0.67 4.98 -0.34 6.96 0 9 C0.66 9 1.32 9 2 9 C3.32421875 10.6796875 3.32421875 10.6796875 4.6875 12.875 C5.14511719 13.59429687 5.60273438 14.31359375 6.07421875 15.0546875 C6.37972656 15.69664062 6.68523437 16.33859375 7 17 C6.67 17.66 6.34 18.32 6 19 C5.34 18.34 4.68 17.68 4 17 C4 16.01 4 15.02 4 14 C3.01 14 2.02 14 1 14 C-1.21854707 9.37802694 -2.38281159 6.23175837 -2 1 C-1.34 0.67 -0.68 0.34 0 0 Z " fill="#E3D6BD" transform="translate(455,171)"/>
<path d="M0 0 C4.08378283 0.74250597 8.01939223 1.82923301 12 3 C10 5 10 5 8.0546875 5.1953125 C6.03645833 5.13020833 4.01822917 5.06510417 2 5 C1.34 3.35 0.68 1.7 0 0 Z " fill="#88614A" transform="translate(467,83)"/>
<path d="M0 0 C4.08378283 0.74250597 8.01939223 1.82923301 12 3 C10 5 10 5 8.0546875 5.1953125 C6.03645833 5.13020833 4.01822917 5.06510417 2 5 C1.34 3.35 0.68 1.7 0 0 Z " fill="#88614A" transform="translate(171,83)"/>
<path d="M0 0 C3 2 3 2 4 5 C4.57289003 11.30179028 4.57289003 11.30179028 2 14.4375 C1.01 15.2109375 1.01 15.2109375 0 16 C-0.33 15.34 -0.66 14.68 -1 14 C-0.690625 13.236875 -0.38125 12.47375 -0.0625 11.6875 C1.56928138 7.56005297 1.24407829 4.19876422 0 0 Z " fill="#D8CCB5" transform="translate(481,282)"/>
<path d="M0 0 C3 2 3 2 4 5 C4.57289003 11.30179028 4.57289003 11.30179028 2 14.4375 C1.01 15.2109375 1.01 15.2109375 0 16 C-0.33 15.34 -0.66 14.68 -1 14 C-0.690625 13.236875 -0.38125 12.47375 -0.0625 11.6875 C1.56928138 7.56005297 1.24407829 4.19876422 0 0 Z " fill="#D8CCB5" transform="translate(185,282)"/>
<path d="M0 0 C0.66 0 1.32 0 2 0 C2 0.99 2 1.98 2 3 C2.66 3 3.32 3 4 3 C4 4.32 4 5.64 4 7 C3.34 7 2.68 7 2 7 C2 8.65 2 10.3 2 12 C0.9375 10.1875 0.9375 10.1875 0 8 C0.33 7.01 0.66 6.02 1 5 C-0.32 5 -1.64 5 -3 5 C-3 4.01 -3 3.02 -3 2 C-2.01 2 -1.02 2 0 2 C0 1.34 0 0.68 0 0 Z " fill="#473325" transform="translate(478,59)"/>
<path d="M0 0 C0.66 0 1.32 0 2 0 C2 0.99 2 1.98 2 3 C2.66 3 3.32 3 4 3 C4 4.32 4 5.64 4 7 C3.34 7 2.68 7 2 7 C2 8.65 2 10.3 2 12 C0.9375 10.1875 0.9375 10.1875 0 8 C0.33 7.01 0.66 6.02 1 5 C-0.32 5 -1.64 5 -3 5 C-3 4.01 -3 3.02 -3 2 C-2.01 2 -1.02 2 0 2 C0 1.34 0 0.68 0 0 Z " fill="#473325" transform="translate(182,59)"/>
<path d="M0 0 C1.32 0.33 2.64 0.66 4 1 C4.33 3.31 4.66 5.62 5 8 C3.35 8 1.7 8 0 8 C0 5.36 0 2.72 0 0 Z " fill="#AEA7EF" transform="translate(289,190)"/>
<path d="M0 0 C2.31 0 4.62 0 7 0 C7 0.99 7 1.98 7 3 C5.35 3 3.7 3 2 3 C1.67 3.99 1.34 4.98 1 6 C0.01 6.33 -0.98 6.66 -2 7 C-2.33 5.68 -2.66 4.36 -3 3 C-2.34 3 -1.68 3 -1 3 C-0.67 2.01 -0.34 1.02 0 0 Z " fill="#6C482F" transform="translate(173,163)"/>
<path d="M0 0 C0.66 0.66 1.32 1.32 2 2 C1.36230111 7.89871473 -0.59945891 12.03951302 -5 16 C-4.625 13.0625 -4.625 13.0625 -4 10 C-3.34 9.67 -2.68 9.34 -2 9 C-2 7.35 -2 5.7 -2 4 C-1.34 4 -0.68 4 0 4 C0 2.68 0 1.36 0 0 Z " fill="#9B846A" transform="translate(482,62)"/>
<path d="M0 0 C0.66 0.66 1.32 1.32 2 2 C1.36230111 7.89871473 -0.59945891 12.03951302 -5 16 C-4.625 13.0625 -4.625 13.0625 -4 10 C-3.34 9.67 -2.68 9.34 -2 9 C-2 7.35 -2 5.7 -2 4 C-1.34 4 -0.68 4 0 4 C0 2.68 0 1.36 0 0 Z " fill="#9B846A" transform="translate(186,62)"/>
<path d="M0 0 C0.99 0 1.98 0 3 0 C3.625 2.3125 3.625 2.3125 4 5 C3.01 6.485 3.01 6.485 2 8 C1.01 7.67 0.02 7.34 -1 7 C-1.04254356 5.00045254 -1.04080783 2.99958364 -1 1 C-0.67 0.67 -0.34 0.34 0 0 Z " fill="#A7A4EE" transform="translate(297,191)"/>
<path d="M0 0 C0.99 0 1.98 0 3 0 C3 3.63 3 7.26 3 11 C2.01 10.67 1.02 10.34 0 10 C0 6.7 0 3.4 0 0 Z " fill="#7F583B" transform="translate(457,172)"/>
<path d="M0 0 C2.64 0 5.28 0 8 0 C8 0.66 8 1.32 8 2 C4.27034861 4.03435531 2.33094958 5 -2 5 C-2 4.34 -2 3.68 -2 3 C-1.34 3 -0.68 3 0 3 C0 2.01 0 1.02 0 0 Z " fill="#6E492E" transform="translate(465,164)"/>
<path d="M0 0 C2 1.8125 2 1.8125 4 4 C4 4.99 4 5.98 4 7 C3.34 7 2.68 7 2 7 C2 8.98 2 10.96 2 13 C0.57055055 10.64561267 -0.08661261 9.51967567 0.375 6.75 C0.58125 6.1725 0.7875 5.595 1 5 C0.01 5 -0.98 5 -2 5 C-1.34 3.35 -0.68 1.7 0 0 Z " fill="#453224" transform="translate(478,283)"/>
<path d="M0 0 C2 1.8125 2 1.8125 4 4 C4 4.99 4 5.98 4 7 C3.34 7 2.68 7 2 7 C2 8.98 2 10.96 2 13 C0.57055055 10.64561267 -0.08661261 9.51967567 0.375 6.75 C0.58125 6.1725 0.7875 5.595 1 5 C0.01 5 -0.98 5 -2 5 C-1.34 3.35 -0.68 1.7 0 0 Z " fill="#453224" transform="translate(182,283)"/>
<path d="M0 0 C0.66 1.32 1.32 2.64 2 4 C2.66 4 3.32 4 4 4 C4.66 2.68 5.32 1.36 6 0 C6.33 0 6.66 0 7 0 C7 2.64 7 5.28 7 8 C6.34 7.01 5.68 6.02 5 5 C4.01 6.485 4.01 6.485 3 8 C2.01 7.67 1.02 7.34 0 7 C0 4.69 0 2.38 0 0 Z " fill="#D0B0F3" transform="translate(239,190)"/>
<path d="M0 0 C2.92879371 0.62759865 5.36095629 1.58622659 8 3 C8 3.99 8 4.98 8 6 C5.125 6.1875 5.125 6.1875 2 6 C0 3 0 3 0 0 Z " fill="#DDAD8C" transform="translate(463,186)"/>
<path d="M0 0 C1.2065625 0.0309375 1.2065625 0.0309375 2.4375 0.0625 C2.4375 0.7225 2.4375 1.3825 2.4375 2.0625 C3.0975 2.7225 3.7575 3.3825 4.4375 4.0625 C2.4575 4.0625 0.4775 4.0625 -1.5625 4.0625 C-1.8925 6.0425 -2.2225 8.0225 -2.5625 10.0625 C-3.2225 10.0625 -3.8825 10.0625 -4.5625 10.0625 C-4.42200482 8.58281676 -4.27495174 7.10375484 -4.125 5.625 C-4.04378906 4.80128906 -3.96257812 3.97757813 -3.87890625 3.12890625 C-3.4093501 0.06229881 -3.15462671 0.07694211 0 0 Z " fill="#825741" transform="translate(179.5625,173.9375)"/>
<path d="M0 0 C0.66 0 1.32 0 2 0 C2.05389087 1.95803507 2.09274217 3.91648909 2.125 5.875 C2.14820313 6.96554688 2.17140625 8.05609375 2.1953125 9.1796875 C2 12 2 12 0 14 C-0.99 13.67 -1.98 13.34 -3 13 C-2.34 12.67 -1.68 12.34 -1 12 C-0.53101037 9.1840151 -0.53101037 9.1840151 -0.375 5.9375 C-0.30023438 4.83277344 -0.22546875 3.72804687 -0.1484375 2.58984375 C-0.09945313 1.73519531 -0.05046875 0.88054687 0 0 Z " fill="#E0F2FA" transform="translate(349,166)"/>
<path d="M0 0 C0.33 0 0.66 0 1 0 C1 1.98 1 3.96 1 6 C0.34 6 -0.32 6 -1 6 C-0.67 6.99 -0.34 7.98 0 9 C-0.99 9 -1.98 9 -3 9 C-3.33 7.68 -3.66 6.36 -4 5 C-4.66 5 -5.32 5 -6 5 C-6 4.34 -6 3.68 -6 3 C-4.02 3 -2.04 3 0 3 C0 2.01 0 1.02 0 0 Z " fill="#EDC19F" transform="translate(467,65)"/>
<path d="M0 0 C0.33 0 0.66 0 1 0 C1 1.98 1 3.96 1 6 C0.34 6 -0.32 6 -1 6 C-0.67 6.99 -0.34 7.98 0 9 C-0.99 9 -1.98 9 -3 9 C-3.33 7.68 -3.66 6.36 -4 5 C-4.66 5 -5.32 5 -6 5 C-6 4.34 -6 3.68 -6 3 C-4.02 3 -2.04 3 0 3 C0 2.01 0 1.02 0 0 Z " fill="#EDC19F" transform="translate(171,65)"/>
<path d="M0 0 C1.65 0 3.3 0 5 0 C5.125 6.75 5.125 6.75 4 9 C2.35 8.67 0.7 8.34 -1 8 C-1 7.34 -1 6.68 -1 6 C0.32 6.33 1.64 6.66 3 7 C2.814375 6.38125 2.62875 5.7625 2.4375 5.125 C2 3 2 3 3 1 C2.01 0.67 1.02 0.34 0 0 Z " fill="#C58CEE" transform="translate(222,190)"/>
<path d="M0 0 C1.65 0 3.3 0 5 0 C5 1.65 5 3.3 5 5 C4.01 5.33 3.02 5.66 2 6 C2 6.66 2 7.32 2 8 C2.99 8.33 3.98 8.66 5 9 C3.35 9 1.7 9 0 9 C0 7.68 0 6.36 0 5 C0.99 4.67 1.98 4.34 3 4 C3.33 3.34 3.66 2.68 4 2 C2.68 2.33 1.36 2.66 0 3 C0 2.01 0 1.02 0 0 Z " fill="#C88DEF" transform="translate(214,189)"/>
<path d="M0 0 C0.66 0 1.32 0 2 0 C2 0.99 2 1.98 2 3 C2.66 3 3.32 3 4 3 C4 4.32 4 5.64 4 7 C3.01 7 2.02 7 1 7 C1 6.34 1 5.68 1 5 C-0.32 5 -1.64 5 -3 5 C-3 4.01 -3 3.02 -3 2 C-2.01 2 -1.02 2 0 2 C0 1.34 0 0.68 0 0 Z " fill="#463325" transform="translate(478,171)"/>
<path d="M0 0 C0.66 0 1.32 0 2 0 C2.268125 0.639375 2.53625 1.27875 2.8125 1.9375 C3.88667752 4.33131686 3.88667752 4.33131686 7 5 C7 5.66 7 6.32 7 7 C4.69 7.33 2.38 7.66 0 8 C0 5.36 0 2.72 0 0 Z " fill="#35BCE6" transform="translate(362,167)"/>
<path d="M0 0 C1.32 0 2.64 0 4 0 C4 1.98 4 3.96 4 6 C2.35 5.67 0.7 5.34 -1 5 C-0.67 3.35 -0.34 1.7 0 0 Z " fill="#3DB3E5" transform="translate(345,168)"/>
<path d="M0 0 C1.32 0 2.64 0 4 0 C4 1.98 4 3.96 4 6 C2.35 5.67 0.7 5.34 -1 5 C-0.67 3.35 -0.34 1.7 0 0 Z " fill="#816EE5" transform="translate(228,168)"/>
<path d="M0 0 C1.98 0 3.96 0 6 0 C5.01 0.33 4.02 0.66 3 1 C4.03712176 3.08261145 4.03712176 3.08261145 6 5 C9.60465748 5.81314911 9.60465748 5.81314911 13 6 C13 6.33 13 6.66 13 7 C4.88277512 7.62440191 4.88277512 7.62440191 1.4375 5.1875 C0 3 0 3 0 0 Z " fill="#AA7C61" transform="translate(464,193)"/>
<path d="M0 0 C1.4606285 2.64738916 2 3.89448334 2 7 C-0.31 7 -2.62 7 -5 7 C-4.67 5.35 -4.34 3.7 -4 2 C-2.02 2.495 -2.02 2.495 0 3 C0 2.01 0 1.02 0 0 Z " fill="#B77A63" transform="translate(177,181)"/>
<path d="M0 0 C0 1.98 0 3.96 0 6 C-1.65 6 -3.3 6 -5 6 C-5.33 4.68 -5.66 3.36 -6 2 C-1.125 0 -1.125 0 0 0 Z " fill="#AAADEF" transform="translate(255,168)"/>
<path d="M0 0 C0.99 0.33 1.98 0.66 3 1 C2.835 1.721875 2.67 2.44375 2.5 3.1875 C2.02412881 5.86427545 1.922557 8.28949487 2 11 C0.35 11 -1.3 11 -3 11 C-1.68 10.67 -0.36 10.34 1 10 C0.67 8.02 0.34 6.04 0 4 C-0.99 4 -1.98 4 -3 4 C-3 3.34 -3 2.68 -3 2 C-2.01 2 -1.02 2 0 2 C0 1.34 0 0.68 0 0 Z " fill="#886144" transform="translate(473,164)"/>
<path d="M0 0 C2.97 0.495 2.97 0.495 6 1 C5.01 1.33 4.02 1.66 3 2 C4.10709491 4.06295292 4.10709491 4.06295292 6 6 C9.10197397 6.80946422 9.10197397 6.80946422 12 7 C12 7.33 12 7.66 12 8 C7.91878361 8.3200954 5.62759043 8.37388366 2.0625 6.25 C0 4 0 4 0 0 Z " fill="#A7785C" transform="translate(464,304)"/>
<path d="M0 0 C2.97 0.495 2.97 0.495 6 1 C5.01 1.33 4.02 1.66 3 2 C4.10709491 4.06295292 4.10709491 4.06295292 6 6 C9.10197397 6.80946422 9.10197397 6.80946422 12 7 C12 7.33 12 7.66 12 8 C7.91878361 8.3200954 5.62759043 8.37388366 2.0625 6.25 C0 4 0 4 0 0 Z " fill="#A7785C" transform="translate(168,304)"/>
<path d="M0 0 C0.33 0.66 0.66 1.32 1 2 C2.65 2 4.3 2 6 2 C5.67 4.97 5.34 7.94 5 11 C3.10786631 8.61426621 1.97608217 6.92824652 1 4 C0.34 3.67 -0.32 3.34 -1 3 C-0.67 2.01 -0.34 1.02 0 0 Z " fill="#D4A483" transform="translate(464,284)"/>
<path d="M0 0 C0.33 0.66 0.66 1.32 1 2 C2.65 2 4.3 2 6 2 C5.67 4.97 5.34 7.94 5 11 C3.10786631 8.61426621 1.97608217 6.92824652 1 4 C0.34 3.67 -0.32 3.34 -1 3 C-0.67 2.01 -0.34 1.02 0 0 Z " fill="#D4A483" transform="translate(168,284)"/>
<path d="M0 0 C1.98 0 3.96 0 6 0 C4.02 0.99 4.02 0.99 2 2 C2.99 3.65 3.98 5.3 5 7 C3.35 7 1.7 7 0 7 C-1.33332095 4.3333581 -0.67102033 2.83319697 0 0 Z " fill="#BB8768" transform="translate(171,192)"/>
<path d="M0 0 C0.66 0 1.32 0 2 0 C2 3.3 2 6.6 2 10 C1.34 10 0.68 10 0 10 C-1.125 2.25 -1.125 2.25 0 0 Z " fill="#744F34" transform="translate(458,285)"/>
<path d="M0 0 C0.66 0 1.32 0 2 0 C2 3.3 2 6.6 2 10 C1.34 10 0.68 10 0 10 C-1.125 2.25 -1.125 2.25 0 0 Z " fill="#744F34" transform="translate(162,285)"/>
<path d="M0 0 C1.21816406 0.03480469 1.21816406 0.03480469 2.4609375 0.0703125 C3.68683594 0.09738281 3.68683594 0.09738281 4.9375 0.125 C5.87722656 0.15980469 5.87722656 0.15980469 6.8359375 0.1953125 C6.8359375 0.5253125 6.8359375 0.8553125 6.8359375 1.1953125 C4.1959375 1.1953125 1.5559375 1.1953125 -1.1640625 1.1953125 C-1.1640625 2.1853125 -1.1640625 3.1753125 -1.1640625 4.1953125 C-1.8240625 4.1953125 -2.4840625 4.1953125 -3.1640625 4.1953125 C-2.5040625 5.8453125 -1.8440625 7.4953125 -1.1640625 9.1953125 C-1.8240625 9.1953125 -2.4840625 9.1953125 -3.1640625 9.1953125 C-3.7890625 5.8203125 -3.7890625 5.8203125 -4.1640625 2.1953125 C-2.1640625 0.1953125 -2.1640625 0.1953125 0 0 Z " fill="#99704E" transform="translate(466.1640625,162.8046875)"/>
<path d="M0 0 C1.98 0 3.96 0 6 0 C6 1.32 6 2.64 6 4 C4.02 4 2.04 4 0 4 C0 2.68 0 1.36 0 0 Z " fill="#DAAD8D" transform="translate(465,301)"/>
<path d="M0 0 C1.98 0 3.96 0 6 0 C6 1.32 6 2.64 6 4 C4.02 4 2.04 4 0 4 C0 2.68 0 1.36 0 0 Z " fill="#DAAD8D" transform="translate(169,301)"/>
<path d="M0 0 C-0.33 0.99 -0.66 1.98 -1 3 C-1.99 3 -2.98 3 -4 3 C-4.268125 3.639375 -4.53625 4.27875 -4.8125 4.9375 C-6 7 -6 7 -9 8 C-7.38794515 3.02949753 -5.53380518 0 0 0 Z " fill="#F1EBDE" transform="translate(461,165)"/>
<path d="M0 0 C1.32 0 2.64 0 4 0 C4 1.98 4 3.96 4 6 C2.68 6 1.36 6 0 6 C0 4.02 0 2.04 0 0 Z " fill="#7873E5" transform="translate(239,168)"/>
<path d="M0 0 C1 2 1 2 0.22265625 4.3828125 C-0.16019531 5.28773437 -0.54304688 6.19265625 -0.9375 7.125 C-1.31777344 8.03507812 -1.69804687 8.94515625 -2.08984375 9.8828125 C-2.39019531 10.58148438 -2.69054687 11.28015625 -3 12 C-4.25360525 8.23918426 -3.83902226 5.84551868 -3 2 C-2.01 1.34 -1.02 0.68 0 0 Z " fill="#A87254" transform="translate(476,68)"/>
<path d="M0 0 C1 2 1 2 0.22265625 4.3828125 C-0.16019531 5.28773437 -0.54304687 6.19265625 -0.9375 7.125 C-1.31777344 8.03507812 -1.69804687 8.94515625 -2.08984375 9.8828125 C-2.39019531 10.58148438 -2.69054687 11.28015625 -3 12 C-4.25360525 8.23918426 -3.83902226 5.84551868 -3 2 C-2.01 1.34 -1.02 0.68 0 0 Z " fill="#A87254" transform="translate(180,68)"/>
<path d="M0 0 C1.32 0 2.64 0 4 0 C4.29296875 6.0546875 4.29296875 6.0546875 4 8 C3.01 8.66 2.02 9.32 1 10 C0.75 4.375 0.75 4.375 3 1 C2.01 0.67 1.02 0.34 0 0 Z " fill="#97654A" transform="translate(473,290)"/>
<path d="M0 0 C1.32 0 2.64 0 4 0 C4.29296875 6.0546875 4.29296875 6.0546875 4 8 C3.01 8.66 2.02 9.32 1 10 C0.75 4.375 0.75 4.375 3 1 C2.01 0.67 1.02 0.34 0 0 Z " fill="#97654A" transform="translate(177,290)"/>
<path d="M0 0 C0.66 0 1.32 0 2 0 C3.3899408 2.7798816 3.18488204 4.9186326 3 8 C2.1875 10.3125 2.1875 10.3125 1 12 C0.01 12.33 -0.98 12.66 -2 13 C-1.34 11.02 -0.68 9.04 0 7 C0.66 7 1.32 7 2 7 C1.34 4.69 0.68 2.38 0 0 Z " fill="#DBCFB8" transform="translate(482,173)"/>
<path d="M0 0 C1.65 0 3.3 0 5 0 C5.33 1.32 5.66 2.64 6 4 C4.02 4 2.04 4 0 4 C0 2.68 0 1.36 0 0 Z " fill="#5E94E6" transform="translate(278,164)"/>
<path d="M0 0 C0.33 0 0.66 0 1 0 C1 1.98 1 3.96 1 6 C0.34 6 -0.32 6 -1 6 C-0.67 6.99 -0.34 7.98 0 9 C-0.99 9 -1.98 9 -3 9 C-3.25873987 5.89512156 -3.23307327 4.37494396 -1.5625 1.6875 C-1.046875 1.130625 -0.53125 0.57375 0 0 Z " fill="#EDC2A1" transform="translate(467,289)"/>
<path d="M0 0 C0.33 0 0.66 0 1 0 C1 1.98 1 3.96 1 6 C0.34 6 -0.32 6 -1 6 C-0.67 6.99 -0.34 7.98 0 9 C-0.99 9 -1.98 9 -3 9 C-3.25873987 5.89512156 -3.23307327 4.37494396 -1.5625 1.6875 C-1.046875 1.130625 -0.53125 0.57375 0 0 Z " fill="#EDC2A1" transform="translate(171,289)"/>
<path d="M0 0 C1.65 0 3.3 0 5 0 C4.67 0.99 4.34 1.98 4 3 C3.34 3 2.68 3 2 3 C2 4.32 2 5.64 2 7 C1.34 7 0.68 7 0 7 C0 4.69 0 2.38 0 0 Z " fill="#DBA886" transform="translate(471,291)"/>
<path d="M0 0 C1.65 0 3.3 0 5 0 C4.67 0.99 4.34 1.98 4 3 C3.34 3 2.68 3 2 3 C2 4.32 2 5.64 2 7 C1.34 7 0.68 7 0 7 C0 4.69 0 2.38 0 0 Z " fill="#DBA886" transform="translate(175,291)"/>
<path d="M0 0 C1.67542976 0.28604898 3.34385343 0.61781233 5 1 C5.33 2.98 5.66 4.96 6 7 C5.34 7 4.68 7 4 7 C4 6.01 4 5.02 4 4 C3.01 4 2.02 4 1 4 C1 3.34 1 2.68 1 2 C0.34 1.67 -0.32 1.34 -1 1 C-0.67 0.67 -0.34 0.34 0 0 Z " fill="#C5936D" transform="translate(468,279)"/>
<path d="M0 0 C1.67542976 0.28604898 3.34385343 0.61781233 5 1 C5.33 2.98 5.66 4.96 6 7 C5.34 7 4.68 7 4 7 C4 6.01 4 5.02 4 4 C3.01 4 2.02 4 1 4 C1 3.34 1 2.68 1 2 C0.34 1.67 -0.32 1.34 -1 1 C-0.67 0.67 -0.34 0.34 0 0 Z " fill="#C5936D" transform="translate(172,279)"/>
<path d="M0 0 C0.33 0 0.66 0 1 0 C1 1.98 1 3.96 1 6 C0.34 6 -0.32 6 -1 6 C-0.67 6.99 -0.34 7.98 0 9 C-0.99 9 -1.98 9 -3 9 C-3.25873987 5.89512156 -3.23307327 4.37494396 -1.5625 1.6875 C-1.046875 1.130625 -0.53125 0.57375 0 0 Z " fill="#EDC2A1" transform="translate(467,177)"/>
<path d="M0 0 C1.67542976 0.28604898 3.34385343 0.61781233 5 1 C5.33 2.98 5.66 4.96 6 7 C5.34 7 4.68 7 4 7 C4 6.01 4 5.02 4 4 C3.01 4 2.02 4 1 4 C1 3.34 1 2.68 1 2 C0.34 1.67 -0.32 1.34 -1 1 C-0.67 0.67 -0.34 0.34 0 0 Z " fill="#C5926D" transform="translate(468,167)"/>
<path d="M0 0 C0.33 0 0.66 0 1 0 C1.29296875 6.0546875 1.29296875 6.0546875 1 8 C0.01 8.66 -0.98 9.32 -2 10 C-2 9.01 -2 8.02 -2 7 C-3.32 6.67 -4.64 6.34 -6 6 C-4.35 6 -2.7 6 -1 6 C-0.67 4.02 -0.34 2.04 0 0 Z " fill="#C38B6B" transform="translate(473,294)"/>
<path d="M0 0 C0.33 0 0.66 0 1 0 C1.29296875 6.0546875 1.29296875 6.0546875 1 8 C0.01 8.66 -0.98 9.32 -2 10 C-2 9.01 -2 8.02 -2 7 C-3.32 6.67 -4.64 6.34 -6 6 C-4.35 6 -2.7 6 -1 6 C-0.67 4.02 -0.34 2.04 0 0 Z " fill="#C38B6B" transform="translate(177,294)"/>
<path d="M0 0 C1.2065625 0.0309375 1.2065625 0.0309375 2.4375 0.0625 C1.4475 0.5575 1.4475 0.5575 0.4375 1.0625 C0.1075 1.7225 -0.2225 2.3825 -0.5625 3.0625 C-0.8925 3.0625 -1.2225 3.0625 -1.5625 3.0625 C-1.8925 5.3725 -2.2225 7.6825 -2.5625 10.0625 C-3.2225 10.0625 -3.8825 10.0625 -4.5625 10.0625 C-4.42200482 8.58281676 -4.27495174 7.10375484 -4.125 5.625 C-4.04378906 4.80128906 -3.96257812 3.97757812 -3.87890625 3.12890625 C-3.4093501 0.06229881 -3.15462671 0.07694211 0 0 Z " fill="#7F543E" transform="translate(472.5625,286.9375)"/>
<path d="M0 0 C1.2065625 0.0309375 1.2065625 0.0309375 2.4375 0.0625 C1.4475 0.5575 1.4475 0.5575 0.4375 1.0625 C0.1075 1.7225 -0.2225 2.3825 -0.5625 3.0625 C-0.8925 3.0625 -1.2225 3.0625 -1.5625 3.0625 C-1.8925 5.3725 -2.2225 7.6825 -2.5625 10.0625 C-3.2225 10.0625 -3.8825 10.0625 -4.5625 10.0625 C-4.42200482 8.58281676 -4.27495174 7.10375484 -4.125 5.625 C-4.04378906 4.80128906 -3.96257812 3.97757812 -3.87890625 3.12890625 C-3.4093501 0.06229881 -3.15462671 0.07694211 0 0 Z " fill="#7F543E" transform="translate(176.5625,286.9375)"/>
<path d="M0 0 C1.65 0.33 3.3 0.66 5 1 C5.33 2.32 5.66 3.64 6 5 C4.35 5.33 2.7 5.66 1 6 C1 5.34 1 4.68 1 4 C1.99 4 2.98 4 4 4 C4 3.34 4 2.68 4 2 C2.35 2 0.7 2 -1 2 C-0.67 1.34 -0.34 0.68 0 0 Z " fill="#CFC7F5" transform="translate(239,174)"/>
<path d="M0 0 C2.31 0 4.62 0 7 0 C7 0.99 7 1.98 7 3 C4.36 3 1.72 3 -1 3 C-0.67 2.01 -0.34 1.02 0 0 Z " fill="#624933" transform="translate(466,51)"/>
<path d="M0 0 C2.31 0 4.62 0 7 0 C7 0.99 7 1.98 7 3 C4.36 3 1.72 3 -1 3 C-0.67 2.01 -0.34 1.02 0 0 Z " fill="#624933" transform="translate(170,51)"/>
<path d="M0 0 C0.99 0.33 1.98 0.66 3 1 C3.33 2.65 3.66 4.3 4 6 C2.68 6 1.36 6 0 6 C0 4.02 0 2.04 0 0 Z " fill="#A9ACEF" transform="translate(307,192)"/>
<path d="M0 0 C3.16115776 1.36983503 3.9927092 1.9890638 6 5 C5.625 7.1875 5.625 7.1875 5 9 C5 8.01 5 7.02 5 6 C3.68 5.67 2.36 5.34 1 5 C0.67 3.35 0.34 1.7 0 0 Z " fill="#9A876C" transform="translate(182,164)"/>
<path d="M0 0 C2.64 0 5.28 0 8 0 C7.67 0.66 7.34 1.32 7 2 C5.33499557 2.34153937 3.66821323 2.67449498 2 3 C1.34 3.66 0.68 4.32 0 5 C0 3.35 0 1.7 0 0 Z " fill="#B28366" transform="translate(463,80)"/>
<path d="M0 0 C2.64 0 5.28 0 8 0 C7.67 0.66 7.34 1.32 7 2 C5.33499557 2.34153937 3.66821323 2.67449498 2 3 C1.34 3.66 0.68 4.32 0 5 C0 3.35 0 1.7 0 0 Z " fill="#B28366" transform="translate(167,80)"/>
<path d="M0 0 C0.66 0 1.32 0 2 0 C3.10647808 2.21295616 3.19588368 3.54672699 3.25 6 C3.27578125 6.70125 3.3015625 7.4025 3.328125 8.125 C3.21984375 8.74375 3.1115625 9.3625 3 10 C2.01 10.66 1.02 11.32 0 12 C0.08378906 11.38511719 0.16757812 10.77023438 0.25390625 10.13671875 C0.35574219 9.32847656 0.45757812 8.52023438 0.5625 7.6875 C0.66691406 6.88699219 0.77132813 6.08648437 0.87890625 5.26171875 C1.14755178 2.83182884 1.14755178 2.83182884 0 0 Z " fill="#E5DDC8" transform="translate(482,61)"/>
<path d="M0 0 C0.66 0 1.32 0 2 0 C3.10647808 2.21295616 3.19588368 3.54672699 3.25 6 C3.27578125 6.70125 3.3015625 7.4025 3.328125 8.125 C3.21984375 8.74375 3.1115625 9.3625 3 10 C2.01 10.66 1.02 11.32 0 12 C0.08378906 11.38511719 0.16757813 10.77023438 0.25390625 10.13671875 C0.35574219 9.32847656 0.45757812 8.52023438 0.5625 7.6875 C0.66691406 6.88699219 0.77132812 6.08648437 0.87890625 5.26171875 C1.14755178 2.83182884 1.14755178 2.83182884 0 0 Z " fill="#E5DDC8" transform="translate(186,61)"/>
<path d="M0 0 C0.66 0 1.32 0 2 0 C2 0.99 2 1.98 2 3 C3.32 3.33 4.64 3.66 6 4 C6 4.99 6 5.98 6 7 C5.34 7 4.68 7 4 7 C4 6.01 4 5.02 4 4 C1.03 3.505 1.03 3.505 -2 3 C-1.34 2.01 -0.68 1.02 0 0 Z " fill="#CF9E78" transform="translate(468,55)"/>
<path d="M0 0 C0.66 0 1.32 0 2 0 C2 0.99 2 1.98 2 3 C3.32 3.33 4.64 3.66 6 4 C6 4.99 6 5.98 6 7 C5.34 7 4.68 7 4 7 C4 6.01 4 5.02 4 4 C1.03 3.505 1.03 3.505 -2 3 C-1.34 2.01 -0.68 1.02 0 0 Z " fill="#CF9E78" transform="translate(172,55)"/>
<path d="M0 0 C0.33 1.98 0.66 3.96 1 6 C-0.65 6.33 -2.3 6.66 -4 7 C-4 3 -4 3 -2.5625 1.25 C-1 0 -1 0 0 0 Z " fill="#BD8F64" transform="translate(462,53)"/>
<path d="M0 0 C0.33 1.98 0.66 3.96 1 6 C-0.65 6.33 -2.3 6.66 -4 7 C-4 3 -4 3 -2.5625 1.25 C-1 0 -1 0 0 0 Z " fill="#BD8F64" transform="translate(166,53)"/>
<path d="M0 0 C0.66 0 1.32 0 2 0 C2 1.65 2 3.3 2 5 C-0.31 5.66 -2.62 6.32 -5 7 C-4.360625 6.21625 -3.72125 5.4325 -3.0625 4.625 C-1.01857687 2.20460719 -1.01857687 2.20460719 0 0 Z " fill="#6A4B38" transform="translate(182,186)"/>
<path d="M0 0 C2.97 0.495 2.97 0.495 6 1 C6 1.99 6 2.98 6 4 C4.35 4 2.7 4 1 4 C0.67 2.68 0.34 1.36 0 0 Z " fill="#E1B495" transform="translate(172,188)"/>
<path d="M0 0 C0.33 0 0.66 0 1 0 C1.36923077 7.50769231 1.36923077 7.50769231 -0.5 10 C-0.995 10.33 -1.49 10.66 -2 11 C-3 9 -3 9 -2.44140625 6.8359375 C-2.15136719 6.02382812 -1.86132812 5.21171875 -1.5625 4.375 C-1.27503906 3.55773437 -0.98757812 2.74046875 -0.69140625 1.8984375 C-0.46324219 1.27195313 -0.23507813 0.64546875 0 0 Z " fill="#D0C1A6" transform="translate(190,175)"/>
<path d="M0 0 C1.65 0.33 3.3 0.66 5 1 C5.33 2.65 5.66 4.3 6 6 C5.01 6 4.02 6 3 6 C3.33 5.01 3.66 4.02 4 3 C2.35 2.67 0.7 2.34 -1 2 C-0.67 1.34 -0.34 0.68 0 0 Z " fill="#C99771" transform="translate(175,167)"/>
<path d="M0 0 C-1.28519565 2.86697492 -2.57129254 4.97607712 -5 7 C-5.66 7 -6.32 7 -7 7 C-3.86206897 0 -3.86206897 0 0 0 Z " fill="#9C74E8" transform="translate(150,142)"/>
<path d="M0 0 C0.33 0 0.66 0 1 0 C1 2.97 1 5.94 1 9 C0.01 8.01 -0.98 7.02 -2 6 C-2 4.68 -2 3.36 -2 2 C-1.34 2 -0.68 2 0 2 C0 1.34 0 0.68 0 0 Z " fill="#69472F" transform="translate(459,62)"/>
<path d="M0 0 C0.33 0 0.66 0 1 0 C1 2.97 1 5.94 1 9 C0.01 8.01 -0.98 7.02 -2 6 C-2 4.68 -2 3.36 -2 2 C-1.34 2 -0.68 2 0 2 C0 1.34 0 0.68 0 0 Z " fill="#69472F" transform="translate(163,62)"/>
<path d="M0 0 C1.32 0.33 2.64 0.66 4 1 C4.33 2.65 4.66 4.3 5 6 C3.68 5.67 2.36 5.34 1 5 C1 4.34 1 3.68 1 3 C0.67 2.01 0.34 1.02 0 0 Z " fill="#B7A2EF" transform="translate(269,192)"/>
<path d="M0 0 C0.99 0 1.98 0 3 0 C2 3 2 3 0 6 C0.99 6.33 1.98 6.66 3 7 C1.68 7 0.36 7 -1 7 C-1.04254356 5.00045254 -1.04080783 2.99958364 -1 1 C-0.67 0.67 -0.34 0.34 0 0 Z " fill="#B8A8F0" transform="translate(276,191)"/>
<path d="M0 0 C1.32 1.65 2.64 3.3 4 5 C3.01 5.495 3.01 5.495 2 6 C2 7.65 2 9.3 2 11 C1.67 11 1.34 11 1 11 C0.67 7.37 0.34 3.74 0 0 Z " fill="#C39776" transform="translate(169,186)"/>
<path d="M0 0 C2 2 2 2 2 6 C1.34 6 0.68 6 0 6 C-0.33 6.66 -0.66 7.32 -1 8 C-1.33 6.68 -1.66 5.36 -2 4 C-1.34 4 -0.68 4 0 4 C0 2.68 0 1.36 0 0 Z " fill="#917659" transform="translate(482,174)"/>
<path d="M0 0 C1.37562854 1.28965176 2.70766393 2.62689293 4 4 C4 4.66 4 5.32 4 6 C3.01 6 2.02 6 1 6 C1 5.34 1 4.68 1 4 C0.34 4 -0.32 4 -1 4 C-0.67 2.68 -0.34 1.36 0 0 Z " fill="#3D2E21" transform="translate(185,171)"/>
</svg>
