<?xml version="1.0" encoding="UTF-8"?>
<svg version="1.1" xmlns="http://www.w3.org/2000/svg" width="540" height="360">
<path d="M0 0 C178.2 0 356.4 0 540 0 C540 118.8 540 237.6 540 360 C361.8 360 183.6 360 0 360 C0 241.2 0 122.4 0 0 Z " fill="#171727" transform="translate(0,0)"/>
<path d="M0 0 C1.18658006 -0.01263157 1.18658006 -0.01263157 2.39713144 -0.02551833 C5.05873051 -0.04648152 7.7182526 -0.02454372 10.37982178 -0.0029192 C12.30274045 -0.00911413 14.22565218 -0.01792907 16.14854813 -0.02914459 C21.44095607 -0.05231276 26.73270406 -0.03790581 32.0250988 -0.01743543 C37.72935573 -0.00183929 43.43351111 -0.02071309 49.13775635 -0.03523731 C60.31564612 -0.05809759 71.49328631 -0.04856444 82.67117119 -0.02773645 C91.75331308 -0.01147148 100.83538672 -0.00724821 109.9175415 -0.01170254 C111.85433741 -0.01264855 111.85433741 -0.01264855 113.83026052 -0.01361367 C116.45306621 -0.01495969 119.07587188 -0.01633926 121.69867754 -0.01775203 C145.60746953 -0.02935656 169.51612203 -0.00780189 193.42488319 0.0281208 C215.25724472 0.06072785 237.0894381 0.0652665 258.92181396 0.04546642 C264.51216623 0.04042368 270.10251852 0.03541915 275.69287109 0.03072357 C276.38107942 0.03014539 277.06928774 0.02956721 277.77835086 0.02897151 C296.01376819 0.01411161 314.24916939 0.02247574 332.48458481 0.03778905 C335.09789784 0.03995205 337.71121088 0.04210115 340.32452393 0.04423618 C341.61042081 0.04530255 342.8963177 0.04636891 344.22118115 0.04746759 C353.29543997 0.05394489 362.36965333 0.04916265 371.44390869 0.04021168 C382.49808382 0.02969014 393.55207369 0.03713179 404.60621452 0.06766746 C410.24935595 0.08282505 415.8922046 0.08992213 421.53535461 0.07547665 C426.69707924 0.0625014 431.85822268 0.0724549 437.01987982 0.10103538 C438.89126494 0.10733671 440.76270111 0.10513512 442.63406229 0.09376494 C445.17076708 0.07960826 447.70548006 0.09599088 450.24206543 0.12025452 C450.9751261 0.10883453 451.70818677 0.09741455 452.4634614 0.08564851 C456.32290294 0.15836983 458.00353348 0.65978648 461.07378578 3.07594842 C463.66236275 6.45991821 463.82860927 9.11647444 463.76800537 13.21709728 C463.78114777 14.31805233 463.78114777 14.31805233 463.79455566 15.44124889 C463.81649279 17.85802542 463.80201918 20.27295969 463.78509521 22.68975353 C463.78846504 24.37457154 463.79331904 26.05938718 463.79959106 27.74419689 C463.80695462 31.27153245 463.79627417 34.79823399 463.77288818 38.32549572 C463.74439998 42.84189347 463.76080683 47.35680565 463.7907505 51.87314892 C463.80883791 55.35112182 463.803059 58.8287438 463.79011154 62.30672741 C463.78678148 63.97166655 463.79085058 65.63663778 463.80250931 67.30153942 C463.81524281 69.63101837 463.79581087 71.95810836 463.76800537 74.28740978 C463.77812653 74.97223431 463.78824768 75.65705883 463.79867554 76.36263561 C463.72104551 79.8816602 463.22715149 81.61349768 461.07396036 84.42890781 C457.41594048 87.30701586 454.70528796 87.45169419 450.23927212 87.37866592 C449.44791914 87.38563353 448.65656617 87.39260114 447.84123281 87.39977989 C445.1788376 87.4170802 442.51788674 87.39862974 439.85551453 87.38044262 C437.93188631 87.38548573 436.00826279 87.39271274 434.0846501 87.40194076 C428.79037881 87.42092317 423.4965675 87.4085955 418.20230758 87.39121783 C412.49603735 87.3778789 406.78983598 87.39326838 401.08357239 87.40503979 C389.9020325 87.42344635 378.72066703 87.41488405 367.53913253 87.39695156 C358.45460426 87.38294287 349.37012344 87.37902903 340.2855854 87.38239384 C338.34835641 87.38311 338.34835641 87.38311 336.37199147 87.38384063 C333.74862006 87.38486693 331.12524865 87.38592229 328.50187726 87.38700639 C304.58849637 87.39583864 280.67521261 87.37716208 256.76185436 87.34647616 C234.92280712 87.31861158 213.08387121 87.31365309 191.24481201 87.32866955 C185.65222905 87.33249186 180.05964609 87.33628661 174.46706295 87.33983994 C173.43435443 87.34049666 173.43435443 87.34049666 172.38078312 87.34116665 C154.14164831 87.35240089 135.90252477 87.34498893 117.66339213 87.33195919 C115.04981618 87.33011474 112.43624022 87.32828001 109.82266426 87.32645512 C107.89360786 87.32508698 107.89360786 87.32508698 105.92558063 87.32369121 C96.84785277 87.31807703 87.77015303 87.32140116 78.69242668 87.32800007 C67.63568629 87.33571827 56.57906571 87.32903522 45.52234953 87.30382503 C39.87734159 87.29129523 34.2325205 87.28522557 28.58750534 87.29636669 C23.42529266 87.30636286 18.26345368 87.29804861 13.10128672 87.27478551 C11.22857078 87.26960025 9.35582171 87.27123437 7.48311996 87.28018016 C4.9472768 87.29129092 2.41271593 87.27803673 -0.12304783 87.25841141 C-0.85873551 87.26749022 -1.5944232 87.27656904 -2.35240445 87.28592297 C-5.78978897 87.23367495 -7.56268161 87.0012132 -10.30121225 84.84561867 C-13.15556315 81.05846634 -13.02473918 78.5594249 -13.07183838 73.82744884 C-13.08001587 73.11503033 -13.08819336 72.40261181 -13.09661865 71.66860485 C-13.12147349 69.3058713 -13.13799028 66.94319791 -13.15240479 64.58037853 C-13.15772846 63.77329197 -13.16305214 62.96620541 -13.16853714 62.13466167 C-13.19527127 57.86136862 -13.21464383 53.58810478 -13.22906494 49.31475353 C-13.24569851 44.90503259 -13.29046387 40.49606111 -13.34143639 36.08662319 C-13.37512972 32.69277644 -13.38664468 29.29910696 -13.39229202 25.90510845 C-13.39900059 24.2800147 -13.4142126 22.65493245 -13.43818283 21.03000164 C-13.46987976 18.75093019 -13.46986546 16.47387124 -13.46246338 14.19463634 C-13.47055023 12.89939037 -13.47863708 11.6041444 -13.48696899 10.26964855 C-12.09498025 2.21675298 -7.65924183 -0.14975394 0 0 Z " fill="#2A2B3B" transform="translate(44.87896728515625,69.24774646759033)"/>
<path d="M0 0 C1.18702946 -0.01045141 1.18702946 -0.01045141 2.39803931 -0.02111396 C5.06043452 -0.03841428 7.72138537 -0.01996382 10.38375759 -0.0017767 C12.3073858 -0.00681981 14.23100933 -0.01404681 16.15462202 -0.02327484 C21.44889331 -0.04225725 26.74270462 -0.02992957 32.03696454 -0.0125519 C37.74323477 0.00078702 43.44943613 -0.01460245 49.15569973 -0.02637386 C60.33723962 -0.04478043 71.51860509 -0.03621812 82.70013959 -0.01828564 C91.78466786 -0.00427695 100.86914868 -0.00036311 109.95368671 -0.00372791 C111.89091571 -0.00444408 111.89091571 -0.00444408 113.86728064 -0.00517471 C116.49065206 -0.00620101 119.11402347 -0.00725636 121.73739486 -0.00834047 C145.65077575 -0.01717271 169.5640595 0.00150385 193.47741775 0.03218976 C215.316465 0.06005435 237.15540091 0.06501284 258.99446011 0.04999638 C264.58704306 0.04617407 270.17962603 0.04237931 275.77220917 0.03882599 C276.80491768 0.03816927 276.80491768 0.03816927 277.858489 0.03749928 C296.09762381 0.02626504 314.33674735 0.03367699 332.57587999 0.04670674 C335.18945594 0.04855119 337.80303189 0.05038591 340.41660786 0.05221081 C342.34566425 0.05357894 342.34566425 0.05357894 344.31369149 0.05497472 C353.39141935 0.06058889 362.46911909 0.05726477 371.54684544 0.05066586 C382.60358583 0.04294765 393.66020641 0.04963071 404.71692259 0.0748409 C410.36193053 0.0873707 416.00675162 0.09344035 421.65176678 0.08229923 C426.81397945 0.07230307 431.97581844 0.08061731 437.1379854 0.10388041 C439.01070134 0.10906567 440.88345041 0.10743155 442.75615216 0.09848576 C445.29199532 0.087375 447.82655619 0.10062919 450.36231995 0.12025452 C451.09800763 0.1111757 451.83369531 0.10209688 452.59167656 0.09274295 C456.02906108 0.14499097 457.80195373 0.37745273 460.54048437 2.53304726 C463.40319931 6.33129699 463.25435002 8.8210798 463.27937222 13.56708622 C463.28433712 14.28111103 463.28930202 14.99513584 463.29441738 15.73079777 C463.30904918 18.09835613 463.31584318 20.46584745 463.3213644 22.83344364 C463.32711567 24.47770534 463.33287341 26.12196702 463.33863735 27.76622868 C463.34915068 31.21710364 463.35499095 34.6679553 463.35847378 38.11884403 C463.36395475 42.53742256 463.38797272 46.95569234 463.41644573 51.37417412 C463.43508574 54.77227008 463.44027847 58.17029195 463.44180965 61.56843472 C463.44483439 63.19710507 463.4528569 64.82577417 463.46599483 66.45439434 C463.48308183 68.73568531 463.4811688 71.01622567 463.47468472 73.29755497 C463.47833035 74.59502155 463.48197598 75.89248814 463.48573208 77.22927189 C463.09308079 80.85898121 462.31419592 82.74302256 460.1182394 85.62641239 C457.08412182 87.14347118 453.93692372 86.76880751 450.6084156 86.76342678 C449.82082376 86.76607861 449.03323192 86.76873043 448.22177365 86.77146262 C445.55457529 86.77918686 442.88742272 86.77971598 440.22021389 86.78031254 C438.29989336 86.78432509 436.37957369 86.78876297 434.45925504 86.7935921 C429.16029402 86.80558633 423.86134212 86.81121262 418.56237018 86.81577325 C412.85604716 86.82171848 407.1497351 86.83333091 401.44341946 86.84406376 C387.65249345 86.86861112 373.8615638 86.88321759 360.07062265 86.89612383 C356.17807354 86.89983382 352.2855248 86.9038072 348.39297605 86.90787649 C324.2408112 86.93310915 300.08864681 86.95518687 275.93647194 86.96760464 C270.3394276 86.97052607 264.7423833 86.97349357 259.14533901 86.97651005 C258.44996188 86.97688096 257.75458476 86.97725187 257.0381356 86.97763401 C234.4845692 86.98979369 211.93108077 87.02074424 189.377551 87.06243157 C165.54393008 87.10640481 141.71036087 87.13213535 117.87669832 87.1375252 C104.88009824 87.14094474 91.88362119 87.15276391 78.88705921 87.18562794 C67.82186664 87.21356172 56.75682229 87.22465714 45.69159719 87.21343248 C40.04237708 87.20822888 34.39346768 87.2112428 28.74429226 87.23589802 C23.57693701 87.25826293 18.41011797 87.25775048 13.24275414 87.23869415 C11.36924419 87.23587615 9.49569886 87.24159155 7.62224617 87.25650708 C5.08269909 87.27549622 2.54508718 87.26390532 0.00558662 87.24444485 C-0.72833159 87.25729407 -1.4622498 87.27014329 -2.21840796 87.28338188 C-6.08163031 87.21796409 -7.76111605 86.72130218 -10.83503741 84.30359042 C-13.42258785 80.9189934 -13.58933716 78.26219195 -13.52873325 74.16156864 C-13.53749485 73.42759861 -13.54625645 72.69362858 -13.55528355 71.93741703 C-13.57722067 69.5206405 -13.56274706 67.10570623 -13.5458231 64.68891239 C-13.54919292 63.00409438 -13.55404692 61.31927874 -13.56031895 59.63446903 C-13.5676825 56.10713348 -13.55700206 52.58043193 -13.53361607 49.0531702 C-13.50512786 44.53677245 -13.52153472 40.02186028 -13.55147839 35.50551701 C-13.56956579 32.0275441 -13.56378688 28.54992212 -13.55083942 25.07193851 C-13.54750936 23.40699938 -13.55157847 21.74202815 -13.56323719 20.0771265 C-13.57597069 17.74764756 -13.55653875 15.42055756 -13.52873325 13.09125614 C-13.54391499 12.06401936 -13.54391499 12.06401936 -13.55940342 11.01603031 C-13.48177339 7.49700572 -12.98787937 5.76516825 -10.83468825 2.94975811 C-7.17666836 0.07165006 -4.46601584 -0.07302827 0 0 Z " fill="#2A2B3B" transform="translate(44.881760597229004,171.3735876083374)"/>
<path d="M0 0 C0.97687775 -0.00852997 1.95375549 -0.01705994 2.9602356 -0.02584839 C4.02058517 -0.02494202 5.08093475 -0.02403564 6.17341614 -0.02310181 C7.2992511 -0.02981903 8.42508606 -0.03653625 9.58503723 -0.04345703 C13.30830802 -0.06245953 17.03139869 -0.06636272 20.75471497 -0.06851196 C23.34678217 -0.07493942 25.93884863 -0.08166774 28.53091431 -0.08868408 C33.96726979 -0.10066329 39.40355398 -0.10445006 44.83992004 -0.10317993 C51.10371632 -0.10198057 57.36716688 -0.12304399 63.63087577 -0.15466726 C69.67557601 -0.18408658 75.72009028 -0.19115283 81.7648716 -0.18996048 C84.32721173 -0.19231507 86.88955462 -0.20113048 89.45184898 -0.21662521 C93.04422172 -0.23631086 96.6357155 -0.23043549 100.22810364 -0.21841431 C101.80344627 -0.23527283 101.80344627 -0.23527283 103.41061401 -0.25247192 C111.21740275 -0.18638464 118.1875493 1.28537745 124.46174622 6.16195679 C129.73197909 12.63116764 131.5310524 18.42302749 131.34065247 26.77523804 C130.51118774 33.30855277 126.94259837 38.05169512 122.02424622 42.26742554 C116.71485209 46.24947113 112.66323151 47.38096601 106.11769104 47.41459656 C105.15619644 47.42175186 104.19470184 47.42890717 103.20407104 47.4362793 C102.1608519 47.4389682 101.11763275 47.4416571 100.0428009 47.44442749 C98.93486679 47.45099869 97.82693268 47.45756989 96.6854248 47.46434021 C93.02232289 47.48403575 89.35926188 47.49572692 85.69612122 47.50570679 C83.81673229 47.51182008 83.81673229 47.51182008 81.89937592 47.51805687 C75.95186472 47.53675383 70.00436646 47.55132388 64.05683303 47.55966884 C57.21122584 47.56943491 50.36594254 47.59574607 43.5204494 47.63616973 C37.57509962 47.67006295 31.62982845 47.68182145 25.68437958 47.68587303 C23.16307121 47.69073802 20.64176628 47.70234942 18.12052155 47.72091103 C14.58784311 47.74530449 11.05600684 47.7443366 7.52326965 47.73739624 C6.48814743 47.7502063 5.45302521 47.76301636 4.38653564 47.7762146 C-3.16278429 47.72232633 -9.35864946 46.2408079 -15.28044128 41.37289429 C-20.50932373 34.98637368 -23.69060456 29.33646553 -23.38200378 20.88851929 C-22.34562961 14.20191282 -19.2982424 8.92057953 -13.97575378 4.76742554 C-9.54607232 1.6952271 -5.42092197 0.02149695 0 0 Z " fill="#40414E" transform="translate(51.97575378417969,280.7325744628906)"/>
<path d="M0 0 C1.81724579 -0.00845947 1.81724579 -0.00845947 3.67120361 -0.01708984 C5.02087462 -0.0132009 6.37054503 -0.00910454 7.72021484 -0.00482178 C9.13596782 -0.00753064 10.55171938 -0.01109098 11.96746826 -0.01544189 C15.81863594 -0.02458065 19.66969678 -0.02101556 23.52086639 -0.01468372 C27.54516393 -0.00963139 31.56945212 -0.01431303 35.59375 -0.01745605 C42.35271858 -0.02109795 49.11164351 -0.01629077 55.87060547 -0.0067749 C63.69251568 0.00411009 71.51432164 0.00058467 79.33622932 -0.01042771 C86.04368548 -0.01949426 92.75111018 -0.02078898 99.45857048 -0.01555037 C103.46826767 -0.01242718 107.4779158 -0.01203088 111.48760986 -0.01862335 C115.25669502 -0.02438702 119.02564534 -0.02041803 122.79471588 -0.00883484 C124.1806745 -0.00618298 125.5666444 -0.00696227 126.95259857 -0.01136017 C128.83916325 -0.01679612 130.72575262 -0.0087821 132.61230469 0 C133.66976898 0.00075405 134.72723328 0.0015081 135.81674194 0.002285 C138.30615234 0.25396729 138.30615234 0.25396729 140.30615234 2.25396729 C140.56494141 4.28521729 140.56494141 4.28521729 140.57177734 6.75396729 C140.57435547 7.64084229 140.57693359 8.52771729 140.57958984 9.44146729 C140.57185547 10.36959229 140.56412109 11.29771729 140.55615234 12.25396729 C140.56388672 13.18209229 140.57162109 14.11021729 140.57958984 15.06646729 C140.57701172 15.95334229 140.57443359 16.84021729 140.57177734 17.75396729 C140.56952148 18.56865479 140.56726563 19.38334229 140.56494141 20.22271729 C140.30615234 22.25396729 140.30615234 22.25396729 138.30615234 24.25396729 C135.81674194 24.50564957 135.81674194 24.50564957 132.61230469 24.50793457 C130.7950589 24.51639404 130.7950589 24.51639404 128.94110107 24.52502441 C127.59143007 24.52113547 126.24175965 24.51703911 124.89208984 24.51275635 C123.47633687 24.51546521 122.06058531 24.51902556 120.64483643 24.52337646 C116.79366875 24.53251522 112.9426079 24.52895013 109.09143829 24.52261829 C105.06714076 24.51756596 101.04285257 24.5222476 97.01855469 24.52539062 C90.2595861 24.52903252 83.50066118 24.52422534 76.74169922 24.51470947 C68.91978901 24.50382448 61.09798305 24.5073499 53.27607536 24.51836228 C46.56861921 24.52742883 39.8611945 24.52872355 33.15373421 24.52348495 C29.14403702 24.52036175 25.13438889 24.51996545 21.12469482 24.52655792 C17.35560967 24.53232159 13.58665934 24.5283526 9.81758881 24.51676941 C8.43163019 24.51411755 7.04566029 24.51489684 5.65970612 24.51929474 C3.77314144 24.52473069 1.88655206 24.51671667 0 24.50793457 C-1.05746429 24.50718052 -2.11492859 24.50642647 -3.20443726 24.50564957 C-5.69384766 24.25396729 -5.69384766 24.25396729 -7.69384766 22.25396729 C-7.95263672 20.22271729 -7.95263672 20.22271729 -7.95947266 17.75396729 C-7.96205078 16.86709229 -7.96462891 15.98021729 -7.96728516 15.06646729 C-7.95568359 13.67427979 -7.95568359 13.67427979 -7.94384766 12.25396729 C-7.95158203 11.32584229 -7.95931641 10.39771729 -7.96728516 9.44146729 C-7.96470703 8.55459229 -7.96212891 7.66771729 -7.95947266 6.75396729 C-7.9572168 5.93927979 -7.95496094 5.12459229 -7.95263672 4.28521729 C-7.34393066 -0.49255105 -3.97606708 0.00283523 0 0 Z " fill="#3F3F4F" transform="translate(111.69384765625,217.74603271484375)"/>
<path d="M0 0 C1.81724579 -0.00845947 1.81724579 -0.00845947 3.67120361 -0.01708984 C5.02087462 -0.0132009 6.37054503 -0.00910454 7.72021484 -0.00482178 C9.13596782 -0.00753064 10.55171938 -0.01109098 11.96746826 -0.01544189 C15.81863594 -0.02458065 19.66969678 -0.02101556 23.52086639 -0.01468372 C27.54516393 -0.00963139 31.56945212 -0.01431303 35.59375 -0.01745605 C42.35271858 -0.02109795 49.11164351 -0.01629077 55.87060547 -0.0067749 C63.69251568 0.00411009 71.51432164 0.00058467 79.33622932 -0.01042771 C86.04368548 -0.01949426 92.75111018 -0.02078898 99.45857048 -0.01555037 C103.46826767 -0.01242718 107.4779158 -0.01203088 111.48760986 -0.01862335 C115.25669502 -0.02438702 119.02564534 -0.02041803 122.79471588 -0.00883484 C124.1806745 -0.00618298 125.5666444 -0.00696227 126.95259857 -0.01136017 C128.83916325 -0.01679612 130.72575262 -0.0087821 132.61230469 0 C133.66976898 0.00075405 134.72723328 0.0015081 135.81674194 0.002285 C138.30615234 0.25396729 138.30615234 0.25396729 140.30615234 2.25396729 C140.56494141 4.28521729 140.56494141 4.28521729 140.57177734 6.75396729 C140.57435547 7.64084229 140.57693359 8.52771729 140.57958984 9.44146729 C140.57185547 10.36959229 140.56412109 11.29771729 140.55615234 12.25396729 C140.56388672 13.18209229 140.57162109 14.11021729 140.57958984 15.06646729 C140.57701172 15.95334229 140.57443359 16.84021729 140.57177734 17.75396729 C140.56952148 18.56865479 140.56726563 19.38334229 140.56494141 20.22271729 C140.30615234 22.25396729 140.30615234 22.25396729 138.30615234 24.25396729 C135.81674194 24.50564957 135.81674194 24.50564957 132.61230469 24.50793457 C130.7950589 24.51639404 130.7950589 24.51639404 128.94110107 24.52502441 C127.59143007 24.52113547 126.24175965 24.51703911 124.89208984 24.51275635 C123.47633687 24.51546521 122.06058531 24.51902556 120.64483643 24.52337646 C116.79366875 24.53251522 112.9426079 24.52895013 109.09143829 24.52261829 C105.06714076 24.51756596 101.04285257 24.5222476 97.01855469 24.52539062 C90.2595861 24.52903252 83.50066118 24.52422534 76.74169922 24.51470947 C68.91978901 24.50382448 61.09798305 24.5073499 53.27607536 24.51836228 C46.56861921 24.52742883 39.8611945 24.52872355 33.15373421 24.52348495 C29.14403702 24.52036175 25.13438889 24.51996545 21.12469482 24.52655792 C17.35560967 24.53232159 13.58665934 24.5283526 9.81758881 24.51676941 C8.43163019 24.51411755 7.04566029 24.51489684 5.65970612 24.51929474 C3.77314144 24.52473069 1.88655206 24.51671667 0 24.50793457 C-1.05746429 24.50718052 -2.11492859 24.50642647 -3.20443726 24.50564957 C-5.69384766 24.25396729 -5.69384766 24.25396729 -7.69384766 22.25396729 C-7.95263672 20.22271729 -7.95263672 20.22271729 -7.95947266 17.75396729 C-7.96205078 16.86709229 -7.96462891 15.98021729 -7.96728516 15.06646729 C-7.95568359 13.67427979 -7.95568359 13.67427979 -7.94384766 12.25396729 C-7.95158203 11.32584229 -7.95931641 10.39771729 -7.96728516 9.44146729 C-7.96470703 8.55459229 -7.96212891 7.66771729 -7.95947266 6.75396729 C-7.9572168 5.93927979 -7.95496094 5.12459229 -7.95263672 4.28521729 C-7.34393066 -0.49255105 -3.97606708 0.00283523 0 0 Z " fill="#3F3F4F" transform="translate(111.69384765625,115.74603271484375)"/>
<path d="M0 0 C178.2 0 356.4 0 540 0 C540 118.8 540 237.6 540 360 C361.8 360 183.6 360 0 360 C0 356.04 0 352.08 0 348 C0.99 349.32 1.98 350.64 3 352 C4.64694485 353.68615782 6.31126121 355.35570171 8 357 C8.33 357.33 8.66 357.66 9 358 C11.75668621 358.10172909 14.48845033 358.13729322 17.24573135 358.13142776 C18.12502991 358.1334804 19.00432846 358.13553303 19.91027242 358.13764787 C22.89545649 358.14336138 25.88059506 358.1418553 28.86578369 358.14044189 C31.01210482 358.14302305 33.15842546 358.1460355 35.30474544 358.1494453 C41.23305537 358.15754801 47.16135322 358.15930668 53.08966804 358.16004276 C59.47154045 358.16188767 65.85340651 358.16943214 72.23527527 358.17617798 C86.93305721 358.19049528 101.6308367 358.19629097 116.3286244 358.20086992 C123.58766107 358.20320367 130.84669694 358.20680608 138.10573299 358.2105653 C162.94147594 358.22340298 187.77721844 358.23412185 212.61296463 358.2375679 C214.17289648 358.23778954 215.73282833 358.23801132 217.29276018 358.23823325 C218.85652029 358.2384539 220.42028039 358.23867438 221.9840405 358.2388947 C225.12135903 358.23933726 228.25867756 358.23978437 231.39599609 358.24023438 C232.17387246 358.24034377 232.95174882 358.24045316 233.75319719 358.24056586 C258.9810212 358.24419723 284.20881649 358.26011916 309.43662949 358.28342474 C336.09244065 358.3080046 362.74823539 358.32173989 389.40405822 358.32293582 C392.3286144 358.32310728 395.25317057 358.32332271 398.17772675 358.32357025 C399.25793342 358.3236539 399.25793342 358.3236539 400.35996246 358.32373925 C411.96418045 358.32489133 423.56836905 358.33592676 435.1725771 358.35045731 C446.83055363 358.36480305 458.48848365 358.3678171 470.14646754 358.36001733 C476.46596253 358.35609794 482.78535831 358.35710302 489.10484123 358.37107468 C494.88460883 358.38373664 500.66420189 358.38268432 506.44396898 358.37048396 C508.54024732 358.36851352 510.63653771 358.3716669 512.73279908 358.38032833 C515.5723824 358.39132262 518.41133903 358.38400303 521.25090408 358.3719368 C522.07334714 358.37953199 522.8957902 358.38712718 523.74315578 358.39495254 C528.30561014 358.35281882 531.52934632 358.0925098 535 355 C536.87391497 350.94242758 537.25029258 347.35822244 537.25168228 342.92615891 C537.25689778 341.72412472 537.26211327 340.52209054 537.26748681 339.28363109 C537.26302537 337.97176806 537.25856392 336.65990503 537.25396729 335.30828857 C537.25627249 333.89385227 537.25944941 332.47941716 537.26342177 331.06498456 C537.27176984 327.183031 537.26764449 323.30117579 537.26144934 319.41922188 C537.25692608 315.23110411 537.26390787 311.04300332 537.26940918 306.85488892 C537.27830523 298.65339648 537.27638049 290.45194064 537.2705839 282.25044677 C537.26606948 275.58775054 537.26545354 268.92506457 537.26763153 262.26236725 C537.267938 261.31458409 537.26824446 260.36680093 537.26856022 259.39029707 C537.26919965 257.46502373 537.26984808 255.5397504 537.2705054 253.61447707 C537.27620899 235.56016673 537.26964969 217.50587671 537.25890467 199.45156971 C537.24996335 183.94752069 537.25152592 168.44350161 537.26074219 152.93945312 C537.27143434 134.94410562 537.27566576 116.94877589 537.26951766 98.95342565 C537.26888054 97.036407 537.2682518 95.11938834 537.26763153 93.20236969 C537.26732298 92.25909533 537.26701443 91.31582097 537.26669653 90.34396254 C537.26496685 83.68432875 537.26789043 77.02470621 537.27259064 70.36507416 C537.27818751 62.25665336 537.27670803 54.14827131 537.26602915 46.03985497 C537.26075718 41.89989905 537.25874158 37.76000784 537.26532745 33.62005234 C537.2712573 29.83540995 537.26806133 26.05089266 537.25737235 22.26626173 C537.25512572 20.89225702 537.25630262 19.51824189 537.26112393 18.14424381 C537.26714665 16.28632848 537.2598141 14.42838383 537.25168228 12.57047653 C537.25135758 11.53557359 537.25103287 10.50067064 537.25069833 9.434407 C537.24012445 6.81949033 537.24012445 6.81949033 535 5 C529.03643977 2.28885076 523.3785112 1.56588746 516.90041161 1.62526989 C516.02598848 1.62120916 515.15156536 1.61714844 514.25064456 1.61296466 C511.33004796 1.60304451 508.40993493 1.61443205 505.48934937 1.6257782 C503.3705461 1.62303674 501.25174419 1.61898392 499.13294566 1.61373454 C493.31773327 1.60315173 487.50267468 1.61127418 481.68746901 1.62248504 C475.41339928 1.63132762 469.13934967 1.6228834 462.86528015 1.61662292 C451.28778539 1.60768194 439.71035357 1.61229961 428.13286348 1.62378674 C417.43833983 1.63432552 406.74383376 1.6388619 396.04930496 1.63749123 C395.33974359 1.6374072 394.63018223 1.63732317 393.899119 1.63723659 C391.01875554 1.63688434 388.1383921 1.63650033 385.25802865 1.63607101 C358.24367516 1.6321068 331.22935276 1.6448203 304.21500816 1.66559757 C280.21364343 1.68397071 256.2123085 1.68977876 232.2109375 1.68432617 C230.6695169 1.68397974 229.12809629 1.68363364 227.58667569 1.68328788 C226.44360187 1.68303139 226.44360187 1.68303139 225.27743564 1.68276971 C221.44138804 1.68191617 217.60534044 1.68109239 213.76929283 1.68030071 C213.01250009 1.68014363 212.25570736 1.67998655 211.47598151 1.67982471 C191.41948362 1.67583522 171.3629886 1.6813094 151.30649245 1.689812 C149.14859048 1.69071904 146.9906885 1.69162469 144.83278653 1.69252724 C143.40129731 1.69312835 141.96980808 1.69373697 140.53831886 1.69435314 C130.55739433 1.69857506 120.57647542 1.69915255 110.59555028 1.69724765 C97.73494782 1.69480538 84.87438364 1.69908604 72.01378797 1.71445765 C65.81147936 1.72171051 59.60921256 1.72577103 53.40690041 1.72121429 C47.73222981 1.71714654 42.05764563 1.72227872 36.38298817 1.73484037 C34.32729361 1.73777515 32.27159094 1.73732539 30.21589844 1.73319729 C27.42646402 1.72810319 24.63732017 1.73526161 21.84790611 1.74552441 C20.64480488 1.73892968 20.64480488 1.73892968 19.41739857 1.73220173 C14.58043802 1.76620183 10.5560871 2.3194404 6 4 C3.66369252 6.39859044 3.66369252 6.39859044 2 9 C1.34 9.66 0.68 10.32 0 11 C0 7.37 0 3.74 0 0 Z " fill="#212232" transform="translate(0,0)"/>
<path d="M0 0 C0.75035522 -0.00761353 1.50071045 -0.01522705 2.27380371 -0.02307129 C3.85030817 -0.03381143 5.42688342 -0.03675033 7.00341797 -0.03222656 C9.4006292 -0.03125228 11.79465439 -0.07297605 14.19140625 -0.1171875 C15.73176423 -0.12239439 17.27213322 -0.1250827 18.8125 -0.125 C19.5199939 -0.14139526 20.22748779 -0.15779053 20.9564209 -0.17468262 C26.51896166 -0.09829317 29.96770836 1.7391389 33.90625 5.46875 C36.59217385 9.54095713 37.51279845 12.61636241 36.90625 17.46875 C35.1452499 22.10296079 33.14696723 24.8664917 28.90625 27.46875 C25.09375 28.21875 25.09375 28.21875 21.90625 28.46875 C21.90625 26.15875 21.90625 23.84875 21.90625 21.46875 C18.32297247 20.46657936 18.32297247 20.46657936 14.90625 21.46875 C14.720625 20.5096875 14.720625 20.5096875 14.53125 19.53125 C14.325 18.850625 14.11875 18.17 13.90625 17.46875 C13.24625 17.13875 12.58625 16.80875 11.90625 16.46875 C12.23625 18.77875 12.56625 21.08875 12.90625 23.46875 C11.91625 23.13875 10.92625 22.80875 9.90625 22.46875 C10.56625 24.44875 11.22625 26.42875 11.90625 28.46875 C8.36486382 28.58556812 4.8239776 28.656205 1.28125 28.71875 C0.28222656 28.75226563 -0.71679688 28.78578125 -1.74609375 28.8203125 C-7.89540282 28.9017603 -11.41876807 28.58212696 -16.09375 24.46875 C-19.47823332 20.63300223 -19.61349499 16.83410971 -19.4375 11.90625 C-18.91155954 8.17685402 -17.67491456 6.18228197 -15.09375 3.46875 C-10.00454675 0.83095688 -5.74578016 0.00163576 0 0 Z " fill="#030316" transform="translate(455.09375,98.53125)"/>
<path d="M0 0 C5.80881665 3.17840911 10.17219417 6.39158251 12.3125 12.8125 C13.20733041 20.01533245 12.45992239 25.77300535 8.3125 31.8125 C7.6525 32.4725 6.9925 33.1325 6.3125 33.8125 C4.3125 33.6875 4.3125 33.6875 2.3125 32.8125 C1.1875 30.8125 1.1875 30.8125 0.3125 28.8125 C-0.3475 28.4825 -1.0075 28.1525 -1.6875 27.8125 C-1.3575 27.1525 -1.0275 26.4925 -0.6875 25.8125 C-2.86267521 26.61980727 -2.86267521 26.61980727 -3.4375 28.75 C-5.24067715 31.7252423 -7.4256376 31.96157937 -10.6875 32.8125 C-9.8625 33.245625 -9.0375 33.67875 -8.1875 34.125 C-7.3625 34.681875 -6.5375 35.23875 -5.6875 35.8125 C-5.6875 36.8025 -5.6875 37.7925 -5.6875 38.8125 C-10.97666975 39.12985018 -14.24852413 38.77181725 -18.6875 35.8125 C-24.29588849 30.26192995 -26.82382591 26.53910198 -27 18.5 C-26.94552402 13.04634883 -26.56937101 9.89868001 -22.6875 5.8125 C-15.60477944 -0.92934096 -9.4498521 -3.04317271 0 0 Z " fill="#CA9B7A" transform="translate(75.6875,94.1875)"/>
<path d="M0 0 C5.15944873 -0.09920549 10.31833689 -0.17162646 15.47851562 -0.21972656 C17.23219479 -0.2397871 18.98580753 -0.26704251 20.73925781 -0.30175781 C23.26644318 -0.35052302 25.79274091 -0.37302392 28.3203125 -0.390625 C29.09867462 -0.41127014 29.87703674 -0.43191528 30.6789856 -0.45318604 C36.81473295 -0.45569005 40.27839719 1.46609394 44.8125 5.6875 C46.71123763 9.38504169 47.34000414 12.85194951 47 17 C44.93817265 22.27316906 42.10330718 25.52147008 37 28 C34.13406976 28.29930678 31.49222175 28.44458583 28.62890625 28.43359375 C27.42898293 28.44145653 27.42898293 28.44145653 26.20481873 28.44947815 C24.51798662 28.45588297 22.83110977 28.45458131 21.14428711 28.44604492 C18.57389177 28.4375377 16.00572278 28.46631023 13.43554688 28.49804688 C11.79166733 28.49965926 10.14778387 28.49908065 8.50390625 28.49609375 C7.7412294 28.50732773 6.97855255 28.51856171 6.19276428 28.53013611 C1.05409056 28.46356992 -1.95707811 27.44469268 -6 24 C-6.33 23.01 -6.66 22.02 -7 21 C-3 23 -3 23 -1.1875 24.125 C2.06202053 25.42480821 4.52892217 25.35907702 8 25 C11.39549127 23.27022143 13.42059334 21.93208897 15.4375 18.6875 C16.41152475 14.03382621 15.68249858 10.46249696 13.6875 6.1875 C9.40074867 2.6982838 4.38226822 2.56699995 -1 2 C-0.67 1.34 -0.34 0.68 0 0 Z " fill="#020215" transform="translate(445,201)"/>
<path d="M0 0 C4.97772182 2.80691007 8.22825619 7.45651239 10.75 12.5 C11.4909376 19.7150317 10.90485321 25.44968456 6.75 31.5 C6.09 32.16 5.43 32.82 4.75 33.5 C2.125 33.125 2.125 33.125 -0.25 32.5 C-0.69080356 26.10834844 0.09640465 23.86621817 3.75 18.5 C4.08524876 14.74870163 4.08524876 14.74870163 3.75 11.5 C3.09 11.5 2.43 11.5 1.75 11.5 C-1.125 4.875 -1.125 4.875 -2.25 1.5 C-6.21 1.5 -10.17 1.5 -14.25 1.5 C-15.81272189 5.89253773 -15.81272189 5.89253773 -16.25 10.5 C-15.59 10.5 -14.93 10.5 -14.25 10.5 C-13.981875 9.860625 -13.71375 9.22125 -13.4375 8.5625 C-12.25 6.5 -12.25 6.5 -9.25 5.5 C-9.25 6.16 -9.25 6.82 -9.25 7.5 C-8.26 7.5 -7.27 7.5 -6.25 7.5 C-5.92 8.82 -5.59 10.14 -5.25 11.5 C-5.889375 11.665 -6.52875 11.83 -7.1875 12 C-9.39883235 13.28174652 -9.39883235 13.28174652 -9.7734375 15.37890625 C-10.04201373 17.4077456 -10.15265606 19.4557773 -10.25 21.5 C-9.92 21.83 -9.59 22.16 -9.25 22.5 C-9.25 20.52 -9.25 18.54 -9.25 16.5 C-6.11650268 15.45550089 -5.26031744 15.56576355 -2.25 16.5 C-2.58 17.49 -2.91 18.48 -3.25 19.5 C-3.91 19.5 -4.57 19.5 -5.25 19.5 C-5.22679688 20.19867188 -5.20359375 20.89734375 -5.1796875 21.6171875 C-5.15261719 22.98230469 -5.15261719 22.98230469 -5.125 24.375 C-5.10179688 25.27992188 -5.07859375 26.18484375 -5.0546875 27.1171875 C-5.25 29.5 -5.25 29.5 -7.25 31.5 C-9.875 32.125 -9.875 32.125 -12.25 32.5 C-11.26 33.16 -10.27 33.82 -9.25 34.5 C-9.25 35.82 -9.25 37.14 -9.25 38.5 C-15.56508993 38.16762685 -19.740579 37.08603737 -24.25 32.5 C-28.28171136 27.33818772 -30.05702655 22.48159286 -29.66015625 15.91796875 C-28.61289225 9.74409814 -26.12000049 5.88677755 -21.1875 2.0625 C-14.86314007 -2.39247139 -7.15461617 -3.12928299 0 0 Z " fill="#F0EDE4" transform="translate(77.25,196.5)"/>
<path d="M0 0 C178.2 0 356.4 0 540 0 C540 3.63 540 7.26 540 11 C539.54625 10.2575 539.0925 9.515 538.625 8.75 C533.2532618 3.12246474 526.89675761 1.82337846 519.32193928 1.54738037 C514.67027481 1.46482778 510.0212282 1.48031404 505.36909485 1.50552368 C503.24942733 1.50234534 501.12976183 1.49741599 499.01010197 1.49089086 C493.19710322 1.47808317 487.38438374 1.490185 481.57140338 1.50641942 C475.29803073 1.51958884 469.0246889 1.50967316 462.75131226 1.50265503 C451.88455236 1.49373913 441.01789592 1.49951182 430.15114784 1.51594925 C418.75223339 1.53318783 407.35335581 1.54298933 395.95442772 1.54261398 C395.24493509 1.54259869 394.53544246 1.5425834 393.80445006 1.54256765 C390.92433792 1.54248583 388.04422579 1.5423546 385.16411366 1.54215602 C358.15619255 1.54034458 331.14832757 1.56022346 304.14042593 1.59101535 C280.14561107 1.61827116 256.15083607 1.63073751 232.15600586 1.62939453 C230.61485063 1.62931371 229.07369541 1.62923299 227.53254018 1.62915237 C226.3896618 1.62909132 226.3896618 1.62909132 225.22369496 1.62902904 C221.3882902 1.62882744 217.55288543 1.62864628 213.71748066 1.62848854 C212.96081158 1.62845511 212.20414249 1.62842169 211.42454404 1.62838725 C191.37163368 1.62765697 171.31872831 1.63673333 151.26582211 1.64914167 C150.55255263 1.64958221 149.83928315 1.65002276 149.10439944 1.65047665 C146.23620771 1.6522531 143.36801598 1.65402989 140.49982428 1.65585856 C130.52134356 1.66217774 120.54286676 1.66519698 110.56438417 1.66608154 C97.70766311 1.66727556 84.85098335 1.67548717 71.99427477 1.69494446 C65.79398618 1.7041868 59.5937381 1.71026907 53.39344215 1.70775604 C47.72065895 1.70556827 42.0479654 1.71258863 36.37520089 1.72705309 C34.32021035 1.73068364 32.26521057 1.73093655 30.21021966 1.72751851 C27.42174399 1.72339314 24.63356282 1.73150942 21.8451128 1.74273109 C21.04333116 1.73862046 20.24154952 1.73450982 19.41547146 1.73027462 C14.57977434 1.7659328 10.55499377 2.32019577 6 4 C3.66369252 6.39859044 3.66369252 6.39859044 2 9 C1.34 9.66 0.68 10.32 0 11 C0 7.37 0 3.74 0 0 Z " fill="#333442" transform="translate(0,0)"/>
<path d="M0 0 C0.99 1.32 1.98 2.64 3 4 C4.64694485 5.68615782 6.31126121 7.35570171 8 9 C8.33 9.33 8.66 9.66 9 10 C11.75573335 10.10264477 14.48657321 10.13913906 17.24293804 10.13422108 C18.121937 10.13657331 19.00093595 10.13892554 19.90657124 10.14134905 C22.89074441 10.14807556 25.87487442 10.14757973 28.85905457 10.14717102 C31.00466314 10.15046738 33.15027108 10.15419246 35.29587823 10.1583125 C41.22225608 10.16836664 47.14862381 10.17205476 53.07500899 10.17470181 C59.4548566 10.17859481 65.83469611 10.18817384 72.21453857 10.19691467 C86.90806239 10.21577212 101.60158597 10.22593966 116.29511897 10.23437535 C123.55249263 10.2385785 130.80986546 10.24380095 138.06723841 10.24905988 C162.89854119 10.26695265 187.7298442 10.28194953 212.56115246 10.28938007 C214.1208302 10.28985483 215.68050795 10.29033072 217.2401857 10.29080774 C218.01366553 10.29104411 218.78714537 10.29128049 219.58406398 10.29152403 C223.50306414 10.29272526 227.4220643 10.2939407 231.34106445 10.29516602 C232.11881006 10.29540617 232.89655566 10.29564632 233.69786931 10.29589374 C258.91871281 10.30378805 284.1395093 10.32722127 309.36033227 10.35972196 C336.01021312 10.39400163 362.66006646 10.41372952 389.30996972 10.41702431 C392.23426299 10.41744187 395.15855625 10.41792144 398.0828495 10.41844749 C398.80291986 10.41857069 399.52299023 10.41869388 400.2648809 10.4188208 C411.86519359 10.42115524 423.46545181 10.43682886 435.06574507 10.45728934 C446.7215071 10.4775218 458.37718816 10.48270286 470.03296616 10.47351871 C476.35058981 10.46895843 482.66803616 10.47096027 488.98563576 10.49028015 C494.7648823 10.50780158 500.54382077 10.50700415 506.32307009 10.49138286 C508.4180224 10.48898994 510.51299543 10.49341665 512.6079159 10.50521151 C515.44827472 10.52021754 518.28752594 10.51073627 521.12785625 10.49498463 C521.9476723 10.50520683 522.76748835 10.51542904 523.6121473 10.52596101 C528.8481268 10.46226851 531.86849599 9.501963 536 6 C537.88568694 2.89985071 537.88568694 2.89985071 539 0 C539.33 0 539.66 0 540 0 C540 3.96 540 7.92 540 12 C361.8 12 183.6 12 0 12 C0 8.04 0 4.08 0 0 Z " fill="#3F404E" transform="translate(0,348)"/>
<path d="M0 0 C5.80881665 3.17840911 10.17219417 6.39158251 12.3125 12.8125 C13.20733041 20.01533245 12.45992239 25.77300535 8.3125 31.8125 C7.6525 32.4725 6.9925 33.1325 6.3125 33.8125 C4.1875 33.4375 4.1875 33.4375 2.3125 32.8125 C2.00899235 26.9446855 2.61570918 24.09371536 5.3125 18.8125 C5.56394312 15.06176796 5.56394312 15.06176796 5.3125 11.8125 C4.6525 11.8125 3.9925 11.8125 3.3125 11.8125 C2.69401042 10.0546875 2.07552083 8.296875 1.45703125 6.5390625 C-0.21260903 4.020356 -1.80675466 3.62169813 -4.6875 2.8125 C-7.81329194 2.57237081 -7.81329194 2.57237081 -11 2.6875 C-12.06863281 2.70554687 -13.13726562 2.72359375 -14.23828125 2.7421875 C-15.45064453 2.77699219 -15.45064453 2.77699219 -16.6875 2.8125 C-16.6875 4.1325 -16.6875 5.4525 -16.6875 6.8125 C-17.533125 7.39 -18.37875 7.9675 -19.25 8.5625 C-21.86350944 10.48209356 -21.86350944 10.48209356 -21.90234375 12.73828125 C-21.49587418 16.78080592 -20.90245796 19.15666516 -17.6875 21.8125 C-17.6875 22.8025 -17.6875 23.7925 -17.6875 24.8125 C-17.0275 24.8125 -16.3675 24.8125 -15.6875 24.8125 C-14.40432108 28.66203676 -14.62106363 31.75988135 -14.6875 35.8125 C-17.52592501 35.72901691 -19.22799314 35.2401272 -21.3203125 33.29296875 C-26.51404144 27.33398023 -27.04338877 22.84369813 -26.96484375 14.98046875 C-26.47595587 9.39612973 -23.69110643 6.5986803 -19.6875 3.0625 C-13.19407213 -1.8075709 -7.76245143 -2.49977249 0 0 Z " fill="#F2F0E6" transform="translate(75.6875,94.1875)"/>
<path d="M0 0 C2.97797031 2.41457052 4.61607629 4.41690552 6.3125 7.875 C6.66560418 12.16269357 5.78457906 15.12618494 3.5 18.75 C0.2427506 21.91418513 -1.51879608 22.74514401 -6.0625 23.25 C-10.38046607 22.80331385 -12.38076548 21.6434289 -15.6875 18.875 C-18.2546231 14.69575865 -18.38741193 10.65488635 -17.6875 5.875 C-13.62899443 -0.93749149 -7.52924662 -3.15177765 0 0 Z " fill="#CFCFCF" transform="translate(455.6875,204.125)"/>
<path d="M0 0 C4.34426379 2.25567543 7.05791513 4.46846864 9 9 C9.58496307 12.92760919 9.18285914 14.65459941 7.3125 18.1875 C3.99752342 22.21922828 1.77118784 23.77457609 -3.4375 24.4375 C-8.25299984 23.84612283 -11.36132406 22.08558757 -14.375 18.25 C-15.66468814 13.60712268 -15.66450886 9.57383678 -13.8125 5.1875 C-9.84466291 0.3987311 -6.15620672 -0.75602539 0 0 Z " fill="#CFCFD0" transform="translate(453,101)"/>
<path d="M0 0 C0 3.11227195 -0.45627049 5.94152152 -1 9 C-0.34 9 0.32 9 1 9 C1.268125 8.360625 1.53625 7.72125 1.8125 7.0625 C3 5 3 5 6 4 C6 4.66 6 5.32 6 6 C6.99 6 7.98 6 9 6 C9.33 7.32 9.66 8.64 10 10 C9.360625 10.165 8.72125 10.33 8.0625 10.5 C5.85116765 11.78174652 5.85116765 11.78174652 5.4765625 13.87890625 C5.20798627 15.9077456 5.09734394 17.9557773 5 20 C5.33 20.33 5.66 20.66 6 21 C6 19.02 6 17.04 6 15 C9.13349732 13.95550089 9.98968256 14.06576355 13 15 C12.67 15.99 12.34 16.98 12 18 C11.34 18 10.68 18 10 18 C10.02320312 18.69867188 10.04640625 19.39734375 10.0703125 20.1171875 C10.09738281 21.48230469 10.09738281 21.48230469 10.125 22.875 C10.14820312 23.77992188 10.17140625 24.68484375 10.1953125 25.6171875 C10 28 10 28 8 30 C5.375 30.625 5.375 30.625 3 31 C3.99 31.66 4.98 32.32 6 33 C6 34.32 6 35.64 6 37 C-1.75 36.25 -1.75 36.25 -4 34 C-3.01 34 -2.02 34 -1 34 C-1.33 30.37 -1.66 26.74 -2 23 C-2.66 23 -3.32 23 -4 23 C-4 22.01 -4 21.02 -4 20 C-4.99 20 -5.98 20 -7 20 C-7 19.34 -7 18.68 -7 18 C-7.66 18 -8.32 18 -9 18 C-9.33 15.36 -9.66 12.72 -10 10 C-9.34 10 -8.68 10 -8 10 C-8 9.01 -8 8.02 -8 7 C-7.34 7 -6.68 7 -6 7 C-5.7525 6.21625 -5.505 5.4325 -5.25 4.625 C-3.84610901 1.67682892 -2.99324263 1.0975223 0 0 Z " fill="#D8A783" transform="translate(62,198)"/>
<path d="M0 0 C8.55516245 0.03172495 8.55516245 0.03172495 11.97265625 3.44921875 C13.22265625 6.69921875 13.22265625 6.69921875 13.22265625 10.69921875 C13.88265625 10.69921875 14.54265625 10.69921875 15.22265625 10.69921875 C15.97265625 13.82421875 15.97265625 13.82421875 16.22265625 17.69921875 C14.92937997 19.72535158 13.59296175 21.7243667 12.22265625 23.69921875 C11.60546539 26.39820418 11.41408233 28.92354056 11.22265625 31.69921875 C12.54265625 32.35921875 13.86265625 33.01921875 15.22265625 33.69921875 C10.88600706 36.81618536 7.41857237 37.25888688 2.22265625 37.69921875 C2.22265625 36.37921875 2.22265625 35.05921875 2.22265625 33.69921875 C0.90265625 33.03921875 -0.41734375 32.37921875 -1.77734375 31.69921875 C-1.77734375 31.36921875 -1.77734375 31.03921875 -1.77734375 30.69921875 C0.53265625 30.03921875 2.84265625 29.37921875 5.22265625 28.69921875 C5.26003906 28.01214844 5.29742187 27.32507813 5.3359375 26.6171875 C5.40167969 25.71613281 5.46742187 24.81507813 5.53515625 23.88671875 C5.59316406 22.99339844 5.65117188 22.10007813 5.7109375 21.1796875 C6.28579206 18.39317875 7.04334185 17.45786121 9.22265625 15.69921875 C7.24265625 15.69921875 5.26265625 15.69921875 3.22265625 15.69921875 C2.89265625 17.67921875 2.56265625 19.65921875 2.22265625 21.69921875 C1.56265625 21.36921875 0.90265625 21.03921875 0.22265625 20.69921875 C0.71817549 13.14255033 0.71817549 13.14255033 3.28515625 10.88671875 C3.92453125 10.49484375 4.56390625 10.10296875 5.22265625 9.69921875 C5.22265625 8.70921875 5.22265625 7.71921875 5.22265625 6.69921875 C4.23265625 6.69921875 3.24265625 6.69921875 2.22265625 6.69921875 C2.22265625 6.03921875 2.22265625 5.37921875 2.22265625 4.69921875 C1.04703125 5.93671875 1.04703125 5.93671875 -0.15234375 7.19921875 C-2.77734375 9.69921875 -2.77734375 9.69921875 -4.77734375 9.69921875 C-5.46484375 8.01171875 -5.46484375 8.01171875 -5.77734375 5.69921875 C-4.32008827 2.28185202 -3.68394829 0.92746377 0 0 Z " fill="#553E2A" transform="translate(65.77734375,197.30078125)"/>
<path d="M0 0 C3.42078834 2.46614973 4.91888379 4.86081992 5.6875 8.9375 C5.71766934 12.34160665 5.5298274 15.63152329 4.6875 18.9375 C4.0275 19.2675 3.3675 19.5975 2.6875 19.9375 C2.3575 17.6275 2.0275 15.3175 1.6875 12.9375 C-0.6225 13.2675 -2.9325 13.5975 -5.3125 13.9375 C-5.3125 15.9175 -5.3125 17.8975 -5.3125 19.9375 C-6.3025 19.6075 -7.2925 19.2775 -8.3125 18.9375 C-7.4375 11.0625 -7.4375 11.0625 -6.3125 9.9375 C-4.64632885 9.89686168 -2.97861905 9.894779 -1.3125 9.9375 C-2.0079344 6.93365946 -2.0079344 6.93365946 -3.3125 3.9375 C-4.6325 3.6075 -5.9525 3.2775 -7.3125 2.9375 C-9.2925 5.5775 -11.2725 8.2175 -13.3125 10.9375 C-12.3225 10.9375 -11.3325 10.9375 -10.3125 10.9375 C-10.3125 11.9275 -10.3125 12.9175 -10.3125 13.9375 C-11.9625 14.2675 -13.6125 14.5975 -15.3125 14.9375 C-15.3125 16.5875 -15.3125 18.2375 -15.3125 19.9375 C-18.13082852 18.27540882 -19.99423316 16.98081261 -20.97265625 13.7734375 C-21.84004292 7.65188103 -21.84004292 7.65188103 -20 5.16015625 C-18.3125 3.9375 -18.3125 3.9375 -15.3125 3.9375 C-15.3125 2.6175 -15.3125 1.2975 -15.3125 -0.0625 C-10.14637929 -1.78454024 -5.10388223 -1.6370943 0 0 Z " fill="#5B402B" transform="translate(74.3125,97.0625)"/>
<path d="M0 0 C0.66 0 1.32 0 2 0 C2.33 2.64 2.66 5.28 3 8 C5.97 8.495 5.97 8.495 9 9 C9 9.99 9 10.98 9 12 C9.66 12 10.32 12 11 12 C12.17571451 15.67410785 12.07366746 19.16929183 12 23 C9.375 23.0625 9.375 23.0625 6 22 C1.83158614 17.09372898 -1.14360002 12.40100683 -1.125 5.9375 C-1.12757812 5.03902344 -1.13015625 4.14054688 -1.1328125 3.21484375 C-1 1 -1 1 0 0 Z " fill="#F0EFE7" transform="translate(49,209)"/>
<path d="M0 0 C2 2 2 2 2.3125 4.25 C1.92608206 7.65047787 0.52631142 9.94737716 -1 13 C-1.7136724 16.73771834 -1.7136724 16.73771834 -2 20 C-2.66 19.01 -3.32 18.02 -4 17 C-4.66 16.67 -5.32 16.34 -6 16 C-5.67 15.34 -5.34 14.68 -5 14 C-7.51083114 15.25541557 -7.87125446 16.50063488 -9 19 C-9.66 18.67 -10.32 18.34 -11 18 C-10.67 17.01 -10.34 16.02 -10 15 C-10.78375 15.20625 -11.5675 15.4125 -12.375 15.625 C-13.24125 15.74875 -14.1075 15.8725 -15 16 C-15.66 15.34 -16.32 14.68 -17 14 C-16.34 13.34 -15.68 12.68 -15 12 C-15.33 11.34 -15.66 10.68 -16 10 C-14.35 10.33 -12.7 10.66 -11 11 C-11.185625 10.030625 -11.37125 9.06125 -11.5625 8.0625 C-11.706875 7.051875 -11.85125 6.04125 -12 5 C-11 4 -11 4 -7.4375 3.9375 C-6.303125 3.958125 -5.16875 3.97875 -4 4 C-3.34 5.98 -2.68 7.96 -2 10 C-1.34 6.7 -0.68 3.4 0 0 Z " fill="#B07458" transform="translate(80,106)"/>
<path d="M0 0 C0.66 0 1.32 0 2 0 C2 1.65 2 3.3 2 5 C3.423125 4.9071875 3.423125 4.9071875 4.875 4.8125 C5.90625 4.874375 6.9375 4.93625 8 5 C10.31332486 8.46998729 10.33957563 9.92509248 10 14 C9.01 15.485 9.01 15.485 8 17 C5.8359375 17.29296875 5.8359375 17.29296875 3.375 17.1875 C2.14910156 17.14689453 2.14910156 17.14689453 0.8984375 17.10546875 C0.27195312 17.07066406 -0.35453125 17.03585938 -1 17 C-1.02684679 14.35409986 -1.04676357 11.70846904 -1.0625 9.0625 C-1.07087891 8.30775391 -1.07925781 7.55300781 -1.08789062 6.77539062 C-1.09652441 4.85005687 -1.05224333 2.92464419 -1 1 C-0.67 0.67 -0.34 0.34 0 0 Z " fill="#E0E0E2" transform="translate(72,33)"/>
<path d="M0 0 C2 2 2 2 3.3125 5.5 C4.62576078 9.1580635 4.62576078 9.1580635 7.625 10.25 C8.40875 10.4975 9.1925 10.745 10 11 C11.28317892 14.84953676 11.06643637 17.94738135 11 22 C8.16157499 21.91651691 6.45950686 21.4276272 4.3671875 19.48046875 C0.45701748 14.99416256 -1.14267776 11.93847199 -1.125 5.875 C-1.12757812 4.98554687 -1.13015625 4.09609375 -1.1328125 3.1796875 C-1 1 -1 1 0 0 Z " fill="#F8F6EF" transform="translate(50,108)"/>
<path d="M0 0 C0 3 0 3 -1 6 C-0.67619874 7.33568021 -0.34342449 8.66923011 0 10 C-0.33 10.66 -0.66 11.32 -1 12 C-0.01 12 0.98 12 2 12 C1.67 13.32 1.34 14.64 1 16 C-0.32 16 -1.64 16 -3 16 C-3 17.65 -3 19.3 -3 21 C-4.32 20.67 -5.64 20.34 -7 20 C-7 19.34 -7 18.68 -7 18 C-7.66 18 -8.32 18 -9 18 C-9.33 15.36 -9.66 12.72 -10 10 C-9.34 10 -8.68 10 -8 10 C-8 9.01 -8 8.02 -8 7 C-7.34 7 -6.68 7 -6 7 C-5.7525 6.21625 -5.505 5.4325 -5.25 4.625 C-3.84610901 1.67682892 -2.99324263 1.0975223 0 0 Z " fill="#AF8058" transform="translate(62,198)"/>
<path d="M0 0 C2.00720923 0.28674418 4.0085944 0.61866701 6 1 C5.67 1.99 5.34 2.98 5 4 C4.34 4 3.68 4 3 4 C3.02320312 4.69867188 3.04640625 5.39734375 3.0703125 6.1171875 C3.09738281 7.48230469 3.09738281 7.48230469 3.125 8.875 C3.14820312 9.77992188 3.17140625 10.68484375 3.1953125 11.6171875 C3 14 3 14 1 16 C-1.625 16.625 -1.625 16.625 -4 17 C-3.01 17.66 -2.02 18.32 -1 19 C-1 20.32 -1 21.64 -1 23 C-8.75 22.25 -8.75 22.25 -11 20 C-9.68 20 -8.36 20 -7 20 C-7 18.35 -7 16.7 -7 15 C-4.69 15 -2.38 15 0 15 C0 14.01 0 13.02 0 12 C-2.97 11.505 -2.97 11.505 -6 11 C-5.34 10.01 -4.68 9.02 -4 8 C-4.33 7.34 -4.66 6.68 -5 6 C-3.68 6.33 -2.36 6.66 -1 7 C-1.020625 6.030625 -1.04125 5.06125 -1.0625 4.0625 C-1 1 -1 1 0 0 Z " fill="#C28467" transform="translate(69,212)"/>
<path d="M0 0 C1.875 2 1.875 2 3 4 C-0.31410403 5.10470134 -1.67949308 4.69905409 -5 4 C-6.41577477 5.18424326 -6.41577477 5.18424326 -6.0625 8.5625 C-6.041875 9.696875 -6.02125 10.83125 -6 12 C-4.35 12.33 -2.7 12.66 -1 13 C-0.67 12.34 -0.34 11.68 0 11 C-0.99 11 -1.98 11 -3 11 C-3 10.01 -3 9.02 -3 8 C-1.02 8 0.96 8 3 8 C3.35789474 13.36842105 3.35789474 13.36842105 1.9375 15.875 C-1.14071911 17.66235303 -3.52906068 17.43386742 -7 17 C-8.9375 15.5625 -8.9375 15.5625 -10 13 C-10.64213079 8.62548398 -10.78226912 5.23357822 -8.375 1.4375 C-5.29288388 -0.42799134 -3.54177048 -0.60285455 0 0 Z " fill="#EDEDEE" transform="translate(44,33)"/>
<path d="M0 0 C3.5 -0.375 3.5 -0.375 7 0 C9.31332486 3.46998729 9.33957563 4.92509248 9 9 C8.01 10.485 8.01 10.485 7 12 C3.5 12.375 3.5 12.375 0 12 C-2.31332486 8.53001271 -2.33957563 7.07490752 -2 3 C-1.34 2.01 -0.68 1.02 0 0 Z " fill="#E3E3E5" transform="translate(59,38)"/>
<path d="M0 0 C0.79921875 0.01804687 1.5984375 0.03609375 2.421875 0.0546875 C3.02515625 0.07789062 3.6284375 0.10109375 4.25 0.125 C4.58 1.445 4.91 2.765 5.25 4.125 C0.63 4.125 -3.99 4.125 -8.75 4.125 C-8.75 5.445 -8.75 6.765 -8.75 8.125 C-9.595625 8.7025 -10.44125 9.28 -11.3125 9.875 C-13.92600944 11.79459356 -13.92600944 11.79459356 -13.96484375 14.05078125 C-13.63547451 17.32650807 -13.23652091 19.50225323 -11.1875 22.125 C-10.713125 22.455 -10.23875 22.785 -9.75 23.125 C-10.08 24.115 -10.41 25.105 -10.75 26.125 C-14.91449422 22.39131553 -16.9935007 18.39449789 -18.75 13.125 C-14.83773054 5.92642419 -8.57663343 -0.25225392 0 0 Z " fill="#E8E5DA" transform="translate(67.75,92.875)"/>
<path d="M0 0 C1.32 0 2.64 0 4 0 C4 0.66 4 1.32 4 2 C3.34 2 2.68 2 2 2 C2 4.97 2 7.94 2 11 C2.99 11 3.98 11 5 11 C5 11.99 5 12.98 5 14 C3.35 14.33 1.7 14.66 0 15 C0 16.65 0 18.3 0 20 C-2.81832852 18.33790882 -4.68173316 17.04331261 -5.66015625 13.8359375 C-6.52754292 7.71438103 -6.52754292 7.71438103 -4.6875 5.22265625 C-3 4 -3 4 0 4 C0 2.68 0 1.36 0 0 Z " fill="#A3734F" transform="translate(59,97)"/>
<path d="M0 0 C3 1 3 1 4.375 2.5625 C5.97558548 4.27233291 5.97558548 4.27233291 8.6875 4.1875 C9.450625 4.125625 10.21375 4.06375 11 4 C11.17942163 7.94727588 11.09350689 10.5980513 9 14 C6.3125 14.375 6.3125 14.375 3 14 C0.83295905 12.18573316 -0.38125003 10.38051466 -2 8 C-2 7.34 -2 6.68 -2 6 C-1.34 6 -0.68 6 0 6 C0 4.02 0 2.04 0 0 Z " fill="#E1E1E1" transform="translate(467,115)"/>
<path d="M0 0 C0.66 0.66 1.32 1.32 2 2 C2.33 2 2.66 2 3 2 C3 3.65 3 5.3 3 7 C4.32 7.66 5.64 8.32 7 9 C2.66335081 12.11696661 -0.80408388 12.55966813 -6 13 C-6 11.68 -6 10.36 -6 9 C-7.32 8.34 -8.64 7.68 -10 7 C-10 6.67 -10 6.34 -10 6 C-8.865625 5.731875 -7.73125 5.46375 -6.5625 5.1875 C-5.386875 4.795625 -4.21125 4.40375 -3 4 C-2.67 3.01 -2.34 2.02 -2 1 C-1.34 0.67 -0.68 0.34 0 0 Z " fill="#4C3528" transform="translate(74,222)"/>
<path d="M0 0 C3.5625 0.1875 3.5625 0.1875 5.5625 2.1875 C5.7578125 4.5703125 5.7578125 4.5703125 5.6875 7.3125 C5.66945312 8.22257812 5.65140625 9.13265625 5.6328125 10.0703125 C5.60960937 10.76898438 5.58640625 11.46765625 5.5625 12.1875 C4.10457116 12.24149736 2.64607288 12.28029177 1.1875 12.3125 C0.37539062 12.33570313 -0.43671875 12.35890625 -1.2734375 12.3828125 C-3.4375 12.1875 -3.4375 12.1875 -5.4375 10.1875 C-5.0625 7.5625 -5.0625 7.5625 -4.4375 5.1875 C-2.4575 4.8575 -0.4775 4.5275 1.5625 4.1875 C0.94375 4.06375 0.325 3.94 -0.3125 3.8125 C-2.4375 3.1875 -2.4375 3.1875 -4.4375 1.1875 C-3.4375 0.1875 -3.4375 0.1875 0 0 Z " fill="#EFEFF1" transform="translate(145.4375,37.8125)"/>
<path d="M0 0 C0.66 0 1.32 0 2 0 C2.64616927 1.29233853 3.25372698 2.60504125 3.8125 3.9375 C5.19333234 6.33578775 6.71691866 7.47794578 9 9 C5.04476345 11.75668002 1.77576339 12.5317879 -3 13 C-3.2475 12.38125 -3.495 11.7625 -3.75 11.125 C-5.20628639 8.64931313 -6.37812506 8.04874998 -9 7 C-9 6.67 -9 6.34 -9 6 C-7.88625 5.7525 -6.7725 5.505 -5.625 5.25 C-1.95384802 4.38994661 -1.95384802 4.38994661 -0.5625 1.875 C-0.376875 1.25625 -0.19125 0.6375 0 0 Z " fill="#54392B" transform="translate(73,120)"/>
<path d="M0 0 C1.875 2 1.875 2 3 4 C-0.31410403 5.10470134 -1.67949308 4.69905409 -5 4 C-6.41577477 5.18424326 -6.41577477 5.18424326 -6.0625 8.5625 C-6.041875 9.696875 -6.02125 10.83125 -6 12 C-5.2575 12.144375 -4.515 12.28875 -3.75 12.4375 C-1.47972261 12.90187492 0.75759479 13.41863569 3 14 C1.9375 15.5 1.9375 15.5 0 17 C-3.5 17.5 -3.5 17.5 -7 17 C-9.67579911 14.23788479 -10.21459361 11.66421614 -10.4375 7.9375 C-10 4 -10 4 -8.375 1.5 C-5.29690766 -0.44405832 -3.57597151 -0.608676 0 0 Z " fill="#ECECEE" transform="translate(121,33)"/>
<path d="M0 0 C2 2 2 2 2.125 4.625 C2.08375 5.40875 2.0425 6.1925 2 7 C-0.31 7 -2.62 7 -5 7 C-4.67 7.66 -4.34 8.32 -4 9 C-2.35 9 -0.7 9 1 9 C0.67 9.99 0.34 10.98 0 12 C-2.8125 12.25 -2.8125 12.25 -6 12 C-8.35210784 9.88310295 -8.91810953 8.55958485 -9.375 5.4375 C-9 3 -9 3 -7.875 1.1875 C-5.16554166 -0.52849028 -3.13704316 -0.333728 0 0 Z " fill="#EEEFF0" transform="translate(191,38)"/>
<path d="M0 0 C0.66 0 1.32 0 2 0 C2 1.65 2 3.3 2 5 C2.969375 4.979375 3.93875 4.95875 4.9375 4.9375 C8 5 8 5 9 6 C9.07226502 7.85287502 9.0838122 9.70833878 9.0625 11.5625 C9.05347656 12.57441406 9.04445312 13.58632813 9.03515625 14.62890625 C9.02355469 15.41136719 9.01195312 16.19382812 9 17 C8.01 17 7.02 17 6 17 C5.67 14.03 5.34 11.06 5 8 C4.34 8 3.68 8 3 8 C2.67 10.97 2.34 13.94 2 17 C1.01 17 0.02 17 -1 17 C-1.02684679 14.35409986 -1.04676357 11.70846904 -1.0625 9.0625 C-1.07087891 8.30775391 -1.07925781 7.55300781 -1.08789062 6.77539062 C-1.09652441 4.85005687 -1.05224333 2.92464419 -1 1 C-0.67 0.67 -0.34 0.34 0 0 Z " fill="#E3E3E5" transform="translate(128,33)"/>
<path d="M0 0 C1.670625 0.061875 1.670625 0.061875 3.375 0.125 C3.42889087 2.08303507 3.46774217 4.04148909 3.5 6 C3.52320313 7.09054688 3.54640625 8.18109375 3.5703125 9.3046875 C3.375 12.125 3.375 12.125 1.375 14.125 C-0.75 13.75 -0.75 13.75 -2.625 13.125 C-1.305 12.795 0.015 12.465 1.375 12.125 C1.045 11.465 0.715 10.805 0.375 10.125 C-1.28321773 9.75190101 -2.95077014 9.41799023 -4.625 9.125 C-5.625 8.125 -5.625 8.125 -5.8125 5.1875 C-5.53057824 0.58277796 -4.55609828 0.15710684 0 0 Z " fill="#D1D1D4" transform="translate(133.625,95.875)"/>
<path d="M0 0 C2.31 0 4.62 0 7 0 C9 2 9 2 9.25 5 C9 8 9 8 7 10 C4.375 10.125 4.375 10.125 2 10 C2 11.32 2 12.64 2 14 C1.34 14 0.68 14 0 14 C0 9.38 0 4.76 0 0 Z " fill="#CECFD2" transform="translate(231,96)"/>
<path d="M0 0 C2.4375 0.625 2.4375 0.625 5 2 C5.8125 5.125 5.8125 5.125 6 8 C4.35 8.33 2.7 8.66 1 9 C0.67 11.64 0.34 14.28 0 17 C-0.66 15.68 -1.32 14.36 -2 13 C-3.98 13.33 -5.96 13.66 -8 14 C-7.34 13.34 -6.68 12.68 -6 12 C-5.01 12 -4.02 12 -3 12 C-3 11.01 -3 10.02 -3 9 C-3.99 9 -4.98 9 -6 9 C-4.68775452 5.06326356 -3.08089673 2.77280706 0 0 Z " fill="#D19F7B" transform="translate(67,99)"/>
<path d="M0 0 C6.0546875 -0.1953125 6.0546875 -0.1953125 8 0 C8.66 0.66 9.32 1.32 10 2 C9.67028521 5.29714793 9.3773161 6.6226839 7 9 C4.375 9.125 4.375 9.125 2 9 C2 10.65 2 12.3 2 14 C1.34 14 0.68 14 0 14 C0 9.38 0 4.76 0 0 Z " fill="#D7D7D9" transform="translate(167,92)"/>
<path d="M0 0 C0.90105469 0.00902344 1.80210938 0.01804688 2.73046875 0.02734375 C3.41753906 0.03894531 4.10460937 0.05054688 4.8125 0.0625 C3.0249576 2.296928 2.06284655 3.00896203 -0.78125 3.6171875 C-1.7403125 3.72289062 -2.699375 3.82859375 -3.6875 3.9375 C-8.1772494 4.4997874 -8.1772494 4.4997874 -11.25 7.6875 C-11.559375 8.47125 -11.86875 9.255 -12.1875 10.0625 C-12.8475 10.0625 -13.5075 10.0625 -14.1875 10.0625 C-14.1875 11.0525 -14.1875 12.0425 -14.1875 13.0625 C-14.8475 13.0625 -15.5075 13.0625 -16.1875 13.0625 C-15.8575 15.7025 -15.5275 18.3425 -15.1875 21.0625 C-14.5275 21.0625 -13.8675 21.0625 -13.1875 21.0625 C-13.5175 21.7225 -13.8475 22.3825 -14.1875 23.0625 C-14.8475 22.7325 -15.5075 22.4025 -16.1875 22.0625 C-16.78105614 19.41389573 -16.92959269 16.77052678 -17.1875 14.0625 C-17.8475 14.0625 -18.5075 14.0625 -19.1875 14.0625 C-17.33238011 8.1598458 -13.24942599 4.43711733 -8.1875 1.0625 C-5.17259443 0.05753148 -3.14568308 -0.04085303 0 0 Z " fill="#E0DCD5" transform="translate(68.1875,194.9375)"/>
<path d="M0 0 C0.66 0 1.32 0 2 0 C2 0.99 2 1.98 2 3 C3.98 3 5.96 3 8 3 C8 6.3 8 9.6 8 13 C5.36 13 2.72 13 0 13 C0 10.36 0 7.72 0 5 C-0.66 5 -1.32 5 -2 5 C-2 4.34 -2 3.68 -2 3 C-1.34 3 -0.68 3 0 3 C0 2.01 0 1.02 0 0 Z " fill="#2A2B3B" transform="translate(103,296)"/>
<path d="M0 0 C1.134375 0.020625 2.26875 0.04125 3.4375 0.0625 C3.4375 4.3525 3.4375 8.6425 3.4375 13.0625 C1.7875 13.3925 0.1375 13.7225 -1.5625 14.0625 C-0.5725 12.7425 0.4175 11.4225 1.4375 10.0625 C-0.2125 10.0625 -1.8625 10.0625 -3.5625 10.0625 C-5.05356457 7.08037087 -4.68191467 4.34640342 -4.5625 1.0625 C-3.5625 0.0625 -3.5625 0.0625 0 0 Z " fill="#D1D1D5" transform="translate(264.5625,197.9375)"/>
<path d="M0 0 C6.15234375 -0.09765625 6.15234375 -0.09765625 8 0 C9 1 9 1 9.1875 3.9375 C9 7 9 7 7 9 C4.375 9.125 4.375 9.125 2 9 C2 10.65 2 12.3 2 14 C1.34 14 0.68 14 0 14 C0 9.38 0 4.76 0 0 Z " fill="#D1D3D5" transform="translate(167,194)"/>
<path d="M0 0 C2.31 0 4.62 0 7 0 C7 4.29 7 8.58 7 13 C5.35 13.33 3.7 13.66 2 14 C2.99 12.68 3.98 11.36 5 10 C4.195625 9.855625 3.39125 9.71125 2.5625 9.5625 C0 9 0 9 -1 8 C-1.23529412 2.47058824 -1.23529412 2.47058824 0 0 Z " fill="#D9DADD" transform="translate(129,198)"/>
<path d="M0 0 C6.8359375 -0.1953125 6.8359375 -0.1953125 9 0 C11 2 11 2 11.1953125 4.3828125 C11.17210937 5.28773437 11.14890625 6.19265625 11.125 7.125 C11.10695312 8.03507812 11.08890625 8.94515625 11.0703125 9.8828125 C11.04710937 10.58148438 11.02390625 11.28015625 11 12 C10.01 12 9.02 12 8 12 C8 9.03 8 6.06 8 3 C6.68 3.33 5.36 3.66 4 4 C3.67 6.64 3.34 9.28 3 12 C2.01 12 1.02 12 0 12 C0 8.04 0 4.08 0 0 Z " fill="#D9D9DC" transform="translate(154,38)"/>
<path d="M0 0 C0.66 0 1.32 0 2 0 C2 0.99 2 1.98 2 3 C2.66 3 3.32 3 4 3 C3.8864371 4.64666203 3.75882619 6.29236082 3.625 7.9375 C3.55539063 8.85402344 3.48578125 9.77054688 3.4140625 10.71484375 C3.27742188 11.46894531 3.14078125 12.22304687 3 13 C2.01 13.495 2.01 13.495 1 14 C0.67 11.69 0.34 9.38 0 7 C-2.31 7.33 -4.62 7.66 -7 8 C-7 9.98 -7 11.96 -7 14 C-7.99 13.67 -8.98 13.34 -10 13 C-9.125 5.125 -9.125 5.125 -8 4 C-6.33382885 3.95936168 -4.66611905 3.957279 -3 4 C-3 3.34 -3 2.68 -3 2 C-2.01 2 -1.02 2 0 2 C0 1.34 0 0.68 0 0 Z " fill="#6D4531" transform="translate(76,103)"/>
<path d="M0 0 C6.93359375 -0.09765625 6.93359375 -0.09765625 9 0 C10 1 10 1 10.09765625 3.50390625 C10.08605469 4.51324219 10.07445312 5.52257813 10.0625 6.5625 C10.05347656 7.57441406 10.04445312 8.58632813 10.03515625 9.62890625 C10.02355469 10.41136719 10.01195312 11.19382812 10 12 C9.01 12 8.02 12 7 12 C7 9.03 7 6.06 7 3 C5.68 3 4.36 3 3 3 C3 5.97 3 8.94 3 12 C2.01 12 1.02 12 0 12 C0 8.04 0 4.08 0 0 Z " fill="#E4E4E5" transform="translate(169,38)"/>
<path d="M0 0 C3 0.125 3 0.125 4 1.125 C4.23728814 7.65042373 4.23728814 7.65042373 3 10.125 C0.125 10.3125 0.125 10.3125 -3 10.125 C-5 7.125 -5 7.125 -4.6875 4 C-3.76852699 0.15702196 -3.76852699 0.15702196 0 0 Z " fill="#C5C7CB" transform="translate(227,197.875)"/>
<path d="M0 0 C2.9375 0.1875 2.9375 0.1875 3.9375 1.1875 C4.125 4.625 4.125 4.625 3.9375 8.1875 C1.9375 10.1875 1.9375 10.1875 -0.5625 10.5 C-1.8 10.3453125 -1.8 10.3453125 -3.0625 10.1875 C-5.21165785 6.96376323 -5.44536803 5.92046326 -5.0625 2.1875 C-3.0625 0.1875 -3.0625 0.1875 0 0 Z " fill="#D6D7DA" transform="translate(121.0625,197.8125)"/>
<path d="M0 0 C3 0.125 3 0.125 4 1.125 C4.1328125 2.9375 4.1328125 2.9375 4.125 5.125 C4.12757813 5.846875 4.13015625 6.56875 4.1328125 7.3125 C4 9.125 4 9.125 3 10.125 C0 10.25 0 10.25 -3 10.125 C-4 9.125 -4 9.125 -4.1328125 7.3125 C-4.13023437 6.590625 -4.12765625 5.86875 -4.125 5.125 C-4.12757813 4.403125 -4.13015625 3.68125 -4.1328125 2.9375 C-3.90343964 -0.1927649 -3.18691942 0.13278831 0 0 Z " fill="#D0D0D4" transform="translate(269,95.875)"/>
<path d="M0 0 C3 0.125 3 0.125 4 1.125 C4.1328125 2.9375 4.1328125 2.9375 4.125 5.125 C4.12757812 5.846875 4.13015625 6.56875 4.1328125 7.3125 C4 9.125 4 9.125 3 10.125 C0 10.25 0 10.25 -3 10.125 C-4 9.125 -4 9.125 -4.1328125 7.3125 C-4.13023438 6.590625 -4.12765625 5.86875 -4.125 5.125 C-4.12757812 4.403125 -4.13015625 3.68125 -4.1328125 2.9375 C-3.90343964 -0.1927649 -3.18691942 0.13278831 0 0 Z " fill="#D1D1D4" transform="translate(121,95.875)"/>
<path d="M0 0 C1.65 0 3.3 0 5 0 C5.33 0.99 5.66 1.98 6 3 C7.670625 2.7215625 7.670625 2.7215625 9.375 2.4375 C13 2 13 2 15 3 C15 3.99 15 4.98 15 6 C12 8 12 8 9.375 7.75 C8.59125 7.5025 7.8075 7.255 7 7 C6.67 6.34 6.34 5.68 6 5 C5.01 6.485 5.01 6.485 4 8 C3.01 7.01 2.02 6.02 1 5 C0.67 5.99 0.34 6.98 0 8 C0 5.36 0 2.72 0 0 Z " fill="#666672" transform="translate(167,226)"/>
<path d="M0 0 C7 0 7 0 9 1 C9.04254356 2.99954746 9.04080783 5.00041636 9 7 C8 8 8 8 4.4375 8.0625 C3.303125 8.041875 2.16875 8.02125 1 8 C1 9.98 1 11.96 1 14 C0.67 14 0.34 14 0 14 C0 9.38 0 4.76 0 0 Z " fill="#E7E8E9" transform="translate(211,194)"/>
<path d="M0 0 C3.375 -0.125 3.375 -0.125 7 0 C9 2 9 2 9.1953125 4.3828125 C9.17210938 5.28773437 9.14890625 6.19265625 9.125 7.125 C9.10695313 8.03507812 9.08890625 8.94515625 9.0703125 9.8828125 C9.04710938 10.58148438 9.02390625 11.28015625 9 12 C6.03 12 3.06 12 0 12 C-0.33 10.68 -0.66 9.36 -1 8 C-0.34 7.67 0.32 7.34 1 7 C1.33 7.66 1.66 8.32 2 9 C2.99 9 3.98 9 5 9 C5 8.34 5 7.68 5 7 C4.01 6.34 3.02 5.68 2 5 C3.32 5 4.64 5 6 5 C5.67 4.34 5.34 3.68 5 3 C3.35 3 1.7 3 0 3 C0 2.01 0 1.02 0 0 Z " fill="#F5F5F6" transform="translate(86,38)"/>
<path d="M0 0 C2 2 2 2 2.3125 4.25 C1.92608206 7.65047787 0.52631142 9.94737716 -1 13 C-1.7136724 16.73771834 -1.7136724 16.73771834 -2 20 C-2.66 19.01 -3.32 18.02 -4 17 C-4.66 16.67 -5.32 16.34 -6 16 C-5.67 15.34 -5.34 14.68 -5 14 C-5.66 14 -6.32 14 -7 14 C-6.125 7.25 -6.125 7.25 -5 5 C-6.32 4.67 -7.64 4.34 -9 4 C-7.35 4 -5.7 4 -4 4 C-3.34 5.98 -2.68 7.96 -2 10 C-1.34 6.7 -0.68 3.4 0 0 Z " fill="#73503C" transform="translate(80,106)"/>
<path d="M0 0 C0.99 0.33 1.98 0.66 3 1 C2.21625 1.5775 1.4325 2.155 0.625 2.75 C-3.32036999 6.1317457 -3.89863059 7.72274545 -4.3125 12.9375 C-4.20729682 16.71078735 -3.40125617 18.99842979 -1 22 C1.06954847 23.78344178 1.06954847 23.78344178 3 25 C2.01 25.33 1.02 25.66 0 26 C-3.42817379 23.74242214 -5.47089804 21.79189859 -7 18 C-7.7164344 12.95163669 -7.54701546 9.05630571 -5.1875 4.5 C-3 2 -3 2 0 0 Z " fill="#111123" transform="translate(443,100)"/>
<path d="M0 0 C1.99954746 -0.04254356 4.00041636 -0.04080783 6 0 C7 1 7 1 7.09765625 3.06640625 C7.08605469 3.89011719 7.07445312 4.71382813 7.0625 5.5625 C7.05347656 6.38878906 7.04445312 7.21507813 7.03515625 8.06640625 C7.01775391 9.02353516 7.01775391 9.02353516 7 10 C4.69 10 2.38 10 0 10 C0 6.7 0 3.4 0 0 Z " fill="#B5B5BA" transform="translate(140,96)"/>
<path d="M0 0 C4.55555556 0.55555556 4.55555556 0.55555556 6 2 C6.1875 4.9375 6.1875 4.9375 6 8 C5.34 8.66 4.68 9.32 4 10 C-0.55555556 9.44444444 -0.55555556 9.44444444 -2 8 C-2.1875 5.0625 -2.1875 5.0625 -2 2 C-1.34 1.34 -0.68 0.68 0 0 Z " fill="#0D0D20" transform="translate(84,299)"/>
<path d="M0 0 C2 2 2 2 2.3125 4.29296875 C1.92935292 7.61198032 0.79403801 9.50931561 -1 12.3125 C-1.556875 13.19550781 -2.11375 14.07851562 -2.6875 14.98828125 C-3.120625 15.65214844 -3.55375 16.31601563 -4 17 C-5.33333333 16.33333333 -6.66666667 15.66666667 -8 15 C-8.25 11.6875 -8.25 11.6875 -8 8 C-6 6.0625 -6 6.0625 -4 5 C-3.34 6.65 -2.68 8.3 -2 10 C-1.34 6.7 -0.68 3.4 0 0 Z " fill="#664C3A" transform="translate(80,208)"/>
<path d="M0 0 C0 5.61 0 11.22 0 17 C-1.32 17 -2.64 17 -4 17 C-4 11.72 -4 6.44 -4 1 C-2 0 -2 0 0 0 Z " fill="#C2C2C6" transform="translate(200,33)"/>
<path d="M0 0 C1.98 0 3.96 0 6 0 C6 0.99 6 1.98 6 3 C4.68 2.67 3.36 2.34 2 2 C3.37691962 4.75383923 5.36720042 5.51483101 8 7 C7.67 8.65 7.34 10.3 7 12 C4.69 12 2.38 12 0 12 C-0.33 11.01 -0.66 10.02 -1 9 C1.97 9.495 1.97 9.495 5 10 C3.06745228 7.9754262 1.36841312 6.57894208 -1 5 C-0.67 3.35 -0.34 1.7 0 0 Z " fill="#EAEBEC" transform="translate(204,38)"/>
<path d="M0 0 C1.99954746 -0.04254356 4.00041636 -0.04080783 6 0 C7 1 7 1 7.09765625 3.06640625 C7.08605469 3.89011719 7.07445312 4.71382812 7.0625 5.5625 C7.05347656 6.38878906 7.04445312 7.21507812 7.03515625 8.06640625 C7.02355469 8.70449219 7.01195312 9.34257812 7 10 C4.69 10 2.38 10 0 10 C-0.625 7.625 -0.625 7.625 -1 5 C-0.34 4.34 0.32 3.68 1 3 C2.32 3 3.64 3 5 3 C5 2.34 5 1.68 5 1 C3.35 1.33 1.7 1.66 0 2 C0 1.34 0 0.68 0 0 Z " fill="#D2D3D7" transform="translate(179,198)"/>
<path d="M0 0 C2.64 0 5.28 0 8 0 C8 0.66 8 1.32 8 2 C6.02 2 4.04 2 2 2 C2 3.32 2 4.64 2 6 C3.32 6 4.64 6 6 6 C6 6.66 6 7.32 6 8 C4.68 8 3.36 8 2 8 C2 9.32 2 10.64 2 12 C4.31 12 6.62 12 9 12 C9 12.66 9 13.32 9 14 C6.03 14 3.06 14 0 14 C0 9.38 0 4.76 0 0 Z " fill="#D0CFD3" transform="translate(211,92)"/>
<path d="M0 0 C2.5 0.25 2.5 0.25 4.5 2.25 C4.5 3.57 4.5 4.89 4.5 6.25 C2.19 6.25 -0.12 6.25 -2.5 6.25 C-2.17 6.91 -1.84 7.57 -1.5 8.25 C-0.18 8.25 1.14 8.25 2.5 8.25 C2.5 8.91 2.5 9.57 2.5 10.25 C0.125 10.375 0.125 10.375 -2.5 10.25 C-4.5 8.25 -4.5 8.25 -4.75 5.25 C-4.43608753 1.48305032 -3.83691092 0.38369109 0 0 Z " fill="#B4B5BA" transform="translate(306.5,197.75)"/>
<path d="M0 0 C1.99954746 -0.04254356 4.00041636 -0.04080783 6 0 C7 1 7 1 7.09765625 3.06640625 C7.08605469 3.89011719 7.07445312 4.71382813 7.0625 5.5625 C7.05347656 6.38878906 7.04445312 7.21507813 7.03515625 8.06640625 C7.02355469 8.70449219 7.01195312 9.34257813 7 10 C4.66705225 10.04241723 2.33297433 10.04092937 0 10 C-1 9 -1 9 -1.0625 6.4375 C-1.041875 5.633125 -1.02125 4.82875 -1 4 C0.98 4 2.96 4 5 4 C3.74458443 1.48916886 2.49936512 1.12874554 0 0 Z " fill="#D6D7DA" transform="translate(244,96)"/>
<path d="M0 0 C2.5 0.25 2.5 0.25 4.5 2.25 C4.5 3.57 4.5 4.89 4.5 6.25 C2.19 6.25 -0.12 6.25 -2.5 6.25 C-2.17 6.91 -1.84 7.57 -1.5 8.25 C-0.18 8.25 1.14 8.25 2.5 8.25 C2.5 8.91 2.5 9.57 2.5 10.25 C0.125 10.4375 0.125 10.4375 -2.5 10.25 C-4.64915785 7.02626323 -4.88286803 5.98296326 -4.5 2.25 C-2.5 0.25 -2.5 0.25 0 0 Z " fill="#B5B6BB" transform="translate(286.5,197.75)"/>
<path d="M0 0 C1.99954746 -0.04254356 4.00041636 -0.04080783 6 0 C7 1 7 1 7.09765625 3.06640625 C7.08605469 3.89011719 7.07445312 4.71382813 7.0625 5.5625 C7.05347656 6.38878906 7.04445312 7.21507813 7.03515625 8.06640625 C7.02355469 8.70449219 7.01195312 9.34257813 7 10 C4.69 10 2.38 10 0 10 C-0.38218767 8.34385343 -0.71395102 6.67542976 -1 5 C0 4 0 4 3.0625 3.9375 C4.5165625 3.9684375 4.5165625 3.9684375 6 4 C5.67 3.34 5.34 2.68 5 2 C3.35 2 1.7 2 0 2 C0 1.34 0 0.68 0 0 Z " fill="#B3B3B9" transform="translate(179,96)"/>
<path d="M0 0 C0.99 0.33 1.98 0.66 3 1 C2.67 3.31 2.34 5.62 2 8 C3.98 7.67 5.96 7.34 8 7 C7.67 8.65 7.34 10.3 7 12 C3.625 12.1875 3.625 12.1875 0 12 C-2.31332486 8.53001271 -2.33957563 7.07490752 -2 3 C-1.34 2.01 -0.68 1.02 0 0 Z " fill="#E8E8EA" transform="translate(59,38)"/>
<path d="M0 0 C0.33 0 0.66 0 1 0 C1 3.96 1 7.92 1 12 C-2.96 12 -6.92 12 -11 12 C-9.68 11.01 -8.36 10.02 -7 9 C-3.98894452 6.20401991 -1.5626448 3.8355827 0 0 Z " fill="#F6F6F6" transform="translate(539,348)"/>
<path d="M0 0 C0.66 0 1.32 0 2 0 C2 1.65 2 3.3 2 5 C2.66 5.33 3.32 5.66 4 6 C3.67 6.66 3.34 7.32 3 8 C2.9310528 9.37342831 2.91532292 10.75002102 2.9375 12.125 C2.958125 13.40375 2.97875 14.6825 3 16 C1.68 16.33 0.36 16.66 -1 17 C-1.02684679 14.35409986 -1.04676357 11.70846904 -1.0625 9.0625 C-1.07087891 8.30775391 -1.07925781 7.55300781 -1.08789062 6.77539062 C-1.09652441 4.85005687 -1.05224333 2.92464419 -1 1 C-0.67 0.67 -0.34 0.34 0 0 Z " fill="#EDEDEF" transform="translate(72,33)"/>
<path d="M0 0 C0.99 1.32 1.98 2.64 3 4 C5.88117056 7.0289229 8.63820806 9.47865604 12 12 C8.04 12 4.08 12 0 12 C0 8.04 0 4.08 0 0 Z " fill="#F7F7F8" transform="translate(0,348)"/>
<path d="M0 0 C2.625 0.375 2.625 0.375 5 1 C5.33 2.65 5.66 4.3 6 6 C4.02 6 2.04 6 0 6 C0 6.66 0 7.32 0 8 C1.32 8 2.64 8 4 8 C4 8.66 4 9.32 4 10 C2.33388095 10.042721 0.66617115 10.04063832 -1 10 C-2 9 -2 9 -2.1875 5.5625 C-2 2 -2 2 0 0 Z " fill="#0A091D" transform="translate(136,299)"/>
<path d="M0 0 C0.99 0 1.98 0 3 0 C3.33 0.99 3.66 1.98 4 3 C5.32 3 6.64 3 8 3 C7.67 4.32 7.34 5.64 7 7 C5.68 7 4.36 7 3 7 C3 8.65 3 10.3 3 12 C0 10 0 10 -0.75 6.5625 C-1 3 -1 3 0 0 Z " fill="#94664A" transform="translate(56,207)"/>
<path d="M0 0 C2.31 0 4.62 0 7 0 C5.02 0.99 5.02 0.99 3 2 C3.825 2.433125 4.65 2.86625 5.5 3.3125 C6.7375 4.1478125 6.7375 4.1478125 8 5 C8 5.99 8 6.98 8 8 C3.45194365 8.17835515 0.1205746 7.99785435 -4 6 C-2.68 5.67 -1.36 5.34 0 5 C0 3.35 0 1.7 0 0 Z " fill="#AB7B5E" transform="translate(62,125)"/>
<path d="M0 0 C0.33 0.99 0.66 1.98 1 3 C-1.35953094 5.35953094 -2.77895617 5.49141413 -6 6 C-5.01 6.66 -4.02 7.32 -3 8 C-3 9.32 -3 10.64 -3 12 C-10.75 11.25 -10.75 11.25 -13 9 C-11.68 9 -10.36 9 -9 9 C-9 7.35 -9 5.7 -9 4 C-7.88625 3.896875 -6.7725 3.79375 -5.625 3.6875 C-4.42875 3.460625 -3.2325 3.23375 -2 3 C-1.34 2.01 -0.68 1.02 0 0 Z " fill="#A6795E" transform="translate(71,223)"/>
<path d="M0 0 C0.33 0.66 0.66 1.32 1 2 C1.66 2 2.32 2 3 2 C3 2.66 3 3.32 3 4 C5.28453433 5.14226716 7.62508799 6.06253473 10 7 C10 7.99 10 8.98 10 10 C7.69 10 5.38 10 3 10 C3 11.65 3 13.3 3 15 C2.67 15 2.34 15 2 15 C1.67 11.37 1.34 7.74 1 4 C0.34 4 -0.32 4 -1 4 C-0.67 2.68 -0.34 1.36 0 0 Z " fill="#C59574" transform="translate(59,217)"/>
<path d="M0 0 C3.96 0 7.92 0 12 0 C12 3.63 12 7.26 12 11 C11.443125 10.2575 10.88625 9.515 10.3125 8.75 C7.27080802 5.13285278 3.91639631 2.61093087 0 0 Z " fill="#FAFAFA" transform="translate(528,0)"/>
<path d="M0 0 C3.63 0 7.26 0 11 0 C10.2575 0.556875 9.515 1.11375 8.75 1.6875 C6.07458848 3.93727787 4.11324725 6.2309174 2 9 C1.34 9.66 0.68 10.32 0 11 C0 7.37 0 3.74 0 0 Z " fill="#FBFBFB" transform="translate(0,0)"/>
<path d="M0 0 C4.42834676 1.39176612 7.03101453 3.43721744 10 7 C10 8.32 10 9.64 10 11 C9.01 10.67 8.02 10.34 7 10 C7.33 8.68 7.66 7.36 8 6 C7.01 6 6.02 6 5 6 C5 5.34 5 4.68 5 4 C3.824375 5.2375 3.824375 5.2375 2.625 6.5 C0 9 0 9 -2 9 C-2.6875 7.3125 -2.6875 7.3125 -3 5 C-1.5625 2.25 -1.5625 2.25 0 0 Z " fill="#875738" transform="translate(63,198)"/>
<path d="M0 0 C0.66 0 1.32 0 2 0 C2 5.61 2 11.22 2 17 C1.01 17 0.02 17 -1 17 C-1.02684679 14.35409986 -1.04676357 11.70846904 -1.0625 9.0625 C-1.07087891 8.30775391 -1.07925781 7.55300781 -1.08789062 6.77539062 C-1.09652441 4.85005687 -1.05224333 2.92464419 -1 1 C-0.67 0.67 -0.34 0.34 0 0 Z " fill="#D8D8D9" transform="translate(100,33)"/>
<path d="M0 0 C0.66 0 1.32 0 2 0 C2 5.61 2 11.22 2 17 C1.01 17 0.02 17 -1 17 C-1.02684679 14.35409986 -1.04676357 11.70846904 -1.0625 9.0625 C-1.07087891 8.30775391 -1.07925781 7.55300781 -1.08789062 6.77539062 C-1.09652441 4.85005687 -1.05224333 2.92464419 -1 1 C-0.67 0.67 -0.34 0.34 0 0 Z " fill="#E3E3E5" transform="translate(52,33)"/>
<path d="M0 0 C0.78375 0.04125 1.5675 0.0825 2.375 0.125 C2.375 1.115 2.375 2.105 2.375 3.125 C1.055 3.125 -0.265 3.125 -1.625 3.125 C-1.625 5.435 -1.625 7.745 -1.625 10.125 C0.355 10.125 2.335 10.125 4.375 10.125 C3.385 11.61 3.385 11.61 2.375 13.125 C-0.125 13.4375 -0.125 13.4375 -2.625 13.125 C-4.625 11.125 -4.625 11.125 -4.890625 9.03125 C-4.88289063 7.84015625 -4.88289063 7.84015625 -4.875 6.625 C-4.88015625 5.8309375 -4.8853125 5.036875 -4.890625 4.21875 C-4.46382303 0.85454624 -3.29951585 0.1571198 0 0 Z " fill="#0A0A1E" transform="translate(75.625,295.875)"/>
<path d="M0 0 C0.68707555 2.49064888 1 4.37886292 1 7 C-1.875 7.125 -1.875 7.125 -5 7 C-5.66 6.34 -6.32 5.68 -7 5 C-6.75 2.4375 -6.75 2.4375 -6 0 C-3.50907189 -1.24546405 -2.58919267 -0.7767578 0 0 Z " fill="#AFAFB4" transform="translate(147,43)"/>
<path d="M0 0 C2.875 -0.125 2.875 -0.125 6 0 C8 2 8 2 8.1953125 3.9453125 C8.13020833 5.96354167 8.06510417 7.98177083 8 10 C7.34 10 6.68 10 6 10 C5.67 7.69 5.34 5.38 5 3 C4.34 3 3.68 3 3 3 C2.67 5.31 2.34 7.62 2 10 C1.34 10 0.68 10 0 10 C0 6.7 0 3.4 0 0 Z " fill="#0E0E21" transform="translate(92,299)"/>
<path d="M0 0 C0.66 0 1.32 0 2 0 C2 2.64 2 5.28 2 8 C3.32 8 4.64 8 6 8 C6 5.36 6 2.72 6 0 C6.66 0 7.32 0 8 0 C8 3.3 8 6.6 8 10 C5.69 10 3.38 10 1 10 C-0.60725635 6.78548731 -0.05748185 3.56387464 0 0 Z " fill="#D5D6D9" transform="translate(249,198)"/>
<path d="M0 0 C0.66 0 1.32 0 2 0 C2 2.64 2 5.28 2 8 C3.32 8 4.64 8 6 8 C6 5.36 6 2.72 6 0 C6.66 0 7.32 0 8 0 C8 3.3 8 6.6 8 10 C5.69 10 3.38 10 1 10 C-0.60725635 6.78548731 -0.05748185 3.56387464 0 0 Z " fill="#D8D9DC" transform="translate(189,198)"/>
<path d="M0 0 C2.33944736 0.28730055 4.6739143 0.61936779 7 1 C7 1.99 7 2.98 7 4 C8.32 4 9.64 4 11 4 C11 4.66 11 5.32 11 6 C10.113125 5.814375 9.22625 5.62875 8.3125 5.4375 C5.14821189 5.01957516 3.05160358 5.19222258 0 6 C-0.38218767 4.34385343 -0.71395102 2.67542976 -1 1 C-0.67 0.67 -0.34 0.34 0 0 Z " fill="#666772" transform="translate(134,126)"/>
<path d="M0 0 C0.66 0 1.32 0 2 0 C2 2.64 2 5.28 2 8 C2.99 8 3.98 8 5 8 C5 5.36 5 2.72 5 0 C5.66 0 6.32 0 7 0 C7 3.3 7 6.6 7 10 C5.00045254 10.04254356 2.99958364 10.04080783 1 10 C0 9 0 9 -0.09765625 6.93359375 C-0.08605469 6.10988281 -0.07445313 5.28617187 -0.0625 4.4375 C-0.05347656 3.61121094 -0.04445313 2.78492188 -0.03515625 1.93359375 C-0.02355469 1.29550781 -0.01195313 0.65742188 0 0 Z " fill="#0F0F22" transform="translate(124,299)"/>
<path d="M0 0 C1.32 0.66 2.64 1.32 4 2 C3.8864371 3.64666203 3.75882619 5.29236082 3.625 6.9375 C3.55539063 7.85402344 3.48578125 8.77054688 3.4140625 9.71484375 C3.27742188 10.46894531 3.14078125 11.22304687 3 12 C2.01 12.495 2.01 12.495 1 13 C-2 6.5 -2 6.5 -2 2 C-1.34 2 -0.68 2 0 2 C0 1.34 0 0.68 0 0 Z " fill="#4E3929" transform="translate(76,206)"/>
<path d="M0 0 C2.33294775 -0.04241723 4.66702567 -0.04092937 7 0 C8 1 8 1 8.09765625 3.06640625 C8.08605469 3.89011719 8.07445312 4.71382813 8.0625 5.5625 C8.05347656 6.38878906 8.04445313 7.21507813 8.03515625 8.06640625 C8.02355469 8.70449219 8.01195312 9.34257813 8 10 C7.34 10 6.68 10 6 10 C5.67 7.36 5.34 4.72 5 2 C4.34 2 3.68 2 3 2 C2.67 4.64 2.34 7.28 2 10 C1.34 10 0.68 10 0 10 C0 6.7 0 3.4 0 0 Z " fill="#DBDBDE" transform="translate(254,96)"/>
<path d="M0 0 C1.32 0.66 2.64 1.32 4 2 C4 2.66 4 3.32 4 4 C3.34 4 2.68 4 2 4 C2.33 5.65 2.66 7.3 3 9 C1.02 9 -0.96 9 -3 9 C-3.33 10.98 -3.66 12.96 -4 15 C-4.66 14.67 -5.32 14.34 -6 14 C-5.125 6.125 -5.125 6.125 -4 5 C-2.33382885 4.95936168 -0.66611905 4.957279 1 5 C0.67 3.35 0.34 1.7 0 0 Z " fill="#754A34" transform="translate(72,204)"/>
<path d="M0 0 C0.66 0 1.32 0 2 0 C2.85298376 3.67387495 3.10789471 7.0447393 3.0625 10.8125 C3.05347656 11.78832031 3.04445312 12.76414062 3.03515625 13.76953125 C3.02355469 14.50558594 3.01195312 15.24164063 3 16 C2.01 16 1.02 16 0 16 C0 10.72 0 5.44 0 0 Z " fill="#F0F0F1" transform="translate(127,34)"/>
<path d="M0 0 C0.33 0 0.66 0 1 0 C1.04241723 2.33294775 1.04092937 4.66702567 1 7 C0.67 7.33 0.34 7.66 0 8 C0.66 8.66 1.32 9.32 2 10 C0.35 10 -1.3 10 -3 10 C-3 9.34 -3 8.68 -3 8 C-3.66 8 -4.32 8 -5 8 C-5.33 6.35 -5.66 4.7 -6 3 C-4.02 3 -2.04 3 0 3 C0 2.01 0 1.02 0 0 Z " fill="#E9B794" transform="translate(65,211)"/>
<path d="M0 0 C0.66 0 1.32 0 2 0 C2 3.96 2 7.92 2 12 C4.31 12 6.62 12 9 12 C9 12.66 9 13.32 9 14 C6.03 14 3.06 14 0 14 C0 9.38 0 4.76 0 0 Z " fill="#D1D3D6" transform="translate(106,194)"/>
<path d="M0 0 C0.66 0 1.32 0 2 0 C2 3.96 2 7.92 2 12 C4.31 12 6.62 12 9 12 C9 12.66 9 13.32 9 14 C6.03 14 3.06 14 0 14 C0 9.38 0 4.76 0 0 Z " fill="#D0D0D4" transform="translate(106,92)"/>
<path d="M0 0 C0.66 0 1.32 0 2 0 C2 0.99 2 1.98 2 3 C2.66 3 3.32 3 4 3 C3.8864371 4.64666203 3.75882619 6.29236082 3.625 7.9375 C3.55539063 8.85402344 3.48578125 9.77054688 3.4140625 10.71484375 C3.27742188 11.46894531 3.14078125 12.22304687 3 13 C2.01 13.495 2.01 13.495 1 14 C1 11.36 1 8.72 1 6 C0.01 6 -0.98 6 -2 6 C-2 5.01 -2 4.02 -2 3 C-1.34 3 -0.68 3 0 3 C0 2.01 0 1.02 0 0 Z " fill="#423023" transform="translate(76,103)"/>
<path d="M0 0 C4.70588235 0.70588235 4.70588235 0.70588235 6 2 C6.07205511 3.68608966 6.08386068 5.37500659 6.0625 7.0625 C6.05347656 7.98160156 6.04445312 8.90070312 6.03515625 9.84765625 C6.02355469 10.55792969 6.01195312 11.26820312 6 12 C5.01 12 4.02 12 3 12 C2.96261719 11.37351562 2.92523438 10.74703125 2.88671875 10.1015625 C2.82097656 9.28429688 2.75523437 8.46703125 2.6875 7.625 C2.62949219 6.81289063 2.57148438 6.00078125 2.51171875 5.1640625 C2.17009472 2.62078662 2.17009472 2.62078662 -1 1 C-0.67 0.67 -0.34 0.34 0 0 Z " fill="#F5F5F7" transform="translate(159,38)"/>
<path d="M0 0 C0.99 0.66 1.98 1.32 3 2 C3 2.66 3 3.32 3 4 C2.34 4 1.68 4 1 4 C1 4.99 1 5.98 1 7 C0.34 7 -0.32 7 -1 7 C-0.67 9.64 -0.34 12.28 0 15 C0.66 15 1.32 15 2 15 C1.67 15.66 1.34 16.32 1 17 C0.34 16.67 -0.32 16.34 -1 16 C-1.59355614 13.35139573 -1.74209269 10.70802678 -2 8 C-2.66 8 -3.32 8 -4 8 C-2.87548273 5.0280615 -1.77706209 2.66559313 0 0 Z " fill="#DAD4C6" transform="translate(53,201)"/>
<path d="M0 0 C0.66 0 1.32 0 2 0 C2 0.99 2 1.98 2 3 C2.66 3 3.32 3 4 3 C4 3.66 4 4.32 4 5 C3.34 5 2.68 5 2 5 C2 6.98 2 8.96 2 11 C2.66 11 3.32 11 4 11 C4 11.66 4 12.32 4 13 C2.68 13 1.36 13 0 13 C0 10.36 0 7.72 0 5 C-0.66 5 -1.32 5 -2 5 C-2 4.34 -2 3.68 -2 3 C-1.34 3 -0.68 3 0 3 C0 2.01 0 1.02 0 0 Z " fill="#0E0F22" transform="translate(103,296)"/>
<path d="M0 0 C1.65 0 3.3 0 5 0 C5.33 1.65 5.66 3.3 6 5 C4.68 5.33 3.36 5.66 2 6 C2 6.66 2 7.32 2 8 C1.34 8 0.68 8 0 8 C0 5.36 0 2.72 0 0 Z " fill="#646571" transform="translate(126,228)"/>
<path d="M0 0 C0.66 0 1.32 0 2 0 C2 1.32 2 2.64 2 4 C2.66 4 3.32 4 4 4 C4 4.66 4 5.32 4 6 C3.34 6 2.68 6 2 6 C2 7.98 2 9.96 2 12 C2.66 12 3.32 12 4 12 C4 12.66 4 13.32 4 14 C2.68 14 1.36 14 0 14 C0 11.03 0 8.06 0 5 C-0.66 4.67 -1.32 4.34 -2 4 C-1.34 4 -0.68 4 0 4 C0 2.68 0 1.36 0 0 Z " fill="#C8C8CB" transform="translate(243,194)"/>
<path d="M0 0 C0.66 0 1.32 0 2 0 C2 2.64 2 5.28 2 8 C3.32 7.67 4.64 7.34 6 7 C6.33 4.69 6.66 2.38 7 0 C7.33 0 7.66 0 8 0 C8 3.3 8 6.6 8 10 C5.125 10.125 5.125 10.125 2 10 C0 8 0 8 -0.1953125 6.0546875 C-0.13020833 4.03645833 -0.06510417 2.01822917 0 0 Z " fill="#DDDEE0" transform="translate(189,96)"/>
<path d="M0 0 C1.98 0 3.96 0 6 0 C6 2.64 6 5.28 6 8 C4 8 4 8 2.375 6.5 C1.92125 6.005 1.4675 5.51 1 5 C0.67 5.99 0.34 6.98 0 8 C0 5.36 0 2.72 0 0 Z " fill="#6C6D77" transform="translate(167,124)"/>
<path d="M0 0 C4 2 4 2 5.84375 3.0625 C8.32604797 4.14175999 10.05844993 4.20416324 12.75 4.125 C13.94882812 4.09792969 13.94882812 4.09792969 15.171875 4.0703125 C16.07679688 4.03550781 16.07679688 4.03550781 17 4 C16.01 5.485 16.01 5.485 15 7 C10.12897084 7.56828674 7.93272033 7.49179799 3.5625 5.1875 C1 3 1 3 0 0 Z " fill="#0A0A1C" transform="translate(438,222)"/>
<path d="M0 0 C2.33294775 -0.04241723 4.66702567 -0.04092937 7 0 C8 1 8 1 8.09765625 3.06640625 C8.08605469 3.89011719 8.07445312 4.71382813 8.0625 5.5625 C8.05347656 6.38878906 8.04445312 7.21507813 8.03515625 8.06640625 C8.02355469 8.70449219 8.01195312 9.34257813 8 10 C7.34 10 6.68 10 6 10 C5.67 7.36 5.34 4.72 5 2 C4.01 2 3.02 2 2 2 C1.67 4.64 1.34 7.28 1 10 C0.67 10 0.34 10 0 10 C0 6.7 0 3.4 0 0 Z " fill="#E1E2E5" transform="translate(151,96)"/>
<path d="M0 0 C2.375 -0.125 2.375 -0.125 5 0 C7 2 7 2 7.1953125 3.9453125 C7.13020833 5.96354167 7.06510417 7.98177083 7 10 C6.34 10 5.68 10 5 10 C5 7.36 5 4.72 5 2 C4.01 2.33 3.02 2.66 2 3 C1.67 4.98 1.34 6.96 1 9 C0.67 9 0.34 9 0 9 C0 6.03 0 3.06 0 0 Z " fill="#0A0A1E" transform="translate(114,299)"/>
<path d="M0 0 C0.99 0.33 1.98 0.66 3 1 C2.360625 1.61875 1.72125 2.2375 1.0625 2.875 C-1.74799713 7.13332898 -1.80559267 10.99401138 -2 16 C-2.66 15.67 -3.32 15.34 -4 15 C-4.51211281 8.59858988 -4.11888494 5.01989102 0 0 Z " fill="#0E0E20" transform="translate(440,204)"/>
<path d="M0 0 C0.99 0 1.98 0 3 0 C3 3.96 3 7.92 3 12 C0.35298978 10.67649489 -0.04357118 9.79571502 -1 7 C-0.625 3.25 -0.625 3.25 0 0 Z " fill="#8D5F42" transform="translate(56,105)"/>
<path d="M0 0 C0.99 0.33 1.98 0.66 3 1 C3 4.63 3 8.26 3 12 C2.01 12 1.02 12 0 12 C0 8.04 0 4.08 0 0 Z " fill="#EFEFF0" transform="translate(169,38)"/>
<path d="M0 0 C1.99954746 -0.04254356 4.00041636 -0.04080783 6 0 C7 1 7 1 7.09765625 3.06640625 C7.08605469 3.89011719 7.07445312 4.71382812 7.0625 5.5625 C7.05347656 6.38878906 7.04445312 7.21507812 7.03515625 8.06640625 C7.02355469 8.70449219 7.01195312 9.34257812 7 10 C4.69 10 2.38 10 0 10 C-0.33 8.35 -0.66 6.7 -1 5 C-0.38125 5.7425 -0.38125 5.7425 0.25 6.5 C2.12202338 8.43386092 2.12202338 8.43386092 6 8 C5.67 6.02 5.34 4.04 5 2 C3.35 2 1.7 2 0 2 C0 1.34 0 0.68 0 0 Z " fill="#DADADD" transform="translate(140,198)"/>
<path d="M0 0 C4.70588235 0.70588235 4.70588235 0.70588235 6 2 C6.04063832 3.66617115 6.042721 5.33388095 6 7 C3.69 7 1.38 7 -1 7 C-1 6.34 -1 5.68 -1 5 C0.32 5 1.64 5 3 5 C2.04134491 2.66924071 2.04134491 2.66924071 -1 1 C-0.67 0.67 -0.34 0.34 0 0 Z " fill="#F2F3F4" transform="translate(187,38)"/>
<path d="M0 0 C2.0625 0.4375 2.0625 0.4375 4 1 C4 2.98 4 4.96 4 7 C2.35 7 0.7 7 -1 7 C-1.04254356 5.00045254 -1.04080783 2.99958364 -1 1 C-0.67 0.67 -0.34 0.34 0 0 Z " fill="#454753" transform="translate(131,199)"/>
<path d="M0 0 C1.98 0 3.96 0 6 0 C6.5625 1.9375 6.5625 1.9375 7 4 C6 5 6 5 2.9375 5.0625 C1.4834375 5.0315625 1.4834375 5.0315625 0 5 C0 3.35 0 1.7 0 0 Z " fill="#464754" transform="translate(212,196)"/>
<path d="M0 0 C1.98 0 3.96 0 6 0 C6.5625 1.9375 6.5625 1.9375 7 4 C6 5 6 5 2.9375 5.0625 C1.4834375 5.0315625 1.4834375 5.0315625 0 5 C0 3.35 0 1.7 0 0 Z " fill="#464854" transform="translate(168,196)"/>
<path d="M0 0 C2 2 2 2 2.3125 4.25 C1.92608206 7.65047787 0.52631142 9.94737716 -1 13 C-1.7136724 16.73771834 -1.7136724 16.73771834 -2 20 C-2.33 20 -2.66 20 -3 20 C-3.33 17.36 -3.66 14.72 -4 12 C-3.34 12 -2.68 12 -2 12 C-1.34 8.04 -0.68 4.08 0 0 Z " fill="#98826B" transform="translate(80,106)"/>
<path d="M0 0 C0.33 0 0.66 0 1 0 C1 3.33333333 1 6.66666667 1 10 C-0.32 10 -1.64 10 -3 10 C-3.12375 9.195625 -3.2475 8.39125 -3.375 7.5625 C-3.684375 6.2940625 -3.684375 6.2940625 -4 5 C-4.66 4.67 -5.32 4.34 -6 4 C-4.02 3.67 -2.04 3.34 0 3 C0 2.01 0 1.02 0 0 Z " fill="#E9B793" transform="translate(65,109)"/>
<path d="M0 0 C1.98 0.66 3.96 1.32 6 2 C5.04578192 3.14926266 4.08647955 4.29430541 3.125 5.4375 C2.59132813 6.07558594 2.05765625 6.71367188 1.5078125 7.37109375 C0 9 0 9 -2 10 C-3.125 5.25 -3.125 5.25 -2 3 C-1.34 3 -0.68 3 0 3 C0 2.01 0 1.02 0 0 Z " fill="#7A4C2E" transform="translate(63,96)"/>
<path d="M0 0 C2.0625 0.4375 2.0625 0.4375 4 1 C4 2.98 4 4.96 4 7 C2.35 7 0.7 7 -1 7 C-1.04254356 5.00045254 -1.04080783 2.99958364 -1 1 C-0.67 0.67 -0.34 0.34 0 0 Z " fill="#3F404D" transform="translate(234,97)"/>
<path d="M0 0 C2.0625 0.4375 2.0625 0.4375 4 1 C4 2.98 4 4.96 4 7 C2.35 7 0.7 7 -1 7 C-1.04254356 5.00045254 -1.04080783 2.99958364 -1 1 C-0.67 0.67 -0.34 0.34 0 0 Z " fill="#3F3F4D" transform="translate(131,97)"/>
<path d="M0 0 C1.98 0 3.96 0 6 0 C6 0.66 6 1.32 6 2 C4.68 2 3.36 2 2 2 C2 2.66 2 3.32 2 4 C2.66 4.33 3.32 4.66 4 5 C3.34 5 2.68 5 2 5 C2 5.99 2 6.98 2 8 C3.32 8.33 4.64 8.66 6 9 C4.02 9 2.04 9 0 9 C0 6.03 0 3.06 0 0 Z " fill="#6C6C77" transform="translate(113,123)"/>
<path d="M0 0 C1.22589844 0.01353516 1.22589844 0.01353516 2.4765625 0.02734375 C3.41628906 0.04474609 3.41628906 0.04474609 4.375 0.0625 C4.705 1.3825 5.035 2.7025 5.375 4.0625 C1.415 4.0625 -2.545 4.0625 -6.625 4.0625 C-6.625 3.0725 -6.625 2.0825 -6.625 1.0625 C-4.21954362 -0.14022819 -2.67503047 -0.03821472 0 0 Z " fill="#C4BBAF" transform="translate(67.625,92.9375)"/>
<path d="M0 0 C1.134375 0.020625 2.26875 0.04125 3.4375 0.0625 C3.4375 2.0625 3.4375 2.0625 2.1875 3.625 C0.26057517 5.20783111 -1.13045851 5.6431825 -3.5625 6.0625 C-3.94468767 4.40635343 -4.27645102 2.73792976 -4.5625 1.0625 C-3.5625 0.0625 -3.5625 0.0625 0 0 Z " fill="#696A76" transform="translate(210.5625,227.9375)"/>
<path d="M0 0 C0.33 0 0.66 0 1 0 C1 2.64 1 5.28 1 8 C-0.65 7.67 -2.3 7.34 -4 7 C-4 5.35 -4 3.7 -4 2 C-2.68 2 -1.36 2 0 2 C0 1.34 0 0.68 0 0 Z " fill="#696975" transform="translate(161,226)"/>
<path d="M0 0 C1.98 0.495 1.98 0.495 4 1 C4 2.98 4 4.96 4 7 C2.35 6.67 0.7 6.34 -1 6 C-0.67 4.02 -0.34 2.04 0 0 Z " fill="#373846" transform="translate(119,199)"/>
<path d="M0 0 C0 1.98 0 3.96 0 6 C-1.32 6.33 -2.64 6.66 -4 7 C-4.66 5.35 -5.32 3.7 -6 2 C-1.125 0 -1.125 0 0 0 Z " fill="#80818A" transform="translate(146,200)"/>
<path d="M0 0 C0.99 0.33 1.98 0.66 3 1 C3 2.98 3 4.96 3 7 C1.35 6.67 -0.3 6.34 -2 6 C-1.125 1.125 -1.125 1.125 0 0 Z " fill="#363745" transform="translate(226,199)"/>
<path d="M0 0 C2.475 0.495 2.475 0.495 5 1 C4.67 2.65 4.34 4.3 4 6 C3.01 6 2.02 6 1 6 C0.67 6.66 0.34 7.32 0 8 C0 5.36 0 2.72 0 0 Z " fill="#6A6A75" transform="translate(127,126)"/>
<path d="M0 0 C0.33 0 0.66 0 1 0 C1 2.64 1 5.28 1 8 C-0.65 7.67 -2.3 7.34 -4 7 C-3.67 5.35 -3.34 3.7 -3 2 C-2.01 2 -1.02 2 0 2 C0 1.34 0 0.68 0 0 Z " fill="#6C6C77" transform="translate(161,124)"/>
<path d="M0 0 C2.00720923 0.28674418 4.0085944 0.61866701 6 1 C6 1.66 6 2.32 6 3 C5.01 3.66 4.02 4.32 3 5 C2.67 5.99 2.34 6.98 2 8 C1.34 8 0.68 8 0 8 C-0.38063221 5.6739143 -0.71269945 3.33944736 -1 1 C-0.67 0.67 -0.34 0.34 0 0 Z " fill="#CF9776" transform="translate(69,110)"/>
<path d="M0 0 C1.32 0.66 2.64 1.32 4 2 C3.67 3.65 3.34 5.3 3 7 C1.68 7 0.36 7 -1 7 C-1.04254356 5.00045254 -1.04080783 2.99958364 -1 1 C-0.67 0.67 -0.34 0.34 0 0 Z " fill="#373846" transform="translate(268,97)"/>
<path d="M0 0 C1.32 0.66 2.64 1.32 4 2 C3.67 3.65 3.34 5.3 3 7 C1.68 7 0.36 7 -1 7 C-1.04254356 5.00045254 -1.04080783 2.99958364 -1 1 C-0.67 0.67 -0.34 0.34 0 0 Z " fill="#373846" transform="translate(120,97)"/>
<path d="M0 0 C3.375 -0.125 3.375 -0.125 7 0 C9 2 9 2 9.125 5.125 C9.08375 6.07375 9.0425 7.0225 9 8 C8.443125 7.175 7.88625 6.35 7.3125 5.5 C5.25072867 2.7254586 5.25072867 2.7254586 2.25 2.6875 C1.5075 2.790625 0.765 2.89375 0 3 C0 2.01 0 1.02 0 0 Z " fill="#EDEDEE" transform="translate(86,38)"/>
<path d="M0 0 C1.32 0 2.64 0 4 0 C4.66 0.99 5.32 1.98 6 3 C8.05925139 3.72382467 8.05925139 3.72382467 10 4 C9.67 4.99 9.34 5.98 9 7 C7.35 7 5.7 7 4 7 C4 5.68 4 4.36 4 3 C2.68 2.34 1.36 1.68 0 1 C0 0.67 0 0.34 0 0 Z " fill="#724A35" transform="translate(64,228)"/>
<path d="M0 0 C1.98 0 3.96 0 6 0 C6.33 1.65 6.66 3.3 7 5 C5.02 5 3.04 5 1 5 C0.67 3.35 0.34 1.7 0 0 Z " fill="#898A92" transform="translate(178,203)"/>
<path d="M0 0 C1.98 0 3.96 0 6 0 C6 1.98 6 3.96 6 6 C4.02 5.34 2.04 4.68 0 4 C0 2.68 0 1.36 0 0 Z " fill="#A0A0A0" transform="translate(470,123)"/>
<path d="M0 0 C2.125 0.375 2.125 0.375 4 1 C4.33 2.32 4.66 3.64 5 5 C3.125 5.625 3.125 5.625 1 6 C0.34 5.34 -0.32 4.68 -1 4 C-1.66 4.66 -2.32 5.32 -3 6 C-2.42655063 3.13275314 -2.1385485 2.1385485 0 0 Z " fill="#86868E" transform="translate(87,42)"/>
<path d="M0 0 C2 2 2 2 2.4375 4.125 C1.79104238 8.37315007 -0.42780944 11.6013351 -3 15 C-3.33 15 -3.66 15 -4 15 C-4 13.35 -4 11.7 -4 10 C-3.34 10 -2.68 10 -2 10 C-1.34 6.7 -0.68 3.4 0 0 Z " fill="#967E64" transform="translate(80,208)"/>
<path d="M0 0 C2.97 0.495 2.97 0.495 6 1 C5.67 1.99 5.34 2.98 5 4 C4.01 4 3.02 4 2 4 C2 5.65 2 7.3 2 9 C1.34 8.67 0.68 8.34 0 8 C0 5.36 0 2.72 0 0 Z " fill="#CF9876" transform="translate(69,212)"/>
<path d="M0 0 C0.66 0.33 1.32 0.66 2 1 C1.979375 2.2375 1.95875 3.475 1.9375 4.75 C1.93233319 7.6640825 2.06984442 10.20953327 3 13 C2.34 13 1.68 13 1 13 C1 12.34 1 11.68 1 11 C0.34 11 -0.32 11 -1 11 C-1.33 8.36 -1.66 5.72 -2 3 C-1.34 3 -0.68 3 0 3 C0 2.01 0 1.02 0 0 Z " fill="#B69772" transform="translate(54,205)"/>
<path d="M0 0 C1.65 0 3.3 0 5 0 C5.5625 1.9375 5.5625 1.9375 6 4 C5 5 5 5 2.4375 5.0625 C1.2309375 5.0315625 1.2309375 5.0315625 0 5 C0 3.35 0 1.7 0 0 Z " fill="#353645" transform="translate(169,94)"/>
<path d="M0 0 C2.475 0.495 2.475 0.495 5 1 C4.67 2.65 4.34 4.3 4 6 C2.68 6 1.36 6 0 6 C0 4.02 0 2.04 0 0 Z " fill="#272735" transform="translate(74,41)"/>
<path d="M0 0 C2.475 0.495 2.475 0.495 5 1 C4.67 2.65 4.34 4.3 4 6 C2.68 5.67 1.36 5.34 0 5 C0 3.35 0 1.7 0 0 Z " fill="#21212F" transform="translate(60,41)"/>
<path d="M0 0 C0.99 0.33 1.98 0.66 3 1 C3 2.98 3 4.96 3 7 C1.68 7 0.36 7 -1 7 C-1.04254356 5.00045254 -1.04080783 2.99958364 -1 1 C-0.67 0.67 -0.34 0.34 0 0 Z " fill="#313140" transform="translate(263,199)"/>
<path d="M0 0 C1.9375 0.8125 1.9375 0.8125 4 2 C4.33 2.99 4.66 3.98 5 5 C3.33388095 5.042721 1.66617115 5.04063832 0 5 C-0.33 4.67 -0.66 4.34 -1 4 C-1.66 5.32 -2.32 6.64 -3 8 C-3.36923077 3.44615385 -3.36923077 3.44615385 -1.5 1.1875 C-1.005 0.795625 -0.51 0.40375 0 0 Z " fill="#8D8D95" transform="translate(185,38)"/>
<path d="M0 0 C0.33 0.99 0.66 1.98 1 3 C-1.35953094 5.35953094 -2.77895617 5.49141413 -6 6 C-5.67 6.66 -5.34 7.32 -5 8 C-6.32 8.33 -7.64 8.66 -9 9 C-9 7.35 -9 5.7 -9 4 C-7.88625 3.896875 -6.7725 3.79375 -5.625 3.6875 C-4.42875 3.460625 -3.2325 3.23375 -2 3 C-1.34 2.01 -0.68 1.02 0 0 Z " fill="#A16C4F" transform="translate(71,223)"/>
<path d="M0 0 C1.98 0 3.96 0 6 0 C5.01 0.66 4.02 1.32 3 2 C2.42251197 3.96361864 2.42251197 3.96361864 2.3125 6.125 C2.209375 7.40375 2.10625 8.6825 2 10 C1.34 10 0.68 10 0 10 C0 6.7 0 3.4 0 0 Z " fill="#DCDDE0" transform="translate(234,198)"/>
<path d="M0 0 C2.4375 0.625 2.4375 0.625 5 2 C5.8125 5.125 5.8125 5.125 6 8 C5.01 8 4.02 8 3 8 C3 6.68 3 5.36 3 4 C2.34 4 1.68 4 1 4 C0.67 2.68 0.34 1.36 0 0 Z " fill="#B07A57" transform="translate(67,99)"/>
<path d="M0 0 C1.32 0 2.64 0 4 0 C3.67 1.98 3.34 3.96 3 6 C1.68 5.67 0.36 5.34 -1 5 C-0.67 3.35 -0.34 1.7 0 0 Z " fill="#6C6E78" transform="translate(151,228)"/>
<path d="M0 0 C0.66 0 1.32 0 2 0 C2 3.3 2 6.6 2 10 C1.34 10 0.68 10 0 10 C-1.125 3.375 -1.125 3.375 0 0 Z " fill="#6B462C" transform="translate(56,207)"/>
<path d="M0 0 C2.46735884 2.46735884 2.9072384 4.72171521 4 8 C4.66 8.66 5.32 9.32 6 10 C5.67 10.99 5.34 11.98 5 13 C2.53686261 11.17251097 1.16571382 9.77023784 0.51171875 6.73046875 C0.27481707 4.48520654 0.09638651 2.25544422 0 0 Z " fill="#D9C9AC" transform="translate(52,106)"/>
<path d="M0 0 C2.31 0 4.62 0 7 0 C6.67 1.32 6.34 2.64 6 4 C4.35 4 2.7 4 1 4 C0.67 2.68 0.34 1.36 0 0 Z " fill="#DCA987" transform="translate(63,121)"/>
<path d="M0 0 C0.78375 0.04125 1.5675 0.0825 2.375 0.125 C2.375 1.115 2.375 2.105 2.375 3.125 C1.055 3.125 -0.265 3.125 -1.625 3.125 C-1.955 5.105 -2.285 7.085 -2.625 9.125 C-2.955 9.125 -3.285 9.125 -3.625 9.125 C-4.25 5.75 -4.25 5.75 -4.625 2.125 C-2.625 0.125 -2.625 0.125 0 0 Z " fill="#121225" transform="translate(75.625,295.875)"/>
<path d="M0 0 C1.98 0 3.96 0 6 0 C6 1.32 6 2.64 6 4 C5.01 4.33 4.02 4.66 3 5 C3 4.34 3 3.68 3 3 C2.01 3 1.02 3 0 3 C0 2.01 0 1.02 0 0 Z " fill="#E1E1E3" transform="translate(41,41)"/>
<path d="M0 0 C0.99 0.33 1.98 0.66 3 1 C2.67 2.65 2.34 4.3 2 6 C1.01 6 0.02 6 -1 6 C-1.042721 4.33388095 -1.04063832 2.66617115 -1 1 C-0.67 0.67 -0.34 0.34 0 0 Z " fill="#3D3D4C" transform="translate(85,301)"/>
<path d="M0 0 C1.32 0.66 2.64 1.32 4 2 C4 2.66 4 3.32 4 4 C3.34 4 2.68 4 2 4 C2.33 5.65 2.66 7.3 3 9 C1.68 9 0.36 9 -1 9 C-0.67 6.03 -0.34 3.06 0 0 Z " fill="#67432F" transform="translate(72,204)"/>
<path d="M0 0 C0.33 0 0.66 0 1 0 C1.125 5.75 1.125 5.75 0 8 C-1.98 8 -3.96 8 -6 8 C-6 7.01 -6 6.02 -6 5 C-4.35 5 -2.7 5 -1 5 C-0.67 3.35 -0.34 1.7 0 0 Z " fill="#D4D4D8" transform="translate(230,200)"/>
<path d="M0 0 C0.99 0.33 1.98 0.66 3 1 C2.67 3.31 2.34 5.62 2 8 C1.34 8 0.68 8 0 8 C-0.33 8.66 -0.66 9.32 -1 10 C-1.33 8.68 -1.66 7.36 -2 6 C-1.34 6 -0.68 6 0 6 C0 4.02 0 2.04 0 0 Z " fill="#C8C8C8" transform="translate(467,115)"/>
<path d="M0 0 C3 1 3 1 5 4 C3.02 4.33 1.04 4.66 -1 5 C-0.67 3.35 -0.34 1.7 0 0 Z " fill="#E9BE9A" transform="translate(64,102)"/>
<path d="M0 0 C0 0.66 0 1.32 0 2 C-0.66 2 -1.32 2 -2 2 C-2 3.32 -2 4.64 -2 6 C-2.66 6.66 -3.32 7.32 -4 8 C-4.99 7.67 -5.98 7.34 -7 7 C-6.67 6.34 -6.34 5.68 -6 5 C-5.34 5 -4.68 5 -4 5 C-4.33 4.01 -4.66 3.02 -5 2 C-2 0 -2 0 0 0 Z " fill="#E0D8C9" transform="translate(61,95)"/>
<path d="M0 0 C0.33 0 0.66 0 1 0 C1.33 2.97 1.66 5.94 2 9 C0.35 9 -1.3 9 -3 9 C-3.33 7.68 -3.66 6.36 -4 5 C-2.68 5.33 -1.36 5.66 0 6 C0 4.02 0 2.04 0 0 Z " fill="#A56950" transform="translate(68,213)"/>
<path d="M0 0 C1.32 0.66 2.64 1.32 4 2 C4 2.99 4 3.98 4 5 C1.69 5 -0.62 5 -3 5 C-2.01 4.67 -1.02 4.34 0 4 C0 2.68 0 1.36 0 0 Z " fill="#93644B" transform="translate(66,128)"/>
<path d="M0 0 C0.66 0 1.32 0 2 0 C2.33 2.31 2.66 4.62 3 7 C2.01 7.495 2.01 7.495 1 8 C1 6.35 1 4.7 1 3 C0.38125 3.20625 -0.2375 3.4125 -0.875 3.625 C-1.57625 3.74875 -2.2775 3.8725 -3 4 C-3.66 3.34 -4.32 2.68 -5 2 C-3.35 2 -1.7 2 0 2 C0 1.34 0 0.68 0 0 Z " fill="#72727C" transform="translate(146,124)"/>
<path d="M0 0 C0.66 0.33 1.32 0.66 2 1 C2 4.66666667 2 8.33333333 2 12 C-0.37555161 9.62444839 -0.36834858 8.69703006 -0.6875 5.4375 C-0.77386719 4.63183594 -0.86023437 3.82617188 -0.94921875 2.99609375 C-0.96597656 2.33738281 -0.98273437 1.67867188 -1 1 C-0.67 0.67 -0.34 0.34 0 0 Z " fill="#AC8964" transform="translate(54,103)"/>
<path d="M0 0 C2.8125 -0.25 2.8125 -0.25 6 0 C7.875 2 7.875 2 9 4 C8.01 4.33 7.02 4.66 6 5 C2.8125 3.125 2.8125 3.125 0 1 C0 0.67 0 0.34 0 0 Z " fill="#E3E3E6" transform="translate(38,33)"/>
<path d="M0 0 C2.97 0.495 2.97 0.495 6 1 C6 1.99 6 2.98 6 4 C3.69 3.67 1.38 3.34 -1 3 C-0.67 2.01 -0.34 1.02 0 0 Z " fill="#222335" transform="translate(136,301)"/>
<path d="M0 0 C2.97 0.495 2.97 0.495 6 1 C6 1.99 6 2.98 6 4 C4.35 4 2.7 4 1 4 C0.67 2.68 0.34 1.36 0 0 Z " fill="#DDAC8A" transform="translate(63,223)"/>
<path d="M0 0 C1.32 0 2.64 0 4 0 C6.25 3 6.25 3 8 6 C7.67 6.66 7.34 7.32 7 8 C3.90955532 5.93970355 3.48778303 5.17393713 2 2 C1.34 1.34 0.68 0.68 0 0 Z " fill="#A6957C" transform="translate(71,198)"/>
<path d="M0 0 C3.3 0 6.6 0 10 0 C7 3 7 3 3.8125 3.1875 C2.4203125 3.0946875 2.4203125 3.0946875 1 3 C0.67 2.01 0.34 1.02 0 0 Z " fill="#B5AEA5" transform="translate(63,195)"/>
<path d="M0 0 C1.98 0 3.96 0 6 0 C6 1.65 6 3.3 6 5 C4.02 4.34 2.04 3.68 0 3 C0 2.01 0 1.02 0 0 Z " fill="#434452" transform="translate(141,127)"/>
<path d="M0 0 C1.65 0 3.3 0 5 0 C5 1.98 5 3.96 5 6 C3.35 6 1.7 6 0 6 C0 4.02 0 2.04 0 0 Z " fill="#72727D" transform="translate(120,126)"/>
<path d="M0 0 C0 1.65 0 3.3 0 5 C0.99 5 1.98 5 3 5 C3 5.66 3 6.32 3 7 C0.13275314 6.42655063 -0.8614515 6.1385485 -3 4 C-3 3.01 -3 2.02 -3 1 C-1 0 -1 0 0 0 Z " fill="#EDEDED" transform="translate(470,122)"/>
<path d="M0 0 C2.31 0 4.62 0 7 0 C6.67 1.32 6.34 2.64 6 4 C6 3.34 6 2.68 6 2 C4.35 2.33 2.7 2.66 1 3 C0.67 2.01 0.34 1.02 0 0 Z " fill="#30303D" transform="translate(186,45)"/>
<path d="M0 0 C0.66 0 1.32 0 2 0 C2.33 2.31 2.66 4.62 3 7 C2.01 7.33 1.02 7.66 0 8 C0 5.36 0 2.72 0 0 Z " fill="#6D6E78" transform="translate(146,226)"/>
<path d="M0 0 C0.66 0 1.32 0 2 0 C2 0.66 2 1.32 2 2 C3.65 1.67 5.3 1.34 7 1 C6.67 1.66 6.34 2.32 6 3 C6.66 3.66 7.32 4.32 8 5 C6.35 5 4.7 5 3 5 C3 4.34 3 3.68 3 3 C2.34 3 1.68 3 1 3 C0.67 2.01 0.34 1.02 0 0 Z " fill="#DFAA87" transform="translate(59,216)"/>
<path d="M0 0 C0.66 0 1.32 0 2 0 C2.1546875 1.175625 2.1546875 1.175625 2.3125 2.375 C2.77595022 5.33045181 2.77595022 5.33045181 6 7 C4.68 7.33 3.36 7.66 2 8 C-0.1519437 4.77208445 -0.20086443 3.71599191 0 0 Z " fill="#C3C4C9" transform="translate(116,200)"/>
<path d="M0 0 C1.9375 0.625 1.9375 0.625 4 2 C4.75 5.125 4.75 5.125 5 8 C4.67 7.01 4.34 6.02 4 5 C3.01 5.33 2.02 5.66 1 6 C0.67 4.02 0.34 2.04 0 0 Z " fill="#7E6A52" transform="translate(74,98)"/>
<path d="M0 0 C1.98 0.66 3.96 1.32 6 2 C6 2.66 6 3.32 6 4 C4.02 4 2.04 4 0 4 C0 2.68 0 1.36 0 0 Z " fill="#5B5C66" transform="translate(243,96)"/>
<path d="M0 0 C1.98 0.66 3.96 1.32 6 2 C6 2.66 6 3.32 6 4 C4.02 4 2.04 4 0 4 C0 2.68 0 1.36 0 0 Z " fill="#5F606B" transform="translate(140,96)"/>
<path d="M0 0 C2.8125 -0.25 2.8125 -0.25 6 0 C7.875 2 7.875 2 9 4 C8.01 4.33 7.02 4.66 6 5 C5.7525 4.360625 5.505 3.72125 5.25 3.0625 C4.18437567 0.81258459 4.18437567 0.81258459 1.875 0.25 C0.946875 0.12625 0.946875 0.12625 0 0 Z " fill="#DDDEE1" transform="translate(115,33)"/>
<path d="M0 0 C0.99 0.33 1.98 0.66 3 1 C2.34 1 1.68 1 1 1 C1 1.66 1 2.32 1 3 C2.32 3 3.64 3 5 3 C5 3.66 5 4.32 5 5 C3.35 5 1.7 5 0 5 C-0.33 4.01 -0.66 3.02 -1 2 C-0.67 1.34 -0.34 0.68 0 0 Z " fill="#121225" transform="translate(135,304)"/>
<path d="M0 0 C0.36923077 4.55384615 0.36923077 4.55384615 -1.5 6.8125 C-1.995 7.204375 -2.49 7.59625 -3 8 C-3 5.69 -3 3.38 -3 1 C-1 0 -1 0 0 0 Z " fill="#8D583E" transform="translate(75,215)"/>
<path d="M0 0 C0.66 0.33 1.32 0.66 2 1 C2 3.31 2 5.62 2 8 C1.34 7.01 0.68 6.02 0 5 C-0.66 5 -1.32 5 -2 5 C-2 4.01 -2 3.02 -2 2 C-1.34 2 -0.68 2 0 2 C0 1.34 0 0.68 0 0 Z " fill="#37261C" transform="translate(76,206)"/>
<path d="M0 0 C0 2.64 0 5.28 0 8 C-1.5 6.75 -1.5 6.75 -3 5 C-3 3.68 -3 2.36 -3 1 C-1 0 -1 0 0 0 Z " fill="#66432A" transform="translate(58,107)"/>
<path d="M0 0 C1.32 0 2.64 0 4 0 C3.67 1.32 3.34 2.64 3 4 C1.68 3.67 0.36 3.34 -1 3 C-0.67 2.01 -0.34 1.02 0 0 Z " fill="#4C4D59" transform="translate(245,101)"/>
<path d="M0 0 C0.86625 0.556875 0.86625 0.556875 1.75 1.125 C1.42 2.445 1.09 3.765 0.75 5.125 C0.09 4.135 -0.57 3.145 -1.25 2.125 C-3.81282742 1.39534634 -3.81282742 1.39534634 -6.25 1.125 C-2.80384615 -1.09038462 -2.80384615 -1.09038462 0 0 Z " fill="#C8C8CC" transform="translate(175.25,92.875)"/>
<path d="M0 0 C1.2065625 0.0309375 1.2065625 0.0309375 2.4375 0.0625 C2.4375 0.7225 2.4375 1.3825 2.4375 2.0625 C0.4575 2.7225 -1.5225 3.3825 -3.5625 4.0625 C-3.5625 0.08689024 -3.5625 0.08689024 0 0 Z " fill="#F7F7F8" transform="translate(116.5625,33.9375)"/>
</svg>
