<svg width="144" height="40" viewBox="0 0 144 40" fill="none" xmlns="http://www.w3.org/2000/svg">
<path d="M26.1325 26.6478C25.581 26.3601 25.3659 25.6798 25.6534 25.1279L31.5304 13.8311C31.8179 13.2792 32.4979 13.064 33.0494 13.3517C33.601 13.6393 33.8161 14.3197 33.5286 14.8715L27.6515 26.1684C27.364 26.7202 26.6841 26.9354 26.1325 26.6478ZM24.6237 22.1138C25.1701 21.8292 25.3832 21.1549 25.0978 20.6082L21.5674 13.8229C21.283 13.2762 20.6092 13.063 20.0628 13.3486C19.5163 13.6332 19.3043 14.3074 19.5887 14.8542L23.119 21.6394C23.4034 22.1862 24.0773 22.3994 24.6237 22.1138ZM21.2514 25.1616L20.9038 24.4812L15.6791 14.2472C15.3448 13.5934 14.6729 13.1813 13.9389 13.1813H13.7238C12.9898 13.1813 12.317 13.5934 11.9836 14.2472L6.75899 24.4812L6.41134 25.1616C6.02803 25.9124 6.57339 26.8039 7.41546 26.8039H7.48893C7.91302 26.8039 8.30037 26.5662 8.49304 26.1888L9.36465 24.4812L12.8257 17.7001C13.2447 16.88 14.416 16.88 14.835 17.7001L17.4591 22.839C17.8424 23.5897 17.2969 24.4812 16.4549 24.4812H12.5535C11.9306 24.4812 11.4259 24.9862 11.4259 25.6094V25.6747C11.4259 26.2979 11.9306 26.8028 12.5535 26.8028H20.2472C21.0903 26.8028 21.6348 25.9113 21.2514 25.1606V25.1616ZM38.2037 20.0043C38.2027 20.5041 38.1844 21.004 38.1457 21.5017C38.1263 21.7476 38.1028 21.9934 38.0743 22.2392C38.0682 22.2933 38.061 22.3473 38.0549 22.4024C38.0243 22.6635 38.0712 22.2912 38.0488 22.4493C38.0294 22.584 38.0101 22.7186 37.9877 22.8523C37.8307 23.8182 37.5993 24.773 37.2965 25.7032C37.1487 26.1561 36.9805 26.6019 36.8031 27.0436C36.7909 27.0732 36.7368 27.2017 36.801 27.0497C36.7806 27.0976 36.7593 27.1466 36.7389 27.1945C36.692 27.3027 36.6431 27.4108 36.5941 27.5189C36.4901 27.7454 36.382 27.9698 36.2689 28.1921C35.8438 29.0306 35.3564 29.8364 34.8131 30.6025C34.6775 30.7932 34.5389 30.9819 34.3961 31.1676C34.5011 31.0309 34.3309 31.2502 34.2952 31.2941C34.2146 31.395 34.1321 31.496 34.0495 31.596C33.7508 31.955 33.4388 32.3029 33.1147 32.6395C32.7813 32.9853 32.4357 33.3178 32.0779 33.6381C31.9138 33.785 31.7466 33.9288 31.5763 34.0706C31.4866 34.1451 31.3959 34.2195 31.3051 34.293C31.2644 34.3256 31.2237 34.3572 31.1829 34.3899C31.1523 34.4143 31.1217 34.4378 31.0911 34.4623C31.1584 34.4103 31.1676 34.4041 31.1166 34.4419C30.3591 35.0182 29.5619 35.5394 28.729 35.9974C28.3162 36.2249 27.8941 36.4371 27.4649 36.6329C27.3691 36.6768 27.2732 36.7196 27.1764 36.7614C27.1285 36.7829 27.0795 36.8033 27.0316 36.8237C27.1917 36.7553 27.0296 36.8237 26.9888 36.841C26.7564 36.9348 26.5229 37.0266 26.2875 37.1123C25.3852 37.4408 24.4565 37.7009 23.5145 37.8896C23.276 37.9375 23.0364 37.9804 22.7959 38.0191C22.6888 38.0365 22.5807 38.0518 22.4737 38.0681C22.2973 38.0936 22.4319 38.0742 22.4676 38.0691C22.3861 38.0793 22.3055 38.0895 22.2239 38.0987C21.7315 38.1558 21.2372 38.1946 20.7427 38.2129C19.7325 38.2517 18.7201 38.213 17.7159 38.0936C17.6487 38.0854 17.5803 38.0773 17.5131 38.0681C17.5497 38.0732 17.6833 38.0926 17.507 38.0671C17.3999 38.0518 17.2919 38.0355 17.1848 38.0181C16.9177 37.9753 16.6516 37.9273 16.3876 37.8733C15.9146 37.7764 15.4467 37.6621 14.9829 37.5305C14.5231 37.4 14.0684 37.2511 13.6208 37.0858C13.4098 37.0083 13.2019 36.9257 12.9939 36.842C12.9542 36.8257 12.792 36.7574 12.951 36.8247C12.9031 36.8043 12.8542 36.7829 12.8063 36.7625C12.686 36.7094 12.5658 36.6564 12.4465 36.6013C11.5922 36.2065 10.7674 35.7485 9.9804 35.2324C9.58893 34.9754 9.20669 34.704 8.83561 34.4194C8.9712 34.5235 8.83349 34.4184 8.80087 34.3909C8.74989 34.3501 8.699 34.3103 8.64904 34.2695C8.56851 34.2042 8.48794 34.1389 8.40842 34.0716C8.2188 33.9135 8.0322 33.7523 7.84972 33.5871C7.15547 32.9618 6.50715 32.2865 5.91078 31.5674C5.83636 31.4777 5.76195 31.3869 5.68957 31.2951C5.66408 31.2635 5.47954 31.0248 5.58862 31.1686C5.4306 30.9625 5.27664 30.7524 5.12678 30.5392C4.85663 30.1557 4.60181 29.762 4.3602 29.3591C4.11859 28.9551 3.89127 28.542 3.68024 28.1218C3.57422 27.9106 3.47227 27.6974 3.37441 27.4822C3.33057 27.3863 3.28778 27.2904 3.24598 27.1935C3.22457 27.1456 3.20415 27.0966 3.18376 27.0487C3.2592 27.2262 3.15832 26.9854 3.1522 26.9701C2.79132 26.0837 2.49766 25.1698 2.27542 24.2395C2.1592 23.754 2.06242 23.2643 1.98392 22.7717C1.96455 22.6513 1.94719 22.5299 1.92986 22.4085C1.95535 22.5962 1.91452 22.281 1.91045 22.2392C1.87986 21.9801 1.85545 21.721 1.83608 21.4609C1.75962 20.4511 1.76266 19.4341 1.84524 18.4243C1.86461 18.1917 1.887 17.9602 1.91453 17.7286C1.92064 17.6746 1.9278 17.6205 1.93494 17.5664C1.95431 17.4083 1.90227 17.7796 1.94101 17.5195C1.9614 17.3849 1.9808 17.2512 2.00323 17.1166C2.08173 16.6382 2.17854 16.1619 2.29373 15.6906C2.52107 14.7593 2.82394 13.8535 3.18177 12.9651C3.24599 12.8049 3.19701 12.9263 3.18376 12.9589C3.20924 12.8988 3.2357 12.8376 3.26221 12.7774C3.31012 12.6693 3.3581 12.5611 3.40806 12.454C3.50694 12.2398 3.60993 12.0266 3.71698 11.8165C3.93004 11.3973 4.15837 10.9852 4.40202 10.5823C4.65076 10.1702 4.91585 9.76624 5.19517 9.37454C5.32362 9.19502 5.45507 9.01651 5.58862 8.84107C5.48259 8.97979 5.68245 8.72376 5.71406 8.68398C5.79561 8.58299 5.87716 8.48202 5.96075 8.38205C6.56834 7.65477 7.22893 6.97339 7.93643 6.34403C8.10158 6.19714 8.26876 6.05331 8.43799 5.91254C8.5277 5.83808 8.61842 5.76362 8.71017 5.6912C8.75095 5.65856 8.79175 5.62693 8.83253 5.59429C9.03438 5.43313 8.69178 5.69732 8.89873 5.54329C9.27389 5.26278 9.65419 4.99044 10.0477 4.73543C10.8367 4.22235 11.6635 3.76741 12.5199 3.37674C12.6279 3.32778 12.7359 3.27984 12.844 3.2319C12.8838 3.21456 13.0459 3.14621 12.8858 3.21354C12.9348 3.19314 12.9837 3.17274 13.0316 3.15336C13.2518 3.06359 13.473 2.97791 13.6973 2.89733C14.1591 2.72902 14.6271 2.57907 15.1011 2.44749C15.566 2.31794 16.0359 2.20676 16.5099 2.11291C16.7352 2.06803 16.9616 2.02826 17.1889 1.99154C17.3092 1.97216 17.4306 1.95379 17.5519 1.93747C17.7099 1.91503 17.3378 1.96196 17.5988 1.93136C17.6671 1.9232 17.7343 1.91504 17.8016 1.90688C18.8057 1.79161 19.8191 1.75693 20.8293 1.79977C21.3238 1.82119 21.8172 1.86097 22.3096 1.92115C22.3637 1.92727 22.4177 1.93442 22.4717 1.94156C22.3025 1.92014 22.4452 1.93748 22.4778 1.94258C22.5991 1.96094 22.7194 1.97827 22.8397 1.99765C23.0935 2.03845 23.3454 2.08538 23.5972 2.13639C24.5381 2.32815 25.4637 2.59234 26.3649 2.92487C26.5882 3.00749 26.8084 3.09521 27.0286 3.18395C27.1887 3.24821 27.0673 3.19925 27.0347 3.18599C27.0826 3.20639 27.1316 3.22781 27.1795 3.24821C27.2998 3.30125 27.4201 3.3543 27.5394 3.40939C27.9798 3.61237 28.412 3.8327 28.8351 4.06832C29.2449 4.29681 29.6465 4.54061 30.039 4.79969C30.2235 4.92108 30.406 5.04653 30.5865 5.17404C30.6823 5.24136 30.7771 5.31072 30.8709 5.38009C30.9229 5.41885 30.9749 5.45761 31.0269 5.49637C31.0585 5.51983 31.24 5.6606 31.0942 5.54635C31.8312 6.12063 32.5255 6.74898 33.1718 7.42424C33.495 7.76187 33.8049 8.11174 34.1025 8.47182C34.1688 8.5524 34.234 8.63298 34.2993 8.71356C34.34 8.76456 34.3799 8.81557 34.4196 8.86657C34.5134 8.98591 34.2972 8.70132 34.4471 8.90227C34.5878 9.08995 34.7265 9.27763 34.8611 9.4694C35.4014 10.2385 35.8856 11.0464 36.3066 11.8869C36.4126 12.098 36.5146 12.3112 36.6124 12.5265C36.6563 12.6223 36.6991 12.7182 36.7409 12.8151C36.7378 12.809 36.8397 13.0467 36.7887 12.9263C36.749 12.8325 36.8398 13.0507 36.85 13.0752C37.0284 13.5169 37.1904 13.9657 37.3352 14.4196C37.6329 15.353 37.8582 16.3098 38.0091 17.2778C38.0254 17.3849 38.0417 17.493 38.056 17.6001C38.0305 17.4185 38.0743 17.7572 38.0804 17.8102C38.1069 18.0418 38.1294 18.2743 38.1467 18.5069C38.1854 19.0057 38.2038 19.5045 38.2048 20.0043C38.2048 20.4705 38.6135 20.9172 39.0957 20.8958C39.5779 20.8744 39.9878 20.5041 39.9868 20.0043C39.9776 15.8875 38.7053 11.7961 36.3076 8.44325C33.9445 5.13936 30.6497 2.61172 26.838 1.20612C22.9203 -0.239273 18.5234 -0.383108 14.5119 0.76137C10.6594 1.85995 7.14738 4.14585 4.60182 7.24267C1.96859 10.4466 0.378227 14.3697 0.0581204 18.5069C-0.260966 22.6258 0.741121 26.8283 2.884 30.3597C4.95347 33.7697 8.05566 36.5615 11.693 38.2048C15.5547 39.949 19.8762 40.4397 24.0314 39.6002C27.9746 38.8035 31.6528 36.7512 34.4308 33.8452C37.2088 30.9391 39.1203 27.1619 39.734 23.1664C39.8951 22.1188 39.9857 21.0662 39.9878 20.0064C39.9878 19.5402 39.577 19.0934 39.0968 19.1148C38.6136 19.1363 38.2068 19.5065 38.2058 20.0064L38.2037 20.0043Z" fill="url(#paint0_linear_2234_6106)"/>
<path d="M59.7702 30.1825L58.189 26.184H50.3108L48.8152 30.1825H43.4672L52.0061 9.81445H56.7792L65.2324 30.1825H59.7691H59.7702ZM54.307 15.2512L51.7196 22.2415H56.8372L54.307 15.2512ZM76.1578 30.1825H71.241L63.535 9.81445H69.0553L73.7703 24.2561H73.8855L78.5718 9.81445H84.0054L76.1557 30.1825H76.1578ZM86.8548 30.1825V9.81445H91.8001V30.1825H86.8548ZM95.9983 30.1825V9.81445H109.684V13.9864H100.743V17.8125H109.196V21.754H100.743V25.983H110.202V30.1835H95.9983V30.1825ZM135.014 30.1825H130.156L126.131 16.4018H126.044L122.019 30.1825H117.13L111.351 9.81445H116.641L119.861 23.3646H119.948L123.571 9.81445H128.689L132.34 23.3646H132.427L135.705 9.81445H140.822L135.014 30.1825Z" fill="url(#paint1_linear_2234_6106)"/>
<path d="M140.345 28.8067H140.972V30.3061H141.303V28.8067H141.923V28.5078H140.345V28.8067Z" fill="#06F9FF"/>
<path d="M143.752 28.5078H143.431L142.905 29.8237L142.379 28.5078H142.058L141.929 30.3061H142.254L142.334 29.1759L142.794 30.3061H143.016L143.476 29.1759L143.556 30.3061H143.881L143.752 28.5078Z" fill="#06F9FF"/>
<defs>
<linearGradient id="paint0_linear_2234_6106" x1="-0.00202807" y1="19.9982" x2="39.9857" y2="19.9982" gradientUnits="userSpaceOnUse">
<stop stop-color="#FC00FF"/>
<stop offset="1" stop-color="#00FFFF"/>
</linearGradient>
<linearGradient id="paint1_linear_2234_6106" x1="43.4672" y1="19.9985" x2="140.822" y2="19.9985" gradientUnits="userSpaceOnUse">
<stop stop-color="#FC00FF"/>
<stop offset="1" stop-color="#00FFFF"/>
</linearGradient>
</defs>
</svg>
