<svg width="6129" height="3357" viewBox="0 0 6129 3357" fill="none" xmlns="http://www.w3.org/2000/svg">
<path d="M2193.82 2235.77C2147.52 2211.64 2129.46 2154.55 2153.59 2108.25L2646.98 1160.44C2671.11 1114.14 2728.19 1096.08 2774.49 1120.21C2820.79 1144.35 2838.85 1201.43 2814.72 1247.73L2321.34 2195.55C2297.2 2241.85 2240.12 2259.91 2193.82 2235.77ZM2067.16 1855.36C2113.03 1831.48 2130.92 1774.91 2106.95 1729.04L1810.58 1159.75C1786.7 1113.88 1730.13 1095.99 1684.26 1119.96C1638.39 1143.84 1620.59 1200.4 1644.47 1246.28L1940.84 1815.57C1964.71 1861.44 2021.28 1879.32 2067.16 1855.36ZM1784.05 2111.08L1754.87 2054L1316.26 1195.36C1288.19 1140.5 1231.79 1105.92 1170.17 1105.92H1152.11C1090.49 1105.92 1034.01 1140.5 1006.02 1195.36L567.412 2054L538.228 2111.08C506.049 2174.07 551.836 2248.87 622.527 2248.87H628.689C664.291 2248.87 696.812 2228.93 712.987 2197.26L786.16 2054L1076.71 1485.05C1111.89 1416.24 1210.22 1416.24 1245.39 1485.05L1465.68 1916.21C1497.86 1979.2 1452.08 2054 1381.39 2054H1053.86C1001.57 2054 959.208 2096.36 959.208 2148.65V2154.13C959.208 2206.42 1001.57 2248.78 1053.86 2248.78H1699.75C1770.53 2248.78 1816.23 2173.98 1784.05 2110.99V2111.08ZM3207.2 1678.38C3207.11 1720.31 3205.57 1762.25 3202.32 1804.01C3200.69 1824.64 3198.73 1845.26 3196.33 1865.89C3195.82 1870.42 3195.22 1874.96 3194.7 1879.58C3192.14 1901.49 3196.07 1870.25 3194.19 1883.52C3192.56 1894.81 3190.94 1906.11 3189.05 1917.32C3175.88 1998.37 3156.45 2078.47 3131.03 2156.52C3118.62 2194.52 3104.5 2231.92 3089.61 2268.98C3088.58 2271.46 3084.05 2282.24 3089.44 2269.49C3087.73 2273.51 3085.93 2277.62 3084.22 2281.64C3080.28 2290.72 3076.17 2299.79 3072.06 2308.86C3063.33 2327.86 3054.26 2346.69 3044.76 2365.34C3009.08 2435.69 2968.17 2503.3 2922.55 2567.57C2911.17 2583.58 2899.53 2599.41 2887.55 2614.98C2896.36 2603.52 2882.07 2621.92 2879.08 2625.6C2872.31 2634.07 2865.38 2642.54 2858.45 2650.93C2833.37 2681.05 2807.19 2710.24 2779.97 2738.48C2751.99 2767.49 2722.97 2795.39 2692.93 2822.26C2679.16 2834.59 2665.12 2846.65 2650.83 2858.55C2643.3 2864.8 2635.68 2871.04 2628.06 2877.21C2624.64 2879.95 2621.22 2882.6 2617.79 2885.34C2615.23 2887.39 2612.66 2889.36 2610.09 2891.41C2615.74 2887.05 2616.51 2886.53 2612.23 2889.7C2548.64 2938.05 2481.72 2981.79 2411.8 3020.21C2377.14 3039.3 2341.7 3057.1 2305.67 3073.53C2297.63 3077.21 2289.58 3080.81 2281.45 3084.31C2277.43 3086.11 2273.32 3087.82 2269.3 3089.53C2282.74 3083.8 2269.13 3089.53 2265.71 3090.99C2246.19 3098.86 2226.6 3106.57 2206.83 3113.75C2131.09 3141.31 2053.12 3163.13 1974.04 3178.97C1954.02 3182.99 1933.9 3186.58 1913.71 3189.84C1904.72 3191.29 1895.65 3192.57 1886.66 3193.94C1871.86 3196.08 1883.15 3194.46 1886.15 3194.03C1879.3 3194.89 1872.54 3195.74 1865.7 3196.51C1824.36 3201.3 1782.85 3204.56 1741.34 3206.1C1656.53 3209.35 1571.55 3206.1 1487.25 3196.08C1481.6 3195.4 1475.87 3194.71 1470.22 3193.94C1473.3 3194.37 1484.51 3196 1469.71 3193.86C1460.72 3192.57 1451.65 3191.21 1442.66 3189.75C1420.24 3186.16 1397.9 3182.13 1375.74 3177.6C1336.03 3169.47 1296.74 3159.88 1257.8 3148.84C1219.21 3137.89 1181.04 3125.39 1143.47 3111.53C1125.75 3105.02 1108.29 3098.09 1090.83 3091.07C1087.5 3089.71 1073.89 3083.97 1087.24 3089.62C1083.22 3087.91 1079.11 3086.11 1075.09 3084.4C1064.99 3079.95 1054.89 3075.5 1044.88 3070.88C973.157 3037.76 903.921 2999.33 837.852 2956.03C804.988 2934.46 772.895 2911.7 741.743 2887.82C753.125 2896.55 741.572 2887.73 738.833 2885.42C734.554 2882 730.275 2878.66 726.081 2875.24C719.32 2869.76 712.559 2864.28 705.884 2858.64C689.966 2845.37 674.304 2831.85 658.985 2817.98C600.703 2765.52 546.273 2708.87 496.207 2648.53C489.96 2641 483.712 2633.38 477.636 2625.68C475.496 2623.03 460.006 2603 469.163 2615.07C455.898 2597.78 442.975 2580.15 430.394 2562.27C407.715 2530.09 386.32 2497.05 366.036 2463.25C345.754 2429.36 326.669 2394.7 308.953 2359.44C300.053 2341.72 291.494 2323.84 283.278 2305.78C279.598 2297.73 276.004 2289.69 272.495 2281.56C270.698 2277.54 268.986 2273.43 267.275 2269.41C273.608 2284.3 265.135 2264.1 264.621 2262.82C234.325 2188.45 209.678 2111.76 191.021 2033.71C181.264 1992.98 173.134 1951.9 166.544 1910.56C164.918 1900.46 163.463 1890.28 162.008 1880.09C164.148 1895.84 160.725 1869.4 160.382 1865.89C157.815 1844.15 155.761 1822.41 154.135 1800.59C147.716 1715.86 147.973 1630.54 154.905 1545.81C156.531 1526.3 158.414 1506.87 160.725 1487.45C161.238 1482.91 161.837 1478.37 162.436 1473.84C164.062 1460.57 159.698 1491.72 162.95 1469.9C164.661 1458.6 166.287 1447.39 168.17 1436.1C174.76 1395.96 182.89 1355.99 192.561 1316.45C211.646 1238.32 237.064 1162.32 267.103 1087.78C272.495 1074.34 268.387 1084.53 267.275 1087.27C269.414 1082.22 271.639 1077.08 273.864 1072.03C277.887 1062.96 281.909 1053.89 286.103 1044.9C294.404 1026.93 303.048 1009.04 312.034 991.414C329.921 956.24 349.091 921.665 369.545 887.86C390.427 853.285 412.679 819.395 436.128 786.532C446.912 771.469 457.952 756.492 469.163 741.772C460.263 753.411 477.037 731.93 479.69 728.593C486.536 720.12 493.383 711.648 500.401 703.261C551.408 642.241 606.865 585.072 666.259 532.268C680.124 519.945 694.159 507.878 708.366 496.067C715.897 489.82 723.514 483.572 731.216 477.496C734.64 474.758 738.063 472.104 741.486 469.366C758.431 455.844 729.676 478.01 747.049 465.087C778.543 441.552 810.466 418.702 843.5 397.306C909.741 354.259 979.148 316.089 1051.04 283.311C1060.11 279.203 1069.18 275.181 1078.25 271.159C1081.59 269.704 1095.2 263.97 1081.76 269.618C1085.87 267.907 1089.98 266.195 1094 264.569C1112.49 257.038 1131.06 249.849 1149.89 243.088C1188.65 228.967 1227.94 216.386 1267.73 205.346C1306.76 194.478 1346.21 185.149 1386.01 177.276C1404.92 173.51 1423.92 170.172 1443 167.091C1453.1 165.465 1463.29 163.925 1473.47 162.556C1486.74 160.673 1455.5 164.61 1477.41 162.042C1483.14 161.357 1488.79 160.673 1494.44 159.988C1578.74 150.317 1663.81 147.408 1748.62 151.002C1790.13 152.799 1831.55 156.137 1872.88 161.186C1877.42 161.7 1881.96 162.299 1886.49 162.898C1872.29 161.101 1884.27 162.556 1887.01 162.983C1897.19 164.524 1907.29 165.979 1917.39 167.605C1938.7 171.028 1959.84 174.965 1980.97 179.244C2059.97 195.333 2137.68 217.499 2213.33 245.399C2232.07 252.331 2250.56 259.691 2269.04 267.136C2282.48 272.528 2272.3 268.42 2269.56 267.308C2273.58 269.019 2277.69 270.816 2281.71 272.528C2291.81 276.978 2301.91 281.428 2311.92 286.05C2348.89 303.081 2385.18 321.566 2420.7 341.336C2455.1 360.506 2488.82 380.96 2521.77 402.698C2537.26 412.882 2552.58 423.409 2567.73 434.106C2575.77 439.755 2583.73 445.574 2591.6 451.394C2595.97 454.646 2600.33 457.898 2604.7 461.15C2607.35 463.118 2622.59 474.929 2610.35 465.344C2672.22 513.526 2730.5 566.244 2784.76 622.899C2811.89 651.227 2837.91 680.581 2862.9 710.792C2868.46 717.553 2873.94 724.314 2879.42 731.075C2882.84 735.354 2886.18 739.633 2889.52 743.912C2897.39 753.925 2879.25 730.048 2891.83 746.907C2903.64 762.654 2915.28 778.401 2926.57 794.491C2971.93 859.019 3012.58 926.8 3047.93 997.319C3056.83 1015.03 3065.39 1032.92 3073.6 1050.98C3077.28 1059.02 3080.88 1067.07 3084.39 1075.2C3084.13 1074.69 3092.69 1094.63 3088.41 1084.53C3085.07 1076.65 3092.69 1094.97 3093.54 1097.02C3108.52 1134.08 3122.13 1171.73 3134.28 1209.82C3159.27 1288.13 3178.19 1368.4 3190.85 1449.62C3192.22 1458.6 3193.59 1467.68 3194.79 1476.66C3192.65 1461.43 3196.33 1489.84 3196.84 1494.29C3199.07 1513.72 3200.95 1533.23 3202.41 1552.74C3205.66 1594.59 3207.2 1636.44 3207.28 1678.38C3207.28 1717.49 3241.6 1754.97 3282.08 1753.18C3322.56 1751.38 3356.97 1720.31 3356.88 1678.38C3356.11 1332.97 3249.3 989.702 3048.02 708.395C2849.64 431.196 2573.03 219.125 2253.04 101.194C1924.15 -20.0757 1555.03 -32.1427 1218.27 63.8799C894.85 156.051 600.019 347.84 386.32 607.666C165.26 876.478 31.752 1205.62 4.8791 1552.74C-21.9082 1898.32 62.2193 2250.92 242.113 2547.2C415.845 2833.3 676.272 3067.54 981.63 3205.41C1305.82 3351.76 1668.6 3392.92 2017.43 3322.49C2348.47 3255.65 2657.25 3083.46 2890.46 2839.64C3123.67 2595.81 3284.14 2278.9 3335.66 1943.68C3349.18 1855.79 3356.8 1767.47 3356.97 1678.55C3356.97 1639.44 3322.48 1601.95 3282.17 1603.75C3241.6 1605.55 3207.46 1636.61 3207.37 1678.55L3207.2 1678.38Z" fill="url(#paint0_linear_1570_125)"/>
<path d="M3357.16 2548.16H3658.31C3799.7 2548.16 3953.76 2577.89 3953.76 2753.44C3953.76 2843.59 3897.93 2905.11 3814.57 2931.36V2933.58C3920.7 2947.33 3991.4 3025.94 3991.4 3130.95C3991.4 3299.86 3831.65 3355.68 3687.88 3355.68H3357V2548L3357.16 2548.16ZM3535.09 2870.95H3664C3718.72 2870.95 3775.82 2848.17 3775.82 2783.17C3775.82 2718.17 3711.92 2698.72 3656.09 2698.72H3535.09V2870.95ZM3535.09 3205.28H3694.84C3750.67 3205.28 3813.46 3181.4 3813.46 3110.55C3813.46 3034.16 3727.9 3021.51 3669.69 3021.51H3535.09V3205.12V3205.28ZM4103.22 2548.16H4651.9V2712.48H4281.16V2863.04H4631.33V3027.36H4281.16V3191.68H4672.46V3356H4103.22V2548.32V2548.16ZM4971.23 2705.68H4740.79V2548.32H5379.61V2705.68H5149.17V3355.84H4971.23V2705.68ZM5630.62 2548.16H5777.72L6129 3355.84H5928.29L5858.7 3184.72H5545.05L5477.68 3355.84H5281.39L5630.46 2548.16H5630.62ZM5699.11 2783.17L5601.05 3034.16H5798.43L5699.11 2783.17Z" fill="#FCFCFC"/>
<defs>
<linearGradient id="paint0_linear_1570_125" x1="0.000908681" y1="1678.04" x2="3356.97" y2="1678.04" gradientUnits="userSpaceOnUse">
<stop stop-color="#FC00FF"/>
<stop offset="1" stop-color="#00FFFF"/>
</linearGradient>
</defs>
</svg>
