<svg width="70" height="70" viewBox="0 0 70 70" fill="none" xmlns="http://www.w3.org/2000/svg">
<path d="M45.7485 46.6356C44.7823 46.1319 44.4067 44.9406 44.9103 43.9758L55.1988 24.2069C55.7024 23.2405 56.8933 22.8647 57.8579 23.3684C58.8241 23.8722 59.1997 25.0634 58.6961 26.0283L48.4076 45.7971C47.9056 46.7636 46.7147 47.1377 45.7485 46.6356ZM43.1075 38.7005C44.0638 38.2017 44.4362 37.0219 43.9375 36.0653L37.7582 24.1905C37.2595 23.2339 36.0801 22.8614 35.1237 23.3602C34.1674 23.8591 33.795 25.0388 34.2937 25.9954L40.473 37.8702C40.9717 38.8268 42.1495 39.1977 43.1075 38.7005ZM37.2038 44.0332L36.5952 42.8436L27.4484 24.9338C26.8644 23.7885 25.6866 23.0682 24.4022 23.0682H24.0265C22.7421 23.0682 21.5643 23.7885 20.9803 24.9338L11.8335 42.8436L11.225 44.0332C10.554 45.3475 11.5087 46.9064 12.9835 46.9064H13.113C13.8545 46.9064 14.5336 46.4912 14.8715 45.83L16.3971 42.842L22.4567 30.9754C23.1899 29.5397 25.2404 29.5397 25.9737 30.9754L30.5668 39.9689C31.2377 41.2832 30.283 42.842 28.8083 42.842H21.9777C20.8868 42.842 20.0027 43.7264 20.0027 44.8176V44.9308C20.0027 46.0219 20.8868 46.9064 21.9777 46.9064H35.4453C36.9216 46.908 37.8763 45.3475 37.2038 44.0332ZM66.88 35.007C66.8783 35.8815 66.8472 36.7561 66.7783 37.6274C66.7455 38.0589 66.7028 38.4888 66.6536 38.9171C66.6421 39.0122 66.6306 39.1074 66.6192 39.2026C66.565 39.6604 66.6487 39.0073 66.6093 39.2846C66.5765 39.5193 66.5404 39.7556 66.5027 39.9902C66.2288 41.6819 65.8236 43.3506 65.2921 44.98C65.0329 45.7725 64.7393 46.5519 64.4276 47.3248C64.4063 47.3773 64.3111 47.6004 64.4243 47.3346C64.3882 47.4199 64.3521 47.5036 64.3144 47.5889C64.2324 47.7793 64.1471 47.968 64.0602 48.1567C63.8781 48.5538 63.6878 48.9459 63.4909 49.3348C62.7479 50.8017 61.8949 52.2128 60.9434 53.5534C60.7072 53.8881 60.4628 54.2163 60.2151 54.5428C60.3988 54.3033 60.1003 54.6872 60.0379 54.7644C59.8969 54.9416 59.7525 55.1188 59.6065 55.2927C59.0832 55.9211 58.537 56.5299 57.9694 57.119C57.3871 57.7244 56.7801 58.3069 56.1535 58.8665C55.8648 59.1241 55.5728 59.3751 55.2759 59.6229C55.1184 59.7542 54.9609 59.8838 54.8002 60.0118C54.7296 60.0692 54.6575 60.125 54.5869 60.1824C54.5328 60.2251 54.4803 60.2661 54.4262 60.3088C54.5443 60.2185 54.559 60.2054 54.4721 60.2727C53.1467 61.2802 51.7507 62.1925 50.2924 62.9948C49.569 63.3919 48.8308 63.7627 48.0795 64.1057C47.9122 64.1828 47.7432 64.2566 47.5759 64.3305C47.4923 64.3666 47.407 64.4043 47.3217 64.4404C47.6022 64.3206 47.3184 64.442 47.2478 64.4699C46.841 64.634 46.4326 64.7948 46.0192 64.9458C44.4395 65.5217 42.8155 65.9762 41.1653 66.3044C40.747 66.3881 40.3287 66.4636 39.9071 66.5308C39.7201 66.5604 39.5315 66.5883 39.3428 66.6162C39.0344 66.6621 39.269 66.626 39.333 66.6178C39.1903 66.6359 39.0492 66.6539 38.9065 66.6703C38.0453 66.7704 37.1791 66.8377 36.313 66.8705C34.5447 66.9394 32.7714 66.8705 31.0146 66.6605C30.8965 66.6457 30.7767 66.6309 30.6586 66.6162C30.7226 66.6244 30.9572 66.6588 30.6488 66.6145C30.4601 66.5866 30.2731 66.5587 30.0845 66.5292C29.617 66.4537 29.1511 66.37 28.6885 66.2749C27.8618 66.1059 27.0399 65.9057 26.2279 65.6743C25.4241 65.4446 24.6286 65.1854 23.8428 64.8966C23.4737 64.7604 23.1096 64.616 22.7454 64.4699C22.6749 64.442 22.3911 64.3206 22.6716 64.4404C22.5863 64.4043 22.5026 64.3682 22.4173 64.3305C22.2057 64.2386 21.9974 64.1434 21.7874 64.0482C20.2914 63.3574 18.8478 62.5567 17.4699 61.6526C16.7842 61.203 16.1166 60.7288 15.4654 60.23C15.7032 60.4121 15.4621 60.2267 15.4047 60.1808C15.3161 60.1102 15.2259 60.0397 15.1373 59.9675C14.9962 59.8526 14.8551 59.7378 14.7157 59.6213C14.3843 59.3456 14.0579 59.0617 13.7364 58.7729C12.5209 57.6785 11.3857 56.4971 10.3424 55.2369C10.2112 55.0794 10.0833 54.9202 9.9553 54.7611C9.91101 54.7069 9.58621 54.2885 9.77814 54.5396C9.50091 54.1786 9.23189 53.811 8.97107 53.4386C8.49864 52.7675 8.05081 52.0783 7.62923 51.3744C7.20601 50.6672 6.80903 49.9452 6.43995 49.2085C6.25458 48.8393 6.07578 48.4668 5.90354 48.0894C5.82645 47.922 5.75263 47.753 5.67881 47.5857C5.64272 47.502 5.60499 47.4167 5.5689 47.3313C5.70178 47.6431 5.52461 47.2214 5.51313 47.1935C4.88158 45.6429 4.36814 44.0431 3.97773 42.4154C3.77432 41.5654 3.60372 40.7089 3.46757 39.8458C3.43476 39.6341 3.40196 39.4225 3.37407 39.2108C3.42 39.539 3.34782 38.9876 3.33962 38.9154C3.28713 38.4626 3.24284 38.0081 3.20839 37.5535C3.07552 35.7864 3.08044 34.006 3.2248 32.2405C3.2576 31.8336 3.29861 31.4283 3.34618 31.023C3.35766 30.9278 3.36915 30.8326 3.38063 30.7391C3.41508 30.4618 3.32486 31.1116 3.39211 30.6571C3.42656 30.4224 3.46101 30.1862 3.50038 29.9515C3.63817 29.113 3.80877 28.2811 4.0089 27.4558C4.40587 25.8264 4.93735 24.2397 5.56398 22.6859C5.67717 22.4053 5.59187 22.6186 5.56727 22.676C5.6132 22.5694 5.65749 22.4643 5.70506 22.3593C5.78872 22.169 5.87238 21.9803 5.95932 21.7932C6.1332 21.4175 6.312 21.0467 6.499 20.6775C6.87137 19.9424 7.27163 19.222 7.69813 18.5165C8.13447 17.7945 8.59706 17.0889 9.08753 16.4014C9.31227 16.0864 9.54192 15.7746 9.7765 15.4678C9.58949 15.7106 9.94054 15.261 9.99631 15.1938C10.139 15.0166 10.2817 14.841 10.4277 14.6671C11.4907 13.3954 12.6472 12.2025 13.8873 11.0999C14.176 10.8439 14.4696 10.5912 14.7666 10.3451C14.924 10.2138 15.0831 10.0858 15.2423 9.95783C15.3128 9.9004 15.385 9.84461 15.4555 9.78882C15.8082 9.5066 15.2095 9.96932 15.572 9.69858C16.2281 9.20632 16.8941 8.73048 17.5831 8.28417C18.9643 7.38663 20.4128 6.59082 21.9121 5.90659C22.1007 5.82127 22.2894 5.73758 22.4796 5.6539C22.5485 5.62272 22.8323 5.50458 22.5518 5.62108C22.6371 5.58498 22.7224 5.55053 22.8077 5.51607C23.1932 5.35855 23.582 5.20923 23.9724 5.06647C24.7811 4.77276 25.6013 4.51023 26.4297 4.27887C27.2433 4.05243 28.0668 3.85717 28.8952 3.69309C29.2905 3.61433 29.6859 3.54378 30.0828 3.48142C30.2944 3.44697 30.5061 3.41579 30.7177 3.38625C30.9949 3.34687 30.342 3.42891 30.7997 3.37641C30.9178 3.36328 31.0375 3.34687 31.1557 3.33374C32.9141 3.13192 34.6874 3.07121 36.4557 3.14669C37.3219 3.18443 38.1863 3.25499 39.0459 3.35836C39.141 3.36985 39.2362 3.38133 39.3297 3.39446C39.0328 3.35672 39.2821 3.38789 39.3395 3.3961C39.5512 3.42727 39.7628 3.45845 39.9744 3.49291C40.4173 3.5651 40.8602 3.64551 41.2998 3.73575C42.9468 4.07213 44.5675 4.5332 46.1455 5.11406C46.5359 5.25845 46.9214 5.41269 47.3069 5.56693C47.5874 5.68015 47.3742 5.59483 47.3167 5.57021C47.402 5.60631 47.4857 5.64241 47.571 5.68015C47.7826 5.77204 47.9909 5.86721 48.2009 5.96238C48.9719 6.31844 49.7281 6.7024 50.4679 7.11589C51.1864 7.51626 51.8885 7.94287 52.5742 8.39575C52.8973 8.60906 53.2172 8.82729 53.5338 9.05208C53.7011 9.17023 53.8668 9.29001 54.0308 9.41307C54.1227 9.48035 54.2129 9.54926 54.3048 9.61654C54.3589 9.65756 54.6772 9.90368 54.4229 9.70514C55.7122 10.711 56.9294 11.8103 58.0596 12.9918C58.6239 13.5825 59.1685 14.1945 59.6885 14.8246C59.805 14.964 59.9182 15.1052 60.033 15.2479C60.1035 15.3365 60.1741 15.4268 60.2446 15.5154C60.4087 15.7254 60.0297 15.2266 60.2922 15.5777C60.5382 15.9059 60.781 16.2341 61.0172 16.5704C61.9637 17.9159 62.8102 19.3303 63.5484 20.8005C63.7337 21.1697 63.9125 21.5422 64.0848 21.9196C64.1619 22.0869 64.2357 22.256 64.3095 22.4233C64.3046 22.4118 64.4817 22.8286 64.3948 22.6186C64.3259 22.4545 64.4834 22.8368 64.5014 22.8795C64.8147 23.6523 65.0985 24.4366 65.3512 25.2324C65.8728 26.8667 66.2681 28.5404 66.5306 30.2337C66.5601 30.4224 66.588 30.6095 66.6142 30.7982C66.5699 30.4799 66.647 31.0739 66.6569 31.1657C66.7028 31.571 66.7422 31.978 66.7734 32.3849C66.8472 33.2595 66.8783 34.1324 66.88 35.007C66.8816 35.8224 67.5952 36.6051 68.44 36.5674C69.2831 36.5297 70.0016 35.8815 70 35.007C69.9852 27.8036 67.7576 20.6414 63.5598 14.7753C59.4228 8.99302 53.6552 4.5693 46.9821 2.10968C40.1253 -0.418865 32.4286 -0.669912 25.4045 1.33192C18.6608 3.25335 12.5127 7.25536 8.05573 12.6751C3.44624 18.2818 0.66251 25.1471 0.101498 32.3882C-0.456233 39.5948 1.29734 46.9507 5.04726 53.1301C8.66924 59.0978 14.1006 63.9826 20.4685 66.859C27.2286 69.911 34.794 70.7691 42.0675 69.3006C48.9702 67.9075 55.4088 64.3157 60.2725 59.2291C65.1543 54.1228 68.4826 47.5332 69.5555 40.5399C69.836 38.7071 69.9967 36.8644 70 35.0086C70.0016 34.1931 69.2815 33.4121 68.44 33.4482C67.5936 33.4859 66.8833 34.1324 66.88 35.007Z" fill="url(#paint0_linear_12_7689)"/>
<defs>
<linearGradient id="paint0_linear_12_7689" x1="-0.000205948" y1="34.9987" x2="69.9991" y2="34.9987" gradientUnits="userSpaceOnUse">
<stop stop-color="#FC00FF"/>
<stop offset="1" stop-color="#00FFFF"/>
</linearGradient>
</defs>
</svg>
