<svg width="11822" height="3356" viewBox="0 0 11822 3356" fill="none" xmlns="http://www.w3.org/2000/svg">
<g clip-path="url(#clip0_1341_148)">
<path d="M2193.82 2235.74C2147.52 2211.6 2129.46 2154.52 2153.59 2108.22L2646.98 1160.4C2671.11 1114.1 2728.19 1096.05 2774.49 1120.18C2820.79 1144.31 2838.85 1201.4 2814.72 1247.7L2321.33 2195.51C2297.2 2241.81 2240.12 2259.87 2193.82 2235.74ZM2067.16 1855.33C2113.03 1831.45 2130.91 1774.88 2106.95 1729.01L1810.58 1159.72C1786.7 1113.85 1730.13 1095.96 1684.26 1119.92C1638.39 1143.8 1620.59 1200.37 1644.46 1246.24L1940.84 1815.53C1964.71 1861.4 2021.28 1879.29 2067.16 1855.33ZM1784.05 2111.04L1754.87 2053.96L1316.26 1195.32C1288.19 1140.46 1231.79 1105.89 1170.17 1105.89H1152.11C1090.49 1105.89 1034.01 1140.46 1006.02 1195.32L567.411 2053.96L538.227 2111.04C506.048 2174.03 551.835 2248.83 622.526 2248.83H628.688C664.29 2248.83 696.811 2228.89 712.986 2197.22L786.159 2053.96L1076.71 1485.01C1111.89 1416.21 1210.22 1416.21 1245.39 1485.01L1465.68 1916.17C1497.86 1979.16 1452.08 2053.96 1381.38 2053.96H1053.86C1001.57 2053.96 959.207 2096.32 959.207 2148.61V2154.09C959.207 2206.38 1001.57 2248.75 1053.86 2248.75H1699.75C1770.53 2248.75 1816.23 2173.95 1784.05 2110.96V2111.04ZM3207.2 1678.34C3207.11 1720.28 3205.57 1762.21 3202.32 1803.98C3200.69 1824.6 3198.72 1845.23 3196.33 1865.85C3195.82 1870.39 3195.22 1874.92 3194.7 1879.55C3192.14 1901.45 3196.07 1870.22 3194.19 1883.48C3192.56 1894.78 3190.94 1906.08 3189.05 1917.29C3175.87 1998.33 3156.45 2078.44 3131.03 2156.49C3118.62 2194.49 3104.5 2231.89 3089.61 2268.94C3088.58 2271.42 3084.04 2282.21 3089.44 2269.46C3087.72 2273.48 3085.93 2277.59 3084.22 2281.61C3080.28 2290.68 3076.17 2299.75 3072.06 2308.82C3063.33 2327.82 3054.26 2346.65 3044.76 2365.31C3009.07 2435.66 2968.17 2503.26 2922.55 2567.54C2911.17 2583.54 2899.53 2599.37 2887.55 2614.95C2896.36 2603.48 2882.07 2621.88 2879.07 2625.56C2872.31 2634.03 2865.38 2642.51 2858.45 2650.89C2833.37 2681.02 2807.19 2710.2 2779.97 2738.44C2751.98 2767.46 2722.97 2795.35 2692.93 2822.23C2679.15 2834.55 2665.12 2846.62 2650.83 2858.51C2643.3 2864.76 2635.68 2871.01 2628.06 2877.17C2624.64 2879.91 2621.22 2882.56 2617.79 2885.3C2615.22 2887.36 2612.66 2889.32 2610.09 2891.38C2615.74 2887.01 2616.51 2886.5 2612.23 2889.67C2548.64 2938.02 2481.72 2981.75 2411.8 3020.18C2377.13 3039.26 2341.7 3057.06 2305.67 3073.5C2297.63 3077.18 2289.58 3080.77 2281.45 3084.28C2277.43 3086.08 2273.32 3087.79 2269.3 3089.5C2282.74 3083.77 2269.13 3089.5 2265.71 3090.95C2246.19 3098.83 2226.6 3106.53 2206.83 3113.72C2131.09 3141.28 2053.12 3163.1 1974.04 3178.93C1954.02 3182.95 1933.9 3186.55 1913.71 3189.8C1904.72 3191.26 1895.65 3192.54 1886.66 3193.91C1871.86 3196.05 1883.15 3194.42 1886.15 3193.99C1879.3 3194.85 1872.54 3195.71 1865.69 3196.48C1824.36 3201.27 1782.85 3204.52 1741.34 3206.06C1656.53 3209.31 1571.55 3206.06 1487.25 3196.05C1481.6 3195.36 1475.87 3194.68 1470.22 3193.91C1473.3 3194.34 1484.51 3195.96 1469.71 3193.82C1460.72 3192.54 1451.65 3191.17 1442.66 3189.72C1420.24 3186.12 1397.9 3182.1 1375.74 3177.56C1336.03 3169.43 1296.74 3159.85 1257.8 3148.81C1219.21 3137.85 1181.04 3125.36 1143.47 3111.49C1125.75 3104.99 1108.29 3098.06 1090.83 3091.04C1087.49 3089.67 1073.89 3083.94 1087.24 3089.58C1083.22 3087.87 1079.11 3086.08 1075.09 3084.36C1064.99 3079.91 1054.89 3075.46 1044.87 3070.84C973.157 3037.72 903.921 2999.3 837.851 2955.99C804.987 2934.43 772.894 2911.66 741.742 2887.78C753.125 2896.51 741.571 2887.7 738.832 2885.39C734.553 2881.96 730.274 2878.63 726.08 2875.2C719.319 2869.73 712.559 2864.25 705.883 2858.6C689.965 2845.33 674.303 2831.81 658.984 2817.95C600.702 2765.49 546.272 2708.83 496.206 2648.5C489.959 2640.97 483.711 2633.35 477.635 2625.65C475.495 2622.99 460.005 2602.97 469.162 2615.03C455.897 2597.75 442.974 2580.12 430.394 2562.23C407.714 2530.05 386.319 2497.02 366.036 2463.21C345.753 2429.32 326.668 2394.66 308.952 2359.4C300.052 2341.69 291.493 2323.8 283.278 2305.74C279.598 2297.7 276.003 2289.65 272.494 2281.52C270.697 2277.5 268.985 2273.39 267.274 2269.37C273.607 2284.26 265.134 2264.06 264.621 2262.78C234.324 2188.41 209.677 2111.73 191.02 2033.68C181.263 1992.94 173.133 1951.86 166.543 1910.53C164.917 1900.43 163.462 1890.24 162.007 1880.06C164.147 1895.81 160.724 1869.36 160.381 1865.85C157.814 1844.11 155.76 1822.38 154.134 1800.55C147.715 1715.83 147.972 1630.5 154.904 1545.78C156.53 1526.26 158.413 1506.84 160.724 1487.41C161.237 1482.87 161.836 1478.34 162.435 1473.8C164.061 1460.54 159.697 1491.69 162.949 1469.87C164.66 1458.57 166.287 1447.36 168.169 1436.06C174.759 1395.92 182.889 1355.96 192.56 1316.42C211.645 1238.28 237.063 1162.29 267.102 1087.74C272.494 1074.31 268.386 1084.49 267.274 1087.23C269.413 1082.18 271.638 1077.05 273.863 1072C277.886 1062.93 281.908 1053.85 286.102 1044.87C294.403 1026.9 303.047 1009.01 312.033 991.379C329.92 956.205 349.09 921.63 369.545 887.825C390.427 853.25 412.678 819.36 436.128 786.496C446.911 771.434 457.951 756.457 469.162 741.737C460.262 753.376 477.036 731.895 479.689 728.558C486.536 720.085 493.382 711.612 500.4 703.225C551.407 642.206 606.864 585.037 666.258 532.233C680.123 519.909 694.158 507.842 708.365 496.032C715.896 489.785 723.513 483.537 731.215 477.461C734.639 474.722 738.062 472.069 741.485 469.331C758.431 455.809 729.675 477.974 747.048 465.052C778.542 441.517 810.465 418.666 843.499 397.271C909.74 354.223 979.147 316.054 1051.04 283.276C1060.11 279.168 1069.18 275.146 1078.25 271.124C1081.59 269.669 1095.2 263.935 1081.76 269.583C1085.87 267.871 1089.98 266.16 1094 264.534C1112.48 257.003 1131.06 249.814 1149.88 243.053C1188.65 228.932 1227.94 216.351 1267.73 205.311C1306.76 194.442 1346.21 185.114 1386.01 177.24C1404.92 173.475 1423.92 170.137 1443 167.056C1453.1 165.43 1463.29 163.89 1473.47 162.52C1486.74 160.638 1455.5 164.574 1477.41 162.007C1483.14 161.322 1488.79 160.638 1494.44 159.953C1578.74 150.282 1663.81 147.372 1748.62 150.967C1790.13 152.764 1831.55 156.102 1872.88 161.151C1877.42 161.665 1881.96 162.264 1886.49 162.863C1872.28 161.066 1884.27 162.52 1887 162.948C1897.19 164.489 1907.29 165.944 1917.39 167.57C1938.7 170.993 1959.84 174.93 1980.97 179.209C2059.97 195.298 2137.68 217.464 2213.33 245.363C2232.07 252.296 2250.56 259.656 2269.04 267.101C2282.48 272.493 2272.3 268.385 2269.56 267.272C2273.58 268.984 2277.69 270.781 2281.71 272.493C2291.81 276.943 2301.91 281.393 2311.92 286.015C2348.89 303.046 2385.18 321.531 2420.7 341.301C2455.1 360.471 2488.82 380.925 2521.77 402.663C2537.26 412.847 2552.58 423.373 2567.73 434.071C2575.77 439.719 2583.73 445.539 2591.6 451.359C2595.97 454.611 2600.33 457.863 2604.7 461.115C2607.35 463.083 2622.58 474.894 2610.35 465.308C2672.22 513.491 2730.5 566.209 2784.76 622.864C2811.89 651.192 2837.91 680.546 2862.9 710.757C2868.46 717.518 2873.94 724.279 2879.42 731.039C2882.84 735.319 2886.18 739.598 2889.52 743.877C2897.39 753.89 2879.25 730.012 2891.83 746.872C2903.64 762.619 2915.28 778.366 2926.57 794.456C2971.93 858.984 3012.58 926.765 3047.93 997.284C3056.83 1015 3065.39 1032.89 3073.6 1050.94C3077.28 1058.99 3080.88 1067.03 3084.39 1075.16C3084.13 1074.65 3092.69 1094.59 3088.41 1084.49C3085.07 1076.62 3092.69 1094.93 3093.54 1096.99C3108.52 1134.04 3122.13 1171.7 3134.28 1209.78C3159.27 1288.09 3178.18 1368.37 3190.85 1449.58C3192.22 1458.57 3193.59 1467.64 3194.79 1476.63C3192.65 1461.39 3196.33 1489.81 3196.84 1494.26C3199.07 1513.68 3200.95 1533.2 3202.4 1552.71C3205.66 1594.56 3207.2 1636.41 3207.28 1678.34C3207.28 1717.45 3241.6 1754.94 3282.08 1753.14C3322.56 1751.34 3356.97 1720.28 3356.88 1678.34C3356.11 1332.94 3249.3 989.667 3048.01 708.36C2849.63 431.161 2573.03 219.09 2253.04 101.158C1924.15 -20.1109 1555.03 -32.1779 1218.26 63.8448C894.849 156.016 600.018 347.805 386.319 607.631C165.26 876.443 31.7511 1205.59 4.87825 1552.71C-21.909 1898.29 62.2184 2250.88 242.112 2547.17C415.845 2833.27 676.272 3067.5 981.629 3205.38C1305.82 3351.72 1668.6 3392.89 2017.43 3322.45C2348.46 3255.61 2657.25 3083.42 2890.46 2839.6C3123.67 2595.78 3284.14 2278.87 3335.66 1943.65C3349.18 1855.75 3356.8 1767.43 3356.97 1678.51C3356.97 1639.4 3322.48 1601.92 3282.17 1603.72C3241.6 1605.51 3207.45 1636.58 3207.37 1678.51L3207.2 1678.34Z" fill="url(#paint0_linear_1341_148)"/>
<path d="M5017.69 2532.28L4884.95 2196.8H4223.57L4098.02 2532.28H3649.06L4365.9 823.381H4766.59L5476.24 2532.28H5017.61H5017.69ZM4559.06 1279.53L4341.85 1866.02H4771.47L4559.06 1279.53ZM6393.43 2532.28H5980.66L5333.75 823.381H5797.18L6192.99 2035.05H6202.67L6596.09 823.381H7052.24L6393.26 2532.28H6393.43ZM7291.44 2532.28V823.381H7706.6V2532.28H7291.44ZM8059.03 2532.28V823.381H9207.97V1173.41H8457.33V1494.43H9166.98V1825.11H8457.33V2179.94H9251.45V2532.36H8059.03V2532.28ZM11334.4 2532.28H10926.6L10588.7 1376.07H10581.4L10243.4 2532.28H9833.07L9347.9 823.381H9791.99L10062.3 1960.25H10069.6L10373.8 823.381H10803.4L11110 1960.25H11117.2L11392.4 823.381H11822L11334.4 2532.28Z" fill="url(#paint1_linear_1341_148)"/>
<path d="M9835.1 2667.1H10021.5C10109.1 2667.1 10204.4 2685.5 10204.4 2794.13C10204.4 2849.91 10169.9 2887.98 10118.3 2904.23V2905.6C10184 2914.11 10227.7 2962.75 10227.7 3027.74C10227.7 3132.26 10128.8 3166.8 10039.8 3166.8H9835V2667L9835.1 2667.1ZM9945.25 2866.84H10025C10058.9 2866.84 10094.3 2852.75 10094.3 2812.53C10094.3 2772.3 10054.7 2760.27 10020.2 2760.27H9945.25V2866.84ZM9945.25 3073.73H10044.1C10078.7 3073.73 10117.6 3058.96 10117.6 3015.11C10117.6 2967.84 10064.6 2960.01 10028.6 2960.01H9945.25V3073.64V3073.73ZM10296.9 2667.1H10636.6V2768.78H10407.1V2861.95H10623.9V2963.63H10407.1V3065.32H10649.3V3167H10296.9V2667.2V2667.1ZM10834.3 2764.57H10691.6V2667.2H11087.1V2764.57H10944.4V3166.9H10834.3V2764.57ZM11242.5 2667.1H11333.5L11551 3166.9H11426.7L11383.7 3061.01H11189.5L11147.8 3166.9H11026.3L11242.4 2667.1H11242.5ZM11284.9 2812.53L11224.2 2967.84H11346.4L11284.9 2812.53Z" fill="url(#paint2_linear_1341_148)"/>
</g>
<defs>
<linearGradient id="paint0_linear_1341_148" x1="5.41892e-05" y1="1678" x2="3356.97" y2="1678" gradientUnits="userSpaceOnUse">
<stop stop-color="#FC00FF"/>
<stop offset="1" stop-color="#00FFFF"/>
</linearGradient>
<linearGradient id="paint1_linear_1341_148" x1="3649.06" y1="1677.91" x2="11822" y2="1677.91" gradientUnits="userSpaceOnUse">
<stop stop-color="#FC00FF"/>
<stop offset="1" stop-color="#00FFFF"/>
</linearGradient>
<linearGradient id="paint2_linear_1341_148" x1="9835" y1="2818.52" x2="10334.7" y2="3387.38" gradientUnits="userSpaceOnUse">
<stop stop-color="#EC11FF"/>
<stop offset="1" stop-color="#1BE4FF"/>
</linearGradient>
<clipPath id="clip0_1341_148">
<rect width="11822" height="3356" fill="white"/>
</clipPath>
</defs>
</svg>
