<svg width="100" height="100" viewBox="0 0 100 100" fill="none" xmlns="http://www.w3.org/2000/svg">
<path d="M65.355 66.6223C63.9748 65.9027 63.4381 64.2009 64.1576 62.8226L78.8554 34.5813C79.5748 33.2007 81.2762 32.6639 82.6541 33.3835C84.0344 34.1031 84.571 35.8049 83.8516 37.1832L69.1537 65.4245C68.4366 66.8051 66.7353 67.3396 65.355 66.6223ZM61.5821 55.2864C62.9484 54.5738 63.4803 52.8884 62.7679 51.5218L53.9403 34.5579C53.2279 33.1913 51.543 32.6592 50.1768 33.3718C48.8106 34.0844 48.2786 35.7698 48.991 37.1363L57.8186 54.1003C58.531 55.4669 60.2136 55.9967 61.5821 55.2864ZM53.1482 62.9046L52.2788 61.2052L39.212 35.6197C38.3777 33.9836 36.6951 32.9545 34.8603 32.9545H34.3236C32.4887 32.9545 30.8062 33.9836 29.9719 35.6197L16.9051 61.2052L16.0357 62.9046C15.0772 64.7822 16.4411 67.0091 18.5478 67.0091H18.7329C19.7921 67.0091 20.7623 66.416 21.2451 65.4714L23.4244 61.2028L32.081 44.2506C33.1285 42.1995 36.0577 42.1995 37.1052 44.2506L43.6668 57.0984C44.6252 58.976 43.2614 61.2028 41.1547 61.2028H31.3967C29.8383 61.2028 28.5752 62.4663 28.5752 64.0251V64.1868C28.5752 65.7456 29.8383 67.0091 31.3967 67.0091H50.6361C52.7452 67.0114 54.109 64.7822 53.1482 62.9046ZM95.5428 50.0099C95.5405 51.2593 95.496 52.5087 95.3975 53.7534C95.3507 54.3699 95.2898 54.984 95.2194 55.5958C95.203 55.7318 95.1866 55.8677 95.1702 56.0037C95.0929 56.6577 95.2124 55.7248 95.1562 56.1209C95.1093 56.4561 95.0577 56.7936 95.0038 57.1288C94.6125 59.5456 94.0337 61.9295 93.2744 64.2571C92.9042 65.3893 92.4847 66.5028 92.0394 67.6068C92.009 67.6818 91.8731 68.0006 92.0348 67.6209C91.9832 67.7428 91.9316 67.8623 91.8777 67.9842C91.7606 68.2561 91.6387 68.5257 91.5145 68.7953C91.2544 69.3625 90.9826 69.9227 90.7014 70.4783C89.6398 72.5739 88.4212 74.5898 87.062 76.5049C86.7246 76.9831 86.3754 77.4519 86.0216 77.9183C86.284 77.5761 85.8575 78.1246 85.7685 78.2348C85.5669 78.488 85.3607 78.7411 85.1522 78.9896C84.4046 79.8873 83.6243 80.757 82.8134 81.5985C81.9815 82.4635 81.1145 83.2956 80.2193 84.095C79.8068 84.463 79.3897 84.8216 78.9656 85.1756C78.7406 85.3631 78.5156 85.5483 78.286 85.7311C78.1852 85.8131 78.0821 85.8928 77.9813 85.9749C77.904 86.0358 77.829 86.0944 77.7517 86.1554C77.9204 86.0265 77.9415 86.0077 77.8173 86.1038C75.9238 87.5431 73.9296 88.8464 71.8463 89.9926C70.8128 90.5599 69.7583 91.0896 68.685 91.5795C68.446 91.6897 68.2046 91.7952 67.9656 91.9007C67.8461 91.9522 67.7242 92.0062 67.6024 92.0577C68.0031 91.8866 67.5977 92.0601 67.4969 92.0999C66.9157 92.3343 66.3322 92.564 65.7417 92.7797C63.485 93.6025 61.165 94.2518 58.8076 94.7206C58.21 94.8401 57.6124 94.9479 57.0102 95.0441C56.743 95.0862 56.4735 95.1261 56.204 95.1659C55.7635 95.2316 56.0986 95.18 56.19 95.1683C55.9861 95.1941 55.7846 95.2199 55.5807 95.2433C54.3504 95.3863 53.1131 95.4824 51.8758 95.5293C49.3496 95.6277 46.8163 95.5293 44.3065 95.2292C44.1378 95.2082 43.9667 95.187 43.798 95.1659C43.8894 95.1777 44.2245 95.2269 43.784 95.1636C43.5145 95.1238 43.2473 95.0839 42.9778 95.0417C42.31 94.9339 41.6444 94.8143 40.9836 94.6784C39.8025 94.4369 38.6285 94.151 37.4685 93.8205C36.3202 93.4923 35.1837 93.1219 34.0612 92.7094C33.5339 92.5148 33.0137 92.3085 32.4934 92.0999C32.3926 92.0601 31.9872 91.8866 32.388 92.0577C32.2661 92.0062 32.1466 91.9546 32.0247 91.9007C31.7224 91.7694 31.4248 91.6334 31.1249 91.4975C28.9877 90.5106 26.9255 89.3667 24.957 88.0752C23.9775 87.4329 23.0237 86.7555 22.0934 86.0429C22.4332 86.3031 22.0887 86.0382 22.0067 85.9725C21.8801 85.8717 21.7512 85.7709 21.6247 85.6678C21.4232 85.5037 21.2216 85.3396 21.0224 85.1732C20.5491 84.7794 20.0827 84.3739 19.6234 83.9613C17.8869 82.3978 16.2653 80.7101 14.7749 78.9099C14.5874 78.6849 14.4046 78.4575 14.2219 78.2301C14.1586 78.1527 13.6946 77.555 13.9688 77.9137C13.5727 77.398 13.1884 76.8729 12.8158 76.3408C12.1409 75.3821 11.5012 74.3976 10.8989 73.392C10.2943 72.3817 9.72719 71.3503 9.19993 70.2978C8.93512 69.7704 8.67969 69.2383 8.43363 68.6992C8.32349 68.4601 8.21804 68.2186 8.11259 67.9795C8.06103 67.86 8.00713 67.7381 7.95558 67.6162C8.14539 68.0615 7.8923 67.4591 7.8759 67.4193C6.97369 65.2041 6.24021 62.9187 5.68247 60.5934C5.39189 59.3792 5.14817 58.1555 4.95367 56.9226C4.9068 56.6202 4.85994 56.3178 4.8201 56.0154C4.88572 56.4842 4.7826 55.6966 4.77088 55.5935C4.69589 54.9465 4.63263 54.2972 4.58341 53.6479C4.3936 51.1234 4.40063 48.5801 4.60685 46.0578C4.65372 45.4765 4.7123 44.8975 4.78026 44.3186C4.79666 44.1826 4.81307 44.0466 4.82947 43.913C4.87868 43.5169 4.7498 44.4451 4.84587 43.7958C4.89509 43.4606 4.9443 43.1231 5.00054 42.7879C5.19739 41.5901 5.4411 40.4016 5.727 39.2226C6.2941 36.8949 7.05336 34.6282 7.94855 32.4084C8.11024 32.0075 7.98839 32.3123 7.95324 32.3943C8.01885 32.2419 8.08212 32.0919 8.15008 31.9419C8.2696 31.67 8.38911 31.4004 8.51331 31.1332C8.76171 30.5964 9.01714 30.0666 9.28429 29.5392C9.81625 28.4891 10.388 27.46 10.9973 26.4521C11.6207 25.4207 12.2815 24.4128 12.9822 23.4306C13.3032 22.9805 13.6313 22.5352 13.9664 22.0968C13.6993 22.4438 14.2008 21.8015 14.2804 21.7054C14.4843 21.4522 14.6882 21.2014 14.8968 20.9529C16.4153 19.1363 18.0674 17.4322 19.839 15.8569C20.2514 15.4913 20.6709 15.1303 21.0951 14.7787C21.32 14.5911 21.5473 14.4083 21.7747 14.2255C21.8754 14.1434 21.9785 14.0637 22.0793 13.984C22.5831 13.5809 21.7278 14.2419 22.2457 13.8551C23.1831 13.1519 24.1345 12.4721 25.1187 11.8345C27.0919 10.5523 29.1611 9.41546 31.303 8.43799C31.5725 8.31609 31.8419 8.19655 32.1138 8.077C32.2122 8.03246 32.6176 7.86369 32.2169 8.03011C32.3387 7.97854 32.4606 7.92932 32.5825 7.8801C33.1332 7.65507 33.6886 7.44175 34.2463 7.23782C35.4016 6.81823 36.5733 6.44319 37.7567 6.11267C38.919 5.78919 40.0954 5.51025 41.2789 5.27584C41.8436 5.16333 42.4084 5.06254 42.9755 4.97346C43.2778 4.92424 43.5801 4.8797 43.8824 4.8375C44.2784 4.78124 43.3457 4.89845 43.9996 4.82344C44.1683 4.80469 44.3393 4.78124 44.5081 4.76249C47.0202 4.47417 49.5534 4.38744 52.0796 4.49527C53.3169 4.54918 54.5519 4.64998 55.7799 4.79766C55.9158 4.81407 56.0517 4.83047 56.1853 4.84923C55.7611 4.79531 56.1173 4.83985 56.1993 4.85157C56.5016 4.8961 56.8039 4.94064 57.1062 4.98986C57.739 5.093 58.3717 5.20787 58.9997 5.33679C61.3525 5.81732 63.6678 6.476 65.9221 7.3058C66.4799 7.51208 67.0306 7.73242 67.5813 7.95276C67.982 8.1145 67.6774 7.99261 67.5953 7.95745C67.7172 8.00902 67.8367 8.06059 67.9586 8.1145C68.2609 8.24577 68.5585 8.38173 68.8584 8.51768C69.9598 9.02634 71.0401 9.57485 72.097 10.1656C73.1234 10.7375 74.1264 11.347 75.106 11.9939C75.5676 12.2987 76.0246 12.6104 76.4769 12.9315C76.7159 13.1003 76.9526 13.2714 77.1869 13.4472C77.3181 13.5434 77.447 13.6418 77.5783 13.7379C77.6556 13.7965 78.1102 14.1481 77.747 13.8645C79.5889 15.3014 81.3277 16.8719 82.9423 18.5596C83.7485 19.4035 84.5265 20.2778 85.2693 21.178C85.4357 21.3772 85.5974 21.5788 85.7614 21.7827C85.8622 21.9093 85.963 22.0382 86.0637 22.1648C86.2981 22.4649 85.7568 21.7523 86.1317 22.2539C86.4832 22.7227 86.83 23.1915 87.1675 23.672C88.5196 25.5942 89.7288 27.6148 90.7834 29.715C91.0482 30.2425 91.3036 30.7746 91.5497 31.3137C91.6598 31.5528 91.7653 31.7942 91.8707 32.0333C91.8637 32.0169 92.1168 32.6123 91.9926 32.3123C91.8941 32.0778 92.1191 32.624 92.1449 32.685C92.5925 33.789 92.9979 34.9095 93.3588 36.0464C94.104 38.381 94.6687 40.772 95.0437 43.191C95.0859 43.4606 95.1257 43.7278 95.1632 43.9974C95.0999 43.5427 95.2101 44.3912 95.2241 44.5225C95.2897 45.1015 95.346 45.6828 95.3905 46.2641C95.496 47.5135 95.5405 48.7605 95.5428 50.0099C95.5452 51.1749 96.5646 52.293 97.7714 52.2391C98.9759 52.1852 100.002 51.2593 100 50.0099C99.9789 39.7195 96.7966 29.4877 90.7998 21.1076C84.8897 12.8472 76.6503 6.52757 67.1173 3.01382C57.3218 -0.598378 46.3266 -0.957018 36.2921 1.90274C26.6583 4.64764 17.8752 10.3648 11.5082 18.1072C4.92321 26.1169 0.946443 35.9245 0.144997 46.2688C-0.651762 56.5639 1.85334 67.0724 7.21037 75.9001C12.3846 84.4255 20.1437 91.4037 29.2408 95.5129C38.898 99.8728 49.7058 101.099 60.0964 99.0008C69.9575 97.0107 79.1554 91.8796 86.1036 84.613C93.0776 77.3183 97.8323 67.9045 99.3649 57.9141C99.7657 55.2958 99.9953 52.6634 100 50.0123C100.002 48.8473 98.9736 47.7315 97.7714 47.7831C96.5622 47.837 95.5475 48.7605 95.5428 50.0099Z" fill="url(#paint0_linear_3991_4352)"/>
<defs>
<linearGradient id="paint0_linear_3991_4352" x1="-0.000294212" y1="49.9982" x2="99.9987" y2="49.9982" gradientUnits="userSpaceOnUse">
<stop stop-color="#FC00FF"/>
<stop offset="1" stop-color="#00FFFF"/>
</linearGradient>
</defs>
</svg>
