<svg width="237" height="219" viewBox="0 0 237 219" fill="none" xmlns="http://www.w3.org/2000/svg">
<path d="M45.0322 169.279L45.2774 169.206L45.3284 169.617L46.4063 169.381L47.5456 169.42L48.3778 169.464L49.321 168.449L50.3483 167.481L51.2188 166.546L51.4812 167.063L51.6684 168.258L50.9643 168.264L50.8518 169.243L51.0955 169.451L50.4721 169.746L50.4682 170.356L50.0668 170.971L50.0309 171.569L49.7534 171.882L45.6129 171.135L45.0848 169.625L45.0322 169.279Z" fill="#000017" stroke="url(#paint0_linear_675_780)" stroke-opacity="0.5"/>
<path d="M58.3043 151.165L59.7106 151.804L60.751 151.58L61.0388 150.814L62.1274 150.558L62.9046 150.041L63.1801 148.67L64.3424 148.337L64.5589 147.721L65.2097 148.184L65.6253 148.237L66.3932 148.249L67.4336 148.613L67.8551 148.823L68.8532 148.269L69.3185 148.602L69.7632 147.811L70.5876 147.847L70.7997 147.592L70.9458 146.889L71.5395 146.28L72.2862 146.679L72.1362 147.212L72.5533 147.295L72.4249 148.75L72.9704 149.312L73.4515 148.952L74.0635 148.781L74.9228 148.008L75.8727 148.135L77.2953 148.138L77.5407 148.634L76.738 148.827L76.037 149.144L74.454 149.343L72.9729 149.703L72.1681 150.445L72.4938 151.164L72.6517 152.002L71.9645 152.706L72.022 153.347L71.6428 153.944L70.3309 153.892L70.873 154.984L69.9954 155.399L69.4095 156.386L69.4853 157.36L68.9466 157.815L68.4365 157.664L67.3824 157.875L67.2314 158.324L66.2043 158.322L65.4359 159.229L65.3872 160.582L63.5952 161.239L62.6345 161.1L62.3551 161.446L61.5307 161.245L60.1514 161.481L57.8404 160.675L59.0913 159.233L58.9782 158.202L57.9334 157.93L57.8252 156.904L57.3736 155.603L57.9639 154.704L57.3633 154.461L57.7421 153.255L58.3043 151.165Z" fill="#000017" stroke="url(#paint1_linear_675_780)" stroke-opacity="0.5"/>
<path d="M34 141.611L35.9185 141.327L36.2046 141.805L36.7305 142.119L36.4528 142.572L37.188 143.189L36.799 143.759L37.385 144.244L38.005 144.535L38.0355 145.759L37.5357 145.811L36.9718 144.791L36.9782 144.518L36.3681 144.521L35.9594 144.044L35.6723 144.093L35.1282 143.571L34.1014 143.126L34.2344 142.249L34 141.611Z" fill="#000017" stroke="url(#paint2_linear_675_780)" stroke-opacity="0.5"/>
<path d="M35.9456 144.064L36.3539 144.543L36.9626 144.539L36.9562 144.814L37.5187 145.838L36.574 145.603L35.8778 144.785L35.6592 144.112L35.9456 144.064ZM39.2122 141.388L39.8219 141.512L40.0582 141.047L40.8806 140.305L41.6048 141.273L42.3054 142.565L42.9475 142.65L43.3714 143.136L42.2366 143.281L41.9973 144.671L41.7605 145.294L41.2555 145.707L41.2923 146.578L40.9494 146.666L40.0901 145.745L40.5652 144.869L40.1579 144.346L39.6416 144.478L38.0169 145.786L37.9864 144.557L37.3679 144.265L36.7833 143.778L37.1719 143.206L36.4379 142.586L36.715 142.131L36.1903 141.816L35.9048 141.336L36.2423 141.037L37.2686 141.563L38.011 141.671L38.1987 141.457L37.5202 140.464L37.8778 140.209L38.265 140.271L39.2122 141.388Z" fill="#000017" stroke="url(#paint3_linear_675_780)" stroke-opacity="0.5"/>
<path d="M101.661 172.527L101.633 173.586L101.152 173.363L101.242 174.546L100.848 173.78L100.769 173.03L100.506 172.317L99.9308 171.453L98.6614 171.393L98.7867 172.006L98.3543 172.83L97.768 172.53L97.568 172.799L97.1778 172.638L96.6446 172.506L96.4298 171.282L95.9527 170.159L96.1866 169.254L95.3389 168.851L95.6445 168.3L96.506 167.735L95.5114 166.93L95.9979 165.893L97.0894 166.554L97.7474 166.629L97.8688 167.688L99.1799 167.896L100.458 167.873L101.252 168.132L100.617 169.409L100.001 169.497L99.5755 170.35L100.33 171.124L100.555 170.169L100.935 170.164L101.661 172.527Z" fill="#000017" stroke="url(#paint4_linear_675_780)" stroke-opacity="0.5"/>
<path d="M131.346 197.307L131.901 196.794L133.094 196.043L133.031 196.718L132.949 197.593L132.279 197.55L131.984 198.016L131.346 197.307Z" fill="#000017" stroke="url(#paint5_linear_675_780)" stroke-opacity="0.5"/>
<path d="M100.341 163.888L100.902 164.378L100.805 165.318L99.682 165.363L98.5193 165.261L97.6541 165.499L96.4025 164.92L96.373 164.613L97.2839 163.47L98.0278 163.078L99.0113 163.436L99.7385 163.474L100.341 163.888Z" fill="#000017" stroke="url(#paint6_linear_675_780)" stroke-opacity="0.5"/>
<path d="M126.043 177.449L124.851 178.143L123.72 177.696L123.68 176.45L124.36 175.791L125.867 175.382L126.66 175.417L126.968 175.973L126.362 176.613L126.043 177.449ZM149.927 124.596L152.328 125.274L153.961 126.766L154.519 128.705L156.615 128.707L157.811 127.898L160.09 127.289L159.365 129.137L158.83 129.881L158.357 132.074L157.429 133.985L155.756 133.64L154.572 134.328L154.935 135.978L154.737 138.216L154.032 138.267L154.041 139.215L153.15 138.112L152.602 139.159L150.472 139.958L150.688 140.929L149.495 140.862L148.841 140.286L147.893 141.585L146.373 142.561L145.25 143.714L143.322 144.234L142.307 145.064L140.821 145.546L141.554 144.727L141.265 144.033L142.358 142.827L141.629 141.878L140.427 142.518L138.87 143.768L138.02 144.919L136.668 145.004L135.964 145.828L136.691 147.012L137.82 147.298L137.867 148.076L138.957 148.58L140.503 147.345L141.728 148.02L142.619 148.066L142.843 148.968L140.891 149.447L140.246 150.367L138.904 151.217L138.197 152.393L139.682 153.309L140.224 154.935L141.063 156.432L141.999 157.675L141.977 158.868L141.111 159.304L141.441 160.152L142.253 160.644L142.041 161.926L141.69 163.164L140.92 163.303L139.913 164.978L138.796 166.987L137.515 168.794L135.619 170.179L133.7 171.434L132.147 171.605L131.303 172.263L130.826 171.782L130.046 172.518L128.119 173.258L126.659 173.483L126.188 175.032L125.424 175.118L125.063 174.055L125.389 173.486L123.539 173.015L122.887 173.255L121.498 172.872L120.842 172.272L121.06 171.417L119.799 171.145L119.134 170.586L117.958 171.38L116.618 171.551L115.518 171.544L114.778 171.906L114.063 172.123L114.271 173.811L113.536 173.77L113.412 173.425L113.37 172.815L112.359 173.245L111.761 172.974L110.737 172.419L111.139 171.187L110.266 170.898L109.937 169.521L108.481 169.77L108.646 167.983L109.952 166.715L110.008 165.454L109.967 164.275L109.365 163.906L108.904 162.992L108.097 163.107L106.61 162.874L107.076 162.219L106.43 161.242L105.446 161.904L104.289 161.518L102.7 162.516L101.444 163.674L100.332 163.868L99.7278 163.45L98.9998 163.413L98.0141 163.053L97.2689 163.447L96.357 164.598L96.2414 163.379L95.4003 163.706L93.7919 163.554L92.2316 163.197L91.1126 162.512L90.0409 162.204L89.578 161.451L88.8033 161.225L87.4108 160.196L86.3051 159.708L85.7335 160.088L83.8172 158.974L82.4621 157.959L82.0755 156.175L83.0651 156.394L83.1104 155.561L82.5619 154.722L82.7016 153.373L81.2191 151.412L78.9511 150.729L78.5429 149.421L77.5242 148.621L77.2787 148.126L77.0717 147.137L77.1199 146.458L76.2822 146.059L75.8292 146.235L75.4795 144.601L75.872 144.194L75.6817 143.776L76.9984 142.927L77.9516 142.574L79.4115 142.816L79.9334 141.659L81.7026 141.443L82.194 140.716L84.3676 139.718L84.5614 139.299L84.4512 138.234L85.3976 137.745L84.1561 134.425L86.8885 133.648L87.5948 133.212L88.5893 129.642L91.3256 130.307L92.0929 129.393L92.1588 127.335L93.3044 127.141L94.3541 125.75L94.8942 125.576L95.2562 127.036L96.415 128.133L98.382 128.902L99.3338 130.533L98.803 132.858L99.2994 133.708L100.938 134.041L102.796 134.312L104.462 135.516L105.314 135.728L105.942 137.482L106.752 138.598L108.272 138.554L111.119 138.973L112.953 138.714L114.314 138.991L116.355 140.118L118.023 140.116L118.634 140.688L120.24 139.698L122.467 139.053L124.534 138.983L126.146 138.325L127.135 137.317L128.101 136.68L127.878 136.05L127.437 135.313L128.161 134.066L128.937 134.242L130.355 134.635L131.729 133.602L133.832 132.842L134.842 131.534L135.813 130.966L137.816 130.7L138.905 130.925L139.056 130.211L137.806 128.792L136.699 128.137L135.639 128.893L134.279 128.575L133.498 128.834L133.143 127.996L134.117 125.917L134.788 124.321L136.444 125.123L138.387 123.777L138.375 122.829L139.62 120.506L140.387 119.793L140.37 118.553L139.613 118.015L140.752 116.878L142.465 116.463L144.294 116.4L146.358 117.086L147.569 117.927L148.422 120.193L148.939 121.145L149.419 122.488L149.927 124.596Z" fill="#000017" stroke="url(#paint7_linear_675_780)" stroke-opacity="0.5"/>
<path d="M31.1879 140.802L31.3939 140.016L31.0484 138.75L30.2498 138.061L29.4838 137.845L28.9775 137.267L29.1461 137.044L30.3144 137.367L32.3493 137.672L34.2308 138.572L34.4734 138.919L35.3114 138.626L36.6004 139.016L37.0239 139.777L37.8925 140.205L37.5336 140.458L38.2143 141.449L38.026 141.662L37.2807 141.554L36.2509 141.03L35.9123 141.328L33.9918 141.612L32.6603 140.715L31.1879 140.802Z" fill="#000017" stroke="url(#paint8_linear_675_780)" stroke-opacity="0.5"/>
<path d="M140.359 217.624L139.779 217.65L137.948 216.676L139.234 216.403L139.959 216.826L140.441 217.248L140.359 217.624ZM145.49 217.485L144.31 217.792L144.144 217.624L144.268 217.151L144.862 216.303L146.225 215.752L146.364 216.026L146.39 216.447L145.49 217.485ZM136.475 214.648L136.973 215.017L137.825 214.904L138.167 215.493L136.572 215.771L135.617 215.957L134.876 215.946L135.349 215.148L136.106 215.137L136.475 214.648ZM143.377 214.646L143.174 215.416L141.102 215.809L139.268 215.638L139.263 215.131L140.359 214.843L141.223 215.259L142.141 215.153L143.377 214.646ZM123.681 212.827L126.323 212.964L126.627 212.396L129.185 213.059L129.688 213.955L131.757 214.207L133.448 215.029L131.875 215.557L130.358 214.999L129.11 215.037L127.679 214.935L126.388 214.686L124.79 214.158L123.777 214.021L123.204 214.194L120.688 213.625L120.449 213.031L119.188 212.93L120.134 211.612L121.807 211.694L122.921 212.233L123.492 212.338L123.681 212.827ZM159.681 212.05L158.972 212.989L158.837 211.951L159.082 211.456L159.371 210.991L159.685 211.394L159.681 212.05ZM149.371 208.261L148.854 208.716L147.901 208.464L147.632 207.874L149.027 207.808L149.371 208.261ZM153.815 207.76L154.316 208.809L153.152 208.244L151.999 208.129L151.221 208.22L150.267 208.171L150.594 207.417L152.297 207.36L153.815 207.76ZM158.879 205.097L159.264 207.314L160.691 208.135L161.845 206.68L163.427 205.852L164.653 205.851L165.832 206.33L166.856 206.82L168.336 207.082L168.359 211.56L168.383 216.065L167.155 214.927L165.754 214.649L165.414 215.043L163.667 215.086L164.252 213.959L165.121 213.576L164.761 212.075L164.099 210.919L161.425 209.754L160.287 209.64L158.216 208.371L157.809 209.038L157.28 209.159L156.966 208.655L156.962 208.059L155.908 207.385L157.394 206.891L158.378 206.917L158.262 206.553L156.243 206.551L155.697 205.735L154.465 205.482L153.881 204.804L155.74 204.472L156.447 204.025L158.661 204.588L158.879 205.097ZM146.6 201.574L145.492 202.933L144.455 203.196L143.128 202.929L140.829 202.997L139.625 203.195L139.429 204.232L140.664 205.45L141.408 204.829L143.981 204.363L143.867 204.994L143.266 204.795L142.667 205.598L141.453 206.129L142.758 207.887L142.506 208.358L143.746 209.943L143.734 210.847L142.998 211.251L142.457 210.767L143.123 209.641L141.769 210.174L141.427 209.793L141.605 209.263L140.611 208.457L140.713 207.12L139.793 207.537L139.91 209.138L139.966 211.105L139.091 211.305L138.499 210.901L138.895 209.635L138.681 208.31L138.101 208.299L137.672 207.359L138.242 206.461L138.439 205.373L139.132 203.307L139.421 202.742L140.594 201.725L141.671 202.129L143.41 202.32L144.996 202.262L146.359 201.267L146.6 201.574ZM151.355 201.967L151.284 203.165L150.572 203.031L150.362 203.865L150.93 204.588L150.544 204.752L149.987 203.884L149.578 202.132L149.855 201.037L150.313 200.539L150.412 201.287L151.226 201.407L151.355 201.967ZM136.442 201.014L137.989 202.282L136.354 202.444L135.894 203.378L135.954 204.62L134.628 205.557L134.591 206.922L134.06 209.02L133.857 208.532L132.289 209.15L131.743 208.31L130.76 208.232L130.072 207.793L128.433 208.286L127.929 207.622L127.026 207.698L125.889 207.539L125.678 205.7L124.99 205.32L124.328 204.147L124.135 202.949L124.296 201.679L125.115 200.768L125.346 201.684L126.289 202.458L127.179 202.18L128.059 202.279L128.863 201.585L129.525 201.465L130.829 201.85L131.954 201.557L132.662 199.651L133.192 199.173L133.671 197.612L135.257 197.612L136.452 197.844L135.667 199.084L136.682 200.383L136.442 201.014ZM119.811 211.551L118.284 211.58L117.123 210.429L115.351 209.306L114.761 208.474L113.717 207.357L113.032 206.329L111.983 204.411L110.771 203.269L110.366 202.091L109.858 201.021L108.614 200.157L107.893 198.984L106.855 198.215L105.416 196.701L105.295 196L106.183 196.056L108.318 196.322L109.538 197.666L110.605 198.597L111.365 199.169L112.672 200.643L114.074 200.664L115.233 201.603L116.031 202.751L117.081 203.377L116.529 204.495L117.319 204.971L117.814 205.006L118.048 205.962L118.529 206.727L119.542 206.848L120.213 207.716L119.866 209.424L119.811 211.551Z" fill="#000017" stroke="url(#paint9_linear_675_780)" stroke-opacity="0.5"/>
<path d="M23.1659 156.024L22.9225 156.539L22.4162 156.313L22.1239 157.397L22.475 157.58L22.1179 157.803L22.0576 158.228L22.715 158.009L22.7479 158.636L22.0511 161.188L21.1318 158.444L21.5388 157.912L21.4436 157.82L21.8131 157.062L22.097 155.83L22.297 155.414L22.3354 155.397L22.8037 155.4L22.9324 155.112L23.3075 155.09L23.3289 155.763L23.1394 156.013L23.1659 156.024Z" fill="#000017" stroke="url(#paint10_linear_675_780)" stroke-opacity="0.5"/>
<path d="M81.2235 151.417L82.7061 153.379L82.5664 154.728L83.1149 155.568L83.0696 156.401L82.0799 156.182L82.4666 157.968L83.8218 158.983L85.7388 160.097L84.8631 160.816L84.328 162.287L85.664 162.878L86.9646 163.641L88.7635 164.511L90.654 164.71L91.4494 165.494L92.5154 165.639L94.1746 165.997L95.3233 165.971L95.4812 165.364L95.2996 164.385L95.4064 163.718L96.2476 163.391L96.3632 164.611L96.3927 164.92L97.6466 165.504L98.5133 165.264L99.6782 165.367L100.803 165.321L100.9 164.374L100.338 163.88L101.451 163.686L102.706 162.527L104.296 161.529L105.453 161.915L106.437 161.253L107.083 162.229L106.617 162.886L108.105 163.119L108.208 163.708L107.725 163.993L107.839 164.943L106.853 164.665L105.067 165.728L105.109 166.603L104.348 167.879L104.278 168.615L103.663 169.856L102.585 169.513L102.531 171.062L102.22 171.569L102.366 172.199L101.685 172.55L100.959 170.19L100.578 170.195L100.353 171.149L99.5975 170.376L100.023 169.523L100.64 169.436L101.276 168.16L100.481 167.901L99.2015 167.924L97.8891 167.716L97.7676 166.658L97.1089 166.583L96.0164 165.923L95.5294 166.959L96.525 167.763L95.6627 168.327L95.3567 168.878L96.2052 169.28L95.9711 170.185L96.4487 171.307L96.6637 172.529L96.466 173.068L95.5274 173.05L93.8273 173.356L93.9065 174.461L93.1701 175.327L91.1853 176.308L89.6416 178.012L88.6047 178.921L87.2302 179.862L87.2283 180.52L86.5411 180.872L85.2985 181.383L84.6541 181.459L84.2409 182.543L84.5277 184.384L84.601 185.553L84.0166 186.887L84.0102 189.26L83.2964 189.327L82.6687 190.388L83.0883 190.846L81.8305 191.239L81.3661 192.181L80.8127 192.579L79.5072 191.286L78.8687 189.34L78.3394 187.933L77.8558 187.271L77.1234 185.924L76.781 184.163L76.5424 183.279L75.288 181.328L74.7169 178.551L74.3042 176.701L74.3091 174.935L74.0415 173.561L72.0345 174.441L71.0624 174.265L69.2606 172.479L69.9237 171.944L69.5163 171.36L67.8984 170.094L68.8168 169.092L71.852 169.096L71.5785 167.799L70.8032 167.029L70.6463 165.853L69.7436 165.163L71.2636 163.543L72.8653 163.661L74.3081 162.025L75.1724 160.426L76.5119 158.828L76.4902 157.683L77.6669 156.747L76.5532 155.943L76.0741 154.835L75.5856 153.386L76.2615 152.667L78.3541 153.074L79.8913 152.827L81.2235 151.417Z" fill="#000017" stroke="url(#paint11_linear_675_780)" stroke-opacity="0.5"/>
<path d="M36.5191 150.598L37.4246 151.107L37.5291 152.092L36.8343 152.67L36.5142 153.968L37.4704 155.534L39.1619 156.429L39.8724 157.661L39.6464 158.826L40.0871 158.825L40.1009 159.676L40.8646 160.512L40.0458 160.434L39.1176 160.302L38.1047 161.818L35.5377 161.692L31.6447 158.497L29.5875 157.369L27.9246 156.93L27.3682 154.941L30.4246 153.219L30.9465 151.19L30.816 149.95L31.5719 149.528L32.2795 148.455L32.8723 148.187L34.4781 148.409L34.9631 148.849L35.6249 148.558L36.5191 150.598Z" fill="#000017" stroke="url(#paint12_linear_675_780)" stroke-opacity="0.5"/>
<path d="M48.2555 148.507L49.4679 148.173L50.4491 147.182L51.3717 147.232L51.9775 146.907L52.9587 147.068L54.4845 147.949L55.5863 148.137L57.1629 149.659L58.1913 149.721L58.3123 151.149L57.7499 153.238L57.371 154.443L57.9718 154.686L57.3813 155.584L57.8331 156.885L57.9413 157.91L58.9865 158.181L59.0996 159.212L57.8483 160.652L58.5308 161.481L59.0863 162.428L60.4056 163.115L60.4435 164.48L61.1038 164.73L61.2175 165.439L59.2276 166.23L58.7079 167.998L56.1123 167.54L54.6081 167.191L53.0512 166.993L52.4621 165.117L51.8018 164.844L50.7419 165.119L49.3503 165.862L47.664 165.353L46.2715 164.168L44.9434 163.727L44.0217 162.248L43.0037 160.147L42.2611 160.405L41.3843 159.879L40.8691 160.498L40.1059 159.664L40.0921 158.813L39.6517 158.814L39.8776 157.651L39.1675 156.42L37.4773 155.525L36.5217 153.961L36.8415 152.664L37.5358 152.087L37.4315 151.103L36.5266 150.595L35.633 148.556L34.8782 147.169L35.1483 146.628L34.7178 144.606L35.6625 144.099L35.881 144.77L36.5783 145.586L37.5245 145.821L38.024 145.769L39.6512 144.463L40.1684 144.332L40.5763 144.853L40.1005 145.728L40.9611 146.647L41.3041 146.56L41.7405 147.844L43.0489 148.204L44.0075 149.068L45.9689 149.364L48.1236 148.909L48.2555 148.507Z" fill="#000017" stroke="url(#paint13_linear_675_780)" stroke-opacity="0.5"/>
<path d="M22.8905 156.561L23.1315 156.05L24.675 156.692L27.3878 154.96L27.9461 156.937L27.6822 157.18L24.9076 157.985L26.2885 159.578L25.8305 159.847L25.6023 160.376L24.5455 160.593L24.214 161.16L23.6152 161.641L22.0738 161.392L22.0273 161.165L22.7175 158.638L22.6849 158.017L22.8899 157.546L22.8905 156.561Z" fill="#000017" stroke="url(#paint14_linear_675_780)" stroke-opacity="0.5"/>
<path d="M159.539 153.637L159.715 154.204L158.939 155.2L158.374 154.673L157.667 155.055L157.301 156.012L156.403 155.547L156.413 154.768L157.176 153.783L157.96 153.975L158.526 153.278L159.539 153.637ZM168.275 148.58L167.756 149.948L167.996 150.799L167.278 151.987L165.517 152.775L163.094 152.877L161.13 154.767L160.203 154.134L160.146 152.893L157.749 153.261L156.118 154.042L154.504 154.073L155.902 155.284L154.982 158.043L154.091 158.718L153.424 158.095L153.762 156.639L152.89 156.166L152.33 155.044L153.633 154.538L154.356 153.498L155.742 152.638L156.754 151.49L159.497 150.987L160.971 151.333L162.414 148.3L163.333 149.121L165.355 147.394L166.139 146.717L167.006 144.562L166.769 142.546L167.352 141.399L168.817 141.064L169.568 143.575L169.528 145.02L168.252 146.791L168.275 148.58ZM172.319 135.83L173.289 136.237L174.264 135.426L174.57 137.564L172.525 138.079L171.319 139.929L169.151 138.659L168.401 140.686L166.868 140.713L166.678 138.874L167.36 137.43L168.833 137.325L169.235 134.679L169.642 133.16L171.262 135.185L172.319 135.83Z" fill="#000017" stroke="url(#paint15_linear_675_780)" stroke-opacity="0.5"/>
<path d="M71.7585 139.463L72.0674 138.647L72.9748 138.382L75.2441 139.026L75.458 137.921L76.241 137.53L78.2048 138.322L78.706 138.115L80.9925 138.166L83.0385 138.363L83.7305 139.034L84.5798 139.307L84.3861 139.727L82.2132 140.727L81.7219 141.454L79.9528 141.67L79.4309 142.828L77.9717 142.586L77.0186 142.94L75.702 143.789L75.8923 144.207L75.4998 144.615L72.8922 144.884L71.189 144.306L69.6934 144.444L69.8242 143.413L71.3253 143.713L71.8299 143.159L72.8789 143.337L74.6451 142.035L73.0107 141.074L72.0286 141.53L71.0105 140.841L72.1682 139.646L71.7585 139.463Z" fill="#000017" stroke="url(#paint16_linear_675_780)" stroke-opacity="0.5"/>
<path d="M116.609 188.874L116.049 188.147L115.351 186.7L115.024 185.002L115.908 183.828L117.691 183.557L118.984 183.76L120.122 184.315L120.747 183.339L121.969 183.86L122.288 184.802L122.119 186.489L119.8 187.567L120.406 188.415L118.958 188.516L117.764 189.078L116.609 188.874Z" fill="#000017" stroke="url(#paint17_linear_675_780)" stroke-opacity="0.5"/>
<path d="M154.024 139.196L154.217 139.522L153.694 139.41L153.096 140.038L152.685 140.665L152.737 141.978L152.026 142.38L151.781 142.699L151.262 143.232L150.345 143.528L149.748 144.009L149.704 144.781L149.544 144.977L150.092 145.265L150.872 146.039L150.673 146.464L150.087 146.579L149.114 146.664L148.578 147.452L147.963 147.39L147.877 147.547L147.209 147.216L147.042 147.543L146.639 147.687L146.59 147.36L146.234 147.2L145.864 146.922L146.24 146.151L146.565 145.944L146.443 145.622L146.792 144.667L146.702 144.376L145.898 144.182L145.249 143.702L146.37 142.546L147.887 141.57L148.833 140.268L149.487 140.845L150.677 140.912L150.462 139.94L152.588 139.141L153.135 138.092L154.024 139.196Z" fill="#000017" stroke="url(#paint18_linear_675_780)" stroke-opacity="0.5"/>
<path d="M150.881 146.048L152.07 148.106L152.411 149.223L152.422 151.184L151.903 152.11L150.655 152.431L149.553 153.124L148.311 153.267L148.158 152.358L148.413 151.095L147.804 149.323L148.828 149.034L147.883 147.556L147.969 147.398L148.584 147.46L149.121 146.673L150.095 146.588L150.682 146.473L150.881 146.048Z" fill="#000017" stroke="url(#paint19_linear_675_780)" stroke-opacity="0.5"/>
<path d="M40.0392 160.44L40.3228 161.141L40.2011 161.501L40.6389 162.688L39.6775 162.729L39.339 161.98L38.1279 161.828L39.1252 160.308L40.0392 160.44Z" fill="#000017" stroke="url(#paint20_linear_675_780)" stroke-opacity="0.5"/>
<path d="M71.7353 139.457L70.9442 139.8L69.125 141.084L68.5213 142.388L68.0077 142.399L67.6294 141.538L65.8756 141.479L65.5947 139.973L64.9227 139.96L65.0255 138.09L63.3745 136.708L61.0087 136.857L59.3911 137.133L58.0737 135.411L56.9451 134.681L54.8071 133.285L54.5493 133.115L50.9983 134.27L51.053 141.222L50.3451 141.312L49.3798 139.869L48.4476 139.349L46.8817 139.735L46.2721 140.351L46.1949 139.9L46.5339 139.126L46.2707 138.476L44.6723 137.835L44.0495 136.131L43.2879 135.646L43.2422 135.018L44.5838 135.201L44.6369 133.783L45.8097 133.465L47.015 133.757L47.2634 131.834L47.0174 130.597L45.637 130.694L44.4642 130.203L42.8673 131.087L41.5803 131.506L40.8798 131.183L41.02 130.149L40.1409 128.79L39.1171 128.847L37.9463 127.451L38.7423 125.869L38.3393 125.439L39.4404 123.091L40.8587 124.337L41.0304 122.766L43.8778 120.38L46.0325 120.322L49.0729 121.849L50.7061 122.73L52.1697 121.811L54.3565 121.767L56.1206 122.895L56.5216 122.25L58.4589 122.344L58.8047 121.308L56.5693 119.784L57.8931 118.69L57.6349 118.072L58.9592 117.48L57.9635 115.901L58.5956 115.105L63.7572 114.286L64.4307 113.701L67.8823 112.819L69.1225 111.819L71.6015 112.34L72.0359 114.807L73.4758 114.233L75.2473 115.036L75.1332 116.307L76.4561 116.175L79.9131 113.964L79.4083 114.704L81.1685 116.504L84.2506 122.202L84.9856 121.053L86.8861 122.316L88.8681 121.755L89.6297 122.148L90.2933 123.401L91.2576 123.818L91.845 124.725L93.6219 124.44L94.3535 125.737L93.3036 127.13L92.1579 127.324L92.0924 129.384L91.325 130.299L88.5887 129.633L87.5935 133.207L86.8875 133.643L84.1547 134.422L85.3964 137.746L84.4499 138.235L84.5601 139.301L83.7105 139.028L83.0183 138.356L80.9717 138.16L78.6846 138.108L78.1833 138.315L76.219 137.523L75.4358 137.914L75.2218 139.02L72.9519 138.376L72.0442 138.64L71.7353 139.457Z" fill="#000017" stroke="url(#paint21_linear_675_780)" stroke-opacity="0.5"/>
<path d="M118.967 183.759L119.416 183.12L119.477 181.916L118.361 180.671L118.275 179.254L117.226 178.083L116.184 177.984L115.906 178.486L115.099 178.528L114.686 178.273L113.233 179.134L113.201 177.84L113.539 176.31L112.608 176.243L112.529 175.366L111.933 174.915L112.226 174.374L113.399 173.417L113.523 173.763L114.258 173.803L114.05 172.111L114.765 171.894L115.57 173.064L116.189 174.403L117.886 174.414L118.421 175.692L117.54 176.074L117.144 176.598L118.796 177.466L119.941 179.173L120.811 180.439L121.854 181.433L122.201 182.44L121.95 183.859L120.729 183.337L120.105 184.314L118.967 183.759Z" fill="#000017" stroke="url(#paint22_linear_675_780)" stroke-opacity="0.5"/>
<path d="M23.2877 155.092L22.9235 155.113L22.7985 155.399L22.3438 155.396L22.8276 154.063L23.5028 152.901L23.5284 152.843L24.1392 152.927L24.3615 153.576L23.6209 154.196L23.2877 155.092Z" fill="#000017" stroke="url(#paint23_linear_675_780)" stroke-opacity="0.5"/>
<path d="M86.688 193.173L86.4784 194.611L85.8948 195.003L84.6834 195.318L84.0203 194.222L83.7734 192.235L84.4042 189.982L85.3663 190.754L86.015 191.731L86.688 193.173Z" fill="#000017" stroke="url(#paint24_linear_675_780)" stroke-opacity="0.5"/>
<path d="M111.153 175.27L110.349 175.903L109.375 175.968L108.747 177.538L108.165 177.801L108.832 179.066L109.706 180.114L110.271 181.057L109.766 182.296L109.29 182.559L109.619 183.27L110.539 184.394L110.697 185.181L110.675 185.835L111.214 187.114L110.457 188.418L109.789 189.851L109.656 188.816L110.08 187.747L109.616 186.918L109.728 185.388L109.168 184.658L108.719 182.965L108.47 181.168L107.873 179.983L106.965 180.701L105.398 181.719L104.624 181.592L103.77 181.257L104.245 179.484L103.958 178.136L102.877 176.465L103.045 175.941L102.238 175.754L101.26 174.561L101.17 173.379L101.651 173.602L101.679 172.543L102.36 172.192L102.214 171.562L102.525 171.054L102.579 169.505L103.657 169.848L104.271 168.607L104.342 167.87L105.103 166.593L105.061 165.718L106.846 164.654L107.832 164.933L107.718 163.982L108.202 163.698L108.098 163.108L108.904 162.992L109.365 163.907L109.967 164.277L110.007 165.457L109.952 166.72L108.646 167.989L108.48 169.778L109.936 169.528L110.265 170.907L111.138 171.195L110.737 172.429L111.761 172.984L112.358 173.256L113.369 172.826L113.411 173.436L112.237 174.393L111.944 174.932L111.153 175.27Z" fill="#000017" stroke="url(#paint25_linear_675_780)" stroke-opacity="0.5"/>
<path d="M94.8936 125.56L96.3477 125.193L98.9795 123.351L101.077 122.332L102.277 122.998L103.716 123.03L104.638 124.036L106.014 124.113L108.008 124.65L109.349 123.156L108.789 121.876L110.217 119.581L111.763 120.503L113.014 120.762L114.636 121.329L114.9 122.965L116.858 123.872L118.162 123.473L119.907 123.191L121.289 123.475L122.64 124.506L123.477 125.591L124.756 125.568L126.494 125.912L127.761 125.389L129.577 125.038L131.597 123.531L132.425 123.764L133.147 124.481L134.792 124.303L134.121 125.902L133.146 127.984L133.502 128.824L134.282 128.564L135.643 128.883L136.703 128.125L137.81 128.782L139.06 130.204L138.909 130.919L137.821 130.693L135.817 130.959L134.846 131.529L133.836 132.84L131.733 133.601L130.358 134.636L128.94 134.242L128.165 134.066L127.44 135.316L127.881 136.054L128.104 136.684L127.139 137.323L126.149 138.333L124.537 138.992L122.47 139.063L120.242 139.708L118.636 140.7L118.025 140.127L116.357 140.128L114.316 139L112.954 138.722L111.12 138.982L108.273 138.563L106.752 138.606L105.943 137.488L105.314 135.731L104.462 135.518L102.796 134.312L100.938 134.04L99.2992 133.706L98.8029 132.855L99.3336 130.526L98.3823 128.892L96.4151 128.121L95.2556 127.022L94.8936 125.56Z" fill="#000017" stroke="url(#paint26_linear_675_780)" stroke-opacity="0.5"/>
<path d="M113.252 195.023L113.36 195.728L114.272 195.564L114.723 195L115.041 195.129L115.856 195.957L116.436 196.876L116.515 197.798L116.368 198.421L116.502 198.891L116.603 199.701L117.089 200.078L117.632 201.286L117.605 201.748L116.626 201.84L115.32 200.827L113.687 199.743L113.526 199.046L112.727 198.131L112.537 196.997L112.038 196.249L112.19 195.25L111.886 194.667L112.126 194.422L113.252 195.023ZM137.473 197.391L136.457 197.858L135.26 197.627L133.673 197.627L133.194 199.184L132.663 199.659L131.955 201.56L130.828 201.851L129.522 201.468L128.86 201.588L128.055 202.279L127.174 202.18L126.283 202.458L125.339 201.686L125.108 200.773L126.12 201.241L127.187 200.986L127.465 199.829L128.054 199.571L129.709 199.274L130.699 198.192L131.377 197.326L132.006 198.036L132.296 197.569L132.956 197.613L133.037 196.737L133.099 196.062L134.162 195.107L134.859 194.033L135.417 194.028L136.126 194.724L136.189 195.321L137.099 195.704L138.251 196.117L138.152 196.654L137.226 196.722L137.473 197.391Z" fill="#000017" stroke="url(#paint27_linear_675_780)" stroke-opacity="0.5"/>
<path d="M95.4015 163.718L95.2947 164.385L95.4764 165.363L95.3183 165.971L94.1685 165.996L92.5075 165.639L91.4404 165.493L90.6442 164.71L88.7517 164.51L86.9509 163.642L85.649 162.879L84.3115 162.288L84.8473 160.817L85.7238 160.099L86.296 159.719L87.403 160.207L88.7971 161.236L89.5726 161.463L90.0365 162.216L91.109 162.525L92.2298 163.209L93.7918 163.566L95.4015 163.718Z" fill="#000017" stroke="url(#paint28_linear_675_780)" stroke-opacity="0.5"/>
<path d="M188.817 212.861L188.43 213L187.833 212.47L187.229 211.595L186.932 210.546L187.124 210.413L187.272 210.822L187.69 211.135L188.358 212.008L189.009 212.476L188.817 212.861ZM183.442 211.012L182.719 211.125L182.502 211.511L181.748 211.846L181.04 212.169L180.308 212.167L179.177 211.767L178.389 211.383L178.503 210.957L179.74 211.158L180.494 211.05L180.702 210.391L180.9 210.357L181.034 211.087L181.821 210.982L182.21 210.511L182.98 210.021L182.828 209.211L183.654 209.185L183.933 209.41L183.904 210.173L183.442 211.012ZM176.834 213.646L178.066 214.553L178.961 216.023L179.751 215.976L179.695 216.591L180.76 216.827L180.347 217.09L181.812 217.675L181.659 218.078L180.745 218.175L180.407 217.814L179.222 217.658L177.829 217.448L176.756 216.561L175.973 215.797L175.256 214.585L173.457 213.98L172.289 214.375L171.447 214.832L171.623 215.854L170.539 216.331L169.767 216.099L168.341 216.041L168.317 211.536L168.294 207.058L170.687 208.003L173.237 208.788L174.187 209.492L174.956 210.183L175.165 210.993L177.464 211.844L177.799 212.575L176.53 212.724L176.834 213.646ZM185.038 209.667L184.606 210.033L184.347 209.222L184.026 208.691L183.401 208.241L182.616 207.655L181.621 207.252L182.004 206.921L182.749 207.305L183.217 207.607L183.797 207.936L184.349 208.512L184.873 208.952L185.038 209.667Z" fill="#000017" stroke="url(#paint29_linear_675_780)" stroke-opacity="0.5"/>
<path d="M148.162 191.949L148.302 192.867L148.383 193.64L147.914 194.9L147.41 193.496L146.765 194.195L147.206 195.209L146.81 195.853L145.187 195.055L144.799 194.059L145.22 193.405L144.346 192.752L143.913 193.324L143.264 193.271L142.244 194.04L142.015 193.636L142.557 192.474L143.426 192.085L144.178 191.564L144.665 192.19L145.714 191.811L145.939 191.194L146.914 191.157L146.831 190.085L147.949 190.743L148.065 191.44L148.162 191.949ZM144.86 189.366L144.364 189.822L143.932 190.698L143.499 191.108L142.649 190.15L142.933 189.779L143.279 189.39L143.432 188.526L144.192 188.444L143.971 189.381L144.991 188.037L144.86 189.366ZM137.304 190.701L135.47 192.014L136.146 191.047L137.142 190.191L137.97 189.231L138.694 187.847L138.939 188.983L138.029 189.749L137.304 190.701ZM141.965 187.118L142.793 187.55L143.671 187.548L143.643 188.131L143.005 188.723L142.129 189.14L142.08 188.494L142.178 187.783L141.965 187.118ZM146.956 186.739L147.344 188.298L146.279 187.928L146.309 188.396L146.646 189.254L145.99 189.565L145.933 188.588L145.518 188.515L145.302 187.672L146.113 187.783L146.096 187.254L145.252 186.186L146.577 186.217L146.956 186.739ZM141.474 185.468L141.108 186.679L140.518 185.981L139.813 184.911L140.995 184.963L141.474 185.468ZM141.189 177.74L142.04 178.152L142.465 177.777L142.59 178.143L142.366 178.739L142.837 179.767L142.474 180.954L141.661 181.425L141.444 182.57L141.752 183.696L142.483 183.852L143.093 183.685L144.816 184.466L144.684 185.232L145.134 185.569L144.991 186.215L143.916 185.527L143.406 184.789L143.051 185.305L142.173 184.463L140.92 184.671L140.234 184.36L140.304 183.777L140.735 183.418L140.323 183.091L140.145 183.6L139.464 182.788L139.258 182.171L139.207 180.809L139.762 181.278L139.905 179.042L140.354 177.738L141.189 177.74Z" fill="#000017" stroke="url(#paint30_linear_675_780)" stroke-opacity="0.5"/>
<path d="M77.5253 148.63L78.543 149.429L78.9507 150.735L81.2155 151.418L79.8854 152.825L78.3505 153.073L76.2611 152.666L75.5862 153.384L76.0739 154.83L76.5523 155.937L77.6643 156.739L76.4895 157.673L76.5111 158.816L75.1736 160.412L74.3106 162.008L72.87 163.641L71.2708 163.523L69.7531 165.141L70.6544 165.829L70.8111 167.003L71.5851 167.772L71.8582 169.067L68.8277 169.063L67.9107 170.063L66.9013 169.684L66.4907 168.605L65.4269 167.454L62.8895 167.738L60.6517 167.766L58.7126 167.979L59.2313 166.214L61.2176 165.424L61.1041 164.716L60.4449 164.467L60.4071 163.103L59.0903 162.418L58.5358 161.472L57.8545 160.644L60.162 161.448L61.5393 161.213L62.3625 161.413L62.6414 161.068L63.6007 161.207L65.39 160.551L65.4387 159.201L66.2059 158.296L67.2314 158.299L67.3822 157.85L68.4348 157.64L68.9441 157.79L69.482 157.337L69.4063 156.364L69.9913 155.38L70.8675 154.966L70.3263 153.877L71.6362 153.928L72.0149 153.332L71.9574 152.693L72.6436 151.991L72.4859 151.154L72.1608 150.437L72.9643 149.697L74.4433 149.338L76.0238 149.139L76.7238 148.822L77.5253 148.63Z" fill="#000017" stroke="url(#paint31_linear_675_780)" stroke-opacity="0.5"/>
<path d="M22.9252 156.538L22.9247 157.54L22.7208 158.018L22.0732 158.239L22.1327 157.81L22.4845 157.586L22.1386 157.403L22.4265 156.311L22.9252 156.538Z" fill="#000017" stroke="url(#paint32_linear_675_780)" stroke-opacity="0.5"/>
<path d="M43.9573 168.514L43.8643 167.406L44.2426 166.604L44.626 166.438L45.0504 166.919L45.0749 167.813L44.7706 168.707L44.3813 168.815L43.9573 168.514Z" fill="#000017" stroke="url(#paint33_linear_675_780)" stroke-opacity="0.5"/>
<path d="M236 81.7646L234.633 83.2266L232.373 83.5698L232.339 86.748L231.787 87.4104L230.496 87.3155L229.444 86.2021L227.611 85.2594L227.303 83.8383L225.902 83.2964L224.335 83.7267L223.586 82.5617L223.885 81.3068L222.234 82.1108L222.856 83.6814L222.074 85.0746L222.063 85.0923L220.291 86.5109L218.504 86.2759L219.748 87.9685L220.568 90.5261L221.205 91.3463L221.365 92.5914L221.009 93.3792L218.439 92.7316L214.585 94.9498L213.359 95.2881L211.25 97.3024L209.248 99.0259L208.742 100.281L206.77 98.3635L203.177 100.537L202.55 99.5147L201.222 100.692L199.378 100.317L198.934 102.102L197.279 104.668L197.329 105.719L198.899 106.296L198.714 109.964L197.434 110.055L196.844 112.098L197.418 113.133L195.006 114.346L194.528 117.004L192.472 117.562L192.059 119.855L190.071 121.912L189.562 120.395L188.971 117.104L188.202 111.868L188.865 108.448L190.028 106.938L190.1 105.738L192.242 105.158L194.706 101.823L197.079 99.0068L199.557 96.7595L200.665 92.6455L198.991 92.8968L198.162 95.3172L194.665 98.4452L193.536 94.9351L189.976 95.9181L186.525 100.619L187.664 102.28L184.586 102.978L182.455 103.252L182.554 101.311L180.411 100.898L178.703 102.227L174.487 101.764L169.952 102.561L165.485 107.641L160.202 113.432L162.374 113.732L163.052 115.208L164.391 115.727L165.273 114.557L166.786 114.71L168.777 117.263L168.823 119.192L167.746 121.411L167.629 124.001L167.007 127.368L164.929 130.325L164.468 131.71L162.596 134.003L160.739 136.23L159.848 137.352L158.011 138.456L157.141 138.48L156.275 137.567L154.424 138.94L154.209 139.558L154.015 139.233L154.007 138.285L154.711 138.234L154.91 135.995L154.547 134.344L155.73 133.656L157.403 134.001L158.331 132.09L158.803 129.895L159.339 129.152L160.063 127.303L157.785 127.912L156.589 128.722L154.494 128.72L153.936 126.78L152.303 125.287L149.903 124.609L149.393 122.502L148.913 121.159L148.396 120.207L147.544 117.94L146.333 117.098L144.269 116.413L142.441 116.475L140.728 116.891L139.59 118.028L140.346 118.566L140.363 119.807L139.596 120.52L138.351 122.843L138.364 123.792L136.421 125.139L134.766 124.336L133.121 124.514L132.399 123.797L131.572 123.565L129.553 125.069L127.737 125.419L126.47 125.942L124.733 125.599L123.455 125.621L122.618 124.538L121.268 123.509L119.886 123.225L118.142 123.507L116.838 123.905L114.88 123L114.617 121.366L112.996 120.8L111.744 120.541L110.2 119.621L108.772 121.912L109.332 123.19L107.991 124.682L105.998 124.146L104.621 124.07L103.7 123.065L102.262 123.034L101.063 122.368L98.9653 123.386L96.3345 125.225L94.8809 125.591L94.3409 125.764L93.6097 124.468L91.8335 124.753L91.2469 123.847L90.2831 123.43L89.6192 122.178L88.858 121.785L86.8767 122.346L84.9776 121.085L84.2429 122.232L81.1616 116.54L79.4026 114.74L79.9067 114.001L76.4517 116.211L75.1294 116.342L75.2434 115.072L73.4722 114.27L72.0328 114.843L71.5986 112.379L69.1207 111.858L67.881 112.858L64.4309 113.739L63.7577 114.323L58.5983 115.141L57.9664 115.937L58.9617 117.514L57.6379 118.106L57.8961 118.723L56.5728 119.816L58.8073 121.339L58.4621 122.375L56.5256 122.281L56.1253 122.925L54.3619 121.798L52.1761 121.842L50.7127 122.76L49.0805 121.879L46.0411 120.354L43.8872 120.412L41.041 122.796L40.8694 124.366L39.4517 123.121L38.3516 125.467L38.7544 125.896L37.9587 127.477L39.1291 128.873L40.1524 128.815L41.0311 130.173L40.8915 131.206L41.5917 131.529L40.9633 132.705L39.6267 133.029L38.2562 135.04L39.5092 136.857L39.3735 138.128L40.8792 140.319L40.056 141.06L39.8195 141.525L39.2092 141.4L38.2616 140.286L37.8741 140.224L37.0072 139.796L36.5853 139.034L35.2994 138.643L34.4634 138.937L34.2219 138.589L32.3444 137.689L30.3145 137.383L29.1491 137.06L28.9809 137.283L27.2229 135.673L25.6498 134.947L24.4588 133.807L25.4624 133.494L26.6067 131.845L25.8357 131.055L27.8676 130.236L27.8312 129.794L26.5934 130.12L26.6367 129.219L27.3473 128.649L28.6814 128.498L28.8983 127.812L28.5934 126.668L29.1535 125.57L29.1373 124.949L27.1049 124.256L26.2989 124.279L25.4482 123.274L24.3904 123.615L22.6393 122.857L22.6693 122.43L22.179 121.483L21.0795 121.377L20.9654 120.692L21.3096 120.243L20.4284 118.977L18.9989 119.194L18.58 119.082L18.2318 119.592L17.7169 119.501L17.3781 118.057L17.0545 117.3L17.3201 117.086L18.4324 117.165L18.9689 116.663L18.5716 116.047L17.6417 115.638L17.7248 115.216L17.1637 114.788L16.2992 113.238L16.5947 112.592L16.46 111.457L15.1122 110.875L14.3888 111.167L14.1931 110.559L12.7414 109.941L12.2984 108.471L12.1809 107.246L11.5165 106.659L12.1071 105.843L11.6979 103.403L12.679 101.862L12.4714 101.391L14.0386 99.8806L12.5939 98.5607L15.5459 94.9193L16.8264 93.2213L17.3452 91.6949L15.3044 89.6021L15.868 87.5638L14.6268 85.1768L15.5552 82.3424L13.9516 78.4296L15.2238 75.7358L13.1122 73.282L13.3133 70.6246L14.4271 70.2685L16.7733 68.7008L18.1959 67.3176L20.4609 69.7075L24.2365 70.63L29.4461 74.8816L30.5043 76.6067L30.5953 78.9651L29.0645 80.7821L26.8133 81.6899L20.6581 79.0772L19.6456 79.5198L21.8933 82.0262L21.9814 83.5772L22.0713 86.8979L23.8465 87.8647L24.924 88.6796L25.102 87.1517L24.2714 85.7743L25.1492 84.5425L28.4822 86.5582L29.6433 85.7748L28.7153 83.3766L31.9289 80.0612L33.2015 80.2599L34.4889 81.4548L35.292 79.089L34.1423 76.9828L34.8174 74.8162L33.8039 72.5089L37.6607 73.7098L38.4485 75.7668L36.7028 76.2133L36.7121 78.199L37.7974 79.3978L39.9277 78.64L40.265 76.3726L43.1452 74.6392L47.9569 71.4217L48.9964 71.6095L47.6373 73.8912L49.3476 74.2773L50.3355 73.0066L52.9196 72.9028L54.9673 71.3327L56.5384 73.605L58.1051 71.1035L56.6603 68.8528L57.3773 67.5433L61.4499 68.7446L63.3584 69.9681L68.3551 74.295L69.2771 72.3403L67.8756 70.3187L67.8353 69.494L66.1737 69.1095L66.6285 67.2276L65.8909 64.0356L65.8491 62.6897L68.3939 58.7607L69.2987 54.6206L70.324 53.6971L73.9743 54.9334L74.2619 57.4821L72.9549 61.0635L73.8125 62.4301L74.256 65.3501L73.9428 70.7952L75.4638 73.1212L74.8722 75.5838L72.1715 80.5987L73.7476 81.1022L74.2959 79.866L75.8129 78.9734L76.1788 77.2263L77.3722 75.5106L76.5687 73.4157L77.2124 70.9162L75.7047 70.5995L75.3733 68.4269L76.4733 64.3562L74.6824 60.8978L77.15 57.9267L76.8313 54.6718L77.5188 54.5656L78.2431 57.1172L77.6998 61.3792L79.175 62.1621L78.5465 59.0282L80.8538 57.2682L83.7153 57.0282L86.263 59.5755L85.0371 55.8274L84.8999 50.7712L87.2976 49.7774L90.614 49.9957L93.6014 49.3461L92.4812 46.7001L94.0769 43.25L95.6608 43.1024L98.3418 40.3914L101.982 39.6469L102.442 38.0964L106.063 37.5644L107.191 38.8459L110.285 35.7788L112.818 35.8767L113.198 33.3009L114.516 30.6779L117.771 28.0658L120.136 30.1351L118.258 31.6747L121.382 32.6174L121.754 35.5846L123.014 34.1374L127.045 34.2175L130.152 37.0908L131.259 39.2304L130.916 42.1091L129.391 43.7034L125.768 46.613L124.732 48.1271L126.442 48.8318L128.481 50.0867L129.722 49.1475L130.426 52.2912L131.031 51.0328L133.236 50.2583L137.659 51.0678L137.996 53.318L143.76 54.0212L143.839 50.3464L146.765 51.203L148.966 51.1764L151.192 53.703L151.827 56.6722L151.011 58.5586L152.743 61.9919L154.911 63.7096L156.242 59.1963L158.453 61.1614L160.803 59.993L163.472 61.3286L164.487 60.1115L166.743 60.7222L165.748 56.5925L167.568 54.5926L180.02 57.5731L181.194 60.2064L184.804 63.478L190.371 62.6799L193.116 63.3752L194.264 65.0954L194.096 68.0537L195.795 69.1778L197.64 68.3709L200.086 68.2671L202.689 69.0416L205.302 68.6054L207.703 72.0447L209.412 70.8237L208.297 68.3286L208.911 66.5495L213.31 67.6736L216.178 67.4346L220.143 69.3244L222.073 71.016L225.451 73.8966L229.066 77.5066L228.948 79.6884L229.878 80.5465L229.558 78.016L233.301 78.5412L236 81.7646ZM173.339 126.266L171.952 122.488L171.383 120.27L171.418 118.06L170.941 115.845L170.582 114.296L169.969 114.627L170.516 115.711L169.241 116.777L169.119 119.873L169.927 122.042L169.867 124.919L169.548 126.511L169.705 128.742L169.551 130.717L169.807 132.389L170.711 130.847L171.756 132.05L171.794 130.655L170.451 128.576L171.299 125.572L173.339 126.266ZM4.66055 112.751L3.21679 112.33L1.31422 113.108L1 114.154L2.69797 114.422L5.23342 114.387L5.12279 113.783L5.26983 113.13L4.66055 112.751ZM222.073 63.5178L223.874 63.2621L225.295 62.2467L225.413 61.6625L223.418 60.4257L222.25 60.4164L222.073 60.5988L220.316 62.3912L220.562 63.7317L222.073 63.5178ZM168.041 50.1969L166.733 52.1221L166.974 52.3768L169.8 52.9098L171.89 52.8764L171.724 51.6131L169.765 49.7395L168.041 50.1969ZM180.125 45.5115L181.719 43.4226L178.259 42.0088L175.689 41.1822L175.359 42.9451L177.921 45.0434L180.125 45.5115ZM167.769 44.6785L172.851 44.824L173.935 40.8188L168.951 37.8334L165.31 37.5816L163.491 38.6536L162.75 42.4656L165.482 45.9142L167.769 44.6785ZM46.2486 57.4379L44.8387 58.4007L45.0404 60.7768L47.536 61.9314L47.9018 63.8089L52.4067 64.3508L53.2211 63.9855L50.5838 60.4911L50.3035 56.7951L52.4648 52.2991L54.5198 47.4706L58.8029 42.4705L63.0137 39.8456L67.8992 37.023L68.8257 35.2005L67.8672 32.8269L65.1838 33.6156L62.8224 35.8246L58.2335 36.9172L53.6813 40.5606L50.5976 43.4368L50.9708 45.8316L47.6697 50.2716L48.9374 50.8716L46.2024 54.9388L46.2486 57.4379ZM118.768 24.0256L119.178 21.2128L115.683 17.1101L114.648 16.6258L113.515 17.4598L110.996 26.6082L118.768 24.0256ZM38.0094 9.61099L39.5028 11.517L41.1142 10.1927L41.3065 8.85567L42.5462 8.23016L44.3972 7.13111L44.9307 5.84076L42.8855 3.94901L41.5858 5.37655L40.7941 7.40501L40.5123 5.11888L38.4175 5.22264L35.7257 6.77262L38.7942 7.02882L38.0094 9.61099ZM102.551 16.0263L104.839 18.844L108.679 20.9104L111.688 20.0237L112.028 13.3247L108.853 5.43704L106.174 1L103.191 3.02059L99.6115 8.83993L101.492 10.4479L102.551 16.0263Z" fill="#000017" stroke="url(#paint34_linear_675_780)" stroke-opacity="0.5"/>
<path d="M32.8909 180.831L32.7122 180.221L32.2967 179.789L32.1906 179.216L31.4794 178.7L30.7456 177.49L30.3572 176.308L29.4048 175.304L28.7904 175.064L27.8784 173.666L27.7193 172.641L27.7777 171.762L26.988 170.108L26.3421 169.523L25.5985 169.212L25.1457 168.348L25.2208 168.006L24.8383 167.219L24.436 166.879L23.8982 165.741L23.0598 164.5L22.3575 163.435L21.6719 163.443L21.886 162.587L21.9469 162.039L22.1178 161.412L23.6502 161.662L24.2454 161.178L24.575 160.609L25.6255 160.39L25.8525 159.858L26.3077 159.588L24.935 157.986L27.6932 157.176L27.9555 156.932L29.6141 157.37L31.666 158.498L35.549 161.691L38.1093 161.817L39.3361 161.968L39.679 162.714L40.6529 162.674L41.1922 164.015L41.8694 164.369L42.1057 164.911L43.0442 165.558L43.1277 166.19L42.9907 166.699L43.1646 167.211L43.5604 167.637L43.7441 168.134L43.9499 168.505L44.3659 168.804L44.748 168.697L45.0093 169.273L45.0618 169.62L45.5898 171.135L49.7291 171.885L50.0066 171.571L50.6377 172.621L49.7198 175.559L45.5888 177.014L41.618 177.569L40.3327 178.219L39.346 179.73L38.7031 179.969L38.3588 179.491L37.8308 179.563L36.4998 179.419L36.2474 179.276L34.658 179.309L34.2848 179.438L33.719 179.065L33.3546 179.771L33.4955 180.375L32.8909 180.831Z" fill="#000017" stroke="url(#paint35_linear_675_780)" stroke-opacity="0.5"/>
<path d="M197.457 217.97L197.843 218.45L196.878 218.441L196.353 217.582L197.179 217.92L197.457 217.97ZM195.707 217.119L195.169 217.15L194.322 217.009L194.032 216.794L194.119 216.241L195.031 216.46L195.481 216.753L195.707 217.119ZM196.851 216.739L196.642 216.996L195.618 215.789L195.331 214.959H195.801L196.298 216.071L196.851 216.739ZM194.357 214.983L194.416 215.262L193.333 214.673L192.577 214.176L192.059 213.714L192.265 213.573L192.9 213.905L194.033 214.543L194.357 214.983ZM191.13 213.612L190.854 213.69L190.25 213.375L189.683 212.806L189.754 212.576L190.579 213.16L191.13 213.612Z" fill="#000017" stroke="url(#paint36_linear_675_780)" stroke-opacity="0.5"/>
<path d="M27.3795 154.919L24.672 156.657L23.1316 156.013L23.1055 156.002L23.2928 155.754L23.2716 155.085L23.6109 154.185L24.3648 153.563L24.1385 152.911L23.5167 152.826L23.3875 151.546L23.7258 150.853L24.096 150.482L24.4663 150.111L24.5413 149.159L24.9939 149.492L26.5161 149.016L27.2518 149.338L28.3888 149.333L29.9799 148.69L30.725 148.719L32.2974 148.451L31.5889 149.521L30.832 149.942L30.9627 151.179L30.44 153.202L27.3795 154.919Z" fill="#000017" stroke="url(#paint37_linear_675_780)" stroke-opacity="0.5"/>
<path d="M115.359 186.717L114.119 186.074L112.938 186.1L113.14 184.996L111.924 185.004L111.814 186.548L111.069 188.59L110.62 189.819L110.715 190.824L111.614 190.867L112.175 192.131L112.423 193.327L113.194 194.117L114.03 194.278L114.746 194.993L114.295 195.558L113.383 195.722L113.274 195.016L112.147 194.412L111.907 194.658L111.362 194.129L111.125 193.446L110.392 192.667L109.722 192.011L109.495 192.823L109.233 192.055L109.384 191.192L109.791 189.861L110.46 188.43L111.219 187.128L110.679 185.85L110.7 185.198L110.542 184.411L109.621 183.289L109.292 182.578L109.768 182.317L110.274 181.079L109.708 180.137L108.832 179.091L108.164 177.827L108.747 177.564L109.377 175.997L110.352 175.931L111.158 175.299L111.949 174.962L112.547 175.413L112.626 176.287L113.559 176.354L113.22 177.879L113.252 179.17L114.708 178.312L115.122 178.566L115.93 178.524L116.209 178.023L117.253 178.122L118.304 179.29L118.39 180.703L119.508 181.945L119.447 183.145L118.997 183.782L117.702 183.579L115.917 183.85L115.032 185.022L115.359 186.717Z" fill="#000017" stroke="url(#paint38_linear_675_780)" stroke-opacity="0.5"/>
<path d="M71.7975 143.156L71.2925 143.71L69.7903 143.41L69.6594 144.44L71.1562 144.302L72.8607 144.879L75.4703 144.61L75.8202 146.243L76.2736 146.067L77.1118 146.466L77.0635 147.144L77.2708 148.133L75.8473 148.13L74.8969 148.003L74.037 148.775L73.4247 148.945L72.9433 149.306L72.3975 148.744L72.526 147.291L72.1086 147.208L72.2587 146.675L71.5115 146.277L70.9175 146.886L70.7713 147.587L70.5591 147.842L69.7342 147.806L69.2893 148.596L68.8236 148.264L67.825 148.817L67.4032 148.607L68.1789 146.853L67.8806 145.547L66.8682 145.126L67.226 144.344L68.3782 144.428L69.0338 143.44L69.4729 142.284L71.3181 141.862L71.0307 142.702L71.228 143.203L71.7975 143.156Z" fill="#000017" stroke="url(#paint39_linear_675_780)" stroke-opacity="0.5"/>
<path d="M146.233 215.753L146.394 215.432L147.568 215.126L148.519 215.08L148.946 214.91L149.462 215.078L148.96 215.447L147.539 216.043L146.397 216.435L146.372 216.021L146.233 215.753Z" fill="#000017" stroke="url(#paint40_linear_675_780)" stroke-opacity="0.5"/>
<path d="M58.2974 151.146L58.1763 149.718L57.1482 149.657L55.5721 148.137L54.4707 147.948L52.9453 147.068L51.9644 146.908L51.3588 147.232L50.4365 147.182L49.4556 148.172L48.2435 148.506L47.9872 147.282L48.1874 145.451L47.1121 144.853L47.4658 143.633L46.5503 143.529L46.8553 142.009L48.1564 142.454L49.368 141.874L48.3635 140.779L47.968 139.725L46.8578 140.196L46.7171 141.539L46.2861 140.352L46.8956 139.738L48.4614 139.353L49.3936 139.872L50.3588 141.312L51.0666 141.222L52.6226 141.197L52.3963 140.274L53.5744 139.638L54.7364 138.557L56.5948 139.54L56.7424 141.01L57.2702 141.383L58.7613 141.299L59.2241 141.63L59.9025 143.492L61.4796 144.724L62.3793 145.556L63.8216 146.416L65.6565 147.163L65.6186 148.224L65.2029 148.17L64.5521 147.708L64.3357 148.323L63.1733 148.656L62.8978 150.024L62.1206 150.54L61.0319 150.795L60.7442 151.56L59.7037 151.784L58.2974 151.146Z" fill="#000017" stroke="url(#paint41_linear_675_780)" stroke-opacity="0.5"/>
<path d="M141.824 169.053L140.99 171.452L140.396 172.669L139.666 171.416L139.509 170.311L140.324 168.836L141.432 167.691L142.065 168.143L141.824 169.053Z" fill="#000017" stroke="url(#paint42_linear_675_780)" stroke-opacity="0.5"/>
<path d="M65.6073 148.205L65.6452 147.145L63.8098 146.398L62.367 145.538L61.467 144.705L59.8894 143.474L59.2108 141.612L58.7478 141.281L57.2563 141.365L56.7283 140.991L56.5807 139.521L54.7216 138.538L53.5593 139.619L52.3808 140.255L52.6072 141.179L51.0507 141.204L50.9961 134.264L54.5479 133.111L54.8058 133.281L56.9443 134.675L58.0731 135.404L59.3909 137.122L61.0089 136.847L63.3753 136.698L65.0267 138.077L64.9238 139.944L65.596 139.957L65.877 141.46L67.6312 141.518L68.0096 142.379L68.5234 142.367L69.1271 141.066L70.9468 139.784L71.7381 139.442L72.148 139.624L70.9897 140.817L72.0083 141.505L72.991 141.05L74.6261 142.01L72.8591 143.309L71.8095 143.132L71.2401 143.179L71.0428 142.678L71.3302 141.839L69.4854 142.26L69.0464 143.416L68.391 144.403L67.2391 144.319L66.8813 145.101L67.8935 145.522L68.1917 146.828L67.4162 148.581L66.3755 148.217L65.6073 148.205Z" fill="#000017" stroke="url(#paint43_linear_675_780)" stroke-opacity="0.5"/>
<path d="M122.886 173.275L121.039 174.532L119.887 175.91L119.583 176.918L120.641 178.44L121.934 180.314L123.189 181.195L124.029 182.337L124.663 184.952L124.476 187.418L123.323 188.338L121.739 189.234L120.611 190.393L118.887 191.683L118.384 190.794L118.773 189.855L117.747 189.065L118.944 188.504L120.395 188.402L119.788 187.557L122.113 186.481L122.283 184.798L121.963 183.857L122.214 182.442L121.866 181.439L120.82 180.447L119.948 179.185L118.798 177.483L117.141 176.618L117.538 176.095L118.422 175.714L117.886 174.441L116.183 174.429L115.562 173.095L114.754 171.927L115.496 171.566L116.599 171.573L117.943 171.402L119.122 170.608L119.789 171.167L121.054 171.439L120.835 172.293L121.494 172.893L122.886 173.275Z" fill="#000017" stroke="url(#paint44_linear_675_780)" stroke-opacity="0.5"/>
<path d="M47.1362 180.398L46.1394 180.781L45.8724 181.412L45.8394 181.895L44.4668 182.493L42.2637 183.152L41.0288 184.146L40.422 184.223L40.0084 184.14L39.2024 184.723L38.3236 184.993L37.1659 185.066L36.8177 185.146L36.5162 185.515L36.1548 185.618L35.9413 185.974L35.2588 185.943L34.8181 186.133L33.8641 186.062L33.5051 185.244L33.5444 184.477L33.3192 184.062L33.0497 183.02L32.6533 182.439L32.9292 182.37L32.7876 181.723L32.9548 181.449L32.8938 180.83L33.4992 180.376L33.358 179.774L33.7229 179.072L34.2895 179.444L34.6632 179.315L36.2546 179.282L36.5074 179.425L37.8401 179.568L38.3688 179.496L38.7135 179.972L39.3573 179.734L40.3452 178.23L41.6322 177.583L45.6083 177.03L46.6862 179.401L47.1362 180.398Z" fill="#000017" stroke="url(#paint45_linear_675_780)" stroke-opacity="0.5"/>
<path d="M55.0715 173.918L54.5569 174.922L53.9321 174.846L53.6455 175.194L53.4243 175.934L53.5939 176.906L53.4637 177.084L52.8296 177.079L51.9689 177.621L51.8347 178.324L51.5191 178.629L50.6619 178.617L50.1222 178.98L50.1291 179.561L49.4625 179.959L48.7021 179.824L47.7805 180.307L47.1434 180.388L46.6937 179.386L45.6162 177.004L49.7506 175.549L50.6693 172.61L50.0376 171.559L50.0735 170.96L50.4751 170.341L50.479 169.729L51.1028 169.433L50.859 169.224L50.9716 168.241L51.6759 168.235L52.2938 169.266L53.0631 169.811L54.0742 170.007L54.8901 170.28L55.5124 171.137L55.884 171.631L56.3775 171.819L56.3746 172.15L55.8727 173.032L55.6525 173.446L55.0715 173.918ZM51.6676 166.76L51.4881 167.036L51.2257 166.516L51.6273 165.995L51.7978 166.128L51.6676 166.76Z" fill="#000017" stroke="url(#paint46_linear_675_780)" stroke-opacity="0.5"/>
<defs>
<linearGradient id="paint0_linear_675_780" x1="45.0322" y1="168.163" x2="48.8238" y2="169.727" gradientUnits="userSpaceOnUse">
<stop stop-color="#EC11FF"/>
<stop offset="1" stop-color="#1BE4FF"/>
</linearGradient>
<linearGradient id="paint1_linear_675_780" x1="57.3633" y1="150.886" x2="68.663" y2="155.862" gradientUnits="userSpaceOnUse">
<stop stop-color="#EC11FF"/>
<stop offset="1" stop-color="#1BE4FF"/>
</linearGradient>
<linearGradient id="paint2_linear_675_780" x1="34" y1="142.686" x2="36.4773" y2="143.425" gradientUnits="userSpaceOnUse">
<stop stop-color="#EC11FF"/>
<stop offset="1" stop-color="#1BE4FF"/>
</linearGradient>
<linearGradient id="paint3_linear_675_780" x1="35.6592" y1="142.166" x2="40.1159" y2="143.931" gradientUnits="userSpaceOnUse">
<stop stop-color="#EC11FF"/>
<stop offset="1" stop-color="#1BE4FF"/>
</linearGradient>
<linearGradient id="paint4_linear_675_780" x1="95.3389" y1="168.515" x2="99.3314" y2="169.482" gradientUnits="userSpaceOnUse">
<stop stop-color="#EC11FF"/>
<stop offset="1" stop-color="#1BE4FF"/>
</linearGradient>
<linearGradient id="paint5_linear_675_780" x1="131.346" y1="196.641" x2="132.422" y2="196.957" gradientUnits="userSpaceOnUse">
<stop stop-color="#EC11FF"/>
<stop offset="1" stop-color="#1BE4FF"/>
</linearGradient>
<linearGradient id="paint6_linear_675_780" x1="96.373" y1="163.812" x2="98.5594" y2="165.168" gradientUnits="userSpaceOnUse">
<stop stop-color="#EC11FF"/>
<stop offset="1" stop-color="#1BE4FF"/>
</linearGradient>
<linearGradient id="paint7_linear_675_780" x1="75.4795" y1="135.11" x2="122.363" y2="156.421" gradientUnits="userSpaceOnUse">
<stop stop-color="#EC11FF"/>
<stop offset="1" stop-color="#1BE4FF"/>
</linearGradient>
<linearGradient id="paint8_linear_675_780" x1="28.9775" y1="138.443" x2="33.2659" y2="141.288" gradientUnits="userSpaceOnUse">
<stop stop-color="#EC11FF"/>
<stop offset="1" stop-color="#1BE4FF"/>
</linearGradient>
<linearGradient id="paint9_linear_675_780" x1="105.295" y1="202.604" x2="127.239" y2="223.676" gradientUnits="userSpaceOnUse">
<stop stop-color="#EC11FF"/>
<stop offset="1" stop-color="#1BE4FF"/>
</linearGradient>
<linearGradient id="paint10_linear_675_780" x1="21.1318" y1="156.938" x2="22.5801" y2="157.111" gradientUnits="userSpaceOnUse">
<stop stop-color="#EC11FF"/>
<stop offset="1" stop-color="#1BE4FF"/>
</linearGradient>
<linearGradient id="paint11_linear_675_780" x1="67.8984" y1="163.89" x2="92.2769" y2="171.809" gradientUnits="userSpaceOnUse">
<stop stop-color="#EC11FF"/>
<stop offset="1" stop-color="#1BE4FF"/>
</linearGradient>
<linearGradient id="paint12_linear_675_780" x1="27.3682" y1="152.317" x2="35.5132" y2="154.992" gradientUnits="userSpaceOnUse">
<stop stop-color="#EC11FF"/>
<stop offset="1" stop-color="#1BE4FF"/>
</linearGradient>
<linearGradient id="paint13_linear_675_780" x1="34.7178" y1="151.341" x2="50.3241" y2="157.081" gradientUnits="userSpaceOnUse">
<stop stop-color="#EC11FF"/>
<stop offset="1" stop-color="#1BE4FF"/>
</linearGradient>
<linearGradient id="paint14_linear_675_780" x1="22.0273" y1="156.984" x2="25.67" y2="158.055" gradientUnits="userSpaceOnUse">
<stop stop-color="#EC11FF"/>
<stop offset="1" stop-color="#1BE4FF"/>
</linearGradient>
<linearGradient id="paint15_linear_675_780" x1="152.33" y1="140.905" x2="166.056" y2="144.867" gradientUnits="userSpaceOnUse">
<stop stop-color="#EC11FF"/>
<stop offset="1" stop-color="#1BE4FF"/>
</linearGradient>
<linearGradient id="paint16_linear_675_780" x1="69.6934" y1="139.759" x2="76.5532" y2="144.365" gradientUnits="userSpaceOnUse">
<stop stop-color="#EC11FF"/>
<stop offset="1" stop-color="#1BE4FF"/>
</linearGradient>
<linearGradient id="paint17_linear_675_780" x1="115.024" y1="185.078" x2="119.153" y2="186.811" gradientUnits="userSpaceOnUse">
<stop stop-color="#EC11FF"/>
<stop offset="1" stop-color="#1BE4FF"/>
</linearGradient>
<linearGradient id="paint18_linear_675_780" x1="145.249" y1="141" x2="150.719" y2="142.695" gradientUnits="userSpaceOnUse">
<stop stop-color="#EC11FF"/>
<stop offset="1" stop-color="#1BE4FF"/>
</linearGradient>
<linearGradient id="paint19_linear_675_780" x1="147.804" y1="148.235" x2="150.758" y2="148.862" gradientUnits="userSpaceOnUse">
<stop stop-color="#EC11FF"/>
<stop offset="1" stop-color="#1BE4FF"/>
</linearGradient>
<linearGradient id="paint20_linear_675_780" x1="38.1279" y1="161.041" x2="39.6291" y2="161.558" gradientUnits="userSpaceOnUse">
<stop stop-color="#EC11FF"/>
<stop offset="1" stop-color="#1BE4FF"/>
</linearGradient>
<linearGradient id="paint21_linear_675_780" x1="37.9463" y1="121.086" x2="65.3871" y2="137.875" gradientUnits="userSpaceOnUse">
<stop stop-color="#EC11FF"/>
<stop offset="1" stop-color="#1BE4FF"/>
</linearGradient>
<linearGradient id="paint22_linear_675_780" x1="111.933" y1="175.657" x2="118.318" y2="177.408" gradientUnits="userSpaceOnUse">
<stop stop-color="#EC11FF"/>
<stop offset="1" stop-color="#1BE4FF"/>
</linearGradient>
<linearGradient id="paint23_linear_675_780" x1="22.3437" y1="153.617" x2="23.6062" y2="153.948" gradientUnits="userSpaceOnUse">
<stop stop-color="#EC11FF"/>
<stop offset="1" stop-color="#1BE4FF"/>
</linearGradient>
<linearGradient id="paint24_linear_675_780" x1="83.7734" y1="191.599" x2="85.6601" y2="191.941" gradientUnits="userSpaceOnUse">
<stop stop-color="#EC11FF"/>
<stop offset="1" stop-color="#1BE4FF"/>
</linearGradient>
<linearGradient id="paint25_linear_675_780" x1="101.17" y1="171.131" x2="109.171" y2="172.341" gradientUnits="userSpaceOnUse">
<stop stop-color="#EC11FF"/>
<stop offset="1" stop-color="#1BE4FF"/>
</linearGradient>
<linearGradient id="paint26_linear_675_780" x1="94.8936" y1="125.981" x2="114.83" y2="139.81" gradientUnits="userSpaceOnUse">
<stop stop-color="#EC11FF"/>
<stop offset="1" stop-color="#1BE4FF"/>
</linearGradient>
<linearGradient id="paint27_linear_675_780" x1="111.886" y1="196.583" x2="120.376" y2="205.391" gradientUnits="userSpaceOnUse">
<stop stop-color="#EC11FF"/>
<stop offset="1" stop-color="#1BE4FF"/>
</linearGradient>
<linearGradient id="paint28_linear_675_780" x1="84.3115" y1="161.621" x2="89.849" y2="164.888" gradientUnits="userSpaceOnUse">
<stop stop-color="#EC11FF"/>
<stop offset="1" stop-color="#1BE4FF"/>
</linearGradient>
<linearGradient id="paint29_linear_675_780" x1="168.294" y1="210.331" x2="178.383" y2="216.491" gradientUnits="userSpaceOnUse">
<stop stop-color="#EC11FF"/>
<stop offset="1" stop-color="#1BE4FF"/>
</linearGradient>
<linearGradient id="paint30_linear_675_780" x1="135.47" y1="183.228" x2="143.646" y2="185.161" gradientUnits="userSpaceOnUse">
<stop stop-color="#EC11FF"/>
<stop offset="1" stop-color="#1BE4FF"/>
</linearGradient>
<linearGradient id="paint31_linear_675_780" x1="57.8545" y1="155.125" x2="71.6678" y2="160.119" gradientUnits="userSpaceOnUse">
<stop stop-color="#EC11FF"/>
<stop offset="1" stop-color="#1BE4FF"/>
</linearGradient>
<linearGradient id="paint32_linear_675_780" x1="22.0732" y1="156.895" x2="22.6309" y2="156.977" gradientUnits="userSpaceOnUse">
<stop stop-color="#EC11FF"/>
<stop offset="1" stop-color="#1BE4FF"/>
</linearGradient>
<linearGradient id="paint33_linear_675_780" x1="43.8643" y1="167.159" x2="44.6512" y2="167.292" gradientUnits="userSpaceOnUse">
<stop stop-color="#EC11FF"/>
<stop offset="1" stop-color="#1BE4FF"/>
</linearGradient>
<linearGradient id="paint34_linear_675_780" x1="0.999999" y1="43.5832" x2="121.149" y2="110.229" gradientUnits="userSpaceOnUse">
<stop stop-color="#EC11FF"/>
<stop offset="1" stop-color="#1BE4FF"/>
</linearGradient>
<linearGradient id="paint35_linear_675_780" x1="21.6719" y1="164.174" x2="38.3436" y2="170.876" gradientUnits="userSpaceOnUse">
<stop stop-color="#EC11FF"/>
<stop offset="1" stop-color="#1BE4FF"/>
</linearGradient>
<linearGradient id="paint36_linear_675_780" x1="189.683" y1="214.356" x2="194.183" y2="216.43" gradientUnits="userSpaceOnUse">
<stop stop-color="#EC11FF"/>
<stop offset="1" stop-color="#1BE4FF"/>
</linearGradient>
<linearGradient id="paint37_linear_675_780" x1="23.1055" y1="150.938" x2="28.5055" y2="152.944" gradientUnits="userSpaceOnUse">
<stop stop-color="#EC11FF"/>
<stop offset="1" stop-color="#1BE4FF"/>
</linearGradient>
<linearGradient id="paint38_linear_675_780" x1="108.164" y1="181.253" x2="115.507" y2="182.584" gradientUnits="userSpaceOnUse">
<stop stop-color="#EC11FF"/>
<stop offset="1" stop-color="#1BE4FF"/>
</linearGradient>
<linearGradient id="paint39_linear_675_780" x1="66.8682" y1="144.118" x2="72.5929" y2="146.772" gradientUnits="userSpaceOnUse">
<stop stop-color="#EC11FF"/>
<stop offset="1" stop-color="#1BE4FF"/>
</linearGradient>
<linearGradient id="paint40_linear_675_780" x1="146.233" y1="215.372" x2="147.679" y2="216.387" gradientUnits="userSpaceOnUse">
<stop stop-color="#EC11FF"/>
<stop offset="1" stop-color="#1BE4FF"/>
</linearGradient>
<linearGradient id="paint41_linear_675_780" x1="46.2861" y1="142.565" x2="56.7646" y2="147.655" gradientUnits="userSpaceOnUse">
<stop stop-color="#EC11FF"/>
<stop offset="1" stop-color="#1BE4FF"/>
</linearGradient>
<linearGradient id="paint42_linear_675_780" x1="139.509" y1="169.2" x2="141.169" y2="169.482" gradientUnits="userSpaceOnUse">
<stop stop-color="#EC11FF"/>
<stop offset="1" stop-color="#1BE4FF"/>
</linearGradient>
<linearGradient id="paint43_linear_675_780" x1="50.9961" y1="137.799" x2="63.5675" y2="144.169" gradientUnits="userSpaceOnUse">
<stop stop-color="#EC11FF"/>
<stop offset="1" stop-color="#1BE4FF"/>
</linearGradient>
<linearGradient id="paint44_linear_675_780" x1="114.754" y1="176.995" x2="121.222" y2="178.003" gradientUnits="userSpaceOnUse">
<stop stop-color="#EC11FF"/>
<stop offset="1" stop-color="#1BE4FF"/>
</linearGradient>
<linearGradient id="paint45_linear_675_780" x1="32.6533" y1="179.789" x2="40.2269" y2="183.786" gradientUnits="userSpaceOnUse">
<stop stop-color="#EC11FF"/>
<stop offset="1" stop-color="#1BE4FF"/>
</linearGradient>
<linearGradient id="paint46_linear_675_780" x1="45.6162" y1="170.357" x2="52.3942" y2="172.038" gradientUnits="userSpaceOnUse">
<stop stop-color="#EC11FF"/>
<stop offset="1" stop-color="#1BE4FF"/>
</linearGradient>
</defs>
</svg>
