<svg width="237" height="306" viewBox="0 0 237 306" fill="none" xmlns="http://www.w3.org/2000/svg">
<path d="M132.14 243.67L131.592 245.602L132.204 248.022L133.993 249.389L133.907 250.859L132.506 251.666L132.246 253.473L130.241 256.152L129.509 255.766L129.423 254.552L127.035 252.692L126.66 250.036L127.024 246.199L127.613 244.44L126.886 243.543L126.597 241.727L128.466 238.896L128.74 239.982L129.9 239.472L130.817 241.014L131.849 241.6L132.14 243.67Z" fill="#000017" stroke="url(#paint0_linear_675_1072)" stroke-opacity="0.5"/>
<path d="M116.681 205.802L116.354 208.405L113.934 208.417L114.768 209.79L113.34 213.834L112.52 214.886L108.761 215.041L106.592 216.449L103.042 215.969L96.8961 214.364L95.9365 212.188L91.6886 213.276L91.1873 214.463L88.5843 213.577L86.3906 213.408L84.4453 212.266L85.1029 210.728L84.9374 209.607L86.2343 209.258L88.4096 211.012L89.0212 209.346L92.8123 209.616L95.8844 208.479L97.9463 208.673L99.2861 209.97L99.6862 208.895L99.0776 204.74L100.621 203.924L102.137 200.944L105.331 203.027L107.748 200.377L109.261 199.89L112.598 201.872L114.617 201.536L116.598 202.758L116.253 203.576L116.681 205.802Z" fill="#000017" stroke="url(#paint1_linear_675_1072)" stroke-opacity="0.5"/>
<path d="M125.305 226.014L126.855 225.999L125.784 228.635L127.846 230.924L127.223 233.703L126.216 233.963L125.416 234.5L124.025 235.863L123.398 239.067L119.613 236.864L117.998 234.419L116.368 233.117L114.402 230.909L113.474 229.064L111.38 226.264L112.274 223.76L113.81 225.149L114.736 223.894L116.735 223.76L120.413 224.764L123.369 224.68L125.305 226.014Z" fill="#000017" stroke="url(#paint2_linear_675_1072)" stroke-opacity="0.5"/>
<path d="M58.0292 184.499L61.1706 185.037L65.146 183.613L67.8621 186.604L70.2202 188.188L69.7335 192.726L68.615 192.978L68.1498 196.694L64.3963 193.677L62.1958 194.194L59.1997 191.049L57.2059 188.345L55.2121 188.235L54.5908 185.847L58.0292 184.499Z" fill="#000017" stroke="url(#paint3_linear_675_1072)" stroke-opacity="0.5"/>
<path d="M141.03 229.711L142.265 232.165L143.928 231.729L147.227 232.657L153.529 232.97L155.658 231.453L160.711 230.064L163.834 232.233L166.358 232.856L164.131 235.308L162.563 239.499L163.947 242.809L160.252 242.033L155.88 243.85L155.834 246.705L151.932 247.244L148.909 245.246L145.472 246.819L142.297 246.653L141.993 242.855L139.844 240.998L140.549 240.178L140.084 239.485L140.805 237.627L142.441 235.791L140.357 233.24L139.971 231.067L141.03 229.711Z" fill="#000017" stroke="url(#paint4_linear_675_1072)" stroke-opacity="0.5"/>
<path d="M144.557 166.445L148.706 166.493L153.365 163.761L154.362 159.619L157.881 157.244L157.477 153.888L160.087 152.619L164.697 149.686L169.216 151.595L169.825 153.475L172.078 152.573L176.274 154.372L176.693 157.881L175.775 159.879L178.465 164.673L180.213 165.995L179.954 167.299L182.847 168.563L184.084 170.469L182.414 172.023L178.951 171.777L178.125 172.438L179.133 174.78L180.188 179.246L176.504 179.656L175.181 181.169L174.906 184.613L173.199 183.955L169.325 184.282L168.199 182.685L166.591 183.876L164.976 182.889L161.596 182.752L156.806 181.104L152.471 180.564L149.145 180.718L146.794 182.58L144.741 182.846L144.66 179.786L143.336 176.567L145.909 175.137L145.935 172.327L144.744 169.623L144.557 166.445Z" fill="#000017" stroke="url(#paint5_linear_675_1072)" stroke-opacity="0.5"/>
<path d="M84.9876 209.621L85.153 210.742L84.4961 212.279L86.4394 213.419L88.6308 213.588L88.2909 216.137L86.3981 217.181L83.2204 216.406L82.2909 218.893L80.2465 219.089L79.5022 218.113L77.0949 220.195L75.0245 220.487L73.1761 219.174L71.7029 216.471L69.6523 217.439L69.7151 214.634L72.8544 211.119L72.7166 209.516L74.6738 210.098L75.8514 209.019L79.5037 209.063L80.3858 207.685L84.9876 209.621Z" fill="#000017" stroke="url(#paint6_linear_675_1072)" stroke-opacity="0.5"/>
<path d="M189.251 279.636L192.176 277.418L188.239 278.975L185.118 278.903L184.492 280.157L184.187 280.185L182.129 280.376L183.141 282.454L185.262 283.123L189.702 281.025L189.566 280.609L189.251 279.636Z" fill="#000017" stroke="url(#paint7_linear_675_1072)" stroke-opacity="0.5"/>
<path d="M116.525 202.684L114.551 201.462L112.539 201.798L109.213 199.815L107.705 200.302L105.296 202.953L102.113 200.869L99.6948 198.064L97.5086 196.485L97.0548 193.696L96.3047 191.716L99.4183 190.258L101.009 188.58L104.086 187.269L105.16 185.977L106.289 186.757L108.2 186.048L110.232 188.232L113.434 188.82L113.167 190.671L115.494 192.054L116.132 190.325L119.072 191.076L119.477 193.165L122.662 193.568L124.633 196.823L123.356 196.83L122.693 198.013L121.709 198.297L121.429 199.784L120.609 200.093L120.493 200.698L119.03 201.369L117.133 201.26L116.525 202.684Z" fill="#000017" stroke="url(#paint8_linear_675_1072)" stroke-opacity="0.5"/>
<path d="M86.3623 158.587L86.4387 161.451L90.7662 163.165L90.7204 165.758L95.0724 164.389L97.4805 162.382L102.315 165.272L104.335 167.583L105.337 171.239L104.143 173.139L105.697 175.658L106.757 179.4L106.423 181.787L108.177 186.163L106.267 186.871L105.138 186.091L104.065 187.383L100.99 188.694L99.3999 190.371L96.2879 191.829L97.0376 193.808L97.4911 196.596L99.6763 198.174L102.094 200.979L100.583 203.96L99.0456 204.775L99.6519 208.931L99.2533 210.006L97.9187 208.709L95.8649 208.515L92.8047 209.652L89.0285 209.381L88.4192 211.048L86.2524 209.294L84.9605 209.643L80.3718 207.704L79.4923 209.083L75.8504 209.039L76.394 204.494L78.5593 200.064L72.3902 198.863L70.3699 197.148L70.6112 194.253L69.7561 192.751L70.2417 188.217L69.5225 181.053L72.0955 181.05L73.1796 178.436L74.247 171.981L73.4469 169.563L74.2836 168.038L77.8615 167.646L78.6555 169.235L81.5629 165.671L80.5841 162.932L80.3871 158.738L83.6229 159.719L86.3623 158.587Z" fill="#000017" stroke="url(#paint9_linear_675_1072)" stroke-opacity="0.5"/>
<path d="M98.264 153.965L95.6783 160.025L91.1707 155.812L90.57 152.677L96.8889 150.15L98.264 153.965ZM90.6053 147.477L89.5529 150.379L88.2701 149.547L85.1682 155.021L86.3389 158.667L83.5827 159.798L80.3272 158.818L78.5788 154.662L78.4482 146.848L79.1657 144.75L80.4009 142.4L84.1957 141.911L85.7075 139.73L89.1734 137.482L89.0275 141.566L87.7523 144.124L88.2685 146.305L90.6053 147.477Z" fill="#000017" stroke="url(#paint10_linear_675_1072)" stroke-opacity="0.5"/>
<path d="M148.089 136.908L148.589 132.168L147.004 133.187L144.27 130.304L143.895 125.58L149.345 123.261L154.774 122.044L159.45 123.428L163.899 123.181L164.548 124.637L161.481 129.39L162.758 136.921L160.912 139.438L157.358 139.425L153.649 136.477L151.76 135.497L148.089 136.908Z" fill="#000017" stroke="url(#paint11_linear_675_1072)" stroke-opacity="0.5"/>
<path d="M5.04417 243.457L5.25983 239.354L3.50879 236.831L9.57386 232.594L14.8208 233.658L20.5785 233.621L25.1418 234.625L28.7004 234.316L35.631 234.512L37.3408 236.787L45.2333 239.43L46.7916 238.177L51.6165 240.796L56.5866 240.047L56.816 243.392L52.7527 247.188L47.258 248.385L46.8757 250.282L44.2408 253.386L42.5892 257.9L44.2607 261.037L41.7802 263.468L40.8535 266.983L37.616 268.055L34.5789 272.163L29.1378 272.244L25.05 272.143L22.3647 274.015L20.7268 276.01L18.6286 275.573L17.0413 273.788L15.8255 270.732L11.8234 269.905L11.4656 268.132L13.0545 266.113L13.6433 264.642L12.1644 263.028L13.3481 259.44L11.6307 256.134L13.4827 255.677L13.6555 253.049L14.3513 252.23L14.4064 247.84L16.3883 246.304L15.1893 243.442L12.6905 243.24L11.9565 243.964L9.42401 243.97L8.35047 241.159L6.59943 241.999L5.04417 243.457Z" fill="#000017" stroke="url(#paint12_linear_675_1072)" stroke-opacity="0.5"/>
<path d="M166.488 27.7119L165.861 35.9525L172.447 43.5618L168.479 51.9152L173.48 64.0489L170.585 72.837L174.456 80.2404L172.698 86.5612L179.065 93.0512L177.447 97.7861L173.451 103.05L164.244 114.344L156.441 115.031L148.878 118.185L141.881 119.983L139.392 115.309L135.227 112.459L136.184 103.724L134.096 95.4773L136.146 90.0197L140.045 84.0085L149.884 73.3036L152.754 71.1901L152.307 66.8639L146.326 61.9461L144.875 57.8288L144.761 40.8719L138.048 33.014L132.316 27.2163L134.895 24.0323L139.674 30.3652L145.289 29.7797L149.905 32.6297L154.007 27.3855L156.115 18.4572L162.792 14.2256L168.31 19.1846L166.488 27.7119Z" fill="#000017" stroke="url(#paint13_linear_675_1072)" stroke-opacity="0.5"/>
<path d="M84.8681 241.974L83.4483 246.391L81.4966 245.233L80.5015 241.376L81.3693 239.227L84.1383 237.006L84.8681 241.974ZM59.1943 191.054L62.1949 194.194L64.4012 193.678L68.1621 196.691L69.1235 197.262L70.3638 197.123L72.3923 198.838L78.5865 200.039L76.414 204.466L75.8681 209.008L74.6875 210.087L72.7281 209.506L72.8661 211.109L69.7214 214.625L69.6586 217.432L71.7115 216.464L73.1881 219.168L73.0102 220.899L74.2751 223.186L72.7848 225.031L73.8933 229.671L76.2238 230.425L75.7317 232.996L71.8373 236.314L63.3586 234.728L57.0985 236.627L56.6063 240.127L51.6233 240.875L46.786 238.255L45.2222 239.508L37.3092 236.867L35.595 234.59L37.8182 231.05L38.637 219.023L34.1998 212.512L31.0291 209.327L24.4593 206.886L24.0254 202.204L29.6002 200.795L36.8186 202.461L35.4555 195.063L39.514 197.886L49.5228 192.735L50.8138 187.231L54.5733 185.859L55.1957 188.244L57.1935 188.356L59.1943 191.054Z" fill="#000017" stroke="url(#paint14_linear_675_1072)" stroke-opacity="0.5"/>
<path d="M19.5118 161.712L17.2158 166.726L13.9789 165.231L11.3301 165.33L12.213 161.408L11.3301 157.436L14.9214 157.128L19.5118 161.712ZM30.8907 130.04L26.3125 138.779L30.6753 137.687L35.3681 137.728L34.2514 144.163L30.4004 151.081L34.8288 151.566L35.1695 152.365L38.9838 161.193L41.9153 162.374L44.5518 170.625L45.7724 173.434L50.9616 174.779L50.4407 179.253L48.2593 181.284L49.9702 184.833L46.1177 188.385L40.3877 188.322L33.0965 190.171L31.0985 188.848L28.2664 191.988L24.3038 191.23L21.2945 193.773L19.0168 192.445L25.2982 185.373L29.1325 183.9L29.0989 183.894L22.4096 182.751L21.1982 180.007L25.674 177.851L23.3277 174.07L24.1419 169.408L30.5073 170.056H30.5149L31.1458 165.872L28.277 161.369L28.2129 161.265L23.0115 159.965L21.9911 157.955L23.5476 154.606L22.1392 152.522L19.8326 156.089L19.5821 148.771L17.419 144.825L18.9741 136.654L22.3012 130.078L25.7214 130.726L30.8907 130.04Z" fill="#000017" stroke="url(#paint15_linear_675_1072)" stroke-opacity="0.5"/>
<path d="M145.495 277.392L147.848 279.161L151.197 278.863L154.399 279.235L154.296 280.145L156.641 279.518L156.103 281.059L149.905 281.503L149.948 280.641L144.697 279.622L145.495 277.392ZM157.994 245.316L156.661 248.875L155.639 249.508L153.018 249.349L150.772 248.813L145.56 250.281L148.544 253.437L146.358 254.346L143.96 254.352L141.684 251.469L140.877 252.699L141.838 256.03L143.991 258.627L142.369 259.833L144.766 262.358L146.897 263.939L146.961 267L144.877 265.246L142.98 265.566L144.249 268.319L142.842 268.61L141.307 267.548L143.149 273.596L142.254 273.618L141.569 271.685L140.69 271.647L140.291 273.664L139.594 273.206L139.75 272.075L138.889 270.476H137.912L138.093 271.766L137.709 272.175L136.764 271.348L136.176 269.785L136.972 268.915L136.424 267.782L135.798 267.197L135.149 267.054L134.395 265.61L135.29 264.816L135.838 264.075L136.699 264.231L137.084 263.604L137.99 263.354L139.038 264.06L139.887 264.319L140.479 263.367L139.04 263.238L138.188 262.941L136.269 263.37L134.398 263.443L132.721 260.932L132.443 260.543L132.699 259.56L130.515 257.793L130.224 256.216L132.225 253.515L132.483 251.694L133.881 250.878L133.967 249.397L136.782 248.896L138.423 247.656L140.756 247.767L141.463 246.776L142.283 246.587L145.466 246.75L148.912 245.183L151.945 247.174L155.856 246.637L155.903 243.792L157.994 245.316Z" fill="#000017" stroke="url(#paint16_linear_675_1072)" stroke-opacity="0.5"/>
<path d="M124.608 219.65L125.648 222.016L127.01 223.747L125.361 226.018L123.422 224.684L120.462 224.768L116.778 223.764L114.777 223.898L113.849 225.153L112.311 223.764L111.416 226.268L113.513 229.068L114.442 230.913L116.412 233.122L118.043 234.424L119.661 236.869L123.451 239.072L122.981 240.056L118.954 237.908L116.47 235.81L112.552 234.067L108.95 229.712L109.815 229.266L107.861 226.751L107.781 224.718L105.027 223.764L103.714 226.368L102.449 224.35L102.545 222.244L102.698 222.146L105.684 222.353L106.467 221.325L107.925 222.32L109.605 222.437L109.59 220.734L111.078 220.108L111.495 217.625L114.905 215.982L116.266 216.746L119.469 219.388L123.007 220.565L124.608 219.65Z" fill="#000017" stroke="url(#paint17_linear_675_1072)" stroke-opacity="0.5"/>
<path d="M113.33 213.821L114.754 209.79L113.922 208.421L116.337 208.408L116.663 205.813L118.845 207.441L120.427 208.133L124.026 207.356L124.371 206.078L126.075 205.889L128.163 204.898L128.628 205.307L130.64 204.509L131.647 202.998L133.052 202.605L137.645 204.557L138.56 203.902L140.94 205.642L141.24 207.348L138.62 208.676L136.592 212.938L133.998 217.143L130.559 218.304L127.883 218.031L124.598 219.644L122.995 220.556L119.452 219.382L116.247 216.746L114.884 215.984L114.05 213.89L113.33 213.821Z" fill="#000017" stroke="url(#paint18_linear_675_1072)" stroke-opacity="0.5"/>
<path d="M17.1798 166.76L17.8853 171.88L14.6496 178.163L7.06054 182.25L1 181.209L4.47082 173.925L2.23535 166.661L8.05921 160.943L11.2948 157.48L12.179 161.448L11.2948 165.366L13.9442 165.267L17.1798 166.76Z" fill="#000017" stroke="url(#paint19_linear_675_1072)" stroke-opacity="0.5"/>
<path d="M110.388 263.776L108.841 268.019L109.483 269.677L108.582 272.414L105.297 270.412L103.113 269.837L97.1179 267.114L97.7199 264.344L102.745 264.838L107.126 264.248L110.388 263.776ZM83.2889 247.28L85.8651 251.278L85.2616 258.614L83.3088 258.266L81.5567 260.098L79.9301 258.643L79.7585 251.958L78.7783 248.748L81.1401 249.031L83.2889 247.28ZM96.8867 214.333L103.029 215.936L102.563 218.972L103.591 221.574L100.172 220.685L96.6799 222.846L96.9173 225.844L96.392 227.553L97.7995 230.586L101.826 233.561L103.986 238.39L108.764 243.036L112.129 243.001L113.176 244.265L111.97 245.401L115.816 247.452L118.97 249.16L122.652 252.086L123.097 253.128L122.295 255.119L119.912 252.521L116.181 251.601L114.373 255.203L117.476 257.252L116.966 260.118L115.173 260.442L112.878 265.104L111.089 265.519L111.106 263.866L111.982 260.949L112.915 259.781L111.238 256.594L109.928 253.799L108.146 253.105L106.878 250.691L104.118 249.669L102.26 247.402L99.0815 247.035L95.7257 244.468L91.7971 240.736L88.8778 237.399L87.5377 231.6L85.401 230.911L81.9074 228.949L79.9301 229.754L77.4488 232.501L75.6645 232.934L76.1562 230.367L73.8281 229.613L72.7207 224.979L74.2094 223.137L72.9459 220.853L73.1235 219.124L74.9722 220.435L77.0429 220.146L79.4507 218.066L80.195 219.04L82.2398 218.845L83.1694 216.36L86.3476 217.134L88.2391 216.091L88.5792 213.545L91.1814 214.431L91.6807 213.246L95.9248 212.16L96.8867 214.333Z" fill="#000017" stroke="url(#paint20_linear_675_1072)" stroke-opacity="0.5"/>
<path d="M132.883 242.451L132.691 243.62L132.151 243.573L131.864 241.501L130.845 240.915L129.938 239.372L130.734 238.078L131.753 237.661L132.342 235.732L133.106 235.41L133.71 236.232L134.506 236.593L135.063 237.515L135.763 237.789L136.591 238.86L137.195 238.828L136.718 240.231L136.208 240.915L136.349 241.345L135.397 241.565L132.883 242.451Z" fill="#000017" stroke="url(#paint21_linear_675_1072)" stroke-opacity="0.5"/>
<path d="M141.311 163.432L140.967 161.55L141.426 159.517L139.53 158.333L135.039 157.021L134.128 150.641L139.039 148.277L146.23 148.773L150.441 148.009L151.044 149.615L153.326 150.108L157.447 153.814L157.851 157.196L154.335 159.589L153.34 163.763L148.684 166.516L144.54 166.467L143.51 164.216L141.311 163.432Z" fill="#000017" stroke="url(#paint22_linear_675_1072)" stroke-opacity="0.5"/>
<path d="M69.7569 192.716L70.6388 194.237L70.39 197.169L69.116 197.308L68.127 196.731L68.6057 192.971L69.7569 192.716Z" fill="#000017" stroke="url(#paint23_linear_675_1072)" stroke-opacity="0.5"/>
<path d="M134.128 150.662L134.275 144.851L136.384 139.915L140.43 137.194L143.837 143.113L147.281 142.96L148.106 136.873L151.762 135.454L153.643 136.44L157.337 139.403L160.876 139.417L162.944 141.241L163.31 145.042L164.689 149.605L160.078 152.548L157.468 153.822L153.343 150.131L151.059 149.64L150.456 148.041L146.241 148.802L139.043 148.308L134.128 150.662Z" fill="#000017" stroke="url(#paint24_linear_675_1072)" stroke-opacity="0.5"/>
<path d="M157.994 205.161L159.021 204.215L161.88 203.578L165.052 205.577L166.821 205.817L168.766 207.534L168.457 209.683L170.024 210.716L170.645 213.338L172.148 214.924L171.844 215.851L172.647 216.479L171.506 216.937L168.971 216.755L168.548 215.898L167.648 216.393L167.952 217.499L166.774 219.463L166.023 221.563L164.94 222.225L164.169 219.436L164.622 216.802L164.486 214.076L162.003 210.346L160.638 207.676L159.305 205.785L157.994 205.161Z" fill="#000017" stroke="url(#paint25_linear_675_1072)" stroke-opacity="0.5"/>
<path d="M128.76 239.901L128.488 238.82L126.63 241.64L126.918 243.448L126.021 243.009L124.822 241.15L122.971 240.014L123.441 239.041L124.069 235.868L125.462 234.517L126.262 233.985L127.399 234.985L128.023 235.787L129.432 236.412L131.064 237.611L130.712 238.105L129.911 239.393L128.76 239.901Z" fill="#000017" stroke="url(#paint26_linear_675_1072)" stroke-opacity="0.5"/>
<path d="M132.158 243.607L132.699 243.654L132.89 242.489L135.406 241.607L136.359 241.387L137.81 241.054L139.785 240.959L141.919 242.788L142.221 246.53L141.409 246.718L140.708 247.697L138.4 247.588L136.775 248.813L133.989 249.308L132.221 247.945L131.615 245.533L132.158 243.607Z" fill="#000017" stroke="url(#paint27_linear_675_1072)" stroke-opacity="0.5"/>
<path d="M64.9196 171.86L64.656 173.252L65.4022 173.494L65.7291 174.12L65.8601 174.689L66.4614 174.902L66.5076 175.204L65.9711 175.61L65.3775 175.647V176.094L65.7892 176.807L65.1956 177.5L65.7953 177.692L67.0164 176.51L67.7549 175.424V174.689L67.4974 174.178L66.7913 173.827L66.9532 173.028L66.7913 172.326L67.4327 170.793L68.0679 169.994L69.8625 169.349L73.4548 169.553L74.2626 171.979L73.1849 178.457L72.0903 181.08L69.4925 181.083L70.2186 188.274L67.8428 186.685L65.1062 183.686L61.1008 185.114L57.9355 184.574L59.0178 182.675L60.4316 180.821L62.4035 178.906L63.5706 175.699L63.9483 172.354L64.9196 171.86Z" fill="#000017" stroke="url(#paint28_linear_675_1072)" stroke-opacity="0.5"/>
<path d="M164.658 1L178.083 10.5259L172.556 13.924L177.258 21.7325L169.955 26.5992L166.487 27.7045L168.306 19.1679L162.798 14.2034L156.133 18.4397L154.028 27.3763L149.936 32.6262L145.326 29.7715L139.722 30.3577L134.952 24.0178L132.378 27.2053L129.716 27.6984L129.086 35.458L120.997 33.5895L119.861 40.0271L115.74 39.9889L112.906 47.9928L108.612 60.0024L101.947 74.5049L103.51 77.9123L102.016 81.8111L97.7583 81.6447L94.9706 90.6607L95.2339 102.941L97.9772 107.487L96.5566 117.756L92.9851 123.575L91.093 128.376L88.2134 123.261L79.7386 132.826L74.0164 134.727L68.0812 130.582L66.5473 121.631L65.1895 101.394L69.1421 95.4786L80.475 87.5648L88.9498 77.5108L96.8076 63.312L107.121 42.3032L114.31 33.6414L126.105 18.5389L135.524 13.0554L142.586 13.7271L149.123 3.04867L156.95 3.63029L164.658 1Z" fill="#000017" stroke="url(#paint29_linear_675_1072)" stroke-opacity="0.5"/>
<path d="M108.168 186.086L106.41 181.72L106.745 179.337L105.683 175.603L104.126 173.089L105.322 171.193L104.319 167.544L107.25 165.418L113.944 162.039L119.346 159.542L123.626 160.792L123.949 162.587L128.086 162.678L133.37 163.51L141.257 163.401L143.457 164.181L144.487 166.421L144.674 169.607L145.864 172.319L145.838 175.137L143.266 176.57L144.589 179.797L144.67 182.866L146.828 188.798L146.369 190.681L144.241 191.46L140.346 196.962L141.452 199.897L140.514 199.519L136.439 197.006L133.351 197.933L131.326 197.261L128.791 198.662L126.628 196.34L124.864 197.232L124.622 196.835L122.649 193.588L119.459 193.186L119.054 191.102L116.11 190.353L115.471 192.077L113.141 190.698L113.409 188.851L110.202 188.264L108.168 186.086Z" fill="#000017" stroke="url(#paint30_linear_675_1072)" stroke-opacity="0.5"/>
<path d="M5.05412 243.553L6.60286 242.099L8.34656 241.261L9.4156 244.065L11.9375 244.059L12.6684 243.337L15.1568 243.538L16.3507 246.393L14.3771 247.925L14.3222 252.305L13.6293 253.122L13.4572 255.743L11.6131 256.199L13.3233 259.497L12.1445 263.077L13.6172 264.687L13.0309 266.154L11.4486 268.168L11.805 269.936L10.0887 271.318L7.8379 270.57L5.63434 271.157L6.28614 266.975L5.88563 263.657L3.97444 263.157L2.9541 261.096L3.29373 257.509L4.99626 255.506L5.29931 253.262L6.19017 249.9L6.09425 247.511L5.24145 245.476L5.05412 243.553Z" fill="#000017" stroke="url(#paint31_linear_675_1072)" stroke-opacity="0.5"/>
<path d="M141.216 207.332L143.074 205.967L145.735 206.675L148.494 206.698L150.491 208.251L151.96 207.276L155.135 206.664L156.218 205.17L158.033 205.171L159.344 205.796L160.677 207.685L162.041 210.353L164.524 214.08L164.66 216.804L164.208 219.435L164.978 222.222L166.897 223.34L168.918 222.363L170.87 223.406L170.97 224.966L168.884 226.261L167.577 225.698L166.374 232.888L163.844 232.268L160.714 230.113L155.649 231.493L153.514 233.001L147.197 232.689L143.89 231.768L142.224 232.201L140.986 229.762L140.199 228.723L141.196 227.714L140.134 226.969L138.784 228.309L136.275 226.57L135.937 224.085L133.315 222.658L132.833 220.72L130.501 218.31L133.95 217.147L136.553 212.933L138.587 208.663L141.216 207.332Z" fill="#000017" stroke="url(#paint32_linear_675_1072)" stroke-opacity="0.5"/>
<path d="M133.36 222.65L135.959 224.077L136.294 226.562L138.78 228.302L140.119 226.962L141.171 227.707L140.183 228.716L140.963 229.755L139.91 231.103L140.294 233.263L142.365 235.798L140.739 237.623L140.023 239.47L140.485 240.158L139.784 240.973L137.807 241.069L136.355 241.405L136.213 240.973L136.724 240.286L137.202 238.876L136.596 238.908L135.768 237.832L135.067 237.557L134.508 236.63L133.711 236.267L133.106 235.441L132.341 235.765L131.751 237.704L130.731 238.122L131.082 237.623L129.456 236.412L128.054 235.782L127.432 234.971L126.3 233.962L127.304 233.703L127.926 230.923L125.87 228.633L126.938 225.997L125.392 226.012L127.033 223.741L125.678 222.01L124.643 219.644L127.909 218.027L130.571 218.301L132.883 220.711L133.36 222.65Z" fill="#000017" stroke="url(#paint33_linear_675_1072)" stroke-opacity="0.5"/>
<path d="M139.023 64.8562L134.861 72.0178L135.531 78.1503L128.705 85.9976L120.416 94.1488L117.292 106.994L120.347 113.204L124.451 117.999L120.508 127.506L116.044 129.438L114.408 142.934L111.969 150.199L106.764 149.458L104.334 155.489L99.3659 155.834L98.002 148.642L94.4095 139.768L91.1445 128.314L93.0364 123.512L96.6076 117.691L98.028 107.418L95.2851 102.871L95.0217 90.5878L97.8076 81.5693L102.066 81.7357L103.558 77.8357L101.996 74.4275L108.66 59.9209L112.952 47.9079L115.787 39.9018L119.908 39.94L121.043 33.5006L129.132 35.3697L129.762 27.6094L132.424 27.1162L138.144 32.9219L144.844 40.7906L144.957 57.7709L146.405 61.8938L139.023 64.8562Z" fill="#000017" stroke="url(#paint34_linear_675_1072)" stroke-opacity="0.5"/>
<path d="M103.055 215.954L106.594 216.434L108.756 215.026L112.502 214.872L113.32 213.819L114.039 213.888L114.872 215.988L111.462 217.631L111.044 220.116L109.556 220.742L109.572 222.447L107.891 222.329L106.433 221.334L105.649 222.363L102.664 222.155L103.617 221.602L102.592 218.995L103.055 215.954Z" fill="#000017" stroke="url(#paint35_linear_675_1072)" stroke-opacity="0.5"/>
<path d="M124.7 196.948L124.941 197.344L126.7 196.453L128.856 198.772L131.384 197.373L133.403 198.044L136.481 197.119L140.544 199.628L139.359 201.315L138.525 203.912L137.613 204.567L133.032 202.616L131.631 203.009L130.627 204.519L128.62 205.317L128.156 204.908L126.074 205.899L124.375 206.088L124.031 207.365L120.442 208.142L118.865 207.451L116.688 205.823L116.263 203.604L116.606 202.789L117.213 201.37L119.107 201.478L120.567 200.81L120.683 200.207L121.502 199.899L121.781 198.417L122.763 198.134L123.425 196.956L124.7 196.948Z" fill="#000017" stroke="url(#paint36_linear_675_1072)" stroke-opacity="0.5"/>
<path d="M84.484 304.713L82.6537 295.768L80.0054 293.734L79.9686 292.509L76.4564 289.478L76.0781 285.619L78.7249 282.737L79.7358 278.442L79.0542 273.421L79.9273 270.691L84.6035 268.533L87.6103 269.176L87.4847 271.876L91.127 269.914L91.4334 270.94L89.2859 273.544L89.2568 275.986L90.7441 277.294L90.1789 281.813L87.3514 284.416L88.1678 287.22L90.3888 287.307L91.4686 289.738L93.1029 290.534L92.8594 294.427L90.7656 295.873L89.4437 297.481L86.4952 299.409L86.9516 301.472L86.581 303.568L84.484 304.713Z" fill="#000017" stroke="url(#paint37_linear_675_1072)" stroke-opacity="0.5"/>
<path d="M202.159 246.566L208.319 248.762L213.321 247.888L217.018 248.393L222.089 245.424L226.664 245.154L230.801 247.95L231.53 249.941L231.116 252.677L234.31 254.067L236 255.694L233.06 257.273L234.4 263.566L233.559 265.25L235.908 269.569L233.85 270.473L232.341 269.108L227.347 268.415L225.503 269.249L220.619 270.081L218.305 269.991L213.362 271.996L209.829 272.013L207.544 271.009L202.816 272.492L201.411 271.456L201.179 274.422L200.029 275.58L198.878 276.736L197.299 274.339L198.926 272.343L196.307 272.796L192.715 271.571L189.762 274.63L183.246 275.225L179.769 272.377L175.141 272.198L174.151 274.402L171.183 275.031L167.031 272.204L162.343 272.301L159.799 266.968L156.662 263.963L158.751 259.711L156.03 257.074L160.793 251.742L167.406 251.517L169.21 247.223L177.395 247.974L182.558 244.277L187.562 242.653L194.666 242.53L202.159 246.566ZM160.416 250.219L156.832 253.243L155.481 250.629L155.541 249.465L156.561 248.831L157.891 245.273L155.798 243.758L160.173 241.947L163.87 242.72L164.38 244.926L168.128 246.768L167.346 248.159L162.246 248.472L160.416 250.219Z" fill="#000017" stroke="url(#paint38_linear_675_1072)" stroke-opacity="0.5"/>
<path d="M180.194 179.307L181.795 179.588L182.879 178.005L184.181 178.354L188.629 177.68L191.368 181.611L190.297 183.004L190.652 185.129L194.072 185.459L195.597 188.401L195.503 189.726L200.95 192.08L204.241 191.022L206.887 194.141L209.394 194.071L215.715 196.22L215.766 198.148L214.024 201.557L214.97 205.109L214.296 207.239L210.146 207.706L207.936 209.475L207.8 212.272L204.377 212.773L201.523 214.791L197.509 215.119L193.815 217.429L191.79 219.001L194.066 221.245L196.164 222.715L200.538 222.349L199.7 224.513L195.006 225.559L189.184 229.028L186.799 227.812L187.745 224.987L183.06 223.216L183.817 222.051L188.655 219.554L188.054 218.308L187.362 218.935L186.68 218.615L180.015 217.056L179.719 214.745L175.746 215.51L174.154 218.911L170.833 223.423L168.888 222.381L166.874 223.358L164.96 222.239L166.04 221.578L166.788 219.479L167.963 217.516L167.66 216.41L168.556 215.916L168.978 216.772L171.505 216.954L172.641 216.496L171.841 215.868L172.144 214.942L170.647 213.357L170.027 210.736L168.466 209.704L168.773 207.556L166.836 205.84L165.072 205.601L161.911 203.602L159.061 204.239L158.038 205.184L156.229 205.182L155.149 206.677L151.985 207.289L150.521 208.265L148.529 206.711L145.78 206.688L143.127 205.979L141.275 207.346L140.976 205.636L138.596 203.891L139.432 201.288L140.621 199.597L141.558 199.975L140.453 197.037L144.346 191.527L146.474 190.747L146.933 188.862L144.776 182.922L146.827 182.655L149.176 180.785L152.5 180.631L156.831 181.172L161.617 182.827L164.994 182.965L166.608 183.955L168.215 182.76L169.339 184.363L173.21 184.035L174.916 184.696L175.191 181.238L176.512 179.719L180.194 179.307Z" fill="#000017" stroke="url(#paint39_linear_675_1072)" stroke-opacity="0.5"/>
<defs>
<linearGradient id="paint0_linear_675_1072" x1="126.597" y1="244.125" x2="131.444" y2="244.814" gradientUnits="userSpaceOnUse">
<stop stop-color="#EC11FF"/>
<stop offset="1" stop-color="#1BE4FF"/>
</linearGradient>
<linearGradient id="paint1_linear_675_1072" x1="84.4453" y1="204.908" x2="99.6558" y2="214.729" gradientUnits="userSpaceOnUse">
<stop stop-color="#EC11FF"/>
<stop offset="1" stop-color="#1BE4FF"/>
</linearGradient>
<linearGradient id="paint2_linear_675_1072" x1="111.38" y1="228.398" x2="121.146" y2="231.883" gradientUnits="userSpaceOnUse">
<stop stop-color="#EC11FF"/>
<stop offset="1" stop-color="#1BE4FF"/>
</linearGradient>
<linearGradient id="paint3_linear_675_1072" x1="54.5908" y1="187.577" x2="63.6218" y2="191.156" gradientUnits="userSpaceOnUse">
<stop stop-color="#EC11FF"/>
<stop offset="1" stop-color="#1BE4FF"/>
</linearGradient>
<linearGradient id="paint4_linear_675_1072" x1="139.844" y1="235.024" x2="154.007" y2="242.128" gradientUnits="userSpaceOnUse">
<stop stop-color="#EC11FF"/>
<stop offset="1" stop-color="#1BE4FF"/>
</linearGradient>
<linearGradient id="paint5_linear_675_1072" x1="143.336" y1="160.27" x2="167.031" y2="169.439" gradientUnits="userSpaceOnUse">
<stop stop-color="#EC11FF"/>
<stop offset="1" stop-color="#1BE4FF"/>
</linearGradient>
<linearGradient id="paint6_linear_675_1072" x1="69.6523" y1="211.564" x2="79.8705" y2="216.588" gradientUnits="userSpaceOnUse">
<stop stop-color="#EC11FF"/>
<stop offset="1" stop-color="#1BE4FF"/>
</linearGradient>
<linearGradient id="paint7_linear_675_1072" x1="182.129" y1="279.147" x2="187.137" y2="282.073" gradientUnits="userSpaceOnUse">
<stop stop-color="#EC11FF"/>
<stop offset="1" stop-color="#1BE4FF"/>
</linearGradient>
<linearGradient id="paint8_linear_675_1072" x1="96.3047" y1="191.121" x2="110.803" y2="199.146" gradientUnits="userSpaceOnUse">
<stop stop-color="#EC11FF"/>
<stop offset="1" stop-color="#1BE4FF"/>
</linearGradient>
<linearGradient id="paint9_linear_675_1072" x1="69.5225" y1="174.484" x2="93.9097" y2="180.444" gradientUnits="userSpaceOnUse">
<stop stop-color="#EC11FF"/>
<stop offset="1" stop-color="#1BE4FF"/>
</linearGradient>
<linearGradient id="paint10_linear_675_1072" x1="78.4482" y1="144.314" x2="90.6587" y2="147.874" gradientUnits="userSpaceOnUse">
<stop stop-color="#EC11FF"/>
<stop offset="1" stop-color="#1BE4FF"/>
</linearGradient>
<linearGradient id="paint11_linear_675_1072" x1="143.895" y1="127.315" x2="155.849" y2="132.023" gradientUnits="userSpaceOnUse">
<stop stop-color="#EC11FF"/>
<stop offset="1" stop-color="#1BE4FF"/>
</linearGradient>
<linearGradient id="paint12_linear_675_1072" x1="3.50879" y1="245.75" x2="34.0788" y2="258.2" gradientUnits="userSpaceOnUse">
<stop stop-color="#EC11FF"/>
<stop offset="1" stop-color="#1BE4FF"/>
</linearGradient>
<linearGradient id="paint13_linear_675_1072" x1="132.316" y1="46.2732" x2="162.914" y2="50.7594" gradientUnits="userSpaceOnUse">
<stop stop-color="#EC11FF"/>
<stop offset="1" stop-color="#1BE4FF"/>
</linearGradient>
<linearGradient id="paint14_linear_675_1072" x1="24.0254" y1="204.202" x2="60.6347" y2="216.408" gradientUnits="userSpaceOnUse">
<stop stop-color="#EC11FF"/>
<stop offset="1" stop-color="#1BE4FF"/>
</linearGradient>
<linearGradient id="paint15_linear_675_1072" x1="11.3301" y1="149.353" x2="36.7459" y2="154.595" gradientUnits="userSpaceOnUse">
<stop stop-color="#EC11FF"/>
<stop offset="1" stop-color="#1BE4FF"/>
</linearGradient>
<linearGradient id="paint16_linear_675_1072" x1="130.224" y1="255.219" x2="147.745" y2="259.499" gradientUnits="userSpaceOnUse">
<stop stop-color="#EC11FF"/>
<stop offset="1" stop-color="#1BE4FF"/>
</linearGradient>
<linearGradient id="paint17_linear_675_1072" x1="102.449" y1="223.277" x2="117.183" y2="228.263" gradientUnits="userSpaceOnUse">
<stop stop-color="#EC11FF"/>
<stop offset="1" stop-color="#1BE4FF"/>
</linearGradient>
<linearGradient id="paint18_linear_675_1072" x1="113.33" y1="208.045" x2="128.07" y2="215.647" gradientUnits="userSpaceOnUse">
<stop stop-color="#EC11FF"/>
<stop offset="1" stop-color="#1BE4FF"/>
</linearGradient>
<linearGradient id="paint19_linear_675_1072" x1="1" y1="164.986" x2="11.7401" y2="167.415" gradientUnits="userSpaceOnUse">
<stop stop-color="#EC11FF"/>
<stop offset="1" stop-color="#1BE4FF"/>
</linearGradient>
<linearGradient id="paint20_linear_675_1072" x1="72.7207" y1="230.419" x2="103.996" y2="239.092" gradientUnits="userSpaceOnUse">
<stop stop-color="#EC11FF"/>
<stop offset="1" stop-color="#1BE4FF"/>
</linearGradient>
<linearGradient id="paint21_linear_675_1072" x1="129.938" y1="237.898" x2="134.406" y2="239.208" gradientUnits="userSpaceOnUse">
<stop stop-color="#EC11FF"/>
<stop offset="1" stop-color="#1BE4FF"/>
</linearGradient>
<linearGradient id="paint22_linear_675_1072" x1="134.128" y1="153.617" x2="147.561" y2="159.328" gradientUnits="userSpaceOnUse">
<stop stop-color="#EC11FF"/>
<stop offset="1" stop-color="#1BE4FF"/>
</linearGradient>
<linearGradient id="paint23_linear_675_1072" x1="68.127" y1="194.107" x2="69.7528" y2="194.402" gradientUnits="userSpaceOnUse">
<stop stop-color="#EC11FF"/>
<stop offset="1" stop-color="#1BE4FF"/>
</linearGradient>
<linearGradient id="paint24_linear_675_1072" x1="134.128" y1="141.02" x2="149.79" y2="149.664" gradientUnits="userSpaceOnUse">
<stop stop-color="#EC11FF"/>
<stop offset="1" stop-color="#1BE4FF"/>
</linearGradient>
<linearGradient id="paint25_linear_675_1072" x1="157.994" y1="209.229" x2="167.167" y2="211.62" gradientUnits="userSpaceOnUse">
<stop stop-color="#EC11FF"/>
<stop offset="1" stop-color="#1BE4FF"/>
</linearGradient>
<linearGradient id="paint26_linear_675_1072" x1="122.971" y1="236.853" x2="127.979" y2="238.274" gradientUnits="userSpaceOnUse">
<stop stop-color="#EC11FF"/>
<stop offset="1" stop-color="#1BE4FF"/>
</linearGradient>
<linearGradient id="paint27_linear_675_1072" x1="131.615" y1="243.489" x2="137.637" y2="246.026" gradientUnits="userSpaceOnUse">
<stop stop-color="#EC11FF"/>
<stop offset="1" stop-color="#1BE4FF"/>
</linearGradient>
<linearGradient id="paint28_linear_675_1072" x1="57.9355" y1="175.083" x2="68.0253" y2="177.971" gradientUnits="userSpaceOnUse">
<stop stop-color="#EC11FF"/>
<stop offset="1" stop-color="#1BE4FF"/>
</linearGradient>
<linearGradient id="paint29_linear_675_1072" x1="65.1895" y1="41.5233" x2="135.181" y2="61.1223" gradientUnits="userSpaceOnUse">
<stop stop-color="#EC11FF"/>
<stop offset="1" stop-color="#1BE4FF"/>
</linearGradient>
<linearGradient id="paint30_linear_675_1072" x1="104.126" y1="171.771" x2="129.544" y2="180.692" gradientUnits="userSpaceOnUse">
<stop stop-color="#EC11FF"/>
<stop offset="1" stop-color="#1BE4FF"/>
</linearGradient>
<linearGradient id="paint31_linear_675_1072" x1="2.9541" y1="250.369" x2="11.7193" y2="251.665" gradientUnits="userSpaceOnUse">
<stop stop-color="#EC11FF"/>
<stop offset="1" stop-color="#1BE4FF"/>
</linearGradient>
<linearGradient id="paint32_linear_675_1072" x1="130.501" y1="213.603" x2="152.451" y2="224.191" gradientUnits="userSpaceOnUse">
<stop stop-color="#EC11FF"/>
<stop offset="1" stop-color="#1BE4FF"/>
</linearGradient>
<linearGradient id="paint33_linear_675_1072" x1="124.643" y1="225.112" x2="135.787" y2="227.914" gradientUnits="userSpaceOnUse">
<stop stop-color="#EC11FF"/>
<stop offset="1" stop-color="#1BE4FF"/>
</linearGradient>
<linearGradient id="paint34_linear_675_1072" x1="91.1445" y1="66.1215" x2="127.357" y2="71.2782" gradientUnits="userSpaceOnUse">
<stop stop-color="#EC11FF"/>
<stop offset="1" stop-color="#1BE4FF"/>
</linearGradient>
<linearGradient id="paint35_linear_675_1072" x1="102.592" y1="216.434" x2="109.306" y2="219.604" gradientUnits="userSpaceOnUse">
<stop stop-color="#EC11FF"/>
<stop offset="1" stop-color="#1BE4FF"/>
</linearGradient>
<linearGradient id="paint36_linear_675_1072" x1="116.263" y1="199.995" x2="127.271" y2="207.58" gradientUnits="userSpaceOnUse">
<stop stop-color="#EC11FF"/>
<stop offset="1" stop-color="#1BE4FF"/>
</linearGradient>
<linearGradient id="paint37_linear_675_1072" x1="76.0781" y1="279.497" x2="87.19" y2="281.231" gradientUnits="userSpaceOnUse">
<stop stop-color="#EC11FF"/>
<stop offset="1" stop-color="#1BE4FF"/>
</linearGradient>
<linearGradient id="paint38_linear_675_1072" x1="155.481" y1="252.489" x2="189.352" y2="278.492" gradientUnits="userSpaceOnUse">
<stop stop-color="#EC11FF"/>
<stop offset="1" stop-color="#1BE4FF"/>
</linearGradient>
<linearGradient id="paint39_linear_675_1072" x1="138.596" y1="193.24" x2="179.921" y2="213.84" gradientUnits="userSpaceOnUse">
<stop stop-color="#EC11FF"/>
<stop offset="1" stop-color="#1BE4FF"/>
</linearGradient>
</defs>
</svg>
