<svg width="237" height="286" viewBox="0 0 237 286" fill="none" xmlns="http://www.w3.org/2000/svg">
<path d="M143.692 62.1992L143.533 58.0053L146.136 58.4167L147.308 59.0953L149.711 62.595L149.166 66.1266L146.192 68.0957L144.554 65.8765L143.692 62.1992ZM153.17 71.1832L153.409 70.1244L151.998 68.3849L147.949 68.247L148.485 70.8592L152.253 71.4468L153.17 71.1832ZM179.237 104.55L181.449 108.176L182.032 108.584L184.233 107.678L186.399 107.821L188.536 108.017L188.359 106.139L184.891 102.315L180.289 101.55L179.322 102.023L179.237 104.55ZM132.317 59.9956L130.375 62.9716L134.851 63.3383L138.161 66.4919L141.445 67.5563L140.662 63.5202L139.123 58.7407L133.686 54.9369L129.738 53.4845L129.885 57.5256L132.317 59.9956ZM150.889 52.7213L154.566 52.6389L152.977 55.4826L152.946 59.2467L155.107 63.3368L159.274 64.5917L162.831 63.8883L166.547 56.2643L169.308 53.1043L166.884 49.5726L165.295 42.0062L161.997 39.7409L158.614 37.1245L156.045 30.3305L151.369 30.9963L152.247 33.9445L150.186 34.8299L148.793 38.6117L147.399 43.9113L148.672 49.071L150.889 52.7213ZM105.17 90.6506L107.981 92.0384L117.065 91.1161L112.889 94.5063L113.145 96.9444L116.203 96.7767L121.276 93.5222L128.085 92.3333L129.309 88.6254L128.955 84.6682L126.848 84.3114L125.058 85.6822L124.269 82.7453L123.592 78.6956L121.515 77.6901L119.673 80.8246L122.549 88.6759L119.036 88.0712L115.464 83.2477L109.805 80.4067L107.912 82.7666L105.17 90.6506ZM121.351 60.7588L118.736 58.7002L117.658 58.2319L115.595 61.2761L115.563 62.6987L118.902 62.7087L121.351 60.7588ZM120.298 69.5403L120.967 66.7086L118.131 65.1986L115.195 66.1828L113.566 69.2106L116.549 72.2001L120.298 69.5403ZM141.167 93.1597L144.483 92.3738L145.398 86.51L145.336 82.2855L143.798 78.3346L143.644 79.4687L140.816 78.972L137.787 81.8762L135.624 81.6133L135.751 87.9546L139.047 87.3379L139.006 91.9318L141.167 93.1597ZM138.811 125.565L135.182 122.774L131.805 119.784L131.181 115.393L129.919 109.051L127.667 106.323L125.668 105.224L123.899 106.23L125.327 113.042L124.317 115.693L122.672 109.313L120.834 107.107L118.562 110.527L115.766 107.145L111.292 109.183L112.295 106.012L110.24 104.679L104.857 108.828L103.457 111.465L101.768 116.276L105.28 117.923L108.381 117.836L103.718 120.295L104.778 122.519L107.63 122.639L111.926 122.163L115.815 123.555L113.19 124.582L110.355 124.318L107.251 125.319L105.914 125.94L108.391 130.455L110.176 129.828L112.922 131.352L114.011 133.946L117.588 133.431L122.684 132.609L126.459 130.729L128.797 130.388L132.256 131.891L135.895 132.758L136.572 130.726L135.289 128.559L138.591 128.101L138.811 125.565ZM144.365 124.868L142.959 127.383L141.189 129.149L143.935 131.665L145.573 131.059L148.284 132.734L149.534 130.793L148.308 128.64L147.705 127.555L146.499 126.519L144.365 124.868ZM131.734 103.946L130.205 102.4L127.511 102.682L126.828 103.666L129.964 108.464L131.734 103.946ZM152.307 113.306L154.464 108.384L156.862 107.07L159.866 100.858L156.025 99.1024L151.835 98.8488L149.84 100.817L148.789 103.824L148.758 107.247L150.013 113.065L152.307 113.306ZM164.61 96.9586L168.738 96.8271L174.506 95.6802L177.08 96.5862L180.078 94.9803L181.333 92.9622L180.884 89.751L178.73 86.7459L175.463 86.1767L171.368 86.8653L168.172 88.5999L165.238 87.9326L162.526 87.5809L161.248 85.6609L158.941 83.8034L159.4 80.6533L157.664 77.8237L153.705 77.8429L151.473 75.009L147.328 74.4413L146.572 78.0625L148.903 80.7237L153.062 81.7568L155.081 85.3773L155.325 89.3581L156.021 93.6145L161.365 96.0426L164.61 96.9586ZM100.769 83.9767L104.507 80.3861L106.386 79.969L107.935 76.9646L108.211 70.0228L105.452 71.3829L102.369 71.255L98.2393 77.074L94.8263 83.453L97.5508 85.2366L100.769 83.9767ZM152.532 95.4692L153.626 92.5273L152.892 90.0701L151.136 87.286L148.246 89.4305L147.175 92.9295L149.612 94.91L152.532 95.4692ZM146.574 103.596L146.051 101.549L142.464 102.447L140.066 100.95L137.686 104.364L139.901 108.828L135.796 107.993L135.755 110.133L140.753 115.14L142.144 117.542L144.081 118.061L147.379 115.636L147.74 109.801L144.696 106.906L146.574 103.596ZM93.5081 212.841L92.6784 211.176L90.671 209.919L89.6771 208.46L88.9929 207.391L87.1032 207.061L85.8689 206.587L83.7583 205.903L83.5848 206.629L84.3593 208.32L86.429 208.875L86.7912 209.75L88.5905 210.817L89.1937 211.892L92.4955 213.256L93.5081 212.841ZM180.791 157.679L179.355 156.18L177.876 156.534L177.697 154.358L175.394 152.912L173.192 151.301L172.023 150.056L170.994 150.79L170.62 148.685L169.167 148.29L168.482 152.649L168.225 156.278L166.477 158.507L169.202 158.077L169.892 160.671L172.754 158.379L174.748 155.978L175.877 158.013L179.006 159.087L180.791 157.679ZM94.3486 120.341L99.6413 117.372V114.619L102.135 110.066L107.065 105.313L109.593 103.56L107.435 100.576L105.482 98.4778L100.346 98.0714L97.474 96.5393L90.6775 97.6941L92.644 102.117L90.8998 106.687L89.5071 111.566L88.6443 114.308L93.2873 117.643L94.3486 120.341ZM190.618 139.743L190.845 139.026L190.823 136.77L189.253 135.289L187.41 136.033L186.556 138.994L187.058 141.523L189.312 141.266L190.618 139.743ZM207.701 145.105L210.862 149.796L213.336 151.824L216.865 146.232L217.491 142.727L214.329 142.39L211.438 137.632L208.246 136.466L203.51 132.936L207.202 130.354L205.3 124.994L203.549 122.611L198.694 120.229L196.599 116.286L192.865 117.701L192.604 114.956L189.835 111.885L185.373 108.535L183.471 111.174L179.493 113.066L179.792 108.757L176.343 101.614L171.246 104.501L169.388 109.973L167.804 105.764L169.284 101.237L164.091 103.121L162.024 105.957L160.478 111.941L161.116 118.372L163.972 118.399L161.87 121.188L163.542 123.292L166.803 124.184L171.056 125.901L178.374 127.193L182.02 126.451L183.096 124.731L184.682 126.713L186.454 127.041L188.582 130.569L187.294 131.976L191.368 133.842L194.448 136.456L195.223 138.268L195.776 140.569L193.175 145.49L192.473 147.937L193.145 149.658L189.006 150.269L185.227 150.353L183.902 153.813L185.603 155.395L191.417 154.662L191.385 153.32L194.313 155.557L197.313 157.885L196.611 159.145L199.048 161.291L203.363 163.803L208.816 165.502L208.489 164.018L206.395 161.409L203.553 157.591L208.597 161.142L211.133 162.321L211.826 159.168L210.517 154.692L209.688 153.464L206.959 151.307L204.844 148.528L205.098 145.727L207.701 145.105ZM160.489 30.2971L162.164 35.4794L165.719 39.6577L172.755 38.8846L177.283 40.283L174.145 44.5843L172.557 43.3223L167.061 42.8163L167.914 48.7242L170.754 53.0133L170.184 56.7091L166.619 59.1692L164.99 63.0569L168.252 64.9371L170.993 71.012L165.617 66.9594L164.39 67.6281L165.381 74.2913L161.663 76.3045L161.915 80.4621L165.717 80.907L168.71 81.9288L174.616 80.6178L179.871 82.9407L185.244 77.8308L185.2 75.6855L181.764 76.028L181.483 74.0092L184.292 71.2884L185.246 67.6281L188.353 64.9072L190.263 61.5234L188.6 56.4761L189.99 54.5937L187.218 53.2528L193.306 52.096L194.588 49.8597L198.736 48.0093L202.175 38.4355L205.451 34.923L210.196 27.0184L205.819 27.088L207.637 24.0303L212.502 21.1929L217.408 14.8665L217.496 10.7941L213.816 6.50071L209.498 4.41867L204.124 3.1261L199.769 2.06802L195.414 1L189.609 3.82603L188.54 2.03036L182.394 2.7239L178.788 4.55084L176.134 7.1445L174.604 15.4897L172.433 11.2382L169.939 10.4267L166.983 16.0902L163.038 18.4692L160.69 18.9411L157.7 21.6676L158.14 26.3902L160.489 30.2971ZM213.847 218.609L213.142 217.199L212.383 218.096L212.886 219.063L215.436 220.28L216.181 220.094L217.17 218.917L215.305 218.996L213.847 218.609ZM172.968 163.277L173.409 164.435L174.828 164.533L177.182 162.162L177.225 161.318L174.463 161.276L172.968 163.277ZM217.524 210.489L215.468 209.21L212.824 208.438L212.128 208.697L213.998 210.146L216.604 211.101L217.583 211.047L217.524 210.489ZM235.374 213.896L235.118 212.308L233.711 212.822L234.334 210.61L232.329 209.671L231.401 210.415L229.617 209.577L230.323 208.505L228.972 207.842L227.66 208.886L228.99 206.168L230.064 204.178L230.453 203.313L229.519 203.173L227.775 204.272L226.528 206.07L224.451 210.985L222.762 212.802L223.637 213.615L222.384 214.662L222.693 215.537L226.596 215.626L228.756 215.45L230.686 216.164L229.266 217.537L230.465 217.638L232.798 215.097L233.358 215.472L232.922 217.865L234.244 218.412L235.154 218.305L236 215.736L235.374 213.896ZM220.173 217.281L218.157 220.521L214.835 220.934L212.223 219.506L211.567 217.325L210.929 214.154L212.828 212.144L211.048 210.659L208.04 210.962L203.822 213.47L200.594 217.345L198.887 217.822L201.201 215.119L204.101 211.158L206.665 209.809L208.349 207.597L210.431 207.382L213.449 207.404L217.75 208.057L221.149 207.554L223.68 204.979L226.994 203.851L228.437 202.728L229.896 201.516L229.749 197.829L228.941 196.57L227.375 196.124L226.578 193.248L225.288 192.148L222.081 191.25L220.273 189.245L217.599 187.237L218.407 184.965L216.183 180.517L213.565 175.618L211.998 172.078L210.668 173.933L208.745 178.234L205.833 180.347L204.376 178.105L202.539 177.503L201.871 172.536L201.931 169.127L198.345 168.816L197.735 167.206L195.258 164.764L193.386 163.315L191.721 164.44L189.653 164.024L186.206 162.855L184.806 163.847L185.478 170.369L186.354 174.004L183.981 178.091L186.424 180.949L187.789 184.104L187.953 186.535L186.839 189.025L184.561 191.485L181.341 193.105L182.76 194.903L183.81 200.162L182.722 203.485L181.173 204.521L178.181 201.478L176.725 197.805L176.099 194.424L176.428 191.443L174.241 191.107L170.92 190.905L168.789 189.426L166.27 188.45L164.831 186.76L162.821 185.385L159.085 183.801L156.271 184.526L155.331 181.721L154.425 178.175L151.471 177.534L151.582 172.979L152.361 169.793L154.542 165.103L157.003 161.62L159.342 161.073L159.476 158.197L161.063 156.291L163.941 155.99L166.274 152.869L166.86 150.81L168.799 146.742L169.398 144.255L171.477 145.752L174.274 144.988L178.211 141.46L178.467 138.945L177.049 136.117L178.545 133.234L178.424 130.488L175.725 127.679L172.752 126.833L169.895 126.39L169.785 132.582L168.318 137.24L166.218 141.009L164.273 137.494L164.872 133.511L162.468 129.945L159.781 134.273L159.79 128.594L156.05 127.439L157.835 124.586L155.103 117.775L153.069 115.001L150.417 113.976L148.04 118.544L147.878 125.183L150.225 127.522L152.379 131.008L151.47 136.485L149.853 136.342L148.573 140.523L148.585 135.546L145.469 133.711L143.681 134.659L143.913 137.979L140.98 137.853L137.858 138.686L134.305 136.303L132.06 136.728L130.039 133.805L128.416 132.498L126.807 133.047L124.36 133.299L123.061 135.157L125.113 137.421L122.926 140.068L120.783 136.925L119.07 137.85L113.642 138.471L110.008 137.342L112.837 134.687L110.125 131.914L108.155 132.269L105.387 131.329L100.681 129.275L97.606 126.878L95.1705 126.545L94.411 128.22L91.9404 129.151L91.6686 124.781L88.9914 128.693L85.5914 123.491L84.2015 122.857L83.7526 125.632L82.2523 126.985L80.871 124.574L77.5799 126.029L74.5679 128.552L71.5809 127.856L69.1454 129.629L67.3805 131.957L65.2835 131.447L62.1179 128.747L58.3672 127.371L58.3535 147.018L58.3428 172.194L60.3229 172.313L62.2814 173.418L63.6856 175.149L65.4721 177.705L67.4285 175.535L69.4473 174.261L70.5145 176.289L71.8692 177.873L73.7101 179.596L74.9673 182.292L77.0234 186.471L80.4421 188.747L80.4981 190.967L79.38 192.641L79.4223 194.406L81.855 196.857L82.2078 199.529L84.7803 200.921L84.4941 202.903L85.6143 205.716L89.2561 207.012L90.6926 208.353L94.5853 211.357L94.855 211.365H100.566H106.535H108.512H114.641H120.572H126.605H132.642H139.475L146.354 211.363L150.516 211.365L150.522 210.197L151.202 210.182L151.56 211.848L152.185 212.358L153.589 212.543L155.642 213.021L157.593 213.946L159.222 213.559L161.695 214.333L162.511 213.154L163.652 212.683L164.099 211.95L164.552 211.556L166.422 212.164L167.808 212.237L168.288 212.639L168.961 214.332L171.218 214.777L170.863 215.617L171.658 216.478L171.315 217.587L172.159 217.951L171.738 218.926L172.278 219.015L172.656 218.591L173.05 219.229L174.558 219.585L176.087 219.615L177.717 219.908L179.516 220.461L180.172 221.354L181.475 223.512L180.827 224.435L179.193 224.051L178.178 222.317L178.432 224.083L177.474 225.625L177.579 226.931L177.413 227.694L176.112 228.595L175.166 230.081L174.724 231.019L175.828 231.188L177.32 230.334L178.199 229.582L178.796 229.459L179.902 229.73L180.437 229.31L181.418 228.968L183.17 228.635L182.991 227.818L182.895 227.849L182.281 227.99L181.48 227.732L182.081 226.796L182.695 226.471L184.114 226.07L185.813 225.695L186.706 226.216L187.266 225.612L187.904 225.228L188.331 225.431L188.354 225.474L190.413 223.535L191.32 223.019L194.375 222.999L198.081 222.997L198.282 222.302L198.925 222.16L199.779 221.723L200.493 220.429L201.106 218.192L202.64 215.992L203.309 216.761L204.657 216.264L205.55 217.107L205.548 221.033L206.863 222.633L209.098 222.29L212.316 222.197L208.825 224.514L208.902 226.853L210.429 227.054L212.675 225.069L214.67 223.944L219.123 222.273L221.611 220.414L220.313 219.377L220.173 217.281ZM181.688 166.755L182.475 164.535L181.964 163.659L181.14 163.565L180.364 164.847L180.27 165.141L180.798 166.399L181.688 166.755Z" fill="#000017"/>
<path d="M79.38 192.641L80.4981 190.967L80.4421 188.747L77.0234 186.471L74.9673 182.292L73.7101 179.596L71.8692 177.873L70.5145 176.289L69.4473 174.261L67.4285 175.535L65.4721 177.705L63.6856 175.149L62.2814 173.418L60.3229 172.313L58.3428 172.194L58.3535 147.018L58.3672 127.371L62.1179 128.747L65.2835 131.447L67.3805 131.957L69.1454 129.629L71.5809 127.856L74.5679 128.552L77.5799 126.029L80.871 124.574L82.2523 126.985L83.7526 125.632L84.2015 122.857L85.5914 123.491L88.9914 128.693L91.6686 124.781L91.9404 129.151L94.411 128.22L95.1705 126.545L97.606 126.878L100.681 129.275L105.387 131.329L108.155 132.269L110.125 131.914L112.837 134.687L110.008 137.342L113.642 138.471L119.07 137.85L120.783 136.925L122.926 140.068L125.113 137.421L123.061 135.157L124.36 133.299L126.807 133.047L128.416 132.498L130.039 133.805L132.06 136.728L134.305 136.303L137.858 138.686L140.98 137.853L143.913 137.979L143.681 134.659L145.469 133.711L148.585 135.546L148.573 140.523L149.853 136.342L151.47 136.485L152.379 131.008L150.225 127.522L147.878 125.183L148.04 118.544L150.417 113.976L153.069 115.001L155.103 117.775L157.835 124.586L156.05 127.439L159.79 128.594L159.781 134.273L162.468 129.945L164.872 133.511L164.273 137.494L166.218 141.009L168.318 137.24L169.785 132.582L169.895 126.39L172.752 126.833L175.725 127.679L178.424 130.488L178.545 133.234L177.049 136.117L178.467 138.945L178.211 141.46L174.274 144.988L171.477 145.752L169.398 144.255L168.799 146.742L166.86 150.81L166.274 152.869L163.941 155.99L161.063 156.291L159.476 158.197L159.342 161.073L157.003 161.62L154.542 165.103L152.361 169.793L151.582 172.979L151.471 177.534L154.425 178.175L155.331 181.721L156.271 184.526L159.085 183.801L162.821 185.385L164.831 186.76L166.27 188.45L168.789 189.426L170.92 190.905L174.241 191.107L176.428 191.443L176.099 194.424L176.725 197.805L178.181 201.478L181.173 204.521L182.722 203.485L183.81 200.162L182.76 194.903L181.341 193.105L184.561 191.485L186.839 189.025L187.953 186.535L187.789 184.104L186.424 180.949L183.981 178.091L186.354 174.004L185.478 170.369L184.806 163.847L186.206 162.855L189.653 164.024L191.721 164.44L193.386 163.315L195.258 164.764L197.735 167.206L198.345 168.816L201.931 169.127L201.871 172.536L202.539 177.503L204.376 178.105L205.833 180.347L208.745 178.234L210.668 173.933L211.998 172.078L213.565 175.618L216.183 180.517L218.407 184.965L217.599 187.237L220.273 189.245L222.081 191.25L225.288 192.148L226.578 193.248L227.375 196.124L228.941 196.57L229.749 197.829L229.896 201.516L228.437 202.728L226.994 203.851L223.68 204.979L221.149 207.554L217.75 208.057L213.449 207.404L210.431 207.382L208.349 207.597L206.665 209.809L204.101 211.158L201.201 215.119L198.887 217.822L200.594 217.345L203.822 213.47L208.04 210.962L211.048 210.659L212.828 212.144L210.929 214.154L211.567 217.325L212.223 219.506L214.835 220.934L218.157 220.521L220.173 217.281L220.313 219.377L221.611 220.414L219.123 222.273L214.67 223.944L212.675 225.069L210.429 227.054L208.902 226.853L208.825 224.514L212.316 222.197L209.098 222.29L206.863 222.633L205.548 221.033L205.55 217.107L204.657 216.264L203.309 216.761L202.64 215.992L201.106 218.192L200.493 220.429L199.779 221.723L198.925 222.16L198.282 222.302L198.081 222.997L194.375 222.999L191.32 223.019L190.413 223.535L188.354 225.474L188.331 225.431L187.904 225.228L187.266 225.612L186.706 226.216L185.813 225.695L184.114 226.07L182.695 226.471L182.081 226.796L181.48 227.732L182.281 227.99L182.895 227.849L182.991 227.818L183.17 228.635M79.38 192.641L79.4223 194.406L81.855 196.857L82.2078 199.529L84.7803 200.921L84.4941 202.903L85.6143 205.716L89.2561 207.012L90.6926 208.353L94.5853 211.357L94.855 211.365H100.566H106.535H108.512H114.641H120.572H126.605H132.642H139.475L146.354 211.363L150.516 211.365L150.522 210.197L151.202 210.182L151.56 211.848L152.185 212.358L153.589 212.543L155.642 213.021L157.593 213.946L159.222 213.559L161.695 214.333L162.511 213.154L163.652 212.683L164.099 211.95L164.552 211.556L166.422 212.164L167.808 212.237L168.288 212.639L168.961 214.332L171.218 214.777L170.863 215.617L171.658 216.478L171.315 217.587L172.159 217.951L171.738 218.926L172.278 219.015L172.656 218.591L173.05 219.229L174.558 219.585L176.087 219.615L177.717 219.908L179.516 220.461L180.172 221.354L181.475 223.512L180.827 224.435L179.193 224.051L178.178 222.317L178.432 224.083L177.474 225.625L177.579 226.931L177.413 227.694L176.112 228.595L175.166 230.081L174.724 231.019L175.828 231.188L177.32 230.334L178.199 229.582L178.796 229.459L179.902 229.73L180.437 229.31L181.418 228.968L183.17 228.635M79.38 192.641L80.4981 190.968M183.17 228.635V228.637M143.692 62.1992L143.533 58.0053L146.136 58.4167L147.308 59.0953L149.711 62.595L149.166 66.1266L146.192 68.0957L144.554 65.8765L143.692 62.1992ZM153.17 71.1832L153.409 70.1244L151.998 68.3849L147.949 68.247L148.485 70.8592L152.253 71.4468L153.17 71.1832ZM179.237 104.55L181.449 108.176L182.032 108.584L184.233 107.678L186.399 107.821L188.536 108.017L188.359 106.139L184.891 102.315L180.289 101.55L179.322 102.023L179.237 104.55ZM132.317 59.9956L130.375 62.9716L134.851 63.3383L138.161 66.4919L141.445 67.5563L140.662 63.5202L139.123 58.7407L133.686 54.9369L129.738 53.4845L129.885 57.5256L132.317 59.9956ZM150.889 52.7213L154.566 52.6389L152.977 55.4826L152.946 59.2467L155.107 63.3368L159.274 64.5917L162.831 63.8883L166.547 56.2643L169.308 53.1043L166.884 49.5726L165.295 42.0062L161.997 39.7409L158.614 37.1245L156.045 30.3305L151.369 30.9963L152.247 33.9445L150.186 34.8299L148.793 38.6117L147.399 43.9113L148.672 49.071L150.889 52.7213ZM105.17 90.6506L107.981 92.0384L117.065 91.1161L112.889 94.5063L113.145 96.9444L116.203 96.7767L121.276 93.5222L128.085 92.3333L129.309 88.6254L128.955 84.6682L126.848 84.3114L125.058 85.6822L124.269 82.7453L123.592 78.6956L121.515 77.6901L119.673 80.8246L122.549 88.6759L119.036 88.0712L115.464 83.2477L109.805 80.4067L107.912 82.7666L105.17 90.6506ZM121.351 60.7588L118.736 58.7002L117.658 58.2319L115.595 61.2761L115.563 62.6987L118.902 62.7087L121.351 60.7588ZM120.298 69.5403L120.967 66.7086L118.131 65.1986L115.195 66.1828L113.566 69.2106L116.549 72.2001L120.298 69.5403ZM141.167 93.1597L144.483 92.3738L145.398 86.51L145.336 82.2855L143.798 78.3346L143.644 79.4687L140.816 78.972L137.787 81.8762L135.624 81.6133L135.751 87.9546L139.047 87.3379L139.006 91.9318L141.167 93.1597ZM138.811 125.565L135.182 122.774L131.805 119.784L131.181 115.393L129.919 109.051L127.667 106.323L125.668 105.224L123.899 106.23L125.327 113.042L124.317 115.693L122.672 109.313L120.834 107.107L118.562 110.527L115.766 107.145L111.292 109.183L112.295 106.012L110.24 104.679L104.857 108.828L103.457 111.465L101.768 116.276L105.28 117.923L108.381 117.836L103.718 120.295L104.778 122.519L107.63 122.639L111.926 122.163L115.815 123.555L113.19 124.582L110.355 124.318L107.251 125.319L105.914 125.94L108.391 130.455L110.176 129.828L112.922 131.352L114.011 133.946L117.588 133.431L122.684 132.609L126.459 130.729L128.797 130.388L132.256 131.891L135.895 132.758L136.572 130.726L135.289 128.559L138.591 128.101L138.811 125.565ZM144.365 124.868L142.959 127.383L141.189 129.149L143.935 131.665L145.573 131.059L148.284 132.734L149.534 130.793L148.308 128.64L147.705 127.555L146.499 126.519L144.365 124.868ZM131.734 103.946L130.205 102.4L127.511 102.682L126.828 103.666L129.964 108.464L131.734 103.946ZM152.307 113.306L154.464 108.384L156.862 107.07L159.866 100.858L156.025 99.1024L151.835 98.8488L149.84 100.817L148.789 103.824L148.758 107.247L150.013 113.065L152.307 113.306ZM164.61 96.9586L168.738 96.8271L174.506 95.6802L177.08 96.5862L180.078 94.9803L181.333 92.9622L180.884 89.751L178.73 86.7459L175.463 86.1767L171.368 86.8653L168.172 88.5999L165.238 87.9326L162.526 87.5809L161.248 85.6609L158.941 83.8034L159.4 80.6533L157.664 77.8237L153.705 77.8429L151.473 75.009L147.328 74.4413L146.572 78.0625L148.903 80.7237L153.062 81.7568L155.081 85.3773L155.325 89.3581L156.021 93.6145L161.365 96.0426L164.61 96.9586ZM100.769 83.9767L104.507 80.3861L106.386 79.969L107.935 76.9646L108.211 70.0228L105.452 71.3829L102.369 71.255L98.2393 77.074L94.8263 83.453L97.5508 85.2366L100.769 83.9767ZM152.532 95.4692L153.626 92.5273L152.892 90.0701L151.136 87.286L148.246 89.4305L147.175 92.9295L149.612 94.91L152.532 95.4692ZM146.574 103.596L146.051 101.549L142.464 102.447L140.066 100.95L137.686 104.364L139.901 108.828L135.796 107.993L135.755 110.133L140.753 115.14L142.144 117.542L144.081 118.061L147.379 115.636L147.74 109.801L144.696 106.906L146.574 103.596ZM93.5081 212.841L92.6784 211.176L90.671 209.919L89.6771 208.46L88.9929 207.391L87.1032 207.061L85.8689 206.587L83.7583 205.903L83.5848 206.629L84.3593 208.32L86.429 208.875L86.7912 209.75L88.5905 210.817L89.1937 211.892L92.4955 213.256L93.5081 212.841ZM180.791 157.679L179.355 156.18L177.876 156.534L177.697 154.358L175.394 152.912L173.192 151.301L172.023 150.056L170.994 150.79L170.62 148.685L169.167 148.29L168.482 152.649L168.225 156.278L166.477 158.507L169.202 158.077L169.892 160.671L172.754 158.379L174.748 155.978L175.877 158.013L179.006 159.087L180.791 157.679ZM94.3486 120.341L99.6413 117.372V114.619L102.135 110.066L107.065 105.313L109.593 103.56L107.435 100.576L105.482 98.4778L100.346 98.0714L97.474 96.5393L90.6775 97.6941L92.644 102.117L90.8998 106.687L89.5071 111.566L88.6443 114.308L93.2873 117.643L94.3486 120.341ZM190.618 139.743L190.845 139.026L190.823 136.77L189.253 135.289L187.41 136.033L186.556 138.994L187.058 141.523L189.312 141.266L190.618 139.743ZM207.701 145.105L210.862 149.796L213.336 151.824L216.865 146.232L217.491 142.727L214.329 142.39L211.438 137.632L208.246 136.466L203.51 132.936L207.202 130.354L205.3 124.994L203.549 122.611L198.694 120.229L196.599 116.286L192.865 117.701L192.604 114.956L189.835 111.885L185.373 108.535L183.471 111.174L179.493 113.066L179.792 108.757L176.343 101.614L171.246 104.501L169.388 109.973L167.804 105.764L169.284 101.237L164.091 103.121L162.024 105.957L160.478 111.941L161.116 118.372L163.972 118.399L161.87 121.188L163.542 123.292L166.803 124.184L171.056 125.901L178.374 127.193L182.02 126.451L183.096 124.731L184.682 126.713L186.454 127.041L188.582 130.569L187.294 131.976L191.368 133.842L194.448 136.456L195.223 138.268L195.776 140.569L193.175 145.49L192.473 147.937L193.145 149.658L189.006 150.269L185.227 150.353L183.902 153.813L185.603 155.395L191.417 154.662L191.385 153.32L194.313 155.557L197.313 157.885L196.611 159.145L199.048 161.291L203.363 163.803L208.816 165.502L208.489 164.018L206.395 161.409L203.553 157.591L208.597 161.142L211.133 162.321L211.826 159.168L210.517 154.692L209.688 153.464L206.959 151.307L204.844 148.528L205.098 145.727L207.701 145.105ZM160.489 30.2971L162.164 35.4794L165.719 39.6577L172.755 38.8846L177.283 40.283L174.145 44.5843L172.557 43.3223L167.061 42.8163L167.914 48.7242L170.754 53.0133L170.184 56.7091L166.619 59.1692L164.99 63.0569L168.252 64.9371L170.993 71.012L165.617 66.9594L164.39 67.6281L165.381 74.2913L161.663 76.3045L161.915 80.4621L165.717 80.907L168.71 81.9288L174.616 80.6178L179.871 82.9407L185.244 77.8308L185.2 75.6855L181.764 76.028L181.483 74.0092L184.292 71.2884L185.246 67.6281L188.353 64.9072L190.263 61.5234L188.6 56.4761L189.99 54.5937L187.218 53.2528L193.306 52.096L194.588 49.8597L198.736 48.0093L202.175 38.4355L205.451 34.923L210.196 27.0184L205.819 27.088L207.637 24.0303L212.502 21.1929L217.408 14.8665L217.496 10.7941L213.816 6.50071L209.498 4.41867L204.124 3.1261L199.769 2.06802L195.414 1L189.609 3.82603L188.54 2.03036L182.394 2.7239L178.788 4.55084L176.134 7.1445L174.604 15.4897L172.433 11.2382L169.939 10.4267L166.983 16.0902L163.038 18.4692L160.69 18.9411L157.7 21.6676L158.14 26.3902L160.489 30.2971ZM213.847 218.609L213.142 217.199L212.383 218.096L212.886 219.063L215.436 220.28L216.181 220.094L217.17 218.917L215.305 218.996L213.847 218.609ZM172.968 163.277L173.409 164.435L174.828 164.533L177.182 162.162L177.225 161.318L174.463 161.276L172.968 163.277ZM217.524 210.489L215.468 209.21L212.824 208.438L212.128 208.697L213.998 210.146L216.604 211.101L217.583 211.047L217.524 210.489ZM235.374 213.896L235.118 212.308L233.711 212.822L234.334 210.61L232.329 209.671L231.401 210.415L229.617 209.577L230.323 208.505L228.972 207.842L227.66 208.886L228.99 206.168L230.064 204.178L230.453 203.313L229.519 203.173L227.775 204.272L226.528 206.07L224.451 210.985L222.762 212.802L223.637 213.615L222.384 214.662L222.693 215.537L226.596 215.626L228.756 215.45L230.686 216.164L229.266 217.537L230.465 217.638L232.798 215.097L233.358 215.472L232.922 217.865L234.244 218.412L235.154 218.305L236 215.736L235.374 213.896ZM181.688 166.755L182.475 164.535L181.964 163.659L181.14 163.565L180.364 164.847L180.27 165.141L180.798 166.399L181.688 166.755Z" stroke="url(#paint0_linear_675_213)" stroke-opacity="0.5"/>
<path d="M79.3467 192.67L78.2409 191.366L76.4688 190.251L75.9001 187.155L73.3077 184.219L72.2241 180.709L70.2935 180.466L67.0965 180.373L64.74 179.282L60.5828 175.272L58.6572 174.525L55.1397 173.109L52.3557 173.448L48.4014 171.608L46.0112 169.877L43.7795 170.739L44.194 173.531L43.0824 173.785L40.756 174.611L38.9861 175.935L36.758 176.761L36.4704 174.455L37.3747 170.524L39.5111 169.265L38.9596 168.23L36.3965 170.517L35.0239 173.198L32.1267 176.003L33.5983 177.884L31.6978 180.62L29.5364 182.189L27.5241 183.32L27.0264 184.946L23.8875 186.818L23.2521 188.497L20.8992 190.009L19.5194 189.738L17.6426 190.717L15.6024 191.903L13.93 193.059L10.4791 194.037L10.1643 193.462L12.3638 191.85L14.3309 190.775L16.4744 188.849L18.9686 188.447L19.9604 186.981L22.7472 184.811L23.1962 184.078L24.6806 182.775L25.0277 179.932L26.0504 177.676L23.7319 178.839L23.0836 178.18L21.995 179.569L20.6819 177.628L20.1397 179.004L19.3882 177.089L17.378 178.629L16.1438 178.626L15.9703 176.329L16.3339 174.893L15.0387 173.485L12.424 174.245L10.7273 172.375L9.3518 171.409L9.34319 169.099L7.79346 167.335L8.57155 164.915L10.2109 162.521L10.9281 160.279L12.5553 159.956L13.935 160.661L15.5572 158.524L17.0173 158.909L18.5498 157.519L18.1762 155.446L17.0503 154.619L18.5391 152.829L17.3042 152.882L15.1707 153.896L14.5582 154.915L12.9726 153.897L10.1285 154.415L7.18389 153.304L6.33982 151.418L3.79541 148.642L6.62093 146.604L11.1059 144.183H12.7589L12.485 146.659L16.729 146.468L15.0968 143.384L12.6234 141.449L11.1934 138.863L9.26431 136.613L6.50117 134.917L7.62636 132.055L11.1934 131.875L13.7314 129.327L14.2097 126.543L16.2636 123.763L18.2221 123.084L22.0337 120.413L23.8825 120.82L26.9769 117.544L30.019 118.845L31.4741 121.595L32.3677 120.424L35.7655 120.788L35.645 122.175L38.7215 123.19L40.7725 122.595L45.0087 124.467L48.8762 125.019L50.4245 125.778L53.1001 124.829L56.1501 126.579L58.3345 127.386L58.3209 147.036L58.3101 172.218L60.2902 172.337L62.2487 173.443L63.6528 175.174L65.4392 177.73L67.3956 175.559L69.4143 174.285L70.4814 176.314L71.8361 177.898L73.677 179.621L74.9341 182.318L76.9902 186.498L80.4088 188.775L80.4647 190.995L79.3467 192.67ZM205.513 217.144L204.62 216.301L203.272 216.798L202.603 216.029L201.07 218.23L200.456 220.467L199.743 221.761L198.889 222.199L198.245 222.341L198.044 223.036L194.338 223.038L191.283 223.057L190.376 223.573L188.318 225.514L188.524 225.9L188.643 226.971L187.135 227.873L185.488 227.647L183.907 227.546L182.955 227.858L183.133 228.675V228.676L183.173 228.941L181.44 230.551L179.923 231.325L178.888 231.685L177.697 232.421L176.241 232.773L175.239 232.637L173.999 232.089L174.688 231.059L175.131 230.12L176.076 228.634L175.975 227.517L175.613 225.924L174.87 225.649L173.623 226.86L173.224 226.838L173.12 226.145L174.226 225.039L174.41 223.77L174.246 222.495L172.758 221.392L171.049 220.823L170.768 221.902L170.325 222.19L169.969 223.578L169.783 222.636L168.979 223.31L168.477 224.248L167.953 225.61L167.852 226.779L168.519 228.468L168.464 230.251L167.648 231.556L167.241 231.924L166.698 232.217L166.014 232.232L165.829 232.052L165.288 230.648L165.272 229.95L165.326 229.284L165.073 227.955L165.456 226.405L165.91 224.477L166.953 222.319L166.65 222.329L165.173 224.137L164.901 223.807L165.689 222.796L166.888 220.968L168.255 220.711L169.824 220.14L171.405 220.441L171.472 220.454L173.244 220.196L172.243 219.052L171.704 218.963L171.091 218.847L170.669 218.036L168.693 218.29L166.909 218.933L165.492 217.83L164.353 217.46L164.999 215.918L163.224 216.888L161.61 217.832L160.058 218.569L158.825 217.573L156.811 218.178L156.817 217.752L158.182 216.523L159.61 215.347L161.661 214.37L159.187 213.596L157.559 213.983L155.608 213.057L153.555 212.579L152.151 212.395L151.525 211.884L151.168 210.218L150.488 210.232L150.482 211.401L146.32 211.399L139.441 211.401H132.608H126.572H120.539H114.608H108.479H106.503H100.533H94.8225L95.5067 213.864L95.828 216.288L95.331 217.061L94.2596 214.281L91.3516 213.268L91.1085 213.851L91.6944 215.228L92.3298 217.734L92.6926 221.583L92.4481 224.135L92.2036 226.648L91.4176 229.217L92.0594 231.276L92.1297 233.552L91.6886 235.723L92.7601 237.139L93.0376 239.232L94.5938 241.358L95.4809 242.189L95.4092 242.77L97.0837 246.218L99.0343 248.671L99.2788 249.997L99.7916 250.386L101.66 250.623L102.379 251.272L103.507 251.392L103.727 252.078L104.665 252.363L105.968 253.727L106.307 254.933L108.592 254.752L111.145 254.496L110.957 254.957L113.993 256.097L118.58 257.739L122.579 257.722L124.173 257.722L124.177 256.762L127.66 256.762L128.393 257.588L129.422 258.322L130.616 259.337L131.283 260.538L131.784 261.795L132.823 262.482L134.493 263.163L135.759 261.366L137.403 261.322L138.82 262.231L139.829 263.783L140.524 265.104L141.71 266.382L142.152 267.942L142.715 268.984L144.284 269.668L145.711 270.153L146.495 270.087L146.113 269.337L146.013 268.274L146.033 266.738L146.495 265.732L147.593 264.659L149.592 263.686L151.422 262.004L153.114 261.471L154.364 261.311L155.827 261.839L157.581 261.555L159.082 262.757L160.541 262.828L161.296 262.398L162.042 262.733L162.425 262.435L161.998 261.986L162.031 261.06L161.668 260.452L162.5 260.094L164.033 259.935L165.817 260.189L168.09 259.9L169.35 260.468L170.327 261.536L170.686 261.649L172.715 260.612L173.5 260.963L175.068 262.869L175.63 264.114L175.217 265.607L175.519 266.482L176.454 268.186L177.52 270.087L178.284 270.593L178.601 271.556L179.59 271.822L180.191 271.545L180.693 270.204L180.78 269.346L180.843 267.852L179.891 265.261L179.88 264.288L178.986 262.686L178.315 260.735L177.959 259.139L178.27 257.494L179.217 256.111L180.351 254.995L182.558 253.462L182.846 252.666L183.863 251.79L184.867 251.637L186.189 250.23L188.269 249.515L189.547 247.714L189.265 245.258L189.056 244.402L188.479 244.23L188.393 241.852L187.009 241.04L188.337 241.436L187.909 239.829L188.296 238.726L188.532 240.84L189.559 241.804L188.937 243.508L189.12 243.607L190.251 241.606L190.896 240.625L190.866 239.665L190.367 239.211L189.949 237.831L190.609 238.473L191.05 238.607L191.2 239.264L192.663 237.288L193.096 235.425L192.505 235.305L193.117 234.581L193.058 234.902L194.338 234.897L197.153 234.111L196.557 233.612L193.604 234.107L195.28 233.345L196.449 233.214L197.324 233.082L198.811 232.62L199.777 232.671L201.135 232.241L201.295 231.481L200.692 230.888L200.903 231.863L200.068 231.796L199.405 230.378L199.425 228.947L199.766 228.337L200.83 226.714L202.953 225.899L205.02 224.944L207.167 223.594L206.82 222.673L205.505 221.074L205.513 217.144ZM33.7173 181.288L32.6437 181.858L30.8172 183.179L31.1284 184.899L32.1568 185.838L34.1648 184.449L35.9046 182.697L35.0526 181.54L33.7173 181.288ZM1 160.988L2.4644 160.094L2.63006 159.613L1 159.128V160.988ZM7.09711 171.907L5.11136 172.594L6.33193 173.677L7.65003 174.418L8.88422 173.802L8.69203 172.271L7.09711 171.907ZM76.9056 195.006L74.9757 195.277L74.0305 194.836L73.9108 195.915L74.283 197.389L75.2977 198.424L76.0407 199.94L77.2519 201.431L78.0537 201.437L76.3039 198.806L76.9056 195.006ZM27.6281 280.783L26.9131 280.581L26.7166 280.763L26.7345 280.895L26.9654 281.068L27.3118 281.513L27.9859 281.362L28.1537 281.108L27.6281 280.783ZM25.4803 280.4L26.5574 280.461L26.6198 280.232L25.6301 280.141L25.4803 280.4ZM29.7042 282.737L29.3471 282.555L28.5769 282.198L28.4241 282.159L28.3072 282.356L28.4456 282.771L28.0964 283.114L27.996 283.348L28.3287 284.114L28.2714 284.7L28.7705 285L29.0645 284.65L29.7078 284.322L30.4938 283.874L30.5418 283.757L30.0298 283.02L29.7042 282.737ZM24.0732 279.082L23.5354 279.376L23.6135 279.461L23.8688 279.944L24.5688 280.019L24.7129 280.046L24.8219 279.923L24.241 279.22L24.0732 279.082ZM20.9142 277.972L20.6073 278.182L20.5033 278.338L21.1803 278.727L21.4191 278.516L21.3775 278.018L20.9142 277.972Z" fill="#000017" stroke="url(#paint1_linear_675_213)" stroke-opacity="0.5"/>
<defs>
<linearGradient id="paint0_linear_675_213" x1="58.3428" y1="70.7538" x2="169.817" y2="99.2911" gradientUnits="userSpaceOnUse">
<stop stop-color="#EC11FF"/>
<stop offset="1" stop-color="#1BE4FF"/>
</linearGradient>
<linearGradient id="paint1_linear_675_213" x1="0.999999" y1="168.288" x2="119.138" y2="216.533" gradientUnits="userSpaceOnUse">
<stop stop-color="#EC11FF"/>
<stop offset="1" stop-color="#1BE4FF"/>
</linearGradient>
</defs>
</svg>
