<svg width="237" height="291" viewBox="0 0 237 291" fill="none" xmlns="http://www.w3.org/2000/svg">
<path d="M148.196 287.817L145.489 288.066L144.036 286.311L142.319 286.179L139.269 286.176L139.267 275.432L140.361 277.616L141.786 281.2L145.49 284.112L149.479 285.339L148.196 287.817ZM149.721 163.338L151.395 165.552L152.507 163.086L155.756 163.213L156.216 163.868L161.455 168.895L163.784 169.367L167.266 171.667L170.201 172.889L170.61 174.273L167.805 179.083L170.678 179.951L173.878 180.438L176.131 179.925L178.715 177.487L179.18 174.698L180.592 174.095L182.022 175.914L181.964 178.445L179.565 180.203L177.651 181.506L174.435 184.635L170.633 189.08L169.92 191.717L169.158 195.138L169.187 198.49L168.569 199.245L168.348 201.446L168.153 203.236L171.771 206.199L171.382 208.606L173.162 210.138L173.017 211.867L170.279 216.458L166.055 218.403L160.339 219.161L157.209 218.794L157.808 220.977L157.225 223.743L157.751 225.625L156.042 226.946L153.121 227.467L150.381 226.097L149.281 227.08L149.678 230.852L151.602 232.006L153.162 230.797L154.01 232.792L151.386 233.991L149.099 236.414L148.68 240.386L148.006 242.529L145.315 242.54L143.081 244.609L142.264 247.672L145.066 250.704L147.791 251.548L146.811 255.336L143.445 257.751L141.594 262.86L138.993 264.608L137.825 266.701L138.745 271.419L140.641 274.096L139.44 273.861L136.799 273.134L129.914 272.516L128.733 269.84L128.788 266.453L126.891 266.742L125.887 265.119L125.638 260.443L127.824 258.534L128.727 255.809L128.396 253.662L129.906 250.083L130.947 244.644L130.641 242.274L131.885 241.514L131.58 240.011L130.258 239.216L131.197 237.559L129.91 236.073L129.244 231.604L130.39 230.825L129.908 226.206L130.578 222.392L131.34 219.116L133.046 217.794L132.179 214.274L132.17 211.004L134.328 208.703L134.262 205.787L135.888 202.419L135.895 199.281L135.155 198.662L133.842 192.873L135.598 189.475L135.329 186.308L136.347 183.363L138.213 180.351L140.224 178.368L139.371 177.123L139.966 176.105L139.875 170.877L142.979 169.342L143.956 166.131L143.611 165.36L145.985 162.593L149.721 163.338Z" fill="#000017" stroke="url(#paint0_linear_675_668)" stroke-opacity="0.5"/>
<path d="M155.775 163.208L152.529 163.082L151.42 165.545L149.747 163.333L146.024 162.59L143.653 165.354L141.6 165.776L140.486 161.561L138.956 158.16L139.853 155.247L138.36 153.978L137.98 151.823L136.586 149.799L138.38 146.604L137.156 144.129L137.809 143.142L137.299 142.055L138.412 140.592L138.466 138.111L138.607 136.067L139.218 135.085L136.758 130.434L138.874 130.677L140.34 130.614L140.974 129.743L143.462 128.577L144.961 127.497L148.684 127.012L148.381 129.165L148.731 130.272L148.503 132.206L151.592 134.798L154.778 135.276L155.898 136.36L157.821 136.936L158.999 137.781L160.789 137.751L162.442 138.615L162.567 140.302L163.122 141.155L163.158 142.417L162.329 142.466L163.423 145.889L168.878 146.011L168.461 147.716L168.765 148.885L170.32 149.717L170.991 151.567L170.486 153.919L169.707 155.232L169.981 156.946L169.091 157.568L169.042 156.64L166.391 155.102L163.749 155.06L158.791 155.934L157.426 158.586L157.355 160.215L156.233 163.862L155.775 163.208Z" fill="#000017" stroke="url(#paint1_linear_675_668)" stroke-opacity="0.5"/>
<path d="M170.666 189.113L174.472 184.667L177.693 181.537L179.61 180.234L182.013 178.476L182.071 175.944L180.639 174.126L179.226 174.729L179.786 172.916L180.173 171.068L180.174 169.358L179.148 168.795L178.077 169.297L177.012 169.158L176.68 167.967L176.414 165.142L175.88 164.224L173.952 163.395L172.788 163.995L169.775 163.408L169.964 159.274L169.121 157.592L170.013 156.969L169.738 155.253L170.52 153.938L171.027 151.583L170.353 149.731L168.794 148.898L168.489 147.728L168.907 146.02L163.436 145.898L162.339 142.471L163.171 142.422L163.134 141.158L162.578 140.304L162.452 138.615L160.794 137.751L158.999 137.78L157.818 136.934L155.89 136.358L154.766 135.272L151.57 134.794L148.472 132.198L148.701 130.262L148.35 129.154L148.654 126.998L144.92 127.484L143.417 128.565L140.921 129.732L140.285 130.605L138.816 130.668L136.694 130.424L135.084 130.92L133.786 130.589L133.976 126.216L131.635 127.91L129.116 127.836L128.038 126.302L126.144 126.135L126.747 124.903L125.161 123.16L123.974 120.584L124.726 120.061L124.724 118.856L126.448 118.033L126.164 116.491L126.892 115.5L127.099 114.172L130.362 112.238L132.701 111.691L133.084 111.264L135.656 111.397L136.938 103.621L137.005 102.392L136.558 100.77L135.292 99.7372L135.306 97.6789L136.915 97.2121L137.484 97.506L137.581 96.421L135.909 96.1281L135.874 94.3546L141.433 94.4186L142.378 93.4414L143.171 94.3403L143.726 96.0111L144.266 95.6624L145.836 97.1603L148.055 96.9772L148.608 96.1098L150.73 95.4488L151.905 94.984L152.236 93.7841L154.275 92.9777L154.121 92.3818L151.703 92.1387L151.307 90.352L151.422 88.4503L150.144 87.7141L150.68 87.4527L152.793 87.8158L155.061 88.5256L155.885 87.8544L157.937 87.4141L161.129 86.3504L162.172 85.2663L161.795 84.464L163.279 84.3379L163.942 84.9928L163.571 86.2416L164.552 86.6717L165.206 87.9917L164.416 88.9913L163.961 91.4055L164.691 92.8394L164.898 94.1512L166.654 95.4803L168.054 95.6206L168.37 95.0664L169.272 94.9434L170.563 94.4461L171.491 93.6926L173.069 93.9336L173.764 93.8319L175.316 94.0637L175.572 93.4841L175.094 92.9207L175.379 92.1001L176.53 92.3523L177.879 92.0624L179.513 92.6634L180.759 93.2482L181.642 92.4794L182.28 92.5973L182.67 93.3956L184.036 93.1933L185.13 92.1163L186.005 90.0286L187.694 87.4304L188.666 87.2961L189.372 88.8662L190.972 93.8258L192.499 94.2936L192.575 96.2491L190.43 98.5809L191.317 99.4351L196.361 99.8795L196.464 102.719L198.632 100.86L202.223 101.878L206.962 103.609L208.355 105.268L207.887 106.837L211.205 105.964L216.759 107.464L221.023 107.353L225.241 109.701L228.885 112.883L231.083 113.703L233.524 113.817L234.558 114.714L235.527 118.341L236 120.068L234.864 124.799L233.412 126.673L229.39 130.68L227.572 133.949L225.459 136.466L224.746 136.523L223.949 138.667L224.151 144.156L223.355 148.71L223.052 150.67L222.15 151.846L221.645 155.852L218.751 159.796L218.266 162.941L215.956 164.267L215.288 166.109L212.187 166.102L207.698 167.286L205.688 168.662L202.492 169.568L199.134 172.049L196.718 175.162L196.303 177.524L196.777 179.28L196.244 182.516L195.597 184.09L193.602 185.874L190.436 191.646L187.927 194.282L185.986 195.847L184.685 199.055L182.797 201.001L182.008 199.074L183.266 197.47L181.615 195.183L179.377 193.338L176.439 191.213L175.38 191.31L172.517 188.764L170.666 189.113Z" fill="#000017" stroke="url(#paint2_linear_675_668)" stroke-opacity="0.5"/>
<path d="M113.91 29.8585L113.209 30.0125L112.483 28.22L111.413 27.3157L112.035 25.3265L112.895 25.4529L113.894 28.0518L113.91 29.8585ZM113.094 20.9984L109.98 21.5071L109.78 20.3305L111.123 20.0756L113.01 20.1715L113.094 20.9984ZM115.437 20.9657L114.944 23.219L114.418 22.8142L114.465 21.1574L113.185 19.8992L113.179 19.5332L115.437 20.9657Z" fill="#000017" stroke="url(#paint3_linear_675_668)" stroke-opacity="0.5"/>
<path d="M80.8089 47.9003L80.7869 47.4651L81.1266 47.3298L81.6368 47.6792L82.644 45.8909L83.1782 45.8525L83.1883 46.2877L83.7204 46.3009L83.6743 47.1066L83.2193 48.3849L83.4649 48.8423L83.1712 49.8965L83.3476 50.1782L83.0229 51.6635L82.4706 52.441L81.9625 52.5349L81.4063 53.5487L80.5674 53.5497L80.7869 50.2378L80.8089 47.9003Z" fill="#000017" stroke="url(#paint4_linear_675_668)" stroke-opacity="0.5"/>
<path d="M139.23 275.498L139.232 286.245L142.285 286.248L144.003 286.381L143.058 288.392L140.613 289.95L139.212 289.79L137.523 289.384L135.453 287.88L132.466 287.161L128.878 284.405L125.965 281.788L122.037 276.445L124.388 277.436L128.392 280.622L132.175 282.355L133.646 280.144L134.571 276.887L137.199 274.948L139.23 275.498ZM140.412 161.599L141.529 165.82L143.586 165.398L143.932 166.168L142.953 169.381L139.847 170.915L139.938 176.146L139.343 177.164L140.196 178.409L138.184 180.392L136.316 183.406L135.297 186.351L135.567 189.518L133.809 192.918L135.123 198.708L135.864 199.328L135.857 202.466L134.229 205.835L134.295 208.752L132.136 211.053L132.145 214.324L133.013 217.845L131.305 219.167L130.542 222.445L129.872 226.259L130.354 230.879L129.208 231.659L129.874 236.129L131.162 237.615L130.222 239.273L131.545 240.068L131.85 241.571L130.606 242.332L130.912 244.702L129.87 250.143L128.359 253.723L128.69 255.87L127.786 258.596L125.599 260.506L125.848 265.183L126.853 266.806L128.752 266.517L128.697 269.905L129.878 272.582L136.769 273.2L139.412 273.927L136.875 273.893L135.502 275.04L132.928 276.737L132.469 281.189L131.262 281.301L128.044 279.74L124.78 276.434L121.233 273.757L120.34 270.835L121.147 268.167L119.712 265.181L119.347 257.712L120.559 253.611L123.571 250.37L119.242 249.16L121.958 245.53L122.929 238.862L126.098 240.259L127.588 232.154L125.675 231.134L124.784 235.964L122.985 235.414L123.881 229.902L124.853 222.943L126.163 220.423L125.342 216.869L125.107 212.825L126.31 212.709L128.059 207.018L130.03 201.494L131.237 196.442L130.58 191.446L131.431 188.73L131.09 184.708L132.758 180.776L133.271 174.635L134.187 168.153L135.078 161.292L134.87 156.336L134.276 152.112L135.743 151.351L136.506 149.824L137.904 151.85L138.285 154.008L139.781 155.279L138.883 158.196L140.412 161.599Z" fill="#000017" stroke="url(#paint5_linear_675_668)" stroke-opacity="0.5"/>
<path d="M120.022 99.5683L118.8 98.8975L117.399 97.9605L116.588 98.4097L114.165 98.0174L113.468 96.7998L112.937 96.8445L110.08 95.2285L109.693 94.3494L110.759 94.137L110.632 92.7181L111.302 91.6916L112.719 91.5016L113.92 89.7209L115.013 88.232L113.961 87.5571L114.5 85.9096L113.855 83.3098L114.467 82.5627L114.017 80.154L112.861 78.6345L113.227 77.2472L114.147 77.4515L114.685 76.6029L114.022 74.9177L114.37 74.499L115.844 74.5895L117.987 72.5893L119.163 72.2834L119.19 71.3341L119.717 68.903L121.354 67.5655L123.154 67.5106L123.381 66.9089L125.615 67.1497L127.862 65.6913L128.975 65.0439L130.356 63.6484L131.369 63.8263L132.117 64.5886L131.563 65.5632L129.729 66.048L129.004 67.4912L127.899 68.3186L127.069 69.3888L126.72 71.4408L125.929 73.1198L127.402 73.3119L127.768 74.6291L128.398 75.2582L128.624 76.4098L128.285 77.4678L128.385 78.0633L129.088 78.3022L129.768 79.2972L133.44 79.0228L135.099 79.3856L137.108 81.8381L138.262 81.5332L140.319 81.6856L141.946 81.3614L142.956 81.8503L142.442 83.3829L141.805 84.3373L141.581 86.3751L142.155 88.2614L142.967 89.104L143.065 89.7392L141.618 91.1499L142.654 91.7749L143.414 92.7649L144.284 95.5893L143.745 95.9379L143.189 94.2681L142.395 93.3696L141.45 94.3463L135.888 94.2823L135.923 96.0548L137.596 96.3475L137.499 97.432L136.929 97.1382L135.32 97.6048L135.306 99.6618L136.572 100.694L137.019 102.316L136.952 103.543L135.669 111.315L134.239 109.807L133.387 109.74L135.229 106.855L133.043 105.527L131.329 105.771L130.297 105.281L128.724 106.03L126.599 105.675L124.917 102.706L123.595 101.976L122.683 100.641L120.784 99.299L120.022 99.5683Z" fill="#000017" stroke="url(#paint6_linear_675_668)" stroke-opacity="0.5"/>
<path d="M98.3899 75.8257L96.8481 75.1894L96.2727 74.5867L96.5989 74.0869L96.4956 73.4516L95.7085 72.7632L94.5912 72.1972L93.6136 71.828L93.4262 70.9847L92.6817 70.4697L92.864 71.308L92.2967 71.9963L91.6484 71.1968L90.7357 70.9123L90.3467 70.3299L90.364 69.4509L90.7398 68.5412L89.9375 68.1333L90.5888 67.5744L91.0163 67.2012L92.8873 67.9681L93.5407 67.5907L94.4412 67.8324L94.9123 68.428L95.75 68.6207L96.4308 68.0068L97.15 69.5783L98.2481 70.7399L99.5822 71.9698L98.4831 72.2278L98.4993 73.3863L99.0909 73.8136L98.6654 74.1542L98.7768 74.6744L98.5398 75.2567L98.3899 75.8257Z" fill="#000017" stroke="url(#paint7_linear_675_668)" stroke-opacity="0.5"/>
<path d="M100.345 31.5645L102.809 31.785L105.049 31.8197L107.727 32.8735L108.862 34.0019L111.526 33.6537L112.535 34.3777L114.951 36.279L116.726 37.6576L117.664 37.6157L119.366 38.2386L119.158 39.0953L121.26 39.2209L123.416 40.4646L123.077 41.1753L121.181 41.5603L119.262 41.7094L117.297 41.4704L113.214 41.7655L115.126 40.0735L113.963 39.2842L112.125 39.081L111.14 38.2018L110.464 36.4618L108.853 36.5813L106.193 35.7593L105.338 35.1159L101.621 34.6391L100.625 34.0397L101.695 33.2697L98.898 33.1115L96.8487 34.7116L95.6669 34.7545L95.258 35.504L93.8464 35.8389L92.627 35.5489L94.1322 34.6003L94.7495 33.4893L96.0391 32.8031L97.4955 32.2006L99.6547 31.9045L100.345 31.5645Z" fill="#000017" stroke="url(#paint8_linear_675_668)" stroke-opacity="0.5"/>
<path d="M130.477 42.2006L130.836 41.6855L133.07 41.6988L134.766 42.4769L135.521 42.4005L136.041 43.4703L137.608 43.4101L137.515 44.3066L138.789 44.4157L140.197 45.5171L139.133 46.7359L137.772 46.0852L136.457 46.2106L135.515 46.0679L134.999 46.6145L133.899 46.798L133.463 46.0729L132.518 46.5023L131.371 48.5481L130.634 48.0739L130.489 47.2152L130.548 46.4023L129.811 45.5028L130.509 44.997L130.728 43.8415L130.477 42.2006Z" fill="#000017" stroke="url(#paint9_linear_675_668)" stroke-opacity="0.5"/>
<path d="M106.019 108.848L107.534 106.726L106.918 105.487L105.83 106.804L104.125 105.561L104.703 104.761L104.222 102.188L105.219 101.759L105.743 99.9933L106.82 98.1682L106.622 97.0109L108.182 96.4022L110.138 95.2744L112.985 96.8928L113.515 96.848L114.21 98.0675L116.625 98.4604L117.434 98.0105L118.831 98.9489L120.049 99.6207L120.447 101.774L119.561 103.617L116.456 106.587L113.034 107.707L111.29 110.178L110.751 112.095L109.142 113.265L107.947 111.829L106.798 111.522L105.621 111.749L105.544 110.706L106.356 110.03L106.019 108.848Z" fill="#000017" stroke="url(#paint10_linear_675_668)" stroke-opacity="0.5"/>
<path d="M160.515 271.82L163.934 269.094L166.355 270.226L168.065 268.418L170.345 270.452L169.489 272.048L165.643 273.428L164.361 271.82L161.939 273.889L160.515 271.82Z" fill="#000017" stroke="url(#paint11_linear_675_668)" stroke-opacity="0.5"/>
<path d="M185.129 92.0452L184.038 93.1184L182.675 93.3201L182.287 92.5245L181.651 92.406L180.769 93.1722L179.525 92.5894L180.247 91.3834L180.495 90.0963L180.987 88.8852L179.882 87.216L179.656 85.2782L181.138 82.8408L182.105 83.153L184.201 83.8239L187.215 86.2157L187.686 87.3751L186.002 89.9635L185.129 92.0452Z" fill="#000017" stroke="url(#paint12_linear_675_668)" stroke-opacity="0.5"/>
<path d="M78.024 59.8713L76.563 59.3656L74.786 59.313L73.4825 58.7365L71.9504 57.537L72.0205 56.6884L72.3507 56.0046L71.9463 55.4585L73.3169 53.0725L76.9735 53.0634L77.0466 52.0641L76.5854 51.8861L76.2684 51.2489L75.2158 50.5693L74.1551 49.5841L75.4413 49.577L75.4434 47.9133L78.1033 47.9082L80.7378 47.9406L80.7154 50.282L80.4929 53.5995L81.3433 53.5985L82.2719 54.1284L82.5178 53.6925L83.353 54.0657L82.0545 55.1813L80.7042 55.9986L80.5041 56.5589L80.7307 57.1314L80.1383 57.8707L79.4718 58.0497L79.6232 58.3926L79.0888 58.7132L78.1124 59.4465L78.024 59.8713Z" fill="#000017" stroke="url(#paint13_linear_675_668)" stroke-opacity="0.5"/>
<path d="M164.58 75.4678L166.455 76.5168L168.221 78.3726L168.302 79.8382L169.378 79.9051L170.908 81.2916L172.035 82.2798L171.579 84.8309L169.846 85.5708L169.999 86.2387L169.473 87.6993L170.739 89.7537L171.653 89.7568L172.028 91.3521L173.772 93.8089L173.076 93.9103L171.498 93.6701L170.569 94.4211L169.277 94.9167L168.374 95.0394L168.058 95.5917L166.657 95.4519L164.9 94.1272L164.693 92.8197L163.962 91.3906L164.417 88.9845L165.208 87.9881L164.554 86.6725L163.572 86.2438L163.943 84.9992L163.279 84.3464L161.794 84.4721L159.861 82.3194L160.635 81.5379L160.578 80.2264L162.336 79.7703L163.045 79.2372L162.067 78.181L162.317 77.1422L164.58 75.4678Z" fill="#000017" stroke="url(#paint14_linear_675_668)" stroke-opacity="0.5"/>
<path d="M86.0142 62.103L85.5215 61.1962L84.6543 60.9439L84.8528 59.7807L84.465 59.4656L83.8777 59.2588L82.6257 59.6044L82.5199 59.2133L81.6577 58.7462L81.043 58.1656L80.2012 57.9204L80.7946 57.1797L80.5676 56.6062L80.7681 56.0449L82.1209 55.2262L83.4217 54.1086L83.7179 54.2231L84.3439 53.7074L85.1602 53.6658L85.4259 53.9049L85.8686 53.759L87.1939 54.0235L88.513 53.9465L89.4311 53.6223L89.766 53.293L90.676 53.4449L91.359 53.6456L92.105 53.5767L92.672 53.3213L93.9759 53.7287L94.4288 53.7935L95.3001 54.3416L96.1246 54.9992L97.1618 55.4471L97.914 56.2516L96.9348 56.1918L96.5399 56.59L95.5485 56.971L94.8278 56.973L94.1978 57.3449L93.6257 57.2121L93.1392 56.7663L92.841 56.8514L92.4745 57.5485L92.2007 57.5232L92.1539 58.124L91.1574 58.9255L90.6322 59.271L90.3391 59.6317L89.4973 59.0441L88.8815 59.8202L88.286 59.7999L87.6163 59.8678L87.6774 61.2955L87.259 61.3218L86.9017 61.9844L86.0142 62.103Z" fill="#000017" stroke="url(#paint15_linear_675_668)" stroke-opacity="0.5"/>
<path d="M126.287 41.585L128.024 41.7183L130.494 42.1929L130.743 43.8315L130.526 44.9852L129.831 45.4904L130.564 46.3885L130.505 47.2002L128.614 46.693L127.271 46.8998L125.533 46.6839L124.2 47.2419L122.675 46.3111L122.926 45.3468L125.548 45.7623L127.696 46.0026L128.722 45.3366L127.421 44.0361L127.442 42.8874L125.645 42.418L126.287 41.585Z" fill="#000017" stroke="url(#paint16_linear_675_668)" stroke-opacity="0.5"/>
<path d="M113.803 45.8411L115.7 46.1038L117.198 46.8079L117.666 47.61L115.683 47.6639L114.828 48.1524L113.249 47.6829L111.638 46.6162L111.976 45.946L113.162 45.7412L113.803 45.8411Z" fill="#000017" stroke="url(#paint17_linear_675_668)" stroke-opacity="0.5"/>
<path d="M57.9858 23.2935L56.8795 26.0488L56.3803 28.2919L56.1729 32.4355L55.8973 33.9346L56.3915 35.6045L57.2751 37.0903L57.8455 39.4442L59.7368 41.6934L60.4029 43.4089L61.5183 44.8847L64.5454 45.6774L65.7239 46.9265L68.2253 46.0921L70.3982 45.7902L72.5335 45.2536L74.3272 44.7403L76.1412 43.5177L76.8205 41.7645L77.0543 39.2267L77.5475 38.3404L79.4785 37.5446L82.4933 36.8393L85.0181 36.945L86.7467 36.6868L87.431 37.3322L87.3344 38.7958L85.8021 40.5937L85.1249 42.4282L85.6496 42.9516L85.2225 44.2494L84.5077 46.582L83.7857 45.8156L83.1888 45.8654L82.6469 45.904L81.625 47.704L81.1074 47.3524L80.7627 47.4885L80.7851 47.9266L78.1485 47.8941L75.4864 47.8991L75.4844 49.571L74.1971 49.5781L75.2586 50.5681L76.3121 51.251L76.6293 51.8913L77.0909 52.0702L77.0177 53.0744L73.3582 53.0835L71.9865 55.481L72.3912 56.0299L72.0607 56.7169L71.9906 57.5697L68.7642 54.4119L67.2939 53.4565L64.9653 52.6882L63.374 52.9016L61.0841 54.0094L59.6463 54.3001L57.633 53.5246L55.4967 52.9636L52.8316 51.6098L50.6942 51.1961L47.4668 49.819L45.0813 48.4002L44.3614 47.6064L42.766 47.4286L39.8498 46.4854L38.6632 45.1225L35.5995 43.4211L34.1708 41.5246L33.4916 40.054L34.4423 39.7582L34.1495 38.8953L34.8043 38.1077L34.8185 37.0568L33.8566 35.6888L33.5994 34.4722L32.6436 32.9233L30.131 29.858L27.2646 27.431L25.8776 25.4847L23.4301 24.2041L22.9065 23.4347L23.3406 21.4844L21.8876 20.7445L20.2048 19.1996L19.494 16.9708L17.9596 16.7096L16.3052 15.0153L14.9691 13.4421L14.8441 12.4288L13.3117 9.96819L12.301 7.45071L12.3447 6.18028L10.2826 4.86209L9.33084 5.00743L7.70392 4.08966L7.24635 5.44141L7.71816 7.03199L7.99575 9.50375L8.97394 10.8524L11.0899 13.0955L11.5597 13.8578L11.9929 14.0885L12.3691 15.1973L12.8755 15.1526L13.448 17.2249L14.3143 18.04L14.9213 19.1702L16.713 20.7872L17.6586 23.7254L18.5056 25.1015L19.2967 26.5671L19.4543 28.2105L20.8291 28.3132L21.972 29.7229L23.0061 31.1041L22.937 31.6559L21.7371 32.7871L21.2317 32.7719L20.4803 30.8988L18.6144 29.1354L16.5584 27.6322L15.1003 26.8405L15.1949 24.5507L14.7617 22.8453L13.4032 21.8665L11.4438 20.4528L11.0676 20.8614L10.3477 20.0341L8.58958 19.2637L6.90877 17.4099L7.11722 17.168L8.29165 17.3499L9.34914 16.1506L9.45592 14.6983L7.2606 12.3871L5.58689 11.4866L4.53652 9.44478L3.47902 7.28707L2.15817 4.63545L1 1.62402L4.2396 1.36587L7.86052 1L7.5941 1.65857L11.8993 3.28981L18.4029 5.63654L24.0728 5.61318L26.3331 5.61216L26.3393 4.23907L31.279 4.24009L32.3182 5.42007L33.7763 6.46892L35.4703 7.92129L36.415 9.63789L37.1247 11.4358L38.5981 12.4186L40.9652 13.3923L42.761 10.8219L45.0925 10.7589L47.1018 12.0588L48.5324 14.2785L49.5177 16.1669L51.1996 17.9942L51.828 20.2251L52.6262 21.7151L54.85 22.6938L56.8734 23.387L57.9858 23.2935Z" fill="#000017" stroke="url(#paint18_linear_675_668)" stroke-opacity="0.5"/>
<path d="M90.5994 67.5286L89.6131 66.6216L88.2802 65.4592L87.6528 64.4862L86.451 63.5782L85.0225 62.2709L85.3397 61.8229L85.8105 62.2587L86.026 62.054L86.9126 61.9354L87.2695 61.2726L87.6874 61.2463L87.6264 59.8183L88.2954 59.7505L88.8902 59.7707L89.5054 58.9944L90.3462 59.5822L90.639 59.2214L91.1637 58.8759L92.1591 58.0742L92.2059 57.4733L92.4794 57.4986L92.8454 56.8014L93.1433 56.7162L93.6293 57.1621L94.2007 57.2949L94.8301 56.923L95.55 56.9209L96.5403 56.5399L96.9348 56.1416L97.9129 56.2014L97.6669 56.4821L97.5215 57.1338L97.8123 58.2009L97.1554 59.1931L96.8504 60.3626L96.7579 61.6415L96.9104 62.3884L96.9826 63.6917L96.5474 63.9745L96.281 65.2099L96.4762 65.9719L95.8936 66.7087L96.0258 67.486L96.463 67.9583L95.7798 68.5684L94.9389 68.3768L94.4661 67.785L93.5622 67.5448L92.9064 67.9198L91.0285 67.1577L90.5994 67.5286Z" fill="#000017" stroke="url(#paint19_linear_675_668)" stroke-opacity="0.5"/>
<path d="M112.877 78.702L111.926 77.8764L111.315 76.3292L112.02 75.5638L111.297 75.366L110.764 74.4181L109.344 73.6201L108.097 73.8025L107.518 74.8014L106.365 75.523L105.744 75.6229L105.464 76.2202L106.825 77.7755L106.046 78.1414L105.634 78.5654L104.307 78.7112L103.813 77.0009L103.442 77.4881L102.501 77.3189L101.927 76.1661L100.757 75.9755L100.017 75.6402L98.793 75.6443L98.7045 76.267L98.377 75.8328L98.5275 75.2641L98.7655 74.6821L98.6536 74.1623L99.0808 73.8219L98.4868 73.3948L98.4705 72.2369L99.5741 71.9791L100.598 73.0116L100.539 73.6211L101.678 73.7505L101.947 73.5161L102.73 74.2224L104.134 74.0145L105.346 73.2888L107.078 72.7089L108.052 71.8486L109.626 72.0178L109.521 72.3012L111.11 72.399L112.38 72.8964L113.31 73.7607L114.383 74.5547L114.037 74.9746L114.699 76.6646L114.161 77.5156L113.242 77.3107L112.877 78.702Z" fill="#000017" stroke="url(#paint20_linear_675_668)" stroke-opacity="0.5"/>
<path d="M136.537 149.74L135.773 151.265L134.306 152.026L131.446 150.317L131.199 149.098L125.544 146.128L120.43 142.91L118.229 141.104L117.048 138.692L117.516 137.851L115.101 134.042L112.289 128.716L109.594 123.005L108.428 121.703L107.53 119.601L105.314 117.74L103.282 116.587L104.206 115.318L102.823 112.608L103.71 110.62L105.985 108.83L106.323 110.009L105.509 110.685L105.586 111.725L106.765 111.499L107.917 111.806L109.114 113.239L110.726 112.071L111.266 110.158L113.014 107.691L116.443 106.574L119.554 103.609L120.442 101.769L120.043 99.6208L120.804 99.3516L122.701 100.693L123.611 102.027L124.932 102.757L126.612 105.724L128.735 106.08L130.307 105.331L131.337 105.821L133.049 105.577L135.233 106.904L133.393 109.788L134.245 109.855L135.673 111.363L133.102 111.23L132.72 111.656L130.382 112.203L127.121 114.135L126.913 115.462L126.186 116.451L126.47 117.991L124.747 118.814L124.749 120.018L123.997 120.54L125.184 123.114L126.769 124.855L126.166 126.086L128.059 126.253L129.137 127.785L131.655 127.859L133.994 126.166L133.804 130.535L135.101 130.866L136.71 130.37L139.176 135.023L138.564 136.005L138.422 138.049L138.367 140.531L137.253 141.994L137.763 143.081L137.109 144.069L138.336 146.544L136.537 149.74Z" fill="#000017" stroke="url(#paint21_linear_675_668)" stroke-opacity="0.5"/>
<path d="M146.01 45.759L147.474 46.0298L147.99 46.6405L147.256 47.4133L145.101 47.3945L143.427 47.5032L143.261 46.1898L143.666 45.7412L146.01 45.759Z" fill="#000017" stroke="url(#paint22_linear_675_668)" stroke-opacity="0.5"/>
<path d="M156.247 163.895L157.371 160.254L157.442 158.627L158.809 155.98L163.778 155.107L166.426 155.149L169.082 156.684L169.13 157.611L169.973 159.288L169.784 163.411L172.794 163.997L173.957 163.398L175.883 164.225L176.417 165.14L176.682 167.957L177.015 169.145L178.079 169.283L179.148 168.783L180.173 169.344L180.172 171.05L179.786 172.892L179.227 174.7L178.76 177.481L176.174 179.913L173.92 180.425L170.718 179.939L167.842 179.073L170.65 174.274L170.24 172.893L167.303 171.674L163.819 169.38L161.489 168.91L156.247 163.895Z" fill="#000017" stroke="url(#paint23_linear_675_668)" stroke-opacity="0.5"/>
<path d="M172.05 82.2842L175.449 82.851L175.754 82.3408L178.048 82.1367L181.097 82.8965L179.621 85.3263L179.846 87.2581L180.959 88.9292L180.463 90.1426L180.214 91.4307L179.49 92.6159L177.866 92.0188L176.525 92.3067L175.381 92.0561L175.098 92.8715L175.573 93.4312L175.318 94.0071L173.775 93.7767L172.043 91.3277L171.671 89.7374L170.762 89.7344L169.505 87.6865L170.028 86.2306L169.875 85.5648L171.597 84.8272L172.05 82.2842Z" fill="#000017" stroke="url(#paint24_linear_675_668)" stroke-opacity="0.5"/>
<path d="M84.6309 60.944L84.3143 61.6275L82.6613 61.5839L81.6333 61.306L80.4536 60.729L78.8678 60.5485L78.0596 59.9238L78.1481 59.4979L79.1263 58.7627L79.6617 58.4412L79.51 58.0975L80.1777 57.918L81.0195 58.1634L81.6343 58.7444L82.4964 59.2119L82.6023 59.6034L83.8543 59.2575L84.4416 59.4644L84.8294 59.7798L84.6309 60.944Z" fill="#000017" stroke="url(#paint25_linear_675_668)" stroke-opacity="0.5"/>
<path d="M159.062 68.5197L160.728 68.1396L161.338 68.2416L161.222 70.416L158.8 70.7363L158.277 70.4736L159.118 69.6723L159.062 68.5197Z" fill="#000017" stroke="url(#paint26_linear_675_668)" stroke-opacity="0.5"/>
<path d="M170.675 189.106L172.52 188.756L175.373 191.304L176.429 191.207L179.356 193.333L181.586 195.181L183.232 197.468L181.978 199.074L182.765 201.003L181.535 203.158L178.322 205.078L176.223 204.386L174.684 204.756L172.055 203.273L170.126 203.384L168.394 201.485L168.614 199.282L169.231 198.527L169.203 195.171L169.964 191.746L170.675 189.106Z" fill="#000017" stroke="url(#paint27_linear_675_668)" stroke-opacity="0.5"/>
<path d="M131.55 65.6269L131.469 66.3099L129.793 66.6463L130.724 67.9575L130.689 69.4639L129.43 71.1348L130.511 73.4126L131.742 73.2256L132.382 71.1511L131.497 70.1388L131.353 67.9585L134.908 66.7845L134.512 65.4225L135.514 64.5088L136.538 66.5416L138.54 66.5884L140.395 68.1984L140.507 69.1528L143.069 69.1782L146.12 68.8814L147.755 70.1713L149.938 70.526L151.539 69.6275L151.572 68.9028L155.108 68.729L158.528 68.6883L156.104 69.5391L157.08 70.898L159.362 71.1135L161.527 72.5253L161.982 74.8214L163.469 74.7574L164.588 75.4323L162.326 77.1114L162.077 78.1532L163.054 79.2124L162.345 79.747L160.588 80.2044L160.645 81.5197L159.871 82.3033L161.804 84.4622L162.182 85.2642L161.138 86.3477L157.945 87.4108L155.892 87.851L155.068 88.5218L152.798 87.8123L150.685 87.4495L150.149 87.7107L151.427 88.4466L151.312 90.3473L151.708 92.1331L154.127 92.3761L154.281 92.9717L152.242 93.7777L151.911 94.9771L150.735 95.4416L148.612 96.1023L148.059 96.9693L145.84 97.1523L144.269 95.6551L143.398 92.8304L142.639 91.8404L141.603 91.2153L143.05 89.8045L142.951 89.1693L142.14 88.3266L141.566 86.4402L141.79 84.4022L142.427 83.4478L142.941 81.9151L141.931 81.4261L140.304 81.7504L138.247 81.5979L137.094 81.9029L135.085 79.4502L133.427 79.0873L129.755 79.3618L129.075 78.3667L128.373 78.1278L128.273 77.5322L128.612 76.4741L128.386 75.3225L127.756 74.6933L127.39 73.3761L125.917 73.184L126.708 71.5048L127.057 69.4527L127.887 68.3824L128.992 67.555L129.717 66.1117L131.55 65.6269Z" fill="#000017" stroke="url(#paint28_linear_675_668)" stroke-opacity="0.5"/>
<defs>
<linearGradient id="paint0_linear_675_668" x1="125.638" y1="200.615" x2="162.516" y2="206.112" gradientUnits="userSpaceOnUse">
<stop stop-color="#EC11FF"/>
<stop offset="1" stop-color="#1BE4FF"/>
</linearGradient>
<linearGradient id="paint1_linear_675_668" x1="136.586" y1="138.758" x2="157.754" y2="144.99" gradientUnits="userSpaceOnUse">
<stop stop-color="#EC11FF"/>
<stop offset="1" stop-color="#1BE4FF"/>
</linearGradient>
<linearGradient id="paint2_linear_675_668" x1="123.974" y1="119.69" x2="191.974" y2="141.349" gradientUnits="userSpaceOnUse">
<stop stop-color="#EC11FF"/>
<stop offset="1" stop-color="#1BE4FF"/>
</linearGradient>
<linearGradient id="paint3_linear_675_668" x1="109.78" y1="22.7087" x2="113.445" y2="23.3649" gradientUnits="userSpaceOnUse">
<stop stop-color="#EC11FF"/>
<stop offset="1" stop-color="#1BE4FF"/>
</linearGradient>
<linearGradient id="paint4_linear_675_668" x1="80.5674" y1="48.185" x2="82.6373" y2="48.4663" gradientUnits="userSpaceOnUse">
<stop stop-color="#EC11FF"/>
<stop offset="1" stop-color="#1BE4FF"/>
</linearGradient>
<linearGradient id="paint5_linear_675_668" x1="119.242" y1="192.287" x2="135.74" y2="193.254" gradientUnits="userSpaceOnUse">
<stop stop-color="#EC11FF"/>
<stop offset="1" stop-color="#1BE4FF"/>
</linearGradient>
<linearGradient id="paint6_linear_675_668" x1="109.693" y1="78.093" x2="131.554" y2="83.3549" gradientUnits="userSpaceOnUse">
<stop stop-color="#EC11FF"/>
<stop offset="1" stop-color="#1BE4FF"/>
</linearGradient>
<linearGradient id="paint7_linear_675_668" x1="89.9375" y1="69.8147" x2="95.6059" y2="71.9172" gradientUnits="userSpaceOnUse">
<stop stop-color="#EC11FF"/>
<stop offset="1" stop-color="#1BE4FF"/>
</linearGradient>
<linearGradient id="paint8_linear_675_668" x1="92.627" y1="34.6557" x2="102.908" y2="44.9481" gradientUnits="userSpaceOnUse">
<stop stop-color="#EC11FF"/>
<stop offset="1" stop-color="#1BE4FF"/>
</linearGradient>
<linearGradient id="paint9_linear_675_668" x1="129.811" y1="43.7651" x2="135.357" y2="46.5496" gradientUnits="userSpaceOnUse">
<stop stop-color="#EC11FF"/>
<stop offset="1" stop-color="#1BE4FF"/>
</linearGradient>
<linearGradient id="paint10_linear_675_668" x1="104.125" y1="100.726" x2="114.131" y2="103.737" gradientUnits="userSpaceOnUse">
<stop stop-color="#EC11FF"/>
<stop offset="1" stop-color="#1BE4FF"/>
</linearGradient>
<linearGradient id="paint11_linear_675_668" x1="160.515" y1="270.076" x2="165.365" y2="272.966" gradientUnits="userSpaceOnUse">
<stop stop-color="#EC11FF"/>
<stop offset="1" stop-color="#1BE4FF"/>
</linearGradient>
<linearGradient id="paint12_linear_675_668" x1="179.525" y1="86.0164" x2="184.64" y2="87.3376" gradientUnits="userSpaceOnUse">
<stop stop-color="#EC11FF"/>
<stop offset="1" stop-color="#1BE4FF"/>
</linearGradient>
<linearGradient id="paint13_linear_675_668" x1="71.9463" y1="51.5334" x2="78.8792" y2="53.726" gradientUnits="userSpaceOnUse">
<stop stop-color="#EC11FF"/>
<stop offset="1" stop-color="#1BE4FF"/>
</linearGradient>
<linearGradient id="paint14_linear_675_668" x1="159.861" y1="81.5659" x2="168.697" y2="83.5919" gradientUnits="userSpaceOnUse">
<stop stop-color="#EC11FF"/>
<stop offset="1" stop-color="#1BE4FF"/>
</linearGradient>
<linearGradient id="paint15_linear_675_668" x1="80.2012" y1="55.9627" x2="88.3982" y2="61.4291" gradientUnits="userSpaceOnUse">
<stop stop-color="#EC11FF"/>
<stop offset="1" stop-color="#1BE4FF"/>
</linearGradient>
<linearGradient id="paint16_linear_675_668" x1="122.675" y1="43.2992" x2="127.083" y2="45.3844" gradientUnits="userSpaceOnUse">
<stop stop-color="#EC11FF"/>
<stop offset="1" stop-color="#1BE4FF"/>
</linearGradient>
<linearGradient id="paint17_linear_675_668" x1="111.638" y1="46.4719" x2="114.026" y2="48.4521" gradientUnits="userSpaceOnUse">
<stop stop-color="#EC11FF"/>
<stop offset="1" stop-color="#1BE4FF"/>
</linearGradient>
<linearGradient id="paint18_linear_675_668" x1="1" y1="18.1423" x2="46.978" y2="41.4433" gradientUnits="userSpaceOnUse">
<stop stop-color="#EC11FF"/>
<stop offset="1" stop-color="#1BE4FF"/>
</linearGradient>
<linearGradient id="paint19_linear_675_668" x1="85.0225" y1="59.9073" x2="92.7286" y2="62.5587" gradientUnits="userSpaceOnUse">
<stop stop-color="#EC11FF"/>
<stop offset="1" stop-color="#1BE4FF"/>
</linearGradient>
<linearGradient id="paint20_linear_675_668" x1="98.377" y1="73.9282" x2="105.103" y2="79.2346" gradientUnits="userSpaceOnUse">
<stop stop-color="#EC11FF"/>
<stop offset="1" stop-color="#1BE4FF"/>
</linearGradient>
<linearGradient id="paint21_linear_675_668" x1="102.823" y1="115.314" x2="125.918" y2="120.6" gradientUnits="userSpaceOnUse">
<stop stop-color="#EC11FF"/>
<stop offset="1" stop-color="#1BE4FF"/>
</linearGradient>
<linearGradient id="paint22_linear_675_668" x1="143.261" y1="46.2752" x2="145.025" y2="47.8456" gradientUnits="userSpaceOnUse">
<stop stop-color="#EC11FF"/>
<stop offset="1" stop-color="#1BE4FF"/>
</linearGradient>
<linearGradient id="paint23_linear_675_668" x1="156.247" y1="162.779" x2="170.813" y2="167.345" gradientUnits="userSpaceOnUse">
<stop stop-color="#EC11FF"/>
<stop offset="1" stop-color="#1BE4FF"/>
</linearGradient>
<linearGradient id="paint24_linear_675_668" x1="169.505" y1="85.7338" x2="176.519" y2="88.0059" gradientUnits="userSpaceOnUse">
<stop stop-color="#EC11FF"/>
<stop offset="1" stop-color="#1BE4FF"/>
</linearGradient>
<linearGradient id="paint25_linear_675_668" x1="78.0596" y1="59.0421" x2="81.372" y2="61.0472" gradientUnits="userSpaceOnUse">
<stop stop-color="#EC11FF"/>
<stop offset="1" stop-color="#1BE4FF"/>
</linearGradient>
<linearGradient id="paint26_linear_675_668" x1="158.277" y1="68.9265" x2="160.052" y2="69.6203" gradientUnits="userSpaceOnUse">
<stop stop-color="#EC11FF"/>
<stop offset="1" stop-color="#1BE4FF"/>
</linearGradient>
<linearGradient id="paint27_linear_675_668" x1="168.394" y1="193.702" x2="177.487" y2="196.444" gradientUnits="userSpaceOnUse">
<stop stop-color="#EC11FF"/>
<stop offset="1" stop-color="#1BE4FF"/>
</linearGradient>
<linearGradient id="paint28_linear_675_668" x1="125.917" y1="74.4008" x2="148.314" y2="83.2015" gradientUnits="userSpaceOnUse">
<stop stop-color="#EC11FF"/>
<stop offset="1" stop-color="#1BE4FF"/>
</linearGradient>
</defs>
</svg>
