<svg width="20" height="20" viewBox="0 0 20 20" fill="none" xmlns="http://www.w3.org/2000/svg">
<mask id="mask0_1792_4761" style="mask-type:alpha" maskUnits="userSpaceOnUse" x="0" y="0" width="20" height="20">
<path fill-rule="evenodd" clip-rule="evenodd" d="M11.8546 6.35634C10.6316 6.21965 9.36835 6.21965 8.14534 6.35634C7.22432 6.45928 6.47793 7.18421 6.36887 8.11665C6.22252 9.36795 6.22252 10.6321 6.36887 11.8834C6.47793 12.8158 7.22432 13.5407 8.14534 13.6437C9.36835 13.7804 10.6316 13.7804 11.8546 13.6437C12.7757 13.5407 13.5221 12.8158 13.6311 11.8834C13.7775 10.6321 13.7775 9.36795 13.6311 8.11665C13.5221 7.18421 12.7757 6.45928 11.8546 6.35634ZM8.31623 7.88529C9.42567 7.76129 10.5743 7.76129 11.6838 7.88529C11.9054 7.91005 12.0786 8.08585 12.1031 8.29536C12.2355 9.42793 12.2355 10.5721 12.1031 11.7046C12.0786 11.9142 11.9054 12.09 11.6838 12.1147C10.5743 12.2387 9.42567 12.2387 8.31623 12.1147C8.09463 12.09 7.92142 11.9142 7.89692 11.7046C7.76445 10.5721 7.76445 9.42793 7.89692 8.29536C7.92142 8.08585 8.09463 7.91005 8.31623 7.88529Z" fill="black"/>
<path fill-rule="evenodd" clip-rule="evenodd" d="M13.8462 0.769231C13.8462 0.344396 13.5018 0 13.0769 0C12.6521 0 12.3077 0.344396 12.3077 0.769231V3.35756C11.7966 3.32166 11.2833 3.29775 10.7692 3.28581V1.79487C10.7692 1.37004 10.4248 1.02564 10 1.02564C9.57517 1.02564 9.23077 1.37004 9.23077 1.79487V3.28581C8.71668 3.29775 8.20336 3.32166 7.69231 3.35756V0.769231C7.69231 0.344396 7.34791 0 6.92308 0C6.49824 0 6.15385 0.344396 6.15385 0.769231V3.50977C4.82058 3.75261 3.75641 4.80606 3.52606 6.15385H0.769231C0.344396 6.15385 0 6.49824 0 6.92308C0 7.34791 0.344396 7.69231 0.769231 7.69231H3.37169C3.33424 8.2046 3.30928 8.71757 3.29681 9.23077H1.79487C1.37004 9.23077 1.02564 9.57517 1.02564 10C1.02564 10.4248 1.37004 10.7692 1.79487 10.7692H3.29681C3.30929 11.2824 3.33425 11.7954 3.37169 12.3077H0.769231C0.344396 12.3077 0 12.6521 0 13.0769C0 13.5018 0.344396 13.8462 0.769231 13.8462H3.52606C3.75642 15.1939 4.82058 16.2474 6.15385 16.4902V19.2308C6.15385 19.6556 6.49824 20 6.92308 20C7.34791 20 7.69231 19.6556 7.69231 19.2308V16.6424C8.20336 16.6783 8.71668 16.7022 9.23077 16.7142V18.2051C9.23077 18.63 9.57517 18.9744 10 18.9744C10.4248 18.9744 10.7692 18.63 10.7692 18.2051V16.7142C11.2833 16.7022 11.7966 16.6783 12.3077 16.6424V19.2308C12.3077 19.6556 12.6521 20 13.0769 20C13.5018 20 13.8462 19.6556 13.8462 19.2308V16.4902C15.1794 16.2474 16.2436 15.1939 16.4739 13.8462H19.2308C19.6556 13.8462 20 13.5018 20 13.0769C20 12.6521 19.6556 12.3077 19.2308 12.3077H16.6283C16.6658 11.7954 16.6907 11.2824 16.7032 10.7692H18.2051C18.63 10.7692 18.9744 10.4248 18.9744 10C18.9744 9.57517 18.63 9.23077 18.2051 9.23077H16.7032C16.6907 8.71757 16.6658 8.2046 16.6283 7.69231H19.2308C19.6556 7.69231 20 7.34791 20 6.92308C20 6.49824 19.6556 6.15385 19.2308 6.15385H16.474C16.2436 4.80606 15.1794 3.75261 13.8462 3.50977V0.769231ZM6.54703 5.00609C8.82269 4.75175 11.1773 4.75175 13.453 5.00609C14.2459 5.09471 14.8789 5.72087 14.9702 6.50136C15.2421 8.82586 15.2421 11.1741 14.9702 13.4986C14.8789 14.2791 14.2459 14.9053 13.453 14.9939C11.1773 15.2482 8.82269 15.2482 6.54703 14.9939C5.75412 14.9053 5.12111 14.2791 5.02983 13.4986C4.75796 11.1741 4.75796 8.82586 5.02983 6.50136C5.12111 5.72087 5.75412 5.09471 6.54703 5.00609Z" fill="black"/>
</mask>
<g mask="url(#mask0_1792_4761)">
<rect width="20" height="20" fill="#FCFCFC"/>
</g>
</svg>
