<svg width="48" height="48" viewBox="0 0 48 48" fill="none" xmlns="http://www.w3.org/2000/svg">
<rect width="48" height="48" rx="24" fill="url(#paint0_linear_4507_1766)"/>
<path d="M28.9136 29.3191C28.4719 29.0889 28.3002 28.5443 28.5304 28.1032L33.2337 19.066C33.4639 18.6242 34.0084 18.4524 34.4493 18.6827C34.891 18.913 35.0627 19.4576 34.8325 19.8986L30.1292 28.9358C29.8997 29.3776 29.3553 29.5487 28.9136 29.3191ZM27.7063 25.6917C28.1435 25.4636 28.3137 24.9243 28.0857 24.487L25.2609 19.0585C25.0329 18.6212 24.4938 18.4509 24.0566 18.679C23.6194 18.907 23.4492 19.4463 23.6771 19.8836L26.502 25.3121C26.7299 25.7494 27.2683 25.9189 27.7063 25.6917ZM25.0074 28.1295L24.7292 27.5857L20.5478 19.3983C20.2809 18.8747 19.7424 18.5455 19.1553 18.5455H18.9836C18.3964 18.5455 17.858 18.8747 17.591 19.3983L13.4096 27.5857L13.1314 28.1295C12.8247 28.7303 13.2611 29.4429 13.9353 29.4429H13.9945C14.3335 29.4429 14.6439 29.2531 14.7984 28.9508L15.4958 27.5849L18.2659 22.1602C18.6011 21.5038 19.5385 21.5038 19.8737 22.1602L21.9734 26.2715C22.2801 26.8723 21.8436 27.5849 21.1695 27.5849H18.0469C17.5483 27.5849 17.1441 27.9892 17.1441 28.488V28.5398C17.1441 29.0386 17.5483 29.4429 18.0469 29.4429H24.2035C24.8785 29.4437 25.3149 28.7303 25.0074 28.1295ZM38.5737 24.0032C38.573 24.403 38.5587 24.8028 38.5272 25.2011C38.5122 25.3984 38.4927 25.5949 38.4702 25.7907C38.465 25.8342 38.4597 25.8777 38.4545 25.9212C38.4297 26.1305 38.468 25.8319 38.45 25.9587C38.435 26.066 38.4185 26.174 38.4012 26.2812C38.276 27.0546 38.0908 27.8174 37.8478 28.5623C37.7293 28.9246 37.5951 29.2809 37.4526 29.6342C37.4429 29.6582 37.3994 29.7602 37.4511 29.6387C37.4346 29.6777 37.4181 29.7159 37.4009 29.7549C37.3634 29.842 37.3244 29.9282 37.2846 30.0145C37.2014 30.196 37.1144 30.3753 37.0244 30.553C36.6847 31.2236 36.2948 31.8687 35.8598 32.4816C35.7519 32.6346 35.6401 32.7846 35.5269 32.9339C35.6109 32.8244 35.4744 32.9999 35.4459 33.0351C35.3814 33.1161 35.3154 33.1972 35.2487 33.2767C35.0095 33.5639 34.7598 33.8422 34.5003 34.1115C34.2341 34.3883 33.9566 34.6546 33.6702 34.9104C33.5382 35.0282 33.4047 35.1429 33.269 35.2562C33.197 35.3162 33.125 35.3754 33.0515 35.434C33.0193 35.4602 32.9863 35.4857 32.954 35.512C32.9293 35.5315 32.9053 35.5502 32.8805 35.5697C32.9345 35.5285 32.9413 35.5225 32.9015 35.5532C32.2956 36.0138 31.6575 36.4308 30.9908 36.7976C30.6601 36.9792 30.3227 37.1487 29.9792 37.3055C29.9027 37.3407 29.8255 37.3745 29.749 37.4082C29.7107 37.4247 29.6718 37.442 29.6328 37.4585C29.761 37.4037 29.6313 37.4592 29.599 37.472C29.413 37.547 29.2263 37.6205 29.0373 37.6895C28.3152 37.9528 27.5728 38.1606 26.8184 38.3106C26.6272 38.3488 26.436 38.3833 26.2432 38.4141C26.1578 38.4276 26.0715 38.4403 25.9853 38.4531C25.8443 38.4741 25.9515 38.4576 25.9808 38.4539C25.9155 38.4621 25.8511 38.4704 25.7858 38.4779C25.3921 38.5236 24.9962 38.5544 24.6002 38.5694C23.7919 38.6009 22.9812 38.5694 22.1781 38.4734C22.1241 38.4666 22.0694 38.4599 22.0154 38.4531C22.0446 38.4569 22.1518 38.4726 22.0109 38.4524C21.9246 38.4396 21.8391 38.4268 21.7529 38.4133C21.5392 38.3788 21.3262 38.3406 21.1147 38.2971C20.7368 38.2198 20.3611 38.1283 19.9899 38.0225C19.6225 37.9175 19.2588 37.799 18.8996 37.667C18.7308 37.6047 18.5644 37.5387 18.3979 37.472C18.3656 37.4592 18.2359 37.4037 18.3641 37.4585C18.3252 37.442 18.2869 37.4255 18.2479 37.4082C18.1512 37.3662 18.0559 37.3227 17.96 37.2792C17.2761 36.9634 16.6162 36.5974 15.9862 36.1841C15.6728 35.9785 15.3676 35.7617 15.0699 35.5337C15.1786 35.617 15.0684 35.5322 15.0421 35.5112C15.0016 35.479 14.9604 35.4467 14.9199 35.4137C14.8554 35.3612 14.7909 35.3087 14.7272 35.2554C14.5757 35.1294 14.4265 34.9996 14.2795 34.8676C13.7238 34.3673 13.2049 33.8272 12.728 33.2512C12.668 33.1792 12.6095 33.1064 12.551 33.0336C12.5307 33.0089 12.3823 32.8176 12.47 32.9324C12.3433 32.7673 12.2203 32.5993 12.1011 32.4291C11.8851 32.1223 11.6804 31.8072 11.4876 31.4854C11.2942 31.1621 11.1127 30.8321 10.944 30.4953C10.8592 30.3265 10.7775 30.1563 10.6988 29.9837C10.6635 29.9072 10.6298 29.83 10.596 29.7534C10.5795 29.7152 10.5623 29.6762 10.5458 29.6372C10.6065 29.7797 10.5255 29.5869 10.5203 29.5742C10.2316 28.8653 9.99687 28.134 9.81839 27.3899C9.7254 27.0013 9.64742 26.6098 9.58517 26.2152C9.57018 26.1185 9.55518 26.0217 9.54243 25.9249C9.56343 26.0749 9.53043 25.8229 9.52668 25.7899C9.50269 25.5829 9.48244 25.3751 9.46669 25.1673C9.40595 24.3595 9.4082 23.5456 9.47419 22.7385C9.48919 22.5525 9.50794 22.3672 9.52968 22.1819C9.53493 22.1384 9.54018 22.0949 9.54543 22.0522C9.56118 21.9254 9.51993 22.2224 9.55068 22.0147C9.56643 21.9074 9.58218 21.7994 9.60017 21.6921C9.66316 21.3088 9.74115 20.9285 9.83264 20.5512C10.0141 19.8064 10.2571 19.081 10.5435 18.3707C10.5953 18.2424 10.5563 18.3399 10.545 18.3662C10.566 18.3174 10.5863 18.2694 10.608 18.2214C10.6463 18.1344 10.6845 18.0481 10.7243 17.9626C10.8037 17.7908 10.8855 17.6213 10.971 17.4526C11.1412 17.1165 11.3242 16.7872 11.5191 16.4647C11.7186 16.1346 11.9301 15.8121 12.1543 15.4978C12.257 15.3538 12.362 15.2113 12.4693 15.071C12.3838 15.182 12.5442 14.9765 12.5697 14.9457C12.635 14.8647 12.7002 14.7844 12.767 14.7049C13.2529 14.1236 13.7816 13.5783 14.3485 13.0742C14.4805 12.9572 14.6147 12.8417 14.7504 12.7292C14.8224 12.6692 14.8952 12.6107 14.9679 12.5522C15.0001 12.5259 15.0331 12.5004 15.0654 12.4749C15.2266 12.3459 14.9529 12.5574 15.1186 12.4336C15.4186 12.2086 15.723 11.9911 16.038 11.787C16.6694 11.3767 17.3315 11.0129 18.0169 10.7002C18.1032 10.6612 18.1894 10.6229 18.2764 10.5846C18.3079 10.5704 18.4376 10.5164 18.3094 10.5696C18.3484 10.5531 18.3874 10.5374 18.4264 10.5216C18.6026 10.4496 18.7803 10.3814 18.9588 10.3161C19.3285 10.1818 19.7035 10.0618 20.0821 9.95606C20.4541 9.85254 20.8305 9.76328 21.2092 9.68827C21.39 9.65226 21.5707 9.62001 21.7522 9.59151C21.8489 9.57576 21.9456 9.5615 22.0424 9.548C22.1691 9.53 21.8706 9.5675 22.0799 9.5435C22.1338 9.5375 22.1886 9.53 22.2426 9.524C23.0465 9.43173 23.8571 9.40398 24.6655 9.43849C25.0614 9.45574 25.4566 9.48799 25.8496 9.53525C25.893 9.5405 25.9365 9.54575 25.9793 9.55175C25.8436 9.5345 25.9575 9.54875 25.9838 9.5525C26.0805 9.56675 26.1773 9.581 26.274 9.59676C26.4765 9.62976 26.6789 9.66652 26.8799 9.70777C27.6328 9.86154 28.3737 10.0723 29.0951 10.3379C29.2736 10.4039 29.4498 10.4744 29.626 10.5449C29.7542 10.5966 29.6568 10.5576 29.6305 10.5464C29.6695 10.5629 29.7077 10.5794 29.7467 10.5966C29.8435 10.6386 29.9387 10.6822 30.0347 10.7257C30.3871 10.8884 30.7328 11.064 31.071 11.253C31.3995 11.436 31.7205 11.631 32.0339 11.8381C32.1816 11.9356 32.3279 12.0353 32.4726 12.1381C32.5491 12.1921 32.6248 12.2469 32.6998 12.3031C32.7418 12.3339 32.783 12.3654 32.825 12.3961C32.8498 12.4149 32.9953 12.5274 32.879 12.4366C33.4684 12.8964 34.0249 13.399 34.5415 13.9391C34.7995 14.2091 35.0485 14.4889 35.2862 14.7769C35.3394 14.8407 35.3912 14.9052 35.4437 14.9705C35.4759 15.011 35.5082 15.0522 35.5404 15.0927C35.6154 15.1888 35.4422 14.9607 35.5621 15.1212C35.6746 15.2713 35.7856 15.4213 35.8936 15.5751C36.3263 16.1901 36.7132 16.8367 37.0507 17.5088C37.1354 17.6776 37.2171 17.8479 37.2959 18.0204C37.3311 18.0969 37.3649 18.1741 37.3986 18.2507C37.3964 18.2454 37.4774 18.4359 37.4376 18.3399C37.4061 18.2649 37.4781 18.4397 37.4864 18.4592C37.6296 18.8125 37.7593 19.171 37.8748 19.5348C38.1133 20.2819 38.294 21.047 38.414 21.8211C38.4275 21.9074 38.4402 21.9929 38.4522 22.0792C38.432 21.9337 38.4672 22.2052 38.4717 22.2472C38.4927 22.4325 38.5107 22.6185 38.525 22.8045C38.5587 23.2043 38.573 23.6034 38.5737 24.0032C38.5745 24.376 38.9007 24.7338 39.2868 24.7165C39.6723 24.6993 40.0007 24.403 40 24.0032C39.9932 20.7102 38.9749 17.4361 37.0559 14.7544C35.1647 12.1111 32.5281 10.0888 29.4775 8.96442C26.343 7.80852 22.8245 7.69375 19.6135 8.60888C16.5307 9.48724 13.7201 11.3167 11.6826 13.7943C9.57543 16.3574 8.30286 19.4958 8.0464 22.806C7.79144 26.1005 8.59307 29.4632 10.3073 32.288C11.9631 35.0161 14.446 37.2492 17.357 38.5641C20.4473 39.9593 23.9058 40.3516 27.2309 39.6803C30.3864 39.0434 33.3297 37.4015 35.5531 35.0762C37.7848 32.7418 39.3063 29.7294 39.7968 26.5325C39.925 25.6947 39.9985 24.8515 40 24.0032C40.0007 23.6304 39.6715 23.2741 39.2868 23.2906C38.8999 23.3078 38.5752 23.6034 38.5737 24.0032Z" fill="#FCFCFC"/>
<defs>
<linearGradient id="paint0_linear_4507_1766" x1="53.76" y1="113.872" x2="99.2539" y2="80.8237" gradientUnits="userSpaceOnUse">
<stop stop-color="#FF00FF"/>
<stop offset="1" stop-color="#00FFFF"/>
</linearGradient>
</defs>
</svg>
