<svg width="31" height="31" viewBox="0 0 31 31" fill="none" xmlns="http://www.w3.org/2000/svg">
<path d="M29.673 1.18407C29.3885 0.999389 29.0703 0.872581 28.7368 0.810888C28.4032 0.749195 28.0607 0.753826 27.729 0.824516C27.3972 0.895206 27.0826 1.03057 26.8031 1.22288C26.5237 1.41518 26.2848 1.66066 26.1003 1.94529L11.625 24.2575L4.56562 17.7303C4.31655 17.5 4.02457 17.321 3.70633 17.2036C3.3881 17.0861 3.04984 17.0325 2.71089 17.0458C2.02633 17.0726 1.38046 17.3703 0.915366 17.8733C0.450269 18.3763 0.20404 19.0434 0.230847 19.728C0.257654 20.4125 0.555302 21.0584 1.05831 21.5235L10.3273 30.0933C10.3273 30.0933 10.5934 30.3223 10.7165 30.4024C11.0011 30.5872 11.3193 30.7142 11.653 30.7759C11.9866 30.8377 12.3292 30.8331 12.6611 30.7624C12.993 30.6917 13.3077 30.5563 13.5872 30.3639C13.8667 30.1715 14.1056 29.926 14.2901 29.6412L30.4343 4.75682C30.6189 4.47227 30.7457 4.15412 30.8074 3.82055C30.8691 3.48698 30.8645 3.14452 30.7938 2.81274C30.7231 2.48096 30.5878 2.16636 30.3954 1.88691C30.2031 1.60745 29.9577 1.36863 29.673 1.18407Z" fill="#00C874"/>
</svg>
