<svg width="40" height="40" viewBox="0 0 40 40" fill="none" xmlns="http://www.w3.org/2000/svg">
<rect width="40" height="40" rx="20" fill="white"/>
<path d="M15.4612 19.8596C15.4612 17.4312 17.4293 15.4621 19.8577 15.4621C22.2861 15.4621 24.2553 17.4312 24.2553 19.8596C24.2553 22.2881 22.2861 24.2572 19.8577 24.2572C17.4293 24.2572 15.4612 22.2881 15.4612 19.8596ZM13.0839 19.8596C13.0839 23.6008 16.1165 26.6334 19.8577 26.6334C23.5988 26.6334 26.6314 23.6008 26.6314 19.8596C26.6314 16.1185 23.5988 13.0859 19.8577 13.0859C16.1165 13.0859 13.084 16.1183 13.084 19.8596M25.3167 12.8173C25.3166 13.1304 25.4093 13.4365 25.5831 13.6969C25.757 13.9573 26.0041 14.1603 26.2933 14.2802C26.5825 14.4001 26.9008 14.4316 27.2079 14.3706C27.515 14.3097 27.7971 14.159 28.0186 13.9377C28.2401 13.7164 28.391 13.4344 28.4522 13.1274C28.5134 12.8203 28.4822 12.502 28.3625 12.2127C28.2428 11.9234 28.04 11.6761 27.7797 11.5021C27.5195 11.328 27.2134 11.2351 26.9003 11.2349H26.8997C26.48 11.2351 26.0776 11.4019 25.7808 11.6986C25.484 11.9953 25.3171 12.3976 25.3167 12.8173ZM14.5282 30.5974C13.2421 30.5389 12.5431 30.3246 12.0785 30.1437C11.4626 29.9039 11.0232 29.6183 10.5611 29.1569C10.0991 28.6955 9.81313 28.2565 9.57441 27.6406C9.39331 27.1763 9.17908 26.477 9.12062 25.1909C9.05666 23.8004 9.04389 23.3827 9.04389 19.8598C9.04389 16.337 9.05772 15.9205 9.12062 14.5288C9.17919 13.2427 9.395 12.5448 9.57441 12.0791C9.81418 11.4632 10.0998 11.0238 10.5611 10.5617C11.0225 10.0997 11.4616 9.81371 12.0785 9.57499C12.5429 9.3939 13.2421 9.17966 14.5282 9.1212C15.9188 9.05724 16.3365 9.04447 19.8577 9.04447C23.3789 9.04447 23.797 9.05809 25.1887 9.12141C26.4748 9.17998 27.1727 9.39579 27.6384 9.5752C28.2543 9.81392 28.6938 10.1005 29.1558 10.5619C29.6178 11.0233 29.9028 11.4634 30.1425 12.0793C30.3236 12.5436 30.5379 13.2429 30.5963 14.529C30.6603 15.9207 30.6731 16.3373 30.6731 19.8601C30.6731 23.3829 30.6603 23.7994 30.5963 25.1911C30.5378 26.4772 30.3225 27.1763 30.1425 27.6408C29.9028 28.2567 29.6172 28.6962 29.1558 29.1571C28.6944 29.6181 28.2543 29.9041 27.6384 30.1439C27.1741 30.325 26.4748 30.5392 25.1887 30.5977C23.7982 30.6616 23.3805 30.6744 19.8577 30.6744C16.3349 30.6744 15.9183 30.6616 14.5282 30.5977M14.419 6.74786C13.0147 6.81181 12.0551 7.03449 11.217 7.36058C10.3497 7.69734 9.61441 8.14913 8.88021 8.88216C8.14601 9.6152 7.69539 10.3506 7.35863 11.219C7.03253 12.0576 6.80986 13.0166 6.7459 14.421C6.6809 15.8275 6.66602 16.2772 6.66602 19.8596C6.66602 23.4421 6.6809 23.8918 6.7459 25.2983C6.80986 26.7027 7.03253 27.6617 7.35863 28.5003C7.69539 29.3677 8.14612 30.1044 8.88021 30.8371C9.6143 31.5698 10.3486 32.021 11.217 32.3587C12.0567 32.6848 13.0147 32.9075 14.419 32.9714C15.8263 33.0354 16.2752 33.0513 19.8577 33.0513C23.4401 33.0513 23.8898 33.0364 25.2963 32.9714C26.7008 32.9075 27.6598 32.6848 28.4983 32.3587C29.3657 32.021 30.101 31.5701 30.8352 30.8371C31.5693 30.1041 32.019 29.3677 32.3567 28.5003C32.6828 27.6617 32.9066 26.7026 32.9695 25.2983C33.0334 23.8907 33.0483 23.4421 33.0483 19.8596C33.0483 16.2772 33.0334 15.8275 32.9695 14.421C32.9055 13.0165 32.6828 12.057 32.3567 11.219C32.019 10.3516 31.5682 9.61636 30.8352 8.88216C30.1021 8.14797 29.3657 7.69734 28.4994 7.36058C27.6598 7.03449 26.7007 6.81076 25.2974 6.74786C23.8906 6.68359 23.4412 6.66797 19.8593 6.66797C16.2774 6.66797 15.8268 6.68285 14.4196 6.74786" fill="#000017"/>
</svg>
