<svg width="23" height="23" viewBox="0 0 23 23" fill="none" xmlns="http://www.w3.org/2000/svg">
<path d="M20 0.479492H2.5C1.11929 0.479492 0 1.59878 0 2.97949V20.4795C0 21.8602 1.11929 22.9795 2.5 22.9795H20C21.3807 22.9795 22.5 21.8602 22.5 20.4795V2.97949C22.5 1.59878 21.3807 0.479492 20 0.479492ZM6.875 18.6045C6.875 18.9497 6.59518 19.2295 6.25 19.2295H4.375C4.02982 19.2295 3.75 18.9497 3.75 18.6045V9.85449C3.75 9.50931 4.02982 9.22949 4.375 9.22949H6.25C6.59518 9.22949 6.875 9.50931 6.875 9.85449V18.6045ZM5.3125 7.97949C4.27697 7.97949 3.4375 7.14003 3.4375 6.10449C3.4375 5.06896 4.27697 4.22949 5.3125 4.22949C6.34803 4.22949 7.1875 5.06896 7.1875 6.10449C7.1875 7.14003 6.34803 7.97949 5.3125 7.97949ZM18.75 18.6045C18.75 18.9497 18.4702 19.2295 18.125 19.2295H16.25C15.9048 19.2295 15.625 18.9497 15.625 18.6045V13.917C15.625 12.8815 14.7855 12.042 13.75 12.042C12.7145 12.042 11.875 12.8815 11.875 13.917V18.6045C11.875 18.9497 11.5952 19.2295 11.25 19.2295H9.375C9.02982 19.2295 8.75 18.9497 8.75 18.6045V9.85449C8.75 9.50931 9.02982 9.22949 9.375 9.22949H11.25C11.5952 9.22949 11.875 9.50931 11.875 9.85449V10.6045C12.6353 9.4475 13.9713 8.80355 15.35 8.92949C17.322 9.17264 18.7906 10.868 18.75 12.8545V18.6045Z" fill="white"/>
</svg>
