<svg width="40" height="40" viewBox="0 0 40 40" fill="none" xmlns="http://www.w3.org/2000/svg">
<rect width="40" height="40" rx="20" fill="#FCFCFC"/>
<g clip-path="url(#clip0_1336_42786)">
<path d="M8.33398 11.4475C8.33398 10.6967 8.59675 10.0774 9.12227 9.5894C9.64779 9.10141 10.331 8.85742 11.1718 8.85742C11.9977 8.85742 12.6658 9.09765 13.1763 9.57814C13.7018 10.0736 13.9646 10.7193 13.9646 11.5151C13.9646 12.2358 13.7094 12.8364 13.1988 13.3169C12.6733 13.8124 11.9826 14.0601 11.1268 14.0601H11.1043C10.2784 14.0601 9.61027 13.8124 9.09975 13.3169C8.58923 12.8214 8.33398 12.1983 8.33398 11.4475ZM8.62678 31.1547V16.1097H13.6268V31.1547H8.62678ZM16.397 31.1547H21.397V22.7538C21.397 22.2283 21.4571 21.8229 21.5772 21.5376C21.7874 21.0271 22.1065 20.5954 22.5344 20.2426C22.9624 19.8897 23.4991 19.7133 24.1448 19.7133C25.8265 19.7133 26.6673 20.8469 26.6673 23.1142V31.1547H31.6673V22.5286C31.6673 20.3064 31.1418 18.6209 30.0907 17.4723C29.0397 16.3236 27.6508 15.7493 25.9241 15.7493C23.9871 15.7493 22.4781 16.5826 21.397 18.2493V18.2944H21.3745L21.397 18.2493V16.1097H16.397C16.4271 16.5901 16.4421 18.0841 16.4421 20.5917C16.4421 23.0992 16.4271 26.6202 16.397 31.1547Z" fill="#000017"/>
</g>
<defs>
<clipPath id="clip0_1336_42786">
<rect x="8.33398" y="8.33398" width="23.3333" height="23.3333" fill="white"/>
</clipPath>
</defs>
</svg>
