<svg width="40" height="40" viewBox="0 0 40 40" fill="none" xmlns="http://www.w3.org/2000/svg">
<rect x="1" y="1" width="38" height="38" rx="19" stroke="url(#paint0_linear_2983_13668)" stroke-width="2"/>
<path d="M17 12H15C14.4477 12 14 12.4477 14 13V27C14 27.5523 14.4477 28 15 28H17C17.5523 28 18 27.5523 18 27V13C18 12.4477 17.5523 12 17 12Z" fill="url(#paint1_linear_2983_13668)"/>
<path d="M25 12H23C22.4477 12 22 12.4477 22 13V27C22 27.5523 22.4477 28 23 28H25C25.5523 28 26 27.5523 26 27V13C26 12.4477 25.5523 12 25 12Z" fill="url(#paint2_linear_2983_13668)"/>
<defs>
<linearGradient id="paint0_linear_2983_13668" x1="44.8" y1="94.8936" x2="82.7116" y2="67.353" gradientUnits="userSpaceOnUse">
<stop stop-color="#FF00FF"/>
<stop offset="1" stop-color="#00FFFF"/>
</linearGradient>
<linearGradient id="paint1_linear_2983_13668" x1="18.48" y1="49.9574" x2="24.0869" y2="48.9392" gradientUnits="userSpaceOnUse">
<stop stop-color="#FF00FF"/>
<stop offset="1" stop-color="#00FFFF"/>
</linearGradient>
<linearGradient id="paint2_linear_2983_13668" x1="26.48" y1="49.9574" x2="32.0869" y2="48.9392" gradientUnits="userSpaceOnUse">
<stop stop-color="#FF00FF"/>
<stop offset="1" stop-color="#00FFFF"/>
</linearGradient>
</defs>
</svg>
