<svg width="32" height="32" viewBox="0 0 32 32" fill="none" xmlns="http://www.w3.org/2000/svg">
<path d="M8.66491 13.3323C8.36757 13.3323 8.08224 13.3776 7.79824 13.419C7.89024 13.1096 7.98491 12.795 8.13691 12.5123C8.28891 12.1016 8.52624 11.7456 8.76224 11.387C8.95957 10.999 9.30757 10.7363 9.56357 10.4043C9.83157 10.0816 10.1969 9.86698 10.4862 9.59898C10.7702 9.31898 11.1422 9.17898 11.4382 8.98165C11.7476 8.80431 12.0169 8.60831 12.3049 8.51498L13.0236 8.21898L13.6556 7.95631L13.0089 5.37231L12.2129 5.56431C11.9582 5.62831 11.6476 5.70298 11.2942 5.79231C10.9329 5.85898 10.5476 6.04165 10.1182 6.20831C9.69424 6.39765 9.20357 6.52565 8.74757 6.82965C8.28891 7.12031 7.75957 7.36298 7.29291 7.75231C6.84091 8.15365 6.29557 8.50165 5.89291 9.01231C5.45291 9.48965 5.01824 9.99098 4.68091 10.5616C4.29024 11.1056 4.02491 11.703 3.74491 12.2936C3.49157 12.8843 3.28757 13.4883 3.12091 14.075C2.80491 15.251 2.66357 16.3683 2.60891 17.3243C2.56357 18.2816 2.59024 19.0776 2.64624 19.6536C2.66624 19.9256 2.70357 20.1896 2.73024 20.3723L2.76357 20.5963L2.79824 20.5883C3.03539 21.6961 3.58131 22.7141 4.37286 23.5246C5.1644 24.335 6.16923 24.9048 7.27109 25.1681C8.37296 25.4313 9.52683 25.3772 10.5992 25.0121C11.6717 24.6469 12.6188 23.9856 13.331 23.1047C14.0433 22.2237 14.4916 21.1591 14.6241 20.034C14.7566 18.9089 14.5679 17.7693 14.0797 16.747C13.5916 15.7247 12.824 14.8615 11.8658 14.2572C10.9075 13.6529 9.79778 13.3322 8.66491 13.3323ZM23.3316 13.3323C23.0342 13.3323 22.7489 13.3776 22.4649 13.419C22.5569 13.1096 22.6516 12.795 22.8036 12.5123C22.9556 12.1016 23.1929 11.7456 23.4289 11.387C23.6262 10.999 23.9742 10.7363 24.2302 10.4043C24.4982 10.0816 24.8636 9.86698 25.1529 9.59898C25.4369 9.31898 25.8089 9.17898 26.1049 8.98165C26.4142 8.80431 26.6836 8.60831 26.9716 8.51498L27.6902 8.21898L28.3222 7.95631L27.6756 5.37231L26.8796 5.56431C26.6249 5.62831 26.3142 5.70298 25.9609 5.79231C25.5996 5.85898 25.2142 6.04165 24.7849 6.20831C24.3622 6.39898 23.8702 6.52565 23.4142 6.83098C22.9556 7.12165 22.4262 7.36431 21.9596 7.75365C21.5076 8.15498 20.9622 8.50298 20.5596 9.01231C20.1196 9.48965 19.6849 9.99098 19.3476 10.5616C18.9569 11.1056 18.6916 11.703 18.4116 12.2936C18.1582 12.8843 17.9542 13.4883 17.7876 14.075C17.4716 15.251 17.3302 16.3683 17.2756 17.3243C17.2302 18.2816 17.2569 19.0776 17.3129 19.6536C17.3329 19.9256 17.3702 20.1896 17.3969 20.3723L17.4302 20.5963L17.4649 20.5883C17.7021 21.6961 18.248 22.7141 19.0395 23.5246C19.8311 24.335 20.8359 24.9048 21.9378 25.1681C23.0396 25.4313 24.1935 25.3772 25.2659 25.0121C26.3383 24.6469 27.2854 23.9856 27.9977 23.1047C28.71 22.2237 29.1583 21.1591 29.2908 20.034C29.4233 18.9089 29.2346 17.7693 28.7464 16.747C28.2583 15.7247 27.4907 14.8615 26.5324 14.2572C25.5742 13.6529 24.4644 13.3322 23.3316 13.3323Z" fill="#FCFCFC"/>
</svg>
