<svg width="20" height="20" viewBox="0 0 20 20" fill="none" xmlns="http://www.w3.org/2000/svg">
<g clip-path="url(#clip0_9483_19232)">
<path d="M11.6665 1.66797C13.1915 1.66724 14.6706 2.18936 15.8572 3.14724C17.0438 4.10512 17.8661 5.44087 18.187 6.93169C18.5079 8.42252 18.3081 9.97831 17.6207 11.3396C16.9333 12.7009 15.8 13.7853 14.4098 14.4121C13.9654 15.3946 13.2894 16.2545 12.4397 16.9183C11.59 17.5821 10.5919 18.0299 9.53117 18.2233C8.4704 18.4166 7.37855 18.3498 6.34928 18.0285C5.32 17.7073 4.38401 17.1411 3.62157 16.3787C2.85913 15.6163 2.293 14.6803 1.97174 13.651C1.65047 12.6217 1.58366 11.5299 1.77702 10.4691C1.97039 9.40834 2.41817 8.4103 3.08195 7.56058C3.74573 6.71087 4.60572 6.03484 5.58814 5.59047C6.11659 4.42121 6.97113 3.42922 8.04926 2.73348C9.12739 2.03773 10.3833 1.66777 11.6665 1.66797ZM8.33314 6.66797C7.67653 6.66797 7.02635 6.7973 6.41972 7.04857C5.8131 7.29985 5.2619 7.66814 4.79761 8.13244C4.33331 8.59673 3.96502 9.14792 3.71374 9.75455C3.46247 10.3612 3.33314 11.0114 3.33314 11.668C3.33314 12.3246 3.46247 12.9748 3.71374 13.5814C3.96502 14.188 4.33331 14.7392 4.79761 15.2035C5.2619 15.6678 5.8131 16.0361 6.41972 16.2874C7.02635 16.5386 7.67653 16.668 8.33314 16.668C9.65922 16.668 10.931 16.1412 11.8687 15.2035C12.8064 14.2658 13.3331 12.9941 13.3331 11.668C13.3331 10.3419 12.8064 9.07012 11.8687 8.13244C10.931 7.19475 9.65922 6.66797 8.33314 6.66797ZM9.16647 7.5013V8.33464H10.8331V10.0013H7.49981C7.39569 10.0011 7.29527 10.0399 7.21832 10.1101C7.14138 10.1802 7.09349 10.2766 7.08408 10.3803C7.07467 10.484 7.10443 10.5875 7.16749 10.6703C7.23055 10.7532 7.32235 10.8094 7.42481 10.828L7.49981 10.8346H9.16647C9.71901 10.8346 10.2489 11.0541 10.6396 11.4448C11.0303 11.8355 11.2498 12.3654 11.2498 12.918C11.2498 13.4705 11.0303 14.0004 10.6396 14.3911C10.2489 14.7818 9.71901 15.0013 9.16647 15.0013V15.8346H7.49981V15.0013H5.83314V13.3346H9.16647C9.27059 13.3348 9.37101 13.296 9.44796 13.2259C9.5249 13.1557 9.57279 13.0593 9.5822 12.9556C9.59161 12.8519 9.56185 12.7485 9.49879 12.6656C9.43573 12.5828 9.34393 12.5265 9.24147 12.508L9.16647 12.5013H7.49981C6.94727 12.5013 6.41737 12.2818 6.02667 11.8911C5.63597 11.5004 5.41647 10.9705 5.41647 10.418C5.41647 9.86544 5.63597 9.33553 6.02667 8.94483C6.41737 8.55413 6.94727 8.33464 7.49981 8.33464V7.5013H9.16647ZM11.6665 3.33464C10.9604 3.33381 10.2622 3.48292 9.61799 3.7721C8.97383 4.06129 8.39841 4.48395 7.92981 5.01214C8.87169 4.95496 9.81499 5.09838 10.6973 5.43292C11.5796 5.76747 12.3809 6.28551 13.0481 6.95279C13.7153 7.62007 14.2332 8.42138 14.5677 9.30375C14.9021 10.1861 15.0454 11.1294 14.9881 12.0713C15.7458 11.3977 16.2808 10.5096 16.5222 9.5249C16.7635 8.5402 16.6998 7.5054 16.3395 6.55774C15.9792 5.61008 15.3393 4.79434 14.5047 4.2187C13.6702 3.64307 12.6803 3.33475 11.6665 3.33464Z" fill="#FCFCFC"/>
</g>
<defs>
<clipPath id="clip0_9483_19232">
<rect width="20" height="20" fill="white"/>
</clipPath>
</defs>
</svg>
