<svg width="64" height="65" viewBox="0 0 64 65" fill="none" xmlns="http://www.w3.org/2000/svg">
<g clip-path="url(#clip0_9482_19037)">
<path d="M37.3334 5.83203C42.2133 5.8297 46.9466 7.50048 50.7437 10.5657C54.5408 13.6309 57.1723 17.9053 58.1992 22.6759C59.2261 27.4466 58.5865 32.4251 56.3869 36.7812C54.1873 41.1373 50.5607 44.6076 46.1121 46.6134C44.6901 49.7571 42.5268 52.5091 39.8077 54.6332C37.0886 56.7573 33.8949 58.1902 30.5004 58.8089C27.106 59.4277 23.6121 59.2139 20.3184 58.1859C17.0247 57.1578 14.0295 55.3462 11.5897 52.9064C9.1499 50.4666 7.33829 47.4714 6.31024 44.1777C5.28219 40.884 5.06839 37.3901 5.68716 33.9957C6.30593 30.6012 7.73882 27.4075 9.86292 24.6884C11.987 21.9693 14.739 19.806 17.8827 18.384C19.5738 14.6424 22.3083 11.468 25.7583 9.24165C29.2083 7.01527 33.2274 5.8314 37.3334 5.83203ZM29.3334 24.4987H24.0001V27.1654C22.267 27.1612 20.6005 27.832 19.3536 29.0356C18.1068 30.2393 17.3776 31.8811 17.3208 33.6132C17.2639 35.3453 17.8838 37.0315 19.049 38.3144C20.2142 39.5972 21.8332 40.3759 23.5627 40.4854L24.0001 40.4987H29.3334L29.5734 40.52C29.8808 40.5757 30.1589 40.7375 30.3592 40.9773C30.5595 41.2171 30.6692 41.5196 30.6692 41.832C30.6692 42.1445 30.5595 42.447 30.3592 42.6867C30.1589 42.9265 29.8808 43.0884 29.5734 43.144L29.3334 43.1654H18.6667V48.4987H24.0001V51.1654H29.3334V48.4987C31.0664 48.5029 32.733 47.8321 33.9798 46.6285C35.2267 45.4248 35.9558 43.7829 36.0127 42.0508C36.0696 40.3187 35.4497 38.6325 34.2845 37.3497C33.1193 36.0669 31.5003 35.2882 29.7707 35.1787L29.3334 35.1654H24.0001L23.7601 35.144C23.4526 35.0884 23.1745 34.9265 22.9743 34.6867C22.774 34.447 22.6643 34.1445 22.6643 33.832C22.6643 33.5196 22.774 33.2171 22.9743 32.9773C23.1745 32.7375 23.4526 32.5757 23.7601 32.52L24.0001 32.4987H34.6667V27.1654H29.3334V24.4987ZM37.3334 11.1654C35.0739 11.1627 32.8396 11.6399 30.7783 12.5653C28.7169 13.4906 26.8756 14.8432 25.3761 16.5334C28.3901 16.3504 31.4086 16.8094 34.2321 17.8799C37.0555 18.9504 39.6195 20.6082 41.7546 22.7434C43.8896 24.8787 45.5471 27.443 46.6173 30.2665C47.6875 33.0901 48.1461 36.1087 47.9627 39.1227C50.3873 36.967 52.0993 34.1252 52.8716 30.9742C53.6439 27.8232 53.4401 24.5118 52.2871 21.4793C51.1341 18.4468 49.0865 15.8364 46.4159 13.9944C43.7452 12.1524 40.5777 11.1657 37.3334 11.1654Z" fill="#FCFCFC"/>
</g>
<defs>
<clipPath id="clip0_9482_19037">
<rect width="64" height="64" fill="white" transform="translate(0 0.5)"/>
</clipPath>
</defs>
</svg>
