<svg width="20" height="20" viewBox="0 0 20 20" fill="none" xmlns="http://www.w3.org/2000/svg">
<mask id="mask0_7339_10251" style="mask-type:alpha" maskUnits="userSpaceOnUse" x="0" y="0" width="20" height="20">
<g clip-path="url(#clip0_7339_10251)">
<path d="M10 12.5C11.3807 12.5 12.5 11.3807 12.5 10C12.5 8.61929 11.3807 7.5 10 7.5C8.61929 7.5 7.5 8.61929 7.5 10C7.5 11.3807 8.61929 12.5 10 12.5Z" stroke="#FCFCFC" stroke-width="2" stroke-linecap="round" stroke-linejoin="round"/>
<path d="M16.1668 12.4987C16.0559 12.75 16.0228 13.0289 16.0718 13.2992C16.1208 13.5695 16.2497 13.819 16.4418 14.0154L16.4918 14.0654C16.6468 14.2202 16.7697 14.404 16.8536 14.6063C16.9375 14.8086 16.9806 15.0255 16.9806 15.2445C16.9806 15.4636 16.9375 15.6804 16.8536 15.8828C16.7697 16.0851 16.6468 16.2689 16.4918 16.4237C16.337 16.5787 16.1532 16.7016 15.9509 16.7855C15.7486 16.8693 15.5317 16.9125 15.3127 16.9125C15.0936 16.9125 14.8768 16.8693 14.6744 16.7855C14.4721 16.7016 14.2883 16.5787 14.1335 16.4237L14.0835 16.3737C13.8871 16.1816 13.6377 16.0527 13.3673 16.0037C13.097 15.9547 12.8182 15.9878 12.5668 16.0987C12.3204 16.2043 12.1101 16.3797 11.9621 16.6033C11.814 16.8269 11.7346 17.0889 11.7335 17.357V17.4987C11.7335 17.9407 11.5579 18.3647 11.2453 18.6772C10.9328 18.9898 10.5089 19.1654 10.0668 19.1654C9.6248 19.1654 9.20088 18.9898 8.88832 18.6772C8.57576 18.3647 8.40016 17.9407 8.40016 17.4987V17.4237C8.39371 17.1479 8.30443 16.8804 8.14392 16.656C7.98342 16.4315 7.75911 16.2606 7.50016 16.1654C7.24882 16.0544 6.97 16.0213 6.69967 16.0704C6.42934 16.1194 6.1799 16.2483 5.9835 16.4404L5.9335 16.4904C5.77871 16.6453 5.59489 16.7683 5.39256 16.8521C5.19023 16.936 4.97336 16.9792 4.75433 16.9792C4.5353 16.9792 4.31843 16.936 4.1161 16.8521C3.91377 16.7683 3.72995 16.6453 3.57516 16.4904C3.4202 16.3356 3.29727 16.1518 3.2134 15.9494C3.12952 15.7471 3.08635 15.5302 3.08635 15.3112C3.08635 15.0922 3.12952 14.8753 3.2134 14.673C3.29727 14.4706 3.4202 14.2868 3.57516 14.132L3.62516 14.082C3.81728 13.8856 3.94615 13.6362 3.99517 13.3659C4.04418 13.0955 4.01109 12.8167 3.90016 12.5654C3.79453 12.3189 3.61913 12.1087 3.39555 11.9606C3.17198 11.8126 2.90999 11.7331 2.64183 11.732H2.50016C2.05814 11.732 1.63421 11.5564 1.32165 11.2439C1.00909 10.9313 0.833496 10.5074 0.833496 10.0654C0.833496 9.62334 1.00909 9.19942 1.32165 8.88685C1.63421 8.57429 2.05814 8.3987 2.50016 8.3987H2.57516C2.85099 8.39225 3.1185 8.30296 3.34291 8.14246C3.56732 7.98195 3.73826 7.75764 3.8335 7.4987C3.94443 7.24735 3.97752 6.96854 3.9285 6.69821C3.87948 6.42788 3.75061 6.17843 3.5585 5.98203L3.5085 5.93203C3.35354 5.77724 3.2306 5.59343 3.14673 5.3911C3.06286 5.18877 3.01969 4.97189 3.01969 4.75286C3.01969 4.53384 3.06286 4.31696 3.14673 4.11463C3.2306 3.9123 3.35354 3.72849 3.5085 3.5737C3.66328 3.41874 3.8471 3.29581 4.04943 3.21193C4.25176 3.12806 4.46864 3.08489 4.68766 3.08489C4.90669 3.08489 5.12357 3.12806 5.3259 3.21193C5.52823 3.29581 5.71204 3.41874 5.86683 3.5737L5.91683 3.6237C6.11323 3.81581 6.36268 3.94469 6.63301 3.9937C6.90334 4.04272 7.18215 4.00963 7.4335 3.8987H7.50016C7.74664 3.79306 7.95684 3.61766 8.10491 3.39409C8.25297 3.17051 8.33243 2.90852 8.3335 2.64036V2.4987C8.3335 2.05667 8.50909 1.63275 8.82165 1.32019C9.13421 1.00763 9.55814 0.832031 10.0002 0.832031C10.4422 0.832031 10.8661 1.00763 11.1787 1.32019C11.4912 1.63275 11.6668 2.05667 11.6668 2.4987V2.5737C11.6679 2.84185 11.7474 3.10384 11.8954 3.32742C12.0435 3.55099 12.2537 3.7264 12.5002 3.83203C12.7515 3.94296 13.0303 3.97605 13.3007 3.92704C13.571 3.87802 13.8204 3.74915 14.0168 3.55703L14.0668 3.50703C14.2216 3.35207 14.4054 3.22914 14.6078 3.14527C14.8101 3.06139 15.027 3.01822 15.246 3.01822C15.465 3.01822 15.6819 3.06139 15.8842 3.14527C16.0866 3.22914 16.2704 3.35207 16.4252 3.50703C16.5801 3.66182 16.7031 3.84563 16.7869 4.04796C16.8708 4.25029 16.914 4.46717 16.914 4.6862C16.914 4.90522 16.8708 5.1221 16.7869 5.32443C16.7031 5.52676 16.5801 5.71058 16.4252 5.86537L16.3752 5.91537C16.1831 6.11176 16.0542 6.36121 16.0052 6.63154C15.9561 6.90187 15.9892 7.18069 16.1002 7.43203V7.4987C16.2058 7.74517 16.3812 7.95538 16.6048 8.10344C16.8284 8.25151 17.0903 8.33096 17.3585 8.33203H17.5002C17.9422 8.33203 18.3661 8.50763 18.6787 8.82019C18.9912 9.13275 19.1668 9.55667 19.1668 9.9987C19.1668 10.4407 18.9912 10.8646 18.6787 11.1772C18.3661 11.4898 17.9422 11.6654 17.5002 11.6654H17.4252C17.157 11.6664 16.895 11.7459 16.6714 11.894C16.4479 12.042 16.2725 12.2522 16.1668 12.4987V12.4987Z" stroke="#FCFCFC" stroke-width="2" stroke-linecap="round" stroke-linejoin="round"/>
</g>
</mask>
<g mask="url(#mask0_7339_10251)">
<rect x="-6" y="-6" width="32" height="32" fill="url(#paint0_linear_7339_10251)"/>
</g>
<defs>
<linearGradient id="paint0_linear_7339_10251" x1="29.84" y1="69.9149" x2="60.1692" y2="47.8824" gradientUnits="userSpaceOnUse">
<stop stop-color="#FF00FF"/>
<stop offset="1" stop-color="#00FFFF"/>
</linearGradient>
<clipPath id="clip0_7339_10251">
<rect width="20" height="20" fill="white"/>
</clipPath>
</defs>
</svg>
