<svg width="48" height="48" viewBox="0 0 48 48" fill="none" xmlns="http://www.w3.org/2000/svg">
<rect width="48" height="48" rx="24" fill="black"/>
<path fill-rule="evenodd" clip-rule="evenodd" d="M29.1849 20.7364C30.7925 21.8803 32.7177 22.4914 34.6902 22.484V18.5715C34.3024 18.5725 33.9157 18.531 33.537 18.4476V21.5646C31.5601 21.5681 29.6321 20.9499 28.0252 19.7974V27.8442C28.0203 29.1647 27.6585 30.4592 26.9782 31.5904C26.2978 32.7217 25.3243 33.6477 24.1608 34.2701C22.9973 34.8924 21.6872 35.1881 20.3694 35.1256C19.0516 35.0631 17.7753 34.6449 16.6758 33.9152C17.6928 34.9452 18.9924 35.6499 20.4098 35.9401C21.8273 36.2304 23.2989 36.0931 24.6383 35.5457C25.9778 34.9982 27.1248 34.0653 27.9342 32.865C28.7435 31.6646 29.1788 30.2509 29.1849 28.8028V20.7364ZM30.6117 16.7456C29.7942 15.8587 29.2925 14.7261 29.1849 13.5243V13.0156H28.0903C28.2256 13.7796 28.52 14.5065 28.9544 15.1492C29.3888 15.7918 29.9535 16.3357 30.6117 16.7456ZM19.2102 30.8178C18.8308 30.3213 18.5983 29.7281 18.5392 29.1059C18.48 28.4836 18.5966 27.8572 18.8756 27.298C19.1546 26.7388 19.5849 26.2692 20.1174 25.9427C20.65 25.6162 21.2634 25.4458 21.8879 25.4511C22.2327 25.451 22.5755 25.5037 22.9043 25.6076V21.5646C22.5199 21.5136 22.1322 21.4918 21.7446 21.4994V24.6425C20.9439 24.3892 20.0774 24.4468 19.3172 24.8038C18.5571 25.1609 17.9591 25.7912 17.6422 26.5695C17.3252 27.3477 17.3126 28.2169 17.6067 29.0041C17.9009 29.7912 18.4803 30.4387 19.2297 30.8178H19.2102Z" fill="#EE1D52"/>
<path fill-rule="evenodd" clip-rule="evenodd" d="M28.0221 19.7713C29.629 20.9238 31.5571 21.542 33.5339 21.5385V18.4215C32.4076 18.1831 31.3844 17.597 30.6086 16.7456C29.9504 16.3357 29.3858 15.7918 28.9514 15.1492C28.517 14.5065 28.2226 13.7796 28.0873 13.0156H25.2076V28.8028C25.2049 29.5016 24.9836 30.182 24.5749 30.7485C24.1661 31.3151 23.5904 31.7392 22.9284 31.9615C22.2665 32.1838 21.5517 32.193 20.8843 31.9879C20.2168 31.7827 19.6303 31.3736 19.2071 30.8178C18.5364 30.4791 17.9993 29.9241 17.6824 29.2423C17.3655 28.5606 17.2873 27.7918 17.4604 27.0601C17.6336 26.3285 18.048 25.6765 18.6368 25.2095C19.2255 24.7424 19.9543 24.4876 20.7056 24.486C21.0503 24.4871 21.3929 24.5398 21.722 24.6425V21.4994C20.3001 21.5335 18.9191 21.9825 17.7486 22.7911C16.578 23.5997 15.6689 24.7329 15.1327 26.0514C14.5965 27.3699 14.4566 28.8164 14.7301 30.2133C15.0037 31.6103 15.6789 32.8969 16.6727 33.9152C17.7725 34.6501 19.0508 35.0727 20.3716 35.1379C21.6923 35.2031 23.006 34.9085 24.1726 34.2855C25.3393 33.6625 26.3153 32.7344 26.9966 31.6001C27.678 30.4658 28.0391 29.1678 28.0417 27.8442L28.0221 19.7713Z" fill="white"/>
<path fill-rule="evenodd" clip-rule="evenodd" d="M33.5361 18.4217V17.5805C32.5017 17.5849 31.4873 17.2955 30.6108 16.7459C31.3846 17.5997 32.4086 18.1863 33.5361 18.4217ZM28.0894 13.0159C28.0894 12.8659 28.0438 12.7094 28.0243 12.5594V12.0508H24.05V27.8445C24.0466 28.7289 23.6927 29.5757 23.0661 30.1992C22.4395 30.8227 21.5913 31.1719 20.7077 31.1702C20.1875 31.1728 19.674 31.0521 19.2093 30.8181C19.6325 31.3738 20.219 31.783 20.8864 31.9881C21.5538 32.1932 22.2687 32.184 22.9306 31.9617C23.5925 31.7395 24.1683 31.3153 24.577 30.7488C24.9858 30.1823 25.207 29.5019 25.2097 28.8031V13.0159H28.0894ZM21.7241 21.4931V20.5997C20.0887 20.3774 18.4263 20.716 17.0078 21.5603C15.5893 22.4047 14.4984 23.705 13.9127 25.2494C13.3271 26.7937 13.2814 28.4911 13.783 30.0648C14.2846 31.6386 15.3039 32.9958 16.6749 33.9155C15.6885 32.8948 15.0206 31.6087 14.7526 30.2143C14.4846 28.8199 14.6282 27.3775 15.1658 26.0634C15.7034 24.7493 16.6117 23.6204 17.7799 22.8146C18.948 22.0087 20.3254 21.5609 21.7437 21.5257L21.7241 21.4931Z" fill="#69C9D0"/>
</svg>
