<svg width="40" height="40" viewBox="0 0 40 40" fill="none" xmlns="http://www.w3.org/2000/svg">
<rect width="40" height="40" rx="20" fill="#FCFCFC"/>
<path d="M24.5269 8.33398H20.1815V25.1359C20.1815 27.1379 18.5103 28.7823 16.4304 28.7823C14.3506 28.7823 12.6793 27.1379 12.6793 25.1359C12.6793 23.1698 14.3135 21.561 16.319 21.4895V17.2712C11.8994 17.3427 8.33398 20.8103 8.33398 25.1359C8.33398 29.4973 11.9737 33.0007 16.4676 33.0007C20.9614 33.0007 24.6011 29.4615 24.6011 25.1359V16.5204C26.2353 17.6644 28.2408 18.3436 30.3578 18.3794V14.161C27.0895 14.0538 24.5269 11.4799 24.5269 8.33398Z" fill="#000017"/>
</svg>
