<svg width="40" height="40" viewBox="0 0 40 40" fill="none" xmlns="http://www.w3.org/2000/svg">
<rect width="40" height="40" rx="20" fill="#FCFCFC"/>
<path d="M16.3407 30.5492C25.2107 30.5492 30.0607 23.1992 30.0607 16.8292C30.0607 16.6192 30.0607 16.4092 30.0507 16.2092C30.9907 15.5292 31.8107 14.6792 32.4607 13.7092C31.6007 14.0892 30.6707 14.3492 29.6907 14.4692C30.6907 13.8692 31.4507 12.9292 31.8107 11.7992C30.8807 12.3492 29.8507 12.7492 28.7507 12.9692C27.8707 12.0292 26.6207 11.4492 25.2307 11.4492C22.5707 11.4492 20.4107 13.6092 20.4107 16.2692C20.4107 16.6492 20.4507 17.0192 20.5407 17.3692C16.5307 17.1692 12.9807 15.2492 10.6007 12.3292C10.1907 13.0392 9.9507 13.8692 9.9507 14.7492C9.9507 16.4192 10.8007 17.8992 12.1007 18.7592C11.3107 18.7392 10.5707 18.5192 9.9207 18.1592C9.9207 18.1792 9.9207 18.1992 9.9207 18.2192C9.9207 20.5592 11.5807 22.4992 13.7907 22.9492C13.3907 23.0592 12.9607 23.1192 12.5207 23.1192C12.2107 23.1192 11.9107 23.0892 11.6107 23.0292C12.2207 24.9492 14.0007 26.3392 16.1107 26.3792C14.4607 27.6692 12.3807 28.4392 10.1207 28.4392C9.7307 28.4392 9.3507 28.4192 8.9707 28.3692C11.0807 29.7492 13.6207 30.5492 16.3407 30.5492Z" fill="#000017"/>
</svg>
