<svg width="48" height="48" viewBox="0 0 48 48" fill="none" xmlns="http://www.w3.org/2000/svg">
<rect width="48" height="48" rx="24" fill="#32B8E8"/>
<path d="M35.8834 19.2567C35.7794 21.409 34.1903 24.3562 31.117 28.0967C27.9394 32.0041 25.251 33.9576 23.0518 33.9576C21.6899 33.9576 20.5366 32.7681 19.5952 30.3883C18.966 28.2068 18.3375 26.0256 17.7086 23.8442C17.0091 21.4657 16.2591 20.2749 15.4572 20.2749C15.2824 20.2749 14.6706 20.6229 13.6231 21.3163L12.5234 19.9761C13.6768 19.0173 14.8148 18.0586 15.9343 17.0987C17.4726 15.841 18.6273 15.1796 19.397 15.1128C21.216 14.9475 22.3354 16.1237 22.7557 18.6417C23.2098 21.3582 23.5239 23.048 23.7006 23.7094C24.2248 25.9632 24.8016 27.0887 25.4319 27.0887C25.9211 27.0887 26.6559 26.3578 27.6356 24.896C28.6144 23.4337 29.1386 22.3213 29.2094 21.5571C29.3487 20.2952 28.8243 19.6628 27.6356 19.6628C27.0761 19.6628 26.4993 19.7846 25.9059 20.0253C27.0544 16.466 29.2489 14.7374 32.4882 14.836C34.8896 14.9027 36.0217 16.3762 35.8834 19.2567Z" fill="white"/>
</svg>
