<svg width="42" height="27" viewBox="0 0 42 27" fill="none" xmlns="http://www.w3.org/2000/svg">
<path d="M37.5957 0.308594H4.40426C2.52414 0.308594 1 1.83273 1 3.71285V23.2873C1 25.1674 2.52414 26.6916 4.40426 26.6916H37.5957C39.4759 26.6916 41 25.1674 41 23.2873V3.71285C41 1.83273 39.4759 0.308594 37.5957 0.308594Z" fill="white" stroke="black" stroke-opacity="0.2" stroke-width="0.5"/>
<path d="M5.31932 9.95224C4.42886 9.46385 3.4126 9.07105 2.27637 8.79846L2.32403 8.58619H6.98271C7.61418 8.60832 8.12656 8.79832 8.2933 9.4693L9.30576 14.2963L9.61591 15.7502L12.4516 8.58619H15.5135L10.9621 19.0809H7.90014L5.31932 9.95224ZM17.7657 19.092H14.8701L16.6812 8.58619H19.5766L17.7657 19.092ZM28.2624 8.84303L27.8686 11.1116L27.6067 11.0001C27.0827 10.7877 26.3911 10.5754 25.4498 10.5978C24.3066 10.5978 23.7939 11.0558 23.782 11.5029C23.782 11.9948 24.4022 12.3189 25.4149 12.7996C27.0832 13.5484 27.857 14.4648 27.8455 15.6608C27.822 17.8402 25.844 19.2486 22.8058 19.2486C21.5068 19.2373 20.2556 18.9797 19.5765 18.6895L19.9817 16.3311L20.3629 16.499C21.3043 16.8906 21.9237 17.0578 23.0797 17.0578C23.9134 17.0578 24.8072 16.7334 24.8186 16.0296C24.8186 15.5713 24.4378 15.2358 23.3176 14.7216C22.2215 14.2185 20.7561 13.3804 20.7799 11.8715C20.7922 9.82626 22.8058 8.39575 25.6653 8.39575C26.7854 8.39575 27.6912 8.63046 28.2624 8.84303ZM32.1108 15.3702H34.5176C34.3985 14.8449 33.8502 12.3302 33.8502 12.3302L33.6479 11.4249C33.5049 11.8161 33.2549 12.4532 33.2669 12.4307C33.2669 12.4307 32.3493 14.7666 32.1108 15.3702ZM35.6851 8.58619L38.021 19.0919H35.34C35.34 19.0919 35.0777 17.8848 34.9945 17.516H31.2769C31.1693 17.7952 30.6692 19.0919 30.6692 19.0919H27.6309L31.9319 9.45787C32.2299 8.77603 32.7547 8.58619 33.4453 8.58619H35.6851Z" fill="#171E6C"/>
</svg>
