<svg width="40" height="40" viewBox="0 0 40 40" fill="none" xmlns="http://www.w3.org/2000/svg">
<rect width="40" height="40" rx="20" fill="#FCFCFC"/>
<path d="M31.6477 14.2739C31.3732 13.2543 30.5693 12.4503 29.5497 12.1758C27.6869 11.666 20.2359 11.666 20.2359 11.666C20.2359 11.666 12.785 11.666 10.9222 12.1562C9.92222 12.4307 9.09869 13.2543 8.82418 14.2739C8.33398 16.1366 8.33398 19.9993 8.33398 19.9993C8.33398 19.9993 8.33398 23.8817 8.82418 25.7248C9.09869 26.7444 9.90261 27.5484 10.9222 27.8229C12.8046 28.3327 20.2359 28.3327 20.2359 28.3327C20.2359 28.3327 27.6869 28.3327 29.5497 27.8425C30.5693 27.568 31.3732 26.7641 31.6477 25.7444C32.1379 23.8817 32.1379 20.019 32.1379 20.019C32.1379 20.019 32.1575 16.1366 31.6477 14.2739Z" fill="#000017"/>
<path d="M17.8633 23.5689L24.0594 20.0003L17.8633 16.4316V23.5689Z" fill="#FCFCFC"/>
</svg>
