<svg width="380" height="482" viewBox="0 0 380 482" fill="none" xmlns="http://www.w3.org/2000/svg">
<path d="M48.5175 19.252C47.2855 19.252 46.232 19.0245 45.357 18.5695C44.489 18.1075 43.824 17.439 43.362 16.564C42.907 15.689 42.6795 14.632 42.6795 13.393V4.3H45.399V13.393C45.399 14.506 45.6475 15.325 46.1445 15.85C46.6415 16.375 47.4325 16.6375 48.5175 16.6375C49.2035 16.6375 49.7775 16.529 50.2395 16.312C50.7015 16.095 51.048 15.7485 51.279 15.2725C51.51 14.7895 51.6255 14.163 51.6255 13.393V4.3H54.3555V13.393C54.3555 14.429 54.2015 15.318 53.8935 16.06C53.5925 16.802 53.1725 17.411 52.6335 17.887C52.1015 18.356 51.482 18.7025 50.775 18.9265C50.068 19.1435 49.3155 19.252 48.5175 19.252ZM57.6297 23.263V8.269H60.2547V9.0565C60.8427 8.3635 61.6302 8.017 62.6172 8.017C63.5342 8.017 64.3252 8.2445 64.9902 8.6995C65.6552 9.1475 66.1662 9.7915 66.5232 10.6315C66.8802 11.4715 67.0587 12.4725 67.0587 13.6345C67.0587 14.7615 66.8732 15.7485 66.5022 16.5955C66.1312 17.4355 65.6097 18.09 64.9377 18.559C64.2657 19.021 63.4817 19.252 62.5857 19.252C62.0957 19.252 61.6547 19.1645 61.2627 18.9895C60.8707 18.8075 60.5347 18.5415 60.2547 18.1915V22.0765L57.6297 23.263ZM62.1972 16.7425C62.9112 16.7425 63.4607 16.473 63.8457 15.934C64.2307 15.388 64.4232 14.6215 64.4232 13.6345C64.4232 12.6475 64.2272 11.881 63.8352 11.335C63.4432 10.789 62.8972 10.516 62.1972 10.516C61.7702 10.516 61.3957 10.593 61.0737 10.747C60.7587 10.901 60.4857 11.1355 60.2547 11.4505V15.787C60.4437 16.088 60.7097 16.3225 61.0527 16.4905C61.4027 16.6585 61.7842 16.7425 62.1972 16.7425ZM69.8753 19V5.0245L72.5003 3.838V19H69.8753ZM80.2077 19.252C78.6957 19.252 77.5022 18.7515 76.6272 17.7505C75.7522 16.7495 75.3147 15.381 75.3147 13.645C75.3147 12.497 75.5142 11.503 75.9132 10.663C76.3122 9.816 76.8757 9.165 77.6037 8.71C78.3387 8.248 79.2067 8.017 80.2077 8.017C81.2017 8.017 82.0627 8.2445 82.7907 8.6995C83.5187 9.1545 84.0787 9.802 84.4707 10.642C84.8627 11.482 85.0587 12.4795 85.0587 13.6345C85.0587 14.7965 84.8627 15.7975 84.4707 16.6375C84.0857 17.4775 83.5292 18.125 82.8012 18.58C82.0732 19.028 81.2087 19.252 80.2077 19.252ZM80.2077 16.7425C80.9147 16.7425 81.4642 16.4695 81.8562 15.9235C82.2482 15.3775 82.4442 14.6145 82.4442 13.6345C82.4442 12.6545 82.2447 11.8915 81.8457 11.3455C81.4537 10.7925 80.9077 10.516 80.2077 10.516C79.5007 10.516 78.9477 10.7925 78.5487 11.3455C78.1497 11.8985 77.9502 12.665 77.9502 13.645C77.9502 14.611 78.1497 15.3705 78.5487 15.9235C78.9477 16.4695 79.5007 16.7425 80.2077 16.7425ZM91.0292 19.252C89.8602 19.252 88.9327 18.937 88.2467 18.307C87.5677 17.67 87.2282 16.809 87.2282 15.724C87.2282 15.024 87.4032 14.4115 87.7532 13.8865C88.1102 13.3545 88.6037 12.945 89.2337 12.658C89.8707 12.364 90.6127 12.217 91.4597 12.217C91.9287 12.217 92.3802 12.2625 92.8142 12.3535C93.2552 12.4375 93.6402 12.56 93.9692 12.721V12.049C93.9692 11.447 93.7977 10.9955 93.4547 10.6945C93.1187 10.3865 92.6217 10.2325 91.9637 10.2325C91.4387 10.2325 90.8997 10.327 90.3467 10.516C89.7937 10.705 89.2337 10.985 88.6667 11.356L87.8792 9.2875C88.4952 8.8815 89.1812 8.57 89.9372 8.353C90.6932 8.129 91.4562 8.017 92.2262 8.017C93.6682 8.017 94.7462 8.36 95.4602 9.046C96.1742 9.725 96.5312 10.74 96.5312 12.091V19H93.9692V18.139C93.6052 18.503 93.1712 18.7795 92.6672 18.9685C92.1702 19.1575 91.6242 19.252 91.0292 19.252ZM91.6382 17.0365C92.0722 17.0365 92.4887 16.9525 92.8877 16.7845C93.2937 16.6095 93.6542 16.3645 93.9692 16.0495V14.779C93.6682 14.632 93.3322 14.52 92.9612 14.443C92.5972 14.359 92.2332 14.317 91.8692 14.317C91.2182 14.317 90.7037 14.443 90.3257 14.695C89.9547 14.94 89.7692 15.283 89.7692 15.724C89.7692 16.137 89.9337 16.459 90.2627 16.69C90.5917 16.921 91.0502 17.0365 91.6382 17.0365ZM103.504 19.252C102.125 19.252 101.043 18.755 100.259 17.761C99.4752 16.767 99.0832 15.388 99.0832 13.624C99.0832 12.504 99.2687 11.524 99.6397 10.684C100.011 9.844 100.529 9.1895 101.194 8.7205C101.866 8.2515 102.646 8.017 103.535 8.017C104.487 8.017 105.268 8.367 105.877 9.067V5.0245L108.491 3.838V19H105.877V18.118C105.359 18.874 104.568 19.252 103.504 19.252ZM103.934 16.7425C104.382 16.7425 104.764 16.6655 105.079 16.5115C105.394 16.3505 105.66 16.1125 105.877 15.7975V11.461C105.66 11.167 105.376 10.936 105.026 10.768C104.683 10.6 104.319 10.516 103.934 10.516C103.227 10.516 102.681 10.7855 102.296 11.3245C101.911 11.8565 101.719 12.623 101.719 13.624C101.719 14.282 101.806 14.8455 101.981 15.3145C102.156 15.7765 102.408 16.13 102.737 16.375C103.066 16.62 103.465 16.7425 103.934 16.7425ZM120.191 19.252C119.022 19.252 118.095 18.937 117.409 18.307C116.73 17.67 116.39 16.809 116.39 15.724C116.39 15.024 116.565 14.4115 116.915 13.8865C117.272 13.3545 117.766 12.945 118.396 12.658C119.033 12.364 119.775 12.217 120.622 12.217C121.091 12.217 121.542 12.2625 121.976 12.3535C122.417 12.4375 122.802 12.56 123.131 12.721V12.049C123.131 11.447 122.96 10.9955 122.617 10.6945C122.281 10.3865 121.784 10.2325 121.126 10.2325C120.601 10.2325 120.062 10.327 119.509 10.516C118.956 10.705 118.396 10.985 117.829 11.356L117.041 9.2875C117.657 8.8815 118.343 8.57 119.099 8.353C119.855 8.129 120.618 8.017 121.388 8.017C122.83 8.017 123.908 8.36 124.622 9.046C125.336 9.725 125.693 10.74 125.693 12.091V19H123.131V18.139C122.767 18.503 122.333 18.7795 121.829 18.9685C121.332 19.1575 120.786 19.252 120.191 19.252ZM120.8 17.0365C121.234 17.0365 121.651 16.9525 122.05 16.7845C122.456 16.6095 122.816 16.3645 123.131 16.0495V14.779C122.83 14.632 122.494 14.52 122.123 14.443C121.759 14.359 121.395 14.317 121.031 14.317C120.38 14.317 119.866 14.443 119.488 14.695C119.117 14.94 118.931 15.283 118.931 15.724C118.931 16.137 119.096 16.459 119.425 16.69C119.754 16.921 120.212 17.0365 120.8 17.0365ZM128.833 19V8.269H131.458V9.298C131.801 8.871 132.21 8.5525 132.686 8.3425C133.169 8.1255 133.719 8.017 134.335 8.017C135.532 8.017 136.456 8.388 137.107 9.13C137.758 9.865 138.083 10.9255 138.083 12.3115V19H135.469V13.12C135.469 12.217 135.311 11.559 134.996 11.146C134.688 10.726 134.205 10.516 133.547 10.516C132.833 10.516 132.305 10.726 131.962 11.146C131.626 11.559 131.458 12.203 131.458 13.078V19H128.833ZM145.217 19.252C143.838 19.252 142.756 18.755 141.972 17.761C141.188 16.767 140.796 15.388 140.796 13.624C140.796 12.504 140.982 11.524 141.353 10.684C141.724 9.844 142.242 9.1895 142.907 8.7205C143.579 8.2515 144.359 8.017 145.248 8.017C146.2 8.017 146.981 8.367 147.59 9.067V5.0245L150.204 3.838V19H147.59V18.118C147.072 18.874 146.281 19.252 145.217 19.252ZM145.647 16.7425C146.095 16.7425 146.477 16.6655 146.792 16.5115C147.107 16.3505 147.373 16.1125 147.59 15.7975V11.461C147.373 11.167 147.089 10.936 146.739 10.768C146.396 10.6 146.032 10.516 145.647 10.516C144.94 10.516 144.394 10.7855 144.009 11.3245C143.624 11.8565 143.432 12.623 143.432 13.624C143.432 14.282 143.519 14.8455 143.694 15.3145C143.869 15.7765 144.121 16.13 144.45 16.375C144.779 16.62 145.178 16.7425 145.647 16.7425ZM162.24 19.252C161.4 19.252 160.595 19.0735 159.825 18.7165C159.062 18.3595 158.457 17.88 158.009 17.278L159.731 15.829C160.088 16.207 160.501 16.508 160.97 16.732C161.439 16.949 161.887 17.0575 162.314 17.0575C162.846 17.0575 163.255 16.97 163.542 16.795C163.829 16.613 163.973 16.361 163.973 16.039C163.973 15.829 163.903 15.6435 163.763 15.4825C163.63 15.3145 163.392 15.1465 163.049 14.9785C162.706 14.8035 162.223 14.604 161.6 14.38C160.396 13.939 159.542 13.463 159.038 12.952C158.534 12.434 158.282 11.7795 158.282 10.9885C158.282 10.1065 158.639 9.3925 159.353 8.8465C160.067 8.2935 160.998 8.017 162.146 8.017C162.93 8.017 163.651 8.164 164.309 8.458C164.974 8.752 165.544 9.1825 166.02 9.7495L164.309 11.167C163.679 10.53 162.944 10.2115 162.104 10.2115C161.677 10.2115 161.334 10.292 161.075 10.453C160.816 10.607 160.686 10.817 160.686 11.083C160.686 11.342 160.837 11.573 161.138 11.776C161.446 11.979 162.016 12.217 162.849 12.49C163.675 12.749 164.344 13.043 164.855 13.372C165.373 13.701 165.751 14.0825 165.989 14.5165C166.234 14.9505 166.356 15.451 166.356 16.018C166.356 17.026 165.989 17.817 165.254 18.391C164.526 18.965 163.521 19.252 162.24 19.252ZM173.305 19.252C172.276 19.252 171.387 19.021 170.638 18.559C169.896 18.097 169.322 17.446 168.916 16.606C168.517 15.759 168.318 14.765 168.318 13.624C168.318 12.469 168.521 11.4715 168.927 10.6315C169.34 9.7915 169.917 9.1475 170.659 8.6995C171.408 8.2445 172.29 8.017 173.305 8.017C174.173 8.017 174.961 8.199 175.668 8.563C176.375 8.927 176.938 9.487 177.358 10.243C177.778 10.992 177.988 11.9475 177.988 13.1095C177.988 13.2915 177.981 13.5155 177.967 13.7815C177.96 14.0405 177.943 14.303 177.915 14.569H170.911C170.939 15.059 171.051 15.4895 171.247 15.8605C171.45 16.2245 171.727 16.508 172.077 16.711C172.427 16.914 172.84 17.0155 173.316 17.0155C173.827 17.0155 174.271 16.9315 174.649 16.7635C175.027 16.5885 175.384 16.312 175.72 15.934L177.232 17.4985C176.77 18.0235 176.214 18.447 175.563 18.769C174.912 19.091 174.159 19.252 173.305 19.252ZM170.922 12.5215H175.447C175.412 12.0525 175.307 11.65 175.132 11.314C174.957 10.971 174.712 10.7085 174.397 10.5265C174.082 10.3445 173.701 10.2535 173.253 10.2535C172.637 10.2535 172.112 10.4425 171.678 10.8205C171.244 11.1985 170.992 11.7655 170.922 12.5215ZM180.679 19V5.0245L183.304 3.838V19H180.679ZM191.106 19.252C190.077 19.252 189.188 19.021 188.439 18.559C187.697 18.097 187.123 17.446 186.717 16.606C186.318 15.759 186.118 14.765 186.118 13.624C186.118 12.469 186.321 11.4715 186.727 10.6315C187.14 9.7915 187.718 9.1475 188.46 8.6995C189.209 8.2445 190.091 8.017 191.106 8.017C191.974 8.017 192.761 8.199 193.468 8.563C194.175 8.927 194.739 9.487 195.159 10.243C195.579 10.992 195.789 11.9475 195.789 13.1095C195.789 13.2915 195.782 13.5155 195.768 13.7815C195.761 14.0405 195.743 14.303 195.715 14.569H188.712C188.74 15.059 188.852 15.4895 189.048 15.8605C189.251 16.2245 189.527 16.508 189.877 16.711C190.227 16.914 190.64 17.0155 191.116 17.0155C191.627 17.0155 192.072 16.9315 192.45 16.7635C192.828 16.5885 193.185 16.312 193.521 15.934L195.033 17.4985C194.571 18.0235 194.014 18.447 193.363 18.769C192.712 19.091 191.96 19.252 191.106 19.252ZM188.722 12.5215H193.248C193.213 12.0525 193.108 11.65 192.933 11.314C192.758 10.971 192.513 10.7085 192.198 10.5265C191.883 10.3445 191.501 10.2535 191.053 10.2535C190.437 10.2535 189.912 10.4425 189.478 10.8205C189.044 11.1985 188.792 11.7655 188.722 12.5215ZM202.996 19.252C202.009 19.252 201.155 19.0245 200.434 18.5695C199.713 18.1145 199.157 17.4705 198.765 16.6375C198.373 15.7975 198.177 14.8 198.177 13.645C198.177 12.49 198.373 11.4925 198.765 10.6525C199.164 9.8125 199.727 9.165 200.455 8.71C201.183 8.248 202.041 8.017 203.028 8.017C204.141 8.017 205.065 8.276 205.8 8.794C206.542 9.305 207.077 10.0645 207.406 11.0725L204.918 11.9125C204.75 11.4645 204.505 11.1215 204.183 10.8835C203.861 10.6385 203.49 10.516 203.07 10.516C202.391 10.516 201.848 10.796 201.442 11.356C201.043 11.916 200.844 12.679 200.844 13.645C200.844 14.597 201.04 15.353 201.432 15.913C201.824 16.473 202.352 16.753 203.017 16.753C203.486 16.753 203.885 16.62 204.214 16.354C204.55 16.088 204.799 15.6995 204.96 15.1885L207.438 15.934C207.123 17.033 206.587 17.8625 205.831 18.4225C205.082 18.9755 204.137 19.252 202.996 19.252ZM213.132 19.252C212.278 19.252 211.637 19.0175 211.21 18.5485C210.783 18.0795 210.57 17.3795 210.57 16.4485V10.5685H209.005V8.269H210.57V5.0875L213.174 3.838V8.269H215.61V10.5685H213.174V15.976C213.174 16.312 213.24 16.5605 213.373 16.7215C213.513 16.8825 213.73 16.963 214.024 16.963C214.542 16.963 215.109 16.802 215.725 16.48L215.421 18.769C215.099 18.93 214.749 19.049 214.371 19.126C213.993 19.21 213.58 19.252 213.132 19.252ZM227.749 19.252C226.762 19.252 225.908 19.0245 225.187 18.5695C224.466 18.1145 223.91 17.4705 223.518 16.6375C223.126 15.7975 222.93 14.8 222.93 13.645C222.93 12.49 223.126 11.4925 223.518 10.6525C223.917 9.8125 224.48 9.165 225.208 8.71C225.936 8.248 226.794 8.017 227.781 8.017C228.894 8.017 229.818 8.276 230.553 8.794C231.295 9.305 231.83 10.0645 232.159 11.0725L229.671 11.9125C229.503 11.4645 229.258 11.1215 228.936 10.8835C228.614 10.6385 228.243 10.516 227.823 10.516C227.144 10.516 226.601 10.796 226.195 11.356C225.796 11.916 225.597 12.679 225.597 13.645C225.597 14.597 225.793 15.353 226.185 15.913C226.577 16.473 227.105 16.753 227.77 16.753C228.239 16.753 228.638 16.62 228.967 16.354C229.303 16.088 229.552 15.6995 229.713 15.1885L232.191 15.934C231.876 17.033 231.34 17.8625 230.584 18.4225C229.835 18.9755 228.89 19.252 227.749 19.252ZM239.143 19.252C237.631 19.252 236.438 18.7515 235.563 17.7505C234.688 16.7495 234.25 15.381 234.25 13.645C234.25 12.497 234.45 11.503 234.849 10.663C235.248 9.816 235.811 9.165 236.539 8.71C237.274 8.248 238.142 8.017 239.143 8.017C240.137 8.017 240.998 8.2445 241.726 8.6995C242.454 9.1545 243.014 9.802 243.406 10.642C243.798 11.482 243.994 12.4795 243.994 13.6345C243.994 14.7965 243.798 15.7975 243.406 16.6375C243.021 17.4775 242.465 18.125 241.737 18.58C241.009 19.028 240.144 19.252 239.143 19.252ZM239.143 16.7425C239.85 16.7425 240.4 16.4695 240.792 15.9235C241.184 15.3775 241.38 14.6145 241.38 13.6345C241.38 12.6545 241.18 11.8915 240.781 11.3455C240.389 10.7925 239.843 10.516 239.143 10.516C238.436 10.516 237.883 10.7925 237.484 11.3455C237.085 11.8985 236.886 12.665 236.886 13.645C236.886 14.611 237.085 15.3705 237.484 15.9235C237.883 16.4695 238.436 16.7425 239.143 16.7425ZM246.507 19V8.269H249.132V9.298C249.475 8.871 249.884 8.5525 250.36 8.3425C250.843 8.1255 251.393 8.017 252.009 8.017C253.206 8.017 254.13 8.388 254.781 9.13C255.432 9.865 255.757 10.9255 255.757 12.3115V19H253.143V13.12C253.143 12.217 252.985 11.559 252.67 11.146C252.362 10.726 251.879 10.516 251.221 10.516C250.507 10.516 249.979 10.726 249.636 11.146C249.3 11.559 249.132 12.203 249.132 13.078V19H246.507ZM261.756 19.252C260.902 19.252 260.261 19.0175 259.834 18.5485C259.407 18.0795 259.194 17.3795 259.194 16.4485V10.5685H257.629V8.269H259.194V5.0875L261.798 3.838V8.269H264.234V10.5685H261.798V15.976C261.798 16.312 261.864 16.5605 261.997 16.7215C262.137 16.8825 262.354 16.963 262.648 16.963C263.166 16.963 263.733 16.802 264.349 16.48L264.045 18.769C263.723 18.93 263.373 19.049 262.995 19.126C262.617 19.21 262.204 19.252 261.756 19.252ZM271.189 19.252C270.16 19.252 269.271 19.021 268.522 18.559C267.78 18.097 267.206 17.446 266.8 16.606C266.401 15.759 266.201 14.765 266.201 13.624C266.201 12.469 266.404 11.4715 266.81 10.6315C267.223 9.7915 267.801 9.1475 268.543 8.6995C269.292 8.2445 270.174 8.017 271.189 8.017C272.057 8.017 272.844 8.199 273.551 8.563C274.258 8.927 274.822 9.487 275.242 10.243C275.662 10.992 275.872 11.9475 275.872 13.1095C275.872 13.2915 275.865 13.5155 275.851 13.7815C275.844 14.0405 275.826 14.303 275.798 14.569H268.795C268.823 15.059 268.935 15.4895 269.131 15.8605C269.334 16.2245 269.61 16.508 269.96 16.711C270.31 16.914 270.723 17.0155 271.199 17.0155C271.71 17.0155 272.155 16.9315 272.533 16.7635C272.911 16.5885 273.268 16.312 273.604 15.934L275.116 17.4985C274.654 18.0235 274.097 18.447 273.446 18.769C272.795 19.091 272.043 19.252 271.189 19.252ZM268.805 12.5215H273.331C273.296 12.0525 273.191 11.65 273.016 11.314C272.841 10.971 272.596 10.7085 272.281 10.5265C271.966 10.3445 271.584 10.2535 271.136 10.2535C270.52 10.2535 269.995 10.4425 269.561 10.8205C269.127 11.1985 268.875 11.7655 268.805 12.5215ZM278.519 19V8.269H281.144V9.298C281.487 8.871 281.897 8.5525 282.373 8.3425C282.856 8.1255 283.405 8.017 284.021 8.017C285.218 8.017 286.142 8.388 286.793 9.13C287.444 9.865 287.77 10.9255 287.77 12.3115V19H285.155V13.12C285.155 12.217 284.998 11.559 284.683 11.146C284.375 10.726 283.892 10.516 283.234 10.516C282.52 10.516 281.991 10.726 281.648 11.146C281.312 11.559 281.144 12.203 281.144 13.078V19H278.519ZM293.768 19.252C292.914 19.252 292.274 19.0175 291.847 18.5485C291.42 18.0795 291.206 17.3795 291.206 16.4485V10.5685H289.642V8.269H291.206V5.0875L293.81 3.838V8.269H296.246V10.5685H293.81V15.976C293.81 16.312 293.877 16.5605 294.01 16.7215C294.15 16.8825 294.367 16.963 294.661 16.963C295.179 16.963 295.746 16.802 296.362 16.48L296.057 18.769C295.735 18.93 295.385 19.049 295.007 19.126C294.629 19.21 294.216 19.252 293.768 19.252ZM307.305 19.252C306.136 19.252 305.208 18.937 304.522 18.307C303.843 17.67 303.504 16.809 303.504 15.724C303.504 15.024 303.679 14.4115 304.029 13.8865C304.386 13.3545 304.879 12.945 305.509 12.658C306.146 12.364 306.888 12.217 307.735 12.217C308.204 12.217 308.656 12.2625 309.09 12.3535C309.531 12.4375 309.916 12.56 310.245 12.721V12.049C310.245 11.447 310.073 10.9955 309.73 10.6945C309.394 10.3865 308.897 10.2325 308.239 10.2325C307.714 10.2325 307.175 10.327 306.622 10.516C306.069 10.705 305.509 10.985 304.942 11.356L304.155 9.2875C304.771 8.8815 305.457 8.57 306.213 8.353C306.969 8.129 307.732 8.017 308.502 8.017C309.944 8.017 311.022 8.36 311.736 9.046C312.45 9.725 312.807 10.74 312.807 12.091V19H310.245V18.139C309.881 18.503 309.447 18.7795 308.943 18.9685C308.446 19.1575 307.9 19.252 307.305 19.252ZM307.914 17.0365C308.348 17.0365 308.764 16.9525 309.163 16.7845C309.569 16.6095 309.93 16.3645 310.245 16.0495V14.779C309.944 14.632 309.608 14.52 309.237 14.443C308.873 14.359 308.509 14.317 308.145 14.317C307.494 14.317 306.979 14.443 306.601 14.695C306.23 14.94 306.045 15.283 306.045 15.724C306.045 16.137 306.209 16.459 306.538 16.69C306.867 16.921 307.326 17.0365 307.914 17.0365ZM315.946 19V8.269H318.571V9.298C318.914 8.871 319.324 8.5525 319.8 8.3425C320.283 8.1255 320.832 8.017 321.448 8.017C322.645 8.017 323.569 8.388 324.22 9.13C324.871 9.865 325.197 10.9255 325.197 12.3115V19H322.582V13.12C322.582 12.217 322.425 11.559 322.11 11.146C321.802 10.726 321.319 10.516 320.661 10.516C319.947 10.516 319.418 10.726 319.075 11.146C318.739 11.559 318.571 12.203 318.571 13.078V19H315.946ZM332.33 19.252C330.951 19.252 329.869 18.755 329.085 17.761C328.301 16.767 327.909 15.388 327.909 13.624C327.909 12.504 328.095 11.524 328.466 10.684C328.837 9.844 329.355 9.1895 330.02 8.7205C330.692 8.2515 331.472 8.017 332.361 8.017C333.313 8.017 334.094 8.367 334.703 9.067V5.0245L337.317 3.838V19H334.703V18.118C334.185 18.874 333.394 19.252 332.33 19.252ZM332.76 16.7425C333.208 16.7425 333.59 16.6655 333.905 16.5115C334.22 16.3505 334.486 16.1125 334.703 15.7975V11.461C334.486 11.167 334.202 10.936 333.852 10.768C333.509 10.6 333.145 10.516 332.76 10.516C332.053 10.516 331.507 10.7855 331.122 11.3245C330.737 11.8565 330.545 12.623 330.545 13.624C330.545 14.282 330.632 14.8455 330.807 15.3145C330.982 15.7765 331.234 16.13 331.563 16.375C331.892 16.62 332.291 16.7425 332.76 16.7425ZM141.187 46.252C139.808 46.252 138.726 45.755 137.942 44.761C137.158 43.767 136.766 42.388 136.766 40.624C136.766 39.504 136.952 38.524 137.323 37.684C137.694 36.844 138.212 36.1895 138.877 35.7205C139.549 35.2515 140.329 35.017 141.218 35.017C142.17 35.017 142.951 35.367 143.56 36.067V32.0245L146.174 30.838V46H143.56V45.118C143.042 45.874 142.251 46.252 141.187 46.252ZM141.617 43.7425C142.065 43.7425 142.447 43.6655 142.762 43.5115C143.077 43.3505 143.343 43.1125 143.56 42.7975V38.461C143.343 38.167 143.059 37.936 142.709 37.768C142.366 37.6 142.002 37.516 141.617 37.516C140.91 37.516 140.364 37.7855 139.979 38.3245C139.594 38.8565 139.402 39.623 139.402 40.624C139.402 41.282 139.489 41.8455 139.664 42.3145C139.839 42.7765 140.091 43.13 140.42 43.375C140.749 43.62 141.148 43.7425 141.617 43.7425ZM153.779 46.252C152.267 46.252 151.074 45.7515 150.199 44.7505C149.324 43.7495 148.886 42.381 148.886 40.645C148.886 39.497 149.086 38.503 149.485 37.663C149.884 36.816 150.447 36.165 151.175 35.71C151.91 35.248 152.778 35.017 153.779 35.017C154.773 35.017 155.634 35.2445 156.362 35.6995C157.09 36.1545 157.65 36.802 158.042 37.642C158.434 38.482 158.63 39.4795 158.63 40.6345C158.63 41.7965 158.434 42.7975 158.042 43.6375C157.657 44.4775 157.101 45.125 156.373 45.58C155.645 46.028 154.78 46.252 153.779 46.252ZM153.779 43.7425C154.486 43.7425 155.036 43.4695 155.428 42.9235C155.82 42.3775 156.016 41.6145 156.016 40.6345C156.016 39.6545 155.816 38.8915 155.417 38.3455C155.025 37.7925 154.479 37.516 153.779 37.516C153.072 37.516 152.519 37.7925 152.12 38.3455C151.721 38.8985 151.522 39.665 151.522 40.645C151.522 41.611 151.721 42.3705 152.12 42.9235C152.519 43.4695 153.072 43.7425 153.779 43.7425ZM165.724 46.252C164.737 46.252 163.883 46.0245 163.162 45.5695C162.441 45.1145 161.884 44.4705 161.492 43.6375C161.1 42.7975 160.904 41.8 160.904 40.645C160.904 39.49 161.1 38.4925 161.492 37.6525C161.891 36.8125 162.455 36.165 163.183 35.71C163.911 35.248 164.768 35.017 165.755 35.017C166.868 35.017 167.792 35.276 168.527 35.794C169.269 36.305 169.805 37.0645 170.134 38.0725L167.645 38.9125C167.477 38.4645 167.232 38.1215 166.91 37.8835C166.588 37.6385 166.217 37.516 165.797 37.516C165.118 37.516 164.576 37.796 164.17 38.356C163.771 38.916 163.571 39.679 163.571 40.645C163.571 41.597 163.767 42.353 164.159 42.913C164.551 43.473 165.08 43.753 165.745 43.753C166.214 43.753 166.613 43.62 166.942 43.354C167.278 43.088 167.526 42.6995 167.687 42.1885L170.165 42.934C169.85 44.033 169.315 44.8625 168.559 45.4225C167.81 45.9755 166.865 46.252 165.724 46.252ZM176.394 46.252C175.197 46.252 174.27 45.881 173.612 45.139C172.954 44.39 172.625 43.333 172.625 41.968V35.269H175.25V41.149C175.25 42.052 175.404 42.71 175.712 43.123C176.02 43.536 176.506 43.7425 177.171 43.7425C177.885 43.7425 178.41 43.536 178.746 43.123C179.089 42.703 179.261 42.059 179.261 41.191V35.269H181.875V46H179.261V44.992C178.932 45.412 178.526 45.727 178.043 45.937C177.567 46.147 177.017 46.252 176.394 46.252ZM185.178 46V35.269H187.803V36.2665C188.146 35.8325 188.531 35.5175 188.958 35.3215C189.392 35.1185 189.882 35.017 190.428 35.017C191.065 35.017 191.611 35.1465 192.066 35.4055C192.521 35.6645 192.875 36.0425 193.127 36.5395C193.484 36.0495 193.942 35.675 194.502 35.416C195.062 35.15 195.696 35.017 196.403 35.017C197.719 35.017 198.713 35.3705 199.385 36.0775C200.057 36.7845 200.393 37.8345 200.393 39.2275V46H197.778V40.1305C197.778 39.2345 197.631 38.5765 197.337 38.1565C197.043 37.7295 196.588 37.516 195.972 37.516C195.552 37.516 195.202 37.6105 194.922 37.7995C194.649 37.9885 194.443 38.2755 194.303 38.6605C194.163 39.0385 194.093 39.518 194.093 40.099V46H191.478V40.1305C191.478 39.2275 191.335 38.566 191.048 38.146C190.761 37.726 190.306 37.516 189.683 37.516C189.046 37.516 188.573 37.7225 188.265 38.1355C187.957 38.5485 187.803 39.189 187.803 40.057V46H185.178ZM208.097 46.252C207.068 46.252 206.179 46.021 205.43 45.559C204.688 45.097 204.114 44.446 203.708 43.606C203.309 42.759 203.109 41.765 203.109 40.624C203.109 39.469 203.312 38.4715 203.718 37.6315C204.131 36.7915 204.709 36.1475 205.451 35.6995C206.2 35.2445 207.082 35.017 208.097 35.017C208.965 35.017 209.752 35.199 210.459 35.563C211.166 35.927 211.73 36.487 212.15 37.243C212.57 37.992 212.78 38.9475 212.78 40.1095C212.78 40.2915 212.773 40.5155 212.759 40.7815C212.752 41.0405 212.734 41.303 212.706 41.569H205.703C205.731 42.059 205.843 42.4895 206.039 42.8605C206.242 43.2245 206.518 43.508 206.868 43.711C207.218 43.914 207.631 44.0155 208.107 44.0155C208.618 44.0155 209.063 43.9315 209.441 43.7635C209.819 43.5885 210.176 43.312 210.512 42.934L212.024 44.4985C211.562 45.0235 211.005 45.447 210.354 45.769C209.703 46.091 208.951 46.252 208.097 46.252ZM205.713 39.5215H210.239C210.204 39.0525 210.099 38.65 209.924 38.314C209.749 37.971 209.504 37.7085 209.189 37.5265C208.874 37.3445 208.492 37.2535 208.044 37.2535C207.428 37.2535 206.903 37.4425 206.469 37.8205C206.035 38.1985 205.783 38.7655 205.713 39.5215ZM215.427 46V35.269H218.052V36.298C218.395 35.871 218.805 35.5525 219.281 35.3425C219.764 35.1255 220.313 35.017 220.929 35.017C222.126 35.017 223.05 35.388 223.701 36.13C224.352 36.865 224.678 37.9255 224.678 39.3115V46H222.063V40.12C222.063 39.217 221.906 38.559 221.591 38.146C221.283 37.726 220.8 37.516 220.142 37.516C219.428 37.516 218.899 37.726 218.556 38.146C218.22 38.559 218.052 39.203 218.052 40.078V46H215.427ZM230.676 46.252C229.822 46.252 229.182 46.0175 228.755 45.5485C228.328 45.0795 228.114 44.3795 228.114 43.4485V37.5685H226.55V35.269H228.114V32.0875L230.718 30.838V35.269H233.154V37.5685H230.718V42.976C230.718 43.312 230.785 43.5605 230.918 43.7215C231.058 43.8825 231.275 43.963 231.569 43.963C232.087 43.963 232.654 43.802 233.27 43.48L232.965 45.769C232.643 45.93 232.293 46.049 231.915 46.126C231.537 46.21 231.124 46.252 230.676 46.252ZM239.114 46.252C238.274 46.252 237.469 46.0735 236.699 45.7165C235.936 45.3595 235.33 44.88 234.882 44.278L236.604 42.829C236.961 43.207 237.374 43.508 237.843 43.732C238.312 43.949 238.76 44.0575 239.187 44.0575C239.719 44.0575 240.129 43.97 240.416 43.795C240.703 43.613 240.846 43.361 240.846 43.039C240.846 42.829 240.776 42.6435 240.636 42.4825C240.503 42.3145 240.265 42.1465 239.922 41.9785C239.579 41.8035 239.096 41.604 238.473 41.38C237.269 40.939 236.415 40.463 235.911 39.952C235.407 39.434 235.155 38.7795 235.155 37.9885C235.155 37.1065 235.512 36.3925 236.226 35.8465C236.94 35.2935 237.871 35.017 239.019 35.017C239.803 35.017 240.524 35.164 241.182 35.458C241.847 35.752 242.418 36.1825 242.894 36.7495L241.182 38.167C240.552 37.53 239.817 37.2115 238.977 37.2115C238.55 37.2115 238.207 37.292 237.948 37.453C237.689 37.607 237.56 37.817 237.56 38.083C237.56 38.342 237.71 38.573 238.011 38.776C238.319 38.979 238.89 39.217 239.723 39.49C240.549 39.749 241.217 40.043 241.728 40.372C242.246 40.701 242.624 41.0825 242.862 41.5165C243.107 41.9505 243.23 42.451 243.23 43.018C243.23 44.026 242.862 44.817 242.127 45.391C241.399 45.965 240.395 46.252 239.114 46.252Z" fill="white"/>
<path d="M185.56 164C185.008 164 184.617 164.676 184.893 165.155L189.333 172.845C189.609 173.324 190.391 173.324 190.667 172.845L195.107 165.155C195.383 164.676 194.992 164 194.44 164H185.56ZM189 94V165H191V94H189Z" fill="#FC00FF"/>
<path d="M75.515 233V218.3H80.471C81.745 218.3 82.83 218.51 83.726 218.93C84.622 219.343 85.3465 219.903 85.8995 220.61C86.4595 221.31 86.8655 222.097 87.1175 222.972C87.3765 223.84 87.506 224.733 87.506 225.65C87.506 226.49 87.3835 227.34 87.1385 228.201C86.9005 229.062 86.5085 229.857 85.9625 230.585C85.4165 231.306 84.685 231.89 83.768 232.338C82.858 232.779 81.731 233 80.387 233H75.515ZM78.2345 230.417H80.6705C81.4195 230.417 82.0495 230.277 82.5605 229.997C83.0715 229.71 83.481 229.335 83.789 228.873C84.104 228.404 84.3315 227.89 84.4715 227.33C84.6185 226.763 84.692 226.203 84.692 225.65C84.692 225.062 84.6185 224.484 84.4715 223.917C84.3245 223.35 84.097 222.836 83.789 222.374C83.481 221.912 83.089 221.544 82.613 221.271C82.137 220.998 81.5665 220.862 80.9015 220.862H78.2345V230.417ZM93.9837 233.252C92.7867 233.252 91.8592 232.881 91.2012 232.139C90.5432 231.39 90.2142 230.333 90.2142 228.968V222.269H92.8392V228.149C92.8392 229.052 92.9932 229.71 93.3012 230.123C93.6092 230.536 94.0957 230.742 94.7607 230.742C95.4747 230.742 95.9997 230.536 96.3357 230.123C96.6787 229.703 96.8502 229.059 96.8502 228.191V222.269H99.4647V233H96.8502V231.992C96.5212 232.412 96.1152 232.727 95.6322 232.937C95.1562 233.147 94.6067 233.252 93.9837 233.252ZM107.619 233.252C107.129 233.252 106.705 233.165 106.348 232.989C105.998 232.814 105.673 232.531 105.372 232.139V233H102.747V219.024L105.372 217.838V223.109C105.645 222.759 105.981 222.489 106.38 222.3C106.786 222.111 107.227 222.017 107.703 222.017C108.592 222.017 109.369 222.251 110.034 222.72C110.699 223.189 111.217 223.847 111.588 224.694C111.966 225.534 112.155 226.511 112.155 227.624C112.155 229.395 111.752 230.777 110.947 231.771C110.149 232.758 109.04 233.252 107.619 233.252ZM107.304 230.742C108.018 230.742 108.564 230.473 108.942 229.934C109.327 229.395 109.519 228.625 109.519 227.624C109.519 226.623 109.327 225.856 108.942 225.324C108.564 224.785 108.018 224.516 107.304 224.516C106.912 224.516 106.541 224.603 106.191 224.778C105.841 224.946 105.568 225.174 105.372 225.461V229.797C105.589 230.105 105.855 230.34 106.17 230.501C106.485 230.662 106.863 230.742 107.304 230.742ZM119.739 233.252C119.249 233.252 118.826 233.165 118.469 232.989C118.119 232.814 117.793 232.531 117.492 232.139V233H114.867V219.024L117.492 217.838V223.109C117.765 222.759 118.101 222.489 118.5 222.3C118.906 222.111 119.347 222.017 119.823 222.017C120.712 222.017 121.489 222.251 122.154 222.72C122.819 223.189 123.337 223.847 123.708 224.694C124.086 225.534 124.275 226.511 124.275 227.624C124.275 229.395 123.873 230.777 123.068 231.771C122.27 232.758 121.16 233.252 119.739 233.252ZM119.424 230.742C120.138 230.742 120.684 230.473 121.062 229.934C121.447 229.395 121.64 228.625 121.64 227.624C121.64 226.623 121.447 225.856 121.062 225.324C120.684 224.785 120.138 224.516 119.424 224.516C119.032 224.516 118.661 224.603 118.311 224.778C117.961 224.946 117.688 225.174 117.492 225.461V229.797C117.709 230.105 117.975 230.34 118.29 230.501C118.605 230.662 118.983 230.742 119.424 230.742ZM131.531 233.252C130.502 233.252 129.613 233.021 128.864 232.559C128.122 232.097 127.548 231.446 127.142 230.606C126.743 229.759 126.543 228.765 126.543 227.624C126.543 226.469 126.746 225.471 127.152 224.631C127.565 223.791 128.143 223.147 128.885 222.699C129.634 222.244 130.516 222.017 131.531 222.017C132.399 222.017 133.186 222.199 133.893 222.563C134.6 222.927 135.164 223.487 135.584 224.243C136.004 224.992 136.214 225.947 136.214 227.109C136.214 227.291 136.207 227.515 136.193 227.781C136.186 228.04 136.168 228.303 136.14 228.569H129.137C129.165 229.059 129.277 229.489 129.473 229.86C129.676 230.224 129.952 230.508 130.302 230.711C130.652 230.914 131.065 231.015 131.541 231.015C132.052 231.015 132.497 230.931 132.875 230.763C133.253 230.588 133.61 230.312 133.946 229.934L135.458 231.498C134.996 232.023 134.439 232.447 133.788 232.769C133.137 233.091 132.385 233.252 131.531 233.252ZM129.147 226.521H133.673C133.638 226.052 133.533 225.65 133.358 225.314C133.183 224.971 132.938 224.708 132.623 224.526C132.308 224.344 131.926 224.253 131.478 224.253C130.862 224.253 130.337 224.442 129.903 224.82C129.469 225.198 129.217 225.765 129.147 226.521ZM143.022 233.252C141.643 233.252 140.562 232.755 139.778 231.761C138.994 230.767 138.602 229.388 138.602 227.624C138.602 226.504 138.787 225.524 139.158 224.684C139.529 223.844 140.047 223.189 140.712 222.72C141.384 222.251 142.165 222.017 143.054 222.017C144.006 222.017 144.786 222.367 145.395 223.067V219.024L148.01 217.838V233H145.395V232.118C144.877 232.874 144.086 233.252 143.022 233.252ZM143.453 230.742C143.901 230.742 144.282 230.665 144.597 230.511C144.912 230.35 145.178 230.112 145.395 229.797V225.461C145.178 225.167 144.895 224.936 144.545 224.768C144.202 224.6 143.838 224.516 143.453 224.516C142.746 224.516 142.2 224.785 141.815 225.324C141.43 225.856 141.237 226.623 141.237 227.624C141.237 228.282 141.325 228.845 141.5 229.314C141.675 229.776 141.927 230.13 142.256 230.375C142.585 230.62 142.984 230.742 143.453 230.742ZM159.71 233.252C158.541 233.252 157.613 232.937 156.927 232.307C156.248 231.67 155.909 230.809 155.909 229.724C155.909 229.024 156.084 228.411 156.434 227.886C156.791 227.354 157.284 226.945 157.914 226.658C158.551 226.364 159.293 226.217 160.14 226.217C160.609 226.217 161.061 226.262 161.495 226.353C161.936 226.437 162.321 226.56 162.65 226.721V226.049C162.65 225.447 162.478 224.995 162.135 224.694C161.799 224.386 161.302 224.232 160.644 224.232C160.119 224.232 159.58 224.327 159.027 224.516C158.474 224.705 157.914 224.985 157.347 225.356L156.56 223.287C157.176 222.881 157.862 222.57 158.618 222.353C159.374 222.129 160.137 222.017 160.907 222.017C162.349 222.017 163.427 222.36 164.141 223.046C164.855 223.725 165.212 224.74 165.212 226.091V233H162.65V232.139C162.286 232.503 161.852 232.779 161.348 232.968C160.851 233.158 160.305 233.252 159.71 233.252ZM160.319 231.036C160.753 231.036 161.169 230.952 161.568 230.784C161.974 230.609 162.335 230.364 162.65 230.049V228.779C162.349 228.632 162.013 228.52 161.642 228.443C161.278 228.359 160.914 228.317 160.55 228.317C159.899 228.317 159.384 228.443 159.006 228.695C158.635 228.94 158.45 229.283 158.45 229.724C158.45 230.137 158.614 230.459 158.943 230.69C159.272 230.921 159.731 231.036 160.319 231.036ZM168.351 233V222.269H170.976V223.298C171.319 222.871 171.729 222.552 172.205 222.342C172.688 222.125 173.237 222.017 173.853 222.017C175.05 222.017 175.974 222.388 176.625 223.13C177.276 223.865 177.602 224.925 177.602 226.311V233H174.987V227.12C174.987 226.217 174.83 225.559 174.515 225.146C174.207 224.726 173.724 224.516 173.066 224.516C172.352 224.516 171.823 224.726 171.48 225.146C171.144 225.559 170.976 226.203 170.976 227.078V233H168.351ZM184.735 233.252C183.356 233.252 182.275 232.755 181.491 231.761C180.707 230.767 180.315 229.388 180.315 227.624C180.315 226.504 180.5 225.524 180.871 224.684C181.242 223.844 181.76 223.189 182.425 222.72C183.097 222.251 183.878 222.017 184.767 222.017C185.719 222.017 186.499 222.367 187.108 223.067V219.024L189.723 217.838V233H187.108V232.118C186.59 232.874 185.799 233.252 184.735 233.252ZM185.166 230.742C185.614 230.742 185.995 230.665 186.31 230.511C186.625 230.35 186.891 230.112 187.108 229.797V225.461C186.891 225.167 186.608 224.936 186.258 224.768C185.915 224.6 185.551 224.516 185.166 224.516C184.459 224.516 183.913 224.785 183.528 225.324C183.143 225.856 182.95 226.623 182.95 227.624C182.95 228.282 183.038 228.845 183.213 229.314C183.388 229.776 183.64 230.13 183.969 230.375C184.298 230.62 184.697 230.742 185.166 230.742ZM202.672 233.252C201.643 233.252 200.754 233.021 200.005 232.559C199.263 232.097 198.689 231.446 198.283 230.606C197.884 229.759 197.685 228.765 197.685 227.624C197.685 226.469 197.888 225.471 198.294 224.631C198.707 223.791 199.284 223.147 200.026 222.699C200.775 222.244 201.657 222.017 202.672 222.017C203.54 222.017 204.328 222.199 205.035 222.563C205.742 222.927 206.305 223.487 206.725 224.243C207.145 224.992 207.355 225.947 207.355 227.109C207.355 227.291 207.348 227.515 207.334 227.781C207.327 228.04 207.31 228.303 207.282 228.569H200.278C200.306 229.059 200.418 229.489 200.614 229.86C200.817 230.224 201.094 230.508 201.444 230.711C201.794 230.914 202.207 231.015 202.683 231.015C203.194 231.015 203.638 230.931 204.016 230.763C204.394 230.588 204.751 230.312 205.087 229.934L206.599 231.498C206.137 232.023 205.581 232.447 204.93 232.769C204.279 233.091 203.526 233.252 202.672 233.252ZM200.289 226.521H204.814C204.779 226.052 204.674 225.65 204.499 225.314C204.324 224.971 204.079 224.708 203.764 224.526C203.449 224.344 203.068 224.253 202.62 224.253C202.004 224.253 201.479 224.442 201.045 224.82C200.611 225.198 200.359 225.765 200.289 226.521ZM214.164 233.252C212.785 233.252 211.703 232.755 210.919 231.761C210.135 230.767 209.743 229.388 209.743 227.624C209.743 226.504 209.929 225.524 210.3 224.684C210.671 223.844 211.189 223.189 211.854 222.72C212.526 222.251 213.306 222.017 214.195 222.017C215.147 222.017 215.928 222.367 216.537 223.067V219.024L219.151 217.838V233H216.537V232.118C216.019 232.874 215.228 233.252 214.164 233.252ZM214.594 230.742C215.042 230.742 215.424 230.665 215.739 230.511C216.054 230.35 216.32 230.112 216.537 229.797V225.461C216.32 225.167 216.036 224.936 215.686 224.768C215.343 224.6 214.979 224.516 214.594 224.516C213.887 224.516 213.341 224.785 212.956 225.324C212.571 225.856 212.379 226.623 212.379 227.624C212.379 228.282 212.466 228.845 212.641 229.314C212.816 229.776 213.068 230.13 213.397 230.375C213.726 230.62 214.125 230.742 214.594 230.742ZM222.451 233V222.269H225.076V233H222.451ZM223.764 220.925C223.344 220.925 222.98 220.774 222.672 220.473C222.371 220.165 222.22 219.801 222.22 219.381C222.22 218.961 222.371 218.604 222.672 218.31C222.973 218.009 223.337 217.859 223.764 217.859C224.205 217.859 224.572 218.006 224.866 218.3C225.16 218.594 225.307 218.954 225.307 219.381C225.307 219.808 225.157 220.172 224.856 220.473C224.562 220.774 224.198 220.925 223.764 220.925ZM231.507 233.252C230.653 233.252 230.012 233.017 229.585 232.548C229.158 232.079 228.945 231.379 228.945 230.448V224.568H227.38V222.269H228.945V219.087L231.549 217.838V222.269H233.985V224.568H231.549V229.976C231.549 230.312 231.615 230.56 231.748 230.721C231.888 230.882 232.105 230.963 232.399 230.963C232.917 230.963 233.484 230.802 234.1 230.48L233.796 232.769C233.474 232.93 233.124 233.049 232.746 233.126C232.368 233.21 231.955 233.252 231.507 233.252ZM240.94 233.252C239.911 233.252 239.022 233.021 238.273 232.559C237.531 232.097 236.957 231.446 236.551 230.606C236.152 229.759 235.952 228.765 235.952 227.624C235.952 226.469 236.155 225.471 236.561 224.631C236.974 223.791 237.552 223.147 238.294 222.699C239.043 222.244 239.925 222.017 240.94 222.017C241.808 222.017 242.595 222.199 243.302 222.563C244.009 222.927 244.573 223.487 244.993 224.243C245.413 224.992 245.623 225.947 245.623 227.109C245.623 227.291 245.616 227.515 245.602 227.781C245.595 228.04 245.577 228.303 245.549 228.569H238.546C238.574 229.059 238.686 229.489 238.882 229.86C239.085 230.224 239.361 230.508 239.711 230.711C240.061 230.914 240.474 231.015 240.95 231.015C241.461 231.015 241.906 230.931 242.284 230.763C242.662 230.588 243.019 230.312 243.355 229.934L244.867 231.498C244.405 232.023 243.848 232.447 243.197 232.769C242.546 233.091 241.794 233.252 240.94 233.252ZM238.556 226.521H243.082C243.047 226.052 242.942 225.65 242.767 225.314C242.592 224.971 242.347 224.708 242.032 224.526C241.717 224.344 241.335 224.253 240.887 224.253C240.271 224.253 239.746 224.442 239.312 224.82C238.878 225.198 238.626 225.765 238.556 226.521ZM252.431 233.252C251.052 233.252 249.971 232.755 249.187 231.761C248.403 230.767 248.011 229.388 248.011 227.624C248.011 226.504 248.196 225.524 248.567 224.684C248.938 223.844 249.456 223.189 250.121 222.72C250.793 222.251 251.574 222.017 252.463 222.017C253.415 222.017 254.195 222.367 254.804 223.067V219.024L257.419 217.838V233H254.804V232.118C254.286 232.874 253.495 233.252 252.431 233.252ZM252.862 230.742C253.31 230.742 253.691 230.665 254.006 230.511C254.321 230.35 254.587 230.112 254.804 229.797V225.461C254.587 225.167 254.304 224.936 253.954 224.768C253.611 224.6 253.247 224.516 252.862 224.516C252.155 224.516 251.609 224.785 251.224 225.324C250.839 225.856 250.646 226.623 250.646 227.624C250.646 228.282 250.734 228.845 250.909 229.314C251.084 229.776 251.336 230.13 251.665 230.375C251.994 230.62 252.393 230.742 252.862 230.742ZM268.027 233L265.066 222.269H267.649L268.951 227.634C269 227.823 269.049 228.054 269.098 228.327C269.154 228.593 269.2 228.842 269.235 229.073C269.284 228.849 269.34 228.6 269.403 228.327C269.466 228.054 269.522 227.823 269.571 227.634L271.009 222.269H273.298L274.726 227.634C274.775 227.83 274.831 228.065 274.894 228.338C274.964 228.611 275.02 228.859 275.062 229.083C275.104 228.852 275.15 228.604 275.199 228.338C275.248 228.072 275.297 227.837 275.346 227.634L276.679 222.269H279.262L276.27 233H273.949L272.542 227.634C272.493 227.438 272.43 227.179 272.353 226.857C272.276 226.535 272.21 226.248 272.154 225.996C272.105 226.248 272.042 226.535 271.965 226.857C271.888 227.179 271.825 227.438 271.776 227.634L270.358 233H268.027ZM281.678 233V222.269H284.303V233H281.678ZM282.991 220.925C282.571 220.925 282.207 220.774 281.899 220.473C281.598 220.165 281.447 219.801 281.447 219.381C281.447 218.961 281.598 218.604 281.899 218.31C282.2 218.009 282.564 217.859 282.991 217.859C283.432 217.859 283.799 218.006 284.093 218.3C284.387 218.594 284.534 218.954 284.534 219.381C284.534 219.808 284.384 220.172 284.083 220.473C283.789 220.774 283.425 220.925 282.991 220.925ZM290.733 233.252C289.879 233.252 289.239 233.017 288.812 232.548C288.385 232.079 288.171 231.379 288.171 230.448V224.568H286.607V222.269H288.171V219.087L290.775 217.838V222.269H293.211V224.568H290.775V229.976C290.775 230.312 290.842 230.56 290.975 230.721C291.115 230.882 291.332 230.963 291.626 230.963C292.144 230.963 292.711 230.802 293.327 230.48L293.022 232.769C292.7 232.93 292.35 233.049 291.972 233.126C291.594 233.21 291.181 233.252 290.733 233.252ZM295.438 233V219.045L298.063 217.838V223.308C298.406 222.874 298.816 222.552 299.292 222.342C299.775 222.125 300.324 222.017 300.94 222.017C301.766 222.017 302.456 222.192 303.009 222.542C303.569 222.885 303.989 223.378 304.269 224.022C304.549 224.659 304.689 225.422 304.689 226.311V233H302.074V227.12C302.074 226.238 301.924 225.583 301.623 225.156C301.322 224.729 300.832 224.516 300.153 224.516C299.439 224.516 298.91 224.726 298.567 225.146C298.231 225.559 298.063 226.203 298.063 227.078V233H295.438ZM69.8318 264.263V249.269H72.4568V250.056C73.0448 249.363 73.8323 249.017 74.8193 249.017C75.7363 249.017 76.5273 249.244 77.1923 249.699C77.8573 250.147 78.3683 250.791 78.7253 251.631C79.0823 252.471 79.2608 253.472 79.2608 254.634C79.2608 255.761 79.0753 256.748 78.7043 257.595C78.3333 258.435 77.8118 259.09 77.1398 259.559C76.4678 260.021 75.6838 260.252 74.7878 260.252C74.2978 260.252 73.8568 260.165 73.4648 259.989C73.0728 259.807 72.7368 259.541 72.4568 259.191V263.077L69.8318 264.263ZM74.3993 257.742C75.1133 257.742 75.6628 257.473 76.0478 256.934C76.4328 256.388 76.6253 255.621 76.6253 254.634C76.6253 253.647 76.4293 252.881 76.0373 252.335C75.6453 251.789 75.0993 251.516 74.3993 251.516C73.9723 251.516 73.5978 251.593 73.2758 251.747C72.9608 251.901 72.6878 252.135 72.4568 252.45V256.787C72.6458 257.088 72.9118 257.322 73.2548 257.49C73.6048 257.658 73.9863 257.742 74.3993 257.742ZM81.7674 260V249.269H84.3924V250.424C84.5884 250.011 84.8964 249.675 85.3164 249.416C85.7364 249.15 86.1774 249.017 86.6394 249.017C87.4024 249.017 88.0464 249.279 88.5714 249.804L88.2039 252.209C87.9169 251.971 87.6369 251.803 87.3639 251.705C87.0909 251.607 86.7899 251.558 86.4609 251.558C86.0269 251.558 85.6559 251.659 85.3479 251.862C85.0399 252.065 84.8019 252.359 84.6339 252.744C84.4729 253.129 84.3924 253.591 84.3924 254.13V260H81.7674ZM94.276 260.252C92.764 260.252 91.5705 259.751 90.6955 258.75C89.8205 257.749 89.383 256.381 89.383 254.645C89.383 253.497 89.5825 252.503 89.9815 251.663C90.3805 250.816 90.944 250.165 91.672 249.71C92.407 249.248 93.275 249.017 94.276 249.017C95.27 249.017 96.131 249.244 96.859 249.699C97.587 250.154 98.147 250.802 98.539 251.642C98.931 252.482 99.127 253.479 99.127 254.634C99.127 255.796 98.931 256.797 98.539 257.637C98.154 258.477 97.5975 259.125 96.8695 259.58C96.1415 260.028 95.277 260.252 94.276 260.252ZM94.276 257.742C94.983 257.742 95.5325 257.469 95.9245 256.923C96.3165 256.377 96.5125 255.614 96.5125 254.634C96.5125 253.654 96.313 252.891 95.914 252.345C95.522 251.792 94.976 251.516 94.276 251.516C93.569 251.516 93.016 251.792 92.617 252.345C92.218 252.898 92.0185 253.665 92.0185 254.645C92.0185 255.611 92.218 256.37 92.617 256.923C93.016 257.469 93.569 257.742 94.276 257.742ZM102.248 260V251.568H100.736V249.269H102.248V247.61C102.248 246.77 102.468 246.133 102.909 245.699C103.357 245.265 104.005 245.048 104.852 245.048C105.328 245.048 105.751 245.093 106.122 245.184C106.5 245.268 106.861 245.398 107.204 245.573V247.715C106.917 247.596 106.644 247.505 106.385 247.442C106.126 247.372 105.888 247.337 105.671 247.337C105.405 247.337 105.205 247.403 105.072 247.536C104.939 247.662 104.873 247.858 104.873 248.124V249.269H107.204V251.568H104.873V260H102.248ZM113.238 260.252C112.209 260.252 111.32 260.021 110.571 259.559C109.829 259.097 109.255 258.446 108.849 257.606C108.45 256.759 108.25 255.765 108.25 254.624C108.25 253.469 108.453 252.471 108.859 251.631C109.272 250.791 109.85 250.147 110.592 249.699C111.341 249.244 112.223 249.017 113.238 249.017C114.106 249.017 114.893 249.199 115.6 249.563C116.307 249.927 116.871 250.487 117.291 251.243C117.711 251.992 117.921 252.947 117.921 254.109C117.921 254.291 117.914 254.515 117.9 254.781C117.893 255.04 117.875 255.303 117.847 255.569H110.844C110.872 256.059 110.984 256.489 111.18 256.86C111.383 257.224 111.659 257.508 112.009 257.711C112.359 257.914 112.772 258.015 113.248 258.015C113.759 258.015 114.204 257.931 114.582 257.763C114.96 257.588 115.317 257.312 115.653 256.934L117.165 258.498C116.703 259.023 116.146 259.447 115.495 259.769C114.844 260.091 114.092 260.252 113.238 260.252ZM110.854 253.521H115.38C115.345 253.052 115.24 252.65 115.065 252.314C114.89 251.971 114.645 251.708 114.33 251.526C114.015 251.344 113.633 251.253 113.185 251.253C112.569 251.253 112.044 251.442 111.61 251.82C111.176 252.198 110.924 252.765 110.854 253.521ZM123.829 260.252C122.989 260.252 122.184 260.073 121.414 259.716C120.651 259.359 120.046 258.88 119.598 258.278L121.32 256.829C121.677 257.207 122.09 257.508 122.559 257.732C123.028 257.949 123.476 258.057 123.903 258.057C124.435 258.057 124.844 257.97 125.131 257.795C125.418 257.613 125.562 257.361 125.562 257.039C125.562 256.829 125.492 256.643 125.352 256.482C125.219 256.314 124.981 256.146 124.638 255.978C124.295 255.803 123.812 255.604 123.189 255.38C121.985 254.939 121.131 254.463 120.627 253.952C120.123 253.434 119.871 252.779 119.871 251.988C119.871 251.106 120.228 250.392 120.942 249.846C121.656 249.293 122.587 249.017 123.735 249.017C124.519 249.017 125.24 249.164 125.898 249.458C126.563 249.752 127.133 250.182 127.609 250.749L125.898 252.167C125.268 251.53 124.533 251.211 123.693 251.211C123.266 251.211 122.923 251.292 122.664 251.453C122.405 251.607 122.275 251.817 122.275 252.083C122.275 252.342 122.426 252.573 122.727 252.776C123.035 252.979 123.605 253.217 124.438 253.49C125.264 253.749 125.933 254.043 126.444 254.372C126.962 254.701 127.34 255.082 127.578 255.516C127.823 255.95 127.945 256.451 127.945 257.018C127.945 258.026 127.578 258.817 126.843 259.391C126.115 259.965 125.11 260.252 123.829 260.252ZM134.165 260.252C133.325 260.252 132.52 260.073 131.75 259.716C130.987 259.359 130.382 258.88 129.934 258.278L131.656 256.829C132.013 257.207 132.426 257.508 132.895 257.732C133.364 257.949 133.812 258.057 134.239 258.057C134.771 258.057 135.18 257.97 135.467 257.795C135.754 257.613 135.898 257.361 135.898 257.039C135.898 256.829 135.828 256.643 135.688 256.482C135.555 256.314 135.317 256.146 134.974 255.978C134.631 255.803 134.148 255.604 133.525 255.38C132.321 254.939 131.467 254.463 130.963 253.952C130.459 253.434 130.207 252.779 130.207 251.988C130.207 251.106 130.564 250.392 131.278 249.846C131.992 249.293 132.923 249.017 134.071 249.017C134.855 249.017 135.576 249.164 136.234 249.458C136.899 249.752 137.469 250.182 137.945 250.749L136.234 252.167C135.604 251.53 134.869 251.211 134.029 251.211C133.602 251.211 133.259 251.292 133 251.453C132.741 251.607 132.611 251.817 132.611 252.083C132.611 252.342 132.762 252.573 133.063 252.776C133.371 252.979 133.941 253.217 134.774 253.49C135.6 253.749 136.269 254.043 136.78 254.372C137.298 254.701 137.676 255.082 137.914 255.516C138.159 255.95 138.281 256.451 138.281 257.018C138.281 258.026 137.914 258.817 137.179 259.391C136.451 259.965 135.446 260.252 134.165 260.252ZM141.015 260V249.269H143.64V260H141.015ZM142.327 247.925C141.907 247.925 141.543 247.774 141.235 247.473C140.934 247.165 140.784 246.801 140.784 246.381C140.784 245.961 140.934 245.604 141.235 245.31C141.536 245.009 141.9 244.859 142.327 244.859C142.768 244.859 143.136 245.006 143.43 245.3C143.724 245.594 143.871 245.954 143.871 246.381C143.871 246.808 143.72 247.172 143.419 247.473C143.125 247.774 142.761 247.925 142.327 247.925ZM151.267 260.252C149.755 260.252 148.562 259.751 147.687 258.75C146.812 257.749 146.374 256.381 146.374 254.645C146.374 253.497 146.574 252.503 146.973 251.663C147.372 250.816 147.935 250.165 148.663 249.71C149.398 249.248 150.266 249.017 151.267 249.017C152.261 249.017 153.122 249.244 153.85 249.699C154.578 250.154 155.138 250.802 155.53 251.642C155.922 252.482 156.118 253.479 156.118 254.634C156.118 255.796 155.922 256.797 155.53 257.637C155.145 258.477 154.589 259.125 153.861 259.58C153.133 260.028 152.268 260.252 151.267 260.252ZM151.267 257.742C151.974 257.742 152.524 257.469 152.916 256.923C153.308 256.377 153.504 255.614 153.504 254.634C153.504 253.654 153.304 252.891 152.905 252.345C152.513 251.792 151.967 251.516 151.267 251.516C150.56 251.516 150.007 251.792 149.608 252.345C149.209 252.898 149.01 253.665 149.01 254.645C149.01 255.611 149.209 256.37 149.608 256.923C150.007 257.469 150.56 257.742 151.267 257.742ZM158.631 260V249.269H161.256V250.298C161.599 249.871 162.008 249.552 162.484 249.342C162.967 249.125 163.517 249.017 164.133 249.017C165.33 249.017 166.254 249.388 166.905 250.13C167.556 250.865 167.881 251.925 167.881 253.311V260H165.267V254.12C165.267 253.217 165.109 252.559 164.794 252.146C164.486 251.726 164.003 251.516 163.345 251.516C162.631 251.516 162.103 251.726 161.76 252.146C161.424 252.559 161.256 253.203 161.256 254.078V260H158.631ZM174.25 260.252C173.081 260.252 172.153 259.937 171.467 259.307C170.788 258.67 170.449 257.809 170.449 256.724C170.449 256.024 170.624 255.411 170.974 254.886C171.331 254.354 171.824 253.945 172.454 253.658C173.091 253.364 173.833 253.217 174.68 253.217C175.149 253.217 175.601 253.262 176.035 253.353C176.476 253.437 176.861 253.56 177.19 253.721V253.049C177.19 252.447 177.018 251.995 176.675 251.694C176.339 251.386 175.842 251.232 175.184 251.232C174.659 251.232 174.12 251.327 173.567 251.516C173.014 251.705 172.454 251.985 171.887 252.356L171.1 250.287C171.716 249.881 172.402 249.57 173.158 249.353C173.914 249.129 174.677 249.017 175.447 249.017C176.889 249.017 177.967 249.36 178.681 250.046C179.395 250.725 179.752 251.74 179.752 253.091V260H177.19V259.139C176.826 259.503 176.392 259.779 175.888 259.968C175.391 260.158 174.845 260.252 174.25 260.252ZM174.859 258.036C175.293 258.036 175.709 257.952 176.108 257.784C176.514 257.609 176.875 257.364 177.19 257.049V255.779C176.889 255.632 176.553 255.52 176.182 255.443C175.818 255.359 175.454 255.317 175.09 255.317C174.439 255.317 173.924 255.443 173.546 255.695C173.175 255.94 172.99 256.283 172.99 256.724C172.99 257.137 173.154 257.459 173.483 257.69C173.812 257.921 174.271 258.036 174.859 258.036ZM182.873 260V246.024L185.498 244.838V260H182.873ZM197.007 260L193.08 249.269H195.799L198.046 255.653C198.109 255.807 198.165 255.971 198.214 256.146C198.263 256.321 198.312 256.496 198.361 256.671C198.41 256.496 198.459 256.321 198.508 256.146C198.564 255.971 198.617 255.807 198.666 255.653L200.902 249.269H203.611L199.684 260H197.007ZM209.899 260.252C208.387 260.252 207.194 259.751 206.319 258.75C205.444 257.749 205.006 256.381 205.006 254.645C205.006 253.497 205.206 252.503 205.605 251.663C206.004 250.816 206.567 250.165 207.295 249.71C208.03 249.248 208.898 249.017 209.899 249.017C210.893 249.017 211.754 249.244 212.482 249.699C213.21 250.154 213.77 250.802 214.162 251.642C214.554 252.482 214.75 253.479 214.75 254.634C214.75 255.796 214.554 256.797 214.162 257.637C213.777 258.477 213.221 259.125 212.493 259.58C211.765 260.028 210.9 260.252 209.899 260.252ZM209.899 257.742C210.606 257.742 211.156 257.469 211.548 256.923C211.94 256.377 212.136 255.614 212.136 254.634C212.136 253.654 211.936 252.891 211.537 252.345C211.145 251.792 210.599 251.516 209.899 251.516C209.192 251.516 208.639 251.792 208.24 252.345C207.841 252.898 207.642 253.665 207.642 254.645C207.642 255.611 207.841 256.37 208.24 256.923C208.639 257.469 209.192 257.742 209.899 257.742ZM217.489 260V249.269H220.114V260H217.489ZM218.801 247.925C218.381 247.925 218.017 247.774 217.709 247.473C217.408 247.165 217.258 246.801 217.258 246.381C217.258 245.961 217.408 245.604 217.709 245.31C218.01 245.009 218.374 244.859 218.801 244.859C219.242 244.859 219.61 245.006 219.904 245.3C220.198 245.594 220.345 245.954 220.345 246.381C220.345 246.808 220.194 247.172 219.893 247.473C219.599 247.774 219.235 247.925 218.801 247.925ZM227.667 260.252C226.68 260.252 225.826 260.024 225.105 259.569C224.384 259.114 223.828 258.47 223.436 257.637C223.044 256.797 222.848 255.8 222.848 254.645C222.848 253.49 223.044 252.492 223.436 251.652C223.835 250.812 224.398 250.165 225.126 249.71C225.854 249.248 226.712 249.017 227.699 249.017C228.812 249.017 229.736 249.276 230.471 249.794C231.213 250.305 231.748 251.064 232.077 252.072L229.589 252.912C229.421 252.464 229.176 252.121 228.854 251.883C228.532 251.638 228.161 251.516 227.741 251.516C227.062 251.516 226.519 251.796 226.113 252.356C225.714 252.916 225.515 253.679 225.515 254.645C225.515 255.597 225.711 256.353 226.103 256.913C226.495 257.473 227.023 257.753 227.688 257.753C228.157 257.753 228.556 257.62 228.885 257.354C229.221 257.088 229.47 256.699 229.631 256.188L232.109 256.934C231.794 258.033 231.258 258.862 230.502 259.422C229.753 259.975 228.808 260.252 227.667 260.252ZM239.156 260.252C238.127 260.252 237.238 260.021 236.489 259.559C235.747 259.097 235.173 258.446 234.767 257.606C234.368 256.759 234.168 255.765 234.168 254.624C234.168 253.469 234.371 252.471 234.777 251.631C235.19 250.791 235.768 250.147 236.51 249.699C237.259 249.244 238.141 249.017 239.156 249.017C240.024 249.017 240.811 249.199 241.518 249.563C242.225 249.927 242.789 250.487 243.209 251.243C243.629 251.992 243.839 252.947 243.839 254.109C243.839 254.291 243.832 254.515 243.818 254.781C243.811 255.04 243.793 255.303 243.765 255.569H236.762C236.79 256.059 236.902 256.489 237.098 256.86C237.301 257.224 237.577 257.508 237.927 257.711C238.277 257.914 238.69 258.015 239.166 258.015C239.677 258.015 240.122 257.931 240.5 257.763C240.878 257.588 241.235 257.312 241.571 256.934L243.083 258.498C242.621 259.023 242.064 259.447 241.413 259.769C240.762 260.091 240.01 260.252 239.156 260.252ZM236.772 253.521H241.298C241.263 253.052 241.158 252.65 240.983 252.314C240.808 251.971 240.563 251.708 240.248 251.526C239.933 251.344 239.551 251.253 239.103 251.253C238.487 251.253 237.962 251.442 237.528 251.82C237.094 252.198 236.842 252.765 236.772 253.521ZM254.846 260.252C253.677 260.252 252.749 259.937 252.063 259.307C251.384 258.67 251.045 257.809 251.045 256.724C251.045 256.024 251.22 255.411 251.57 254.886C251.927 254.354 252.42 253.945 253.05 253.658C253.687 253.364 254.429 253.217 255.276 253.217C255.745 253.217 256.197 253.262 256.631 253.353C257.072 253.437 257.457 253.56 257.786 253.721V253.049C257.786 252.447 257.614 251.995 257.271 251.694C256.935 251.386 256.438 251.232 255.78 251.232C255.255 251.232 254.716 251.327 254.163 251.516C253.61 251.705 253.05 251.985 252.483 252.356L251.696 250.287C252.312 249.881 252.998 249.57 253.754 249.353C254.51 249.129 255.273 249.017 256.043 249.017C257.485 249.017 258.563 249.36 259.277 250.046C259.991 250.725 260.348 251.74 260.348 253.091V260H257.786V259.139C257.422 259.503 256.988 259.779 256.484 259.968C255.987 260.158 255.441 260.252 254.846 260.252ZM255.455 258.036C255.889 258.036 256.305 257.952 256.704 257.784C257.11 257.609 257.471 257.364 257.786 257.049V255.779C257.485 255.632 257.149 255.52 256.778 255.443C256.414 255.359 256.05 255.317 255.686 255.317C255.035 255.317 254.52 255.443 254.142 255.695C253.771 255.94 253.586 256.283 253.586 256.724C253.586 257.137 253.75 257.459 254.079 257.69C254.408 257.921 254.867 258.036 255.455 258.036ZM267.719 260.252C266.732 260.252 265.878 260.024 265.157 259.569C264.436 259.114 263.88 258.47 263.488 257.637C263.096 256.797 262.9 255.8 262.9 254.645C262.9 253.49 263.096 252.492 263.488 251.652C263.887 250.812 264.45 250.165 265.178 249.71C265.906 249.248 266.764 249.017 267.751 249.017C268.864 249.017 269.788 249.276 270.523 249.794C271.265 250.305 271.8 251.064 272.129 252.072L269.641 252.912C269.473 252.464 269.228 252.121 268.906 251.883C268.584 251.638 268.213 251.516 267.793 251.516C267.114 251.516 266.571 251.796 266.165 252.356C265.766 252.916 265.567 253.679 265.567 254.645C265.567 255.597 265.763 256.353 266.155 256.913C266.547 257.473 267.075 257.753 267.74 257.753C268.209 257.753 268.608 257.62 268.937 257.354C269.273 257.088 269.522 256.699 269.683 256.188L272.161 256.934C271.846 258.033 271.31 258.862 270.554 259.422C269.805 259.975 268.86 260.252 267.719 260.252ZM277.854 260.252C277 260.252 276.36 260.017 275.933 259.548C275.506 259.079 275.292 258.379 275.292 257.448V251.568H273.728V249.269H275.292V246.087L277.896 244.838V249.269H280.332V251.568H277.896V256.976C277.896 257.312 277.963 257.56 278.096 257.721C278.236 257.882 278.453 257.963 278.747 257.963C279.265 257.963 279.832 257.802 280.448 257.48L280.143 259.769C279.821 259.93 279.471 260.049 279.093 260.126C278.715 260.21 278.302 260.252 277.854 260.252ZM287.193 260.252C285.681 260.252 284.488 259.751 283.613 258.75C282.738 257.749 282.3 256.381 282.3 254.645C282.3 253.497 282.5 252.503 282.899 251.663C283.298 250.816 283.861 250.165 284.589 249.71C285.324 249.248 286.192 249.017 287.193 249.017C288.187 249.017 289.048 249.244 289.776 249.699C290.504 250.154 291.064 250.802 291.456 251.642C291.848 252.482 292.044 253.479 292.044 254.634C292.044 255.796 291.848 256.797 291.456 257.637C291.071 258.477 290.515 259.125 289.787 259.58C289.059 260.028 288.194 260.252 287.193 260.252ZM287.193 257.742C287.9 257.742 288.45 257.469 288.842 256.923C289.234 256.377 289.43 255.614 289.43 254.634C289.43 253.654 289.23 252.891 288.831 252.345C288.439 251.792 287.893 251.516 287.193 251.516C286.486 251.516 285.933 251.792 285.534 252.345C285.135 252.898 284.936 253.665 284.936 254.645C284.936 255.611 285.135 256.37 285.534 256.923C285.933 257.469 286.486 257.742 287.193 257.742ZM294.556 260V249.269H297.181V250.424C297.377 250.011 297.685 249.675 298.105 249.416C298.525 249.15 298.966 249.017 299.428 249.017C300.191 249.017 300.835 249.279 301.36 249.804L300.993 252.209C300.706 251.971 300.426 251.803 300.153 251.705C299.88 251.607 299.579 251.558 299.25 251.558C298.816 251.558 298.445 251.659 298.137 251.862C297.829 252.065 297.591 252.359 297.423 252.744C297.262 253.129 297.181 253.591 297.181 254.13V260H294.556ZM306.615 260.252C305.775 260.252 304.97 260.073 304.2 259.716C303.437 259.359 302.832 258.88 302.384 258.278L304.106 256.829C304.463 257.207 304.876 257.508 305.345 257.732C305.814 257.949 306.262 258.057 306.689 258.057C307.221 258.057 307.63 257.97 307.917 257.795C308.204 257.613 308.348 257.361 308.348 257.039C308.348 256.829 308.278 256.643 308.138 256.482C308.005 256.314 307.767 256.146 307.424 255.978C307.081 255.803 306.598 255.604 305.975 255.38C304.771 254.939 303.917 254.463 303.413 253.952C302.909 253.434 302.657 252.779 302.657 251.988C302.657 251.106 303.014 250.392 303.728 249.846C304.442 249.293 305.373 249.017 306.521 249.017C307.305 249.017 308.026 249.164 308.684 249.458C309.349 249.752 309.919 250.182 310.395 250.749L308.684 252.167C308.054 251.53 307.319 251.211 306.479 251.211C306.052 251.211 305.709 251.292 305.45 251.453C305.191 251.607 305.061 251.817 305.061 252.083C305.061 252.342 305.212 252.573 305.513 252.776C305.821 252.979 306.391 253.217 307.224 253.49C308.05 253.749 308.719 254.043 309.23 254.372C309.748 254.701 310.126 255.082 310.364 255.516C310.609 255.95 310.731 256.451 310.731 257.018C310.731 258.026 310.364 258.817 309.629 259.391C308.901 259.965 307.896 260.252 306.615 260.252Z" fill="white"/>
<path d="M185.56 378C185.008 378 184.617 378.676 184.893 379.155L189.333 386.845C189.609 387.324 190.391 387.324 190.667 386.845L195.107 379.155C195.383 378.676 194.992 378 194.44 378H185.56ZM189 308V379H191V308H189Z" fill="#FC00FF"/>
<path d="M99.0164 447.252C98.0994 447.252 97.2664 447.091 96.5174 446.769C95.7684 446.447 95.1244 445.992 94.5854 445.404C94.0534 444.809 93.6544 444.109 93.3884 443.304L95.8559 442.39C96.1709 443.062 96.6084 443.615 97.1684 444.049C97.7354 444.476 98.3724 444.69 99.0794 444.69C99.8284 444.69 100.423 444.532 100.864 444.217C101.312 443.902 101.536 443.444 101.536 442.842C101.536 442.429 101.403 442.086 101.137 441.813C100.878 441.533 100.525 441.295 100.077 441.099C99.6359 440.896 99.1354 440.7 98.5754 440.511C98.0364 440.329 97.4939 440.126 96.9479 439.902C96.4019 439.678 95.9014 439.405 95.4464 439.083C94.9914 438.754 94.6239 438.341 94.3439 437.844C94.0709 437.347 93.9344 436.738 93.9344 436.017C93.9344 435.296 94.1269 434.634 94.5119 434.032C94.8969 433.43 95.4534 432.951 96.1814 432.594C96.9164 432.23 97.8054 432.048 98.8484 432.048C99.7024 432.048 100.458 432.195 101.116 432.489C101.781 432.776 102.331 433.168 102.765 433.665C103.199 434.162 103.5 434.725 103.668 435.355L101.232 436.164C101.036 435.723 100.735 435.355 100.329 435.061C99.9299 434.76 99.3874 434.61 98.7014 434.61C98.0574 434.61 97.5569 434.736 97.1999 434.988C96.8429 435.24 96.6644 435.597 96.6644 436.059C96.6644 436.374 96.7834 436.643 97.0214 436.867C97.2664 437.084 97.5919 437.28 97.9979 437.455C98.4109 437.63 98.8764 437.809 99.3944 437.991C99.9754 438.187 100.553 438.411 101.127 438.663C101.708 438.908 102.233 439.209 102.702 439.566C103.178 439.923 103.559 440.367 103.846 440.899C104.133 441.424 104.277 442.068 104.277 442.831C104.277 443.769 104.042 444.567 103.573 445.225C103.111 445.883 102.485 446.387 101.694 446.737C100.903 447.081 100.01 447.252 99.0164 447.252ZM109.926 447.252C109.072 447.252 108.432 447.017 108.005 446.548C107.578 446.079 107.364 445.379 107.364 444.448V438.568H105.8V436.269H107.364V433.087L109.968 431.838V436.269H112.404V438.568H109.968V443.976C109.968 444.312 110.035 444.56 110.168 444.721C110.308 444.882 110.525 444.963 110.819 444.963C111.337 444.963 111.904 444.802 112.52 444.48L112.215 446.769C111.893 446.93 111.543 447.049 111.165 447.126C110.787 447.21 110.374 447.252 109.926 447.252ZM118.11 447.252C116.941 447.252 116.013 446.937 115.327 446.307C114.648 445.67 114.309 444.809 114.309 443.724C114.309 443.024 114.484 442.411 114.834 441.886C115.191 441.354 115.684 440.945 116.314 440.658C116.951 440.364 117.693 440.217 118.54 440.217C119.009 440.217 119.461 440.262 119.895 440.353C120.336 440.437 120.721 440.56 121.05 440.721V440.049C121.05 439.447 120.878 438.995 120.535 438.694C120.199 438.386 119.702 438.232 119.044 438.232C118.519 438.232 117.98 438.327 117.427 438.516C116.874 438.705 116.314 438.985 115.747 439.356L114.96 437.287C115.576 436.881 116.262 436.57 117.018 436.353C117.774 436.129 118.537 436.017 119.307 436.017C120.749 436.017 121.827 436.36 122.541 437.046C123.255 437.725 123.612 438.74 123.612 440.091V447H121.05V446.139C120.686 446.503 120.252 446.779 119.748 446.968C119.251 447.158 118.705 447.252 118.11 447.252ZM118.719 445.036C119.153 445.036 119.569 444.952 119.968 444.784C120.374 444.609 120.735 444.364 121.05 444.049V442.779C120.749 442.632 120.413 442.52 120.042 442.443C119.678 442.359 119.314 442.317 118.95 442.317C118.299 442.317 117.784 442.443 117.406 442.695C117.035 442.94 116.85 443.283 116.85 443.724C116.85 444.137 117.014 444.459 117.343 444.69C117.672 444.921 118.131 445.036 118.719 445.036ZM126.751 447V436.269H129.376V437.424C129.572 437.011 129.88 436.675 130.3 436.416C130.72 436.15 131.161 436.017 131.623 436.017C132.386 436.017 133.03 436.279 133.555 436.804L133.188 439.209C132.901 438.971 132.621 438.803 132.348 438.705C132.075 438.607 131.774 438.558 131.445 438.558C131.011 438.558 130.64 438.659 130.332 438.862C130.024 439.065 129.786 439.359 129.618 439.744C129.457 440.129 129.376 440.591 129.376 441.13V447H126.751ZM138.719 447.252C137.865 447.252 137.225 447.017 136.798 446.548C136.371 446.079 136.157 445.379 136.157 444.448V438.568H134.593V436.269H136.157V433.087L138.761 431.838V436.269H141.197V438.568H138.761V443.976C138.761 444.312 138.828 444.56 138.961 444.721C139.101 444.882 139.318 444.963 139.612 444.963C140.13 444.963 140.697 444.802 141.313 444.48L141.008 446.769C140.686 446.93 140.336 447.049 139.958 447.126C139.58 447.21 139.167 447.252 138.719 447.252ZM152.213 447.252C151.359 447.252 150.719 447.017 150.292 446.548C149.865 446.079 149.651 445.379 149.651 444.448V438.568H148.087V436.269H149.651V433.087L152.255 431.838V436.269H154.691V438.568H152.255V443.976C152.255 444.312 152.322 444.56 152.455 444.721C152.595 444.882 152.812 444.963 153.106 444.963C153.624 444.963 154.191 444.802 154.807 444.48L154.502 446.769C154.18 446.93 153.83 447.049 153.452 447.126C153.074 447.21 152.661 447.252 152.213 447.252ZM160.397 447.252C159.228 447.252 158.3 446.937 157.614 446.307C156.935 445.67 156.596 444.809 156.596 443.724C156.596 443.024 156.771 442.411 157.121 441.886C157.478 441.354 157.971 440.945 158.601 440.658C159.238 440.364 159.98 440.217 160.827 440.217C161.296 440.217 161.748 440.262 162.182 440.353C162.623 440.437 163.008 440.56 163.337 440.721V440.049C163.337 439.447 163.165 438.995 162.822 438.694C162.486 438.386 161.989 438.232 161.331 438.232C160.806 438.232 160.267 438.327 159.714 438.516C159.161 438.705 158.601 438.985 158.034 439.356L157.247 437.287C157.863 436.881 158.549 436.57 159.305 436.353C160.061 436.129 160.824 436.017 161.594 436.017C163.036 436.017 164.114 436.36 164.828 437.046C165.542 437.725 165.899 438.74 165.899 440.091V447H163.337V446.139C162.973 446.503 162.539 446.779 162.035 446.968C161.538 447.158 160.992 447.252 160.397 447.252ZM161.006 445.036C161.44 445.036 161.856 444.952 162.255 444.784C162.661 444.609 163.022 444.364 163.337 444.049V442.779C163.036 442.632 162.7 442.52 162.329 442.443C161.965 442.359 161.601 442.317 161.237 442.317C160.586 442.317 160.071 442.443 159.693 442.695C159.322 442.94 159.137 443.283 159.137 443.724C159.137 444.137 159.301 444.459 159.63 444.69C159.959 444.921 160.418 445.036 161.006 445.036ZM169.038 447V436.269H171.663V437.424C171.859 437.011 172.167 436.675 172.587 436.416C173.007 436.15 173.448 436.017 173.91 436.017C174.673 436.017 175.317 436.279 175.842 436.804L175.475 439.209C175.188 438.971 174.908 438.803 174.635 438.705C174.362 438.607 174.061 438.558 173.732 438.558C173.298 438.558 172.927 438.659 172.619 438.862C172.311 439.065 172.073 439.359 171.905 439.744C171.744 440.129 171.663 440.591 171.663 441.13V447H169.038ZM181.012 451.473L179.563 449.279C180.585 449.202 181.376 449.086 181.936 448.932C182.503 448.778 182.898 448.558 183.122 448.271C183.346 447.984 183.458 447.609 183.458 447.147V446.37C182.912 446.958 182.142 447.252 181.148 447.252C180.217 447.252 179.416 447.028 178.744 446.58C178.072 446.125 177.554 445.477 177.19 444.637C176.833 443.79 176.654 442.786 176.654 441.624C176.654 440.49 176.84 439.503 177.211 438.663C177.589 437.823 178.114 437.172 178.786 436.71C179.465 436.248 180.259 436.017 181.169 436.017C181.645 436.017 182.079 436.09 182.471 436.237C182.87 436.384 183.199 436.598 183.458 436.878V436.269H186.073V446.034C186.073 446.986 185.985 447.791 185.81 448.449C185.635 449.107 185.348 449.646 184.949 450.066C184.557 450.486 184.039 450.805 183.395 451.022C182.751 451.246 181.957 451.396 181.012 451.473ZM181.579 444.742C181.95 444.742 182.296 444.658 182.618 444.49C182.947 444.315 183.227 444.081 183.458 443.787V439.461C183.262 439.188 182.993 438.964 182.65 438.789C182.307 438.607 181.96 438.516 181.61 438.516C180.854 438.516 180.277 438.782 179.878 439.314C179.486 439.839 179.29 440.609 179.29 441.624C179.29 442.282 179.377 442.845 179.552 443.314C179.734 443.776 179.997 444.13 180.34 444.375C180.683 444.62 181.096 444.742 181.579 444.742ZM193.557 447.252C192.528 447.252 191.639 447.021 190.89 446.559C190.148 446.097 189.574 445.446 189.168 444.606C188.769 443.759 188.569 442.765 188.569 441.624C188.569 440.469 188.772 439.471 189.178 438.631C189.591 437.791 190.169 437.147 190.911 436.699C191.66 436.244 192.542 436.017 193.557 436.017C194.425 436.017 195.212 436.199 195.919 436.563C196.626 436.927 197.19 437.487 197.61 438.243C198.03 438.992 198.24 439.947 198.24 441.109C198.24 441.291 198.233 441.515 198.219 441.781C198.212 442.04 198.194 442.303 198.166 442.569H191.163C191.191 443.059 191.303 443.489 191.499 443.86C191.702 444.224 191.978 444.508 192.328 444.711C192.678 444.914 193.091 445.015 193.567 445.015C194.078 445.015 194.523 444.931 194.901 444.763C195.279 444.588 195.636 444.312 195.972 443.934L197.484 445.498C197.022 446.023 196.465 446.447 195.814 446.769C195.163 447.091 194.411 447.252 193.557 447.252ZM191.173 440.521H195.699C195.664 440.052 195.559 439.65 195.384 439.314C195.209 438.971 194.964 438.708 194.649 438.526C194.334 438.344 193.952 438.253 193.504 438.253C192.888 438.253 192.363 438.442 191.929 438.82C191.495 439.198 191.243 439.765 191.173 440.521ZM203.852 447.252C202.998 447.252 202.357 447.017 201.93 446.548C201.503 446.079 201.29 445.379 201.29 444.448V438.568H199.725V436.269H201.29V433.087L203.894 431.838V436.269H206.33V438.568H203.894V443.976C203.894 444.312 203.96 444.56 204.093 444.721C204.233 444.882 204.45 444.963 204.744 444.963C205.262 444.963 205.829 444.802 206.445 444.48L206.141 446.769C205.819 446.93 205.469 447.049 205.091 447.126C204.713 447.21 204.3 447.252 203.852 447.252ZM208.578 447V436.269H211.203V447H208.578ZM209.89 434.925C209.47 434.925 209.106 434.774 208.798 434.473C208.497 434.165 208.347 433.801 208.347 433.381C208.347 432.961 208.497 432.604 208.798 432.31C209.099 432.009 209.463 431.859 209.89 431.859C210.331 431.859 210.699 432.006 210.993 432.3C211.287 432.594 211.434 432.954 211.434 433.381C211.434 433.808 211.283 434.172 210.982 434.473C210.688 434.774 210.324 434.925 209.89 434.925ZM214.504 447V436.269H217.129V437.298C217.472 436.871 217.882 436.552 218.358 436.342C218.841 436.125 219.39 436.017 220.006 436.017C221.203 436.017 222.127 436.388 222.778 437.13C223.429 437.865 223.755 438.925 223.755 440.311V447H221.14V441.12C221.14 440.217 220.983 439.559 220.668 439.146C220.36 438.726 219.877 438.516 219.219 438.516C218.505 438.516 217.976 438.726 217.633 439.146C217.297 439.559 217.129 440.203 217.129 441.078V447H214.504ZM230.825 451.473L229.376 449.279C230.398 449.202 231.189 449.086 231.749 448.932C232.316 448.778 232.711 448.558 232.935 448.271C233.159 447.984 233.271 447.609 233.271 447.147V446.37C232.725 446.958 231.955 447.252 230.961 447.252C230.03 447.252 229.229 447.028 228.557 446.58C227.885 446.125 227.367 445.477 227.003 444.637C226.646 443.79 226.467 442.786 226.467 441.624C226.467 440.49 226.653 439.503 227.024 438.663C227.402 437.823 227.927 437.172 228.599 436.71C229.278 436.248 230.072 436.017 230.982 436.017C231.458 436.017 231.892 436.09 232.284 436.237C232.683 436.384 233.012 436.598 233.271 436.878V436.269H235.886V446.034C235.886 446.986 235.798 447.791 235.623 448.449C235.448 449.107 235.161 449.646 234.762 450.066C234.37 450.486 233.852 450.805 233.208 451.022C232.564 451.246 231.77 451.396 230.825 451.473ZM231.392 444.742C231.763 444.742 232.109 444.658 232.431 444.49C232.76 444.315 233.04 444.081 233.271 443.787V439.461C233.075 439.188 232.806 438.964 232.463 438.789C232.12 438.607 231.773 438.516 231.423 438.516C230.667 438.516 230.09 438.782 229.691 439.314C229.299 439.839 229.103 440.609 229.103 441.624C229.103 442.282 229.19 442.845 229.365 443.314C229.547 443.776 229.81 444.13 230.153 444.375C230.496 444.62 230.909 444.742 231.392 444.742ZM245.749 451.074L247.376 446.811L243.355 436.269H246.053L248.395 442.548C248.458 442.695 248.517 442.856 248.573 443.031C248.629 443.206 248.682 443.381 248.731 443.556C248.773 443.381 248.822 443.209 248.878 443.041C248.941 442.866 249.004 442.702 249.067 442.548L251.408 436.269H254.107L248.458 451.074H245.749ZM260.4 447.252C258.888 447.252 257.694 446.751 256.819 445.75C255.944 444.749 255.507 443.381 255.507 441.645C255.507 440.497 255.706 439.503 256.105 438.663C256.504 437.816 257.068 437.165 257.796 436.71C258.531 436.248 259.399 436.017 260.4 436.017C261.394 436.017 262.255 436.244 262.983 436.699C263.711 437.154 264.271 437.802 264.663 438.642C265.055 439.482 265.251 440.479 265.251 441.634C265.251 442.796 265.055 443.797 264.663 444.637C264.278 445.477 263.721 446.125 262.993 446.58C262.265 447.028 261.401 447.252 260.4 447.252ZM260.4 444.742C261.107 444.742 261.656 444.469 262.048 443.923C262.44 443.377 262.636 442.614 262.636 441.634C262.636 440.654 262.437 439.891 262.038 439.345C261.646 438.792 261.1 438.516 260.4 438.516C259.693 438.516 259.14 438.792 258.741 439.345C258.342 439.898 258.142 440.665 258.142 441.645C258.142 442.611 258.342 443.37 258.741 443.923C259.14 444.469 259.693 444.742 260.4 444.742ZM271.633 447.252C270.436 447.252 269.508 446.881 268.85 446.139C268.192 445.39 267.863 444.333 267.863 442.968V436.269H270.488V442.149C270.488 443.052 270.642 443.71 270.95 444.123C271.258 444.536 271.745 444.742 272.41 444.742C273.124 444.742 273.649 444.536 273.985 444.123C274.328 443.703 274.499 443.059 274.499 442.191V436.269H277.114V447H274.499V445.992C274.17 446.412 273.764 446.727 273.281 446.937C272.805 447.147 272.256 447.252 271.633 447.252ZM280.416 447V436.269H283.041V437.424C283.237 437.011 283.545 436.675 283.965 436.416C284.385 436.15 284.826 436.017 285.288 436.017C286.051 436.017 286.695 436.279 287.22 436.804L286.853 439.209C286.566 438.971 286.286 438.803 286.013 438.705C285.74 438.607 285.439 438.558 285.11 438.558C284.676 438.558 284.305 438.659 283.997 438.862C283.689 439.065 283.451 439.359 283.283 439.744C283.122 440.129 283.041 440.591 283.041 441.13V447H280.416ZM81.409 474V463.269H84.034V474H81.409ZM82.7215 461.925C82.3015 461.925 81.9375 461.774 81.6295 461.473C81.3285 461.165 81.178 460.801 81.178 460.381C81.178 459.961 81.3285 459.604 81.6295 459.31C81.9305 459.009 82.2945 458.859 82.7215 458.859C83.1625 458.859 83.53 459.006 83.824 459.3C84.118 459.594 84.265 459.954 84.265 460.381C84.265 460.808 84.1145 461.172 83.8135 461.473C83.5195 461.774 83.1555 461.925 82.7215 461.925ZM87.3353 474V463.269H89.9603V464.298C90.3033 463.871 90.7128 463.552 91.1888 463.342C91.6718 463.125 92.2213 463.017 92.8373 463.017C94.0343 463.017 94.9583 463.388 95.6093 464.13C96.2603 464.865 96.5858 465.925 96.5858 467.311V474H93.9713V468.12C93.9713 467.217 93.8138 466.559 93.4988 466.146C93.1908 465.726 92.7078 465.516 92.0498 465.516C91.3358 465.516 90.8073 465.726 90.4643 466.146C90.1283 466.559 89.9603 467.203 89.9603 468.078V474H87.3353ZM102.584 474.252C101.73 474.252 101.09 474.017 100.663 473.548C100.236 473.079 100.022 472.379 100.022 471.448V465.568H98.4579V463.269H100.022V460.087L102.626 458.838V463.269H105.062V465.568H102.626V470.976C102.626 471.312 102.693 471.56 102.826 471.721C102.966 471.882 103.183 471.963 103.477 471.963C103.995 471.963 104.562 471.802 105.178 471.48L104.873 473.769C104.551 473.93 104.201 474.049 103.823 474.126C103.445 474.21 103.032 474.252 102.584 474.252ZM112.017 474.252C110.988 474.252 110.099 474.021 109.35 473.559C108.608 473.097 108.034 472.446 107.628 471.606C107.229 470.759 107.03 469.765 107.03 468.624C107.03 467.469 107.233 466.471 107.639 465.631C108.052 464.791 108.629 464.147 109.371 463.699C110.12 463.244 111.002 463.017 112.017 463.017C112.885 463.017 113.673 463.199 114.38 463.563C115.087 463.927 115.65 464.487 116.07 465.243C116.49 465.992 116.7 466.947 116.7 468.109C116.7 468.291 116.693 468.515 116.679 468.781C116.672 469.04 116.655 469.303 116.627 469.569H109.623C109.651 470.059 109.763 470.489 109.959 470.86C110.162 471.224 110.439 471.508 110.789 471.711C111.139 471.914 111.552 472.015 112.028 472.015C112.539 472.015 112.983 471.931 113.361 471.763C113.739 471.588 114.096 471.312 114.432 470.934L115.944 472.498C115.482 473.023 114.926 473.447 114.275 473.769C113.624 474.091 112.871 474.252 112.017 474.252ZM109.634 467.521H114.159C114.124 467.052 114.019 466.65 113.844 466.314C113.669 465.971 113.424 465.708 113.109 465.526C112.794 465.344 112.413 465.253 111.965 465.253C111.349 465.253 110.824 465.442 110.39 465.82C109.956 466.198 109.704 466.765 109.634 467.521ZM119.348 474V463.269H121.973V464.424C122.169 464.011 122.477 463.675 122.897 463.416C123.317 463.15 123.758 463.017 124.22 463.017C124.983 463.017 125.627 463.279 126.152 463.804L125.784 466.209C125.497 465.971 125.217 465.803 124.944 465.705C124.671 465.607 124.37 465.558 124.041 465.558C123.607 465.558 123.236 465.659 122.928 465.862C122.62 466.065 122.382 466.359 122.214 466.744C122.053 467.129 121.973 467.591 121.973 468.13V474H119.348ZM127.818 474V463.269H130.443V464.298C130.786 463.871 131.195 463.552 131.671 463.342C132.154 463.125 132.704 463.017 133.32 463.017C134.517 463.017 135.441 463.388 136.092 464.13C136.743 464.865 137.068 465.925 137.068 467.311V474H134.454V468.12C134.454 467.217 134.296 466.559 133.981 466.146C133.673 465.726 133.19 465.516 132.532 465.516C131.818 465.516 131.29 465.726 130.947 466.146C130.611 466.559 130.443 467.203 130.443 468.078V474H127.818ZM143.437 474.252C142.268 474.252 141.34 473.937 140.654 473.307C139.975 472.67 139.636 471.809 139.636 470.724C139.636 470.024 139.811 469.411 140.161 468.886C140.518 468.354 141.011 467.945 141.641 467.658C142.278 467.364 143.02 467.217 143.867 467.217C144.336 467.217 144.788 467.262 145.222 467.353C145.663 467.437 146.048 467.56 146.377 467.721V467.049C146.377 466.447 146.205 465.995 145.862 465.694C145.526 465.386 145.029 465.232 144.371 465.232C143.846 465.232 143.307 465.327 142.754 465.516C142.201 465.705 141.641 465.985 141.074 466.356L140.287 464.287C140.903 463.881 141.589 463.57 142.345 463.353C143.101 463.129 143.864 463.017 144.634 463.017C146.076 463.017 147.154 463.36 147.868 464.046C148.582 464.725 148.939 465.74 148.939 467.091V474H146.377V473.139C146.013 473.503 145.579 473.779 145.075 473.968C144.578 474.158 144.032 474.252 143.437 474.252ZM144.046 472.036C144.48 472.036 144.896 471.952 145.295 471.784C145.701 471.609 146.062 471.364 146.377 471.049V469.779C146.076 469.632 145.74 469.52 145.369 469.443C145.005 469.359 144.641 469.317 144.277 469.317C143.626 469.317 143.111 469.443 142.733 469.695C142.362 469.94 142.177 470.283 142.177 470.724C142.177 471.137 142.341 471.459 142.67 471.69C142.999 471.921 143.458 472.036 144.046 472.036ZM154.777 474.252C153.923 474.252 153.282 474.017 152.855 473.548C152.428 473.079 152.215 472.379 152.215 471.448V465.568H150.65V463.269H152.215V460.087L154.819 458.838V463.269H157.255V465.568H154.819V470.976C154.819 471.312 154.885 471.56 155.018 471.721C155.158 471.882 155.375 471.963 155.669 471.963C156.187 471.963 156.754 471.802 157.37 471.48L157.066 473.769C156.744 473.93 156.394 474.049 156.016 474.126C155.638 474.21 155.225 474.252 154.777 474.252ZM159.503 474V463.269H162.128V474H159.503ZM160.815 461.925C160.395 461.925 160.031 461.774 159.723 461.473C159.422 461.165 159.272 460.801 159.272 460.381C159.272 459.961 159.422 459.604 159.723 459.31C160.024 459.009 160.388 458.859 160.815 458.859C161.256 458.859 161.624 459.006 161.918 459.3C162.212 459.594 162.359 459.954 162.359 460.381C162.359 460.808 162.208 461.172 161.907 461.473C161.613 461.774 161.249 461.925 160.815 461.925ZM169.755 474.252C168.243 474.252 167.05 473.751 166.175 472.75C165.3 471.749 164.862 470.381 164.862 468.645C164.862 467.497 165.062 466.503 165.461 465.663C165.86 464.816 166.423 464.165 167.151 463.71C167.886 463.248 168.754 463.017 169.755 463.017C170.749 463.017 171.61 463.244 172.338 463.699C173.066 464.154 173.626 464.802 174.018 465.642C174.41 466.482 174.606 467.479 174.606 468.634C174.606 469.796 174.41 470.797 174.018 471.637C173.633 472.477 173.077 473.125 172.349 473.58C171.621 474.028 170.756 474.252 169.755 474.252ZM169.755 471.742C170.462 471.742 171.012 471.469 171.404 470.923C171.796 470.377 171.992 469.614 171.992 468.634C171.992 467.654 171.792 466.891 171.393 466.345C171.001 465.792 170.455 465.516 169.755 465.516C169.048 465.516 168.495 465.792 168.096 466.345C167.697 466.898 167.498 467.665 167.498 468.645C167.498 469.611 167.697 470.37 168.096 470.923C168.495 471.469 169.048 471.742 169.755 471.742ZM177.118 474V463.269H179.743V464.298C180.086 463.871 180.496 463.552 180.972 463.342C181.455 463.125 182.004 463.017 182.62 463.017C183.817 463.017 184.741 463.388 185.392 464.13C186.043 464.865 186.369 465.925 186.369 467.311V474H183.754V468.12C183.754 467.217 183.597 466.559 183.282 466.146C182.974 465.726 182.491 465.516 181.833 465.516C181.119 465.516 180.59 465.726 180.247 466.146C179.911 466.559 179.743 467.203 179.743 468.078V474H177.118ZM192.738 474.252C191.569 474.252 190.641 473.937 189.955 473.307C189.276 472.67 188.937 471.809 188.937 470.724C188.937 470.024 189.112 469.411 189.462 468.886C189.819 468.354 190.312 467.945 190.942 467.658C191.579 467.364 192.321 467.217 193.168 467.217C193.637 467.217 194.089 467.262 194.523 467.353C194.964 467.437 195.349 467.56 195.678 467.721V467.049C195.678 466.447 195.506 465.995 195.163 465.694C194.827 465.386 194.33 465.232 193.672 465.232C193.147 465.232 192.608 465.327 192.055 465.516C191.502 465.705 190.942 465.985 190.375 466.356L189.588 464.287C190.204 463.881 190.89 463.57 191.646 463.353C192.402 463.129 193.165 463.017 193.935 463.017C195.377 463.017 196.455 463.36 197.169 464.046C197.883 464.725 198.24 465.74 198.24 467.091V474H195.678V473.139C195.314 473.503 194.88 473.779 194.376 473.968C193.879 474.158 193.333 474.252 192.738 474.252ZM193.347 472.036C193.781 472.036 194.197 471.952 194.596 471.784C195.002 471.609 195.363 471.364 195.678 471.049V469.779C195.377 469.632 195.041 469.52 194.67 469.443C194.306 469.359 193.942 469.317 193.578 469.317C192.927 469.317 192.412 469.443 192.034 469.695C191.663 469.94 191.478 470.283 191.478 470.724C191.478 471.137 191.642 471.459 191.971 471.69C192.3 471.921 192.759 472.036 193.347 472.036ZM201.361 474V460.024L203.986 458.838V474H201.361ZM215.788 474.252C214.619 474.252 213.692 473.937 213.006 473.307C212.327 472.67 211.987 471.809 211.987 470.724C211.987 470.024 212.162 469.411 212.512 468.886C212.869 468.354 213.363 467.945 213.993 467.658C214.63 467.364 215.372 467.217 216.219 467.217C216.688 467.217 217.139 467.262 217.573 467.353C218.014 467.437 218.399 467.56 218.728 467.721V467.049C218.728 466.447 218.557 465.995 218.214 465.694C217.878 465.386 217.381 465.232 216.723 465.232C216.198 465.232 215.659 465.327 215.106 465.516C214.553 465.705 213.993 465.985 213.426 466.356L212.638 464.287C213.254 463.881 213.94 463.57 214.696 463.353C215.452 463.129 216.215 463.017 216.985 463.017C218.427 463.017 219.505 463.36 220.219 464.046C220.933 464.725 221.29 465.74 221.29 467.091V474H218.728V473.139C218.364 473.503 217.93 473.779 217.426 473.968C216.929 474.158 216.383 474.252 215.788 474.252ZM216.397 472.036C216.831 472.036 217.248 471.952 217.647 471.784C218.053 471.609 218.413 471.364 218.728 471.049V469.779C218.427 469.632 218.091 469.52 217.72 469.443C217.356 469.359 216.992 469.317 216.628 469.317C215.977 469.317 215.463 469.443 215.085 469.695C214.714 469.94 214.528 470.283 214.528 470.724C214.528 471.137 214.693 471.459 215.022 471.69C215.351 471.921 215.809 472.036 216.397 472.036ZM227.971 474.252C226.774 474.252 225.847 473.881 225.189 473.139C224.531 472.39 224.202 471.333 224.202 469.968V463.269H226.827V469.149C226.827 470.052 226.981 470.71 227.289 471.123C227.597 471.536 228.083 471.742 228.748 471.742C229.462 471.742 229.987 471.536 230.323 471.123C230.666 470.703 230.838 470.059 230.838 469.191V463.269H233.452V474H230.838V472.992C230.509 473.412 230.103 473.727 229.62 473.937C229.144 474.147 228.594 474.252 227.971 474.252ZM240.383 474.252C239.004 474.252 237.923 473.755 237.139 472.761C236.355 471.767 235.963 470.388 235.963 468.624C235.963 467.504 236.148 466.524 236.519 465.684C236.89 464.844 237.408 464.189 238.073 463.72C238.745 463.251 239.526 463.017 240.415 463.017C241.367 463.017 242.147 463.367 242.756 464.067V460.024L245.371 458.838V474H242.756V473.118C242.238 473.874 241.447 474.252 240.383 474.252ZM240.814 471.742C241.262 471.742 241.643 471.665 241.958 471.511C242.273 471.35 242.539 471.112 242.756 470.797V466.461C242.539 466.167 242.256 465.936 241.906 465.768C241.563 465.6 241.199 465.516 240.814 465.516C240.107 465.516 239.561 465.785 239.176 466.324C238.791 466.856 238.598 467.623 238.598 468.624C238.598 469.282 238.686 469.845 238.861 470.314C239.036 470.776 239.288 471.13 239.617 471.375C239.946 471.62 240.345 471.742 240.814 471.742ZM248.671 474V463.269H251.296V474H248.671ZM249.983 461.925C249.563 461.925 249.199 461.774 248.891 461.473C248.59 461.165 248.44 460.801 248.44 460.381C248.44 459.961 248.59 459.604 248.891 459.31C249.192 459.009 249.556 458.859 249.983 458.859C250.424 458.859 250.792 459.006 251.086 459.3C251.38 459.594 251.527 459.954 251.527 460.381C251.527 460.808 251.376 461.172 251.075 461.473C250.781 461.774 250.417 461.925 249.983 461.925ZM259.017 474.252C257.988 474.252 257.099 474.021 256.35 473.559C255.608 473.097 255.034 472.446 254.628 471.606C254.229 470.759 254.03 469.765 254.03 468.624C254.03 467.469 254.233 466.471 254.639 465.631C255.052 464.791 255.629 464.147 256.371 463.699C257.12 463.244 258.002 463.017 259.017 463.017C259.885 463.017 260.673 463.199 261.38 463.563C262.087 463.927 262.65 464.487 263.07 465.243C263.49 465.992 263.7 466.947 263.7 468.109C263.7 468.291 263.693 468.515 263.679 468.781C263.672 469.04 263.655 469.303 263.627 469.569H256.623C256.651 470.059 256.763 470.489 256.959 470.86C257.162 471.224 257.439 471.508 257.789 471.711C258.139 471.914 258.552 472.015 259.028 472.015C259.539 472.015 259.983 471.931 260.361 471.763C260.739 471.588 261.096 471.312 261.432 470.934L262.944 472.498C262.482 473.023 261.926 473.447 261.275 473.769C260.624 474.091 259.871 474.252 259.017 474.252ZM256.634 467.521H261.159C261.124 467.052 261.019 466.65 260.844 466.314C260.669 465.971 260.424 465.708 260.109 465.526C259.794 465.344 259.413 465.253 258.965 465.253C258.349 465.253 257.824 465.442 257.39 465.82C256.956 466.198 256.704 466.765 256.634 467.521ZM266.348 474V463.269H268.973V464.298C269.316 463.871 269.725 463.552 270.201 463.342C270.684 463.125 271.234 463.017 271.85 463.017C273.047 463.017 273.971 463.388 274.622 464.13C275.273 464.865 275.598 465.925 275.598 467.311V474H272.984V468.12C272.984 467.217 272.826 466.559 272.511 466.146C272.203 465.726 271.72 465.516 271.062 465.516C270.348 465.516 269.82 465.726 269.477 466.146C269.141 466.559 268.973 467.203 268.973 468.078V474H266.348ZM283.131 474.252C282.144 474.252 281.29 474.024 280.569 473.569C279.848 473.114 279.291 472.47 278.899 471.637C278.507 470.797 278.311 469.8 278.311 468.645C278.311 467.49 278.507 466.492 278.899 465.652C279.298 464.812 279.862 464.165 280.59 463.71C281.318 463.248 282.175 463.017 283.162 463.017C284.275 463.017 285.199 463.276 285.934 463.794C286.676 464.305 287.212 465.064 287.541 466.072L285.052 466.912C284.884 466.464 284.639 466.121 284.317 465.883C283.995 465.638 283.624 465.516 283.204 465.516C282.525 465.516 281.983 465.796 281.577 466.356C281.178 466.916 280.978 467.679 280.978 468.645C280.978 469.597 281.174 470.353 281.566 470.913C281.958 471.473 282.487 471.753 283.152 471.753C283.621 471.753 284.02 471.62 284.349 471.354C284.685 471.088 284.933 470.699 285.094 470.188L287.572 470.934C287.257 472.033 286.722 472.862 285.966 473.422C285.217 473.975 284.272 474.252 283.131 474.252ZM294.619 474.252C293.59 474.252 292.701 474.021 291.952 473.559C291.21 473.097 290.636 472.446 290.23 471.606C289.831 470.759 289.632 469.765 289.632 468.624C289.632 467.469 289.835 466.471 290.241 465.631C290.654 464.791 291.231 464.147 291.973 463.699C292.722 463.244 293.604 463.017 294.619 463.017C295.487 463.017 296.275 463.199 296.982 463.563C297.689 463.927 298.252 464.487 298.672 465.243C299.092 465.992 299.302 466.947 299.302 468.109C299.302 468.291 299.295 468.515 299.281 468.781C299.274 469.04 299.257 469.303 299.229 469.569H292.225C292.253 470.059 292.365 470.489 292.561 470.86C292.764 471.224 293.041 471.508 293.391 471.711C293.741 471.914 294.154 472.015 294.63 472.015C295.141 472.015 295.585 471.931 295.963 471.763C296.341 471.588 296.698 471.312 297.034 470.934L298.546 472.498C298.084 473.023 297.528 473.447 296.877 473.769C296.226 474.091 295.473 474.252 294.619 474.252ZM292.236 467.521H296.761C296.726 467.052 296.621 466.65 296.446 466.314C296.271 465.971 296.026 465.708 295.711 465.526C295.396 465.344 295.015 465.253 294.567 465.253C293.951 465.253 293.426 465.442 292.992 465.82C292.558 466.198 292.306 466.765 292.236 467.521Z" fill="white"/>
</svg>
