<svg width="1240" height="120" viewBox="0 0 1240 120" fill="none" xmlns="http://www.w3.org/2000/svg">
<path d="M39.6495 51.288C38.2415 51.288 37.0375 51.028 36.0375 50.508C35.0455 49.98 34.2855 49.216 33.7575 48.216C33.2375 47.216 32.9775 46.008 32.9775 44.592V34.2H36.0855V44.592C36.0855 45.864 36.3695 46.8 36.9375 47.4C37.5055 48 38.4095 48.3 39.6495 48.3C40.4335 48.3 41.0895 48.176 41.6175 47.928C42.1455 47.68 42.5415 47.284 42.8055 46.74C43.0695 46.188 43.2015 45.472 43.2015 44.592V34.2H46.3215V44.592C46.3215 45.776 46.1455 46.792 45.7935 47.64C45.4495 48.488 44.9695 49.184 44.3535 49.728C43.7455 50.264 43.0375 50.66 42.2295 50.916C41.4215 51.164 40.5615 51.288 39.6495 51.288ZM50.0634 55.872V38.736H53.0634V39.636C53.7354 38.844 54.6354 38.448 55.7634 38.448C56.8114 38.448 57.7154 38.708 58.4754 39.228C59.2354 39.74 59.8194 40.476 60.2274 41.436C60.6354 42.396 60.8394 43.54 60.8394 44.868C60.8394 46.156 60.6274 47.284 60.2034 48.252C59.7794 49.212 59.1834 49.96 58.4154 50.496C57.6474 51.024 56.7514 51.288 55.7274 51.288C55.1674 51.288 54.6634 51.188 54.2154 50.988C53.7674 50.78 53.3834 50.476 53.0634 50.076V54.516L50.0634 55.872ZM55.2834 48.42C56.0994 48.42 56.7274 48.112 57.1674 47.496C57.6074 46.872 57.8274 45.996 57.8274 44.868C57.8274 43.74 57.6034 42.864 57.1554 42.24C56.7074 41.616 56.0834 41.304 55.2834 41.304C54.7954 41.304 54.3674 41.392 53.9994 41.568C53.6394 41.744 53.3274 42.012 53.0634 42.372V47.328C53.2794 47.672 53.5834 47.94 53.9754 48.132C54.3754 48.324 54.8114 48.42 55.2834 48.42ZM64.0584 51V35.028L67.0584 33.672V51H64.0584ZM75.8668 51.288C74.1388 51.288 72.7748 50.716 71.7748 49.572C70.7748 48.428 70.2748 46.864 70.2748 44.88C70.2748 43.568 70.5028 42.432 70.9588 41.472C71.4148 40.504 72.0588 39.76 72.8908 39.24C73.7308 38.712 74.7228 38.448 75.8668 38.448C77.0028 38.448 77.9868 38.708 78.8188 39.228C79.6508 39.748 80.2908 40.488 80.7388 41.448C81.1868 42.408 81.4108 43.548 81.4108 44.868C81.4108 46.196 81.1868 47.34 80.7388 48.3C80.2988 49.26 79.6628 50 78.8308 50.52C77.9988 51.032 77.0108 51.288 75.8668 51.288ZM75.8668 48.42C76.6748 48.42 77.3028 48.108 77.7508 47.484C78.1988 46.86 78.4228 45.988 78.4228 44.868C78.4228 43.748 78.1948 42.876 77.7388 42.252C77.2908 41.62 76.6668 41.304 75.8668 41.304C75.0588 41.304 74.4268 41.62 73.9708 42.252C73.5148 42.884 73.2868 43.76 73.2868 44.88C73.2868 45.984 73.5148 46.852 73.9708 47.484C74.4268 48.108 75.0588 48.42 75.8668 48.42ZM88.2343 51.288C86.8983 51.288 85.8383 50.928 85.0543 50.208C84.2783 49.48 83.8903 48.496 83.8903 47.256C83.8903 46.456 84.0903 45.756 84.4903 45.156C84.8983 44.548 85.4623 44.08 86.1823 43.752C86.9103 43.416 87.7583 43.248 88.7263 43.248C89.2623 43.248 89.7783 43.3 90.2743 43.404C90.7783 43.5 91.2183 43.64 91.5943 43.824V43.056C91.5943 42.368 91.3983 41.852 91.0063 41.508C90.6223 41.156 90.0543 40.98 89.3023 40.98C88.7023 40.98 88.0863 41.088 87.4543 41.304C86.8223 41.52 86.1823 41.84 85.5343 42.264L84.6343 39.9C85.3383 39.436 86.1223 39.08 86.9863 38.832C87.8503 38.576 88.7223 38.448 89.6023 38.448C91.2503 38.448 92.4823 38.84 93.2983 39.624C94.1143 40.4 94.5223 41.56 94.5223 43.104V51H91.5943V50.016C91.1783 50.432 90.6823 50.748 90.1063 50.964C89.5383 51.18 88.9143 51.288 88.2343 51.288ZM88.9303 48.756C89.4263 48.756 89.9023 48.66 90.3583 48.468C90.8223 48.268 91.2343 47.988 91.5943 47.628V46.176C91.2503 46.008 90.8663 45.88 90.4423 45.792C90.0263 45.696 89.6103 45.648 89.1943 45.648C88.4503 45.648 87.8623 45.792 87.4303 46.08C87.0063 46.36 86.7943 46.752 86.7943 47.256C86.7943 47.728 86.9823 48.096 87.3583 48.36C87.7343 48.624 88.2583 48.756 88.9303 48.756ZM102.491 51.288C100.915 51.288 99.6788 50.72 98.7828 49.584C97.8868 48.448 97.4388 46.872 97.4388 44.856C97.4388 43.576 97.6508 42.456 98.0748 41.496C98.4988 40.536 99.0908 39.788 99.8508 39.252C100.619 38.716 101.511 38.448 102.527 38.448C103.615 38.448 104.507 38.848 105.203 39.648V35.028L108.191 33.672V51H105.203V49.992C104.611 50.856 103.707 51.288 102.491 51.288ZM102.983 48.42C103.495 48.42 103.931 48.332 104.291 48.156C104.651 47.972 104.955 47.7 105.203 47.34V42.384C104.955 42.048 104.631 41.784 104.231 41.592C103.839 41.4 103.423 41.304 102.983 41.304C102.175 41.304 101.551 41.612 101.111 42.228C100.671 42.836 100.451 43.712 100.451 44.856C100.451 45.608 100.551 46.252 100.751 46.788C100.951 47.316 101.239 47.72 101.615 48C101.991 48.28 102.447 48.42 102.983 48.42ZM121.562 51.288C120.226 51.288 119.166 50.928 118.382 50.208C117.606 49.48 117.218 48.496 117.218 47.256C117.218 46.456 117.418 45.756 117.818 45.156C118.226 44.548 118.79 44.08 119.51 43.752C120.238 43.416 121.086 43.248 122.054 43.248C122.59 43.248 123.106 43.3 123.602 43.404C124.106 43.5 124.546 43.64 124.922 43.824V43.056C124.922 42.368 124.726 41.852 124.334 41.508C123.95 41.156 123.382 40.98 122.63 40.98C122.03 40.98 121.414 41.088 120.782 41.304C120.15 41.52 119.51 41.84 118.862 42.264L117.962 39.9C118.666 39.436 119.45 39.08 120.314 38.832C121.178 38.576 122.05 38.448 122.93 38.448C124.578 38.448 125.81 38.84 126.626 39.624C127.442 40.4 127.85 41.56 127.85 43.104V51H124.922V50.016C124.506 50.432 124.01 50.748 123.434 50.964C122.866 51.18 122.242 51.288 121.562 51.288ZM122.258 48.756C122.754 48.756 123.23 48.66 123.686 48.468C124.15 48.268 124.562 47.988 124.922 47.628V46.176C124.578 46.008 124.194 45.88 123.77 45.792C123.354 45.696 122.938 45.648 122.522 45.648C121.778 45.648 121.19 45.792 120.758 46.08C120.334 46.36 120.122 46.752 120.122 47.256C120.122 47.728 120.31 48.096 120.686 48.36C121.062 48.624 121.586 48.756 122.258 48.756ZM131.438 51V38.736H134.438V39.912C134.83 39.424 135.298 39.06 135.842 38.82C136.394 38.572 137.022 38.448 137.726 38.448C139.094 38.448 140.15 38.872 140.894 39.72C141.638 40.56 142.01 41.772 142.01 43.356V51H139.022V44.28C139.022 43.248 138.842 42.496 138.482 42.024C138.13 41.544 137.578 41.304 136.826 41.304C136.01 41.304 135.406 41.544 135.014 42.024C134.63 42.496 134.438 43.232 134.438 44.232V51H131.438ZM150.163 51.288C148.587 51.288 147.351 50.72 146.455 49.584C145.559 48.448 145.111 46.872 145.111 44.856C145.111 43.576 145.323 42.456 145.747 41.496C146.171 40.536 146.763 39.788 147.523 39.252C148.291 38.716 149.183 38.448 150.199 38.448C151.287 38.448 152.179 38.848 152.875 39.648V35.028L155.863 33.672V51H152.875V49.992C152.283 50.856 151.379 51.288 150.163 51.288ZM150.655 48.42C151.167 48.42 151.603 48.332 151.963 48.156C152.323 47.972 152.627 47.7 152.875 47.34V42.384C152.627 42.048 152.303 41.784 151.903 41.592C151.511 41.4 151.095 41.304 150.655 41.304C149.847 41.304 149.223 41.612 148.783 42.228C148.343 42.836 148.123 43.712 148.123 44.856C148.123 45.608 148.223 46.252 148.423 46.788C148.623 47.316 148.911 47.72 149.287 48C149.663 48.28 150.119 48.42 150.655 48.42ZM169.618 51.288C168.658 51.288 167.738 51.084 166.858 50.676C165.986 50.268 165.294 49.72 164.782 49.032L166.75 47.376C167.158 47.808 167.63 48.152 168.166 48.408C168.702 48.656 169.214 48.78 169.702 48.78C170.31 48.78 170.778 48.68 171.106 48.48C171.434 48.272 171.598 47.984 171.598 47.616C171.598 47.376 171.518 47.164 171.358 46.98C171.206 46.788 170.934 46.596 170.542 46.404C170.15 46.204 169.598 45.976 168.886 45.72C167.51 45.216 166.534 44.672 165.958 44.088C165.382 43.496 165.094 42.748 165.094 41.844C165.094 40.836 165.502 40.02 166.318 39.396C167.134 38.764 168.198 38.448 169.51 38.448C170.406 38.448 171.23 38.616 171.982 38.952C172.742 39.288 173.394 39.78 173.938 40.428L171.982 42.048C171.262 41.32 170.422 40.956 169.462 40.956C168.974 40.956 168.582 41.048 168.286 41.232C167.99 41.408 167.842 41.648 167.842 41.952C167.842 42.248 168.014 42.512 168.358 42.744C168.71 42.976 169.362 43.248 170.314 43.56C171.258 43.856 172.022 44.192 172.606 44.568C173.198 44.944 173.63 45.38 173.902 45.876C174.182 46.372 174.322 46.944 174.322 47.592C174.322 48.744 173.902 49.648 173.062 50.304C172.23 50.96 171.082 51.288 169.618 51.288ZM182.264 51.288C181.088 51.288 180.072 51.024 179.216 50.496C178.368 49.968 177.712 49.224 177.248 48.264C176.792 47.296 176.564 46.16 176.564 44.856C176.564 43.536 176.796 42.396 177.26 41.436C177.732 40.476 178.392 39.74 179.24 39.228C180.096 38.708 181.104 38.448 182.264 38.448C183.256 38.448 184.156 38.656 184.964 39.072C185.772 39.488 186.416 40.128 186.896 40.992C187.376 41.848 187.616 42.94 187.616 44.268C187.616 44.476 187.608 44.732 187.592 45.036C187.584 45.332 187.564 45.632 187.532 45.936H179.528C179.56 46.496 179.688 46.988 179.912 47.412C180.144 47.828 180.46 48.152 180.86 48.384C181.26 48.616 181.732 48.732 182.276 48.732C182.86 48.732 183.368 48.636 183.8 48.444C184.232 48.244 184.64 47.928 185.024 47.496L186.752 49.284C186.224 49.884 185.588 50.368 184.844 50.736C184.1 51.104 183.24 51.288 182.264 51.288ZM179.54 43.596H184.712C184.672 43.06 184.552 42.6 184.352 42.216C184.152 41.824 183.872 41.524 183.512 41.316C183.152 41.108 182.716 41.004 182.204 41.004C181.5 41.004 180.9 41.22 180.404 41.652C179.908 42.084 179.62 42.732 179.54 43.596ZM190.691 51V35.028L193.691 33.672V51H190.691ZM202.608 51.288C201.432 51.288 200.416 51.024 199.56 50.496C198.712 49.968 198.056 49.224 197.592 48.264C197.136 47.296 196.908 46.16 196.908 44.856C196.908 43.536 197.14 42.396 197.604 41.436C198.076 40.476 198.736 39.74 199.584 39.228C200.44 38.708 201.448 38.448 202.608 38.448C203.6 38.448 204.5 38.656 205.308 39.072C206.116 39.488 206.76 40.128 207.24 40.992C207.72 41.848 207.96 42.94 207.96 44.268C207.96 44.476 207.952 44.732 207.936 45.036C207.928 45.332 207.908 45.632 207.876 45.936H199.872C199.904 46.496 200.032 46.988 200.256 47.412C200.488 47.828 200.804 48.152 201.204 48.384C201.604 48.616 202.076 48.732 202.62 48.732C203.204 48.732 203.712 48.636 204.144 48.444C204.576 48.244 204.984 47.928 205.368 47.496L207.096 49.284C206.568 49.884 205.932 50.368 205.188 50.736C204.444 51.104 203.584 51.288 202.608 51.288ZM199.884 43.596H205.056C205.016 43.06 204.896 42.6 204.696 42.216C204.496 41.824 204.216 41.524 203.856 41.316C203.496 41.108 203.06 41.004 202.548 41.004C201.844 41.004 201.244 41.22 200.748 41.652C200.252 42.084 199.964 42.732 199.884 43.596ZM216.197 51.288C215.069 51.288 214.093 51.028 213.269 50.508C212.445 49.988 211.809 49.252 211.361 48.3C210.913 47.34 210.689 46.2 210.689 44.88C210.689 43.56 210.913 42.42 211.361 41.46C211.817 40.5 212.461 39.76 213.293 39.24C214.125 38.712 215.105 38.448 216.233 38.448C217.505 38.448 218.561 38.744 219.401 39.336C220.249 39.92 220.861 40.788 221.237 41.94L218.393 42.9C218.201 42.388 217.921 41.996 217.553 41.724C217.185 41.444 216.761 41.304 216.281 41.304C215.505 41.304 214.885 41.624 214.421 42.264C213.965 42.904 213.737 43.776 213.737 44.88C213.737 45.968 213.961 46.832 214.409 47.472C214.857 48.112 215.461 48.432 216.221 48.432C216.757 48.432 217.213 48.28 217.589 47.976C217.973 47.672 218.257 47.228 218.441 46.644L221.273 47.496C220.913 48.752 220.301 49.7 219.437 50.34C218.581 50.972 217.501 51.288 216.197 51.288ZM227.78 51.288C226.804 51.288 226.072 51.02 225.584 50.484C225.096 49.948 224.852 49.148 224.852 48.084V41.364H223.064V38.736H224.852V35.1L227.828 33.672V38.736H230.612V41.364H227.828V47.544C227.828 47.928 227.904 48.212 228.056 48.396C228.216 48.58 228.464 48.672 228.8 48.672C229.392 48.672 230.04 48.488 230.744 48.12L230.396 50.736C230.028 50.92 229.628 51.056 229.196 51.144C228.764 51.24 228.292 51.288 227.78 51.288ZM241.162 55.656L243.022 50.784L238.426 38.736H241.51L244.186 45.912C244.258 46.08 244.326 46.264 244.39 46.464C244.454 46.664 244.514 46.864 244.57 47.064C244.618 46.864 244.674 46.668 244.738 46.476C244.81 46.276 244.882 46.088 244.954 45.912L247.63 38.736H250.714L244.258 55.656H241.162ZM257.906 51.288C256.178 51.288 254.814 50.716 253.814 49.572C252.814 48.428 252.314 46.864 252.314 44.88C252.314 43.568 252.542 42.432 252.998 41.472C253.454 40.504 254.098 39.76 254.93 39.24C255.77 38.712 256.762 38.448 257.906 38.448C259.042 38.448 260.026 38.708 260.858 39.228C261.69 39.748 262.33 40.488 262.778 41.448C263.226 42.408 263.45 43.548 263.45 44.868C263.45 46.196 263.226 47.34 262.778 48.3C262.338 49.26 261.702 50 260.87 50.52C260.038 51.032 259.05 51.288 257.906 51.288ZM257.906 48.42C258.714 48.42 259.342 48.108 259.79 47.484C260.238 46.86 260.462 45.988 260.462 44.868C260.462 43.748 260.234 42.876 259.778 42.252C259.33 41.62 258.706 41.304 257.906 41.304C257.098 41.304 256.466 41.62 256.01 42.252C255.554 42.884 255.326 43.76 255.326 44.88C255.326 45.984 255.554 46.852 256.01 47.484C256.466 48.108 257.098 48.42 257.906 48.42ZM270.744 51.288C269.376 51.288 268.316 50.864 267.564 50.016C266.812 49.16 266.436 47.952 266.436 46.392V38.736H269.436V45.456C269.436 46.488 269.612 47.24 269.964 47.712C270.316 48.184 270.872 48.42 271.632 48.42C272.448 48.42 273.048 48.184 273.432 47.712C273.824 47.232 274.02 46.496 274.02 45.504V38.736H277.008V51H274.02V49.848C273.644 50.328 273.18 50.688 272.628 50.928C272.084 51.168 271.456 51.288 270.744 51.288ZM280.782 51V38.736H283.782V40.056C284.006 39.584 284.358 39.2 284.838 38.904C285.318 38.6 285.822 38.448 286.35 38.448C287.222 38.448 287.958 38.748 288.558 39.348L288.138 42.096C287.81 41.824 287.49 41.632 287.178 41.52C286.866 41.408 286.522 41.352 286.146 41.352C285.65 41.352 285.226 41.468 284.874 41.7C284.522 41.932 284.25 42.268 284.058 42.708C283.874 43.148 283.782 43.676 283.782 44.292V51H280.782ZM88.3788 81L83.8908 68.736H86.9988L89.5668 76.032C89.6388 76.208 89.7028 76.396 89.7588 76.596C89.8148 76.796 89.8708 76.996 89.9268 77.196C89.9828 76.996 90.0388 76.796 90.0948 76.596C90.1588 76.396 90.2188 76.208 90.2747 76.032L92.8308 68.736H95.9268L91.4388 81H88.3788ZM98.4976 81V68.736H101.498V81H98.4976ZM99.9976 67.2C99.5176 67.2 99.1016 67.028 98.7496 66.684C98.4056 66.332 98.2336 65.916 98.2336 65.436C98.2336 64.956 98.4056 64.548 98.7496 64.212C99.0936 63.868 99.5096 63.696 99.9976 63.696C100.502 63.696 100.922 63.864 101.258 64.2C101.594 64.536 101.762 64.948 101.762 65.436C101.762 65.924 101.59 66.34 101.246 66.684C100.91 67.028 100.494 67.2 99.9976 67.2ZM109.674 81.288C108.098 81.288 106.862 80.72 105.966 79.584C105.07 78.448 104.622 76.872 104.622 74.856C104.622 73.576 104.834 72.456 105.258 71.496C105.682 70.536 106.274 69.788 107.034 69.252C107.802 68.716 108.694 68.448 109.71 68.448C110.798 68.448 111.69 68.848 112.386 69.648V65.028L115.374 63.672V81H112.386V79.992C111.794 80.856 110.89 81.288 109.674 81.288ZM110.166 78.42C110.678 78.42 111.114 78.332 111.474 78.156C111.834 77.972 112.138 77.7 112.386 77.34V72.384C112.138 72.048 111.814 71.784 111.414 71.592C111.022 71.4 110.606 71.304 110.166 71.304C109.358 71.304 108.734 71.612 108.294 72.228C107.854 72.836 107.634 73.712 107.634 74.856C107.634 75.608 107.734 76.252 107.934 76.788C108.134 77.316 108.422 77.72 108.798 78C109.174 78.28 109.63 78.42 110.166 78.42ZM124.174 81.288C122.998 81.288 121.982 81.024 121.126 80.496C120.278 79.968 119.622 79.224 119.158 78.264C118.702 77.296 118.474 76.16 118.474 74.856C118.474 73.536 118.706 72.396 119.17 71.436C119.642 70.476 120.302 69.74 121.15 69.228C122.006 68.708 123.014 68.448 124.174 68.448C125.166 68.448 126.066 68.656 126.874 69.072C127.682 69.488 128.326 70.128 128.806 70.992C129.286 71.848 129.526 72.94 129.526 74.268C129.526 74.476 129.518 74.732 129.502 75.036C129.494 75.332 129.474 75.632 129.442 75.936H121.438C121.47 76.496 121.598 76.988 121.822 77.412C122.054 77.828 122.37 78.152 122.77 78.384C123.17 78.616 123.642 78.732 124.186 78.732C124.77 78.732 125.278 78.636 125.71 78.444C126.142 78.244 126.55 77.928 126.934 77.496L128.662 79.284C128.134 79.884 127.498 80.368 126.754 80.736C126.01 81.104 125.15 81.288 124.174 81.288ZM121.45 73.596H126.622C126.582 73.06 126.462 72.6 126.262 72.216C126.062 71.824 125.782 71.524 125.422 71.316C125.062 71.108 124.626 71.004 124.114 71.004C123.41 71.004 122.81 71.22 122.314 71.652C121.818 72.084 121.53 72.732 121.45 73.596ZM137.847 81.288C136.119 81.288 134.755 80.716 133.755 79.572C132.755 78.428 132.255 76.864 132.255 74.88C132.255 73.568 132.483 72.432 132.939 71.472C133.395 70.504 134.039 69.76 134.871 69.24C135.711 68.712 136.703 68.448 137.847 68.448C138.983 68.448 139.967 68.708 140.799 69.228C141.631 69.748 142.271 70.488 142.719 71.448C143.167 72.408 143.391 73.548 143.391 74.868C143.391 76.196 143.167 77.34 142.719 78.3C142.279 79.26 141.643 80 140.811 80.52C139.979 81.032 138.991 81.288 137.847 81.288ZM137.847 78.42C138.655 78.42 139.283 78.108 139.731 77.484C140.179 76.86 140.403 75.988 140.403 74.868C140.403 73.748 140.175 72.876 139.719 72.252C139.271 71.62 138.647 71.304 137.847 71.304C137.039 71.304 136.407 71.62 135.951 72.252C135.495 72.884 135.267 73.76 135.267 74.88C135.267 75.984 135.495 76.852 135.951 77.484C136.407 78.108 137.039 78.42 137.847 78.42ZM157.357 81.288C156.229 81.288 155.253 81.028 154.429 80.508C153.605 79.988 152.969 79.252 152.521 78.3C152.073 77.34 151.849 76.2 151.849 74.88C151.849 73.56 152.073 72.42 152.521 71.46C152.977 70.5 153.621 69.76 154.453 69.24C155.285 68.712 156.265 68.448 157.393 68.448C158.665 68.448 159.721 68.744 160.561 69.336C161.409 69.92 162.021 70.788 162.397 71.94L159.553 72.9C159.361 72.388 159.081 71.996 158.713 71.724C158.345 71.444 157.921 71.304 157.441 71.304C156.665 71.304 156.045 71.624 155.581 72.264C155.125 72.904 154.897 73.776 154.897 74.88C154.897 75.968 155.121 76.832 155.569 77.472C156.017 78.112 156.621 78.432 157.381 78.432C157.917 78.432 158.373 78.28 158.749 77.976C159.133 77.672 159.417 77.228 159.601 76.644L162.433 77.496C162.073 78.752 161.461 79.7 160.597 80.34C159.741 80.972 158.661 81.288 157.357 81.288ZM170.379 81.288C168.651 81.288 167.287 80.716 166.287 79.572C165.287 78.428 164.787 76.864 164.787 74.88C164.787 73.568 165.015 72.432 165.471 71.472C165.927 70.504 166.571 69.76 167.403 69.24C168.243 68.712 169.235 68.448 170.379 68.448C171.515 68.448 172.499 68.708 173.331 69.228C174.163 69.748 174.803 70.488 175.251 71.448C175.699 72.408 175.923 73.548 175.923 74.868C175.923 76.196 175.699 77.34 175.251 78.3C174.811 79.26 174.175 80 173.343 80.52C172.511 81.032 171.523 81.288 170.379 81.288ZM170.379 78.42C171.187 78.42 171.815 78.108 172.263 77.484C172.711 76.86 172.935 75.988 172.935 74.868C172.935 73.748 172.707 72.876 172.251 72.252C171.803 71.62 171.179 71.304 170.379 71.304C169.571 71.304 168.939 71.62 168.483 72.252C168.027 72.884 167.799 73.76 167.799 74.88C167.799 75.984 168.027 76.852 168.483 77.484C168.939 78.108 169.571 78.42 170.379 78.42ZM178.794 81V68.736H181.794V69.912C182.186 69.424 182.654 69.06 183.198 68.82C183.75 68.572 184.378 68.448 185.082 68.448C186.45 68.448 187.506 68.872 188.25 69.72C188.994 70.56 189.366 71.772 189.366 73.356V81H186.378V74.28C186.378 73.248 186.198 72.496 185.838 72.024C185.486 71.544 184.934 71.304 184.182 71.304C183.366 71.304 182.762 71.544 182.37 72.024C181.986 72.496 181.794 73.232 181.794 74.232V81H178.794ZM196.221 81.288C195.245 81.288 194.513 81.02 194.025 80.484C193.537 79.948 193.293 79.148 193.293 78.084V71.364H191.505V68.736H193.293V65.1L196.269 63.672V68.736H199.053V71.364H196.269V77.544C196.269 77.928 196.345 78.212 196.497 78.396C196.657 78.58 196.905 78.672 197.241 78.672C197.833 78.672 198.481 78.488 199.185 78.12L198.837 80.736C198.469 80.92 198.069 81.056 197.637 81.144C197.205 81.24 196.733 81.288 196.221 81.288ZM207.002 81.288C205.826 81.288 204.81 81.024 203.954 80.496C203.106 79.968 202.45 79.224 201.986 78.264C201.53 77.296 201.302 76.16 201.302 74.856C201.302 73.536 201.534 72.396 201.998 71.436C202.47 70.476 203.13 69.74 203.978 69.228C204.834 68.708 205.842 68.448 207.002 68.448C207.994 68.448 208.894 68.656 209.702 69.072C210.51 69.488 211.154 70.128 211.634 70.992C212.114 71.848 212.354 72.94 212.354 74.268C212.354 74.476 212.346 74.732 212.33 75.036C212.322 75.332 212.302 75.632 212.27 75.936H204.266C204.298 76.496 204.426 76.988 204.65 77.412C204.882 77.828 205.198 78.152 205.598 78.384C205.998 78.616 206.47 78.732 207.014 78.732C207.598 78.732 208.106 78.636 208.538 78.444C208.97 78.244 209.378 77.928 209.762 77.496L211.49 79.284C210.962 79.884 210.326 80.368 209.582 80.736C208.838 81.104 207.978 81.288 207.002 81.288ZM204.278 73.596H209.45C209.41 73.06 209.29 72.6 209.09 72.216C208.89 71.824 208.61 71.524 208.25 71.316C207.89 71.108 207.454 71.004 206.942 71.004C206.238 71.004 205.638 71.22 205.142 71.652C204.646 72.084 204.358 72.732 204.278 73.596ZM215.38 81V68.736H218.38V69.912C218.772 69.424 219.24 69.06 219.784 68.82C220.336 68.572 220.964 68.448 221.668 68.448C223.036 68.448 224.092 68.872 224.836 69.72C225.58 70.56 225.952 71.772 225.952 73.356V81H222.964V74.28C222.964 73.248 222.784 72.496 222.424 72.024C222.072 71.544 221.52 71.304 220.768 71.304C219.952 71.304 219.348 71.544 218.956 72.024C218.572 72.496 218.38 73.232 218.38 74.232V81H215.38ZM232.807 81.288C231.831 81.288 231.099 81.02 230.611 80.484C230.123 79.948 229.879 79.148 229.879 78.084V71.364H228.091V68.736H229.879V65.1L232.855 63.672V68.736H235.639V71.364H232.855V77.544C232.855 77.928 232.931 78.212 233.083 78.396C233.243 78.58 233.491 78.672 233.827 78.672C234.419 78.672 235.067 78.488 235.771 78.12L235.423 80.736C235.055 80.92 234.655 81.056 234.223 81.144C233.791 81.24 233.319 81.288 232.807 81.288Z" fill="white"/>
<path d="M420 64.4402C420 64.9925 420.676 65.383 421.155 65.1068L428.845 60.6667C429.324 60.3905 429.324 59.6095 428.845 59.3333L421.155 54.8932C420.676 54.617 420 55.0075 420 55.5598V64.4402ZM350 61H421V59H350V61Z" fill="#FC00FF"/>
<path d="M470.965 51V37.188H466.201V34.2H478.861V37.188H474.073V51H470.965ZM480.04 51V38.736H483.04V40.056C483.264 39.584 483.616 39.2 484.096 38.904C484.576 38.6 485.08 38.448 485.608 38.448C486.48 38.448 487.216 38.748 487.816 39.348L487.396 42.096C487.068 41.824 486.748 41.632 486.436 41.52C486.124 41.408 485.78 41.352 485.404 41.352C484.908 41.352 484.484 41.468 484.132 41.7C483.78 41.932 483.508 42.268 483.316 42.708C483.132 43.148 483.04 43.676 483.04 44.292V51H480.04ZM493.391 51.288C492.055 51.288 490.995 50.928 490.211 50.208C489.435 49.48 489.047 48.496 489.047 47.256C489.047 46.456 489.247 45.756 489.647 45.156C490.055 44.548 490.619 44.08 491.339 43.752C492.067 43.416 492.915 43.248 493.883 43.248C494.419 43.248 494.935 43.3 495.431 43.404C495.935 43.5 496.375 43.64 496.751 43.824V43.056C496.751 42.368 496.555 41.852 496.163 41.508C495.779 41.156 495.211 40.98 494.459 40.98C493.859 40.98 493.243 41.088 492.611 41.304C491.979 41.52 491.339 41.84 490.691 42.264L489.791 39.9C490.495 39.436 491.279 39.08 492.143 38.832C493.007 38.576 493.879 38.448 494.759 38.448C496.407 38.448 497.639 38.84 498.455 39.624C499.271 40.4 499.679 41.56 499.679 43.104V51H496.751V50.016C496.335 50.432 495.839 50.748 495.263 50.964C494.695 51.18 494.071 51.288 493.391 51.288ZM494.087 48.756C494.583 48.756 495.059 48.66 495.515 48.468C495.979 48.268 496.391 47.988 496.751 47.628V46.176C496.407 46.008 496.023 45.88 495.599 45.792C495.183 45.696 494.767 45.648 494.351 45.648C493.607 45.648 493.019 45.792 492.587 46.08C492.163 46.36 491.951 46.752 491.951 47.256C491.951 47.728 492.139 48.096 492.515 48.36C492.891 48.624 493.415 48.756 494.087 48.756ZM503.267 51V38.736H506.267V39.912C506.659 39.424 507.127 39.06 507.671 38.82C508.223 38.572 508.851 38.448 509.555 38.448C510.923 38.448 511.979 38.872 512.723 39.72C513.467 40.56 513.839 41.772 513.839 43.356V51H510.851V44.28C510.851 43.248 510.671 42.496 510.311 42.024C509.959 41.544 509.407 41.304 508.655 41.304C507.839 41.304 507.235 41.544 506.843 42.024C506.459 42.496 506.267 43.232 506.267 44.232V51H503.267ZM521.478 51.288C520.518 51.288 519.598 51.084 518.718 50.676C517.846 50.268 517.154 49.72 516.642 49.032L518.61 47.376C519.018 47.808 519.49 48.152 520.026 48.408C520.562 48.656 521.074 48.78 521.562 48.78C522.17 48.78 522.638 48.68 522.966 48.48C523.294 48.272 523.458 47.984 523.458 47.616C523.458 47.376 523.378 47.164 523.218 46.98C523.066 46.788 522.794 46.596 522.402 46.404C522.01 46.204 521.458 45.976 520.746 45.72C519.37 45.216 518.394 44.672 517.818 44.088C517.242 43.496 516.954 42.748 516.954 41.844C516.954 40.836 517.362 40.02 518.178 39.396C518.994 38.764 520.058 38.448 521.37 38.448C522.266 38.448 523.09 38.616 523.842 38.952C524.602 39.288 525.254 39.78 525.798 40.428L523.842 42.048C523.122 41.32 522.282 40.956 521.322 40.956C520.834 40.956 520.442 41.048 520.146 41.232C519.85 41.408 519.702 41.648 519.702 41.952C519.702 42.248 519.874 42.512 520.218 42.744C520.57 42.976 521.222 43.248 522.174 43.56C523.118 43.856 523.882 44.192 524.466 44.568C525.058 44.944 525.49 45.38 525.762 45.876C526.042 46.372 526.182 46.944 526.182 47.592C526.182 48.744 525.762 49.648 524.922 50.304C524.09 50.96 522.942 51.288 521.478 51.288ZM529.402 51V35.028L532.402 33.672V51H529.402ZM539.891 51.288C538.555 51.288 537.495 50.928 536.711 50.208C535.935 49.48 535.547 48.496 535.547 47.256C535.547 46.456 535.747 45.756 536.147 45.156C536.555 44.548 537.119 44.08 537.839 43.752C538.567 43.416 539.415 43.248 540.383 43.248C540.919 43.248 541.435 43.3 541.931 43.404C542.435 43.5 542.875 43.64 543.251 43.824V43.056C543.251 42.368 543.055 41.852 542.663 41.508C542.279 41.156 541.711 40.98 540.959 40.98C540.359 40.98 539.743 41.088 539.111 41.304C538.479 41.52 537.839 41.84 537.191 42.264L536.291 39.9C536.995 39.436 537.779 39.08 538.643 38.832C539.507 38.576 540.379 38.448 541.259 38.448C542.907 38.448 544.139 38.84 544.955 39.624C545.771 40.4 546.179 41.56 546.179 43.104V51H543.251V50.016C542.835 50.432 542.339 50.748 541.763 50.964C541.195 51.18 540.571 51.288 539.891 51.288ZM540.587 48.756C541.083 48.756 541.559 48.66 542.015 48.468C542.479 48.268 542.891 47.988 543.251 47.628V46.176C542.907 46.008 542.523 45.88 542.099 45.792C541.683 45.696 541.267 45.648 540.851 45.648C540.107 45.648 539.519 45.792 539.087 46.08C538.663 46.36 538.451 46.752 538.451 47.256C538.451 47.728 538.639 48.096 539.015 48.36C539.391 48.624 539.915 48.756 540.587 48.756ZM552.85 51.288C551.874 51.288 551.142 51.02 550.654 50.484C550.166 49.948 549.922 49.148 549.922 48.084V41.364H548.134V38.736H549.922V35.1L552.898 33.672V38.736H555.682V41.364H552.898V47.544C552.898 47.928 552.974 48.212 553.126 48.396C553.286 48.58 553.534 48.672 553.87 48.672C554.462 48.672 555.11 48.488 555.814 48.12L555.466 50.736C555.098 50.92 554.698 51.056 554.266 51.144C553.834 51.24 553.362 51.288 552.85 51.288ZM558.251 51V38.736H561.251V51H558.251ZM559.751 37.2C559.271 37.2 558.855 37.028 558.503 36.684C558.159 36.332 557.987 35.916 557.987 35.436C557.987 34.956 558.159 34.548 558.503 34.212C558.847 33.868 559.263 33.696 559.751 33.696C560.255 33.696 560.675 33.864 561.011 34.2C561.347 34.536 561.515 34.948 561.515 35.436C561.515 35.924 561.343 36.34 560.999 36.684C560.663 37.028 560.247 37.2 559.751 37.2ZM569.968 51.288C568.24 51.288 566.876 50.716 565.876 49.572C564.876 48.428 564.376 46.864 564.376 44.88C564.376 43.568 564.604 42.432 565.06 41.472C565.516 40.504 566.16 39.76 566.992 39.24C567.832 38.712 568.824 38.448 569.968 38.448C571.104 38.448 572.088 38.708 572.92 39.228C573.752 39.748 574.392 40.488 574.84 41.448C575.288 42.408 575.512 43.548 575.512 44.868C575.512 46.196 575.288 47.34 574.84 48.3C574.4 49.26 573.764 50 572.932 50.52C572.1 51.032 571.112 51.288 569.968 51.288ZM569.968 48.42C570.776 48.42 571.404 48.108 571.852 47.484C572.3 46.86 572.524 45.988 572.524 44.868C572.524 43.748 572.296 42.876 571.84 42.252C571.392 41.62 570.768 41.304 569.968 41.304C569.16 41.304 568.528 41.62 568.072 42.252C567.616 42.884 567.388 43.76 567.388 44.88C567.388 45.984 567.616 46.852 568.072 47.484C568.528 48.108 569.16 48.42 569.968 48.42ZM578.384 51V38.736H581.384V39.912C581.776 39.424 582.244 39.06 582.788 38.82C583.34 38.572 583.968 38.448 584.672 38.448C586.04 38.448 587.096 38.872 587.84 39.72C588.584 40.56 588.956 41.772 588.956 43.356V51H585.968V44.28C585.968 43.248 585.788 42.496 585.428 42.024C585.076 41.544 584.524 41.304 583.772 41.304C582.956 41.304 582.352 41.544 581.96 42.024C581.576 42.496 581.384 43.232 581.384 44.232V51H578.384ZM596.595 51.288C595.635 51.288 594.715 51.084 593.835 50.676C592.963 50.268 592.271 49.72 591.759 49.032L593.727 47.376C594.135 47.808 594.607 48.152 595.143 48.408C595.679 48.656 596.191 48.78 596.679 48.78C597.287 48.78 597.755 48.68 598.083 48.48C598.411 48.272 598.575 47.984 598.575 47.616C598.575 47.376 598.495 47.164 598.335 46.98C598.183 46.788 597.911 46.596 597.519 46.404C597.127 46.204 596.575 45.976 595.863 45.72C594.487 45.216 593.511 44.672 592.935 44.088C592.359 43.496 592.071 42.748 592.071 41.844C592.071 40.836 592.479 40.02 593.295 39.396C594.111 38.764 595.175 38.448 596.487 38.448C597.383 38.448 598.207 38.616 598.959 38.952C599.719 39.288 600.371 39.78 600.915 40.428L598.959 42.048C598.239 41.32 597.399 40.956 596.439 40.956C595.951 40.956 595.559 41.048 595.263 41.232C594.967 41.408 594.819 41.648 594.819 41.952C594.819 42.248 594.991 42.512 595.335 42.744C595.687 42.976 596.339 43.248 597.291 43.56C598.235 43.856 598.999 44.192 599.583 44.568C600.175 44.944 600.607 45.38 600.879 45.876C601.159 46.372 601.299 46.944 601.299 47.592C601.299 48.744 600.879 49.648 600.039 50.304C599.207 50.96 598.059 51.288 596.595 51.288ZM615.259 51.288C614.131 51.288 613.155 51.028 612.331 50.508C611.507 49.988 610.871 49.252 610.423 48.3C609.975 47.34 609.751 46.2 609.751 44.88C609.751 43.56 609.975 42.42 610.423 41.46C610.879 40.5 611.523 39.76 612.355 39.24C613.187 38.712 614.167 38.448 615.295 38.448C616.567 38.448 617.623 38.744 618.463 39.336C619.311 39.92 619.923 40.788 620.299 41.94L617.455 42.9C617.263 42.388 616.983 41.996 616.615 41.724C616.247 41.444 615.823 41.304 615.343 41.304C614.567 41.304 613.947 41.624 613.483 42.264C613.027 42.904 612.799 43.776 612.799 44.88C612.799 45.968 613.023 46.832 613.471 47.472C613.919 48.112 614.523 48.432 615.283 48.432C615.819 48.432 616.275 48.28 616.651 47.976C617.035 47.672 617.319 47.228 617.503 46.644L620.335 47.496C619.975 48.752 619.363 49.7 618.499 50.34C617.643 50.972 616.563 51.288 615.259 51.288ZM628.281 51.288C626.553 51.288 625.189 50.716 624.189 49.572C623.189 48.428 622.689 46.864 622.689 44.88C622.689 43.568 622.917 42.432 623.373 41.472C623.829 40.504 624.473 39.76 625.305 39.24C626.145 38.712 627.137 38.448 628.281 38.448C629.417 38.448 630.401 38.708 631.233 39.228C632.065 39.748 632.705 40.488 633.153 41.448C633.601 42.408 633.825 43.548 633.825 44.868C633.825 46.196 633.601 47.34 633.153 48.3C632.713 49.26 632.077 50 631.245 50.52C630.413 51.032 629.425 51.288 628.281 51.288ZM628.281 48.42C629.089 48.42 629.717 48.108 630.165 47.484C630.613 46.86 630.837 45.988 630.837 44.868C630.837 43.748 630.609 42.876 630.153 42.252C629.705 41.62 629.081 41.304 628.281 41.304C627.473 41.304 626.841 41.62 626.385 42.252C625.929 42.884 625.701 43.76 625.701 44.88C625.701 45.984 625.929 46.852 626.385 47.484C626.841 48.108 627.473 48.42 628.281 48.42ZM636.696 51V38.736H639.696V39.876C640.088 39.38 640.528 39.02 641.016 38.796C641.512 38.564 642.072 38.448 642.696 38.448C643.424 38.448 644.048 38.596 644.568 38.892C645.088 39.188 645.492 39.62 645.78 40.188C646.188 39.628 646.712 39.2 647.352 38.904C647.992 38.6 648.716 38.448 649.524 38.448C651.028 38.448 652.164 38.852 652.932 39.66C653.7 40.468 654.084 41.668 654.084 43.26V51H651.096V44.292C651.096 43.268 650.928 42.516 650.592 42.036C650.256 41.548 649.736 41.304 649.032 41.304C648.552 41.304 648.152 41.412 647.832 41.628C647.52 41.844 647.284 42.172 647.124 42.612C646.964 43.044 646.884 43.592 646.884 44.256V51H643.896V44.292C643.896 43.26 643.732 42.504 643.404 42.024C643.076 41.544 642.556 41.304 641.844 41.304C641.116 41.304 640.576 41.54 640.224 42.012C639.872 42.484 639.696 43.216 639.696 44.208V51H636.696ZM657.86 55.872V38.736H660.86V39.636C661.532 38.844 662.432 38.448 663.56 38.448C664.608 38.448 665.512 38.708 666.272 39.228C667.032 39.74 667.616 40.476 668.024 41.436C668.432 42.396 668.636 43.54 668.636 44.868C668.636 46.156 668.424 47.284 668 48.252C667.576 49.212 666.98 49.96 666.212 50.496C665.444 51.024 664.548 51.288 663.524 51.288C662.964 51.288 662.46 51.188 662.012 50.988C661.564 50.78 661.18 50.476 660.86 50.076V54.516L657.86 55.872ZM663.08 48.42C663.896 48.42 664.524 48.112 664.964 47.496C665.404 46.872 665.624 45.996 665.624 44.868C665.624 43.74 665.4 42.864 664.952 42.24C664.504 41.616 663.88 41.304 663.08 41.304C662.592 41.304 662.164 41.392 661.796 41.568C661.436 41.744 661.124 42.012 660.86 42.372V47.328C661.076 47.672 661.38 47.94 661.772 48.132C662.172 48.324 662.608 48.42 663.08 48.42ZM671.855 51V35.028L674.855 33.672V51H671.855ZM683.772 51.288C682.596 51.288 681.58 51.024 680.724 50.496C679.876 49.968 679.22 49.224 678.756 48.264C678.3 47.296 678.072 46.16 678.072 44.856C678.072 43.536 678.304 42.396 678.768 41.436C679.24 40.476 679.9 39.74 680.748 39.228C681.604 38.708 682.612 38.448 683.772 38.448C684.764 38.448 685.664 38.656 686.472 39.072C687.28 39.488 687.924 40.128 688.404 40.992C688.884 41.848 689.124 42.94 689.124 44.268C689.124 44.476 689.116 44.732 689.1 45.036C689.092 45.332 689.072 45.632 689.04 45.936H681.036C681.068 46.496 681.196 46.988 681.42 47.412C681.652 47.828 681.968 48.152 682.368 48.384C682.768 48.616 683.24 48.732 683.784 48.732C684.368 48.732 684.876 48.636 685.308 48.444C685.74 48.244 686.148 47.928 686.532 47.496L688.26 49.284C687.732 49.884 687.096 50.368 686.352 50.736C685.608 51.104 684.748 51.288 683.772 51.288ZM681.048 43.596H686.22C686.18 43.06 686.06 42.6 685.86 42.216C685.66 41.824 685.38 41.524 685.02 41.316C684.66 41.108 684.224 41.004 683.712 41.004C683.008 41.004 682.408 41.22 681.912 41.652C681.416 42.084 681.128 42.732 681.048 43.596ZM695.538 51.288C694.562 51.288 693.83 51.02 693.342 50.484C692.854 49.948 692.61 49.148 692.61 48.084V41.364H690.822V38.736H692.61V35.1L695.586 33.672V38.736H698.37V41.364H695.586V47.544C695.586 47.928 695.662 48.212 695.814 48.396C695.974 48.58 696.222 48.672 696.558 48.672C697.15 48.672 697.798 48.488 698.502 48.12L698.154 50.736C697.786 50.92 697.386 51.056 696.954 51.144C696.522 51.24 696.05 51.288 695.538 51.288ZM706.319 51.288C705.143 51.288 704.127 51.024 703.271 50.496C702.423 49.968 701.767 49.224 701.303 48.264C700.847 47.296 700.619 46.16 700.619 44.856C700.619 43.536 700.851 42.396 701.315 41.436C701.787 40.476 702.447 39.74 703.295 39.228C704.151 38.708 705.159 38.448 706.319 38.448C707.311 38.448 708.211 38.656 709.019 39.072C709.827 39.488 710.471 40.128 710.951 40.992C711.431 41.848 711.671 42.94 711.671 44.268C711.671 44.476 711.663 44.732 711.647 45.036C711.639 45.332 711.619 45.632 711.587 45.936H703.583C703.615 46.496 703.743 46.988 703.967 47.412C704.199 47.828 704.515 48.152 704.915 48.384C705.315 48.616 705.787 48.732 706.331 48.732C706.915 48.732 707.423 48.636 707.855 48.444C708.287 48.244 708.695 47.928 709.079 47.496L710.807 49.284C710.279 49.884 709.643 50.368 708.899 50.736C708.155 51.104 707.295 51.288 706.319 51.288ZM703.595 43.596H708.767C708.727 43.06 708.607 42.6 708.407 42.216C708.207 41.824 707.927 41.524 707.567 41.316C707.207 41.108 706.771 41.004 706.259 41.004C705.555 41.004 704.955 41.22 704.459 41.652C703.963 42.084 703.675 42.732 703.595 43.596ZM719.452 51.288C717.876 51.288 716.64 50.72 715.744 49.584C714.848 48.448 714.4 46.872 714.4 44.856C714.4 43.576 714.612 42.456 715.036 41.496C715.46 40.536 716.052 39.788 716.812 39.252C717.58 38.716 718.472 38.448 719.488 38.448C720.576 38.448 721.468 38.848 722.164 39.648V35.028L725.152 33.672V51H722.164V49.992C721.572 50.856 720.668 51.288 719.452 51.288ZM719.944 48.42C720.456 48.42 720.892 48.332 721.252 48.156C721.612 47.972 721.916 47.7 722.164 47.34V42.384C721.916 42.048 721.592 41.784 721.192 41.592C720.8 41.4 720.384 41.304 719.944 41.304C719.136 41.304 718.512 41.612 718.072 42.228C717.632 42.836 717.412 43.712 717.412 44.856C717.412 45.608 717.512 46.252 717.712 46.788C717.912 47.316 718.2 47.72 718.576 48C718.952 48.28 719.408 48.42 719.944 48.42ZM738.523 51.288C737.187 51.288 736.127 50.928 735.343 50.208C734.567 49.48 734.179 48.496 734.179 47.256C734.179 46.456 734.379 45.756 734.779 45.156C735.187 44.548 735.751 44.08 736.471 43.752C737.199 43.416 738.047 43.248 739.015 43.248C739.551 43.248 740.067 43.3 740.563 43.404C741.067 43.5 741.507 43.64 741.883 43.824V43.056C741.883 42.368 741.687 41.852 741.295 41.508C740.911 41.156 740.343 40.98 739.591 40.98C738.991 40.98 738.375 41.088 737.743 41.304C737.111 41.52 736.471 41.84 735.823 42.264L734.923 39.9C735.627 39.436 736.411 39.08 737.275 38.832C738.139 38.576 739.011 38.448 739.891 38.448C741.539 38.448 742.771 38.84 743.587 39.624C744.403 40.4 744.811 41.56 744.811 43.104V51H741.883V50.016C741.467 50.432 740.971 50.748 740.395 50.964C739.827 51.18 739.203 51.288 738.523 51.288ZM739.219 48.756C739.715 48.756 740.191 48.66 740.647 48.468C741.111 48.268 741.523 47.988 741.883 47.628V46.176C741.539 46.008 741.155 45.88 740.731 45.792C740.315 45.696 739.899 45.648 739.483 45.648C738.739 45.648 738.151 45.792 737.719 46.08C737.295 46.36 737.083 46.752 737.083 47.256C737.083 47.728 737.271 48.096 737.647 48.36C738.023 48.624 738.547 48.756 739.219 48.756ZM748.399 51V38.736H751.399V39.912C751.791 39.424 752.259 39.06 752.803 38.82C753.355 38.572 753.983 38.448 754.687 38.448C756.055 38.448 757.111 38.872 757.855 39.72C758.599 40.56 758.971 41.772 758.971 43.356V51H755.983V44.28C755.983 43.248 755.803 42.496 755.443 42.024C755.091 41.544 754.539 41.304 753.787 41.304C752.971 41.304 752.367 41.544 751.975 42.024C751.591 42.496 751.399 43.232 751.399 44.232V51H748.399ZM767.124 51.288C765.548 51.288 764.312 50.72 763.416 49.584C762.52 48.448 762.072 46.872 762.072 44.856C762.072 43.576 762.284 42.456 762.708 41.496C763.132 40.536 763.724 39.788 764.484 39.252C765.252 38.716 766.144 38.448 767.16 38.448C768.248 38.448 769.14 38.848 769.836 39.648V35.028L772.824 33.672V51H769.836V49.992C769.244 50.856 768.34 51.288 767.124 51.288ZM767.616 48.42C768.128 48.42 768.564 48.332 768.924 48.156C769.284 47.972 769.588 47.7 769.836 47.34V42.384C769.588 42.048 769.264 41.784 768.864 41.592C768.472 41.4 768.056 41.304 767.616 41.304C766.808 41.304 766.184 41.612 765.744 42.228C765.304 42.836 765.084 43.712 765.084 44.856C765.084 45.608 765.184 46.252 765.384 46.788C765.584 47.316 765.872 47.72 766.248 48C766.624 48.28 767.08 48.42 767.616 48.42ZM483.314 81.288C481.946 81.288 480.886 80.864 480.134 80.016C479.382 79.16 479.006 77.952 479.006 76.392V68.736H482.006V75.456C482.006 76.488 482.182 77.24 482.534 77.712C482.886 78.184 483.442 78.42 484.202 78.42C485.018 78.42 485.618 78.184 486.002 77.712C486.394 77.232 486.59 76.496 486.59 75.504V68.736H489.578V81H486.59V79.848C486.214 80.328 485.75 80.688 485.198 80.928C484.654 81.168 484.026 81.288 483.314 81.288ZM493.352 85.872V68.736H496.352V69.636C497.024 68.844 497.924 68.448 499.052 68.448C500.1 68.448 501.004 68.708 501.764 69.228C502.524 69.74 503.108 70.476 503.516 71.436C503.924 72.396 504.128 73.54 504.128 74.868C504.128 76.156 503.916 77.284 503.492 78.252C503.068 79.212 502.472 79.96 501.704 80.496C500.936 81.024 500.04 81.288 499.016 81.288C498.456 81.288 497.952 81.188 497.504 80.988C497.056 80.78 496.672 80.476 496.352 80.076V84.516L493.352 85.872ZM498.572 78.42C499.388 78.42 500.016 78.112 500.456 77.496C500.896 76.872 501.116 75.996 501.116 74.868C501.116 73.74 500.892 72.864 500.444 72.24C499.996 71.616 499.372 71.304 498.572 71.304C498.084 71.304 497.656 71.392 497.288 71.568C496.928 71.744 496.616 72.012 496.352 72.372V77.328C496.568 77.672 496.872 77.94 497.264 78.132C497.664 78.324 498.1 78.42 498.572 78.42ZM507.347 81V65.028L510.347 63.672V81H507.347ZM519.156 81.288C517.428 81.288 516.064 80.716 515.064 79.572C514.064 78.428 513.564 76.864 513.564 74.88C513.564 73.568 513.792 72.432 514.248 71.472C514.704 70.504 515.348 69.76 516.18 69.24C517.02 68.712 518.012 68.448 519.156 68.448C520.292 68.448 521.276 68.708 522.108 69.228C522.94 69.748 523.58 70.488 524.028 71.448C524.476 72.408 524.7 73.548 524.7 74.868C524.7 76.196 524.476 77.34 524.028 78.3C523.588 79.26 522.952 80 522.12 80.52C521.288 81.032 520.3 81.288 519.156 81.288ZM519.156 78.42C519.964 78.42 520.592 78.108 521.04 77.484C521.488 76.86 521.712 75.988 521.712 74.868C521.712 73.748 521.484 72.876 521.028 72.252C520.58 71.62 519.956 71.304 519.156 71.304C518.348 71.304 517.716 71.62 517.26 72.252C516.804 72.884 516.576 73.76 516.576 74.88C516.576 75.984 516.804 76.852 517.26 77.484C517.716 78.108 518.348 78.42 519.156 78.42ZM531.523 81.288C530.187 81.288 529.127 80.928 528.343 80.208C527.567 79.48 527.179 78.496 527.179 77.256C527.179 76.456 527.379 75.756 527.779 75.156C528.187 74.548 528.751 74.08 529.471 73.752C530.199 73.416 531.047 73.248 532.015 73.248C532.551 73.248 533.067 73.3 533.563 73.404C534.067 73.5 534.507 73.64 534.883 73.824V73.056C534.883 72.368 534.687 71.852 534.295 71.508C533.911 71.156 533.343 70.98 532.591 70.98C531.991 70.98 531.375 71.088 530.743 71.304C530.111 71.52 529.471 71.84 528.823 72.264L527.923 69.9C528.627 69.436 529.411 69.08 530.275 68.832C531.139 68.576 532.011 68.448 532.891 68.448C534.539 68.448 535.771 68.84 536.587 69.624C537.403 70.4 537.811 71.56 537.811 73.104V81H534.883V80.016C534.467 80.432 533.971 80.748 533.395 80.964C532.827 81.18 532.203 81.288 531.523 81.288ZM532.219 78.756C532.715 78.756 533.191 78.66 533.647 78.468C534.111 78.268 534.523 77.988 534.883 77.628V76.176C534.539 76.008 534.155 75.88 533.731 75.792C533.315 75.696 532.899 75.648 532.483 75.648C531.739 75.648 531.151 75.792 530.719 76.08C530.295 76.36 530.083 76.752 530.083 77.256C530.083 77.728 530.271 78.096 530.647 78.36C531.023 78.624 531.547 78.756 532.219 78.756ZM545.78 81.288C544.204 81.288 542.968 80.72 542.072 79.584C541.176 78.448 540.728 76.872 540.728 74.856C540.728 73.576 540.94 72.456 541.364 71.496C541.788 70.536 542.38 69.788 543.14 69.252C543.908 68.716 544.8 68.448 545.816 68.448C546.904 68.448 547.796 68.848 548.492 69.648V65.028L551.48 63.672V81H548.492V79.992C547.9 80.856 546.996 81.288 545.78 81.288ZM546.272 78.42C546.784 78.42 547.22 78.332 547.58 78.156C547.94 77.972 548.244 77.7 548.492 77.34V72.384C548.244 72.048 547.92 71.784 547.52 71.592C547.128 71.4 546.712 71.304 546.272 71.304C545.464 71.304 544.84 71.612 544.4 72.228C543.96 72.836 543.74 73.712 543.74 74.856C543.74 75.608 543.84 76.252 544.04 76.788C544.24 77.316 544.528 77.72 544.904 78C545.28 78.28 545.736 78.42 546.272 78.42ZM560.279 81.288C559.103 81.288 558.087 81.024 557.231 80.496C556.383 79.968 555.727 79.224 555.263 78.264C554.807 77.296 554.579 76.16 554.579 74.856C554.579 73.536 554.811 72.396 555.275 71.436C555.747 70.476 556.407 69.74 557.255 69.228C558.111 68.708 559.119 68.448 560.279 68.448C561.271 68.448 562.171 68.656 562.979 69.072C563.787 69.488 564.431 70.128 564.911 70.992C565.391 71.848 565.631 72.94 565.631 74.268C565.631 74.476 565.623 74.732 565.607 75.036C565.599 75.332 565.579 75.632 565.547 75.936H557.543C557.575 76.496 557.703 76.988 557.927 77.412C558.159 77.828 558.475 78.152 558.875 78.384C559.275 78.616 559.747 78.732 560.291 78.732C560.875 78.732 561.383 78.636 561.815 78.444C562.247 78.244 562.655 77.928 563.039 77.496L564.767 79.284C564.239 79.884 563.603 80.368 562.859 80.736C562.115 81.104 561.255 81.288 560.279 81.288ZM557.555 73.596H562.727C562.687 73.06 562.567 72.6 562.367 72.216C562.167 71.824 561.887 71.524 561.527 71.316C561.167 71.108 560.731 71.004 560.219 71.004C559.515 71.004 558.915 71.22 558.419 71.652C557.923 72.084 557.635 72.732 557.555 73.596ZM573.413 81.288C571.837 81.288 570.601 80.72 569.705 79.584C568.809 78.448 568.361 76.872 568.361 74.856C568.361 73.576 568.573 72.456 568.997 71.496C569.421 70.536 570.013 69.788 570.773 69.252C571.541 68.716 572.433 68.448 573.449 68.448C574.537 68.448 575.429 68.848 576.125 69.648V65.028L579.113 63.672V81H576.125V79.992C575.533 80.856 574.629 81.288 573.413 81.288ZM573.905 78.42C574.417 78.42 574.853 78.332 575.213 78.156C575.573 77.972 575.877 77.7 576.125 77.34V72.384C575.877 72.048 575.553 71.784 575.153 71.592C574.761 71.4 574.345 71.304 573.905 71.304C573.097 71.304 572.473 71.612 572.033 72.228C571.593 72.836 571.373 73.712 571.373 74.856C571.373 75.608 571.473 76.252 571.673 76.788C571.873 77.316 572.161 77.72 572.537 78C572.913 78.28 573.369 78.42 573.905 78.42ZM592.436 81.288C591.46 81.288 590.728 81.02 590.24 80.484C589.752 79.948 589.508 79.148 589.508 78.084V71.364H587.72V68.736H589.508V65.1L592.484 63.672V68.736H595.268V71.364H592.484V77.544C592.484 77.928 592.56 78.212 592.712 78.396C592.872 78.58 593.12 78.672 593.456 78.672C594.048 78.672 594.696 78.488 595.4 78.12L595.052 80.736C594.684 80.92 594.284 81.056 593.852 81.144C593.42 81.24 592.948 81.288 592.436 81.288ZM603.109 81.288C601.381 81.288 600.017 80.716 599.017 79.572C598.017 78.428 597.517 76.864 597.517 74.88C597.517 73.568 597.745 72.432 598.201 71.472C598.657 70.504 599.301 69.76 600.133 69.24C600.973 68.712 601.965 68.448 603.109 68.448C604.245 68.448 605.229 68.708 606.061 69.228C606.893 69.748 607.533 70.488 607.981 71.448C608.429 72.408 608.653 73.548 608.653 74.868C608.653 76.196 608.429 77.34 607.981 78.3C607.541 79.26 606.905 80 606.073 80.52C605.241 81.032 604.253 81.288 603.109 81.288ZM603.109 78.42C603.917 78.42 604.545 78.108 604.993 77.484C605.441 76.86 605.665 75.988 605.665 74.868C605.665 73.748 605.437 72.876 604.981 72.252C604.533 71.62 603.909 71.304 603.109 71.304C602.301 71.304 601.669 71.62 601.213 72.252C600.757 72.884 600.529 73.76 600.529 74.88C600.529 75.984 600.757 76.852 601.213 77.484C601.669 78.108 602.301 78.42 603.109 78.42ZM619.295 85.656L621.155 80.784L616.559 68.736H619.643L622.319 75.912C622.391 76.08 622.459 76.264 622.523 76.464C622.587 76.664 622.647 76.864 622.703 77.064C622.751 76.864 622.807 76.668 622.871 76.476C622.943 76.276 623.015 76.088 623.087 75.912L625.763 68.736H628.847L622.391 85.656H619.295ZM636.039 81.288C634.311 81.288 632.947 80.716 631.947 79.572C630.947 78.428 630.447 76.864 630.447 74.88C630.447 73.568 630.675 72.432 631.131 71.472C631.587 70.504 632.231 69.76 633.063 69.24C633.903 68.712 634.895 68.448 636.039 68.448C637.175 68.448 638.159 68.708 638.991 69.228C639.823 69.748 640.463 70.488 640.911 71.448C641.359 72.408 641.583 73.548 641.583 74.868C641.583 76.196 641.359 77.34 640.911 78.3C640.471 79.26 639.835 80 639.003 80.52C638.171 81.032 637.183 81.288 636.039 81.288ZM636.039 78.42C636.847 78.42 637.475 78.108 637.923 77.484C638.371 76.86 638.595 75.988 638.595 74.868C638.595 73.748 638.367 72.876 637.911 72.252C637.463 71.62 636.839 71.304 636.039 71.304C635.231 71.304 634.599 71.62 634.143 72.252C633.687 72.884 633.459 73.76 633.459 74.88C633.459 75.984 633.687 76.852 634.143 77.484C634.599 78.108 635.231 78.42 636.039 78.42ZM648.876 81.288C647.508 81.288 646.448 80.864 645.696 80.016C644.944 79.16 644.568 77.952 644.568 76.392V68.736H647.568V75.456C647.568 76.488 647.744 77.24 648.096 77.712C648.448 78.184 649.004 78.42 649.764 78.42C650.58 78.42 651.18 78.184 651.564 77.712C651.956 77.232 652.152 76.496 652.152 75.504V68.736H655.14V81H652.152V79.848C651.776 80.328 651.312 80.688 650.76 80.928C650.216 81.168 649.588 81.288 648.876 81.288ZM658.915 81V68.736H661.915V70.056C662.139 69.584 662.491 69.2 662.971 68.904C663.451 68.6 663.955 68.448 664.483 68.448C665.355 68.448 666.091 68.748 666.691 69.348L666.271 72.096C665.943 71.824 665.623 71.632 665.311 71.52C664.999 71.408 664.655 71.352 664.279 71.352C663.783 71.352 663.359 71.468 663.007 71.7C662.655 71.932 662.383 72.268 662.191 72.708C662.007 73.148 661.915 73.676 661.915 74.292V81H658.915ZM679.759 81.288C678.631 81.288 677.655 81.028 676.831 80.508C676.007 79.988 675.371 79.252 674.923 78.3C674.475 77.34 674.251 76.2 674.251 74.88C674.251 73.56 674.475 72.42 674.923 71.46C675.379 70.5 676.023 69.76 676.855 69.24C677.687 68.712 678.667 68.448 679.795 68.448C681.067 68.448 682.123 68.744 682.963 69.336C683.811 69.92 684.423 70.788 684.799 71.94L681.955 72.9C681.763 72.388 681.483 71.996 681.115 71.724C680.747 71.444 680.323 71.304 679.843 71.304C679.067 71.304 678.447 71.624 677.983 72.264C677.527 72.904 677.299 73.776 677.299 74.88C677.299 75.968 677.523 76.832 677.971 77.472C678.419 78.112 679.023 78.432 679.783 78.432C680.319 78.432 680.775 78.28 681.151 77.976C681.535 77.672 681.819 77.228 682.003 76.644L684.835 77.496C684.475 78.752 683.863 79.7 682.999 80.34C682.143 80.972 681.063 81.288 679.759 81.288ZM687.884 81V65.052L690.884 63.672V69.924C691.276 69.428 691.744 69.06 692.288 68.82C692.84 68.572 693.468 68.448 694.172 68.448C695.116 68.448 695.904 68.648 696.536 69.048C697.176 69.44 697.656 70.004 697.976 70.74C698.296 71.468 698.456 72.34 698.456 73.356V81H695.468V74.28C695.468 73.272 695.296 72.524 694.952 72.036C694.608 71.548 694.048 71.304 693.272 71.304C692.456 71.304 691.852 71.544 691.46 72.024C691.076 72.496 690.884 73.232 690.884 74.232V81H687.884ZM705.734 81.288C704.398 81.288 703.338 80.928 702.554 80.208C701.778 79.48 701.39 78.496 701.39 77.256C701.39 76.456 701.59 75.756 701.99 75.156C702.398 74.548 702.962 74.08 703.682 73.752C704.41 73.416 705.258 73.248 706.226 73.248C706.762 73.248 707.278 73.3 707.774 73.404C708.278 73.5 708.718 73.64 709.094 73.824V73.056C709.094 72.368 708.898 71.852 708.506 71.508C708.122 71.156 707.554 70.98 706.802 70.98C706.202 70.98 705.586 71.088 704.954 71.304C704.322 71.52 703.682 71.84 703.034 72.264L702.134 69.9C702.838 69.436 703.622 69.08 704.486 68.832C705.35 68.576 706.222 68.448 707.102 68.448C708.75 68.448 709.982 68.84 710.798 69.624C711.614 70.4 712.022 71.56 712.022 73.104V81H709.094V80.016C708.678 80.432 708.182 80.748 707.606 80.964C707.038 81.18 706.414 81.288 705.734 81.288ZM706.43 78.756C706.926 78.756 707.402 78.66 707.858 78.468C708.322 78.268 708.734 77.988 709.094 77.628V76.176C708.75 76.008 708.366 75.88 707.942 75.792C707.526 75.696 707.11 75.648 706.694 75.648C705.95 75.648 705.362 75.792 704.93 76.08C704.506 76.36 704.294 76.752 704.294 77.256C704.294 77.728 704.482 78.096 704.858 78.36C705.234 78.624 705.758 78.756 706.43 78.756ZM715.61 81V68.736H718.61V69.912C719.002 69.424 719.47 69.06 720.014 68.82C720.566 68.572 721.194 68.448 721.898 68.448C723.266 68.448 724.322 68.872 725.066 69.72C725.81 70.56 726.182 71.772 726.182 73.356V81H723.194V74.28C723.194 73.248 723.014 72.496 722.654 72.024C722.302 71.544 721.75 71.304 720.998 71.304C720.182 71.304 719.578 71.544 719.186 72.024C718.802 72.496 718.61 73.232 718.61 74.232V81H715.61ZM729.954 81V68.736H732.954V69.912C733.346 69.424 733.814 69.06 734.358 68.82C734.91 68.572 735.538 68.448 736.242 68.448C737.61 68.448 738.666 68.872 739.41 69.72C740.154 70.56 740.526 71.772 740.526 73.356V81H737.538V74.28C737.538 73.248 737.358 72.496 736.998 72.024C736.646 71.544 736.094 71.304 735.342 71.304C734.526 71.304 733.922 71.544 733.53 72.024C733.146 72.496 732.954 73.232 732.954 74.232V81H729.954ZM749.326 81.288C748.15 81.288 747.134 81.024 746.278 80.496C745.43 79.968 744.774 79.224 744.31 78.264C743.854 77.296 743.626 76.16 743.626 74.856C743.626 73.536 743.858 72.396 744.322 71.436C744.794 70.476 745.454 69.74 746.302 69.228C747.158 68.708 748.166 68.448 749.326 68.448C750.318 68.448 751.218 68.656 752.026 69.072C752.834 69.488 753.478 70.128 753.958 70.992C754.438 71.848 754.678 72.94 754.678 74.268C754.678 74.476 754.67 74.732 754.654 75.036C754.646 75.332 754.626 75.632 754.594 75.936H746.59C746.622 76.496 746.75 76.988 746.974 77.412C747.206 77.828 747.522 78.152 747.922 78.384C748.322 78.616 748.794 78.732 749.338 78.732C749.922 78.732 750.43 78.636 750.862 78.444C751.294 78.244 751.702 77.928 752.086 77.496L753.814 79.284C753.286 79.884 752.65 80.368 751.906 80.736C751.162 81.104 750.302 81.288 749.326 81.288ZM746.602 73.596H751.774C751.734 73.06 751.614 72.6 751.414 72.216C751.214 71.824 750.934 71.524 750.574 71.316C750.214 71.108 749.778 71.004 749.266 71.004C748.562 71.004 747.962 71.22 747.466 71.652C746.97 72.084 746.682 72.732 746.602 73.596ZM757.754 81V65.028L760.754 63.672V81H757.754Z" fill="white"/>
<path d="M880 64.4402C880 64.9925 880.676 65.383 881.155 65.1068L888.845 60.6667C889.324 60.3905 889.324 59.6095 888.845 59.3333L881.155 54.8932C880.676 54.617 880 55.0075 880 55.5598V64.4402ZM810 61H881V59H810V61Z" fill="#FC00FF"/>
<path d="M966.385 50.288C969.697 50.288 972.289 48.464 972.289 45.224C972.289 41.672 969.265 40.616 966.817 39.752C965.065 39.176 963.601 38.672 963.601 37.448C963.601 36.296 964.489 35.648 966.001 35.648C967.585 35.648 968.545 36.392 968.977 37.376L971.569 36.512C970.969 34.448 969.121 32.912 966.193 32.912C962.665 32.912 960.673 34.976 960.673 37.424C960.673 40.616 963.361 41.552 965.761 42.368C967.657 43.016 969.361 43.616 969.361 45.224C969.361 46.76 968.209 47.552 966.481 47.552C964.753 47.552 963.409 46.496 962.713 44.96L960.049 45.944C960.961 48.608 963.289 50.288 966.385 50.288ZM979.017 50.288C980.025 50.288 980.889 50.096 981.585 49.736L981.921 47.216C981.273 47.576 980.625 47.768 980.001 47.768C979.257 47.768 978.969 47.288 978.969 46.592V40.184H981.801V37.736H978.969V32.672L976.161 34.016V37.736H974.337V40.184H976.161V47.144C976.161 49.088 977.001 50.288 979.017 50.288ZM991.472 50H994.208V42.104C994.208 37.976 991.52 37.448 989.36 37.448C987.296 37.448 985.664 38.048 984.56 38.792L985.424 41.072C986.456 40.352 987.584 39.92 989.072 39.92C990.68 39.92 991.472 40.544 991.472 42.152V42.8C990.704 42.368 989.72 42.152 988.568 42.152C986.144 42.152 983.768 43.376 983.768 46.208C983.768 48.896 985.688 50.288 988.208 50.288C989.84 50.288 990.872 49.64 991.472 49.016V50ZM988.736 47.816C987.272 47.816 986.504 47.168 986.504 46.208C986.504 45.032 987.632 44.552 989.023 44.552C989.936 44.552 990.824 44.744 991.472 45.056V46.64C990.848 47.288 989.936 47.816 988.736 47.816ZM997.566 50H1000.37V43.136C1000.37 40.808 1001.6 40.208 1002.68 40.208C1003.61 40.208 1004.26 40.496 1004.77 40.856L1005.17 38.288C1004.55 37.76 1003.81 37.448 1002.89 37.448C1001.67 37.448 1000.85 38 1000.37 39.008V37.736H997.566V50ZM1011.2 50.288C1012.2 50.288 1013.07 50.096 1013.76 49.736L1014.1 47.216C1013.45 47.576 1012.8 47.768 1012.18 47.768C1011.44 47.768 1011.15 47.288 1011.15 46.592V40.184H1013.98V37.736H1011.15V32.672L1008.34 34.016V37.736H1006.52V40.184H1008.34V47.144C1008.34 49.088 1009.18 50.288 1011.2 50.288ZM1037.14 50H1039.95V42.176C1039.95 38.72 1038 37.448 1035.46 37.448C1033.87 37.448 1032.58 37.976 1031.76 39.176C1031.11 38 1030.01 37.448 1028.55 37.448C1027.27 37.448 1026.24 37.928 1025.55 38.864V37.736H1022.74V50H1025.55V43.016C1025.55 41.048 1026.46 40.112 1027.85 40.112C1029.29 40.112 1029.94 41.048 1029.94 42.968V50H1032.75V43.016C1032.75 41.048 1033.63 40.112 1035.05 40.112C1036.49 40.112 1037.14 41.048 1037.14 42.968V50ZM1048.45 50.288C1051.9 50.288 1054.09 47.912 1054.09 43.88C1054.09 39.872 1051.9 37.448 1048.45 37.448C1045.02 37.448 1042.83 39.872 1042.83 43.88C1042.83 47.912 1045.02 50.288 1048.45 50.288ZM1048.45 47.6C1046.74 47.6 1045.64 46.208 1045.64 43.88C1045.64 41.552 1046.74 40.112 1048.45 40.112C1050.2 40.112 1051.28 41.552 1051.28 43.88C1051.28 46.208 1050.2 47.6 1048.45 47.6ZM1064.68 50H1067.49V42.464C1067.49 38.72 1065.47 37.448 1063.14 37.448C1061.75 37.448 1060.7 37.928 1059.9 38.888V37.736H1057.1V50H1059.9V42.92C1059.9 40.904 1060.89 40.112 1062.4 40.112C1063.82 40.112 1064.68 40.952 1064.68 42.968V50ZM1076.04 50.288C1078 50.288 1079.44 49.52 1080.4 48.368L1078.63 46.544C1077.98 47.408 1077.12 47.816 1076.04 47.816C1074.57 47.816 1073.25 46.736 1073.16 44.936H1081.29C1081.36 44.384 1081.39 43.712 1081.39 43.208C1081.39 39.272 1078.99 37.448 1076.04 37.448C1072.6 37.448 1070.37 39.848 1070.37 43.856C1070.37 47.888 1072.56 50.288 1076.04 50.288ZM1073.18 42.608C1073.32 40.688 1074.52 39.92 1076.04 39.92C1077.31 39.92 1078.48 40.736 1078.6 42.608H1073.18ZM1087.67 50.288C1088.68 50.288 1089.55 50.096 1090.24 49.736L1090.58 47.216C1089.93 47.576 1089.28 47.768 1088.66 47.768C1087.91 47.768 1087.63 47.288 1087.63 46.592V40.184H1090.46V37.736H1087.63V32.672L1084.82 34.016V37.736H1082.99V40.184H1084.82V47.144C1084.82 49.088 1085.66 50.288 1087.67 50.288ZM1094.77 36.056C1095.71 36.056 1096.43 35.312 1096.43 34.376C1096.43 33.464 1095.71 32.72 1094.77 32.72C1093.84 32.72 1093.09 33.464 1093.09 34.376C1093.09 35.312 1093.84 36.056 1094.77 36.056ZM1093.36 50H1096.16V37.736H1093.36V50ZM1099.3 50H1109.18V47.504H1102.8L1109.21 39.896V37.736H1099.78V40.232H1105.73L1099.3 47.744V50ZM1113.9 36.056C1114.83 36.056 1115.55 35.312 1115.55 34.376C1115.55 33.464 1114.83 32.72 1113.9 32.72C1112.96 32.72 1112.22 33.464 1112.22 34.376C1112.22 35.312 1112.96 36.056 1113.9 36.056ZM1112.48 50H1115.29V37.736H1112.48V50ZM1126.49 50H1129.29V42.464C1129.29 38.72 1127.28 37.448 1124.95 37.448C1123.56 37.448 1122.5 37.928 1121.71 38.888V37.736H1118.9V50H1121.71V42.92C1121.71 40.904 1122.69 40.112 1124.21 40.112C1125.62 40.112 1126.49 40.952 1126.49 42.968V50ZM1137.05 54.8C1141.27 54.488 1142.83 52.832 1142.83 48.776V37.736H1140.02V38.48C1139.45 37.904 1138.54 37.448 1137.26 37.448C1134.26 37.448 1132.18 39.848 1132.18 43.856C1132.18 48.128 1134.36 50.288 1137.24 50.288C1138.34 50.288 1139.3 49.976 1140.02 49.184V49.88C1140.02 51.536 1139.02 52.304 1135.56 52.544L1137.05 54.8ZM1137.72 47.6C1135.97 47.6 1134.98 46.112 1134.98 43.856C1134.98 41.432 1135.97 40.112 1137.72 40.112C1138.8 40.112 1139.59 40.688 1140.02 41.312V46.4C1139.52 47.168 1138.73 47.6 1137.72 47.6ZM1153.84 54.656H1156.74L1163.22 37.736H1160.39L1157.51 45.272C1157.36 45.68 1157.27 45.992 1157.17 46.376C1157.08 45.992 1156.98 45.68 1156.81 45.272L1153.96 37.736H1151.12L1155.73 49.808L1153.84 54.656ZM1170.51 50.288C1173.97 50.288 1176.15 47.912 1176.15 43.88C1176.15 39.872 1173.97 37.448 1170.51 37.448C1167.08 37.448 1164.9 39.872 1164.9 43.88C1164.9 47.912 1167.08 50.288 1170.51 50.288ZM1170.51 47.6C1168.81 47.6 1167.7 46.208 1167.7 43.88C1167.7 41.552 1168.81 40.112 1170.51 40.112C1172.26 40.112 1173.34 41.552 1173.34 43.88C1173.34 46.208 1172.26 47.6 1170.51 47.6ZM1186.62 50H1189.43V37.736H1186.62V44.792C1186.62 46.832 1185.64 47.6 1184.15 47.6C1182.71 47.6 1181.85 46.76 1181.85 44.744V37.736H1179.04V45.248C1179.04 48.992 1181.08 50.288 1183.41 50.288C1184.78 50.288 1185.86 49.808 1186.62 48.824V50ZM1193.03 50H1195.84V43.136C1195.84 40.808 1197.07 40.208 1198.15 40.208C1199.08 40.208 1199.73 40.496 1200.23 40.856L1200.64 38.288C1200.02 37.76 1199.27 37.448 1198.36 37.448C1197.14 37.448 1196.32 38 1195.84 39.008V37.736H1193.03V50ZM959.033 73.056C959.969 73.056 960.689 72.312 960.689 71.376C960.689 70.464 959.969 69.72 959.033 69.72C958.097 69.72 957.353 70.464 957.353 71.376C957.353 72.312 958.097 73.056 959.033 73.056ZM957.617 87H960.425V74.736H957.617V87ZM971.622 87H974.43V79.464C974.43 75.72 972.414 74.448 970.086 74.448C968.694 74.448 967.638 74.928 966.846 75.888V74.736H964.038V87H966.846V79.92C966.846 77.904 967.83 77.112 969.342 77.112C970.758 77.112 971.622 77.952 971.622 79.968V87ZM981.513 87.288C982.521 87.288 983.385 87.096 984.081 86.736L984.417 84.216C983.769 84.576 983.121 84.768 982.497 84.768C981.753 84.768 981.465 84.288 981.465 83.592V77.184H984.297V74.736H981.465V69.672L978.657 71.016V74.736H976.833V77.184H978.657V84.144C978.657 86.088 979.497 87.288 981.513 87.288ZM992.048 87.288C994.016 87.288 995.456 86.52 996.416 85.368L994.64 83.544C993.992 84.408 993.128 84.816 992.048 84.816C990.584 84.816 989.264 83.736 989.168 81.936H997.304C997.376 81.384 997.4 80.712 997.4 80.208C997.4 76.272 995 74.448 992.048 74.448C988.616 74.448 986.384 76.848 986.384 80.856C986.384 84.888 988.568 87.288 992.048 87.288ZM989.192 79.608C989.336 77.688 990.536 76.92 992.048 76.92C993.32 76.92 994.496 77.736 994.616 79.608H989.192ZM1000.27 87H1003.08V80.136C1003.08 77.808 1004.3 77.208 1005.38 77.208C1006.32 77.208 1006.97 77.496 1007.47 77.856L1007.88 75.288C1007.26 74.76 1006.51 74.448 1005.6 74.448C1004.38 74.448 1003.56 75 1003.08 76.008V74.736H1000.27V87ZM1017.54 87H1020.34V79.464C1020.34 75.72 1018.33 74.448 1016 74.448C1014.61 74.448 1013.55 74.928 1012.76 75.888V74.736H1009.95V87H1012.76V79.92C1012.76 77.904 1013.74 77.112 1015.26 77.112C1016.67 77.112 1017.54 77.952 1017.54 79.968V87ZM1030.81 87H1033.55V79.104C1033.55 74.976 1030.86 74.448 1028.7 74.448C1026.64 74.448 1025 75.048 1023.9 75.792L1024.76 78.072C1025.8 77.352 1026.92 76.92 1028.41 76.92C1030.02 76.92 1030.81 77.544 1030.81 79.152V79.8C1030.04 79.368 1029.06 79.152 1027.91 79.152C1025.48 79.152 1023.11 80.376 1023.11 83.208C1023.11 85.896 1025.03 87.288 1027.55 87.288C1029.18 87.288 1030.21 86.64 1030.81 86.016V87ZM1028.08 84.816C1026.61 84.816 1025.84 84.168 1025.84 83.208C1025.84 82.032 1026.97 81.552 1028.36 81.552C1029.28 81.552 1030.16 81.744 1030.81 82.056V83.64C1030.19 84.288 1029.28 84.816 1028.08 84.816ZM1040.51 87.288C1041.51 87.288 1042.38 87.096 1043.07 86.736L1043.41 84.216C1042.76 84.576 1042.11 84.768 1041.49 84.768C1040.75 84.768 1040.46 84.288 1040.46 83.592V77.184H1043.29V74.736H1040.46V69.672L1037.65 71.016V74.736H1035.83V77.184H1037.65V84.144C1037.65 86.088 1038.49 87.288 1040.51 87.288ZM1047.6 73.056C1048.54 73.056 1049.26 72.312 1049.26 71.376C1049.26 70.464 1048.54 69.72 1047.6 69.72C1046.67 69.72 1045.92 70.464 1045.92 71.376C1045.92 72.312 1046.67 73.056 1047.6 73.056ZM1046.19 87H1049V74.736H1046.19V87ZM1057.62 87.288C1061.08 87.288 1063.26 84.912 1063.26 80.88C1063.26 76.872 1061.08 74.448 1057.62 74.448C1054.19 74.448 1052.01 76.872 1052.01 80.88C1052.01 84.912 1054.19 87.288 1057.62 87.288ZM1057.62 84.6C1055.92 84.6 1054.82 83.208 1054.82 80.88C1054.82 78.552 1055.92 77.112 1057.62 77.112C1059.38 77.112 1060.46 78.552 1060.46 80.88C1060.46 83.208 1059.38 84.6 1057.62 84.6ZM1073.86 87H1076.66V79.464C1076.66 75.72 1074.65 74.448 1072.32 74.448C1070.93 74.448 1069.87 74.928 1069.08 75.888V74.736H1066.27V87H1069.08V79.92C1069.08 77.904 1070.06 77.112 1071.58 77.112C1072.99 77.112 1073.86 77.952 1073.86 79.968V87ZM1087.13 87H1089.87V79.104C1089.87 74.976 1087.18 74.448 1085.02 74.448C1082.96 74.448 1081.32 75.048 1080.22 75.792L1081.08 78.072C1082.12 77.352 1083.24 76.92 1084.73 76.92C1086.34 76.92 1087.13 77.544 1087.13 79.152V79.8C1086.36 79.368 1085.38 79.152 1084.23 79.152C1081.8 79.152 1079.43 80.376 1079.43 83.208C1079.43 85.896 1081.35 87.288 1083.87 87.288C1085.5 87.288 1086.53 86.64 1087.13 86.016V87ZM1084.4 84.816C1082.93 84.816 1082.16 84.168 1082.16 83.208C1082.16 82.032 1083.29 81.552 1084.68 81.552C1085.6 81.552 1086.48 81.744 1087.13 82.056V83.64C1086.51 84.288 1085.6 84.816 1084.4 84.816ZM1093.35 87H1096.15V69.672L1093.35 70.992V87ZM1112.75 87H1115.48V79.104C1115.48 74.976 1112.8 74.448 1110.64 74.448C1108.57 74.448 1106.94 75.048 1105.84 75.792L1106.7 78.072C1107.73 77.352 1108.86 76.92 1110.35 76.92C1111.96 76.92 1112.75 77.544 1112.75 79.152V79.8C1111.98 79.368 1111 79.152 1109.84 79.152C1107.42 79.152 1105.04 80.376 1105.04 83.208C1105.04 85.896 1106.96 87.288 1109.48 87.288C1111.12 87.288 1112.15 86.64 1112.75 86.016V87ZM1110.01 84.816C1108.55 84.816 1107.78 84.168 1107.78 83.208C1107.78 82.032 1108.91 81.552 1110.3 81.552C1111.21 81.552 1112.1 81.744 1112.75 82.056V83.64C1112.12 84.288 1111.21 84.816 1110.01 84.816ZM1126.31 87H1129.11V74.736H1126.31V81.792C1126.31 83.832 1125.32 84.6 1123.83 84.6C1122.39 84.6 1121.53 83.76 1121.53 81.744V74.736H1118.72V82.248C1118.72 85.992 1120.76 87.288 1123.09 87.288C1124.46 87.288 1125.54 86.808 1126.31 85.824V87ZM1137.21 87.288C1138.5 87.288 1139.39 86.856 1139.97 86.112V87H1142.77V69.672L1139.97 70.944V75.6C1139.39 74.928 1138.5 74.448 1137.21 74.448C1134.25 74.448 1132.12 76.848 1132.12 80.856C1132.12 84.936 1134.11 87.288 1137.21 87.288ZM1137.64 84.6C1135.91 84.6 1134.93 83.088 1134.93 80.856C1134.93 78.432 1135.91 77.112 1137.64 77.112C1138.81 77.112 1139.61 77.76 1139.97 78.288V83.424C1139.46 84.192 1138.69 84.6 1137.64 84.6ZM1147.82 73.056C1148.76 73.056 1149.48 72.312 1149.48 71.376C1149.48 70.464 1148.76 69.72 1147.82 69.72C1146.89 69.72 1146.14 70.464 1146.14 71.376C1146.14 72.312 1146.89 73.056 1147.82 73.056ZM1146.41 87H1149.21V74.736H1146.41V87ZM1157.89 87.288C1159.86 87.288 1161.3 86.52 1162.26 85.368L1160.48 83.544C1159.84 84.408 1158.97 84.816 1157.89 84.816C1156.43 84.816 1155.11 83.736 1155.01 81.936H1163.15C1163.22 81.384 1163.24 80.712 1163.24 80.208C1163.24 76.272 1160.84 74.448 1157.89 74.448C1154.46 74.448 1152.23 76.848 1152.23 80.856C1152.23 84.888 1154.41 87.288 1157.89 87.288ZM1155.04 79.608C1155.18 77.688 1156.38 76.92 1157.89 76.92C1159.16 76.92 1160.34 77.736 1160.46 79.608H1155.04ZM1173.7 87H1176.51V79.464C1176.51 75.72 1174.49 74.448 1172.16 74.448C1170.77 74.448 1169.72 74.928 1168.92 75.888V74.736H1166.12V87H1168.92V79.92C1168.92 77.904 1169.91 77.112 1171.42 77.112C1172.84 77.112 1173.7 77.952 1173.7 79.968V87ZM1184.86 87.288C1187.41 87.288 1189.09 86.04 1189.78 83.616L1187.1 82.8C1186.76 83.952 1185.97 84.576 1184.86 84.576C1183.26 84.576 1182.25 83.16 1182.25 80.88C1182.25 78.6 1183.26 77.136 1184.96 77.136C1185.97 77.136 1186.71 77.784 1187.07 78.72L1189.74 77.832C1188.99 75.48 1187.24 74.448 1184.86 74.448C1181.53 74.448 1179.39 76.872 1179.39 80.88C1179.39 84.912 1181.53 87.288 1184.86 87.288ZM1197.78 87.288C1199.75 87.288 1201.19 86.52 1202.15 85.368L1200.37 83.544C1199.73 84.408 1198.86 84.816 1197.78 84.816C1196.32 84.816 1195 83.736 1194.9 81.936H1203.04C1203.11 81.384 1203.13 80.712 1203.13 80.208C1203.13 76.272 1200.73 74.448 1197.78 74.448C1194.35 74.448 1192.12 76.848 1192.12 80.856C1192.12 84.888 1194.3 87.288 1197.78 87.288ZM1194.93 79.608C1195.07 77.688 1196.27 76.92 1197.78 76.92C1199.05 76.92 1200.23 77.736 1200.35 79.608H1194.93Z" fill="white"/>
</svg>
