<svg width="1240" height="120" viewBox="0 0 1240 120" fill="none" xmlns="http://www.w3.org/2000/svg">
<path d="M22.1417 51.288C20.7337 51.288 19.5297 51.028 18.5297 50.508C17.5377 49.98 16.7777 49.216 16.2497 48.216C15.7297 47.216 15.4697 46.008 15.4697 44.592V34.2H18.5777V44.592C18.5777 45.864 18.8617 46.8 19.4297 47.4C19.9977 48 20.9017 48.3 22.1417 48.3C22.9257 48.3 23.5817 48.176 24.1097 47.928C24.6377 47.68 25.0337 47.284 25.2977 46.74C25.5617 46.188 25.6937 45.472 25.6937 44.592V34.2H28.8137V44.592C28.8137 45.776 28.6377 46.792 28.2857 47.64C27.9417 48.488 27.4617 49.184 26.8457 49.728C26.2377 50.264 25.5297 50.66 24.7217 50.916C23.9137 51.164 23.0537 51.288 22.1417 51.288ZM32.5556 55.872V38.736H35.5556V39.636C36.2276 38.844 37.1276 38.448 38.2556 38.448C39.3036 38.448 40.2076 38.708 40.9676 39.228C41.7276 39.74 42.3116 40.476 42.7196 41.436C43.1276 42.396 43.3316 43.54 43.3316 44.868C43.3316 46.156 43.1196 47.284 42.6956 48.252C42.2716 49.212 41.6756 49.96 40.9076 50.496C40.1396 51.024 39.2436 51.288 38.2196 51.288C37.6596 51.288 37.1556 51.188 36.7076 50.988C36.2596 50.78 35.8756 50.476 35.5556 50.076V54.516L32.5556 55.872ZM37.7756 48.42C38.5916 48.42 39.2196 48.112 39.6596 47.496C40.0996 46.872 40.3196 45.996 40.3196 44.868C40.3196 43.74 40.0956 42.864 39.6476 42.24C39.1996 41.616 38.5756 41.304 37.7756 41.304C37.2876 41.304 36.8596 41.392 36.4916 41.568C36.1316 41.744 35.8196 42.012 35.5556 42.372V47.328C35.7716 47.672 36.0756 47.94 36.4676 48.132C36.8676 48.324 37.3036 48.42 37.7756 48.42ZM46.5506 51V35.028L49.5506 33.672V51H46.5506ZM58.359 51.288C56.631 51.288 55.267 50.716 54.267 49.572C53.267 48.428 52.767 46.864 52.767 44.88C52.767 43.568 52.995 42.432 53.451 41.472C53.907 40.504 54.551 39.76 55.383 39.24C56.223 38.712 57.215 38.448 58.359 38.448C59.495 38.448 60.479 38.708 61.311 39.228C62.143 39.748 62.783 40.488 63.231 41.448C63.679 42.408 63.903 43.548 63.903 44.868C63.903 46.196 63.679 47.34 63.231 48.3C62.791 49.26 62.155 50 61.323 50.52C60.491 51.032 59.503 51.288 58.359 51.288ZM58.359 48.42C59.167 48.42 59.795 48.108 60.243 47.484C60.691 46.86 60.915 45.988 60.915 44.868C60.915 43.748 60.687 42.876 60.231 42.252C59.783 41.62 59.159 41.304 58.359 41.304C57.551 41.304 56.919 41.62 56.463 42.252C56.007 42.884 55.779 43.76 55.779 44.88C55.779 45.984 56.007 46.852 56.463 47.484C56.919 48.108 57.551 48.42 58.359 48.42ZM70.7265 51.288C69.3905 51.288 68.3305 50.928 67.5465 50.208C66.7705 49.48 66.3825 48.496 66.3825 47.256C66.3825 46.456 66.5825 45.756 66.9825 45.156C67.3905 44.548 67.9545 44.08 68.6745 43.752C69.4025 43.416 70.2505 43.248 71.2185 43.248C71.7545 43.248 72.2705 43.3 72.7665 43.404C73.2705 43.5 73.7105 43.64 74.0865 43.824V43.056C74.0865 42.368 73.8905 41.852 73.4985 41.508C73.1145 41.156 72.5465 40.98 71.7945 40.98C71.1945 40.98 70.5785 41.088 69.9465 41.304C69.3145 41.52 68.6745 41.84 68.0265 42.264L67.1265 39.9C67.8305 39.436 68.6145 39.08 69.4785 38.832C70.3425 38.576 71.2145 38.448 72.0945 38.448C73.7425 38.448 74.9745 38.84 75.7905 39.624C76.6065 40.4 77.0145 41.56 77.0145 43.104V51H74.0865V50.016C73.6705 50.432 73.1745 50.748 72.5985 50.964C72.0305 51.18 71.4065 51.288 70.7265 51.288ZM71.4225 48.756C71.9185 48.756 72.3945 48.66 72.8505 48.468C73.3145 48.268 73.7265 47.988 74.0865 47.628V46.176C73.7425 46.008 73.3585 45.88 72.9345 45.792C72.5185 45.696 72.1025 45.648 71.6865 45.648C70.9425 45.648 70.3545 45.792 69.9225 46.08C69.4985 46.36 69.2865 46.752 69.2865 47.256C69.2865 47.728 69.4745 48.096 69.8505 48.36C70.2265 48.624 70.7505 48.756 71.4225 48.756ZM84.983 51.288C83.407 51.288 82.171 50.72 81.275 49.584C80.379 48.448 79.931 46.872 79.931 44.856C79.931 43.576 80.143 42.456 80.567 41.496C80.991 40.536 81.583 39.788 82.343 39.252C83.111 38.716 84.003 38.448 85.019 38.448C86.107 38.448 86.999 38.848 87.695 39.648V35.028L90.683 33.672V51H87.695V49.992C87.103 50.856 86.199 51.288 84.983 51.288ZM85.475 48.42C85.987 48.42 86.423 48.332 86.783 48.156C87.143 47.972 87.447 47.7 87.695 47.34V42.384C87.447 42.048 87.123 41.784 86.723 41.592C86.331 41.4 85.915 41.304 85.475 41.304C84.667 41.304 84.043 41.612 83.603 42.228C83.163 42.836 82.943 43.712 82.943 44.856C82.943 45.608 83.043 46.252 83.243 46.788C83.443 47.316 83.731 47.72 84.107 48C84.483 48.28 84.939 48.42 85.475 48.42ZM104.055 51.288C102.719 51.288 101.659 50.928 100.875 50.208C100.099 49.48 99.7106 48.496 99.7106 47.256C99.7106 46.456 99.9106 45.756 100.311 45.156C100.719 44.548 101.283 44.08 102.003 43.752C102.731 43.416 103.579 43.248 104.547 43.248C105.083 43.248 105.599 43.3 106.095 43.404C106.599 43.5 107.039 43.64 107.415 43.824V43.056C107.415 42.368 107.219 41.852 106.827 41.508C106.443 41.156 105.875 40.98 105.123 40.98C104.523 40.98 103.907 41.088 103.275 41.304C102.643 41.52 102.003 41.84 101.355 42.264L100.455 39.9C101.159 39.436 101.943 39.08 102.807 38.832C103.671 38.576 104.543 38.448 105.423 38.448C107.071 38.448 108.303 38.84 109.119 39.624C109.935 40.4 110.343 41.56 110.343 43.104V51H107.415V50.016C106.999 50.432 106.503 50.748 105.927 50.964C105.359 51.18 104.735 51.288 104.055 51.288ZM104.751 48.756C105.247 48.756 105.723 48.66 106.179 48.468C106.643 48.268 107.055 47.988 107.415 47.628V46.176C107.071 46.008 106.687 45.88 106.263 45.792C105.847 45.696 105.431 45.648 105.015 45.648C104.271 45.648 103.683 45.792 103.251 46.08C102.827 46.36 102.615 46.752 102.615 47.256C102.615 47.728 102.803 48.096 103.179 48.36C103.555 48.624 104.079 48.756 104.751 48.756ZM113.931 51V38.736H116.931V39.912C117.323 39.424 117.791 39.06 118.335 38.82C118.887 38.572 119.515 38.448 120.219 38.448C121.587 38.448 122.643 38.872 123.387 39.72C124.131 40.56 124.503 41.772 124.503 43.356V51H121.515V44.28C121.515 43.248 121.335 42.496 120.975 42.024C120.623 41.544 120.071 41.304 119.319 41.304C118.503 41.304 117.899 41.544 117.507 42.024C117.123 42.496 116.931 43.232 116.931 44.232V51H113.931ZM132.655 51.288C131.079 51.288 129.843 50.72 128.947 49.584C128.051 48.448 127.603 46.872 127.603 44.856C127.603 43.576 127.815 42.456 128.239 41.496C128.663 40.536 129.255 39.788 130.015 39.252C130.783 38.716 131.675 38.448 132.691 38.448C133.779 38.448 134.671 38.848 135.367 39.648V35.028L138.355 33.672V51H135.367V49.992C134.775 50.856 133.871 51.288 132.655 51.288ZM133.147 48.42C133.659 48.42 134.095 48.332 134.455 48.156C134.815 47.972 135.119 47.7 135.367 47.34V42.384C135.119 42.048 134.795 41.784 134.395 41.592C134.003 41.4 133.587 41.304 133.147 41.304C132.339 41.304 131.715 41.612 131.275 42.228C130.835 42.836 130.615 43.712 130.615 44.856C130.615 45.608 130.715 46.252 130.915 46.788C131.115 47.316 131.403 47.72 131.779 48C132.155 48.28 132.611 48.42 133.147 48.42ZM152.11 51.288C151.15 51.288 150.23 51.084 149.35 50.676C148.478 50.268 147.786 49.72 147.274 49.032L149.242 47.376C149.65 47.808 150.122 48.152 150.658 48.408C151.194 48.656 151.706 48.78 152.194 48.78C152.802 48.78 153.27 48.68 153.598 48.48C153.926 48.272 154.09 47.984 154.09 47.616C154.09 47.376 154.01 47.164 153.85 46.98C153.698 46.788 153.426 46.596 153.034 46.404C152.642 46.204 152.09 45.976 151.378 45.72C150.002 45.216 149.026 44.672 148.45 44.088C147.874 43.496 147.586 42.748 147.586 41.844C147.586 40.836 147.994 40.02 148.81 39.396C149.626 38.764 150.69 38.448 152.002 38.448C152.898 38.448 153.722 38.616 154.474 38.952C155.234 39.288 155.886 39.78 156.43 40.428L154.474 42.048C153.754 41.32 152.914 40.956 151.954 40.956C151.466 40.956 151.074 41.048 150.778 41.232C150.482 41.408 150.334 41.648 150.334 41.952C150.334 42.248 150.506 42.512 150.85 42.744C151.202 42.976 151.854 43.248 152.806 43.56C153.75 43.856 154.514 44.192 155.098 44.568C155.69 44.944 156.122 45.38 156.394 45.876C156.674 46.372 156.814 46.944 156.814 47.592C156.814 48.744 156.394 49.648 155.554 50.304C154.722 50.96 153.574 51.288 152.11 51.288ZM164.756 51.288C163.58 51.288 162.564 51.024 161.708 50.496C160.86 49.968 160.204 49.224 159.74 48.264C159.284 47.296 159.056 46.16 159.056 44.856C159.056 43.536 159.288 42.396 159.752 41.436C160.224 40.476 160.884 39.74 161.732 39.228C162.588 38.708 163.596 38.448 164.756 38.448C165.748 38.448 166.648 38.656 167.456 39.072C168.264 39.488 168.908 40.128 169.388 40.992C169.868 41.848 170.108 42.94 170.108 44.268C170.108 44.476 170.1 44.732 170.084 45.036C170.076 45.332 170.056 45.632 170.024 45.936H162.02C162.052 46.496 162.18 46.988 162.404 47.412C162.636 47.828 162.952 48.152 163.352 48.384C163.752 48.616 164.224 48.732 164.768 48.732C165.352 48.732 165.86 48.636 166.292 48.444C166.724 48.244 167.132 47.928 167.516 47.496L169.244 49.284C168.716 49.884 168.08 50.368 167.336 50.736C166.592 51.104 165.732 51.288 164.756 51.288ZM162.032 43.596H167.204C167.164 43.06 167.044 42.6 166.844 42.216C166.644 41.824 166.364 41.524 166.004 41.316C165.644 41.108 165.208 41.004 164.696 41.004C163.992 41.004 163.392 41.22 162.896 41.652C162.4 42.084 162.112 42.732 162.032 43.596ZM173.183 51V35.028L176.183 33.672V51H173.183ZM185.1 51.288C183.924 51.288 182.908 51.024 182.052 50.496C181.204 49.968 180.548 49.224 180.084 48.264C179.628 47.296 179.4 46.16 179.4 44.856C179.4 43.536 179.632 42.396 180.096 41.436C180.568 40.476 181.228 39.74 182.076 39.228C182.932 38.708 183.94 38.448 185.1 38.448C186.092 38.448 186.992 38.656 187.8 39.072C188.608 39.488 189.252 40.128 189.732 40.992C190.212 41.848 190.452 42.94 190.452 44.268C190.452 44.476 190.444 44.732 190.428 45.036C190.42 45.332 190.4 45.632 190.368 45.936H182.364C182.396 46.496 182.524 46.988 182.748 47.412C182.98 47.828 183.296 48.152 183.696 48.384C184.096 48.616 184.568 48.732 185.112 48.732C185.696 48.732 186.204 48.636 186.636 48.444C187.068 48.244 187.476 47.928 187.86 47.496L189.588 49.284C189.06 49.884 188.424 50.368 187.68 50.736C186.936 51.104 186.076 51.288 185.1 51.288ZM182.376 43.596H187.548C187.508 43.06 187.388 42.6 187.188 42.216C186.988 41.824 186.708 41.524 186.348 41.316C185.988 41.108 185.552 41.004 185.04 41.004C184.336 41.004 183.736 41.22 183.24 41.652C182.744 42.084 182.456 42.732 182.376 43.596ZM198.689 51.288C197.561 51.288 196.585 51.028 195.761 50.508C194.937 49.988 194.301 49.252 193.853 48.3C193.405 47.34 193.181 46.2 193.181 44.88C193.181 43.56 193.405 42.42 193.853 41.46C194.309 40.5 194.953 39.76 195.785 39.24C196.617 38.712 197.597 38.448 198.725 38.448C199.997 38.448 201.053 38.744 201.893 39.336C202.741 39.92 203.353 40.788 203.729 41.94L200.885 42.9C200.693 42.388 200.413 41.996 200.045 41.724C199.677 41.444 199.253 41.304 198.773 41.304C197.997 41.304 197.377 41.624 196.913 42.264C196.457 42.904 196.229 43.776 196.229 44.88C196.229 45.968 196.453 46.832 196.901 47.472C197.349 48.112 197.953 48.432 198.713 48.432C199.249 48.432 199.705 48.28 200.081 47.976C200.465 47.672 200.749 47.228 200.933 46.644L203.765 47.496C203.405 48.752 202.793 49.7 201.929 50.34C201.073 50.972 199.993 51.288 198.689 51.288ZM210.272 51.288C209.296 51.288 208.564 51.02 208.076 50.484C207.588 49.948 207.344 49.148 207.344 48.084V41.364H205.556V38.736H207.344V35.1L210.32 33.672V38.736H213.104V41.364H210.32V47.544C210.32 47.928 210.396 48.212 210.548 48.396C210.708 48.58 210.956 48.672 211.292 48.672C211.884 48.672 212.532 48.488 213.236 48.12L212.888 50.736C212.52 50.92 212.12 51.056 211.688 51.144C211.256 51.24 210.784 51.288 210.272 51.288ZM226.978 51.288C225.85 51.288 224.874 51.028 224.05 50.508C223.226 49.988 222.59 49.252 222.142 48.3C221.694 47.34 221.47 46.2 221.47 44.88C221.47 43.56 221.694 42.42 222.142 41.46C222.598 40.5 223.242 39.76 224.074 39.24C224.906 38.712 225.886 38.448 227.014 38.448C228.286 38.448 229.342 38.744 230.182 39.336C231.03 39.92 231.642 40.788 232.018 41.94L229.174 42.9C228.982 42.388 228.702 41.996 228.334 41.724C227.966 41.444 227.542 41.304 227.062 41.304C226.286 41.304 225.666 41.624 225.202 42.264C224.746 42.904 224.518 43.776 224.518 44.88C224.518 45.968 224.742 46.832 225.19 47.472C225.638 48.112 226.242 48.432 227.002 48.432C227.538 48.432 227.994 48.28 228.37 47.976C228.754 47.672 229.038 47.228 229.222 46.644L232.054 47.496C231.694 48.752 231.082 49.7 230.218 50.34C229.362 50.972 228.282 51.288 226.978 51.288ZM240 51.288C238.272 51.288 236.908 50.716 235.908 49.572C234.908 48.428 234.408 46.864 234.408 44.88C234.408 43.568 234.636 42.432 235.092 41.472C235.548 40.504 236.192 39.76 237.024 39.24C237.864 38.712 238.856 38.448 240 38.448C241.136 38.448 242.12 38.708 242.952 39.228C243.784 39.748 244.424 40.488 244.872 41.448C245.32 42.408 245.544 43.548 245.544 44.868C245.544 46.196 245.32 47.34 244.872 48.3C244.432 49.26 243.796 50 242.964 50.52C242.132 51.032 241.144 51.288 240 51.288ZM240 48.42C240.808 48.42 241.436 48.108 241.884 47.484C242.332 46.86 242.556 45.988 242.556 44.868C242.556 43.748 242.328 42.876 241.872 42.252C241.424 41.62 240.8 41.304 240 41.304C239.192 41.304 238.56 41.62 238.104 42.252C237.648 42.884 237.42 43.76 237.42 44.88C237.42 45.984 237.648 46.852 238.104 47.484C238.56 48.108 239.192 48.42 240 48.42ZM248.415 51V38.736H251.415V39.912C251.807 39.424 252.275 39.06 252.819 38.82C253.371 38.572 253.999 38.448 254.703 38.448C256.071 38.448 257.127 38.872 257.871 39.72C258.615 40.56 258.987 41.772 258.987 43.356V51H255.999V44.28C255.999 43.248 255.819 42.496 255.459 42.024C255.107 41.544 254.555 41.304 253.803 41.304C252.987 41.304 252.383 41.544 251.991 42.024C251.607 42.496 251.415 43.232 251.415 44.232V51H248.415ZM265.843 51.288C264.867 51.288 264.135 51.02 263.647 50.484C263.159 49.948 262.915 49.148 262.915 48.084V41.364H261.127V38.736H262.915V35.1L265.891 33.672V38.736H268.675V41.364H265.891V47.544C265.891 47.928 265.967 48.212 266.119 48.396C266.279 48.58 266.527 48.672 266.863 48.672C267.455 48.672 268.103 48.488 268.807 48.12L268.459 50.736C268.091 50.92 267.691 51.056 267.259 51.144C266.827 51.24 266.355 51.288 265.843 51.288ZM276.623 51.288C275.447 51.288 274.431 51.024 273.575 50.496C272.727 49.968 272.071 49.224 271.607 48.264C271.151 47.296 270.923 46.16 270.923 44.856C270.923 43.536 271.155 42.396 271.619 41.436C272.091 40.476 272.751 39.74 273.599 39.228C274.455 38.708 275.463 38.448 276.623 38.448C277.615 38.448 278.515 38.656 279.323 39.072C280.131 39.488 280.775 40.128 281.255 40.992C281.735 41.848 281.975 42.94 281.975 44.268C281.975 44.476 281.967 44.732 281.951 45.036C281.943 45.332 281.923 45.632 281.891 45.936H273.887C273.919 46.496 274.047 46.988 274.271 47.412C274.503 47.828 274.819 48.152 275.219 48.384C275.619 48.616 276.091 48.732 276.635 48.732C277.219 48.732 277.727 48.636 278.159 48.444C278.591 48.244 278.999 47.928 279.383 47.496L281.111 49.284C280.583 49.884 279.947 50.368 279.203 50.736C278.459 51.104 277.599 51.288 276.623 51.288ZM273.899 43.596H279.071C279.031 43.06 278.911 42.6 278.711 42.216C278.511 41.824 278.231 41.524 277.871 41.316C277.511 41.108 277.075 41.004 276.563 41.004C275.859 41.004 275.259 41.22 274.763 41.652C274.267 42.084 273.979 42.732 273.899 43.596ZM285.001 51V38.736H288.001V39.912C288.393 39.424 288.861 39.06 289.405 38.82C289.957 38.572 290.585 38.448 291.289 38.448C292.657 38.448 293.713 38.872 294.457 39.72C295.201 40.56 295.573 41.772 295.573 43.356V51H292.585V44.28C292.585 43.248 292.405 42.496 292.045 42.024C291.693 41.544 291.141 41.304 290.389 41.304C289.573 41.304 288.969 41.544 288.577 42.024C288.193 42.496 288.001 43.232 288.001 44.232V51H285.001ZM302.428 51.288C301.452 51.288 300.72 51.02 300.232 50.484C299.744 49.948 299.5 49.148 299.5 48.084V41.364H297.712V38.736H299.5V35.1L302.476 33.672V38.736H305.26V41.364H302.476V47.544C302.476 47.928 302.552 48.212 302.704 48.396C302.864 48.58 303.112 48.672 303.448 48.672C304.04 48.672 304.688 48.488 305.392 48.12L305.044 50.736C304.676 50.92 304.276 51.056 303.844 51.144C303.412 51.24 302.94 51.288 302.428 51.288ZM79.5976 81.288C78.2616 81.288 77.2016 80.928 76.4176 80.208C75.6416 79.48 75.2536 78.496 75.2536 77.256C75.2536 76.456 75.4536 75.756 75.8536 75.156C76.2616 74.548 76.8256 74.08 77.5456 73.752C78.2736 73.416 79.1216 73.248 80.0896 73.248C80.6256 73.248 81.1416 73.3 81.6376 73.404C82.1416 73.5 82.5816 73.64 82.9576 73.824V73.056C82.9576 72.368 82.7616 71.852 82.3696 71.508C81.9856 71.156 81.4176 70.98 80.6656 70.98C80.0656 70.98 79.4496 71.088 78.8176 71.304C78.1856 71.52 77.5456 71.84 76.8976 72.264L75.9976 69.9C76.7016 69.436 77.4856 69.08 78.3496 68.832C79.2136 68.576 80.0856 68.448 80.9656 68.448C82.6136 68.448 83.8456 68.84 84.6616 69.624C85.4776 70.4 85.8856 71.56 85.8856 73.104V81H82.9576V80.016C82.5416 80.432 82.0456 80.748 81.4696 80.964C80.9016 81.18 80.2776 81.288 79.5976 81.288ZM80.2936 78.756C80.7896 78.756 81.2656 78.66 81.7216 78.468C82.1856 78.268 82.5976 77.988 82.9576 77.628V76.176C82.6136 76.008 82.2296 75.88 81.8056 75.792C81.3896 75.696 80.9736 75.648 80.5576 75.648C79.8136 75.648 79.2256 75.792 78.7936 76.08C78.3696 76.36 78.1576 76.752 78.1576 77.256C78.1576 77.728 78.3456 78.096 78.7216 78.36C79.0976 78.624 79.6216 78.756 80.2936 78.756ZM89.4736 81V68.736H92.4736V69.912C92.8656 69.424 93.3336 69.06 93.8776 68.82C94.4296 68.572 95.0576 68.448 95.7616 68.448C97.1296 68.448 98.1856 68.872 98.9296 69.72C99.6736 70.56 100.046 71.772 100.046 73.356V81H97.0576V74.28C97.0576 73.248 96.8776 72.496 96.5176 72.024C96.1656 71.544 95.6136 71.304 94.8616 71.304C94.0456 71.304 93.4416 71.544 93.0496 72.024C92.6656 72.496 92.4736 73.232 92.4736 74.232V81H89.4736ZM108.198 81.288C106.622 81.288 105.386 80.72 104.49 79.584C103.594 78.448 103.146 76.872 103.146 74.856C103.146 73.576 103.358 72.456 103.782 71.496C104.206 70.536 104.798 69.788 105.558 69.252C106.326 68.716 107.218 68.448 108.234 68.448C109.322 68.448 110.214 68.848 110.91 69.648V65.028L113.898 63.672V81H110.91V79.992C110.318 80.856 109.414 81.288 108.198 81.288ZM108.69 78.42C109.202 78.42 109.638 78.332 109.998 78.156C110.358 77.972 110.662 77.7 110.91 77.34V72.384C110.662 72.048 110.338 71.784 109.938 71.592C109.546 71.4 109.13 71.304 108.69 71.304C107.882 71.304 107.258 71.612 106.818 72.228C106.378 72.836 106.158 73.712 106.158 74.856C106.158 75.608 106.258 76.252 106.458 76.788C106.658 77.316 106.946 77.72 107.322 78C107.698 78.28 108.154 78.42 108.69 78.42ZM128.049 81.288C126.473 81.288 125.237 80.72 124.341 79.584C123.445 78.448 122.997 76.872 122.997 74.856C122.997 73.576 123.209 72.456 123.633 71.496C124.057 70.536 124.649 69.788 125.409 69.252C126.177 68.716 127.069 68.448 128.085 68.448C129.173 68.448 130.065 68.848 130.761 69.648V65.028L133.749 63.672V81H130.761V79.992C130.169 80.856 129.265 81.288 128.049 81.288ZM128.541 78.42C129.053 78.42 129.489 78.332 129.849 78.156C130.209 77.972 130.513 77.7 130.761 77.34V72.384C130.513 72.048 130.189 71.784 129.789 71.592C129.397 71.4 128.981 71.304 128.541 71.304C127.733 71.304 127.109 71.612 126.669 72.228C126.229 72.836 126.009 73.712 126.009 74.856C126.009 75.608 126.109 76.252 126.309 76.788C126.509 77.316 126.797 77.72 127.173 78C127.549 78.28 128.005 78.42 128.541 78.42ZM142.441 81.288C140.713 81.288 139.349 80.716 138.349 79.572C137.349 78.428 136.849 76.864 136.849 74.88C136.849 73.568 137.077 72.432 137.533 71.472C137.989 70.504 138.633 69.76 139.465 69.24C140.305 68.712 141.297 68.448 142.441 68.448C143.577 68.448 144.561 68.708 145.393 69.228C146.225 69.748 146.865 70.488 147.313 71.448C147.761 72.408 147.985 73.548 147.985 74.868C147.985 76.196 147.761 77.34 147.313 78.3C146.873 79.26 146.237 80 145.405 80.52C144.573 81.032 143.585 81.288 142.441 81.288ZM142.441 78.42C143.249 78.42 143.877 78.108 144.325 77.484C144.773 76.86 144.997 75.988 144.997 74.868C144.997 73.748 144.769 72.876 144.313 72.252C143.865 71.62 143.241 71.304 142.441 71.304C141.633 71.304 141.001 71.62 140.545 72.252C140.089 72.884 139.861 73.76 139.861 74.88C139.861 75.984 140.089 76.852 140.545 77.484C141.001 78.108 141.633 78.42 142.441 78.42ZM156.091 81.288C154.963 81.288 153.987 81.028 153.163 80.508C152.339 79.988 151.703 79.252 151.255 78.3C150.807 77.34 150.583 76.2 150.583 74.88C150.583 73.56 150.807 72.42 151.255 71.46C151.711 70.5 152.355 69.76 153.187 69.24C154.019 68.712 154.999 68.448 156.127 68.448C157.399 68.448 158.455 68.744 159.295 69.336C160.143 69.92 160.755 70.788 161.131 71.94L158.287 72.9C158.095 72.388 157.815 71.996 157.447 71.724C157.079 71.444 156.655 71.304 156.175 71.304C155.399 71.304 154.779 71.624 154.315 72.264C153.859 72.904 153.631 73.776 153.631 74.88C153.631 75.968 153.855 76.832 154.303 77.472C154.751 78.112 155.355 78.432 156.115 78.432C156.651 78.432 157.107 78.28 157.483 77.976C157.867 77.672 158.151 77.228 158.335 76.644L161.167 77.496C160.807 78.752 160.195 79.7 159.331 80.34C158.475 80.972 157.395 81.288 156.091 81.288ZM168.287 81.288C166.919 81.288 165.859 80.864 165.107 80.016C164.355 79.16 163.979 77.952 163.979 76.392V68.736H166.979V75.456C166.979 76.488 167.155 77.24 167.507 77.712C167.859 78.184 168.415 78.42 169.175 78.42C169.991 78.42 170.591 78.184 170.975 77.712C171.367 77.232 171.563 76.496 171.563 75.504V68.736H174.551V81H171.563V79.848C171.187 80.328 170.723 80.688 170.171 80.928C169.627 81.168 168.999 81.288 168.287 81.288ZM178.325 81V68.736H181.325V69.876C181.717 69.38 182.157 69.02 182.645 68.796C183.141 68.564 183.701 68.448 184.325 68.448C185.053 68.448 185.677 68.596 186.197 68.892C186.717 69.188 187.121 69.62 187.409 70.188C187.817 69.628 188.341 69.2 188.981 68.904C189.621 68.6 190.345 68.448 191.153 68.448C192.657 68.448 193.793 68.852 194.561 69.66C195.329 70.468 195.713 71.668 195.713 73.26V81H192.725V74.292C192.725 73.268 192.557 72.516 192.221 72.036C191.885 71.548 191.365 71.304 190.661 71.304C190.181 71.304 189.781 71.412 189.461 71.628C189.149 71.844 188.913 72.172 188.753 72.612C188.593 73.044 188.513 73.592 188.513 74.256V81H185.525V74.292C185.525 73.26 185.361 72.504 185.033 72.024C184.705 71.544 184.185 71.304 183.473 71.304C182.745 71.304 182.205 71.54 181.853 72.012C181.501 72.484 181.325 73.216 181.325 74.208V81H178.325ZM204.518 81.288C203.342 81.288 202.326 81.024 201.47 80.496C200.622 79.968 199.966 79.224 199.502 78.264C199.046 77.296 198.818 76.16 198.818 74.856C198.818 73.536 199.05 72.396 199.514 71.436C199.986 70.476 200.646 69.74 201.494 69.228C202.35 68.708 203.358 68.448 204.518 68.448C205.51 68.448 206.41 68.656 207.218 69.072C208.026 69.488 208.67 70.128 209.15 70.992C209.63 71.848 209.87 72.94 209.87 74.268C209.87 74.476 209.862 74.732 209.846 75.036C209.838 75.332 209.818 75.632 209.786 75.936H201.782C201.814 76.496 201.942 76.988 202.166 77.412C202.398 77.828 202.714 78.152 203.114 78.384C203.514 78.616 203.986 78.732 204.53 78.732C205.114 78.732 205.622 78.636 206.054 78.444C206.486 78.244 206.894 77.928 207.278 77.496L209.006 79.284C208.478 79.884 207.842 80.368 207.098 80.736C206.354 81.104 205.494 81.288 204.518 81.288ZM201.794 73.596H206.966C206.926 73.06 206.806 72.6 206.606 72.216C206.406 71.824 206.126 71.524 205.766 71.316C205.406 71.108 204.97 71.004 204.458 71.004C203.754 71.004 203.154 71.22 202.658 71.652C202.162 72.084 201.874 72.732 201.794 73.596ZM212.895 81V68.736H215.895V69.912C216.287 69.424 216.755 69.06 217.299 68.82C217.851 68.572 218.479 68.448 219.183 68.448C220.551 68.448 221.607 68.872 222.351 69.72C223.095 70.56 223.467 71.772 223.467 73.356V81H220.479V74.28C220.479 73.248 220.299 72.496 219.939 72.024C219.587 71.544 219.035 71.304 218.283 71.304C217.467 71.304 216.863 71.544 216.471 72.024C216.087 72.496 215.895 73.232 215.895 74.232V81H212.895ZM230.323 81.288C229.347 81.288 228.615 81.02 228.127 80.484C227.639 79.948 227.395 79.148 227.395 78.084V71.364H225.607V68.736H227.395V65.1L230.371 63.672V68.736H233.155V71.364H230.371V77.544C230.371 77.928 230.447 78.212 230.599 78.396C230.759 78.58 231.007 78.672 231.343 78.672C231.935 78.672 232.583 78.488 233.287 78.12L232.939 80.736C232.571 80.92 232.171 81.056 231.739 81.144C231.307 81.24 230.835 81.288 230.323 81.288ZM239.966 81.288C239.006 81.288 238.086 81.084 237.206 80.676C236.334 80.268 235.642 79.72 235.13 79.032L237.098 77.376C237.506 77.808 237.978 78.152 238.514 78.408C239.05 78.656 239.562 78.78 240.05 78.78C240.658 78.78 241.126 78.68 241.454 78.48C241.782 78.272 241.946 77.984 241.946 77.616C241.946 77.376 241.866 77.164 241.706 76.98C241.554 76.788 241.282 76.596 240.89 76.404C240.498 76.204 239.946 75.976 239.234 75.72C237.858 75.216 236.882 74.672 236.306 74.088C235.73 73.496 235.442 72.748 235.442 71.844C235.442 70.836 235.85 70.02 236.666 69.396C237.482 68.764 238.546 68.448 239.858 68.448C240.754 68.448 241.578 68.616 242.33 68.952C243.09 69.288 243.742 69.78 244.286 70.428L242.33 72.048C241.61 71.32 240.77 70.956 239.81 70.956C239.322 70.956 238.93 71.048 238.634 71.232C238.338 71.408 238.19 71.648 238.19 71.952C238.19 72.248 238.362 72.512 238.706 72.744C239.058 72.976 239.71 73.248 240.662 73.56C241.606 73.856 242.37 74.192 242.954 74.568C243.546 74.944 243.978 75.38 244.25 75.876C244.53 76.372 244.67 76.944 244.67 77.592C244.67 78.744 244.25 79.648 243.41 80.304C242.578 80.96 241.43 81.288 239.966 81.288Z" fill="white"/>
<path d="M420 64.4402C420 64.9925 420.676 65.383 421.155 65.1068L428.845 60.6667C429.324 60.3905 429.324 59.6095 428.845 59.3333L421.155 54.8932C420.676 54.617 420 55.0075 420 55.5598V64.4402ZM350 61H421V59H350V61Z" fill="#FC00FF"/>
<path d="M481.301 51V37.188H476.537V34.2H489.197V37.188H484.409V51H481.301ZM490.376 51V38.736H493.376V40.056C493.6 39.584 493.952 39.2 494.432 38.904C494.912 38.6 495.416 38.448 495.944 38.448C496.816 38.448 497.552 38.748 498.152 39.348L497.732 42.096C497.404 41.824 497.084 41.632 496.772 41.52C496.46 41.408 496.116 41.352 495.74 41.352C495.244 41.352 494.82 41.468 494.468 41.7C494.116 41.932 493.844 42.268 493.652 42.708C493.468 43.148 493.376 43.676 493.376 44.292V51H490.376ZM503.726 51.288C502.39 51.288 501.33 50.928 500.546 50.208C499.77 49.48 499.382 48.496 499.382 47.256C499.382 46.456 499.582 45.756 499.982 45.156C500.39 44.548 500.954 44.08 501.674 43.752C502.402 43.416 503.25 43.248 504.218 43.248C504.754 43.248 505.27 43.3 505.766 43.404C506.27 43.5 506.71 43.64 507.086 43.824V43.056C507.086 42.368 506.89 41.852 506.498 41.508C506.114 41.156 505.546 40.98 504.794 40.98C504.194 40.98 503.578 41.088 502.946 41.304C502.314 41.52 501.674 41.84 501.026 42.264L500.126 39.9C500.83 39.436 501.614 39.08 502.478 38.832C503.342 38.576 504.214 38.448 505.094 38.448C506.742 38.448 507.974 38.84 508.79 39.624C509.606 40.4 510.014 41.56 510.014 43.104V51H507.086V50.016C506.67 50.432 506.174 50.748 505.598 50.964C505.03 51.18 504.406 51.288 503.726 51.288ZM504.422 48.756C504.918 48.756 505.394 48.66 505.85 48.468C506.314 48.268 506.726 47.988 507.086 47.628V46.176C506.742 46.008 506.358 45.88 505.934 45.792C505.518 45.696 505.102 45.648 504.686 45.648C503.942 45.648 503.354 45.792 502.922 46.08C502.498 46.36 502.286 46.752 502.286 47.256C502.286 47.728 502.474 48.096 502.85 48.36C503.226 48.624 503.75 48.756 504.422 48.756ZM513.602 51V38.736H516.602V39.912C516.994 39.424 517.462 39.06 518.006 38.82C518.558 38.572 519.186 38.448 519.89 38.448C521.258 38.448 522.314 38.872 523.058 39.72C523.802 40.56 524.174 41.772 524.174 43.356V51H521.186V44.28C521.186 43.248 521.006 42.496 520.646 42.024C520.294 41.544 519.742 41.304 518.99 41.304C518.174 41.304 517.57 41.544 517.178 42.024C516.794 42.496 516.602 43.232 516.602 44.232V51H513.602ZM531.814 51.288C530.854 51.288 529.934 51.084 529.054 50.676C528.182 50.268 527.49 49.72 526.978 49.032L528.946 47.376C529.354 47.808 529.826 48.152 530.362 48.408C530.898 48.656 531.41 48.78 531.898 48.78C532.506 48.78 532.974 48.68 533.302 48.48C533.63 48.272 533.794 47.984 533.794 47.616C533.794 47.376 533.714 47.164 533.554 46.98C533.402 46.788 533.13 46.596 532.738 46.404C532.346 46.204 531.794 45.976 531.082 45.72C529.706 45.216 528.73 44.672 528.154 44.088C527.578 43.496 527.29 42.748 527.29 41.844C527.29 40.836 527.698 40.02 528.514 39.396C529.33 38.764 530.394 38.448 531.706 38.448C532.602 38.448 533.426 38.616 534.178 38.952C534.938 39.288 535.59 39.78 536.134 40.428L534.178 42.048C533.458 41.32 532.618 40.956 531.658 40.956C531.17 40.956 530.778 41.048 530.482 41.232C530.186 41.408 530.038 41.648 530.038 41.952C530.038 42.248 530.21 42.512 530.554 42.744C530.906 42.976 531.558 43.248 532.51 43.56C533.454 43.856 534.218 44.192 534.802 44.568C535.394 44.944 535.826 45.38 536.098 45.876C536.378 46.372 536.518 46.944 536.518 47.592C536.518 48.744 536.098 49.648 535.258 50.304C534.426 50.96 533.278 51.288 531.814 51.288ZM539.738 51V35.028L542.738 33.672V51H539.738ZM550.226 51.288C548.89 51.288 547.83 50.928 547.046 50.208C546.27 49.48 545.882 48.496 545.882 47.256C545.882 46.456 546.082 45.756 546.482 45.156C546.89 44.548 547.454 44.08 548.174 43.752C548.902 43.416 549.75 43.248 550.718 43.248C551.254 43.248 551.77 43.3 552.266 43.404C552.77 43.5 553.21 43.64 553.586 43.824V43.056C553.586 42.368 553.39 41.852 552.998 41.508C552.614 41.156 552.046 40.98 551.294 40.98C550.694 40.98 550.078 41.088 549.446 41.304C548.814 41.52 548.174 41.84 547.526 42.264L546.626 39.9C547.33 39.436 548.114 39.08 548.978 38.832C549.842 38.576 550.714 38.448 551.594 38.448C553.242 38.448 554.474 38.84 555.29 39.624C556.106 40.4 556.514 41.56 556.514 43.104V51H553.586V50.016C553.17 50.432 552.674 50.748 552.098 50.964C551.53 51.18 550.906 51.288 550.226 51.288ZM550.922 48.756C551.418 48.756 551.894 48.66 552.35 48.468C552.814 48.268 553.226 47.988 553.586 47.628V46.176C553.242 46.008 552.858 45.88 552.434 45.792C552.018 45.696 551.602 45.648 551.186 45.648C550.442 45.648 549.854 45.792 549.422 46.08C548.998 46.36 548.786 46.752 548.786 47.256C548.786 47.728 548.974 48.096 549.35 48.36C549.726 48.624 550.25 48.756 550.922 48.756ZM563.186 51.288C562.21 51.288 561.478 51.02 560.99 50.484C560.502 49.948 560.258 49.148 560.258 48.084V41.364H558.47V38.736H560.258V35.1L563.234 33.672V38.736H566.018V41.364H563.234V47.544C563.234 47.928 563.31 48.212 563.462 48.396C563.622 48.58 563.87 48.672 564.206 48.672C564.798 48.672 565.446 48.488 566.15 48.12L565.802 50.736C565.434 50.92 565.034 51.056 564.602 51.144C564.17 51.24 563.698 51.288 563.186 51.288ZM568.587 51V38.736H571.587V51H568.587ZM570.087 37.2C569.607 37.2 569.191 37.028 568.839 36.684C568.495 36.332 568.323 35.916 568.323 35.436C568.323 34.956 568.495 34.548 568.839 34.212C569.183 33.868 569.599 33.696 570.087 33.696C570.591 33.696 571.011 33.864 571.347 34.2C571.683 34.536 571.851 34.948 571.851 35.436C571.851 35.924 571.679 36.34 571.335 36.684C570.999 37.028 570.583 37.2 570.087 37.2ZM580.304 51.288C578.576 51.288 577.212 50.716 576.212 49.572C575.212 48.428 574.712 46.864 574.712 44.88C574.712 43.568 574.94 42.432 575.396 41.472C575.852 40.504 576.496 39.76 577.328 39.24C578.168 38.712 579.16 38.448 580.304 38.448C581.44 38.448 582.424 38.708 583.256 39.228C584.088 39.748 584.728 40.488 585.176 41.448C585.624 42.408 585.848 43.548 585.848 44.868C585.848 46.196 585.624 47.34 585.176 48.3C584.736 49.26 584.1 50 583.268 50.52C582.436 51.032 581.448 51.288 580.304 51.288ZM580.304 48.42C581.112 48.42 581.74 48.108 582.188 47.484C582.636 46.86 582.86 45.988 582.86 44.868C582.86 43.748 582.632 42.876 582.176 42.252C581.728 41.62 581.104 41.304 580.304 41.304C579.496 41.304 578.864 41.62 578.408 42.252C577.952 42.884 577.724 43.76 577.724 44.88C577.724 45.984 577.952 46.852 578.408 47.484C578.864 48.108 579.496 48.42 580.304 48.42ZM588.72 51V38.736H591.72V39.912C592.112 39.424 592.58 39.06 593.124 38.82C593.676 38.572 594.304 38.448 595.008 38.448C596.376 38.448 597.432 38.872 598.176 39.72C598.92 40.56 599.292 41.772 599.292 43.356V51H596.304V44.28C596.304 43.248 596.124 42.496 595.764 42.024C595.412 41.544 594.86 41.304 594.108 41.304C593.292 41.304 592.688 41.544 592.296 42.024C591.912 42.496 591.72 43.232 591.72 44.232V51H588.72ZM606.931 51.288C605.971 51.288 605.051 51.084 604.171 50.676C603.299 50.268 602.607 49.72 602.095 49.032L604.063 47.376C604.471 47.808 604.943 48.152 605.479 48.408C606.015 48.656 606.527 48.78 607.015 48.78C607.623 48.78 608.091 48.68 608.419 48.48C608.747 48.272 608.911 47.984 608.911 47.616C608.911 47.376 608.831 47.164 608.671 46.98C608.519 46.788 608.247 46.596 607.855 46.404C607.463 46.204 606.911 45.976 606.199 45.72C604.823 45.216 603.847 44.672 603.271 44.088C602.695 43.496 602.407 42.748 602.407 41.844C602.407 40.836 602.815 40.02 603.631 39.396C604.447 38.764 605.511 38.448 606.823 38.448C607.719 38.448 608.543 38.616 609.295 38.952C610.055 39.288 610.707 39.78 611.251 40.428L609.295 42.048C608.575 41.32 607.735 40.956 606.775 40.956C606.287 40.956 605.895 41.048 605.599 41.232C605.303 41.408 605.155 41.648 605.155 41.952C605.155 42.248 605.327 42.512 605.671 42.744C606.023 42.976 606.675 43.248 607.627 43.56C608.571 43.856 609.335 44.192 609.919 44.568C610.511 44.944 610.943 45.38 611.215 45.876C611.495 46.372 611.635 46.944 611.635 47.592C611.635 48.744 611.215 49.648 610.375 50.304C609.543 50.96 608.395 51.288 606.931 51.288ZM625.595 51.288C624.467 51.288 623.491 51.028 622.667 50.508C621.843 49.988 621.207 49.252 620.759 48.3C620.311 47.34 620.087 46.2 620.087 44.88C620.087 43.56 620.311 42.42 620.759 41.46C621.215 40.5 621.859 39.76 622.691 39.24C623.523 38.712 624.503 38.448 625.631 38.448C626.903 38.448 627.959 38.744 628.799 39.336C629.647 39.92 630.259 40.788 630.635 41.94L627.791 42.9C627.599 42.388 627.319 41.996 626.951 41.724C626.583 41.444 626.159 41.304 625.679 41.304C624.903 41.304 624.283 41.624 623.819 42.264C623.363 42.904 623.135 43.776 623.135 44.88C623.135 45.968 623.359 46.832 623.807 47.472C624.255 48.112 624.859 48.432 625.619 48.432C626.155 48.432 626.611 48.28 626.987 47.976C627.371 47.672 627.655 47.228 627.839 46.644L630.671 47.496C630.311 48.752 629.699 49.7 628.835 50.34C627.979 50.972 626.899 51.288 625.595 51.288ZM638.617 51.288C636.889 51.288 635.525 50.716 634.525 49.572C633.525 48.428 633.025 46.864 633.025 44.88C633.025 43.568 633.253 42.432 633.709 41.472C634.165 40.504 634.809 39.76 635.641 39.24C636.481 38.712 637.473 38.448 638.617 38.448C639.753 38.448 640.737 38.708 641.569 39.228C642.401 39.748 643.041 40.488 643.489 41.448C643.937 42.408 644.161 43.548 644.161 44.868C644.161 46.196 643.937 47.34 643.489 48.3C643.049 49.26 642.413 50 641.581 50.52C640.749 51.032 639.761 51.288 638.617 51.288ZM638.617 48.42C639.425 48.42 640.053 48.108 640.501 47.484C640.949 46.86 641.173 45.988 641.173 44.868C641.173 43.748 640.945 42.876 640.489 42.252C640.041 41.62 639.417 41.304 638.617 41.304C637.809 41.304 637.177 41.62 636.721 42.252C636.265 42.884 636.037 43.76 636.037 44.88C636.037 45.984 636.265 46.852 636.721 47.484C637.177 48.108 637.809 48.42 638.617 48.42ZM647.032 51V38.736H650.032V39.876C650.424 39.38 650.864 39.02 651.352 38.796C651.848 38.564 652.408 38.448 653.032 38.448C653.76 38.448 654.384 38.596 654.904 38.892C655.424 39.188 655.828 39.62 656.116 40.188C656.524 39.628 657.048 39.2 657.688 38.904C658.328 38.6 659.052 38.448 659.86 38.448C661.364 38.448 662.5 38.852 663.268 39.66C664.036 40.468 664.42 41.668 664.42 43.26V51H661.432V44.292C661.432 43.268 661.264 42.516 660.928 42.036C660.592 41.548 660.072 41.304 659.368 41.304C658.888 41.304 658.488 41.412 658.168 41.628C657.856 41.844 657.62 42.172 657.46 42.612C657.3 43.044 657.22 43.592 657.22 44.256V51H654.232V44.292C654.232 43.26 654.068 42.504 653.74 42.024C653.412 41.544 652.892 41.304 652.18 41.304C651.452 41.304 650.912 41.54 650.56 42.012C650.208 42.484 650.032 43.216 650.032 44.208V51H647.032ZM668.196 55.872V38.736H671.196V39.636C671.868 38.844 672.768 38.448 673.896 38.448C674.944 38.448 675.848 38.708 676.608 39.228C677.368 39.74 677.952 40.476 678.36 41.436C678.768 42.396 678.972 43.54 678.972 44.868C678.972 46.156 678.76 47.284 678.336 48.252C677.912 49.212 677.316 49.96 676.548 50.496C675.78 51.024 674.884 51.288 673.86 51.288C673.3 51.288 672.796 51.188 672.348 50.988C671.9 50.78 671.516 50.476 671.196 50.076V54.516L668.196 55.872ZM673.416 48.42C674.232 48.42 674.86 48.112 675.3 47.496C675.74 46.872 675.96 45.996 675.96 44.868C675.96 43.74 675.736 42.864 675.288 42.24C674.84 41.616 674.216 41.304 673.416 41.304C672.928 41.304 672.5 41.392 672.132 41.568C671.772 41.744 671.46 42.012 671.196 42.372V47.328C671.412 47.672 671.716 47.94 672.108 48.132C672.508 48.324 672.944 48.42 673.416 48.42ZM682.191 51V35.028L685.191 33.672V51H682.191ZM694.108 51.288C692.932 51.288 691.916 51.024 691.06 50.496C690.212 49.968 689.556 49.224 689.092 48.264C688.636 47.296 688.408 46.16 688.408 44.856C688.408 43.536 688.64 42.396 689.104 41.436C689.576 40.476 690.236 39.74 691.084 39.228C691.94 38.708 692.948 38.448 694.108 38.448C695.1 38.448 696 38.656 696.808 39.072C697.616 39.488 698.26 40.128 698.74 40.992C699.22 41.848 699.46 42.94 699.46 44.268C699.46 44.476 699.452 44.732 699.436 45.036C699.428 45.332 699.408 45.632 699.376 45.936H691.372C691.404 46.496 691.532 46.988 691.756 47.412C691.988 47.828 692.304 48.152 692.704 48.384C693.104 48.616 693.576 48.732 694.12 48.732C694.704 48.732 695.212 48.636 695.644 48.444C696.076 48.244 696.484 47.928 696.868 47.496L698.596 49.284C698.068 49.884 697.432 50.368 696.688 50.736C695.944 51.104 695.084 51.288 694.108 51.288ZM691.384 43.596H696.556C696.516 43.06 696.396 42.6 696.196 42.216C695.996 41.824 695.716 41.524 695.356 41.316C694.996 41.108 694.56 41.004 694.048 41.004C693.344 41.004 692.744 41.22 692.248 41.652C691.752 42.084 691.464 42.732 691.384 43.596ZM705.874 51.288C704.898 51.288 704.166 51.02 703.678 50.484C703.19 49.948 702.946 49.148 702.946 48.084V41.364H701.158V38.736H702.946V35.1L705.922 33.672V38.736H708.706V41.364H705.922V47.544C705.922 47.928 705.998 48.212 706.15 48.396C706.31 48.58 706.558 48.672 706.894 48.672C707.486 48.672 708.134 48.488 708.838 48.12L708.49 50.736C708.122 50.92 707.722 51.056 707.29 51.144C706.858 51.24 706.386 51.288 705.874 51.288ZM716.654 51.288C715.478 51.288 714.462 51.024 713.606 50.496C712.758 49.968 712.102 49.224 711.638 48.264C711.182 47.296 710.954 46.16 710.954 44.856C710.954 43.536 711.186 42.396 711.65 41.436C712.122 40.476 712.782 39.74 713.63 39.228C714.486 38.708 715.494 38.448 716.654 38.448C717.646 38.448 718.546 38.656 719.354 39.072C720.162 39.488 720.806 40.128 721.286 40.992C721.766 41.848 722.006 42.94 722.006 44.268C722.006 44.476 721.998 44.732 721.982 45.036C721.974 45.332 721.954 45.632 721.922 45.936H713.918C713.95 46.496 714.078 46.988 714.302 47.412C714.534 47.828 714.85 48.152 715.25 48.384C715.65 48.616 716.122 48.732 716.666 48.732C717.25 48.732 717.758 48.636 718.19 48.444C718.622 48.244 719.03 47.928 719.414 47.496L721.142 49.284C720.614 49.884 719.978 50.368 719.234 50.736C718.49 51.104 717.63 51.288 716.654 51.288ZM713.93 43.596H719.102C719.062 43.06 718.942 42.6 718.742 42.216C718.542 41.824 718.262 41.524 717.902 41.316C717.542 41.108 717.106 41.004 716.594 41.004C715.89 41.004 715.29 41.22 714.794 41.652C714.298 42.084 714.01 42.732 713.93 43.596ZM729.788 51.288C728.212 51.288 726.976 50.72 726.08 49.584C725.184 48.448 724.736 46.872 724.736 44.856C724.736 43.576 724.948 42.456 725.372 41.496C725.796 40.536 726.388 39.788 727.148 39.252C727.916 38.716 728.808 38.448 729.824 38.448C730.912 38.448 731.804 38.848 732.5 39.648V35.028L735.488 33.672V51H732.5V49.992C731.908 50.856 731.004 51.288 729.788 51.288ZM730.28 48.42C730.792 48.42 731.228 48.332 731.588 48.156C731.948 47.972 732.252 47.7 732.5 47.34V42.384C732.252 42.048 731.928 41.784 731.528 41.592C731.136 41.4 730.72 41.304 730.28 41.304C729.472 41.304 728.848 41.612 728.408 42.228C727.968 42.836 727.748 43.712 727.748 44.856C727.748 45.608 727.848 46.252 728.048 46.788C728.248 47.316 728.536 47.72 728.912 48C729.288 48.28 729.744 48.42 730.28 48.42ZM745.259 51V38.736H748.259V51H745.259ZM746.759 37.2C746.279 37.2 745.863 37.028 745.511 36.684C745.167 36.332 744.995 35.916 744.995 35.436C744.995 34.956 745.167 34.548 745.511 34.212C745.855 33.868 746.271 33.696 746.759 33.696C747.263 33.696 747.683 33.864 748.019 34.2C748.355 34.536 748.523 34.948 748.523 35.436C748.523 35.924 748.351 36.34 748.007 36.684C747.671 37.028 747.255 37.2 746.759 37.2ZM752.032 51V38.736H755.032V39.912C755.424 39.424 755.892 39.06 756.436 38.82C756.988 38.572 757.616 38.448 758.32 38.448C759.688 38.448 760.744 38.872 761.488 39.72C762.232 40.56 762.604 41.772 762.604 43.356V51H759.616V44.28C759.616 43.248 759.436 42.496 759.076 42.024C758.724 41.544 758.172 41.304 757.42 41.304C756.604 41.304 756 41.544 755.608 42.024C755.224 42.496 755.032 43.232 755.032 44.232V51H752.032ZM564.359 81.288C563.311 81.288 562.359 81.104 561.503 80.736C560.647 80.368 559.911 79.848 559.295 79.176C558.687 78.496 558.231 77.696 557.927 76.776L560.747 75.732C561.107 76.5 561.607 77.132 562.247 77.628C562.895 78.116 563.623 78.36 564.431 78.36C565.287 78.36 565.967 78.18 566.471 77.82C566.983 77.46 567.239 76.936 567.239 76.248C567.239 75.776 567.087 75.384 566.783 75.072C566.487 74.752 566.083 74.48 565.571 74.256C565.067 74.024 564.495 73.8 563.855 73.584C563.239 73.376 562.619 73.144 561.995 72.888C561.371 72.632 560.799 72.32 560.279 71.952C559.759 71.576 559.339 71.104 559.019 70.536C558.707 69.968 558.551 69.272 558.551 68.448C558.551 67.624 558.771 66.868 559.211 66.18C559.651 65.492 560.287 64.944 561.119 64.536C561.959 64.12 562.975 63.912 564.167 63.912C565.143 63.912 566.007 64.08 566.759 64.416C567.519 64.744 568.147 65.192 568.643 65.76C569.139 66.328 569.483 66.972 569.675 67.692L566.891 68.616C566.667 68.112 566.323 67.692 565.859 67.356C565.403 67.012 564.783 66.84 563.999 66.84C563.263 66.84 562.691 66.984 562.283 67.272C561.875 67.56 561.671 67.968 561.671 68.496C561.671 68.856 561.807 69.164 562.079 69.42C562.359 69.668 562.731 69.892 563.195 70.092C563.667 70.292 564.199 70.496 564.791 70.704C565.455 70.928 566.115 71.184 566.771 71.472C567.435 71.752 568.035 72.096 568.571 72.504C569.115 72.912 569.551 73.42 569.879 74.028C570.207 74.628 570.371 75.364 570.371 76.236C570.371 77.308 570.103 78.22 569.567 78.972C569.039 79.724 568.323 80.3 567.419 80.7C566.515 81.092 565.495 81.288 564.359 81.288ZM573.605 81V64.2H581.249C582.649 64.2 583.753 64.444 584.561 64.932C585.377 65.412 585.957 66.048 586.301 66.84C586.653 67.632 586.829 68.484 586.829 69.396C586.829 70.028 586.705 70.668 586.457 71.316C586.217 71.964 585.849 72.548 585.353 73.068C584.857 73.588 584.233 73.972 583.481 74.22L586.793 81H583.301L580.121 74.64H576.713V81H573.605ZM576.713 71.712H581.297C581.881 71.712 582.341 71.604 582.677 71.388C583.021 71.164 583.265 70.876 583.409 70.524C583.553 70.172 583.625 69.8 583.625 69.408C583.625 69.056 583.557 68.704 583.421 68.352C583.285 68 583.049 67.708 582.713 67.476C582.377 67.244 581.905 67.128 581.297 67.128H576.713V71.712ZM593.59 81V67.188H588.826V64.2H601.486V67.188H596.698V81H593.59ZM610.954 81V71.364H609.226V68.736H610.954V66.84C610.954 65.88 611.206 65.152 611.71 64.656C612.222 64.16 612.962 63.912 613.93 63.912C614.474 63.912 614.958 63.964 615.382 64.068C615.814 64.164 616.226 64.312 616.618 64.512V66.96C616.29 66.824 615.978 66.72 615.682 66.648C615.386 66.568 615.114 66.528 614.866 66.528C614.562 66.528 614.334 66.604 614.182 66.756C614.03 66.9 613.954 67.124 613.954 67.428V68.736H616.618V71.364H613.954V81H610.954ZM623.406 81.288C621.678 81.288 620.314 80.716 619.314 79.572C618.314 78.428 617.814 76.864 617.814 74.88C617.814 73.568 618.042 72.432 618.498 71.472C618.954 70.504 619.598 69.76 620.43 69.24C621.27 68.712 622.262 68.448 623.406 68.448C624.542 68.448 625.526 68.708 626.358 69.228C627.19 69.748 627.83 70.488 628.278 71.448C628.726 72.408 628.95 73.548 628.95 74.868C628.95 76.196 628.726 77.34 628.278 78.3C627.838 79.26 627.202 80 626.37 80.52C625.538 81.032 624.55 81.288 623.406 81.288ZM623.406 78.42C624.214 78.42 624.842 78.108 625.29 77.484C625.738 76.86 625.962 75.988 625.962 74.868C625.962 73.748 625.734 72.876 625.278 72.252C624.83 71.62 624.206 71.304 623.406 71.304C622.598 71.304 621.966 71.62 621.51 72.252C621.054 72.884 620.826 73.76 620.826 74.88C620.826 75.984 621.054 76.852 621.51 77.484C621.966 78.108 622.598 78.42 623.406 78.42ZM631.821 81V68.736H634.821V70.056C635.045 69.584 635.397 69.2 635.877 68.904C636.357 68.6 636.861 68.448 637.389 68.448C638.261 68.448 638.997 68.748 639.597 69.348L639.177 72.096C638.849 71.824 638.529 71.632 638.217 71.52C637.905 71.408 637.561 71.352 637.185 71.352C636.689 71.352 636.265 71.468 635.913 71.7C635.561 71.932 635.289 72.268 635.097 72.708C634.913 73.148 634.821 73.676 634.821 74.292V81H631.821ZM641.501 81V68.736H644.501V69.876C644.893 69.38 645.333 69.02 645.821 68.796C646.317 68.564 646.877 68.448 647.501 68.448C648.229 68.448 648.853 68.596 649.373 68.892C649.893 69.188 650.297 69.62 650.585 70.188C650.993 69.628 651.517 69.2 652.157 68.904C652.797 68.6 653.521 68.448 654.329 68.448C655.833 68.448 656.969 68.852 657.737 69.66C658.505 70.468 658.889 71.668 658.889 73.26V81H655.901V74.292C655.901 73.268 655.733 72.516 655.397 72.036C655.061 71.548 654.541 71.304 653.837 71.304C653.357 71.304 652.957 71.412 652.637 71.628C652.325 71.844 652.089 72.172 651.929 72.612C651.769 73.044 651.689 73.592 651.689 74.256V81H648.701V74.292C648.701 73.26 648.537 72.504 648.209 72.024C647.881 71.544 647.361 71.304 646.649 71.304C645.921 71.304 645.381 71.54 645.029 72.012C644.677 72.484 644.501 73.216 644.501 74.208V81H641.501ZM666.172 81.288C664.836 81.288 663.776 80.928 662.992 80.208C662.216 79.48 661.828 78.496 661.828 77.256C661.828 76.456 662.028 75.756 662.428 75.156C662.836 74.548 663.4 74.08 664.12 73.752C664.848 73.416 665.696 73.248 666.664 73.248C667.2 73.248 667.716 73.3 668.212 73.404C668.716 73.5 669.156 73.64 669.532 73.824V73.056C669.532 72.368 669.336 71.852 668.944 71.508C668.56 71.156 667.992 70.98 667.24 70.98C666.64 70.98 666.024 71.088 665.392 71.304C664.76 71.52 664.12 71.84 663.472 72.264L662.572 69.9C663.276 69.436 664.06 69.08 664.924 68.832C665.788 68.576 666.66 68.448 667.54 68.448C669.188 68.448 670.42 68.84 671.236 69.624C672.052 70.4 672.46 71.56 672.46 73.104V81H669.532V80.016C669.116 80.432 668.62 80.748 668.044 80.964C667.476 81.18 666.852 81.288 666.172 81.288ZM666.868 78.756C667.364 78.756 667.84 78.66 668.296 78.468C668.76 78.268 669.172 77.988 669.532 77.628V76.176C669.188 76.008 668.804 75.88 668.38 75.792C667.964 75.696 667.548 75.648 667.132 75.648C666.388 75.648 665.8 75.792 665.368 76.08C664.944 76.36 664.732 76.752 664.732 77.256C664.732 77.728 664.92 78.096 665.296 78.36C665.672 78.624 666.196 78.756 666.868 78.756ZM679.132 81.288C678.156 81.288 677.424 81.02 676.936 80.484C676.448 79.948 676.204 79.148 676.204 78.084V71.364H674.416V68.736H676.204V65.1L679.18 63.672V68.736H681.964V71.364H679.18V77.544C679.18 77.928 679.256 78.212 679.408 78.396C679.568 78.58 679.816 78.672 680.152 78.672C680.744 78.672 681.392 78.488 682.096 78.12L681.748 80.736C681.38 80.92 680.98 81.056 680.548 81.144C680.116 81.24 679.644 81.288 679.132 81.288Z" fill="white"/>
<path d="M880 64.4402C880 64.9925 880.676 65.383 881.155 65.1068L888.845 60.6667C889.324 60.3905 889.324 59.6095 888.845 59.3333L881.155 54.8932C880.676 54.617 880 55.0075 880 55.5598V64.4402ZM810 61H881V59H810V61Z" fill="#FC00FF"/>
<path d="M976.019 51.288C974.971 51.288 974.019 51.104 973.163 50.736C972.307 50.368 971.571 49.848 970.955 49.176C970.347 48.496 969.891 47.696 969.587 46.776L972.407 45.732C972.767 46.5 973.267 47.132 973.907 47.628C974.555 48.116 975.283 48.36 976.091 48.36C976.947 48.36 977.627 48.18 978.131 47.82C978.643 47.46 978.899 46.936 978.899 46.248C978.899 45.776 978.747 45.384 978.443 45.072C978.147 44.752 977.743 44.48 977.231 44.256C976.727 44.024 976.155 43.8 975.515 43.584C974.899 43.376 974.279 43.144 973.655 42.888C973.031 42.632 972.459 42.32 971.939 41.952C971.419 41.576 970.999 41.104 970.679 40.536C970.367 39.968 970.211 39.272 970.211 38.448C970.211 37.624 970.431 36.868 970.871 36.18C971.311 35.492 971.947 34.944 972.779 34.536C973.619 34.12 974.635 33.912 975.827 33.912C976.803 33.912 977.667 34.08 978.419 34.416C979.179 34.744 979.807 35.192 980.303 35.76C980.799 36.328 981.143 36.972 981.335 37.692L978.551 38.616C978.327 38.112 977.983 37.692 977.519 37.356C977.063 37.012 976.443 36.84 975.659 36.84C974.923 36.84 974.351 36.984 973.943 37.272C973.535 37.56 973.331 37.968 973.331 38.496C973.331 38.856 973.467 39.164 973.739 39.42C974.019 39.668 974.391 39.892 974.855 40.092C975.327 40.292 975.859 40.496 976.451 40.704C977.115 40.928 977.775 41.184 978.431 41.472C979.095 41.752 979.695 42.096 980.231 42.504C980.775 42.912 981.211 43.42 981.539 44.028C981.867 44.628 982.031 45.364 982.031 46.236C982.031 47.308 981.763 48.22 981.227 48.972C980.699 49.724 979.983 50.3 979.079 50.7C978.175 51.092 977.155 51.288 976.019 51.288ZM988.487 51.288C987.511 51.288 986.779 51.02 986.291 50.484C985.803 49.948 985.559 49.148 985.559 48.084V41.364H983.771V38.736H985.559V35.1L988.535 33.672V38.736H991.319V41.364H988.535V47.544C988.535 47.928 988.611 48.212 988.763 48.396C988.923 48.58 989.171 48.672 989.507 48.672C990.099 48.672 990.747 48.488 991.451 48.12L991.103 50.736C990.735 50.92 990.335 51.056 989.903 51.144C989.471 51.24 988.999 51.288 988.487 51.288ZM997.84 51.288C996.504 51.288 995.444 50.928 994.66 50.208C993.884 49.48 993.496 48.496 993.496 47.256C993.496 46.456 993.696 45.756 994.096 45.156C994.504 44.548 995.068 44.08 995.788 43.752C996.516 43.416 997.364 43.248 998.332 43.248C998.868 43.248 999.384 43.3 999.88 43.404C1000.38 43.5 1000.82 43.64 1001.2 43.824V43.056C1001.2 42.368 1001 41.852 1000.61 41.508C1000.23 41.156 999.66 40.98 998.908 40.98C998.308 40.98 997.692 41.088 997.06 41.304C996.428 41.52 995.788 41.84 995.14 42.264L994.24 39.9C994.944 39.436 995.728 39.08 996.592 38.832C997.456 38.576 998.328 38.448 999.208 38.448C1000.86 38.448 1002.09 38.84 1002.9 39.624C1003.72 40.4 1004.13 41.56 1004.13 43.104V51H1001.2V50.016C1000.78 50.432 1000.29 50.748 999.712 50.964C999.144 51.18 998.52 51.288 997.84 51.288ZM998.536 48.756C999.032 48.756 999.508 48.66 999.964 48.468C1000.43 48.268 1000.84 47.988 1001.2 47.628V46.176C1000.86 46.008 1000.47 45.88 1000.05 45.792C999.632 45.696 999.216 45.648 998.8 45.648C998.056 45.648 997.468 45.792 997.036 46.08C996.612 46.36 996.4 46.752 996.4 47.256C996.4 47.728 996.588 48.096 996.964 48.36C997.34 48.624 997.864 48.756 998.536 48.756ZM1007.72 51V38.736H1010.72V40.056C1010.94 39.584 1011.29 39.2 1011.77 38.904C1012.25 38.6 1012.76 38.448 1013.28 38.448C1014.16 38.448 1014.89 38.748 1015.49 39.348L1015.07 42.096C1014.74 41.824 1014.42 41.632 1014.11 41.52C1013.8 41.408 1013.46 41.352 1013.08 41.352C1012.58 41.352 1012.16 41.468 1011.81 41.7C1011.46 41.932 1011.18 42.268 1010.99 42.708C1010.81 43.148 1010.72 43.676 1010.72 44.292V51H1007.72ZM1021.39 51.288C1020.42 51.288 1019.69 51.02 1019.2 50.484C1018.71 49.948 1018.47 49.148 1018.47 48.084V41.364H1016.68V38.736H1018.47V35.1L1021.44 33.672V38.736H1024.23V41.364H1021.44V47.544C1021.44 47.928 1021.52 48.212 1021.67 48.396C1021.83 48.58 1022.08 48.672 1022.41 48.672C1023.01 48.672 1023.65 48.488 1024.36 48.12L1024.01 50.736C1023.64 50.92 1023.24 51.056 1022.81 51.144C1022.38 51.24 1021.91 51.288 1021.39 51.288ZM1036.82 51.288C1035.84 51.288 1035.11 51.02 1034.62 50.484C1034.13 49.948 1033.89 49.148 1033.89 48.084V41.364H1032.1V38.736H1033.89V35.1L1036.86 33.672V38.736H1039.65V41.364H1036.86V47.544C1036.86 47.928 1036.94 48.212 1037.09 48.396C1037.25 48.58 1037.5 48.672 1037.84 48.672C1038.43 48.672 1039.08 48.488 1039.78 48.12L1039.43 50.736C1039.06 50.92 1038.66 51.056 1038.23 51.144C1037.8 51.24 1037.33 51.288 1036.82 51.288ZM1046.17 51.288C1044.83 51.288 1043.77 50.928 1042.99 50.208C1042.21 49.48 1041.82 48.496 1041.82 47.256C1041.82 46.456 1042.02 45.756 1042.42 45.156C1042.83 44.548 1043.4 44.08 1044.12 43.752C1044.84 43.416 1045.69 43.248 1046.66 43.248C1047.2 43.248 1047.71 43.3 1048.21 43.404C1048.71 43.5 1049.15 43.64 1049.53 43.824V43.056C1049.53 42.368 1049.33 41.852 1048.94 41.508C1048.56 41.156 1047.99 40.98 1047.24 40.98C1046.64 40.98 1046.02 41.088 1045.39 41.304C1044.76 41.52 1044.12 41.84 1043.47 42.264L1042.57 39.9C1043.27 39.436 1044.06 39.08 1044.92 38.832C1045.78 38.576 1046.66 38.448 1047.54 38.448C1049.18 38.448 1050.42 38.84 1051.23 39.624C1052.05 40.4 1052.46 41.56 1052.46 43.104V51H1049.53V50.016C1049.11 50.432 1048.62 50.748 1048.04 50.964C1047.47 51.18 1046.85 51.288 1046.17 51.288ZM1046.86 48.756C1047.36 48.756 1047.84 48.66 1048.29 48.468C1048.76 48.268 1049.17 47.988 1049.53 47.628V46.176C1049.18 46.008 1048.8 45.88 1048.38 45.792C1047.96 45.696 1047.54 45.648 1047.13 45.648C1046.38 45.648 1045.8 45.792 1045.36 46.08C1044.94 46.36 1044.73 46.752 1044.73 47.256C1044.73 47.728 1044.92 48.096 1045.29 48.36C1045.67 48.624 1046.19 48.756 1046.86 48.756ZM1056.04 51V38.736H1059.04V40.056C1059.27 39.584 1059.62 39.2 1060.1 38.904C1060.58 38.6 1061.08 38.448 1061.61 38.448C1062.48 38.448 1063.22 38.748 1063.82 39.348L1063.4 42.096C1063.07 41.824 1062.75 41.632 1062.44 41.52C1062.13 41.408 1061.78 41.352 1061.41 41.352C1060.91 41.352 1060.49 41.468 1060.14 41.7C1059.78 41.932 1059.51 42.268 1059.32 42.708C1059.14 43.148 1059.04 43.676 1059.04 44.292V51H1056.04ZM1069.73 56.112L1068.07 53.604C1069.24 53.516 1070.14 53.384 1070.78 53.208C1071.43 53.032 1071.88 52.78 1072.14 52.452C1072.4 52.124 1072.52 51.696 1072.52 51.168V50.28C1071.9 50.952 1071.02 51.288 1069.88 51.288C1068.82 51.288 1067.9 51.032 1067.14 50.52C1066.37 50 1065.78 49.26 1065.36 48.3C1064.95 47.332 1064.75 46.184 1064.75 44.856C1064.75 43.56 1064.96 42.432 1065.38 41.472C1065.82 40.512 1066.42 39.768 1067.18 39.24C1067.96 38.712 1068.87 38.448 1069.91 38.448C1070.45 38.448 1070.95 38.532 1071.4 38.7C1071.85 38.868 1072.23 39.112 1072.52 39.432V38.736H1075.51V49.896C1075.51 50.984 1075.41 51.904 1075.21 52.656C1075.01 53.408 1074.68 54.024 1074.23 54.504C1073.78 54.984 1073.19 55.348 1072.45 55.596C1071.72 55.852 1070.81 56.024 1069.73 56.112ZM1070.38 48.42C1070.8 48.42 1071.2 48.324 1071.56 48.132C1071.94 47.932 1072.26 47.664 1072.52 47.328V42.384C1072.3 42.072 1071.99 41.816 1071.6 41.616C1071.21 41.408 1070.81 41.304 1070.41 41.304C1069.55 41.304 1068.89 41.608 1068.43 42.216C1067.98 42.816 1067.76 43.696 1067.76 44.856C1067.76 45.608 1067.86 46.252 1068.06 46.788C1068.27 47.316 1068.57 47.72 1068.96 48C1069.35 48.28 1069.82 48.42 1070.38 48.42ZM1084.06 51.288C1082.89 51.288 1081.87 51.024 1081.02 50.496C1080.17 49.968 1079.51 49.224 1079.05 48.264C1078.59 47.296 1078.36 46.16 1078.36 44.856C1078.36 43.536 1078.6 42.396 1079.06 41.436C1079.53 40.476 1080.19 39.74 1081.04 39.228C1081.9 38.708 1082.9 38.448 1084.06 38.448C1085.06 38.448 1085.96 38.656 1086.76 39.072C1087.57 39.488 1088.22 40.128 1088.7 40.992C1089.18 41.848 1089.42 42.94 1089.42 44.268C1089.42 44.476 1089.41 44.732 1089.39 45.036C1089.38 45.332 1089.36 45.632 1089.33 45.936H1081.33C1081.36 46.496 1081.49 46.988 1081.71 47.412C1081.94 47.828 1082.26 48.152 1082.66 48.384C1083.06 48.616 1083.53 48.732 1084.08 48.732C1084.66 48.732 1085.17 48.636 1085.6 48.444C1086.03 48.244 1086.44 47.928 1086.82 47.496L1088.55 49.284C1088.02 49.884 1087.39 50.368 1086.64 50.736C1085.9 51.104 1085.04 51.288 1084.06 51.288ZM1081.34 43.596H1086.51C1086.47 43.06 1086.35 42.6 1086.15 42.216C1085.95 41.824 1085.67 41.524 1085.31 41.316C1084.95 41.108 1084.52 41.004 1084 41.004C1083.3 41.004 1082.7 41.22 1082.2 41.652C1081.71 42.084 1081.42 42.732 1081.34 43.596ZM1095.83 51.288C1094.85 51.288 1094.12 51.02 1093.63 50.484C1093.15 49.948 1092.9 49.148 1092.9 48.084V41.364H1091.11V38.736H1092.9V35.1L1095.88 33.672V38.736H1098.66V41.364H1095.88V47.544C1095.88 47.928 1095.95 48.212 1096.11 48.396C1096.27 48.58 1096.51 48.672 1096.85 48.672C1097.44 48.672 1098.09 48.488 1098.79 48.12L1098.45 50.736C1098.08 50.92 1097.68 51.056 1097.25 51.144C1096.81 51.24 1096.34 51.288 1095.83 51.288ZM1101.23 51V38.736H1104.23V51H1101.23ZM1102.73 37.2C1102.25 37.2 1101.84 37.028 1101.48 36.684C1101.14 36.332 1100.97 35.916 1100.97 35.436C1100.97 34.956 1101.14 34.548 1101.48 34.212C1101.83 33.868 1102.24 33.696 1102.73 33.696C1103.24 33.696 1103.66 33.864 1103.99 34.2C1104.33 34.536 1104.5 34.948 1104.5 35.436C1104.5 35.924 1104.32 36.34 1103.98 36.684C1103.64 37.028 1103.23 37.2 1102.73 37.2ZM1108 51V38.736H1111V39.912C1111.4 39.424 1111.86 39.06 1112.41 38.82C1112.96 38.572 1113.59 38.448 1114.29 38.448C1115.66 38.448 1116.72 38.872 1117.46 39.72C1118.2 40.56 1118.58 41.772 1118.58 43.356V51H1115.59V44.28C1115.59 43.248 1115.41 42.496 1115.05 42.024C1114.7 41.544 1114.14 41.304 1113.39 41.304C1112.58 41.304 1111.97 41.544 1111.58 42.024C1111.2 42.496 1111 43.232 1111 44.232V51H1108ZM1126.66 56.112L1125 53.604C1126.17 53.516 1127.07 53.384 1127.71 53.208C1128.36 53.032 1128.81 52.78 1129.07 52.452C1129.33 52.124 1129.45 51.696 1129.45 51.168V50.28C1128.83 50.952 1127.95 51.288 1126.81 51.288C1125.75 51.288 1124.83 51.032 1124.07 50.52C1123.3 50 1122.71 49.26 1122.29 48.3C1121.88 47.332 1121.68 46.184 1121.68 44.856C1121.68 43.56 1121.89 42.432 1122.31 41.472C1122.75 40.512 1123.35 39.768 1124.11 39.24C1124.89 38.712 1125.8 38.448 1126.84 38.448C1127.38 38.448 1127.88 38.532 1128.33 38.7C1128.78 38.868 1129.16 39.112 1129.45 39.432V38.736H1132.44V49.896C1132.44 50.984 1132.34 51.904 1132.14 52.656C1131.94 53.408 1131.61 54.024 1131.16 54.504C1130.71 54.984 1130.12 55.348 1129.38 55.596C1128.65 55.852 1127.74 56.024 1126.66 56.112ZM1127.31 48.42C1127.73 48.42 1128.13 48.324 1128.49 48.132C1128.87 47.932 1129.19 47.664 1129.45 47.328V42.384C1129.23 42.072 1128.92 41.816 1128.53 41.616C1128.14 41.408 1127.74 41.304 1127.34 41.304C1126.48 41.304 1125.82 41.608 1125.36 42.216C1124.91 42.816 1124.69 43.696 1124.69 44.856C1124.69 45.608 1124.79 46.252 1124.99 46.788C1125.2 47.316 1125.5 47.72 1125.89 48C1126.28 48.28 1126.75 48.42 1127.31 48.42ZM1143.71 55.656L1145.57 50.784L1140.98 38.736H1144.06L1146.74 45.912C1146.81 46.08 1146.88 46.264 1146.94 46.464C1147 46.664 1147.06 46.864 1147.12 47.064C1147.17 46.864 1147.22 46.668 1147.29 46.476C1147.36 46.276 1147.43 46.088 1147.5 45.912L1150.18 38.736H1153.26L1146.81 55.656H1143.71ZM1160.46 51.288C1158.73 51.288 1157.36 50.716 1156.36 49.572C1155.36 48.428 1154.86 46.864 1154.86 44.88C1154.86 43.568 1155.09 42.432 1155.55 41.472C1156 40.504 1156.65 39.76 1157.48 39.24C1158.32 38.712 1159.31 38.448 1160.46 38.448C1161.59 38.448 1162.58 38.708 1163.41 39.228C1164.24 39.748 1164.88 40.488 1165.33 41.448C1165.78 42.408 1166 43.548 1166 44.868C1166 46.196 1165.78 47.34 1165.33 48.3C1164.89 49.26 1164.25 50 1163.42 50.52C1162.59 51.032 1161.6 51.288 1160.46 51.288ZM1160.46 48.42C1161.26 48.42 1161.89 48.108 1162.34 47.484C1162.79 46.86 1163.01 45.988 1163.01 44.868C1163.01 43.748 1162.78 42.876 1162.33 42.252C1161.88 41.62 1161.26 41.304 1160.46 41.304C1159.65 41.304 1159.02 41.62 1158.56 42.252C1158.1 42.884 1157.88 43.76 1157.88 44.88C1157.88 45.984 1158.1 46.852 1158.56 47.484C1159.02 48.108 1159.65 48.42 1160.46 48.42ZM1173.29 51.288C1171.93 51.288 1170.87 50.864 1170.11 50.016C1169.36 49.16 1168.99 47.952 1168.99 46.392V38.736H1171.99V45.456C1171.99 46.488 1172.16 47.24 1172.51 47.712C1172.87 48.184 1173.42 48.42 1174.18 48.42C1175 48.42 1175.6 48.184 1175.98 47.712C1176.37 47.232 1176.57 46.496 1176.57 45.504V38.736H1179.56V51H1176.57V49.848C1176.19 50.328 1175.73 50.688 1175.18 50.928C1174.63 51.168 1174.01 51.288 1173.29 51.288ZM1183.33 51V38.736H1186.33V40.056C1186.56 39.584 1186.91 39.2 1187.39 38.904C1187.87 38.6 1188.37 38.448 1188.9 38.448C1189.77 38.448 1190.51 38.748 1191.11 39.348L1190.69 42.096C1190.36 41.824 1190.04 41.632 1189.73 41.52C1189.42 41.408 1189.07 41.352 1188.7 41.352C1188.2 41.352 1187.78 41.468 1187.42 41.7C1187.07 41.932 1186.8 42.268 1186.61 42.708C1186.42 43.148 1186.33 43.676 1186.33 44.292V51H1183.33ZM955.896 81V68.736H958.896V81H955.896ZM957.396 67.2C956.916 67.2 956.5 67.028 956.148 66.684C955.804 66.332 955.632 65.916 955.632 65.436C955.632 64.956 955.804 64.548 956.148 64.212C956.492 63.868 956.908 63.696 957.396 63.696C957.9 63.696 958.32 63.864 958.656 64.2C958.992 64.536 959.16 64.948 959.16 65.436C959.16 65.924 958.988 66.34 958.644 66.684C958.308 67.028 957.892 67.2 957.396 67.2ZM962.669 81V68.736H965.669V69.912C966.061 69.424 966.529 69.06 967.073 68.82C967.625 68.572 968.253 68.448 968.957 68.448C970.325 68.448 971.381 68.872 972.125 69.72C972.869 70.56 973.241 71.772 973.241 73.356V81H970.253V74.28C970.253 73.248 970.073 72.496 969.713 72.024C969.361 71.544 968.809 71.304 968.057 71.304C967.241 71.304 966.637 71.544 966.245 72.024C965.861 72.496 965.669 73.232 965.669 74.232V81H962.669ZM980.096 81.288C979.12 81.288 978.388 81.02 977.9 80.484C977.412 79.948 977.168 79.148 977.168 78.084V71.364H975.38V68.736H977.168V65.1L980.144 63.672V68.736H982.928V71.364H980.144V77.544C980.144 77.928 980.22 78.212 980.372 78.396C980.532 78.58 980.78 78.672 981.116 78.672C981.708 78.672 982.356 78.488 983.06 78.12L982.712 80.736C982.344 80.92 981.944 81.056 981.512 81.144C981.08 81.24 980.608 81.288 980.096 81.288ZM990.877 81.288C989.701 81.288 988.685 81.024 987.829 80.496C986.981 79.968 986.325 79.224 985.861 78.264C985.405 77.296 985.177 76.16 985.177 74.856C985.177 73.536 985.409 72.396 985.873 71.436C986.345 70.476 987.005 69.74 987.853 69.228C988.709 68.708 989.717 68.448 990.877 68.448C991.869 68.448 992.769 68.656 993.577 69.072C994.385 69.488 995.029 70.128 995.509 70.992C995.989 71.848 996.229 72.94 996.229 74.268C996.229 74.476 996.221 74.732 996.205 75.036C996.197 75.332 996.177 75.632 996.145 75.936H988.141C988.173 76.496 988.301 76.988 988.525 77.412C988.757 77.828 989.073 78.152 989.473 78.384C989.873 78.616 990.345 78.732 990.889 78.732C991.473 78.732 991.981 78.636 992.413 78.444C992.845 78.244 993.253 77.928 993.637 77.496L995.365 79.284C994.837 79.884 994.201 80.368 993.457 80.736C992.713 81.104 991.853 81.288 990.877 81.288ZM988.153 73.596H993.325C993.285 73.06 993.165 72.6 992.965 72.216C992.765 71.824 992.485 71.524 992.125 71.316C991.765 71.108 991.329 71.004 990.817 71.004C990.113 71.004 989.513 71.22 989.017 71.652C988.521 72.084 988.233 72.732 988.153 73.596ZM999.255 81V68.736H1002.25V70.056C1002.48 69.584 1002.83 69.2 1003.31 68.904C1003.79 68.6 1004.29 68.448 1004.82 68.448C1005.69 68.448 1006.43 68.748 1007.03 69.348L1006.61 72.096C1006.28 71.824 1005.96 71.632 1005.65 71.52C1005.34 71.408 1004.99 71.352 1004.62 71.352C1004.12 71.352 1003.7 71.468 1003.35 71.7C1002.99 71.932 1002.72 72.268 1002.53 72.708C1002.35 73.148 1002.25 73.676 1002.25 74.292V81H999.255ZM1008.93 81V68.736H1011.93V69.912C1012.33 69.424 1012.79 69.06 1013.34 68.82C1013.89 68.572 1014.52 68.448 1015.22 68.448C1016.59 68.448 1017.65 68.872 1018.39 69.72C1019.13 70.56 1019.51 71.772 1019.51 73.356V81H1016.52V74.28C1016.52 73.248 1016.34 72.496 1015.98 72.024C1015.63 71.544 1015.07 71.304 1014.32 71.304C1013.51 71.304 1012.9 71.544 1012.51 72.024C1012.13 72.496 1011.93 73.232 1011.93 74.232V81H1008.93ZM1026.79 81.288C1025.45 81.288 1024.39 80.928 1023.61 80.208C1022.83 79.48 1022.44 78.496 1022.44 77.256C1022.44 76.456 1022.64 75.756 1023.04 75.156C1023.45 74.548 1024.01 74.08 1024.73 73.752C1025.46 73.416 1026.31 73.248 1027.28 73.248C1027.81 73.248 1028.33 73.3 1028.83 73.404C1029.33 73.5 1029.77 73.64 1030.15 73.824V73.056C1030.15 72.368 1029.95 71.852 1029.56 71.508C1029.17 71.156 1028.61 70.98 1027.85 70.98C1027.25 70.98 1026.64 71.088 1026.01 71.304C1025.37 71.52 1024.73 71.84 1024.09 72.264L1023.19 69.9C1023.89 69.436 1024.67 69.08 1025.54 68.832C1026.4 68.576 1027.27 68.448 1028.15 68.448C1029.8 68.448 1031.03 68.84 1031.85 69.624C1032.67 70.4 1033.07 71.56 1033.07 73.104V81H1030.15V80.016C1029.73 80.432 1029.23 80.748 1028.66 80.964C1028.09 81.18 1027.47 81.288 1026.79 81.288ZM1027.48 78.756C1027.98 78.756 1028.45 78.66 1028.91 78.468C1029.37 78.268 1029.79 77.988 1030.15 77.628V76.176C1029.8 76.008 1029.42 75.88 1028.99 75.792C1028.58 75.696 1028.16 75.648 1027.75 75.648C1027 75.648 1026.41 75.792 1025.98 76.08C1025.56 76.36 1025.35 76.752 1025.35 77.256C1025.35 77.728 1025.53 78.096 1025.91 78.36C1026.29 78.624 1026.81 78.756 1027.48 78.756ZM1039.74 81.288C1038.77 81.288 1038.04 81.02 1037.55 80.484C1037.06 79.948 1036.82 79.148 1036.82 78.084V71.364H1035.03V68.736H1036.82V65.1L1039.79 63.672V68.736H1042.58V71.364H1039.79V77.544C1039.79 77.928 1039.87 78.212 1040.02 78.396C1040.18 78.58 1040.43 78.672 1040.76 78.672C1041.36 78.672 1042 78.488 1042.71 78.12L1042.36 80.736C1041.99 80.92 1041.59 81.056 1041.16 81.144C1040.73 81.24 1040.26 81.288 1039.74 81.288ZM1045.15 81V68.736H1048.15V81H1045.15ZM1046.65 67.2C1046.17 67.2 1045.75 67.028 1045.4 66.684C1045.05 66.332 1044.88 65.916 1044.88 65.436C1044.88 64.956 1045.05 64.548 1045.4 64.212C1045.74 63.868 1046.16 63.696 1046.65 63.696C1047.15 63.696 1047.57 63.864 1047.91 64.2C1048.24 64.536 1048.41 64.948 1048.41 65.436C1048.41 65.924 1048.24 66.34 1047.89 66.684C1047.56 67.028 1047.14 67.2 1046.65 67.2ZM1056.86 81.288C1055.13 81.288 1053.77 80.716 1052.77 79.572C1051.77 78.428 1051.27 76.864 1051.27 74.88C1051.27 73.568 1051.5 72.432 1051.95 71.472C1052.41 70.504 1053.05 69.76 1053.89 69.24C1054.73 68.712 1055.72 68.448 1056.86 68.448C1058 68.448 1058.98 68.708 1059.81 69.228C1060.65 69.748 1061.29 70.488 1061.73 71.448C1062.18 72.408 1062.41 73.548 1062.41 74.868C1062.41 76.196 1062.18 77.34 1061.73 78.3C1061.29 79.26 1060.66 80 1059.83 80.52C1058.99 81.032 1058.01 81.288 1056.86 81.288ZM1056.86 78.42C1057.67 78.42 1058.3 78.108 1058.75 77.484C1059.19 76.86 1059.42 75.988 1059.42 74.868C1059.42 73.748 1059.19 72.876 1058.73 72.252C1058.29 71.62 1057.66 71.304 1056.86 71.304C1056.05 71.304 1055.42 71.62 1054.97 72.252C1054.51 72.884 1054.28 73.76 1054.28 74.88C1054.28 75.984 1054.51 76.852 1054.97 77.484C1055.42 78.108 1056.05 78.42 1056.86 78.42ZM1065.28 81V68.736H1068.28V69.912C1068.67 69.424 1069.14 69.06 1069.68 68.82C1070.23 68.572 1070.86 68.448 1071.57 68.448C1072.93 68.448 1073.99 68.872 1074.73 69.72C1075.48 70.56 1075.85 71.772 1075.85 73.356V81H1072.86V74.28C1072.86 73.248 1072.68 72.496 1072.32 72.024C1071.97 71.544 1071.42 71.304 1070.67 71.304C1069.85 71.304 1069.25 71.544 1068.85 72.024C1068.47 72.496 1068.28 73.232 1068.28 74.232V81H1065.28ZM1083.13 81.288C1081.79 81.288 1080.73 80.928 1079.95 80.208C1079.17 79.48 1078.78 78.496 1078.78 77.256C1078.78 76.456 1078.98 75.756 1079.38 75.156C1079.79 74.548 1080.36 74.08 1081.08 73.752C1081.8 73.416 1082.65 73.248 1083.62 73.248C1084.16 73.248 1084.67 73.3 1085.17 73.404C1085.67 73.5 1086.11 73.64 1086.49 73.824V73.056C1086.49 72.368 1086.29 71.852 1085.9 71.508C1085.52 71.156 1084.95 70.98 1084.2 70.98C1083.6 70.98 1082.98 71.088 1082.35 71.304C1081.72 71.52 1081.08 71.84 1080.43 72.264L1079.53 69.9C1080.23 69.436 1081.02 69.08 1081.88 68.832C1082.74 68.576 1083.62 68.448 1084.5 68.448C1086.14 68.448 1087.38 68.84 1088.19 69.624C1089.01 70.4 1089.42 71.56 1089.42 73.104V81H1086.49V80.016C1086.07 80.432 1085.58 80.748 1085 80.964C1084.43 81.18 1083.81 81.288 1083.13 81.288ZM1083.82 78.756C1084.32 78.756 1084.8 78.66 1085.25 78.468C1085.72 78.268 1086.13 77.988 1086.49 77.628V76.176C1086.14 76.008 1085.76 75.88 1085.34 75.792C1084.92 75.696 1084.5 75.648 1084.09 75.648C1083.34 75.648 1082.76 75.792 1082.32 76.08C1081.9 76.36 1081.69 76.752 1081.69 77.256C1081.69 77.728 1081.88 78.096 1082.25 78.36C1082.63 78.624 1083.15 78.756 1083.82 78.756ZM1092.98 81V65.028L1095.98 63.672V81H1092.98ZM1109.47 81.288C1108.14 81.288 1107.08 80.928 1106.29 80.208C1105.52 79.48 1105.13 78.496 1105.13 77.256C1105.13 76.456 1105.33 75.756 1105.73 75.156C1106.14 74.548 1106.7 74.08 1107.42 73.752C1108.15 73.416 1109 73.248 1109.96 73.248C1110.5 73.248 1111.02 73.3 1111.51 73.404C1112.02 73.5 1112.46 73.64 1112.83 73.824V73.056C1112.83 72.368 1112.64 71.852 1112.24 71.508C1111.86 71.156 1111.29 70.98 1110.54 70.98C1109.94 70.98 1109.32 71.088 1108.69 71.304C1108.06 71.52 1107.42 71.84 1106.77 72.264L1105.87 69.9C1106.58 69.436 1107.36 69.08 1108.22 68.832C1109.09 68.576 1109.96 68.448 1110.84 68.448C1112.49 68.448 1113.72 68.84 1114.54 69.624C1115.35 70.4 1115.76 71.56 1115.76 73.104V81H1112.83V80.016C1112.42 80.432 1111.92 80.748 1111.34 80.964C1110.78 81.18 1110.15 81.288 1109.47 81.288ZM1110.17 78.756C1110.66 78.756 1111.14 78.66 1111.6 78.468C1112.06 78.268 1112.47 77.988 1112.83 77.628V76.176C1112.49 76.008 1112.1 75.88 1111.68 75.792C1111.26 75.696 1110.85 75.648 1110.43 75.648C1109.69 75.648 1109.1 75.792 1108.67 76.08C1108.24 76.36 1108.03 76.752 1108.03 77.256C1108.03 77.728 1108.22 78.096 1108.6 78.36C1108.97 78.624 1109.5 78.756 1110.17 78.756ZM1123.4 81.288C1122.03 81.288 1120.97 80.864 1120.22 80.016C1119.46 79.16 1119.09 77.952 1119.09 76.392V68.736H1122.09V75.456C1122.09 76.488 1122.26 77.24 1122.62 77.712C1122.97 78.184 1123.52 78.42 1124.28 78.42C1125.1 78.42 1125.7 78.184 1126.08 77.712C1126.48 77.232 1126.67 76.496 1126.67 75.504V68.736H1129.66V81H1126.67V79.848C1126.3 80.328 1125.83 80.688 1125.28 80.928C1124.74 81.168 1124.11 81.288 1123.4 81.288ZM1137.58 81.288C1136 81.288 1134.77 80.72 1133.87 79.584C1132.98 78.448 1132.53 76.872 1132.53 74.856C1132.53 73.576 1132.74 72.456 1133.16 71.496C1133.59 70.536 1134.18 69.788 1134.94 69.252C1135.71 68.716 1136.6 68.448 1137.62 68.448C1138.7 68.448 1139.6 68.848 1140.29 69.648V65.028L1143.28 63.672V81H1140.29V79.992C1139.7 80.856 1138.8 81.288 1137.58 81.288ZM1138.07 78.42C1138.58 78.42 1139.02 78.332 1139.38 78.156C1139.74 77.972 1140.04 77.7 1140.29 77.34V72.384C1140.04 72.048 1139.72 71.784 1139.32 71.592C1138.93 71.4 1138.51 71.304 1138.07 71.304C1137.26 71.304 1136.64 71.612 1136.2 72.228C1135.76 72.836 1135.54 73.712 1135.54 74.856C1135.54 75.608 1135.64 76.252 1135.84 76.788C1136.04 77.316 1136.33 77.72 1136.7 78C1137.08 78.28 1137.54 78.42 1138.07 78.42ZM1147.05 81V68.736H1150.05V81H1147.05ZM1148.55 67.2C1148.07 67.2 1147.66 67.028 1147.3 66.684C1146.96 66.332 1146.79 65.916 1146.79 65.436C1146.79 64.956 1146.96 64.548 1147.3 64.212C1147.65 63.868 1148.06 63.696 1148.55 63.696C1149.06 63.696 1149.48 63.864 1149.81 64.2C1150.15 64.536 1150.32 64.948 1150.32 65.436C1150.32 65.924 1150.14 66.34 1149.8 66.684C1149.46 67.028 1149.05 67.2 1148.55 67.2ZM1158.88 81.288C1157.7 81.288 1156.69 81.024 1155.83 80.496C1154.98 79.968 1154.33 79.224 1153.86 78.264C1153.41 77.296 1153.18 76.16 1153.18 74.856C1153.18 73.536 1153.41 72.396 1153.87 71.436C1154.35 70.476 1155.01 69.74 1155.85 69.228C1156.71 68.708 1157.72 68.448 1158.88 68.448C1159.87 68.448 1160.77 68.656 1161.58 69.072C1162.39 69.488 1163.03 70.128 1163.51 70.992C1163.99 71.848 1164.23 72.94 1164.23 74.268C1164.23 74.476 1164.22 74.732 1164.21 75.036C1164.2 75.332 1164.18 75.632 1164.15 75.936H1156.14C1156.17 76.496 1156.3 76.988 1156.53 77.412C1156.76 77.828 1157.07 78.152 1157.47 78.384C1157.87 78.616 1158.35 78.732 1158.89 78.732C1159.47 78.732 1159.98 78.636 1160.41 78.444C1160.85 78.244 1161.25 77.928 1161.64 77.496L1163.37 79.284C1162.84 79.884 1162.2 80.368 1161.46 80.736C1160.71 81.104 1159.85 81.288 1158.88 81.288ZM1156.15 73.596H1161.33C1161.29 73.06 1161.17 72.6 1160.97 72.216C1160.77 71.824 1160.49 71.524 1160.13 71.316C1159.77 71.108 1159.33 71.004 1158.82 71.004C1158.11 71.004 1157.51 71.22 1157.02 71.652C1156.52 72.084 1156.23 72.732 1156.15 73.596ZM1167.25 81V68.736H1170.25V69.912C1170.65 69.424 1171.11 69.06 1171.66 68.82C1172.21 68.572 1172.84 68.448 1173.54 68.448C1174.91 68.448 1175.97 68.872 1176.71 69.72C1177.45 70.56 1177.83 71.772 1177.83 73.356V81H1174.84V74.28C1174.84 73.248 1174.66 72.496 1174.3 72.024C1173.95 71.544 1173.39 71.304 1172.64 71.304C1171.83 71.304 1171.22 71.544 1170.83 72.024C1170.45 72.496 1170.25 73.232 1170.25 74.232V81H1167.25ZM1186.44 81.288C1185.31 81.288 1184.33 81.028 1183.51 80.508C1182.68 79.988 1182.05 79.252 1181.6 78.3C1181.15 77.34 1180.93 76.2 1180.93 74.88C1180.93 73.56 1181.15 72.42 1181.6 71.46C1182.06 70.5 1182.7 69.76 1183.53 69.24C1184.36 68.712 1185.34 68.448 1186.47 68.448C1187.74 68.448 1188.8 68.744 1189.64 69.336C1190.49 69.92 1191.1 70.788 1191.48 71.94L1188.63 72.9C1188.44 72.388 1188.16 71.996 1187.79 71.724C1187.42 71.444 1187 71.304 1186.52 71.304C1185.74 71.304 1185.12 71.624 1184.66 72.264C1184.2 72.904 1183.98 73.776 1183.98 74.88C1183.98 75.968 1184.2 76.832 1184.65 77.472C1185.1 78.112 1185.7 78.432 1186.46 78.432C1187 78.432 1187.45 78.28 1187.83 77.976C1188.21 77.672 1188.5 77.228 1188.68 76.644L1191.51 77.496C1191.15 78.752 1190.54 79.7 1189.68 80.34C1188.82 80.972 1187.74 81.288 1186.44 81.288ZM1199.56 81.288C1198.39 81.288 1197.37 81.024 1196.52 80.496C1195.67 79.968 1195.01 79.224 1194.55 78.264C1194.09 77.296 1193.86 76.16 1193.86 74.856C1193.86 73.536 1194.1 72.396 1194.56 71.436C1195.03 70.476 1195.69 69.74 1196.54 69.228C1197.4 68.708 1198.4 68.448 1199.56 68.448C1200.56 68.448 1201.46 68.656 1202.26 69.072C1203.07 69.488 1203.72 70.128 1204.2 70.992C1204.68 71.848 1204.92 72.94 1204.92 74.268C1204.92 74.476 1204.91 74.732 1204.89 75.036C1204.88 75.332 1204.86 75.632 1204.83 75.936H1196.83C1196.86 76.496 1196.99 76.988 1197.21 77.412C1197.44 77.828 1197.76 78.152 1198.16 78.384C1198.56 78.616 1199.03 78.732 1199.58 78.732C1200.16 78.732 1200.67 78.636 1201.1 78.444C1201.53 78.244 1201.94 77.928 1202.32 77.496L1204.05 79.284C1203.52 79.884 1202.89 80.368 1202.14 80.736C1201.4 81.104 1200.54 81.288 1199.56 81.288ZM1196.84 73.596H1202.01C1201.97 73.06 1201.85 72.6 1201.65 72.216C1201.45 71.824 1201.17 71.524 1200.81 71.316C1200.45 71.108 1200.02 71.004 1199.5 71.004C1198.8 71.004 1198.2 71.22 1197.7 71.652C1197.21 72.084 1196.92 72.732 1196.84 73.596Z" fill="white"/>
</svg>
