<svg width="1240" height="61" viewBox="0 0 1240 61" fill="none" xmlns="http://www.w3.org/2000/svg">
<path d="M22.1417 21.8857C20.7337 21.8857 19.5297 21.6257 18.5297 21.1057C17.5377 20.5777 16.7777 19.8137 16.2497 18.8137C15.7297 17.8137 15.4697 16.6057 15.4697 15.1897V4.79766H18.5777V15.1897C18.5777 16.4617 18.8617 17.3977 19.4297 17.9977C19.9977 18.5977 20.9017 18.8977 22.1417 18.8977C22.9257 18.8977 23.5817 18.7737 24.1097 18.5257C24.6377 18.2777 25.0337 17.8817 25.2977 17.3377C25.5617 16.7857 25.6937 16.0697 25.6937 15.1897V4.79766H28.8137V15.1897C28.8137 16.3737 28.6377 17.3897 28.2857 18.2377C27.9417 19.0857 27.4617 19.7817 26.8457 20.3257C26.2377 20.8617 25.5297 21.2577 24.7217 21.5137C23.9137 21.7617 23.0537 21.8857 22.1417 21.8857ZM32.5556 26.4697V9.33366H35.5556V10.2337C36.2276 9.44166 37.1276 9.04566 38.2556 9.04566C39.3036 9.04566 40.2076 9.30566 40.9676 9.82566C41.7276 10.3377 42.3116 11.0737 42.7196 12.0337C43.1276 12.9937 43.3316 14.1377 43.3316 15.4657C43.3316 16.7537 43.1196 17.8817 42.6956 18.8497C42.2716 19.8097 41.6756 20.5577 40.9076 21.0937C40.1396 21.6217 39.2436 21.8857 38.2196 21.8857C37.6596 21.8857 37.1556 21.7857 36.7076 21.5857C36.2596 21.3777 35.8756 21.0737 35.5556 20.6737V25.1137L32.5556 26.4697ZM37.7756 19.0177C38.5916 19.0177 39.2196 18.7097 39.6596 18.0937C40.0996 17.4697 40.3196 16.5937 40.3196 15.4657C40.3196 14.3377 40.0956 13.4617 39.6476 12.8377C39.1996 12.2137 38.5756 11.9017 37.7756 11.9017C37.2876 11.9017 36.8596 11.9897 36.4916 12.1657C36.1316 12.3417 35.8196 12.6097 35.5556 12.9697V17.9257C35.7716 18.2697 36.0756 18.5377 36.4676 18.7297C36.8676 18.9217 37.3036 19.0177 37.7756 19.0177ZM46.5506 21.5977V5.62566L49.5506 4.26965V21.5977H46.5506ZM58.359 21.8857C56.631 21.8857 55.267 21.3137 54.267 20.1697C53.267 19.0257 52.767 17.4617 52.767 15.4777C52.767 14.1657 52.995 13.0297 53.451 12.0697C53.907 11.1017 54.551 10.3577 55.383 9.83766C56.223 9.30966 57.215 9.04566 58.359 9.04566C59.495 9.04566 60.479 9.30566 61.311 9.82566C62.143 10.3457 62.783 11.0857 63.231 12.0457C63.679 13.0057 63.903 14.1457 63.903 15.4657C63.903 16.7937 63.679 17.9377 63.231 18.8977C62.791 19.8577 62.155 20.5977 61.323 21.1177C60.491 21.6297 59.503 21.8857 58.359 21.8857ZM58.359 19.0177C59.167 19.0177 59.795 18.7057 60.243 18.0817C60.691 17.4577 60.915 16.5857 60.915 15.4657C60.915 14.3457 60.687 13.4737 60.231 12.8497C59.783 12.2177 59.159 11.9017 58.359 11.9017C57.551 11.9017 56.919 12.2177 56.463 12.8497C56.007 13.4817 55.779 14.3577 55.779 15.4777C55.779 16.5817 56.007 17.4497 56.463 18.0817C56.919 18.7057 57.551 19.0177 58.359 19.0177ZM70.7265 21.8857C69.3905 21.8857 68.3305 21.5257 67.5465 20.8057C66.7705 20.0777 66.3825 19.0937 66.3825 17.8537C66.3825 17.0537 66.5825 16.3537 66.9825 15.7537C67.3905 15.1457 67.9545 14.6777 68.6745 14.3497C69.4025 14.0137 70.2505 13.8457 71.2185 13.8457C71.7545 13.8457 72.2705 13.8977 72.7665 14.0017C73.2705 14.0977 73.7105 14.2377 74.0865 14.4217V13.6537C74.0865 12.9657 73.8905 12.4497 73.4985 12.1057C73.1145 11.7537 72.5465 11.5777 71.7945 11.5777C71.1945 11.5777 70.5785 11.6857 69.9465 11.9017C69.3145 12.1177 68.6745 12.4377 68.0265 12.8617L67.1265 10.4977C67.8305 10.0337 68.6145 9.67766 69.4785 9.42966C70.3425 9.17366 71.2145 9.04566 72.0945 9.04566C73.7425 9.04566 74.9745 9.43766 75.7905 10.2217C76.6065 10.9977 77.0145 12.1577 77.0145 13.7017V21.5977H74.0865V20.6137C73.6705 21.0297 73.1745 21.3457 72.5985 21.5617C72.0305 21.7777 71.4065 21.8857 70.7265 21.8857ZM71.4225 19.3537C71.9185 19.3537 72.3945 19.2577 72.8505 19.0657C73.3145 18.8657 73.7265 18.5857 74.0865 18.2257V16.7737C73.7425 16.6057 73.3585 16.4777 72.9345 16.3897C72.5185 16.2937 72.1025 16.2457 71.6865 16.2457C70.9425 16.2457 70.3545 16.3897 69.9225 16.6777C69.4985 16.9577 69.2865 17.3497 69.2865 17.8537C69.2865 18.3257 69.4745 18.6937 69.8505 18.9577C70.2265 19.2217 70.7505 19.3537 71.4225 19.3537ZM84.983 21.8857C83.407 21.8857 82.171 21.3177 81.275 20.1817C80.379 19.0457 79.931 17.4697 79.931 15.4537C79.931 14.1737 80.143 13.0537 80.567 12.0937C80.991 11.1337 81.583 10.3857 82.343 9.84966C83.111 9.31366 84.003 9.04566 85.019 9.04566C86.107 9.04566 86.999 9.44566 87.695 10.2457V5.62566L90.683 4.26965V21.5977H87.695V20.5897C87.103 21.4537 86.199 21.8857 84.983 21.8857ZM85.475 19.0177C85.987 19.0177 86.423 18.9297 86.783 18.7537C87.143 18.5697 87.447 18.2977 87.695 17.9377V12.9817C87.447 12.6457 87.123 12.3817 86.723 12.1897C86.331 11.9977 85.915 11.9017 85.475 11.9017C84.667 11.9017 84.043 12.2097 83.603 12.8257C83.163 13.4337 82.943 14.3097 82.943 15.4537C82.943 16.2057 83.043 16.8497 83.243 17.3857C83.443 17.9137 83.731 18.3177 84.107 18.5977C84.483 18.8777 84.939 19.0177 85.475 19.0177ZM104.055 21.8857C102.719 21.8857 101.659 21.5257 100.875 20.8057C100.099 20.0777 99.7106 19.0937 99.7106 17.8537C99.7106 17.0537 99.9106 16.3537 100.311 15.7537C100.719 15.1457 101.283 14.6777 102.003 14.3497C102.731 14.0137 103.579 13.8457 104.547 13.8457C105.083 13.8457 105.599 13.8977 106.095 14.0017C106.599 14.0977 107.039 14.2377 107.415 14.4217V13.6537C107.415 12.9657 107.219 12.4497 106.827 12.1057C106.443 11.7537 105.875 11.5777 105.123 11.5777C104.523 11.5777 103.907 11.6857 103.275 11.9017C102.643 12.1177 102.003 12.4377 101.355 12.8617L100.455 10.4977C101.159 10.0337 101.943 9.67766 102.807 9.42966C103.671 9.17366 104.543 9.04566 105.423 9.04566C107.071 9.04566 108.303 9.43766 109.119 10.2217C109.935 10.9977 110.343 12.1577 110.343 13.7017V21.5977H107.415V20.6137C106.999 21.0297 106.503 21.3457 105.927 21.5617C105.359 21.7777 104.735 21.8857 104.055 21.8857ZM104.751 19.3537C105.247 19.3537 105.723 19.2577 106.179 19.0657C106.643 18.8657 107.055 18.5857 107.415 18.2257V16.7737C107.071 16.6057 106.687 16.4777 106.263 16.3897C105.847 16.2937 105.431 16.2457 105.015 16.2457C104.271 16.2457 103.683 16.3897 103.251 16.6777C102.827 16.9577 102.615 17.3497 102.615 17.8537C102.615 18.3257 102.803 18.6937 103.179 18.9577C103.555 19.2217 104.079 19.3537 104.751 19.3537ZM113.931 21.5977V9.33366H116.931V10.5097C117.323 10.0217 117.791 9.65766 118.335 9.41765C118.887 9.16966 119.515 9.04566 120.219 9.04566C121.587 9.04566 122.643 9.46966 123.387 10.3177C124.131 11.1577 124.503 12.3697 124.503 13.9537V21.5977H121.515V14.8777C121.515 13.8457 121.335 13.0937 120.975 12.6217C120.623 12.1417 120.071 11.9017 119.319 11.9017C118.503 11.9017 117.899 12.1417 117.507 12.6217C117.123 13.0937 116.931 13.8297 116.931 14.8297V21.5977H113.931ZM132.655 21.8857C131.079 21.8857 129.843 21.3177 128.947 20.1817C128.051 19.0457 127.603 17.4697 127.603 15.4537C127.603 14.1737 127.815 13.0537 128.239 12.0937C128.663 11.1337 129.255 10.3857 130.015 9.84966C130.783 9.31366 131.675 9.04566 132.691 9.04566C133.779 9.04566 134.671 9.44566 135.367 10.2457V5.62566L138.355 4.26965V21.5977H135.367V20.5897C134.775 21.4537 133.871 21.8857 132.655 21.8857ZM133.147 19.0177C133.659 19.0177 134.095 18.9297 134.455 18.7537C134.815 18.5697 135.119 18.2977 135.367 17.9377V12.9817C135.119 12.6457 134.795 12.3817 134.395 12.1897C134.003 11.9977 133.587 11.9017 133.147 11.9017C132.339 11.9017 131.715 12.2097 131.275 12.8257C130.835 13.4337 130.615 14.3097 130.615 15.4537C130.615 16.2057 130.715 16.8497 130.915 17.3857C131.115 17.9137 131.403 18.3177 131.779 18.5977C132.155 18.8777 132.611 19.0177 133.147 19.0177ZM152.11 21.8857C151.15 21.8857 150.23 21.6817 149.35 21.2737C148.478 20.8657 147.786 20.3177 147.274 19.6297L149.242 17.9737C149.65 18.4057 150.122 18.7497 150.658 19.0057C151.194 19.2537 151.706 19.3777 152.194 19.3777C152.802 19.3777 153.27 19.2777 153.598 19.0777C153.926 18.8697 154.09 18.5817 154.09 18.2137C154.09 17.9737 154.01 17.7617 153.85 17.5777C153.698 17.3857 153.426 17.1937 153.034 17.0017C152.642 16.8017 152.09 16.5737 151.378 16.3177C150.002 15.8137 149.026 15.2697 148.45 14.6857C147.874 14.0937 147.586 13.3457 147.586 12.4417C147.586 11.4337 147.994 10.6177 148.81 9.99366C149.626 9.36166 150.69 9.04566 152.002 9.04566C152.898 9.04566 153.722 9.21366 154.474 9.54966C155.234 9.88566 155.886 10.3777 156.43 11.0257L154.474 12.6457C153.754 11.9177 152.914 11.5537 151.954 11.5537C151.466 11.5537 151.074 11.6457 150.778 11.8297C150.482 12.0057 150.334 12.2457 150.334 12.5497C150.334 12.8457 150.506 13.1097 150.85 13.3417C151.202 13.5737 151.854 13.8457 152.806 14.1577C153.75 14.4537 154.514 14.7897 155.098 15.1657C155.69 15.5417 156.122 15.9777 156.394 16.4737C156.674 16.9697 156.814 17.5417 156.814 18.1897C156.814 19.3417 156.394 20.2457 155.554 20.9017C154.722 21.5577 153.574 21.8857 152.11 21.8857ZM164.756 21.8857C163.58 21.8857 162.564 21.6217 161.708 21.0937C160.86 20.5657 160.204 19.8217 159.74 18.8617C159.284 17.8937 159.056 16.7577 159.056 15.4537C159.056 14.1337 159.288 12.9937 159.752 12.0337C160.224 11.0737 160.884 10.3377 161.732 9.82566C162.588 9.30566 163.596 9.04566 164.756 9.04566C165.748 9.04566 166.648 9.25366 167.456 9.66966C168.264 10.0857 168.908 10.7257 169.388 11.5897C169.868 12.4457 170.108 13.5377 170.108 14.8657C170.108 15.0737 170.1 15.3297 170.084 15.6337C170.076 15.9297 170.056 16.2297 170.024 16.5337H162.02C162.052 17.0937 162.18 17.5857 162.404 18.0097C162.636 18.4257 162.952 18.7497 163.352 18.9817C163.752 19.2137 164.224 19.3297 164.768 19.3297C165.352 19.3297 165.86 19.2337 166.292 19.0417C166.724 18.8417 167.132 18.5257 167.516 18.0937L169.244 19.8817C168.716 20.4817 168.08 20.9657 167.336 21.3337C166.592 21.7017 165.732 21.8857 164.756 21.8857ZM162.032 14.1937H167.204C167.164 13.6577 167.044 13.1977 166.844 12.8137C166.644 12.4217 166.364 12.1217 166.004 11.9137C165.644 11.7057 165.208 11.6017 164.696 11.6017C163.992 11.6017 163.392 11.8177 162.896 12.2497C162.4 12.6817 162.112 13.3297 162.032 14.1937ZM173.183 21.5977V5.62566L176.183 4.26965V21.5977H173.183ZM185.1 21.8857C183.924 21.8857 182.908 21.6217 182.052 21.0937C181.204 20.5657 180.548 19.8217 180.084 18.8617C179.628 17.8937 179.4 16.7577 179.4 15.4537C179.4 14.1337 179.632 12.9937 180.096 12.0337C180.568 11.0737 181.228 10.3377 182.076 9.82566C182.932 9.30566 183.94 9.04566 185.1 9.04566C186.092 9.04566 186.992 9.25366 187.8 9.66966C188.608 10.0857 189.252 10.7257 189.732 11.5897C190.212 12.4457 190.452 13.5377 190.452 14.8657C190.452 15.0737 190.444 15.3297 190.428 15.6337C190.42 15.9297 190.4 16.2297 190.368 16.5337H182.364C182.396 17.0937 182.524 17.5857 182.748 18.0097C182.98 18.4257 183.296 18.7497 183.696 18.9817C184.096 19.2137 184.568 19.3297 185.112 19.3297C185.696 19.3297 186.204 19.2337 186.636 19.0417C187.068 18.8417 187.476 18.5257 187.86 18.0937L189.588 19.8817C189.06 20.4817 188.424 20.9657 187.68 21.3337C186.936 21.7017 186.076 21.8857 185.1 21.8857ZM182.376 14.1937H187.548C187.508 13.6577 187.388 13.1977 187.188 12.8137C186.988 12.4217 186.708 12.1217 186.348 11.9137C185.988 11.7057 185.552 11.6017 185.04 11.6017C184.336 11.6017 183.736 11.8177 183.24 12.2497C182.744 12.6817 182.456 13.3297 182.376 14.1937ZM198.689 21.8857C197.561 21.8857 196.585 21.6257 195.761 21.1057C194.937 20.5857 194.301 19.8497 193.853 18.8977C193.405 17.9377 193.181 16.7977 193.181 15.4777C193.181 14.1577 193.405 13.0177 193.853 12.0577C194.309 11.0977 194.953 10.3577 195.785 9.83766C196.617 9.30966 197.597 9.04566 198.725 9.04566C199.997 9.04566 201.053 9.34166 201.893 9.93366C202.741 10.5177 203.353 11.3857 203.729 12.5377L200.885 13.4977C200.693 12.9857 200.413 12.5937 200.045 12.3217C199.677 12.0417 199.253 11.9017 198.773 11.9017C197.997 11.9017 197.377 12.2217 196.913 12.8617C196.457 13.5017 196.229 14.3737 196.229 15.4777C196.229 16.5657 196.453 17.4297 196.901 18.0697C197.349 18.7097 197.953 19.0297 198.713 19.0297C199.249 19.0297 199.705 18.8777 200.081 18.5737C200.465 18.2697 200.749 17.8257 200.933 17.2417L203.765 18.0937C203.405 19.3497 202.793 20.2977 201.929 20.9377C201.073 21.5697 199.993 21.8857 198.689 21.8857ZM210.272 21.8857C209.296 21.8857 208.564 21.6177 208.076 21.0817C207.588 20.5457 207.344 19.7457 207.344 18.6817V11.9617H205.556V9.33366H207.344V5.69766L210.32 4.26965V9.33366H213.104V11.9617H210.32V18.1417C210.32 18.5257 210.396 18.8097 210.548 18.9937C210.708 19.1777 210.956 19.2697 211.292 19.2697C211.884 19.2697 212.532 19.0857 213.236 18.7177L212.888 21.3337C212.52 21.5177 212.12 21.6537 211.688 21.7417C211.256 21.8377 210.784 21.8857 210.272 21.8857ZM226.978 21.8857C225.85 21.8857 224.874 21.6257 224.05 21.1057C223.226 20.5857 222.59 19.8497 222.142 18.8977C221.694 17.9377 221.47 16.7977 221.47 15.4777C221.47 14.1577 221.694 13.0177 222.142 12.0577C222.598 11.0977 223.242 10.3577 224.074 9.83766C224.906 9.30966 225.886 9.04566 227.014 9.04566C228.286 9.04566 229.342 9.34166 230.182 9.93366C231.03 10.5177 231.642 11.3857 232.018 12.5377L229.174 13.4977C228.982 12.9857 228.702 12.5937 228.334 12.3217C227.966 12.0417 227.542 11.9017 227.062 11.9017C226.286 11.9017 225.666 12.2217 225.202 12.8617C224.746 13.5017 224.518 14.3737 224.518 15.4777C224.518 16.5657 224.742 17.4297 225.19 18.0697C225.638 18.7097 226.242 19.0297 227.002 19.0297C227.538 19.0297 227.994 18.8777 228.37 18.5737C228.754 18.2697 229.038 17.8257 229.222 17.2417L232.054 18.0937C231.694 19.3497 231.082 20.2977 230.218 20.9377C229.362 21.5697 228.282 21.8857 226.978 21.8857ZM240 21.8857C238.272 21.8857 236.908 21.3137 235.908 20.1697C234.908 19.0257 234.408 17.4617 234.408 15.4777C234.408 14.1657 234.636 13.0297 235.092 12.0697C235.548 11.1017 236.192 10.3577 237.024 9.83766C237.864 9.30966 238.856 9.04566 240 9.04566C241.136 9.04566 242.12 9.30566 242.952 9.82566C243.784 10.3457 244.424 11.0857 244.872 12.0457C245.32 13.0057 245.544 14.1457 245.544 15.4657C245.544 16.7937 245.32 17.9377 244.872 18.8977C244.432 19.8577 243.796 20.5977 242.964 21.1177C242.132 21.6297 241.144 21.8857 240 21.8857ZM240 19.0177C240.808 19.0177 241.436 18.7057 241.884 18.0817C242.332 17.4577 242.556 16.5857 242.556 15.4657C242.556 14.3457 242.328 13.4737 241.872 12.8497C241.424 12.2177 240.8 11.9017 240 11.9017C239.192 11.9017 238.56 12.2177 238.104 12.8497C237.648 13.4817 237.42 14.3577 237.42 15.4777C237.42 16.5817 237.648 17.4497 238.104 18.0817C238.56 18.7057 239.192 19.0177 240 19.0177ZM248.415 21.5977V9.33366H251.415V10.5097C251.807 10.0217 252.275 9.65766 252.819 9.41765C253.371 9.16966 253.999 9.04566 254.703 9.04566C256.071 9.04566 257.127 9.46966 257.871 10.3177C258.615 11.1577 258.987 12.3697 258.987 13.9537V21.5977H255.999V14.8777C255.999 13.8457 255.819 13.0937 255.459 12.6217C255.107 12.1417 254.555 11.9017 253.803 11.9017C252.987 11.9017 252.383 12.1417 251.991 12.6217C251.607 13.0937 251.415 13.8297 251.415 14.8297V21.5977H248.415ZM265.843 21.8857C264.867 21.8857 264.135 21.6177 263.647 21.0817C263.159 20.5457 262.915 19.7457 262.915 18.6817V11.9617H261.127V9.33366H262.915V5.69766L265.891 4.26965V9.33366H268.675V11.9617H265.891V18.1417C265.891 18.5257 265.967 18.8097 266.119 18.9937C266.279 19.1777 266.527 19.2697 266.863 19.2697C267.455 19.2697 268.103 19.0857 268.807 18.7177L268.459 21.3337C268.091 21.5177 267.691 21.6537 267.259 21.7417C266.827 21.8377 266.355 21.8857 265.843 21.8857ZM276.623 21.8857C275.447 21.8857 274.431 21.6217 273.575 21.0937C272.727 20.5657 272.071 19.8217 271.607 18.8617C271.151 17.8937 270.923 16.7577 270.923 15.4537C270.923 14.1337 271.155 12.9937 271.619 12.0337C272.091 11.0737 272.751 10.3377 273.599 9.82566C274.455 9.30566 275.463 9.04566 276.623 9.04566C277.615 9.04566 278.515 9.25366 279.323 9.66966C280.131 10.0857 280.775 10.7257 281.255 11.5897C281.735 12.4457 281.975 13.5377 281.975 14.8657C281.975 15.0737 281.967 15.3297 281.951 15.6337C281.943 15.9297 281.923 16.2297 281.891 16.5337H273.887C273.919 17.0937 274.047 17.5857 274.271 18.0097C274.503 18.4257 274.819 18.7497 275.219 18.9817C275.619 19.2137 276.091 19.3297 276.635 19.3297C277.219 19.3297 277.727 19.2337 278.159 19.0417C278.591 18.8417 278.999 18.5257 279.383 18.0937L281.111 19.8817C280.583 20.4817 279.947 20.9657 279.203 21.3337C278.459 21.7017 277.599 21.8857 276.623 21.8857ZM273.899 14.1937H279.071C279.031 13.6577 278.911 13.1977 278.711 12.8137C278.511 12.4217 278.231 12.1217 277.871 11.9137C277.511 11.7057 277.075 11.6017 276.563 11.6017C275.859 11.6017 275.259 11.8177 274.763 12.2497C274.267 12.6817 273.979 13.3297 273.899 14.1937ZM285.001 21.5977V9.33366H288.001V10.5097C288.393 10.0217 288.861 9.65766 289.405 9.41765C289.957 9.16966 290.585 9.04566 291.289 9.04566C292.657 9.04566 293.713 9.46966 294.457 10.3177C295.201 11.1577 295.573 12.3697 295.573 13.9537V21.5977H292.585V14.8777C292.585 13.8457 292.405 13.0937 292.045 12.6217C291.693 12.1417 291.141 11.9017 290.389 11.9017C289.573 11.9017 288.969 12.1417 288.577 12.6217C288.193 13.0937 288.001 13.8297 288.001 14.8297V21.5977H285.001ZM302.428 21.8857C301.452 21.8857 300.72 21.6177 300.232 21.0817C299.744 20.5457 299.5 19.7457 299.5 18.6817V11.9617H297.712V9.33366H299.5V5.69766L302.476 4.26965V9.33366H305.26V11.9617H302.476V18.1417C302.476 18.5257 302.552 18.8097 302.704 18.9937C302.864 19.1777 303.112 19.2697 303.448 19.2697C304.04 19.2697 304.688 19.0857 305.392 18.7177L305.044 21.3337C304.676 21.5177 304.276 21.6537 303.844 21.7417C303.412 21.8377 302.94 21.8857 302.428 21.8857ZM79.5976 51.8857C78.2616 51.8857 77.2016 51.5257 76.4176 50.8057C75.6416 50.0777 75.2536 49.0937 75.2536 47.8537C75.2536 47.0537 75.4536 46.3537 75.8536 45.7537C76.2616 45.1457 76.8256 44.6777 77.5456 44.3497C78.2736 44.0137 79.1216 43.8457 80.0896 43.8457C80.6256 43.8457 81.1416 43.8977 81.6376 44.0017C82.1416 44.0977 82.5816 44.2377 82.9576 44.4217V43.6537C82.9576 42.9657 82.7616 42.4497 82.3696 42.1057C81.9856 41.7537 81.4176 41.5777 80.6656 41.5777C80.0656 41.5777 79.4496 41.6857 78.8176 41.9017C78.1856 42.1177 77.5456 42.4377 76.8976 42.8617L75.9976 40.4977C76.7016 40.0337 77.4856 39.6777 78.3496 39.4297C79.2136 39.1737 80.0856 39.0457 80.9656 39.0457C82.6136 39.0457 83.8456 39.4377 84.6616 40.2217C85.4776 40.9977 85.8856 42.1577 85.8856 43.7017V51.5977H82.9576V50.6137C82.5416 51.0297 82.0456 51.3457 81.4696 51.5617C80.9016 51.7777 80.2776 51.8857 79.5976 51.8857ZM80.2936 49.3537C80.7896 49.3537 81.2656 49.2577 81.7216 49.0657C82.1856 48.8657 82.5976 48.5857 82.9576 48.2257V46.7737C82.6136 46.6057 82.2296 46.4777 81.8056 46.3897C81.3896 46.2937 80.9736 46.2457 80.5576 46.2457C79.8136 46.2457 79.2256 46.3897 78.7936 46.6777C78.3696 46.9577 78.1576 47.3497 78.1576 47.8537C78.1576 48.3257 78.3456 48.6937 78.7216 48.9577C79.0976 49.2217 79.6216 49.3537 80.2936 49.3537ZM89.4736 51.5977V39.3337H92.4736V40.5097C92.8656 40.0217 93.3336 39.6577 93.8776 39.4177C94.4296 39.1697 95.0576 39.0457 95.7616 39.0457C97.1296 39.0457 98.1856 39.4697 98.9296 40.3177C99.6736 41.1577 100.046 42.3697 100.046 43.9537V51.5977H97.0576V44.8777C97.0576 43.8457 96.8776 43.0937 96.5176 42.6217C96.1656 42.1417 95.6136 41.9017 94.8616 41.9017C94.0456 41.9017 93.4416 42.1417 93.0496 42.6217C92.6656 43.0937 92.4736 43.8297 92.4736 44.8297V51.5977H89.4736ZM108.198 51.8857C106.622 51.8857 105.386 51.3177 104.49 50.1817C103.594 49.0457 103.146 47.4697 103.146 45.4537C103.146 44.1737 103.358 43.0537 103.782 42.0937C104.206 41.1337 104.798 40.3857 105.558 39.8497C106.326 39.3137 107.218 39.0457 108.234 39.0457C109.322 39.0457 110.214 39.4457 110.91 40.2457V35.6257L113.898 34.2697V51.5977H110.91V50.5897C110.318 51.4537 109.414 51.8857 108.198 51.8857ZM108.69 49.0177C109.202 49.0177 109.638 48.9297 109.998 48.7537C110.358 48.5697 110.662 48.2977 110.91 47.9377V42.9817C110.662 42.6457 110.338 42.3817 109.938 42.1897C109.546 41.9977 109.13 41.9017 108.69 41.9017C107.882 41.9017 107.258 42.2097 106.818 42.8257C106.378 43.4337 106.158 44.3097 106.158 45.4537C106.158 46.2057 106.258 46.8497 106.458 47.3857C106.658 47.9137 106.946 48.3177 107.322 48.5977C107.698 48.8777 108.154 49.0177 108.69 49.0177ZM128.049 51.8857C126.473 51.8857 125.237 51.3177 124.341 50.1817C123.445 49.0457 122.997 47.4697 122.997 45.4537C122.997 44.1737 123.209 43.0537 123.633 42.0937C124.057 41.1337 124.649 40.3857 125.409 39.8497C126.177 39.3137 127.069 39.0457 128.085 39.0457C129.173 39.0457 130.065 39.4457 130.761 40.2457V35.6257L133.749 34.2697V51.5977H130.761V50.5897C130.169 51.4537 129.265 51.8857 128.049 51.8857ZM128.541 49.0177C129.053 49.0177 129.489 48.9297 129.849 48.7537C130.209 48.5697 130.513 48.2977 130.761 47.9377V42.9817C130.513 42.6457 130.189 42.3817 129.789 42.1897C129.397 41.9977 128.981 41.9017 128.541 41.9017C127.733 41.9017 127.109 42.2097 126.669 42.8257C126.229 43.4337 126.009 44.3097 126.009 45.4537C126.009 46.2057 126.109 46.8497 126.309 47.3857C126.509 47.9137 126.797 48.3177 127.173 48.5977C127.549 48.8777 128.005 49.0177 128.541 49.0177ZM142.441 51.8857C140.713 51.8857 139.349 51.3137 138.349 50.1697C137.349 49.0257 136.849 47.4617 136.849 45.4777C136.849 44.1657 137.077 43.0297 137.533 42.0697C137.989 41.1017 138.633 40.3577 139.465 39.8377C140.305 39.3097 141.297 39.0457 142.441 39.0457C143.577 39.0457 144.561 39.3057 145.393 39.8257C146.225 40.3457 146.865 41.0857 147.313 42.0457C147.761 43.0057 147.985 44.1457 147.985 45.4657C147.985 46.7937 147.761 47.9377 147.313 48.8977C146.873 49.8577 146.237 50.5977 145.405 51.1177C144.573 51.6297 143.585 51.8857 142.441 51.8857ZM142.441 49.0177C143.249 49.0177 143.877 48.7057 144.325 48.0817C144.773 47.4577 144.997 46.5857 144.997 45.4657C144.997 44.3457 144.769 43.4737 144.313 42.8497C143.865 42.2177 143.241 41.9017 142.441 41.9017C141.633 41.9017 141.001 42.2177 140.545 42.8497C140.089 43.4817 139.861 44.3577 139.861 45.4777C139.861 46.5817 140.089 47.4497 140.545 48.0817C141.001 48.7057 141.633 49.0177 142.441 49.0177ZM156.091 51.8857C154.963 51.8857 153.987 51.6257 153.163 51.1057C152.339 50.5857 151.703 49.8497 151.255 48.8977C150.807 47.9377 150.583 46.7977 150.583 45.4777C150.583 44.1577 150.807 43.0177 151.255 42.0577C151.711 41.0977 152.355 40.3577 153.187 39.8377C154.019 39.3097 154.999 39.0457 156.127 39.0457C157.399 39.0457 158.455 39.3417 159.295 39.9337C160.143 40.5177 160.755 41.3857 161.131 42.5377L158.287 43.4977C158.095 42.9857 157.815 42.5937 157.447 42.3217C157.079 42.0417 156.655 41.9017 156.175 41.9017C155.399 41.9017 154.779 42.2217 154.315 42.8617C153.859 43.5017 153.631 44.3737 153.631 45.4777C153.631 46.5657 153.855 47.4297 154.303 48.0697C154.751 48.7097 155.355 49.0297 156.115 49.0297C156.651 49.0297 157.107 48.8777 157.483 48.5737C157.867 48.2697 158.151 47.8257 158.335 47.2417L161.167 48.0937C160.807 49.3497 160.195 50.2977 159.331 50.9377C158.475 51.5697 157.395 51.8857 156.091 51.8857ZM168.287 51.8857C166.919 51.8857 165.859 51.4617 165.107 50.6137C164.355 49.7577 163.979 48.5497 163.979 46.9897V39.3337H166.979V46.0537C166.979 47.0857 167.155 47.8377 167.507 48.3097C167.859 48.7817 168.415 49.0177 169.175 49.0177C169.991 49.0177 170.591 48.7817 170.975 48.3097C171.367 47.8297 171.563 47.0937 171.563 46.1017V39.3337H174.551V51.5977H171.563V50.4457C171.187 50.9257 170.723 51.2857 170.171 51.5257C169.627 51.7657 168.999 51.8857 168.287 51.8857ZM178.325 51.5977V39.3337H181.325V40.4737C181.717 39.9777 182.157 39.6177 182.645 39.3937C183.141 39.1617 183.701 39.0457 184.325 39.0457C185.053 39.0457 185.677 39.1937 186.197 39.4897C186.717 39.7857 187.121 40.2177 187.409 40.7857C187.817 40.2257 188.341 39.7977 188.981 39.5017C189.621 39.1977 190.345 39.0457 191.153 39.0457C192.657 39.0457 193.793 39.4497 194.561 40.2577C195.329 41.0657 195.713 42.2657 195.713 43.8577V51.5977H192.725V44.8897C192.725 43.8657 192.557 43.1137 192.221 42.6337C191.885 42.1457 191.365 41.9017 190.661 41.9017C190.181 41.9017 189.781 42.0097 189.461 42.2257C189.149 42.4417 188.913 42.7697 188.753 43.2097C188.593 43.6417 188.513 44.1897 188.513 44.8537V51.5977H185.525V44.8897C185.525 43.8577 185.361 43.1017 185.033 42.6217C184.705 42.1417 184.185 41.9017 183.473 41.9017C182.745 41.9017 182.205 42.1377 181.853 42.6097C181.501 43.0817 181.325 43.8137 181.325 44.8057V51.5977H178.325ZM204.518 51.8857C203.342 51.8857 202.326 51.6217 201.47 51.0937C200.622 50.5657 199.966 49.8217 199.502 48.8617C199.046 47.8937 198.818 46.7577 198.818 45.4537C198.818 44.1337 199.05 42.9937 199.514 42.0337C199.986 41.0737 200.646 40.3377 201.494 39.8257C202.35 39.3057 203.358 39.0457 204.518 39.0457C205.51 39.0457 206.41 39.2537 207.218 39.6697C208.026 40.0857 208.67 40.7257 209.15 41.5897C209.63 42.4457 209.87 43.5377 209.87 44.8657C209.87 45.0737 209.862 45.3297 209.846 45.6337C209.838 45.9297 209.818 46.2297 209.786 46.5337H201.782C201.814 47.0937 201.942 47.5857 202.166 48.0097C202.398 48.4257 202.714 48.7497 203.114 48.9817C203.514 49.2137 203.986 49.3297 204.53 49.3297C205.114 49.3297 205.622 49.2337 206.054 49.0417C206.486 48.8417 206.894 48.5257 207.278 48.0937L209.006 49.8817C208.478 50.4817 207.842 50.9657 207.098 51.3337C206.354 51.7017 205.494 51.8857 204.518 51.8857ZM201.794 44.1937H206.966C206.926 43.6577 206.806 43.1977 206.606 42.8137C206.406 42.4217 206.126 42.1217 205.766 41.9137C205.406 41.7057 204.97 41.6017 204.458 41.6017C203.754 41.6017 203.154 41.8177 202.658 42.2497C202.162 42.6817 201.874 43.3297 201.794 44.1937ZM212.895 51.5977V39.3337H215.895V40.5097C216.287 40.0217 216.755 39.6577 217.299 39.4177C217.851 39.1697 218.479 39.0457 219.183 39.0457C220.551 39.0457 221.607 39.4697 222.351 40.3177C223.095 41.1577 223.467 42.3697 223.467 43.9537V51.5977H220.479V44.8777C220.479 43.8457 220.299 43.0937 219.939 42.6217C219.587 42.1417 219.035 41.9017 218.283 41.9017C217.467 41.9017 216.863 42.1417 216.471 42.6217C216.087 43.0937 215.895 43.8297 215.895 44.8297V51.5977H212.895ZM230.323 51.8857C229.347 51.8857 228.615 51.6177 228.127 51.0817C227.639 50.5457 227.395 49.7457 227.395 48.6817V41.9617H225.607V39.3337H227.395V35.6977L230.371 34.2697V39.3337H233.155V41.9617H230.371V48.1417C230.371 48.5257 230.447 48.8097 230.599 48.9937C230.759 49.1777 231.007 49.2697 231.343 49.2697C231.935 49.2697 232.583 49.0857 233.287 48.7177L232.939 51.3337C232.571 51.5177 232.171 51.6537 231.739 51.7417C231.307 51.8377 230.835 51.8857 230.323 51.8857ZM239.966 51.8857C239.006 51.8857 238.086 51.6817 237.206 51.2737C236.334 50.8657 235.642 50.3177 235.13 49.6297L237.098 47.9737C237.506 48.4057 237.978 48.7497 238.514 49.0057C239.05 49.2537 239.562 49.3777 240.05 49.3777C240.658 49.3777 241.126 49.2777 241.454 49.0777C241.782 48.8697 241.946 48.5817 241.946 48.2137C241.946 47.9737 241.866 47.7617 241.706 47.5777C241.554 47.3857 241.282 47.1937 240.89 47.0017C240.498 46.8017 239.946 46.5737 239.234 46.3177C237.858 45.8137 236.882 45.2697 236.306 44.6857C235.73 44.0937 235.442 43.3457 235.442 42.4417C235.442 41.4337 235.85 40.6177 236.666 39.9937C237.482 39.3617 238.546 39.0457 239.858 39.0457C240.754 39.0457 241.578 39.2137 242.33 39.5497C243.09 39.8857 243.742 40.3777 244.286 41.0257L242.33 42.6457C241.61 41.9177 240.77 41.5537 239.81 41.5537C239.322 41.5537 238.93 41.6457 238.634 41.8297C238.338 42.0057 238.19 42.2457 238.19 42.5497C238.19 42.8457 238.362 43.1097 238.706 43.3417C239.058 43.5737 239.71 43.8457 240.662 44.1577C241.606 44.4537 242.37 44.7897 242.954 45.1657C243.546 45.5417 243.978 45.9777 244.25 46.4737C244.53 46.9697 244.67 47.5417 244.67 48.1897C244.67 49.3417 244.25 50.2457 243.41 50.9017C242.578 51.5577 241.43 51.8857 239.966 51.8857Z" fill="white"/>
<path d="M420 35.0378C420 35.5901 420.676 35.9806 421.155 35.7045L428.845 31.2643C429.324 30.9882 429.324 30.2071 428.845 29.931L421.155 25.4908C420.676 25.2147 420 25.6052 420 26.1575V35.0378ZM350 31.5977H421V29.5977H350V31.5977Z" fill="#FC00FF"/>
<path d="M481.301 21.5977V7.78566H476.537V4.79766H489.197V7.78566H484.409V21.5977H481.301ZM490.376 21.5977V9.33366H493.376V10.6537C493.6 10.1817 493.952 9.79766 494.432 9.50166C494.912 9.19766 495.416 9.04566 495.944 9.04566C496.816 9.04566 497.552 9.34566 498.152 9.94566L497.732 12.6937C497.404 12.4217 497.084 12.2297 496.772 12.1177C496.46 12.0057 496.116 11.9497 495.74 11.9497C495.244 11.9497 494.82 12.0657 494.468 12.2977C494.116 12.5297 493.844 12.8657 493.652 13.3057C493.468 13.7457 493.376 14.2737 493.376 14.8897V21.5977H490.376ZM503.726 21.8857C502.39 21.8857 501.33 21.5257 500.546 20.8057C499.77 20.0777 499.382 19.0937 499.382 17.8537C499.382 17.0537 499.582 16.3537 499.982 15.7537C500.39 15.1457 500.954 14.6777 501.674 14.3497C502.402 14.0137 503.25 13.8457 504.218 13.8457C504.754 13.8457 505.27 13.8977 505.766 14.0017C506.27 14.0977 506.71 14.2377 507.086 14.4217V13.6537C507.086 12.9657 506.89 12.4497 506.498 12.1057C506.114 11.7537 505.546 11.5777 504.794 11.5777C504.194 11.5777 503.578 11.6857 502.946 11.9017C502.314 12.1177 501.674 12.4377 501.026 12.8617L500.126 10.4977C500.83 10.0337 501.614 9.67766 502.478 9.42966C503.342 9.17366 504.214 9.04566 505.094 9.04566C506.742 9.04566 507.974 9.43766 508.79 10.2217C509.606 10.9977 510.014 12.1577 510.014 13.7017V21.5977H507.086V20.6137C506.67 21.0297 506.174 21.3457 505.598 21.5617C505.03 21.7777 504.406 21.8857 503.726 21.8857ZM504.422 19.3537C504.918 19.3537 505.394 19.2577 505.85 19.0657C506.314 18.8657 506.726 18.5857 507.086 18.2257V16.7737C506.742 16.6057 506.358 16.4777 505.934 16.3897C505.518 16.2937 505.102 16.2457 504.686 16.2457C503.942 16.2457 503.354 16.3897 502.922 16.6777C502.498 16.9577 502.286 17.3497 502.286 17.8537C502.286 18.3257 502.474 18.6937 502.85 18.9577C503.226 19.2217 503.75 19.3537 504.422 19.3537ZM513.602 21.5977V9.33366H516.602V10.5097C516.994 10.0217 517.462 9.65766 518.006 9.41765C518.558 9.16966 519.186 9.04566 519.89 9.04566C521.258 9.04566 522.314 9.46966 523.058 10.3177C523.802 11.1577 524.174 12.3697 524.174 13.9537V21.5977H521.186V14.8777C521.186 13.8457 521.006 13.0937 520.646 12.6217C520.294 12.1417 519.742 11.9017 518.99 11.9017C518.174 11.9017 517.57 12.1417 517.178 12.6217C516.794 13.0937 516.602 13.8297 516.602 14.8297V21.5977H513.602ZM531.814 21.8857C530.854 21.8857 529.934 21.6817 529.054 21.2737C528.182 20.8657 527.49 20.3177 526.978 19.6297L528.946 17.9737C529.354 18.4057 529.826 18.7497 530.362 19.0057C530.898 19.2537 531.41 19.3777 531.898 19.3777C532.506 19.3777 532.974 19.2777 533.302 19.0777C533.63 18.8697 533.794 18.5817 533.794 18.2137C533.794 17.9737 533.714 17.7617 533.554 17.5777C533.402 17.3857 533.13 17.1937 532.738 17.0017C532.346 16.8017 531.794 16.5737 531.082 16.3177C529.706 15.8137 528.73 15.2697 528.154 14.6857C527.578 14.0937 527.29 13.3457 527.29 12.4417C527.29 11.4337 527.698 10.6177 528.514 9.99366C529.33 9.36166 530.394 9.04566 531.706 9.04566C532.602 9.04566 533.426 9.21366 534.178 9.54966C534.938 9.88566 535.59 10.3777 536.134 11.0257L534.178 12.6457C533.458 11.9177 532.618 11.5537 531.658 11.5537C531.17 11.5537 530.778 11.6457 530.482 11.8297C530.186 12.0057 530.038 12.2457 530.038 12.5497C530.038 12.8457 530.21 13.1097 530.554 13.3417C530.906 13.5737 531.558 13.8457 532.51 14.1577C533.454 14.4537 534.218 14.7897 534.802 15.1657C535.394 15.5417 535.826 15.9777 536.098 16.4737C536.378 16.9697 536.518 17.5417 536.518 18.1897C536.518 19.3417 536.098 20.2457 535.258 20.9017C534.426 21.5577 533.278 21.8857 531.814 21.8857ZM539.738 21.5977V5.62566L542.738 4.26965V21.5977H539.738ZM550.226 21.8857C548.89 21.8857 547.83 21.5257 547.046 20.8057C546.27 20.0777 545.882 19.0937 545.882 17.8537C545.882 17.0537 546.082 16.3537 546.482 15.7537C546.89 15.1457 547.454 14.6777 548.174 14.3497C548.902 14.0137 549.75 13.8457 550.718 13.8457C551.254 13.8457 551.77 13.8977 552.266 14.0017C552.77 14.0977 553.21 14.2377 553.586 14.4217V13.6537C553.586 12.9657 553.39 12.4497 552.998 12.1057C552.614 11.7537 552.046 11.5777 551.294 11.5777C550.694 11.5777 550.078 11.6857 549.446 11.9017C548.814 12.1177 548.174 12.4377 547.526 12.8617L546.626 10.4977C547.33 10.0337 548.114 9.67766 548.978 9.42966C549.842 9.17366 550.714 9.04566 551.594 9.04566C553.242 9.04566 554.474 9.43766 555.29 10.2217C556.106 10.9977 556.514 12.1577 556.514 13.7017V21.5977H553.586V20.6137C553.17 21.0297 552.674 21.3457 552.098 21.5617C551.53 21.7777 550.906 21.8857 550.226 21.8857ZM550.922 19.3537C551.418 19.3537 551.894 19.2577 552.35 19.0657C552.814 18.8657 553.226 18.5857 553.586 18.2257V16.7737C553.242 16.6057 552.858 16.4777 552.434 16.3897C552.018 16.2937 551.602 16.2457 551.186 16.2457C550.442 16.2457 549.854 16.3897 549.422 16.6777C548.998 16.9577 548.786 17.3497 548.786 17.8537C548.786 18.3257 548.974 18.6937 549.35 18.9577C549.726 19.2217 550.25 19.3537 550.922 19.3537ZM563.186 21.8857C562.21 21.8857 561.478 21.6177 560.99 21.0817C560.502 20.5457 560.258 19.7457 560.258 18.6817V11.9617H558.47V9.33366H560.258V5.69766L563.234 4.26965V9.33366H566.018V11.9617H563.234V18.1417C563.234 18.5257 563.31 18.8097 563.462 18.9937C563.622 19.1777 563.87 19.2697 564.206 19.2697C564.798 19.2697 565.446 19.0857 566.15 18.7177L565.802 21.3337C565.434 21.5177 565.034 21.6537 564.602 21.7417C564.17 21.8377 563.698 21.8857 563.186 21.8857ZM568.587 21.5977V9.33366H571.587V21.5977H568.587ZM570.087 7.79766C569.607 7.79766 569.191 7.62566 568.839 7.28166C568.495 6.92966 568.323 6.51366 568.323 6.03366C568.323 5.55366 568.495 5.14566 568.839 4.80966C569.183 4.46566 569.599 4.29366 570.087 4.29366C570.591 4.29366 571.011 4.46166 571.347 4.79766C571.683 5.13366 571.851 5.54566 571.851 6.03366C571.851 6.52166 571.679 6.93766 571.335 7.28166C570.999 7.62566 570.583 7.79766 570.087 7.79766ZM580.304 21.8857C578.576 21.8857 577.212 21.3137 576.212 20.1697C575.212 19.0257 574.712 17.4617 574.712 15.4777C574.712 14.1657 574.94 13.0297 575.396 12.0697C575.852 11.1017 576.496 10.3577 577.328 9.83766C578.168 9.30966 579.16 9.04566 580.304 9.04566C581.44 9.04566 582.424 9.30566 583.256 9.82566C584.088 10.3457 584.728 11.0857 585.176 12.0457C585.624 13.0057 585.848 14.1457 585.848 15.4657C585.848 16.7937 585.624 17.9377 585.176 18.8977C584.736 19.8577 584.1 20.5977 583.268 21.1177C582.436 21.6297 581.448 21.8857 580.304 21.8857ZM580.304 19.0177C581.112 19.0177 581.74 18.7057 582.188 18.0817C582.636 17.4577 582.86 16.5857 582.86 15.4657C582.86 14.3457 582.632 13.4737 582.176 12.8497C581.728 12.2177 581.104 11.9017 580.304 11.9017C579.496 11.9017 578.864 12.2177 578.408 12.8497C577.952 13.4817 577.724 14.3577 577.724 15.4777C577.724 16.5817 577.952 17.4497 578.408 18.0817C578.864 18.7057 579.496 19.0177 580.304 19.0177ZM588.72 21.5977V9.33366H591.72V10.5097C592.112 10.0217 592.58 9.65766 593.124 9.41765C593.676 9.16966 594.304 9.04566 595.008 9.04566C596.376 9.04566 597.432 9.46966 598.176 10.3177C598.92 11.1577 599.292 12.3697 599.292 13.9537V21.5977H596.304V14.8777C596.304 13.8457 596.124 13.0937 595.764 12.6217C595.412 12.1417 594.86 11.9017 594.108 11.9017C593.292 11.9017 592.688 12.1417 592.296 12.6217C591.912 13.0937 591.72 13.8297 591.72 14.8297V21.5977H588.72ZM606.931 21.8857C605.971 21.8857 605.051 21.6817 604.171 21.2737C603.299 20.8657 602.607 20.3177 602.095 19.6297L604.063 17.9737C604.471 18.4057 604.943 18.7497 605.479 19.0057C606.015 19.2537 606.527 19.3777 607.015 19.3777C607.623 19.3777 608.091 19.2777 608.419 19.0777C608.747 18.8697 608.911 18.5817 608.911 18.2137C608.911 17.9737 608.831 17.7617 608.671 17.5777C608.519 17.3857 608.247 17.1937 607.855 17.0017C607.463 16.8017 606.911 16.5737 606.199 16.3177C604.823 15.8137 603.847 15.2697 603.271 14.6857C602.695 14.0937 602.407 13.3457 602.407 12.4417C602.407 11.4337 602.815 10.6177 603.631 9.99366C604.447 9.36166 605.511 9.04566 606.823 9.04566C607.719 9.04566 608.543 9.21366 609.295 9.54966C610.055 9.88566 610.707 10.3777 611.251 11.0257L609.295 12.6457C608.575 11.9177 607.735 11.5537 606.775 11.5537C606.287 11.5537 605.895 11.6457 605.599 11.8297C605.303 12.0057 605.155 12.2457 605.155 12.5497C605.155 12.8457 605.327 13.1097 605.671 13.3417C606.023 13.5737 606.675 13.8457 607.627 14.1577C608.571 14.4537 609.335 14.7897 609.919 15.1657C610.511 15.5417 610.943 15.9777 611.215 16.4737C611.495 16.9697 611.635 17.5417 611.635 18.1897C611.635 19.3417 611.215 20.2457 610.375 20.9017C609.543 21.5577 608.395 21.8857 606.931 21.8857ZM625.595 21.8857C624.467 21.8857 623.491 21.6257 622.667 21.1057C621.843 20.5857 621.207 19.8497 620.759 18.8977C620.311 17.9377 620.087 16.7977 620.087 15.4777C620.087 14.1577 620.311 13.0177 620.759 12.0577C621.215 11.0977 621.859 10.3577 622.691 9.83766C623.523 9.30966 624.503 9.04566 625.631 9.04566C626.903 9.04566 627.959 9.34166 628.799 9.93366C629.647 10.5177 630.259 11.3857 630.635 12.5377L627.791 13.4977C627.599 12.9857 627.319 12.5937 626.951 12.3217C626.583 12.0417 626.159 11.9017 625.679 11.9017C624.903 11.9017 624.283 12.2217 623.819 12.8617C623.363 13.5017 623.135 14.3737 623.135 15.4777C623.135 16.5657 623.359 17.4297 623.807 18.0697C624.255 18.7097 624.859 19.0297 625.619 19.0297C626.155 19.0297 626.611 18.8777 626.987 18.5737C627.371 18.2697 627.655 17.8257 627.839 17.2417L630.671 18.0937C630.311 19.3497 629.699 20.2977 628.835 20.9377C627.979 21.5697 626.899 21.8857 625.595 21.8857ZM638.617 21.8857C636.889 21.8857 635.525 21.3137 634.525 20.1697C633.525 19.0257 633.025 17.4617 633.025 15.4777C633.025 14.1657 633.253 13.0297 633.709 12.0697C634.165 11.1017 634.809 10.3577 635.641 9.83766C636.481 9.30966 637.473 9.04566 638.617 9.04566C639.753 9.04566 640.737 9.30566 641.569 9.82566C642.401 10.3457 643.041 11.0857 643.489 12.0457C643.937 13.0057 644.161 14.1457 644.161 15.4657C644.161 16.7937 643.937 17.9377 643.489 18.8977C643.049 19.8577 642.413 20.5977 641.581 21.1177C640.749 21.6297 639.761 21.8857 638.617 21.8857ZM638.617 19.0177C639.425 19.0177 640.053 18.7057 640.501 18.0817C640.949 17.4577 641.173 16.5857 641.173 15.4657C641.173 14.3457 640.945 13.4737 640.489 12.8497C640.041 12.2177 639.417 11.9017 638.617 11.9017C637.809 11.9017 637.177 12.2177 636.721 12.8497C636.265 13.4817 636.037 14.3577 636.037 15.4777C636.037 16.5817 636.265 17.4497 636.721 18.0817C637.177 18.7057 637.809 19.0177 638.617 19.0177ZM647.032 21.5977V9.33366H650.032V10.4737C650.424 9.97766 650.864 9.61766 651.352 9.39366C651.848 9.16166 652.408 9.04566 653.032 9.04566C653.76 9.04566 654.384 9.19366 654.904 9.48966C655.424 9.78566 655.828 10.2177 656.116 10.7857C656.524 10.2257 657.048 9.79766 657.688 9.50166C658.328 9.19766 659.052 9.04566 659.86 9.04566C661.364 9.04566 662.5 9.44966 663.268 10.2577C664.036 11.0657 664.42 12.2657 664.42 13.8577V21.5977H661.432V14.8897C661.432 13.8657 661.264 13.1137 660.928 12.6337C660.592 12.1457 660.072 11.9017 659.368 11.9017C658.888 11.9017 658.488 12.0097 658.168 12.2257C657.856 12.4417 657.62 12.7697 657.46 13.2097C657.3 13.6417 657.22 14.1897 657.22 14.8537V21.5977H654.232V14.8897C654.232 13.8577 654.068 13.1017 653.74 12.6217C653.412 12.1417 652.892 11.9017 652.18 11.9017C651.452 11.9017 650.912 12.1377 650.56 12.6097C650.208 13.0817 650.032 13.8137 650.032 14.8057V21.5977H647.032ZM668.196 26.4697V9.33366H671.196V10.2337C671.868 9.44166 672.768 9.04566 673.896 9.04566C674.944 9.04566 675.848 9.30566 676.608 9.82566C677.368 10.3377 677.952 11.0737 678.36 12.0337C678.768 12.9937 678.972 14.1377 678.972 15.4657C678.972 16.7537 678.76 17.8817 678.336 18.8497C677.912 19.8097 677.316 20.5577 676.548 21.0937C675.78 21.6217 674.884 21.8857 673.86 21.8857C673.3 21.8857 672.796 21.7857 672.348 21.5857C671.9 21.3777 671.516 21.0737 671.196 20.6737V25.1137L668.196 26.4697ZM673.416 19.0177C674.232 19.0177 674.86 18.7097 675.3 18.0937C675.74 17.4697 675.96 16.5937 675.96 15.4657C675.96 14.3377 675.736 13.4617 675.288 12.8377C674.84 12.2137 674.216 11.9017 673.416 11.9017C672.928 11.9017 672.5 11.9897 672.132 12.1657C671.772 12.3417 671.46 12.6097 671.196 12.9697V17.9257C671.412 18.2697 671.716 18.5377 672.108 18.7297C672.508 18.9217 672.944 19.0177 673.416 19.0177ZM682.191 21.5977V5.62566L685.191 4.26965V21.5977H682.191ZM694.108 21.8857C692.932 21.8857 691.916 21.6217 691.06 21.0937C690.212 20.5657 689.556 19.8217 689.092 18.8617C688.636 17.8937 688.408 16.7577 688.408 15.4537C688.408 14.1337 688.64 12.9937 689.104 12.0337C689.576 11.0737 690.236 10.3377 691.084 9.82566C691.94 9.30566 692.948 9.04566 694.108 9.04566C695.1 9.04566 696 9.25366 696.808 9.66966C697.616 10.0857 698.26 10.7257 698.74 11.5897C699.22 12.4457 699.46 13.5377 699.46 14.8657C699.46 15.0737 699.452 15.3297 699.436 15.6337C699.428 15.9297 699.408 16.2297 699.376 16.5337H691.372C691.404 17.0937 691.532 17.5857 691.756 18.0097C691.988 18.4257 692.304 18.7497 692.704 18.9817C693.104 19.2137 693.576 19.3297 694.12 19.3297C694.704 19.3297 695.212 19.2337 695.644 19.0417C696.076 18.8417 696.484 18.5257 696.868 18.0937L698.596 19.8817C698.068 20.4817 697.432 20.9657 696.688 21.3337C695.944 21.7017 695.084 21.8857 694.108 21.8857ZM691.384 14.1937H696.556C696.516 13.6577 696.396 13.1977 696.196 12.8137C695.996 12.4217 695.716 12.1217 695.356 11.9137C694.996 11.7057 694.56 11.6017 694.048 11.6017C693.344 11.6017 692.744 11.8177 692.248 12.2497C691.752 12.6817 691.464 13.3297 691.384 14.1937ZM705.874 21.8857C704.898 21.8857 704.166 21.6177 703.678 21.0817C703.19 20.5457 702.946 19.7457 702.946 18.6817V11.9617H701.158V9.33366H702.946V5.69766L705.922 4.26965V9.33366H708.706V11.9617H705.922V18.1417C705.922 18.5257 705.998 18.8097 706.15 18.9937C706.31 19.1777 706.558 19.2697 706.894 19.2697C707.486 19.2697 708.134 19.0857 708.838 18.7177L708.49 21.3337C708.122 21.5177 707.722 21.6537 707.29 21.7417C706.858 21.8377 706.386 21.8857 705.874 21.8857ZM716.654 21.8857C715.478 21.8857 714.462 21.6217 713.606 21.0937C712.758 20.5657 712.102 19.8217 711.638 18.8617C711.182 17.8937 710.954 16.7577 710.954 15.4537C710.954 14.1337 711.186 12.9937 711.65 12.0337C712.122 11.0737 712.782 10.3377 713.63 9.82566C714.486 9.30566 715.494 9.04566 716.654 9.04566C717.646 9.04566 718.546 9.25366 719.354 9.66966C720.162 10.0857 720.806 10.7257 721.286 11.5897C721.766 12.4457 722.006 13.5377 722.006 14.8657C722.006 15.0737 721.998 15.3297 721.982 15.6337C721.974 15.9297 721.954 16.2297 721.922 16.5337H713.918C713.95 17.0937 714.078 17.5857 714.302 18.0097C714.534 18.4257 714.85 18.7497 715.25 18.9817C715.65 19.2137 716.122 19.3297 716.666 19.3297C717.25 19.3297 717.758 19.2337 718.19 19.0417C718.622 18.8417 719.03 18.5257 719.414 18.0937L721.142 19.8817C720.614 20.4817 719.978 20.9657 719.234 21.3337C718.49 21.7017 717.63 21.8857 716.654 21.8857ZM713.93 14.1937H719.102C719.062 13.6577 718.942 13.1977 718.742 12.8137C718.542 12.4217 718.262 12.1217 717.902 11.9137C717.542 11.7057 717.106 11.6017 716.594 11.6017C715.89 11.6017 715.29 11.8177 714.794 12.2497C714.298 12.6817 714.01 13.3297 713.93 14.1937ZM729.788 21.8857C728.212 21.8857 726.976 21.3177 726.08 20.1817C725.184 19.0457 724.736 17.4697 724.736 15.4537C724.736 14.1737 724.948 13.0537 725.372 12.0937C725.796 11.1337 726.388 10.3857 727.148 9.84966C727.916 9.31366 728.808 9.04566 729.824 9.04566C730.912 9.04566 731.804 9.44566 732.5 10.2457V5.62566L735.488 4.26965V21.5977H732.5V20.5897C731.908 21.4537 731.004 21.8857 729.788 21.8857ZM730.28 19.0177C730.792 19.0177 731.228 18.9297 731.588 18.7537C731.948 18.5697 732.252 18.2977 732.5 17.9377V12.9817C732.252 12.6457 731.928 12.3817 731.528 12.1897C731.136 11.9977 730.72 11.9017 730.28 11.9017C729.472 11.9017 728.848 12.2097 728.408 12.8257C727.968 13.4337 727.748 14.3097 727.748 15.4537C727.748 16.2057 727.848 16.8497 728.048 17.3857C728.248 17.9137 728.536 18.3177 728.912 18.5977C729.288 18.8777 729.744 19.0177 730.28 19.0177ZM745.259 21.5977V9.33366H748.259V21.5977H745.259ZM746.759 7.79766C746.279 7.79766 745.863 7.62566 745.511 7.28166C745.167 6.92966 744.995 6.51366 744.995 6.03366C744.995 5.55366 745.167 5.14566 745.511 4.80966C745.855 4.46566 746.271 4.29366 746.759 4.29366C747.263 4.29366 747.683 4.46166 748.019 4.79766C748.355 5.13366 748.523 5.54566 748.523 6.03366C748.523 6.52166 748.351 6.93766 748.007 7.28166C747.671 7.62566 747.255 7.79766 746.759 7.79766ZM752.032 21.5977V9.33366H755.032V10.5097C755.424 10.0217 755.892 9.65766 756.436 9.41765C756.988 9.16966 757.616 9.04566 758.32 9.04566C759.688 9.04566 760.744 9.46966 761.488 10.3177C762.232 11.1577 762.604 12.3697 762.604 13.9537V21.5977H759.616V14.8777C759.616 13.8457 759.436 13.0937 759.076 12.6217C758.724 12.1417 758.172 11.9017 757.42 11.9017C756.604 11.9017 756 12.1417 755.608 12.6217C755.224 13.0937 755.032 13.8297 755.032 14.8297V21.5977H752.032ZM564.359 51.8857C563.311 51.8857 562.359 51.7017 561.503 51.3337C560.647 50.9657 559.911 50.4457 559.295 49.7737C558.687 49.0937 558.231 48.2937 557.927 47.3737L560.747 46.3297C561.107 47.0977 561.607 47.7297 562.247 48.2257C562.895 48.7137 563.623 48.9577 564.431 48.9577C565.287 48.9577 565.967 48.7777 566.471 48.4177C566.983 48.0577 567.239 47.5337 567.239 46.8457C567.239 46.3737 567.087 45.9817 566.783 45.6697C566.487 45.3497 566.083 45.0777 565.571 44.8537C565.067 44.6217 564.495 44.3977 563.855 44.1817C563.239 43.9737 562.619 43.7417 561.995 43.4857C561.371 43.2297 560.799 42.9177 560.279 42.5497C559.759 42.1737 559.339 41.7017 559.019 41.1337C558.707 40.5657 558.551 39.8697 558.551 39.0457C558.551 38.2217 558.771 37.4657 559.211 36.7777C559.651 36.0897 560.287 35.5417 561.119 35.1337C561.959 34.7177 562.975 34.5097 564.167 34.5097C565.143 34.5097 566.007 34.6777 566.759 35.0137C567.519 35.3417 568.147 35.7897 568.643 36.3577C569.139 36.9257 569.483 37.5697 569.675 38.2897L566.891 39.2137C566.667 38.7097 566.323 38.2897 565.859 37.9537C565.403 37.6097 564.783 37.4377 563.999 37.4377C563.263 37.4377 562.691 37.5817 562.283 37.8697C561.875 38.1577 561.671 38.5657 561.671 39.0937C561.671 39.4537 561.807 39.7617 562.079 40.0177C562.359 40.2657 562.731 40.4897 563.195 40.6897C563.667 40.8897 564.199 41.0937 564.791 41.3017C565.455 41.5257 566.115 41.7817 566.771 42.0697C567.435 42.3497 568.035 42.6937 568.571 43.1017C569.115 43.5097 569.551 44.0177 569.879 44.6257C570.207 45.2257 570.371 45.9617 570.371 46.8337C570.371 47.9057 570.103 48.8177 569.567 49.5697C569.039 50.3217 568.323 50.8977 567.419 51.2977C566.515 51.6897 565.495 51.8857 564.359 51.8857ZM573.605 51.5977V34.7977H581.249C582.649 34.7977 583.753 35.0417 584.561 35.5297C585.377 36.0097 585.957 36.6457 586.301 37.4377C586.653 38.2297 586.829 39.0817 586.829 39.9937C586.829 40.6257 586.705 41.2657 586.457 41.9137C586.217 42.5617 585.849 43.1457 585.353 43.6657C584.857 44.1857 584.233 44.5697 583.481 44.8177L586.793 51.5977H583.301L580.121 45.2377H576.713V51.5977H573.605ZM576.713 42.3097H581.297C581.881 42.3097 582.341 42.2017 582.677 41.9857C583.021 41.7617 583.265 41.4737 583.409 41.1217C583.553 40.7697 583.625 40.3977 583.625 40.0057C583.625 39.6537 583.557 39.3017 583.421 38.9497C583.285 38.5977 583.049 38.3057 582.713 38.0737C582.377 37.8417 581.905 37.7257 581.297 37.7257H576.713V42.3097ZM593.59 51.5977V37.7857H588.826V34.7977H601.486V37.7857H596.698V51.5977H593.59ZM610.954 51.5977V41.9617H609.226V39.3337H610.954V37.4377C610.954 36.4777 611.206 35.7497 611.71 35.2537C612.222 34.7577 612.962 34.5097 613.93 34.5097C614.474 34.5097 614.958 34.5617 615.382 34.6657C615.814 34.7617 616.226 34.9097 616.618 35.1097V37.5577C616.29 37.4217 615.978 37.3177 615.682 37.2457C615.386 37.1657 615.114 37.1257 614.866 37.1257C614.562 37.1257 614.334 37.2017 614.182 37.3537C614.03 37.4977 613.954 37.7217 613.954 38.0257V39.3337H616.618V41.9617H613.954V51.5977H610.954ZM623.406 51.8857C621.678 51.8857 620.314 51.3137 619.314 50.1697C618.314 49.0257 617.814 47.4617 617.814 45.4777C617.814 44.1657 618.042 43.0297 618.498 42.0697C618.954 41.1017 619.598 40.3577 620.43 39.8377C621.27 39.3097 622.262 39.0457 623.406 39.0457C624.542 39.0457 625.526 39.3057 626.358 39.8257C627.19 40.3457 627.83 41.0857 628.278 42.0457C628.726 43.0057 628.95 44.1457 628.95 45.4657C628.95 46.7937 628.726 47.9377 628.278 48.8977C627.838 49.8577 627.202 50.5977 626.37 51.1177C625.538 51.6297 624.55 51.8857 623.406 51.8857ZM623.406 49.0177C624.214 49.0177 624.842 48.7057 625.29 48.0817C625.738 47.4577 625.962 46.5857 625.962 45.4657C625.962 44.3457 625.734 43.4737 625.278 42.8497C624.83 42.2177 624.206 41.9017 623.406 41.9017C622.598 41.9017 621.966 42.2177 621.51 42.8497C621.054 43.4817 620.826 44.3577 620.826 45.4777C620.826 46.5817 621.054 47.4497 621.51 48.0817C621.966 48.7057 622.598 49.0177 623.406 49.0177ZM631.821 51.5977V39.3337H634.821V40.6537C635.045 40.1817 635.397 39.7977 635.877 39.5017C636.357 39.1977 636.861 39.0457 637.389 39.0457C638.261 39.0457 638.997 39.3457 639.597 39.9457L639.177 42.6937C638.849 42.4217 638.529 42.2297 638.217 42.1177C637.905 42.0057 637.561 41.9497 637.185 41.9497C636.689 41.9497 636.265 42.0657 635.913 42.2977C635.561 42.5297 635.289 42.8657 635.097 43.3057C634.913 43.7457 634.821 44.2737 634.821 44.8897V51.5977H631.821ZM641.501 51.5977V39.3337H644.501V40.4737C644.893 39.9777 645.333 39.6177 645.821 39.3937C646.317 39.1617 646.877 39.0457 647.501 39.0457C648.229 39.0457 648.853 39.1937 649.373 39.4897C649.893 39.7857 650.297 40.2177 650.585 40.7857C650.993 40.2257 651.517 39.7977 652.157 39.5017C652.797 39.1977 653.521 39.0457 654.329 39.0457C655.833 39.0457 656.969 39.4497 657.737 40.2577C658.505 41.0657 658.889 42.2657 658.889 43.8577V51.5977H655.901V44.8897C655.901 43.8657 655.733 43.1137 655.397 42.6337C655.061 42.1457 654.541 41.9017 653.837 41.9017C653.357 41.9017 652.957 42.0097 652.637 42.2257C652.325 42.4417 652.089 42.7697 651.929 43.2097C651.769 43.6417 651.689 44.1897 651.689 44.8537V51.5977H648.701V44.8897C648.701 43.8577 648.537 43.1017 648.209 42.6217C647.881 42.1417 647.361 41.9017 646.649 41.9017C645.921 41.9017 645.381 42.1377 645.029 42.6097C644.677 43.0817 644.501 43.8137 644.501 44.8057V51.5977H641.501ZM666.172 51.8857C664.836 51.8857 663.776 51.5257 662.992 50.8057C662.216 50.0777 661.828 49.0937 661.828 47.8537C661.828 47.0537 662.028 46.3537 662.428 45.7537C662.836 45.1457 663.4 44.6777 664.12 44.3497C664.848 44.0137 665.696 43.8457 666.664 43.8457C667.2 43.8457 667.716 43.8977 668.212 44.0017C668.716 44.0977 669.156 44.2377 669.532 44.4217V43.6537C669.532 42.9657 669.336 42.4497 668.944 42.1057C668.56 41.7537 667.992 41.5777 667.24 41.5777C666.64 41.5777 666.024 41.6857 665.392 41.9017C664.76 42.1177 664.12 42.4377 663.472 42.8617L662.572 40.4977C663.276 40.0337 664.06 39.6777 664.924 39.4297C665.788 39.1737 666.66 39.0457 667.54 39.0457C669.188 39.0457 670.42 39.4377 671.236 40.2217C672.052 40.9977 672.46 42.1577 672.46 43.7017V51.5977H669.532V50.6137C669.116 51.0297 668.62 51.3457 668.044 51.5617C667.476 51.7777 666.852 51.8857 666.172 51.8857ZM666.868 49.3537C667.364 49.3537 667.84 49.2577 668.296 49.0657C668.76 48.8657 669.172 48.5857 669.532 48.2257V46.7737C669.188 46.6057 668.804 46.4777 668.38 46.3897C667.964 46.2937 667.548 46.2457 667.132 46.2457C666.388 46.2457 665.8 46.3897 665.368 46.6777C664.944 46.9577 664.732 47.3497 664.732 47.8537C664.732 48.3257 664.92 48.6937 665.296 48.9577C665.672 49.2217 666.196 49.3537 666.868 49.3537ZM679.132 51.8857C678.156 51.8857 677.424 51.6177 676.936 51.0817C676.448 50.5457 676.204 49.7457 676.204 48.6817V41.9617H674.416V39.3337H676.204V35.6977L679.18 34.2697V39.3337H681.964V41.9617H679.18V48.1417C679.18 48.5257 679.256 48.8097 679.408 48.9937C679.568 49.1777 679.816 49.2697 680.152 49.2697C680.744 49.2697 681.392 49.0857 682.096 48.7177L681.748 51.3337C681.38 51.5177 680.98 51.6537 680.548 51.7417C680.116 51.8377 679.644 51.8857 679.132 51.8857Z" fill="white"/>
<path d="M880 35.0378C880 35.5901 880.676 35.9806 881.155 35.7045L888.845 31.2643C889.324 30.9882 889.324 30.2071 888.845 29.931L881.155 25.4908C880.676 25.2147 880 25.6052 880 26.1575V35.0378ZM810 31.5977H881V29.5977H810V31.5977Z" fill="#FC00FF"/>
<path d="M976.019 21.8857C974.971 21.8857 974.019 21.7017 973.163 21.3337C972.307 20.9657 971.571 20.4457 970.955 19.7737C970.347 19.0937 969.891 18.2937 969.587 17.3737L972.407 16.3297C972.767 17.0977 973.267 17.7297 973.907 18.2257C974.555 18.7137 975.283 18.9577 976.091 18.9577C976.947 18.9577 977.627 18.7777 978.131 18.4177C978.643 18.0577 978.899 17.5337 978.899 16.8457C978.899 16.3737 978.747 15.9817 978.443 15.6697C978.147 15.3497 977.743 15.0777 977.231 14.8537C976.727 14.6217 976.155 14.3977 975.515 14.1817C974.899 13.9737 974.279 13.7417 973.655 13.4857C973.031 13.2297 972.459 12.9177 971.939 12.5497C971.419 12.1737 970.999 11.7017 970.679 11.1337C970.367 10.5657 970.211 9.86966 970.211 9.04566C970.211 8.22166 970.431 7.46566 970.871 6.77766C971.311 6.08966 971.947 5.54166 972.779 5.13366C973.619 4.71766 974.635 4.50966 975.827 4.50966C976.803 4.50966 977.667 4.67766 978.419 5.01366C979.179 5.34166 979.807 5.78966 980.303 6.35766C980.799 6.92566 981.143 7.56966 981.335 8.28966L978.551 9.21366C978.327 8.70966 977.983 8.28966 977.519 7.95366C977.063 7.60966 976.443 7.43766 975.659 7.43766C974.923 7.43766 974.351 7.58166 973.943 7.86966C973.535 8.15766 973.331 8.56566 973.331 9.09366C973.331 9.45366 973.467 9.76166 973.739 10.0177C974.019 10.2657 974.391 10.4897 974.855 10.6897C975.327 10.8897 975.859 11.0937 976.451 11.3017C977.115 11.5257 977.775 11.7817 978.431 12.0697C979.095 12.3497 979.695 12.6937 980.231 13.1017C980.775 13.5097 981.211 14.0177 981.539 14.6257C981.867 15.2257 982.031 15.9617 982.031 16.8337C982.031 17.9057 981.763 18.8177 981.227 19.5697C980.699 20.3217 979.983 20.8977 979.079 21.2977C978.175 21.6897 977.155 21.8857 976.019 21.8857ZM988.487 21.8857C987.511 21.8857 986.779 21.6177 986.291 21.0817C985.803 20.5457 985.559 19.7457 985.559 18.6817V11.9617H983.771V9.33366H985.559V5.69766L988.535 4.26965V9.33366H991.319V11.9617H988.535V18.1417C988.535 18.5257 988.611 18.8097 988.763 18.9937C988.923 19.1777 989.171 19.2697 989.507 19.2697C990.099 19.2697 990.747 19.0857 991.451 18.7177L991.103 21.3337C990.735 21.5177 990.335 21.6537 989.903 21.7417C989.471 21.8377 988.999 21.8857 988.487 21.8857ZM997.84 21.8857C996.504 21.8857 995.444 21.5257 994.66 20.8057C993.884 20.0777 993.496 19.0937 993.496 17.8537C993.496 17.0537 993.696 16.3537 994.096 15.7537C994.504 15.1457 995.068 14.6777 995.788 14.3497C996.516 14.0137 997.364 13.8457 998.332 13.8457C998.868 13.8457 999.384 13.8977 999.88 14.0017C1000.38 14.0977 1000.82 14.2377 1001.2 14.4217V13.6537C1001.2 12.9657 1001 12.4497 1000.61 12.1057C1000.23 11.7537 999.66 11.5777 998.908 11.5777C998.308 11.5777 997.692 11.6857 997.06 11.9017C996.428 12.1177 995.788 12.4377 995.14 12.8617L994.24 10.4977C994.944 10.0337 995.728 9.67766 996.592 9.42966C997.456 9.17366 998.328 9.04566 999.208 9.04566C1000.86 9.04566 1002.09 9.43766 1002.9 10.2217C1003.72 10.9977 1004.13 12.1577 1004.13 13.7017V21.5977H1001.2V20.6137C1000.78 21.0297 1000.29 21.3457 999.712 21.5617C999.144 21.7777 998.52 21.8857 997.84 21.8857ZM998.536 19.3537C999.032 19.3537 999.508 19.2577 999.964 19.0657C1000.43 18.8657 1000.84 18.5857 1001.2 18.2257V16.7737C1000.86 16.6057 1000.47 16.4777 1000.05 16.3897C999.632 16.2937 999.216 16.2457 998.8 16.2457C998.056 16.2457 997.468 16.3897 997.036 16.6777C996.612 16.9577 996.4 17.3497 996.4 17.8537C996.4 18.3257 996.588 18.6937 996.964 18.9577C997.34 19.2217 997.864 19.3537 998.536 19.3537ZM1007.72 21.5977V9.33366H1010.72V10.6537C1010.94 10.1817 1011.29 9.79766 1011.77 9.50166C1012.25 9.19766 1012.76 9.04566 1013.28 9.04566C1014.16 9.04566 1014.89 9.34566 1015.49 9.94566L1015.07 12.6937C1014.74 12.4217 1014.42 12.2297 1014.11 12.1177C1013.8 12.0057 1013.46 11.9497 1013.08 11.9497C1012.58 11.9497 1012.16 12.0657 1011.81 12.2977C1011.46 12.5297 1011.18 12.8657 1010.99 13.3057C1010.81 13.7457 1010.72 14.2737 1010.72 14.8897V21.5977H1007.72ZM1021.39 21.8857C1020.42 21.8857 1019.69 21.6177 1019.2 21.0817C1018.71 20.5457 1018.47 19.7457 1018.47 18.6817V11.9617H1016.68V9.33366H1018.47V5.69766L1021.44 4.26965V9.33366H1024.23V11.9617H1021.44V18.1417C1021.44 18.5257 1021.52 18.8097 1021.67 18.9937C1021.83 19.1777 1022.08 19.2697 1022.41 19.2697C1023.01 19.2697 1023.65 19.0857 1024.36 18.7177L1024.01 21.3337C1023.64 21.5177 1023.24 21.6537 1022.81 21.7417C1022.38 21.8377 1021.91 21.8857 1021.39 21.8857ZM1036.82 21.8857C1035.84 21.8857 1035.11 21.6177 1034.62 21.0817C1034.13 20.5457 1033.89 19.7457 1033.89 18.6817V11.9617H1032.1V9.33366H1033.89V5.69766L1036.86 4.26965V9.33366H1039.65V11.9617H1036.86V18.1417C1036.86 18.5257 1036.94 18.8097 1037.09 18.9937C1037.25 19.1777 1037.5 19.2697 1037.84 19.2697C1038.43 19.2697 1039.08 19.0857 1039.78 18.7177L1039.43 21.3337C1039.06 21.5177 1038.66 21.6537 1038.23 21.7417C1037.8 21.8377 1037.33 21.8857 1036.82 21.8857ZM1046.17 21.8857C1044.83 21.8857 1043.77 21.5257 1042.99 20.8057C1042.21 20.0777 1041.82 19.0937 1041.82 17.8537C1041.82 17.0537 1042.02 16.3537 1042.42 15.7537C1042.83 15.1457 1043.4 14.6777 1044.12 14.3497C1044.84 14.0137 1045.69 13.8457 1046.66 13.8457C1047.2 13.8457 1047.71 13.8977 1048.21 14.0017C1048.71 14.0977 1049.15 14.2377 1049.53 14.4217V13.6537C1049.53 12.9657 1049.33 12.4497 1048.94 12.1057C1048.56 11.7537 1047.99 11.5777 1047.24 11.5777C1046.64 11.5777 1046.02 11.6857 1045.39 11.9017C1044.76 12.1177 1044.12 12.4377 1043.47 12.8617L1042.57 10.4977C1043.27 10.0337 1044.06 9.67766 1044.92 9.42966C1045.78 9.17366 1046.66 9.04566 1047.54 9.04566C1049.18 9.04566 1050.42 9.43766 1051.23 10.2217C1052.05 10.9977 1052.46 12.1577 1052.46 13.7017V21.5977H1049.53V20.6137C1049.11 21.0297 1048.62 21.3457 1048.04 21.5617C1047.47 21.7777 1046.85 21.8857 1046.17 21.8857ZM1046.86 19.3537C1047.36 19.3537 1047.84 19.2577 1048.29 19.0657C1048.76 18.8657 1049.17 18.5857 1049.53 18.2257V16.7737C1049.18 16.6057 1048.8 16.4777 1048.38 16.3897C1047.96 16.2937 1047.54 16.2457 1047.13 16.2457C1046.38 16.2457 1045.8 16.3897 1045.36 16.6777C1044.94 16.9577 1044.73 17.3497 1044.73 17.8537C1044.73 18.3257 1044.92 18.6937 1045.29 18.9577C1045.67 19.2217 1046.19 19.3537 1046.86 19.3537ZM1056.04 21.5977V9.33366H1059.04V10.6537C1059.27 10.1817 1059.62 9.79766 1060.1 9.50166C1060.58 9.19766 1061.08 9.04566 1061.61 9.04566C1062.48 9.04566 1063.22 9.34566 1063.82 9.94566L1063.4 12.6937C1063.07 12.4217 1062.75 12.2297 1062.44 12.1177C1062.13 12.0057 1061.78 11.9497 1061.41 11.9497C1060.91 11.9497 1060.49 12.0657 1060.14 12.2977C1059.78 12.5297 1059.51 12.8657 1059.32 13.3057C1059.14 13.7457 1059.04 14.2737 1059.04 14.8897V21.5977H1056.04ZM1069.73 26.7097L1068.07 24.2017C1069.24 24.1137 1070.14 23.9817 1070.78 23.8057C1071.43 23.6297 1071.88 23.3777 1072.14 23.0497C1072.4 22.7217 1072.52 22.2937 1072.52 21.7657V20.8777C1071.9 21.5497 1071.02 21.8857 1069.88 21.8857C1068.82 21.8857 1067.9 21.6297 1067.14 21.1177C1066.37 20.5977 1065.78 19.8577 1065.36 18.8977C1064.95 17.9297 1064.75 16.7817 1064.75 15.4537C1064.75 14.1577 1064.96 13.0297 1065.38 12.0697C1065.82 11.1097 1066.42 10.3657 1067.18 9.83766C1067.96 9.30966 1068.87 9.04566 1069.91 9.04566C1070.45 9.04566 1070.95 9.12966 1071.4 9.29766C1071.85 9.46566 1072.23 9.70966 1072.52 10.0297V9.33366H1075.51V20.4937C1075.51 21.5817 1075.41 22.5017 1075.21 23.2537C1075.01 24.0057 1074.68 24.6217 1074.23 25.1017C1073.78 25.5817 1073.19 25.9457 1072.45 26.1937C1071.72 26.4497 1070.81 26.6217 1069.73 26.7097ZM1070.38 19.0177C1070.8 19.0177 1071.2 18.9217 1071.56 18.7297C1071.94 18.5297 1072.26 18.2617 1072.52 17.9257V12.9817C1072.3 12.6697 1071.99 12.4137 1071.6 12.2137C1071.21 12.0057 1070.81 11.9017 1070.41 11.9017C1069.55 11.9017 1068.89 12.2057 1068.43 12.8137C1067.98 13.4137 1067.76 14.2937 1067.76 15.4537C1067.76 16.2057 1067.86 16.8497 1068.06 17.3857C1068.27 17.9137 1068.57 18.3177 1068.96 18.5977C1069.35 18.8777 1069.82 19.0177 1070.38 19.0177ZM1084.06 21.8857C1082.89 21.8857 1081.87 21.6217 1081.02 21.0937C1080.17 20.5657 1079.51 19.8217 1079.05 18.8617C1078.59 17.8937 1078.36 16.7577 1078.36 15.4537C1078.36 14.1337 1078.6 12.9937 1079.06 12.0337C1079.53 11.0737 1080.19 10.3377 1081.04 9.82566C1081.9 9.30566 1082.9 9.04566 1084.06 9.04566C1085.06 9.04566 1085.96 9.25366 1086.76 9.66966C1087.57 10.0857 1088.22 10.7257 1088.7 11.5897C1089.18 12.4457 1089.42 13.5377 1089.42 14.8657C1089.42 15.0737 1089.41 15.3297 1089.39 15.6337C1089.38 15.9297 1089.36 16.2297 1089.33 16.5337H1081.33C1081.36 17.0937 1081.49 17.5857 1081.71 18.0097C1081.94 18.4257 1082.26 18.7497 1082.66 18.9817C1083.06 19.2137 1083.53 19.3297 1084.08 19.3297C1084.66 19.3297 1085.17 19.2337 1085.6 19.0417C1086.03 18.8417 1086.44 18.5257 1086.82 18.0937L1088.55 19.8817C1088.02 20.4817 1087.39 20.9657 1086.64 21.3337C1085.9 21.7017 1085.04 21.8857 1084.06 21.8857ZM1081.34 14.1937H1086.51C1086.47 13.6577 1086.35 13.1977 1086.15 12.8137C1085.95 12.4217 1085.67 12.1217 1085.31 11.9137C1084.95 11.7057 1084.52 11.6017 1084 11.6017C1083.3 11.6017 1082.7 11.8177 1082.2 12.2497C1081.71 12.6817 1081.42 13.3297 1081.34 14.1937ZM1095.83 21.8857C1094.85 21.8857 1094.12 21.6177 1093.63 21.0817C1093.15 20.5457 1092.9 19.7457 1092.9 18.6817V11.9617H1091.11V9.33366H1092.9V5.69766L1095.88 4.26965V9.33366H1098.66V11.9617H1095.88V18.1417C1095.88 18.5257 1095.95 18.8097 1096.11 18.9937C1096.27 19.1777 1096.51 19.2697 1096.85 19.2697C1097.44 19.2697 1098.09 19.0857 1098.79 18.7177L1098.45 21.3337C1098.08 21.5177 1097.68 21.6537 1097.25 21.7417C1096.81 21.8377 1096.34 21.8857 1095.83 21.8857ZM1101.23 21.5977V9.33366H1104.23V21.5977H1101.23ZM1102.73 7.79766C1102.25 7.79766 1101.84 7.62566 1101.48 7.28166C1101.14 6.92966 1100.97 6.51366 1100.97 6.03366C1100.97 5.55366 1101.14 5.14566 1101.48 4.80966C1101.83 4.46566 1102.24 4.29366 1102.73 4.29366C1103.24 4.29366 1103.66 4.46166 1103.99 4.79766C1104.33 5.13366 1104.5 5.54566 1104.5 6.03366C1104.5 6.52166 1104.32 6.93766 1103.98 7.28166C1103.64 7.62566 1103.23 7.79766 1102.73 7.79766ZM1108 21.5977V9.33366H1111V10.5097C1111.4 10.0217 1111.86 9.65766 1112.41 9.41765C1112.96 9.16966 1113.59 9.04566 1114.29 9.04566C1115.66 9.04566 1116.72 9.46966 1117.46 10.3177C1118.2 11.1577 1118.58 12.3697 1118.58 13.9537V21.5977H1115.59V14.8777C1115.59 13.8457 1115.41 13.0937 1115.05 12.6217C1114.7 12.1417 1114.14 11.9017 1113.39 11.9017C1112.58 11.9017 1111.97 12.1417 1111.58 12.6217C1111.2 13.0937 1111 13.8297 1111 14.8297V21.5977H1108ZM1126.66 26.7097L1125 24.2017C1126.17 24.1137 1127.07 23.9817 1127.71 23.8057C1128.36 23.6297 1128.81 23.3777 1129.07 23.0497C1129.33 22.7217 1129.45 22.2937 1129.45 21.7657V20.8777C1128.83 21.5497 1127.95 21.8857 1126.81 21.8857C1125.75 21.8857 1124.83 21.6297 1124.07 21.1177C1123.3 20.5977 1122.71 19.8577 1122.29 18.8977C1121.88 17.9297 1121.68 16.7817 1121.68 15.4537C1121.68 14.1577 1121.89 13.0297 1122.31 12.0697C1122.75 11.1097 1123.35 10.3657 1124.11 9.83766C1124.89 9.30966 1125.8 9.04566 1126.84 9.04566C1127.38 9.04566 1127.88 9.12966 1128.33 9.29766C1128.78 9.46566 1129.16 9.70966 1129.45 10.0297V9.33366H1132.44V20.4937C1132.44 21.5817 1132.34 22.5017 1132.14 23.2537C1131.94 24.0057 1131.61 24.6217 1131.16 25.1017C1130.71 25.5817 1130.12 25.9457 1129.38 26.1937C1128.65 26.4497 1127.74 26.6217 1126.66 26.7097ZM1127.31 19.0177C1127.73 19.0177 1128.13 18.9217 1128.49 18.7297C1128.87 18.5297 1129.19 18.2617 1129.45 17.9257V12.9817C1129.23 12.6697 1128.92 12.4137 1128.53 12.2137C1128.14 12.0057 1127.74 11.9017 1127.34 11.9017C1126.48 11.9017 1125.82 12.2057 1125.36 12.8137C1124.91 13.4137 1124.69 14.2937 1124.69 15.4537C1124.69 16.2057 1124.79 16.8497 1124.99 17.3857C1125.2 17.9137 1125.5 18.3177 1125.89 18.5977C1126.28 18.8777 1126.75 19.0177 1127.31 19.0177ZM1143.71 26.2537L1145.57 21.3817L1140.98 9.33366H1144.06L1146.74 16.5097C1146.81 16.6777 1146.88 16.8617 1146.94 17.0617C1147 17.2617 1147.06 17.4617 1147.12 17.6617C1147.17 17.4617 1147.22 17.2657 1147.29 17.0737C1147.36 16.8737 1147.43 16.6857 1147.5 16.5097L1150.18 9.33366H1153.26L1146.81 26.2537H1143.71ZM1160.46 21.8857C1158.73 21.8857 1157.36 21.3137 1156.36 20.1697C1155.36 19.0257 1154.86 17.4617 1154.86 15.4777C1154.86 14.1657 1155.09 13.0297 1155.55 12.0697C1156 11.1017 1156.65 10.3577 1157.48 9.83766C1158.32 9.30966 1159.31 9.04566 1160.46 9.04566C1161.59 9.04566 1162.58 9.30566 1163.41 9.82566C1164.24 10.3457 1164.88 11.0857 1165.33 12.0457C1165.78 13.0057 1166 14.1457 1166 15.4657C1166 16.7937 1165.78 17.9377 1165.33 18.8977C1164.89 19.8577 1164.25 20.5977 1163.42 21.1177C1162.59 21.6297 1161.6 21.8857 1160.46 21.8857ZM1160.46 19.0177C1161.26 19.0177 1161.89 18.7057 1162.34 18.0817C1162.79 17.4577 1163.01 16.5857 1163.01 15.4657C1163.01 14.3457 1162.78 13.4737 1162.33 12.8497C1161.88 12.2177 1161.26 11.9017 1160.46 11.9017C1159.65 11.9017 1159.02 12.2177 1158.56 12.8497C1158.1 13.4817 1157.88 14.3577 1157.88 15.4777C1157.88 16.5817 1158.1 17.4497 1158.56 18.0817C1159.02 18.7057 1159.65 19.0177 1160.46 19.0177ZM1173.29 21.8857C1171.93 21.8857 1170.87 21.4617 1170.11 20.6137C1169.36 19.7577 1168.99 18.5497 1168.99 16.9897V9.33366H1171.99V16.0537C1171.99 17.0857 1172.16 17.8377 1172.51 18.3097C1172.87 18.7817 1173.42 19.0177 1174.18 19.0177C1175 19.0177 1175.6 18.7817 1175.98 18.3097C1176.37 17.8297 1176.57 17.0937 1176.57 16.1017V9.33366H1179.56V21.5977H1176.57V20.4457C1176.19 20.9257 1175.73 21.2857 1175.18 21.5257C1174.63 21.7657 1174.01 21.8857 1173.29 21.8857ZM1183.33 21.5977V9.33366H1186.33V10.6537C1186.56 10.1817 1186.91 9.79766 1187.39 9.50166C1187.87 9.19766 1188.37 9.04566 1188.9 9.04566C1189.77 9.04566 1190.51 9.34566 1191.11 9.94566L1190.69 12.6937C1190.36 12.4217 1190.04 12.2297 1189.73 12.1177C1189.42 12.0057 1189.07 11.9497 1188.7 11.9497C1188.2 11.9497 1187.78 12.0657 1187.42 12.2977C1187.07 12.5297 1186.8 12.8657 1186.61 13.3057C1186.42 13.7457 1186.33 14.2737 1186.33 14.8897V21.5977H1183.33ZM955.896 51.5977V39.3337H958.896V51.5977H955.896ZM957.396 37.7977C956.916 37.7977 956.5 37.6257 956.148 37.2817C955.804 36.9297 955.632 36.5137 955.632 36.0337C955.632 35.5537 955.804 35.1457 956.148 34.8097C956.492 34.4657 956.908 34.2937 957.396 34.2937C957.9 34.2937 958.32 34.4617 958.656 34.7977C958.992 35.1337 959.16 35.5457 959.16 36.0337C959.16 36.5217 958.988 36.9377 958.644 37.2817C958.308 37.6257 957.892 37.7977 957.396 37.7977ZM962.669 51.5977V39.3337H965.669V40.5097C966.061 40.0217 966.529 39.6577 967.073 39.4177C967.625 39.1697 968.253 39.0457 968.957 39.0457C970.325 39.0457 971.381 39.4697 972.125 40.3177C972.869 41.1577 973.241 42.3697 973.241 43.9537V51.5977H970.253V44.8777C970.253 43.8457 970.073 43.0937 969.713 42.6217C969.361 42.1417 968.809 41.9017 968.057 41.9017C967.241 41.9017 966.637 42.1417 966.245 42.6217C965.861 43.0937 965.669 43.8297 965.669 44.8297V51.5977H962.669ZM980.096 51.8857C979.12 51.8857 978.388 51.6177 977.9 51.0817C977.412 50.5457 977.168 49.7457 977.168 48.6817V41.9617H975.38V39.3337H977.168V35.6977L980.144 34.2697V39.3337H982.928V41.9617H980.144V48.1417C980.144 48.5257 980.22 48.8097 980.372 48.9937C980.532 49.1777 980.78 49.2697 981.116 49.2697C981.708 49.2697 982.356 49.0857 983.06 48.7177L982.712 51.3337C982.344 51.5177 981.944 51.6537 981.512 51.7417C981.08 51.8377 980.608 51.8857 980.096 51.8857ZM990.877 51.8857C989.701 51.8857 988.685 51.6217 987.829 51.0937C986.981 50.5657 986.325 49.8217 985.861 48.8617C985.405 47.8937 985.177 46.7577 985.177 45.4537C985.177 44.1337 985.409 42.9937 985.873 42.0337C986.345 41.0737 987.005 40.3377 987.853 39.8257C988.709 39.3057 989.717 39.0457 990.877 39.0457C991.869 39.0457 992.769 39.2537 993.577 39.6697C994.385 40.0857 995.029 40.7257 995.509 41.5897C995.989 42.4457 996.229 43.5377 996.229 44.8657C996.229 45.0737 996.221 45.3297 996.205 45.6337C996.197 45.9297 996.177 46.2297 996.145 46.5337H988.141C988.173 47.0937 988.301 47.5857 988.525 48.0097C988.757 48.4257 989.073 48.7497 989.473 48.9817C989.873 49.2137 990.345 49.3297 990.889 49.3297C991.473 49.3297 991.981 49.2337 992.413 49.0417C992.845 48.8417 993.253 48.5257 993.637 48.0937L995.365 49.8817C994.837 50.4817 994.201 50.9657 993.457 51.3337C992.713 51.7017 991.853 51.8857 990.877 51.8857ZM988.153 44.1937H993.325C993.285 43.6577 993.165 43.1977 992.965 42.8137C992.765 42.4217 992.485 42.1217 992.125 41.9137C991.765 41.7057 991.329 41.6017 990.817 41.6017C990.113 41.6017 989.513 41.8177 989.017 42.2497C988.521 42.6817 988.233 43.3297 988.153 44.1937ZM999.255 51.5977V39.3337H1002.25V40.6537C1002.48 40.1817 1002.83 39.7977 1003.31 39.5017C1003.79 39.1977 1004.29 39.0457 1004.82 39.0457C1005.69 39.0457 1006.43 39.3457 1007.03 39.9457L1006.61 42.6937C1006.28 42.4217 1005.96 42.2297 1005.65 42.1177C1005.34 42.0057 1004.99 41.9497 1004.62 41.9497C1004.12 41.9497 1003.7 42.0657 1003.35 42.2977C1002.99 42.5297 1002.72 42.8657 1002.53 43.3057C1002.35 43.7457 1002.25 44.2737 1002.25 44.8897V51.5977H999.255ZM1008.93 51.5977V39.3337H1011.93V40.5097C1012.33 40.0217 1012.79 39.6577 1013.34 39.4177C1013.89 39.1697 1014.52 39.0457 1015.22 39.0457C1016.59 39.0457 1017.65 39.4697 1018.39 40.3177C1019.13 41.1577 1019.51 42.3697 1019.51 43.9537V51.5977H1016.52V44.8777C1016.52 43.8457 1016.34 43.0937 1015.98 42.6217C1015.63 42.1417 1015.07 41.9017 1014.32 41.9017C1013.51 41.9017 1012.9 42.1417 1012.51 42.6217C1012.13 43.0937 1011.93 43.8297 1011.93 44.8297V51.5977H1008.93ZM1026.79 51.8857C1025.45 51.8857 1024.39 51.5257 1023.61 50.8057C1022.83 50.0777 1022.44 49.0937 1022.44 47.8537C1022.44 47.0537 1022.64 46.3537 1023.04 45.7537C1023.45 45.1457 1024.01 44.6777 1024.73 44.3497C1025.46 44.0137 1026.31 43.8457 1027.28 43.8457C1027.81 43.8457 1028.33 43.8977 1028.83 44.0017C1029.33 44.0977 1029.77 44.2377 1030.15 44.4217V43.6537C1030.15 42.9657 1029.95 42.4497 1029.56 42.1057C1029.17 41.7537 1028.61 41.5777 1027.85 41.5777C1027.25 41.5777 1026.64 41.6857 1026.01 41.9017C1025.37 42.1177 1024.73 42.4377 1024.09 42.8617L1023.19 40.4977C1023.89 40.0337 1024.67 39.6777 1025.54 39.4297C1026.4 39.1737 1027.27 39.0457 1028.15 39.0457C1029.8 39.0457 1031.03 39.4377 1031.85 40.2217C1032.67 40.9977 1033.07 42.1577 1033.07 43.7017V51.5977H1030.15V50.6137C1029.73 51.0297 1029.23 51.3457 1028.66 51.5617C1028.09 51.7777 1027.47 51.8857 1026.79 51.8857ZM1027.48 49.3537C1027.98 49.3537 1028.45 49.2577 1028.91 49.0657C1029.37 48.8657 1029.79 48.5857 1030.15 48.2257V46.7737C1029.8 46.6057 1029.42 46.4777 1028.99 46.3897C1028.58 46.2937 1028.16 46.2457 1027.75 46.2457C1027 46.2457 1026.41 46.3897 1025.98 46.6777C1025.56 46.9577 1025.35 47.3497 1025.35 47.8537C1025.35 48.3257 1025.53 48.6937 1025.91 48.9577C1026.29 49.2217 1026.81 49.3537 1027.48 49.3537ZM1039.74 51.8857C1038.77 51.8857 1038.04 51.6177 1037.55 51.0817C1037.06 50.5457 1036.82 49.7457 1036.82 48.6817V41.9617H1035.03V39.3337H1036.82V35.6977L1039.79 34.2697V39.3337H1042.58V41.9617H1039.79V48.1417C1039.79 48.5257 1039.87 48.8097 1040.02 48.9937C1040.18 49.1777 1040.43 49.2697 1040.76 49.2697C1041.36 49.2697 1042 49.0857 1042.71 48.7177L1042.36 51.3337C1041.99 51.5177 1041.59 51.6537 1041.16 51.7417C1040.73 51.8377 1040.26 51.8857 1039.74 51.8857ZM1045.15 51.5977V39.3337H1048.15V51.5977H1045.15ZM1046.65 37.7977C1046.17 37.7977 1045.75 37.6257 1045.4 37.2817C1045.05 36.9297 1044.88 36.5137 1044.88 36.0337C1044.88 35.5537 1045.05 35.1457 1045.4 34.8097C1045.74 34.4657 1046.16 34.2937 1046.65 34.2937C1047.15 34.2937 1047.57 34.4617 1047.91 34.7977C1048.24 35.1337 1048.41 35.5457 1048.41 36.0337C1048.41 36.5217 1048.24 36.9377 1047.89 37.2817C1047.56 37.6257 1047.14 37.7977 1046.65 37.7977ZM1056.86 51.8857C1055.13 51.8857 1053.77 51.3137 1052.77 50.1697C1051.77 49.0257 1051.27 47.4617 1051.27 45.4777C1051.27 44.1657 1051.5 43.0297 1051.95 42.0697C1052.41 41.1017 1053.05 40.3577 1053.89 39.8377C1054.73 39.3097 1055.72 39.0457 1056.86 39.0457C1058 39.0457 1058.98 39.3057 1059.81 39.8257C1060.65 40.3457 1061.29 41.0857 1061.73 42.0457C1062.18 43.0057 1062.41 44.1457 1062.41 45.4657C1062.41 46.7937 1062.18 47.9377 1061.73 48.8977C1061.29 49.8577 1060.66 50.5977 1059.83 51.1177C1058.99 51.6297 1058.01 51.8857 1056.86 51.8857ZM1056.86 49.0177C1057.67 49.0177 1058.3 48.7057 1058.75 48.0817C1059.19 47.4577 1059.42 46.5857 1059.42 45.4657C1059.42 44.3457 1059.19 43.4737 1058.73 42.8497C1058.29 42.2177 1057.66 41.9017 1056.86 41.9017C1056.05 41.9017 1055.42 42.2177 1054.97 42.8497C1054.51 43.4817 1054.28 44.3577 1054.28 45.4777C1054.28 46.5817 1054.51 47.4497 1054.97 48.0817C1055.42 48.7057 1056.05 49.0177 1056.86 49.0177ZM1065.28 51.5977V39.3337H1068.28V40.5097C1068.67 40.0217 1069.14 39.6577 1069.68 39.4177C1070.23 39.1697 1070.86 39.0457 1071.57 39.0457C1072.93 39.0457 1073.99 39.4697 1074.73 40.3177C1075.48 41.1577 1075.85 42.3697 1075.85 43.9537V51.5977H1072.86V44.8777C1072.86 43.8457 1072.68 43.0937 1072.32 42.6217C1071.97 42.1417 1071.42 41.9017 1070.67 41.9017C1069.85 41.9017 1069.25 42.1417 1068.85 42.6217C1068.47 43.0937 1068.28 43.8297 1068.28 44.8297V51.5977H1065.28ZM1083.13 51.8857C1081.79 51.8857 1080.73 51.5257 1079.95 50.8057C1079.17 50.0777 1078.78 49.0937 1078.78 47.8537C1078.78 47.0537 1078.98 46.3537 1079.38 45.7537C1079.79 45.1457 1080.36 44.6777 1081.08 44.3497C1081.8 44.0137 1082.65 43.8457 1083.62 43.8457C1084.16 43.8457 1084.67 43.8977 1085.17 44.0017C1085.67 44.0977 1086.11 44.2377 1086.49 44.4217V43.6537C1086.49 42.9657 1086.29 42.4497 1085.9 42.1057C1085.52 41.7537 1084.95 41.5777 1084.2 41.5777C1083.6 41.5777 1082.98 41.6857 1082.35 41.9017C1081.72 42.1177 1081.08 42.4377 1080.43 42.8617L1079.53 40.4977C1080.23 40.0337 1081.02 39.6777 1081.88 39.4297C1082.74 39.1737 1083.62 39.0457 1084.5 39.0457C1086.14 39.0457 1087.38 39.4377 1088.19 40.2217C1089.01 40.9977 1089.42 42.1577 1089.42 43.7017V51.5977H1086.49V50.6137C1086.07 51.0297 1085.58 51.3457 1085 51.5617C1084.43 51.7777 1083.81 51.8857 1083.13 51.8857ZM1083.82 49.3537C1084.32 49.3537 1084.8 49.2577 1085.25 49.0657C1085.72 48.8657 1086.13 48.5857 1086.49 48.2257V46.7737C1086.14 46.6057 1085.76 46.4777 1085.34 46.3897C1084.92 46.2937 1084.5 46.2457 1084.09 46.2457C1083.34 46.2457 1082.76 46.3897 1082.32 46.6777C1081.9 46.9577 1081.69 47.3497 1081.69 47.8537C1081.69 48.3257 1081.88 48.6937 1082.25 48.9577C1082.63 49.2217 1083.15 49.3537 1083.82 49.3537ZM1092.98 51.5977V35.6257L1095.98 34.2697V51.5977H1092.98ZM1109.47 51.8857C1108.14 51.8857 1107.08 51.5257 1106.29 50.8057C1105.52 50.0777 1105.13 49.0937 1105.13 47.8537C1105.13 47.0537 1105.33 46.3537 1105.73 45.7537C1106.14 45.1457 1106.7 44.6777 1107.42 44.3497C1108.15 44.0137 1109 43.8457 1109.96 43.8457C1110.5 43.8457 1111.02 43.8977 1111.51 44.0017C1112.02 44.0977 1112.46 44.2377 1112.83 44.4217V43.6537C1112.83 42.9657 1112.64 42.4497 1112.24 42.1057C1111.86 41.7537 1111.29 41.5777 1110.54 41.5777C1109.94 41.5777 1109.32 41.6857 1108.69 41.9017C1108.06 42.1177 1107.42 42.4377 1106.77 42.8617L1105.87 40.4977C1106.58 40.0337 1107.36 39.6777 1108.22 39.4297C1109.09 39.1737 1109.96 39.0457 1110.84 39.0457C1112.49 39.0457 1113.72 39.4377 1114.54 40.2217C1115.35 40.9977 1115.76 42.1577 1115.76 43.7017V51.5977H1112.83V50.6137C1112.42 51.0297 1111.92 51.3457 1111.34 51.5617C1110.78 51.7777 1110.15 51.8857 1109.47 51.8857ZM1110.17 49.3537C1110.66 49.3537 1111.14 49.2577 1111.6 49.0657C1112.06 48.8657 1112.47 48.5857 1112.83 48.2257V46.7737C1112.49 46.6057 1112.1 46.4777 1111.68 46.3897C1111.26 46.2937 1110.85 46.2457 1110.43 46.2457C1109.69 46.2457 1109.1 46.3897 1108.67 46.6777C1108.24 46.9577 1108.03 47.3497 1108.03 47.8537C1108.03 48.3257 1108.22 48.6937 1108.6 48.9577C1108.97 49.2217 1109.5 49.3537 1110.17 49.3537ZM1123.4 51.8857C1122.03 51.8857 1120.97 51.4617 1120.22 50.6137C1119.46 49.7577 1119.09 48.5497 1119.09 46.9897V39.3337H1122.09V46.0537C1122.09 47.0857 1122.26 47.8377 1122.62 48.3097C1122.97 48.7817 1123.52 49.0177 1124.28 49.0177C1125.1 49.0177 1125.7 48.7817 1126.08 48.3097C1126.48 47.8297 1126.67 47.0937 1126.67 46.1017V39.3337H1129.66V51.5977H1126.67V50.4457C1126.3 50.9257 1125.83 51.2857 1125.28 51.5257C1124.74 51.7657 1124.11 51.8857 1123.4 51.8857ZM1137.58 51.8857C1136 51.8857 1134.77 51.3177 1133.87 50.1817C1132.98 49.0457 1132.53 47.4697 1132.53 45.4537C1132.53 44.1737 1132.74 43.0537 1133.16 42.0937C1133.59 41.1337 1134.18 40.3857 1134.94 39.8497C1135.71 39.3137 1136.6 39.0457 1137.62 39.0457C1138.7 39.0457 1139.6 39.4457 1140.29 40.2457V35.6257L1143.28 34.2697V51.5977H1140.29V50.5897C1139.7 51.4537 1138.8 51.8857 1137.58 51.8857ZM1138.07 49.0177C1138.58 49.0177 1139.02 48.9297 1139.38 48.7537C1139.74 48.5697 1140.04 48.2977 1140.29 47.9377V42.9817C1140.04 42.6457 1139.72 42.3817 1139.32 42.1897C1138.93 41.9977 1138.51 41.9017 1138.07 41.9017C1137.26 41.9017 1136.64 42.2097 1136.2 42.8257C1135.76 43.4337 1135.54 44.3097 1135.54 45.4537C1135.54 46.2057 1135.64 46.8497 1135.84 47.3857C1136.04 47.9137 1136.33 48.3177 1136.7 48.5977C1137.08 48.8777 1137.54 49.0177 1138.07 49.0177ZM1147.05 51.5977V39.3337H1150.05V51.5977H1147.05ZM1148.55 37.7977C1148.07 37.7977 1147.66 37.6257 1147.3 37.2817C1146.96 36.9297 1146.79 36.5137 1146.79 36.0337C1146.79 35.5537 1146.96 35.1457 1147.3 34.8097C1147.65 34.4657 1148.06 34.2937 1148.55 34.2937C1149.06 34.2937 1149.48 34.4617 1149.81 34.7977C1150.15 35.1337 1150.32 35.5457 1150.32 36.0337C1150.32 36.5217 1150.14 36.9377 1149.8 37.2817C1149.46 37.6257 1149.05 37.7977 1148.55 37.7977ZM1158.88 51.8857C1157.7 51.8857 1156.69 51.6217 1155.83 51.0937C1154.98 50.5657 1154.33 49.8217 1153.86 48.8617C1153.41 47.8937 1153.18 46.7577 1153.18 45.4537C1153.18 44.1337 1153.41 42.9937 1153.87 42.0337C1154.35 41.0737 1155.01 40.3377 1155.85 39.8257C1156.71 39.3057 1157.72 39.0457 1158.88 39.0457C1159.87 39.0457 1160.77 39.2537 1161.58 39.6697C1162.39 40.0857 1163.03 40.7257 1163.51 41.5897C1163.99 42.4457 1164.23 43.5377 1164.23 44.8657C1164.23 45.0737 1164.22 45.3297 1164.21 45.6337C1164.2 45.9297 1164.18 46.2297 1164.15 46.5337H1156.14C1156.17 47.0937 1156.3 47.5857 1156.53 48.0097C1156.76 48.4257 1157.07 48.7497 1157.47 48.9817C1157.87 49.2137 1158.35 49.3297 1158.89 49.3297C1159.47 49.3297 1159.98 49.2337 1160.41 49.0417C1160.85 48.8417 1161.25 48.5257 1161.64 48.0937L1163.37 49.8817C1162.84 50.4817 1162.2 50.9657 1161.46 51.3337C1160.71 51.7017 1159.85 51.8857 1158.88 51.8857ZM1156.15 44.1937H1161.33C1161.29 43.6577 1161.17 43.1977 1160.97 42.8137C1160.77 42.4217 1160.49 42.1217 1160.13 41.9137C1159.77 41.7057 1159.33 41.6017 1158.82 41.6017C1158.11 41.6017 1157.51 41.8177 1157.02 42.2497C1156.52 42.6817 1156.23 43.3297 1156.15 44.1937ZM1167.25 51.5977V39.3337H1170.25V40.5097C1170.65 40.0217 1171.11 39.6577 1171.66 39.4177C1172.21 39.1697 1172.84 39.0457 1173.54 39.0457C1174.91 39.0457 1175.97 39.4697 1176.71 40.3177C1177.45 41.1577 1177.83 42.3697 1177.83 43.9537V51.5977H1174.84V44.8777C1174.84 43.8457 1174.66 43.0937 1174.3 42.6217C1173.95 42.1417 1173.39 41.9017 1172.64 41.9017C1171.83 41.9017 1171.22 42.1417 1170.83 42.6217C1170.45 43.0937 1170.25 43.8297 1170.25 44.8297V51.5977H1167.25ZM1186.44 51.8857C1185.31 51.8857 1184.33 51.6257 1183.51 51.1057C1182.68 50.5857 1182.05 49.8497 1181.6 48.8977C1181.15 47.9377 1180.93 46.7977 1180.93 45.4777C1180.93 44.1577 1181.15 43.0177 1181.6 42.0577C1182.06 41.0977 1182.7 40.3577 1183.53 39.8377C1184.36 39.3097 1185.34 39.0457 1186.47 39.0457C1187.74 39.0457 1188.8 39.3417 1189.64 39.9337C1190.49 40.5177 1191.1 41.3857 1191.48 42.5377L1188.63 43.4977C1188.44 42.9857 1188.16 42.5937 1187.79 42.3217C1187.42 42.0417 1187 41.9017 1186.52 41.9017C1185.74 41.9017 1185.12 42.2217 1184.66 42.8617C1184.2 43.5017 1183.98 44.3737 1183.98 45.4777C1183.98 46.5657 1184.2 47.4297 1184.65 48.0697C1185.1 48.7097 1185.7 49.0297 1186.46 49.0297C1187 49.0297 1187.45 48.8777 1187.83 48.5737C1188.21 48.2697 1188.5 47.8257 1188.68 47.2417L1191.51 48.0937C1191.15 49.3497 1190.54 50.2977 1189.68 50.9377C1188.82 51.5697 1187.74 51.8857 1186.44 51.8857ZM1199.56 51.8857C1198.39 51.8857 1197.37 51.6217 1196.52 51.0937C1195.67 50.5657 1195.01 49.8217 1194.55 48.8617C1194.09 47.8937 1193.86 46.7577 1193.86 45.4537C1193.86 44.1337 1194.1 42.9937 1194.56 42.0337C1195.03 41.0737 1195.69 40.3377 1196.54 39.8257C1197.4 39.3057 1198.4 39.0457 1199.56 39.0457C1200.56 39.0457 1201.46 39.2537 1202.26 39.6697C1203.07 40.0857 1203.72 40.7257 1204.2 41.5897C1204.68 42.4457 1204.92 43.5377 1204.92 44.8657C1204.92 45.0737 1204.91 45.3297 1204.89 45.6337C1204.88 45.9297 1204.86 46.2297 1204.83 46.5337H1196.83C1196.86 47.0937 1196.99 47.5857 1197.21 48.0097C1197.44 48.4257 1197.76 48.7497 1198.16 48.9817C1198.56 49.2137 1199.03 49.3297 1199.58 49.3297C1200.16 49.3297 1200.67 49.2337 1201.1 49.0417C1201.53 48.8417 1201.94 48.5257 1202.32 48.0937L1204.05 49.8817C1203.52 50.4817 1202.89 50.9657 1202.14 51.3337C1201.4 51.7017 1200.54 51.8857 1199.56 51.8857ZM1196.84 44.1937H1202.01C1201.97 43.6577 1201.85 43.1977 1201.65 42.8137C1201.45 42.4217 1201.17 42.1217 1200.81 41.9137C1200.45 41.7057 1200.02 41.6017 1199.5 41.6017C1198.8 41.6017 1198.2 41.8177 1197.7 42.2497C1197.21 42.6817 1196.92 43.3297 1196.84 44.1937Z" fill="white"/>
</svg>
