<svg width="400" height="500" viewBox="0 0 400 500" fill="none" xmlns="http://www.w3.org/2000/svg">
<path d="M65.2031 28.252C63.9711 28.252 62.9176 28.0245 62.0426 27.5695C61.1746 27.1075 60.5096 26.439 60.0476 25.564C59.5926 24.689 59.3651 23.632 59.3651 22.393V13.3H62.0846V22.393C62.0846 23.506 62.3331 24.325 62.8301 24.85C63.3271 25.375 64.1181 25.6375 65.2031 25.6375C65.8891 25.6375 66.4631 25.529 66.9251 25.312C67.3871 25.095 67.7336 24.7485 67.9646 24.2725C68.1956 23.7895 68.3111 23.163 68.3111 22.393V13.3H71.0411V22.393C71.0411 23.429 70.8871 24.318 70.5791 25.06C70.2781 25.802 69.8581 26.411 69.3191 26.887C68.7871 27.356 68.1676 27.7025 67.4606 27.9265C66.7536 28.1435 66.0011 28.252 65.2031 28.252ZM74.3152 32.263V17.269H76.9402V18.0565C77.5282 17.3635 78.3157 17.017 79.3027 17.017C80.2197 17.017 81.0107 17.2445 81.6757 17.6995C82.3407 18.1475 82.8517 18.7915 83.2087 19.6315C83.5657 20.4715 83.7442 21.4725 83.7442 22.6345C83.7442 23.7615 83.5587 24.7485 83.1877 25.5955C82.8167 26.4355 82.2952 27.09 81.6232 27.559C80.9512 28.021 80.1672 28.252 79.2712 28.252C78.7812 28.252 78.3402 28.1645 77.9482 27.9895C77.5562 27.8075 77.2202 27.5415 76.9402 27.1915V31.0765L74.3152 32.263ZM78.8827 25.7425C79.5967 25.7425 80.1462 25.473 80.5312 24.934C80.9162 24.388 81.1087 23.6215 81.1087 22.6345C81.1087 21.6475 80.9127 20.881 80.5207 20.335C80.1287 19.789 79.5827 19.516 78.8827 19.516C78.4557 19.516 78.0812 19.593 77.7592 19.747C77.4442 19.901 77.1712 20.1355 76.9402 20.4505V24.787C77.1292 25.088 77.3952 25.3225 77.7382 25.4905C78.0882 25.6585 78.4697 25.7425 78.8827 25.7425ZM86.5609 28V14.0245L89.1859 12.838V28H86.5609ZM96.8932 28.252C95.3812 28.252 94.1877 27.7515 93.3127 26.7505C92.4377 25.7495 92.0002 24.381 92.0002 22.645C92.0002 21.497 92.1997 20.503 92.5987 19.663C92.9977 18.816 93.5612 18.165 94.2892 17.71C95.0242 17.248 95.8922 17.017 96.8932 17.017C97.8872 17.017 98.7482 17.2445 99.4762 17.6995C100.204 18.1545 100.764 18.802 101.156 19.642C101.548 20.482 101.744 21.4795 101.744 22.6345C101.744 23.7965 101.548 24.7975 101.156 25.6375C100.771 26.4775 100.215 27.125 99.4867 27.58C98.7587 28.028 97.8942 28.252 96.8932 28.252ZM96.8932 25.7425C97.6002 25.7425 98.1497 25.4695 98.5417 24.9235C98.9337 24.3775 99.1297 23.6145 99.1297 22.6345C99.1297 21.6545 98.9302 20.8915 98.5312 20.3455C98.1392 19.7925 97.5932 19.516 96.8932 19.516C96.1862 19.516 95.6332 19.7925 95.2342 20.3455C94.8352 20.8985 94.6357 21.665 94.6357 22.645C94.6357 23.611 94.8352 24.3705 95.2342 24.9235C95.6332 25.4695 96.1862 25.7425 96.8932 25.7425ZM107.715 28.252C106.546 28.252 105.618 27.937 104.932 27.307C104.253 26.67 103.914 25.809 103.914 24.724C103.914 24.024 104.089 23.4115 104.439 22.8865C104.796 22.3545 105.289 21.945 105.919 21.658C106.556 21.364 107.298 21.217 108.145 21.217C108.614 21.217 109.066 21.2625 109.5 21.3535C109.941 21.4375 110.326 21.56 110.655 21.721V21.049C110.655 20.447 110.483 19.9955 110.14 19.6945C109.804 19.3865 109.307 19.2325 108.649 19.2325C108.124 19.2325 107.585 19.327 107.032 19.516C106.479 19.705 105.919 19.985 105.352 20.356L104.565 18.2875C105.181 17.8815 105.867 17.57 106.623 17.353C107.379 17.129 108.142 17.017 108.912 17.017C110.354 17.017 111.432 17.36 112.146 18.046C112.86 18.725 113.217 19.74 113.217 21.091V28H110.655V27.139C110.291 27.503 109.857 27.7795 109.353 27.9685C108.856 28.1575 108.31 28.252 107.715 28.252ZM108.324 26.0365C108.758 26.0365 109.174 25.9525 109.573 25.7845C109.979 25.6095 110.34 25.3645 110.655 25.0495V23.779C110.354 23.632 110.018 23.52 109.647 23.443C109.283 23.359 108.919 23.317 108.555 23.317C107.904 23.317 107.389 23.443 107.011 23.695C106.64 23.94 106.455 24.283 106.455 24.724C106.455 25.137 106.619 25.459 106.948 25.69C107.277 25.921 107.736 26.0365 108.324 26.0365ZM120.189 28.252C118.81 28.252 117.729 27.755 116.945 26.761C116.161 25.767 115.769 24.388 115.769 22.624C115.769 21.504 115.954 20.524 116.325 19.684C116.696 18.844 117.214 18.1895 117.879 17.7205C118.551 17.2515 119.332 17.017 120.221 17.017C121.173 17.017 121.953 17.367 122.562 18.067V14.0245L125.177 12.838V28H122.562V27.118C122.044 27.874 121.253 28.252 120.189 28.252ZM120.62 25.7425C121.068 25.7425 121.449 25.6655 121.764 25.5115C122.079 25.3505 122.345 25.1125 122.562 24.7975V20.461C122.345 20.167 122.062 19.936 121.712 19.768C121.369 19.6 121.005 19.516 120.62 19.516C119.913 19.516 119.367 19.7855 118.982 20.3245C118.597 20.8565 118.404 21.623 118.404 22.624C118.404 23.282 118.492 23.8455 118.667 24.3145C118.842 24.7765 119.094 25.13 119.423 25.375C119.752 25.62 120.151 25.7425 120.62 25.7425ZM136.877 28.252C135.708 28.252 134.78 27.937 134.094 27.307C133.415 26.67 133.076 25.809 133.076 24.724C133.076 24.024 133.251 23.4115 133.601 22.8865C133.958 22.3545 134.451 21.945 135.081 21.658C135.718 21.364 136.46 21.217 137.307 21.217C137.776 21.217 138.228 21.2625 138.662 21.3535C139.103 21.4375 139.488 21.56 139.817 21.721V21.049C139.817 20.447 139.645 19.9955 139.302 19.6945C138.966 19.3865 138.469 19.2325 137.811 19.2325C137.286 19.2325 136.747 19.327 136.194 19.516C135.641 19.705 135.081 19.985 134.514 20.356L133.727 18.2875C134.343 17.8815 135.029 17.57 135.785 17.353C136.541 17.129 137.304 17.017 138.074 17.017C139.516 17.017 140.594 17.36 141.308 18.046C142.022 18.725 142.379 19.74 142.379 21.091V28H139.817V27.139C139.453 27.503 139.019 27.7795 138.515 27.9685C138.018 28.1575 137.472 28.252 136.877 28.252ZM137.486 26.0365C137.92 26.0365 138.336 25.9525 138.735 25.7845C139.141 25.6095 139.502 25.3645 139.817 25.0495V23.779C139.516 23.632 139.18 23.52 138.809 23.443C138.445 23.359 138.081 23.317 137.717 23.317C137.066 23.317 136.551 23.443 136.173 23.695C135.802 23.94 135.617 24.283 135.617 24.724C135.617 25.137 135.781 25.459 136.11 25.69C136.439 25.921 136.898 26.0365 137.486 26.0365ZM145.518 28V17.269H148.143V18.298C148.486 17.871 148.896 17.5525 149.372 17.3425C149.855 17.1255 150.404 17.017 151.02 17.017C152.217 17.017 153.141 17.388 153.792 18.13C154.443 18.865 154.769 19.9255 154.769 21.3115V28H152.154V22.12C152.154 21.217 151.997 20.559 151.682 20.146C151.374 19.726 150.891 19.516 150.233 19.516C149.519 19.516 148.99 19.726 148.647 20.146C148.311 20.559 148.143 21.203 148.143 22.078V28H145.518ZM161.902 28.252C160.523 28.252 159.442 27.755 158.658 26.761C157.874 25.767 157.482 24.388 157.482 22.624C157.482 21.504 157.667 20.524 158.038 19.684C158.409 18.844 158.927 18.1895 159.592 17.7205C160.264 17.2515 161.045 17.017 161.934 17.017C162.886 17.017 163.666 17.367 164.275 18.067V14.0245L166.89 12.838V28H164.275V27.118C163.757 27.874 162.966 28.252 161.902 28.252ZM162.333 25.7425C162.781 25.7425 163.162 25.6655 163.477 25.5115C163.792 25.3505 164.058 25.1125 164.275 24.7975V20.461C164.058 20.167 163.775 19.936 163.425 19.768C163.082 19.6 162.718 19.516 162.333 19.516C161.626 19.516 161.08 19.7855 160.695 20.3245C160.31 20.8565 160.117 21.623 160.117 22.624C160.117 23.282 160.205 23.8455 160.38 24.3145C160.555 24.7765 160.807 25.13 161.136 25.375C161.465 25.62 161.864 25.7425 162.333 25.7425ZM178.926 28.252C178.086 28.252 177.281 28.0735 176.511 27.7165C175.748 27.3595 175.142 26.88 174.694 26.278L176.416 24.829C176.773 25.207 177.186 25.508 177.655 25.732C178.124 25.949 178.572 26.0575 178.999 26.0575C179.531 26.0575 179.941 25.97 180.228 25.795C180.515 25.613 180.658 25.361 180.658 25.039C180.658 24.829 180.588 24.6435 180.448 24.4825C180.315 24.3145 180.077 24.1465 179.734 23.9785C179.391 23.8035 178.908 23.604 178.285 23.38C177.081 22.939 176.227 22.463 175.723 21.952C175.219 21.434 174.967 20.7795 174.967 19.9885C174.967 19.1065 175.324 18.3925 176.038 17.8465C176.752 17.2935 177.683 17.017 178.831 17.017C179.615 17.017 180.336 17.164 180.994 17.458C181.659 17.752 182.23 18.1825 182.706 18.7495L180.994 20.167C180.364 19.53 179.629 19.2115 178.789 19.2115C178.362 19.2115 178.019 19.292 177.76 19.453C177.501 19.607 177.372 19.817 177.372 20.083C177.372 20.342 177.522 20.573 177.823 20.776C178.131 20.979 178.702 21.217 179.535 21.49C180.361 21.749 181.029 22.043 181.54 22.372C182.058 22.701 182.436 23.0825 182.674 23.5165C182.919 23.9505 183.042 24.451 183.042 25.018C183.042 26.026 182.674 26.817 181.939 27.391C181.211 27.965 180.207 28.252 178.926 28.252ZM189.991 28.252C188.962 28.252 188.073 28.021 187.324 27.559C186.582 27.097 186.008 26.446 185.602 25.606C185.203 24.759 185.003 23.765 185.003 22.624C185.003 21.469 185.206 20.4715 185.612 19.6315C186.025 18.7915 186.603 18.1475 187.345 17.6995C188.094 17.2445 188.976 17.017 189.991 17.017C190.859 17.017 191.646 17.199 192.353 17.563C193.06 17.927 193.624 18.487 194.044 19.243C194.464 19.992 194.674 20.9475 194.674 22.1095C194.674 22.2915 194.667 22.5155 194.653 22.7815C194.646 23.0405 194.628 23.303 194.6 23.569H187.597C187.625 24.059 187.737 24.4895 187.933 24.8605C188.136 25.2245 188.412 25.508 188.762 25.711C189.112 25.914 189.525 26.0155 190.001 26.0155C190.512 26.0155 190.957 25.9315 191.335 25.7635C191.713 25.5885 192.07 25.312 192.406 24.934L193.918 26.4985C193.456 27.0235 192.899 27.447 192.248 27.769C191.597 28.091 190.845 28.252 189.991 28.252ZM187.607 21.5215H192.133C192.098 21.0525 191.993 20.65 191.818 20.314C191.643 19.971 191.398 19.7085 191.083 19.5265C190.768 19.3445 190.386 19.2535 189.938 19.2535C189.322 19.2535 188.797 19.4425 188.363 19.8205C187.929 20.1985 187.677 20.7655 187.607 21.5215ZM197.365 28V14.0245L199.99 12.838V28H197.365ZM207.791 28.252C206.762 28.252 205.873 28.021 205.124 27.559C204.382 27.097 203.808 26.446 203.402 25.606C203.003 24.759 202.804 23.765 202.804 22.624C202.804 21.469 203.007 20.4715 203.413 19.6315C203.826 18.7915 204.403 18.1475 205.145 17.6995C205.894 17.2445 206.776 17.017 207.791 17.017C208.659 17.017 209.447 17.199 210.154 17.563C210.861 17.927 211.424 18.487 211.844 19.243C212.264 19.992 212.474 20.9475 212.474 22.1095C212.474 22.2915 212.467 22.5155 212.453 22.7815C212.446 23.0405 212.429 23.303 212.401 23.569H205.397C205.425 24.059 205.537 24.4895 205.733 24.8605C205.936 25.2245 206.213 25.508 206.563 25.711C206.913 25.914 207.326 26.0155 207.802 26.0155C208.313 26.0155 208.757 25.9315 209.135 25.7635C209.513 25.5885 209.87 25.312 210.206 24.934L211.718 26.4985C211.256 27.0235 210.7 27.447 210.049 27.769C209.398 28.091 208.645 28.252 207.791 28.252ZM205.408 21.5215H209.933C209.898 21.0525 209.793 20.65 209.618 20.314C209.443 19.971 209.198 19.7085 208.883 19.5265C208.568 19.3445 208.187 19.2535 207.739 19.2535C207.123 19.2535 206.598 19.4425 206.164 19.8205C205.73 20.1985 205.478 20.7655 205.408 21.5215ZM219.682 28.252C218.695 28.252 217.841 28.0245 217.12 27.5695C216.399 27.1145 215.843 26.4705 215.451 25.6375C215.059 24.7975 214.863 23.8 214.863 22.645C214.863 21.49 215.059 20.4925 215.451 19.6525C215.85 18.8125 216.413 18.165 217.141 17.71C217.869 17.248 218.727 17.017 219.714 17.017C220.827 17.017 221.751 17.276 222.486 17.794C223.228 18.305 223.763 19.0645 224.092 20.0725L221.604 20.9125C221.436 20.4645 221.191 20.1215 220.869 19.8835C220.547 19.6385 220.176 19.516 219.756 19.516C219.077 19.516 218.534 19.796 218.128 20.356C217.729 20.916 217.53 21.679 217.53 22.645C217.53 23.597 217.726 24.353 218.118 24.913C218.51 25.473 219.038 25.753 219.703 25.753C220.172 25.753 220.571 25.62 220.9 25.354C221.236 25.088 221.485 24.6995 221.646 24.1885L224.124 24.934C223.809 26.033 223.273 26.8625 222.517 27.4225C221.768 27.9755 220.823 28.252 219.682 28.252ZM229.817 28.252C228.963 28.252 228.323 28.0175 227.896 27.5485C227.469 27.0795 227.255 26.3795 227.255 25.4485V19.5685H225.691V17.269H227.255V14.0875L229.859 12.838V17.269H232.295V19.5685H229.859V24.976C229.859 25.312 229.926 25.5605 230.059 25.7215C230.199 25.8825 230.416 25.963 230.71 25.963C231.228 25.963 231.795 25.802 232.411 25.48L232.106 27.769C231.784 27.93 231.434 28.049 231.056 28.126C230.678 28.21 230.265 28.252 229.817 28.252ZM241.526 32.074L243.154 27.811L239.132 17.269H241.831L244.172 23.548C244.235 23.695 244.295 23.856 244.351 24.031C244.407 24.206 244.459 24.381 244.508 24.556C244.55 24.381 244.599 24.2095 244.655 24.0415C244.718 23.8665 244.781 23.702 244.844 23.548L247.186 17.269H249.884L244.235 32.074H241.526ZM256.177 28.252C254.665 28.252 253.472 27.7515 252.597 26.7505C251.722 25.7495 251.284 24.381 251.284 22.645C251.284 21.497 251.484 20.503 251.883 19.663C252.282 18.816 252.845 18.165 253.573 17.71C254.308 17.248 255.176 17.017 256.177 17.017C257.171 17.017 258.032 17.2445 258.76 17.6995C259.488 18.1545 260.048 18.802 260.44 19.642C260.832 20.482 261.028 21.4795 261.028 22.6345C261.028 23.7965 260.832 24.7975 260.44 25.6375C260.055 26.4775 259.499 27.125 258.771 27.58C258.043 28.028 257.178 28.252 256.177 28.252ZM256.177 25.7425C256.884 25.7425 257.434 25.4695 257.826 24.9235C258.218 24.3775 258.414 23.6145 258.414 22.6345C258.414 21.6545 258.214 20.8915 257.815 20.3455C257.423 19.7925 256.877 19.516 256.177 19.516C255.47 19.516 254.917 19.7925 254.518 20.3455C254.119 20.8985 253.92 21.665 253.92 22.645C253.92 23.611 254.119 24.3705 254.518 24.9235C254.917 25.4695 255.47 25.7425 256.177 25.7425ZM267.41 28.252C266.213 28.252 265.286 27.881 264.628 27.139C263.97 26.39 263.641 25.333 263.641 23.968V17.269H266.266V23.149C266.266 24.052 266.42 24.71 266.728 25.123C267.036 25.536 267.522 25.7425 268.187 25.7425C268.901 25.7425 269.426 25.536 269.762 25.123C270.105 24.703 270.277 24.059 270.277 23.191V17.269H272.891V28H270.277V26.992C269.948 27.412 269.542 27.727 269.059 27.937C268.583 28.147 268.033 28.252 267.41 28.252ZM276.194 28V17.269H278.819V18.424C279.015 18.011 279.323 17.675 279.743 17.416C280.163 17.15 280.604 17.017 281.066 17.017C281.829 17.017 282.473 17.2795 282.998 17.8045L282.631 20.209C282.344 19.971 282.064 19.803 281.791 19.705C281.518 19.607 281.217 19.558 280.888 19.558C280.454 19.558 280.083 19.6595 279.775 19.8625C279.467 20.0655 279.229 20.3595 279.061 20.7445C278.9 21.1295 278.819 21.5915 278.819 22.1305V28H276.194ZM293.057 28L289.13 17.269H291.85L294.097 23.653C294.16 23.807 294.216 23.9715 294.265 24.1465C294.314 24.3215 294.363 24.4965 294.412 24.6715C294.461 24.4965 294.51 24.3215 294.559 24.1465C294.615 23.9715 294.667 23.807 294.716 23.653L296.953 17.269H299.662L295.735 28H293.057ZM301.911 28V17.269H304.536V28H301.911ZM303.224 15.925C302.804 15.925 302.44 15.7745 302.132 15.4735C301.831 15.1655 301.68 14.8015 301.68 14.3815C301.68 13.9615 301.831 13.6045 302.132 13.3105C302.433 13.0095 302.797 12.859 303.224 12.859C303.665 12.859 304.032 13.006 304.326 13.3C304.62 13.594 304.767 13.9545 304.767 14.3815C304.767 14.8085 304.617 15.1725 304.316 15.4735C304.022 15.7745 303.658 15.925 303.224 15.925ZM311.691 28.252C310.312 28.252 309.231 27.755 308.447 26.761C307.663 25.767 307.271 24.388 307.271 22.624C307.271 21.504 307.456 20.524 307.827 19.684C308.198 18.844 308.716 18.1895 309.381 17.7205C310.053 17.2515 310.834 17.017 311.723 17.017C312.675 17.017 313.455 17.367 314.064 18.067V14.0245L316.679 12.838V28H314.064V27.118C313.546 27.874 312.755 28.252 311.691 28.252ZM312.122 25.7425C312.57 25.7425 312.951 25.6655 313.266 25.5115C313.581 25.3505 313.847 25.1125 314.064 24.7975V20.461C313.847 20.167 313.564 19.936 313.214 19.768C312.871 19.6 312.507 19.516 312.122 19.516C311.415 19.516 310.869 19.7855 310.484 20.3245C310.099 20.8565 309.906 21.623 309.906 22.624C309.906 23.282 309.994 23.8455 310.169 24.3145C310.344 24.7765 310.596 25.13 310.925 25.375C311.254 25.62 311.653 25.7425 312.122 25.7425ZM324.378 28.252C323.349 28.252 322.46 28.021 321.711 27.559C320.969 27.097 320.395 26.446 319.989 25.606C319.59 24.759 319.391 23.765 319.391 22.624C319.391 21.469 319.594 20.4715 320 19.6315C320.413 18.7915 320.99 18.1475 321.732 17.6995C322.481 17.2445 323.363 17.017 324.378 17.017C325.246 17.017 326.034 17.199 326.741 17.563C327.448 17.927 328.011 18.487 328.431 19.243C328.851 19.992 329.061 20.9475 329.061 22.1095C329.061 22.2915 329.054 22.5155 329.04 22.7815C329.033 23.0405 329.016 23.303 328.988 23.569H321.984C322.012 24.059 322.124 24.4895 322.32 24.8605C322.523 25.2245 322.8 25.508 323.15 25.711C323.5 25.914 323.913 26.0155 324.389 26.0155C324.9 26.0155 325.344 25.9315 325.722 25.7635C326.1 25.5885 326.457 25.312 326.793 24.934L328.305 26.4985C327.843 27.0235 327.287 27.447 326.636 27.769C325.985 28.091 325.232 28.252 324.378 28.252ZM321.995 21.5215H326.52C326.485 21.0525 326.38 20.65 326.205 20.314C326.03 19.971 325.785 19.7085 325.47 19.5265C325.155 19.3445 324.774 19.2535 324.326 19.2535C323.71 19.2535 323.185 19.4425 322.751 19.8205C322.317 20.1985 322.065 20.7655 321.995 21.5215ZM336.342 28.252C334.83 28.252 333.637 27.7515 332.762 26.7505C331.887 25.7495 331.449 24.381 331.449 22.645C331.449 21.497 331.649 20.503 332.048 19.663C332.447 18.816 333.01 18.165 333.738 17.71C334.473 17.248 335.341 17.017 336.342 17.017C337.336 17.017 338.197 17.2445 338.925 17.6995C339.653 18.1545 340.213 18.802 340.605 19.642C340.997 20.482 341.193 21.4795 341.193 22.6345C341.193 23.7965 340.997 24.7975 340.605 25.6375C340.22 26.4775 339.664 27.125 338.936 27.58C338.208 28.028 337.343 28.252 336.342 28.252ZM336.342 25.7425C337.049 25.7425 337.599 25.4695 337.991 24.9235C338.383 24.3775 338.579 23.6145 338.579 22.6345C338.579 21.6545 338.379 20.8915 337.98 20.3455C337.588 19.7925 337.042 19.516 336.342 19.516C335.635 19.516 335.082 19.7925 334.683 20.3455C334.284 20.8985 334.085 21.665 334.085 22.645C334.085 23.611 334.284 24.3705 334.683 24.9235C335.082 25.4695 335.635 25.7425 336.342 25.7425ZM168.197 55.252C167.21 55.252 166.356 55.0245 165.635 54.5695C164.914 54.1145 164.358 53.4705 163.966 52.6375C163.574 51.7975 163.378 50.8 163.378 49.645C163.378 48.49 163.574 47.4925 163.966 46.6525C164.365 45.8125 164.928 45.165 165.656 44.71C166.384 44.248 167.242 44.017 168.229 44.017C169.342 44.017 170.266 44.276 171.001 44.794C171.743 45.305 172.278 46.0645 172.607 47.0725L170.119 47.9125C169.951 47.4645 169.706 47.1215 169.384 46.8835C169.062 46.6385 168.691 46.516 168.271 46.516C167.592 46.516 167.049 46.796 166.643 47.356C166.244 47.916 166.045 48.679 166.045 49.645C166.045 50.597 166.241 51.353 166.633 51.913C167.025 52.473 167.553 52.753 168.218 52.753C168.687 52.753 169.086 52.62 169.415 52.354C169.751 52.088 170 51.6995 170.161 51.1885L172.639 51.934C172.324 53.033 171.788 53.8625 171.032 54.4225C170.283 54.9755 169.338 55.252 168.197 55.252ZM179.591 55.252C178.079 55.252 176.885 54.7515 176.01 53.7505C175.135 52.7495 174.698 51.381 174.698 49.645C174.698 48.497 174.897 47.503 175.296 46.663C175.695 45.816 176.259 45.165 176.987 44.71C177.722 44.248 178.59 44.017 179.591 44.017C180.585 44.017 181.446 44.2445 182.174 44.6995C182.902 45.1545 183.462 45.802 183.854 46.642C184.246 47.482 184.442 48.4795 184.442 49.6345C184.442 50.7965 184.246 51.7975 183.854 52.6375C183.469 53.4775 182.912 54.125 182.184 54.58C181.456 55.028 180.592 55.252 179.591 55.252ZM179.591 52.7425C180.298 52.7425 180.847 52.4695 181.239 51.9235C181.631 51.3775 181.827 50.6145 181.827 49.6345C181.827 48.6545 181.628 47.8915 181.229 47.3455C180.837 46.7925 180.291 46.516 179.591 46.516C178.884 46.516 178.331 46.7925 177.932 47.3455C177.533 47.8985 177.333 48.665 177.333 49.645C177.333 50.611 177.533 51.3705 177.932 51.9235C178.331 52.4695 178.884 52.7425 179.591 52.7425ZM186.954 55V44.269H189.579V45.298C189.922 44.871 190.332 44.5525 190.808 44.3425C191.291 44.1255 191.84 44.017 192.456 44.017C193.653 44.017 194.577 44.388 195.228 45.13C195.879 45.865 196.205 46.9255 196.205 48.3115V55H193.59V49.12C193.59 48.217 193.433 47.559 193.118 47.146C192.81 46.726 192.327 46.516 191.669 46.516C190.955 46.516 190.426 46.726 190.083 47.146C189.747 47.559 189.579 48.203 189.579 49.078V55H186.954ZM202.204 55.252C201.35 55.252 200.709 55.0175 200.282 54.5485C199.855 54.0795 199.642 53.3795 199.642 52.4485V46.5685H198.077V44.269H199.642V41.0875L202.246 39.838V44.269H204.682V46.5685H202.246V51.976C202.246 52.312 202.312 52.5605 202.445 52.7215C202.585 52.8825 202.802 52.963 203.096 52.963C203.614 52.963 204.181 52.802 204.797 52.48L204.493 54.769C204.171 54.93 203.821 55.049 203.443 55.126C203.065 55.21 202.652 55.252 202.204 55.252ZM211.637 55.252C210.608 55.252 209.719 55.021 208.97 54.559C208.228 54.097 207.654 53.446 207.248 52.606C206.849 51.759 206.649 50.765 206.649 49.624C206.649 48.469 206.852 47.4715 207.258 46.6315C207.671 45.7915 208.249 45.1475 208.991 44.6995C209.74 44.2445 210.622 44.017 211.637 44.017C212.505 44.017 213.292 44.199 213.999 44.563C214.706 44.927 215.27 45.487 215.69 46.243C216.11 46.992 216.32 47.9475 216.32 49.1095C216.32 49.2915 216.313 49.5155 216.299 49.7815C216.292 50.0405 216.274 50.303 216.246 50.569H209.243C209.271 51.059 209.383 51.4895 209.579 51.8605C209.782 52.2245 210.058 52.508 210.408 52.711C210.758 52.914 211.171 53.0155 211.647 53.0155C212.158 53.0155 212.603 52.9315 212.981 52.7635C213.359 52.5885 213.716 52.312 214.052 51.934L215.564 53.4985C215.102 54.0235 214.545 54.447 213.894 54.769C213.243 55.091 212.491 55.252 211.637 55.252ZM209.253 48.5215H213.779C213.744 48.0525 213.639 47.65 213.464 47.314C213.289 46.971 213.044 46.7085 212.729 46.5265C212.414 46.3445 212.032 46.2535 211.584 46.2535C210.968 46.2535 210.443 46.4425 210.009 46.8205C209.575 47.1985 209.323 47.7655 209.253 48.5215ZM218.967 55V44.269H221.592V45.298C221.935 44.871 222.345 44.5525 222.821 44.3425C223.304 44.1255 223.853 44.017 224.469 44.017C225.666 44.017 226.59 44.388 227.241 45.13C227.892 45.865 228.218 46.9255 228.218 48.3115V55H225.603V49.12C225.603 48.217 225.446 47.559 225.131 47.146C224.823 46.726 224.34 46.516 223.682 46.516C222.968 46.516 222.439 46.726 222.096 47.146C221.76 47.559 221.592 48.203 221.592 49.078V55H218.967ZM234.216 55.252C233.362 55.252 232.722 55.0175 232.295 54.5485C231.868 54.0795 231.654 53.3795 231.654 52.4485V46.5685H230.09V44.269H231.654V41.0875L234.258 39.838V44.269H236.694V46.5685H234.258V51.976C234.258 52.312 234.325 52.5605 234.458 52.7215C234.598 52.8825 234.815 52.963 235.109 52.963C235.627 52.963 236.194 52.802 236.81 52.48L236.505 54.769C236.183 54.93 235.833 55.049 235.455 55.126C235.077 55.21 234.664 55.252 234.216 55.252Z" fill="white"/>
<path d="M195.56 173C195.008 173 194.617 173.676 194.893 174.155L199.333 181.845C199.609 182.324 200.391 182.324 200.667 181.845L205.107 174.155C205.383 173.676 204.992 173 204.44 173H195.56ZM199 103V174H201V103H199Z" fill="#FC00FF"/>
<path d="M69.5942 242V229.914H65.4257V227.3H76.5032V229.914H72.3137V242H69.5942ZM77.535 242V231.269H80.16V232.424C80.356 232.011 80.664 231.675 81.084 231.416C81.504 231.15 81.945 231.017 82.407 231.017C83.17 231.017 83.814 231.279 84.339 231.804L83.9715 234.209C83.6845 233.971 83.4045 233.803 83.1315 233.705C82.8585 233.607 82.5575 233.558 82.2285 233.558C81.7945 233.558 81.4235 233.659 81.1155 233.862C80.8075 234.065 80.5695 234.359 80.4015 234.744C80.2405 235.129 80.16 235.591 80.16 236.13V242H77.535ZM89.2167 242.252C88.0477 242.252 87.1202 241.937 86.4342 241.307C85.7552 240.67 85.4157 239.809 85.4157 238.724C85.4157 238.024 85.5907 237.411 85.9407 236.886C86.2977 236.354 86.7912 235.945 87.4212 235.658C88.0582 235.364 88.8002 235.217 89.6472 235.217C90.1162 235.217 90.5677 235.262 91.0017 235.353C91.4427 235.437 91.8277 235.56 92.1567 235.721V235.049C92.1567 234.447 91.9852 233.995 91.6422 233.694C91.3062 233.386 90.8092 233.232 90.1512 233.232C89.6262 233.232 89.0872 233.327 88.5342 233.516C87.9812 233.705 87.4212 233.985 86.8542 234.356L86.0667 232.287C86.6827 231.881 87.3687 231.57 88.1247 231.353C88.8807 231.129 89.6437 231.017 90.4137 231.017C91.8557 231.017 92.9337 231.36 93.6477 232.046C94.3617 232.725 94.7187 233.74 94.7187 235.091V242H92.1567V241.139C91.7927 241.503 91.3587 241.779 90.8547 241.968C90.3577 242.158 89.8117 242.252 89.2167 242.252ZM89.8257 240.036C90.2597 240.036 90.6762 239.952 91.0752 239.784C91.4812 239.609 91.8417 239.364 92.1567 239.049V237.779C91.8557 237.632 91.5197 237.52 91.1487 237.443C90.7847 237.359 90.4207 237.317 90.0567 237.317C89.4057 237.317 88.8912 237.443 88.5132 237.695C88.1422 237.94 87.9567 238.283 87.9567 238.724C87.9567 239.137 88.1212 239.459 88.4502 239.69C88.7792 239.921 89.2377 240.036 89.8257 240.036ZM97.8582 242V231.269H100.483V232.298C100.826 231.871 101.236 231.552 101.712 231.342C102.195 231.125 102.744 231.017 103.36 231.017C104.557 231.017 105.481 231.388 106.132 232.13C106.783 232.865 107.109 233.925 107.109 235.311V242H104.494V236.12C104.494 235.217 104.337 234.559 104.022 234.146C103.714 233.726 103.231 233.516 102.573 233.516C101.859 233.516 101.33 233.726 100.987 234.146C100.651 234.559 100.483 235.203 100.483 236.078V242H97.8582ZM113.793 242.252C112.953 242.252 112.148 242.073 111.378 241.716C110.615 241.359 110.009 240.88 109.561 240.278L111.283 238.829C111.64 239.207 112.053 239.508 112.522 239.732C112.991 239.949 113.439 240.057 113.866 240.057C114.398 240.057 114.808 239.97 115.095 239.795C115.382 239.613 115.525 239.361 115.525 239.039C115.525 238.829 115.455 238.643 115.315 238.482C115.182 238.314 114.944 238.146 114.601 237.978C114.258 237.803 113.775 237.604 113.152 237.38C111.948 236.939 111.094 236.463 110.59 235.952C110.086 235.434 109.834 234.779 109.834 233.988C109.834 233.106 110.191 232.392 110.905 231.846C111.619 231.293 112.55 231.017 113.698 231.017C114.482 231.017 115.203 231.164 115.861 231.458C116.526 231.752 117.097 232.182 117.573 232.749L115.861 234.167C115.231 233.53 114.496 233.211 113.656 233.211C113.229 233.211 112.886 233.292 112.627 233.453C112.368 233.607 112.239 233.817 112.239 234.083C112.239 234.342 112.389 234.573 112.69 234.776C112.998 234.979 113.569 235.217 114.402 235.49C115.228 235.749 115.896 236.043 116.407 236.372C116.925 236.701 117.303 237.082 117.541 237.516C117.786 237.95 117.909 238.451 117.909 239.018C117.909 240.026 117.541 240.817 116.806 241.391C116.078 241.965 115.074 242.252 113.793 242.252ZM120.727 242V228.024L123.352 226.838V242H120.727ZM129.904 242.252C128.735 242.252 127.808 241.937 127.122 241.307C126.443 240.67 126.103 239.809 126.103 238.724C126.103 238.024 126.278 237.411 126.628 236.886C126.985 236.354 127.479 235.945 128.109 235.658C128.746 235.364 129.488 235.217 130.335 235.217C130.804 235.217 131.255 235.262 131.689 235.353C132.13 235.437 132.515 235.56 132.844 235.721V235.049C132.844 234.447 132.673 233.995 132.33 233.694C131.994 233.386 131.497 233.232 130.839 233.232C130.314 233.232 129.775 233.327 129.222 233.516C128.669 233.705 128.109 233.985 127.542 234.356L126.754 232.287C127.37 231.881 128.056 231.57 128.812 231.353C129.568 231.129 130.331 231.017 131.101 231.017C132.543 231.017 133.621 231.36 134.335 232.046C135.049 232.725 135.406 233.74 135.406 235.091V242H132.844V241.139C132.48 241.503 132.046 241.779 131.542 241.968C131.045 242.158 130.499 242.252 129.904 242.252ZM130.513 240.036C130.947 240.036 131.364 239.952 131.763 239.784C132.169 239.609 132.529 239.364 132.844 239.049V237.779C132.543 237.632 132.207 237.52 131.836 237.443C131.472 237.359 131.108 237.317 130.744 237.317C130.093 237.317 129.579 237.443 129.201 237.695C128.83 237.94 128.644 238.283 128.644 238.724C128.644 239.137 128.809 239.459 129.138 239.69C129.467 239.921 129.925 240.036 130.513 240.036ZM141.244 242.252C140.39 242.252 139.75 242.017 139.323 241.548C138.896 241.079 138.682 240.379 138.682 239.448V233.568H137.118V231.269H138.682V228.087L141.286 226.838V231.269H143.722V233.568H141.286V238.976C141.286 239.312 141.353 239.56 141.486 239.721C141.626 239.882 141.843 239.963 142.137 239.963C142.655 239.963 143.222 239.802 143.838 239.48L143.533 241.769C143.211 241.93 142.861 242.049 142.483 242.126C142.105 242.21 141.692 242.252 141.244 242.252ZM145.97 242V231.269H148.595V242H145.97ZM147.283 229.925C146.863 229.925 146.499 229.774 146.191 229.473C145.89 229.165 145.739 228.801 145.739 228.381C145.739 227.961 145.89 227.604 146.191 227.31C146.492 227.009 146.856 226.859 147.283 226.859C147.724 226.859 148.091 227.006 148.385 227.3C148.679 227.594 148.826 227.954 148.826 228.381C148.826 228.808 148.676 229.172 148.375 229.473C148.081 229.774 147.717 229.925 147.283 229.925ZM156.222 242.252C154.71 242.252 153.517 241.751 152.642 240.75C151.767 239.749 151.329 238.381 151.329 236.645C151.329 235.497 151.529 234.503 151.928 233.663C152.327 232.816 152.89 232.165 153.618 231.71C154.353 231.248 155.221 231.017 156.222 231.017C157.216 231.017 158.077 231.244 158.805 231.699C159.533 232.154 160.093 232.802 160.485 233.642C160.877 234.482 161.073 235.479 161.073 236.634C161.073 237.796 160.877 238.797 160.485 239.637C160.1 240.477 159.544 241.125 158.816 241.58C158.088 242.028 157.223 242.252 156.222 242.252ZM156.222 239.742C156.929 239.742 157.479 239.469 157.871 238.923C158.263 238.377 158.459 237.614 158.459 236.634C158.459 235.654 158.259 234.891 157.86 234.345C157.468 233.792 156.922 233.516 156.222 233.516C155.515 233.516 154.962 233.792 154.563 234.345C154.164 234.898 153.965 235.665 153.965 236.645C153.965 237.611 154.164 238.37 154.563 238.923C154.962 239.469 155.515 239.742 156.222 239.742ZM163.586 242V231.269H166.211V232.298C166.554 231.871 166.963 231.552 167.439 231.342C167.922 231.125 168.472 231.017 169.088 231.017C170.285 231.017 171.209 231.388 171.86 232.13C172.511 232.865 172.836 233.925 172.836 235.311V242H170.222V236.12C170.222 235.217 170.064 234.559 169.749 234.146C169.441 233.726 168.958 233.516 168.3 233.516C167.586 233.516 167.058 233.726 166.715 234.146C166.379 234.559 166.211 235.203 166.211 236.078V242H163.586ZM179.52 242.252C178.68 242.252 177.875 242.073 177.105 241.716C176.342 241.359 175.737 240.88 175.289 240.278L177.011 238.829C177.368 239.207 177.781 239.508 178.25 239.732C178.719 239.949 179.167 240.057 179.594 240.057C180.126 240.057 180.535 239.97 180.822 239.795C181.109 239.613 181.253 239.361 181.253 239.039C181.253 238.829 181.183 238.643 181.043 238.482C180.91 238.314 180.672 238.146 180.329 237.978C179.986 237.803 179.503 237.604 178.88 237.38C177.676 236.939 176.822 236.463 176.318 235.952C175.814 235.434 175.562 234.779 175.562 233.988C175.562 233.106 175.919 232.392 176.633 231.846C177.347 231.293 178.278 231.017 179.426 231.017C180.21 231.017 180.931 231.164 181.589 231.458C182.254 231.752 182.824 232.182 183.3 232.749L181.589 234.167C180.959 233.53 180.224 233.211 179.384 233.211C178.957 233.211 178.614 233.292 178.355 233.453C178.096 233.607 177.966 233.817 177.966 234.083C177.966 234.342 178.117 234.573 178.418 234.776C178.726 234.979 179.296 235.217 180.129 235.49C180.955 235.749 181.624 236.043 182.135 236.372C182.653 236.701 183.031 237.082 183.269 237.516C183.514 237.95 183.636 238.451 183.636 239.018C183.636 240.026 183.269 240.817 182.534 241.391C181.806 241.965 180.801 242.252 179.52 242.252ZM195.852 242.252C194.865 242.252 194.011 242.024 193.29 241.569C192.569 241.114 192.012 240.47 191.62 239.637C191.228 238.797 191.032 237.8 191.032 236.645C191.032 235.49 191.228 234.492 191.62 233.652C192.019 232.812 192.583 232.165 193.311 231.71C194.039 231.248 194.896 231.017 195.883 231.017C196.996 231.017 197.92 231.276 198.655 231.794C199.397 232.305 199.933 233.064 200.262 234.072L197.773 234.912C197.605 234.464 197.36 234.121 197.038 233.883C196.716 233.638 196.345 233.516 195.925 233.516C195.246 233.516 194.704 233.796 194.298 234.356C193.899 234.916 193.699 235.679 193.699 236.645C193.699 237.597 193.895 238.353 194.287 238.913C194.679 239.473 195.208 239.753 195.873 239.753C196.342 239.753 196.741 239.62 197.07 239.354C197.406 239.088 197.654 238.699 197.815 238.188L200.293 238.934C199.978 240.033 199.443 240.862 198.687 241.422C197.938 241.975 196.993 242.252 195.852 242.252ZM207.246 242.252C205.734 242.252 204.54 241.751 203.665 240.75C202.79 239.749 202.353 238.381 202.353 236.645C202.353 235.497 202.552 234.503 202.951 233.663C203.35 232.816 203.914 232.165 204.642 231.71C205.377 231.248 206.245 231.017 207.246 231.017C208.24 231.017 209.101 231.244 209.829 231.699C210.557 232.154 211.117 232.802 211.509 233.642C211.901 234.482 212.097 235.479 212.097 236.634C212.097 237.796 211.901 238.797 211.509 239.637C211.124 240.477 210.567 241.125 209.839 241.58C209.111 242.028 208.247 242.252 207.246 242.252ZM207.246 239.742C207.953 239.742 208.502 239.469 208.894 238.923C209.286 238.377 209.482 237.614 209.482 236.634C209.482 235.654 209.283 234.891 208.884 234.345C208.492 233.792 207.946 233.516 207.246 233.516C206.539 233.516 205.986 233.792 205.587 234.345C205.188 234.898 204.988 235.665 204.988 236.645C204.988 237.611 205.188 238.37 205.587 238.923C205.986 239.469 206.539 239.742 207.246 239.742ZM214.609 242V231.269H217.234V232.266C217.577 231.832 217.962 231.517 218.389 231.321C218.823 231.118 219.313 231.017 219.859 231.017C220.496 231.017 221.042 231.146 221.497 231.405C221.952 231.664 222.306 232.042 222.558 232.539C222.915 232.049 223.373 231.675 223.933 231.416C224.493 231.15 225.127 231.017 225.834 231.017C227.15 231.017 228.144 231.37 228.816 232.077C229.488 232.784 229.824 233.834 229.824 235.227V242H227.209V236.13C227.209 235.234 227.062 234.576 226.768 234.156C226.474 233.729 226.019 233.516 225.403 233.516C224.983 233.516 224.633 233.61 224.353 233.799C224.08 233.988 223.874 234.275 223.734 234.66C223.594 235.038 223.524 235.518 223.524 236.099V242H220.909V236.13C220.909 235.227 220.766 234.566 220.479 234.146C220.192 233.726 219.737 233.516 219.114 233.516C218.477 233.516 218.004 233.722 217.696 234.135C217.388 234.548 217.234 235.189 217.234 236.057V242H214.609ZM233.128 246.263V231.269H235.753V232.056C236.341 231.363 237.128 231.017 238.115 231.017C239.032 231.017 239.823 231.244 240.488 231.699C241.153 232.147 241.664 232.791 242.021 233.631C242.378 234.471 242.557 235.472 242.557 236.634C242.557 237.761 242.371 238.748 242 239.595C241.629 240.435 241.108 241.09 240.436 241.559C239.764 242.021 238.98 242.252 238.084 242.252C237.594 242.252 237.153 242.165 236.761 241.989C236.369 241.807 236.033 241.541 235.753 241.191V245.077L233.128 246.263ZM237.695 239.742C238.409 239.742 238.959 239.473 239.344 238.934C239.729 238.388 239.921 237.621 239.921 236.634C239.921 235.647 239.725 234.881 239.333 234.335C238.941 233.789 238.395 233.516 237.695 233.516C237.268 233.516 236.894 233.593 236.572 233.747C236.257 233.901 235.984 234.135 235.753 234.45V238.787C235.942 239.088 236.208 239.322 236.551 239.49C236.901 239.658 237.282 239.742 237.695 239.742ZM245.373 242V228.024L247.998 226.838V242H245.373ZM255.8 242.252C254.771 242.252 253.882 242.021 253.133 241.559C252.391 241.097 251.817 240.446 251.411 239.606C251.012 238.759 250.813 237.765 250.813 236.624C250.813 235.469 251.016 234.471 251.422 233.631C251.835 232.791 252.412 232.147 253.154 231.699C253.903 231.244 254.785 231.017 255.8 231.017C256.668 231.017 257.456 231.199 258.163 231.563C258.87 231.927 259.433 232.487 259.853 233.243C260.273 233.992 260.483 234.947 260.483 236.109C260.483 236.291 260.476 236.515 260.462 236.781C260.455 237.04 260.438 237.303 260.41 237.569H253.406C253.434 238.059 253.546 238.489 253.742 238.86C253.945 239.224 254.222 239.508 254.572 239.711C254.922 239.914 255.335 240.015 255.811 240.015C256.322 240.015 256.766 239.931 257.144 239.763C257.522 239.588 257.879 239.312 258.215 238.934L259.727 240.498C259.265 241.023 258.709 241.447 258.058 241.769C257.407 242.091 256.654 242.252 255.8 242.252ZM253.417 235.521H257.942C257.907 235.052 257.802 234.65 257.627 234.314C257.452 233.971 257.207 233.708 256.892 233.526C256.577 233.344 256.196 233.253 255.748 233.253C255.132 233.253 254.607 233.442 254.173 233.82C253.739 234.198 253.487 234.765 253.417 235.521ZM266.096 242.252C265.242 242.252 264.601 242.017 264.174 241.548C263.747 241.079 263.534 240.379 263.534 239.448V233.568H261.969V231.269H263.534V228.087L266.138 226.838V231.269H268.574V233.568H266.138V238.976C266.138 239.312 266.204 239.56 266.337 239.721C266.477 239.882 266.694 239.963 266.988 239.963C267.506 239.963 268.073 239.802 268.689 239.48L268.385 241.769C268.063 241.93 267.713 242.049 267.335 242.126C266.957 242.21 266.544 242.252 266.096 242.252ZM275.529 242.252C274.5 242.252 273.611 242.021 272.862 241.559C272.12 241.097 271.546 240.446 271.14 239.606C270.741 238.759 270.541 237.765 270.541 236.624C270.541 235.469 270.744 234.471 271.15 233.631C271.563 232.791 272.141 232.147 272.883 231.699C273.632 231.244 274.514 231.017 275.529 231.017C276.397 231.017 277.184 231.199 277.891 231.563C278.598 231.927 279.162 232.487 279.582 233.243C280.002 233.992 280.212 234.947 280.212 236.109C280.212 236.291 280.205 236.515 280.191 236.781C280.184 237.04 280.166 237.303 280.138 237.569H273.135C273.163 238.059 273.275 238.489 273.471 238.86C273.674 239.224 273.95 239.508 274.3 239.711C274.65 239.914 275.063 240.015 275.539 240.015C276.05 240.015 276.495 239.931 276.873 239.763C277.251 239.588 277.608 239.312 277.944 238.934L279.456 240.498C278.994 241.023 278.437 241.447 277.786 241.769C277.135 242.091 276.383 242.252 275.529 242.252ZM273.145 235.521H277.671C277.636 235.052 277.531 234.65 277.356 234.314C277.181 233.971 276.936 233.708 276.621 233.526C276.306 233.344 275.924 233.253 275.476 233.253C274.86 233.253 274.335 233.442 273.901 233.82C273.467 234.198 273.215 234.765 273.145 235.521ZM287.02 242.252C285.641 242.252 284.56 241.755 283.776 240.761C282.992 239.767 282.6 238.388 282.6 236.624C282.6 235.504 282.785 234.524 283.156 233.684C283.527 232.844 284.045 232.189 284.71 231.72C285.382 231.251 286.163 231.017 287.052 231.017C288.004 231.017 288.784 231.367 289.393 232.067V228.024L292.008 226.838V242H289.393V241.118C288.875 241.874 288.084 242.252 287.02 242.252ZM287.451 239.742C287.899 239.742 288.28 239.665 288.595 239.511C288.91 239.35 289.176 239.112 289.393 238.797V234.461C289.176 234.167 288.893 233.936 288.543 233.768C288.2 233.6 287.836 233.516 287.451 233.516C286.744 233.516 286.198 233.785 285.813 234.324C285.428 234.856 285.235 235.623 285.235 236.624C285.235 237.282 285.323 237.845 285.498 238.314C285.673 238.776 285.925 239.13 286.254 239.375C286.583 239.62 286.982 239.742 287.451 239.742ZM303.708 242.252C302.539 242.252 301.611 241.937 300.925 241.307C300.246 240.67 299.907 239.809 299.907 238.724C299.907 238.024 300.082 237.411 300.432 236.886C300.789 236.354 301.282 235.945 301.912 235.658C302.549 235.364 303.291 235.217 304.138 235.217C304.607 235.217 305.059 235.262 305.493 235.353C305.934 235.437 306.319 235.56 306.648 235.721V235.049C306.648 234.447 306.476 233.995 306.133 233.694C305.797 233.386 305.3 233.232 304.642 233.232C304.117 233.232 303.578 233.327 303.025 233.516C302.472 233.705 301.912 233.985 301.345 234.356L300.558 232.287C301.174 231.881 301.86 231.57 302.616 231.353C303.372 231.129 304.135 231.017 304.905 231.017C306.347 231.017 307.425 231.36 308.139 232.046C308.853 232.725 309.21 233.74 309.21 235.091V242H306.648V241.139C306.284 241.503 305.85 241.779 305.346 241.968C304.849 242.158 304.303 242.252 303.708 242.252ZM304.317 240.036C304.751 240.036 305.167 239.952 305.566 239.784C305.972 239.609 306.333 239.364 306.648 239.049V237.779C306.347 237.632 306.011 237.52 305.64 237.443C305.276 237.359 304.912 237.317 304.548 237.317C303.897 237.317 303.382 237.443 303.004 237.695C302.633 237.94 302.448 238.283 302.448 238.724C302.448 239.137 302.612 239.459 302.941 239.69C303.27 239.921 303.729 240.036 304.317 240.036ZM312.349 242V231.269H314.974V232.298C315.317 231.871 315.727 231.552 316.203 231.342C316.686 231.125 317.235 231.017 317.851 231.017C319.048 231.017 319.972 231.388 320.623 232.13C321.274 232.865 321.6 233.925 321.6 235.311V242H318.985V236.12C318.985 235.217 318.828 234.559 318.513 234.146C318.205 233.726 317.722 233.516 317.064 233.516C316.35 233.516 315.821 233.726 315.478 234.146C315.142 234.559 314.974 235.203 314.974 236.078V242H312.349ZM328.733 242.252C327.354 242.252 326.273 241.755 325.489 240.761C324.705 239.767 324.313 238.388 324.313 236.624C324.313 235.504 324.498 234.524 324.869 233.684C325.24 232.844 325.758 232.189 326.423 231.72C327.095 231.251 327.876 231.017 328.765 231.017C329.717 231.017 330.497 231.367 331.106 232.067V228.024L333.721 226.838V242H331.106V241.118C330.588 241.874 329.797 242.252 328.733 242.252ZM329.164 239.742C329.612 239.742 329.993 239.665 330.308 239.511C330.623 239.35 330.889 239.112 331.106 238.797V234.461C330.889 234.167 330.606 233.936 330.256 233.768C329.913 233.6 329.549 233.516 329.164 233.516C328.457 233.516 327.911 233.785 327.526 234.324C327.141 234.856 326.948 235.623 326.948 236.624C326.948 237.282 327.036 237.845 327.211 238.314C327.386 238.776 327.638 239.13 327.967 239.375C328.296 239.62 328.695 239.742 329.164 239.742ZM80.3997 269.252C79.2027 269.252 78.2752 268.881 77.6172 268.139C76.9592 267.39 76.6302 266.333 76.6302 264.968V258.269H79.2552V264.149C79.2552 265.052 79.4092 265.71 79.7172 266.123C80.0252 266.536 80.5117 266.742 81.1767 266.742C81.8907 266.742 82.4157 266.536 82.7517 266.123C83.0947 265.703 83.2662 265.059 83.2662 264.191V258.269H85.8807V269H83.2662V267.992C82.9372 268.412 82.5312 268.727 82.0482 268.937C81.5722 269.147 81.0227 269.252 80.3997 269.252ZM89.1834 273.263V258.269H91.8084V259.056C92.3964 258.363 93.1839 258.017 94.1709 258.017C95.0879 258.017 95.8789 258.244 96.5439 258.699C97.2089 259.147 97.7199 259.791 98.0769 260.631C98.4339 261.471 98.6124 262.472 98.6124 263.634C98.6124 264.761 98.4269 265.748 98.0559 266.595C97.6849 267.435 97.1634 268.09 96.4914 268.559C95.8194 269.021 95.0354 269.252 94.1394 269.252C93.6494 269.252 93.2084 269.165 92.8164 268.989C92.4244 268.807 92.0884 268.541 91.8084 268.191V272.077L89.1834 273.263ZM93.7509 266.742C94.4649 266.742 95.0144 266.473 95.3994 265.934C95.7844 265.388 95.9769 264.621 95.9769 263.634C95.9769 262.647 95.7809 261.881 95.3889 261.335C94.9969 260.789 94.4509 260.516 93.7509 260.516C93.3239 260.516 92.9494 260.593 92.6274 260.747C92.3124 260.901 92.0394 261.135 91.8084 261.45V265.787C91.9974 266.088 92.2634 266.322 92.6064 266.49C92.9564 266.658 93.3379 266.742 93.7509 266.742ZM101.429 269V255.024L104.054 253.838V269H101.429ZM111.761 269.252C110.249 269.252 109.056 268.751 108.181 267.75C107.306 266.749 106.868 265.381 106.868 263.645C106.868 262.497 107.068 261.503 107.467 260.663C107.866 259.816 108.429 259.165 109.157 258.71C109.892 258.248 110.76 258.017 111.761 258.017C112.755 258.017 113.616 258.244 114.344 258.699C115.072 259.154 115.632 259.802 116.024 260.642C116.416 261.482 116.612 262.479 116.612 263.634C116.612 264.796 116.416 265.797 116.024 266.637C115.639 267.477 115.083 268.125 114.355 268.58C113.627 269.028 112.762 269.252 111.761 269.252ZM111.761 266.742C112.468 266.742 113.018 266.469 113.41 265.923C113.802 265.377 113.998 264.614 113.998 263.634C113.998 262.654 113.798 261.891 113.399 261.345C113.007 260.792 112.461 260.516 111.761 260.516C111.054 260.516 110.501 260.792 110.102 261.345C109.703 261.898 109.504 262.665 109.504 263.645C109.504 264.611 109.703 265.37 110.102 265.923C110.501 266.469 111.054 266.742 111.761 266.742ZM122.583 269.252C121.414 269.252 120.486 268.937 119.8 268.307C119.121 267.67 118.782 266.809 118.782 265.724C118.782 265.024 118.957 264.411 119.307 263.886C119.664 263.354 120.157 262.945 120.787 262.658C121.424 262.364 122.166 262.217 123.013 262.217C123.482 262.217 123.934 262.262 124.368 262.353C124.809 262.437 125.194 262.56 125.523 262.721V262.049C125.523 261.447 125.351 260.995 125.008 260.694C124.672 260.386 124.175 260.232 123.517 260.232C122.992 260.232 122.453 260.327 121.9 260.516C121.347 260.705 120.787 260.985 120.22 261.356L119.433 259.287C120.049 258.881 120.735 258.57 121.491 258.353C122.247 258.129 123.01 258.017 123.78 258.017C125.222 258.017 126.3 258.36 127.014 259.046C127.728 259.725 128.085 260.74 128.085 262.091V269H125.523V268.139C125.159 268.503 124.725 268.779 124.221 268.968C123.724 269.158 123.178 269.252 122.583 269.252ZM123.192 267.036C123.626 267.036 124.042 266.952 124.441 266.784C124.847 266.609 125.208 266.364 125.523 266.049V264.779C125.222 264.632 124.886 264.52 124.515 264.443C124.151 264.359 123.787 264.317 123.423 264.317C122.772 264.317 122.257 264.443 121.879 264.695C121.508 264.94 121.323 265.283 121.323 265.724C121.323 266.137 121.487 266.459 121.816 266.69C122.145 266.921 122.604 267.036 123.192 267.036ZM135.057 269.252C133.678 269.252 132.597 268.755 131.813 267.761C131.029 266.767 130.637 265.388 130.637 263.624C130.637 262.504 130.822 261.524 131.193 260.684C131.564 259.844 132.082 259.189 132.747 258.72C133.419 258.251 134.2 258.017 135.089 258.017C136.041 258.017 136.821 258.367 137.43 259.067V255.024L140.045 253.838V269H137.43V268.118C136.912 268.874 136.121 269.252 135.057 269.252ZM135.488 266.742C135.936 266.742 136.317 266.665 136.632 266.511C136.947 266.35 137.213 266.112 137.43 265.797V261.461C137.213 261.167 136.93 260.936 136.58 260.768C136.237 260.6 135.873 260.516 135.488 260.516C134.781 260.516 134.235 260.785 133.85 261.324C133.465 261.856 133.272 262.623 133.272 263.624C133.272 264.282 133.36 264.845 133.535 265.314C133.71 265.776 133.962 266.13 134.291 266.375C134.62 266.62 135.019 266.742 135.488 266.742ZM147.745 269.252C146.716 269.252 145.827 269.021 145.078 268.559C144.336 268.097 143.762 267.446 143.356 266.606C142.957 265.759 142.757 264.765 142.757 263.624C142.757 262.469 142.96 261.471 143.366 260.631C143.779 259.791 144.357 259.147 145.099 258.699C145.848 258.244 146.73 258.017 147.745 258.017C148.613 258.017 149.4 258.199 150.107 258.563C150.814 258.927 151.378 259.487 151.798 260.243C152.218 260.992 152.428 261.947 152.428 263.109C152.428 263.291 152.421 263.515 152.407 263.781C152.4 264.04 152.382 264.303 152.354 264.569H145.351C145.379 265.059 145.491 265.489 145.687 265.86C145.89 266.224 146.166 266.508 146.516 266.711C146.866 266.914 147.279 267.015 147.755 267.015C148.266 267.015 148.711 266.931 149.089 266.763C149.467 266.588 149.824 266.312 150.16 265.934L151.672 267.498C151.21 268.023 150.653 268.447 150.002 268.769C149.351 269.091 148.599 269.252 147.745 269.252ZM145.361 262.521H149.887C149.852 262.052 149.747 261.65 149.572 261.314C149.397 260.971 149.152 260.708 148.837 260.526C148.522 260.344 148.14 260.253 147.692 260.253C147.076 260.253 146.551 260.442 146.117 260.82C145.683 261.198 145.431 261.765 145.361 262.521ZM159.236 269.252C157.857 269.252 156.776 268.755 155.992 267.761C155.208 266.767 154.816 265.388 154.816 263.624C154.816 262.504 155.001 261.524 155.372 260.684C155.743 259.844 156.261 259.189 156.926 258.72C157.598 258.251 158.379 258.017 159.268 258.017C160.22 258.017 161 258.367 161.609 259.067V255.024L164.224 253.838V269H161.609V268.118C161.091 268.874 160.3 269.252 159.236 269.252ZM159.667 266.742C160.115 266.742 160.496 266.665 160.811 266.511C161.126 266.35 161.392 266.112 161.609 265.797V261.461C161.392 261.167 161.109 260.936 160.759 260.768C160.416 260.6 160.052 260.516 159.667 260.516C158.96 260.516 158.414 260.785 158.029 261.324C157.644 261.856 157.451 262.623 157.451 263.624C157.451 264.282 157.539 264.845 157.714 265.314C157.889 265.776 158.141 266.13 158.47 266.375C158.799 266.62 159.198 266.742 159.667 266.742ZM175.882 269.252C175.028 269.252 174.387 269.017 173.96 268.548C173.533 268.079 173.32 267.379 173.32 266.448V260.568H171.755V258.269H173.32V255.087L175.924 253.838V258.269H178.36V260.568H175.924V265.976C175.924 266.312 175.99 266.56 176.123 266.721C176.263 266.882 176.48 266.963 176.774 266.963C177.292 266.963 177.859 266.802 178.475 266.48L178.171 268.769C177.849 268.93 177.499 269.049 177.121 269.126C176.743 269.21 176.33 269.252 175.882 269.252ZM185.22 269.252C183.708 269.252 182.515 268.751 181.64 267.75C180.765 266.749 180.327 265.381 180.327 263.645C180.327 262.497 180.527 261.503 180.926 260.663C181.325 259.816 181.888 259.165 182.616 258.71C183.351 258.248 184.219 258.017 185.22 258.017C186.214 258.017 187.075 258.244 187.803 258.699C188.531 259.154 189.091 259.802 189.483 260.642C189.875 261.482 190.071 262.479 190.071 263.634C190.071 264.796 189.875 265.797 189.483 266.637C189.098 267.477 188.542 268.125 187.814 268.58C187.086 269.028 186.221 269.252 185.22 269.252ZM185.22 266.742C185.927 266.742 186.477 266.469 186.869 265.923C187.261 265.377 187.457 264.614 187.457 263.634C187.457 262.654 187.257 261.891 186.858 261.345C186.466 260.792 185.92 260.516 185.22 260.516C184.513 260.516 183.96 260.792 183.561 261.345C183.162 261.898 182.963 262.665 182.963 263.645C182.963 264.611 183.162 265.37 183.561 265.923C183.96 266.469 184.513 266.742 185.22 266.742ZM199.383 273.074L201.01 268.811L196.989 258.269H199.687L202.029 264.548C202.092 264.695 202.151 264.856 202.207 265.031C202.263 265.206 202.316 265.381 202.365 265.556C202.407 265.381 202.456 265.209 202.512 265.041C202.575 264.866 202.638 264.702 202.701 264.548L205.042 258.269H207.741L202.092 273.074H199.383ZM214.034 269.252C212.522 269.252 211.328 268.751 210.453 267.75C209.578 266.749 209.141 265.381 209.141 263.645C209.141 262.497 209.34 261.503 209.739 260.663C210.138 259.816 210.702 259.165 211.43 258.71C212.165 258.248 213.033 258.017 214.034 258.017C215.028 258.017 215.889 258.244 216.617 258.699C217.345 259.154 217.905 259.802 218.297 260.642C218.689 261.482 218.885 262.479 218.885 263.634C218.885 264.796 218.689 265.797 218.297 266.637C217.912 267.477 217.355 268.125 216.627 268.58C215.899 269.028 215.035 269.252 214.034 269.252ZM214.034 266.742C214.741 266.742 215.29 266.469 215.682 265.923C216.074 265.377 216.27 264.614 216.27 263.634C216.27 262.654 216.071 261.891 215.672 261.345C215.28 260.792 214.734 260.516 214.034 260.516C213.327 260.516 212.774 260.792 212.375 261.345C211.976 261.898 211.776 262.665 211.776 263.645C211.776 264.611 211.976 265.37 212.375 265.923C212.774 266.469 213.327 266.742 214.034 266.742ZM225.267 269.252C224.07 269.252 223.142 268.881 222.484 268.139C221.826 267.39 221.497 266.333 221.497 264.968V258.269H224.122V264.149C224.122 265.052 224.276 265.71 224.584 266.123C224.892 266.536 225.379 266.742 226.044 266.742C226.758 266.742 227.283 266.536 227.619 266.123C227.962 265.703 228.133 265.059 228.133 264.191V258.269H230.748V269H228.133V267.992C227.804 268.412 227.398 268.727 226.915 268.937C226.439 269.147 225.89 269.252 225.267 269.252ZM234.051 269V258.269H236.676V259.424C236.872 259.011 237.18 258.675 237.6 258.416C238.02 258.15 238.461 258.017 238.923 258.017C239.686 258.017 240.33 258.279 240.855 258.804L240.487 261.209C240.2 260.971 239.92 260.803 239.647 260.705C239.374 260.607 239.073 260.558 238.744 260.558C238.31 260.558 237.939 260.659 237.631 260.862C237.323 261.065 237.085 261.359 236.917 261.744C236.756 262.129 236.676 262.591 236.676 263.13V269H234.051ZM252.289 269.252C251.302 269.252 250.448 269.024 249.727 268.569C249.006 268.114 248.45 267.47 248.058 266.637C247.666 265.797 247.47 264.8 247.47 263.645C247.47 262.49 247.666 261.492 248.058 260.652C248.457 259.812 249.02 259.165 249.748 258.71C250.476 258.248 251.334 258.017 252.321 258.017C253.434 258.017 254.358 258.276 255.093 258.794C255.835 259.305 256.37 260.064 256.699 261.072L254.211 261.912C254.043 261.464 253.798 261.121 253.476 260.883C253.154 260.638 252.783 260.516 252.363 260.516C251.684 260.516 251.141 260.796 250.735 261.356C250.336 261.916 250.137 262.679 250.137 263.645C250.137 264.597 250.333 265.353 250.725 265.913C251.117 266.473 251.645 266.753 252.31 266.753C252.779 266.753 253.178 266.62 253.507 266.354C253.843 266.088 254.092 265.699 254.253 265.188L256.731 265.934C256.416 267.033 255.88 267.862 255.124 268.422C254.375 268.975 253.43 269.252 252.289 269.252ZM259.398 269V255.045L262.023 253.838V259.308C262.366 258.874 262.776 258.552 263.252 258.342C263.735 258.125 264.284 258.017 264.9 258.017C265.726 258.017 266.416 258.192 266.969 258.542C267.529 258.885 267.949 259.378 268.229 260.022C268.509 260.659 268.649 261.422 268.649 262.311V269H266.034V263.12C266.034 262.238 265.884 261.583 265.583 261.156C265.282 260.729 264.792 260.516 264.113 260.516C263.399 260.516 262.87 260.726 262.527 261.146C262.191 261.559 262.023 262.203 262.023 263.078V269H259.398ZM275.017 269.252C273.848 269.252 272.921 268.937 272.235 268.307C271.556 267.67 271.216 266.809 271.216 265.724C271.216 265.024 271.391 264.411 271.741 263.886C272.098 263.354 272.592 262.945 273.222 262.658C273.859 262.364 274.601 262.217 275.448 262.217C275.917 262.217 276.368 262.262 276.802 262.353C277.243 262.437 277.628 262.56 277.957 262.721V262.049C277.957 261.447 277.786 260.995 277.443 260.694C277.107 260.386 276.61 260.232 275.952 260.232C275.427 260.232 274.888 260.327 274.335 260.516C273.782 260.705 273.222 260.985 272.655 261.356L271.867 259.287C272.483 258.881 273.169 258.57 273.925 258.353C274.681 258.129 275.444 258.017 276.214 258.017C277.656 258.017 278.734 258.36 279.448 259.046C280.162 259.725 280.519 260.74 280.519 262.091V269H277.957V268.139C277.593 268.503 277.159 268.779 276.655 268.968C276.158 269.158 275.612 269.252 275.017 269.252ZM275.626 267.036C276.06 267.036 276.477 266.952 276.876 266.784C277.282 266.609 277.642 266.364 277.957 266.049V264.779C277.656 264.632 277.32 264.52 276.949 264.443C276.585 264.359 276.221 264.317 275.857 264.317C275.206 264.317 274.692 264.443 274.314 264.695C273.943 264.94 273.757 265.283 273.757 265.724C273.757 266.137 273.922 266.459 274.251 266.69C274.58 266.921 275.038 267.036 275.626 267.036ZM283.659 269V258.269H286.284V259.298C286.627 258.871 287.036 258.552 287.512 258.342C287.995 258.125 288.545 258.017 289.161 258.017C290.358 258.017 291.282 258.388 291.933 259.13C292.584 259.865 292.909 260.925 292.909 262.311V269H290.295V263.12C290.295 262.217 290.137 261.559 289.822 261.146C289.514 260.726 289.031 260.516 288.373 260.516C287.659 260.516 287.131 260.726 286.788 261.146C286.452 261.559 286.284 262.203 286.284 263.078V269H283.659ZM296.21 269V258.269H298.835V259.298C299.178 258.871 299.587 258.552 300.063 258.342C300.546 258.125 301.096 258.017 301.712 258.017C302.909 258.017 303.833 258.388 304.484 259.13C305.135 259.865 305.46 260.925 305.46 262.311V269H302.846V263.12C302.846 262.217 302.688 261.559 302.373 261.146C302.065 260.726 301.582 260.516 300.924 260.516C300.21 260.516 299.682 260.726 299.339 261.146C299.003 261.559 298.835 262.203 298.835 263.078V269H296.21ZM313.161 269.252C312.132 269.252 311.243 269.021 310.494 268.559C309.752 268.097 309.178 267.446 308.772 266.606C308.373 265.759 308.173 264.765 308.173 263.624C308.173 262.469 308.376 261.471 308.782 260.631C309.195 259.791 309.773 259.147 310.515 258.699C311.264 258.244 312.146 258.017 313.161 258.017C314.029 258.017 314.816 258.199 315.523 258.563C316.23 258.927 316.794 259.487 317.214 260.243C317.634 260.992 317.844 261.947 317.844 263.109C317.844 263.291 317.837 263.515 317.823 263.781C317.816 264.04 317.798 264.303 317.77 264.569H310.767C310.795 265.059 310.907 265.489 311.103 265.86C311.306 266.224 311.582 266.508 311.932 266.711C312.282 266.914 312.695 267.015 313.171 267.015C313.682 267.015 314.127 266.931 314.505 266.763C314.883 266.588 315.24 266.312 315.576 265.934L317.088 267.498C316.626 268.023 316.069 268.447 315.418 268.769C314.767 269.091 314.015 269.252 313.161 269.252ZM310.777 262.521H315.303C315.268 262.052 315.163 261.65 314.988 261.314C314.813 260.971 314.568 260.708 314.253 260.526C313.938 260.344 313.556 260.253 313.108 260.253C312.492 260.253 311.967 260.442 311.533 260.82C311.099 261.198 310.847 261.765 310.777 262.521ZM320.535 269V255.024L323.16 253.838V269H320.535Z" fill="white"/>
<path d="M195.56 387C195.008 387 194.617 387.676 194.893 388.155L199.333 395.845C199.609 396.324 200.391 396.324 200.667 395.845L205.107 388.155C205.383 387.676 204.992 387 204.44 387H195.56ZM199 317V388H201V317H199Z" fill="#FC00FF"/>
<path d="M109.016 456.252C108.099 456.252 107.266 456.091 106.517 455.769C105.768 455.447 105.124 454.992 104.585 454.404C104.053 453.809 103.654 453.109 103.388 452.304L105.856 451.39C106.171 452.062 106.608 452.615 107.168 453.049C107.735 453.476 108.372 453.69 109.079 453.69C109.828 453.69 110.423 453.532 110.864 453.217C111.312 452.902 111.536 452.444 111.536 451.842C111.536 451.429 111.403 451.086 111.137 450.813C110.878 450.533 110.525 450.295 110.077 450.099C109.636 449.896 109.135 449.7 108.575 449.511C108.036 449.329 107.494 449.126 106.948 448.902C106.402 448.678 105.901 448.405 105.446 448.083C104.991 447.754 104.624 447.341 104.344 446.844C104.071 446.347 103.934 445.738 103.934 445.017C103.934 444.296 104.127 443.634 104.512 443.032C104.897 442.43 105.453 441.951 106.181 441.594C106.916 441.23 107.805 441.048 108.848 441.048C109.702 441.048 110.458 441.195 111.116 441.489C111.781 441.776 112.331 442.168 112.765 442.665C113.199 443.162 113.5 443.725 113.668 444.355L111.232 445.164C111.036 444.723 110.735 444.355 110.329 444.061C109.93 443.76 109.387 443.61 108.701 443.61C108.057 443.61 107.557 443.736 107.2 443.988C106.843 444.24 106.664 444.597 106.664 445.059C106.664 445.374 106.783 445.643 107.021 445.867C107.266 446.084 107.592 446.28 107.998 446.455C108.411 446.63 108.876 446.809 109.394 446.991C109.975 447.187 110.553 447.411 111.127 447.663C111.708 447.908 112.233 448.209 112.702 448.566C113.178 448.923 113.559 449.367 113.846 449.899C114.133 450.424 114.277 451.068 114.277 451.831C114.277 452.769 114.042 453.567 113.573 454.225C113.111 454.883 112.485 455.387 111.694 455.737C110.903 456.081 110.01 456.252 109.016 456.252ZM119.926 456.252C119.072 456.252 118.432 456.017 118.005 455.548C117.578 455.079 117.364 454.379 117.364 453.448V447.568H115.8V445.269H117.364V442.087L119.968 440.838V445.269H122.404V447.568H119.968V452.976C119.968 453.312 120.035 453.56 120.168 453.721C120.308 453.882 120.525 453.963 120.819 453.963C121.337 453.963 121.904 453.802 122.52 453.48L122.215 455.769C121.893 455.93 121.543 456.049 121.165 456.126C120.787 456.21 120.374 456.252 119.926 456.252ZM128.11 456.252C126.941 456.252 126.013 455.937 125.327 455.307C124.648 454.67 124.309 453.809 124.309 452.724C124.309 452.024 124.484 451.411 124.834 450.886C125.191 450.354 125.684 449.945 126.314 449.658C126.951 449.364 127.693 449.217 128.54 449.217C129.009 449.217 129.461 449.262 129.895 449.353C130.336 449.437 130.721 449.56 131.05 449.721V449.049C131.05 448.447 130.878 447.995 130.535 447.694C130.199 447.386 129.702 447.232 129.044 447.232C128.519 447.232 127.98 447.327 127.427 447.516C126.874 447.705 126.314 447.985 125.747 448.356L124.96 446.287C125.576 445.881 126.262 445.57 127.018 445.353C127.774 445.129 128.537 445.017 129.307 445.017C130.749 445.017 131.827 445.36 132.541 446.046C133.255 446.725 133.612 447.74 133.612 449.091V456H131.05V455.139C130.686 455.503 130.252 455.779 129.748 455.968C129.251 456.158 128.705 456.252 128.11 456.252ZM128.719 454.036C129.153 454.036 129.569 453.952 129.968 453.784C130.374 453.609 130.735 453.364 131.05 453.049V451.779C130.749 451.632 130.413 451.52 130.042 451.443C129.678 451.359 129.314 451.317 128.95 451.317C128.299 451.317 127.784 451.443 127.406 451.695C127.035 451.94 126.85 452.283 126.85 452.724C126.85 453.137 127.014 453.459 127.343 453.69C127.672 453.921 128.131 454.036 128.719 454.036ZM136.751 456V445.269H139.376V446.424C139.572 446.011 139.88 445.675 140.3 445.416C140.72 445.15 141.161 445.017 141.623 445.017C142.386 445.017 143.03 445.279 143.555 445.804L143.188 448.209C142.901 447.971 142.621 447.803 142.348 447.705C142.075 447.607 141.774 447.558 141.445 447.558C141.011 447.558 140.64 447.659 140.332 447.862C140.024 448.065 139.786 448.359 139.618 448.744C139.457 449.129 139.376 449.591 139.376 450.13V456H136.751ZM148.719 456.252C147.865 456.252 147.225 456.017 146.798 455.548C146.371 455.079 146.157 454.379 146.157 453.448V447.568H144.593V445.269H146.157V442.087L148.761 440.838V445.269H151.197V447.568H148.761V452.976C148.761 453.312 148.828 453.56 148.961 453.721C149.101 453.882 149.318 453.963 149.612 453.963C150.13 453.963 150.697 453.802 151.313 453.48L151.008 455.769C150.686 455.93 150.336 456.049 149.958 456.126C149.58 456.21 149.167 456.252 148.719 456.252ZM162.213 456.252C161.359 456.252 160.719 456.017 160.292 455.548C159.865 455.079 159.651 454.379 159.651 453.448V447.568H158.087V445.269H159.651V442.087L162.255 440.838V445.269H164.691V447.568H162.255V452.976C162.255 453.312 162.322 453.56 162.455 453.721C162.595 453.882 162.812 453.963 163.106 453.963C163.624 453.963 164.191 453.802 164.807 453.48L164.502 455.769C164.18 455.93 163.83 456.049 163.452 456.126C163.074 456.21 162.661 456.252 162.213 456.252ZM170.397 456.252C169.228 456.252 168.3 455.937 167.614 455.307C166.935 454.67 166.596 453.809 166.596 452.724C166.596 452.024 166.771 451.411 167.121 450.886C167.478 450.354 167.971 449.945 168.601 449.658C169.238 449.364 169.98 449.217 170.827 449.217C171.296 449.217 171.748 449.262 172.182 449.353C172.623 449.437 173.008 449.56 173.337 449.721V449.049C173.337 448.447 173.165 447.995 172.822 447.694C172.486 447.386 171.989 447.232 171.331 447.232C170.806 447.232 170.267 447.327 169.714 447.516C169.161 447.705 168.601 447.985 168.034 448.356L167.247 446.287C167.863 445.881 168.549 445.57 169.305 445.353C170.061 445.129 170.824 445.017 171.594 445.017C173.036 445.017 174.114 445.36 174.828 446.046C175.542 446.725 175.899 447.74 175.899 449.091V456H173.337V455.139C172.973 455.503 172.539 455.779 172.035 455.968C171.538 456.158 170.992 456.252 170.397 456.252ZM171.006 454.036C171.44 454.036 171.856 453.952 172.255 453.784C172.661 453.609 173.022 453.364 173.337 453.049V451.779C173.036 451.632 172.7 451.52 172.329 451.443C171.965 451.359 171.601 451.317 171.237 451.317C170.586 451.317 170.071 451.443 169.693 451.695C169.322 451.94 169.137 452.283 169.137 452.724C169.137 453.137 169.301 453.459 169.63 453.69C169.959 453.921 170.418 454.036 171.006 454.036ZM179.038 456V445.269H181.663V446.424C181.859 446.011 182.167 445.675 182.587 445.416C183.007 445.15 183.448 445.017 183.91 445.017C184.673 445.017 185.317 445.279 185.842 445.804L185.475 448.209C185.188 447.971 184.908 447.803 184.635 447.705C184.362 447.607 184.061 447.558 183.732 447.558C183.298 447.558 182.927 447.659 182.619 447.862C182.311 448.065 182.073 448.359 181.905 448.744C181.744 449.129 181.663 449.591 181.663 450.13V456H179.038ZM191.012 460.473L189.563 458.279C190.585 458.202 191.376 458.086 191.936 457.932C192.503 457.778 192.898 457.558 193.122 457.271C193.346 456.984 193.458 456.609 193.458 456.147V455.37C192.912 455.958 192.142 456.252 191.148 456.252C190.217 456.252 189.416 456.028 188.744 455.58C188.072 455.125 187.554 454.477 187.19 453.637C186.833 452.79 186.654 451.786 186.654 450.624C186.654 449.49 186.84 448.503 187.211 447.663C187.589 446.823 188.114 446.172 188.786 445.71C189.465 445.248 190.259 445.017 191.169 445.017C191.645 445.017 192.079 445.09 192.471 445.237C192.87 445.384 193.199 445.598 193.458 445.878V445.269H196.073V455.034C196.073 455.986 195.985 456.791 195.81 457.449C195.635 458.107 195.348 458.646 194.949 459.066C194.557 459.486 194.039 459.805 193.395 460.022C192.751 460.246 191.957 460.396 191.012 460.473ZM191.579 453.742C191.95 453.742 192.296 453.658 192.618 453.49C192.947 453.315 193.227 453.081 193.458 452.787V448.461C193.262 448.188 192.993 447.964 192.65 447.789C192.307 447.607 191.96 447.516 191.61 447.516C190.854 447.516 190.277 447.782 189.878 448.314C189.486 448.839 189.29 449.609 189.29 450.624C189.29 451.282 189.377 451.845 189.552 452.314C189.734 452.776 189.997 453.13 190.34 453.375C190.683 453.62 191.096 453.742 191.579 453.742ZM203.557 456.252C202.528 456.252 201.639 456.021 200.89 455.559C200.148 455.097 199.574 454.446 199.168 453.606C198.769 452.759 198.569 451.765 198.569 450.624C198.569 449.469 198.772 448.471 199.178 447.631C199.591 446.791 200.169 446.147 200.911 445.699C201.66 445.244 202.542 445.017 203.557 445.017C204.425 445.017 205.212 445.199 205.919 445.563C206.626 445.927 207.19 446.487 207.61 447.243C208.03 447.992 208.24 448.947 208.24 450.109C208.24 450.291 208.233 450.515 208.219 450.781C208.212 451.04 208.194 451.303 208.166 451.569H201.163C201.191 452.059 201.303 452.489 201.499 452.86C201.702 453.224 201.978 453.508 202.328 453.711C202.678 453.914 203.091 454.015 203.567 454.015C204.078 454.015 204.523 453.931 204.901 453.763C205.279 453.588 205.636 453.312 205.972 452.934L207.484 454.498C207.022 455.023 206.465 455.447 205.814 455.769C205.163 456.091 204.411 456.252 203.557 456.252ZM201.173 449.521H205.699C205.664 449.052 205.559 448.65 205.384 448.314C205.209 447.971 204.964 447.708 204.649 447.526C204.334 447.344 203.952 447.253 203.504 447.253C202.888 447.253 202.363 447.442 201.929 447.82C201.495 448.198 201.243 448.765 201.173 449.521ZM213.852 456.252C212.998 456.252 212.357 456.017 211.93 455.548C211.503 455.079 211.29 454.379 211.29 453.448V447.568H209.725V445.269H211.29V442.087L213.894 440.838V445.269H216.33V447.568H213.894V452.976C213.894 453.312 213.96 453.56 214.093 453.721C214.233 453.882 214.45 453.963 214.744 453.963C215.262 453.963 215.829 453.802 216.445 453.48L216.141 455.769C215.819 455.93 215.469 456.049 215.091 456.126C214.713 456.21 214.3 456.252 213.852 456.252ZM218.578 456V445.269H221.203V456H218.578ZM219.89 443.925C219.47 443.925 219.106 443.774 218.798 443.473C218.497 443.165 218.347 442.801 218.347 442.381C218.347 441.961 218.497 441.604 218.798 441.31C219.099 441.009 219.463 440.859 219.89 440.859C220.331 440.859 220.699 441.006 220.993 441.3C221.287 441.594 221.434 441.954 221.434 442.381C221.434 442.808 221.283 443.172 220.982 443.473C220.688 443.774 220.324 443.925 219.89 443.925ZM224.504 456V445.269H227.129V446.298C227.472 445.871 227.882 445.552 228.358 445.342C228.841 445.125 229.39 445.017 230.006 445.017C231.203 445.017 232.127 445.388 232.778 446.13C233.429 446.865 233.755 447.925 233.755 449.311V456H231.14V450.12C231.14 449.217 230.983 448.559 230.668 448.146C230.36 447.726 229.877 447.516 229.219 447.516C228.505 447.516 227.976 447.726 227.633 448.146C227.297 448.559 227.129 449.203 227.129 450.078V456H224.504ZM240.825 460.473L239.376 458.279C240.398 458.202 241.189 458.086 241.749 457.932C242.316 457.778 242.711 457.558 242.935 457.271C243.159 456.984 243.271 456.609 243.271 456.147V455.37C242.725 455.958 241.955 456.252 240.961 456.252C240.03 456.252 239.229 456.028 238.557 455.58C237.885 455.125 237.367 454.477 237.003 453.637C236.646 452.79 236.467 451.786 236.467 450.624C236.467 449.49 236.653 448.503 237.024 447.663C237.402 446.823 237.927 446.172 238.599 445.71C239.278 445.248 240.072 445.017 240.982 445.017C241.458 445.017 241.892 445.09 242.284 445.237C242.683 445.384 243.012 445.598 243.271 445.878V445.269H245.886V455.034C245.886 455.986 245.798 456.791 245.623 457.449C245.448 458.107 245.161 458.646 244.762 459.066C244.37 459.486 243.852 459.805 243.208 460.022C242.564 460.246 241.77 460.396 240.825 460.473ZM241.392 453.742C241.763 453.742 242.109 453.658 242.431 453.49C242.76 453.315 243.04 453.081 243.271 452.787V448.461C243.075 448.188 242.806 447.964 242.463 447.789C242.12 447.607 241.773 447.516 241.423 447.516C240.667 447.516 240.09 447.782 239.691 448.314C239.299 448.839 239.103 449.609 239.103 450.624C239.103 451.282 239.19 451.845 239.365 452.314C239.547 452.776 239.81 453.13 240.153 453.375C240.496 453.62 240.909 453.742 241.392 453.742ZM255.749 460.074L257.376 455.811L253.355 445.269H256.053L258.395 451.548C258.458 451.695 258.517 451.856 258.573 452.031C258.629 452.206 258.682 452.381 258.731 452.556C258.773 452.381 258.822 452.209 258.878 452.041C258.941 451.866 259.004 451.702 259.067 451.548L261.408 445.269H264.107L258.458 460.074H255.749ZM270.4 456.252C268.888 456.252 267.694 455.751 266.819 454.75C265.944 453.749 265.507 452.381 265.507 450.645C265.507 449.497 265.706 448.503 266.105 447.663C266.504 446.816 267.068 446.165 267.796 445.71C268.531 445.248 269.399 445.017 270.4 445.017C271.394 445.017 272.255 445.244 272.983 445.699C273.711 446.154 274.271 446.802 274.663 447.642C275.055 448.482 275.251 449.479 275.251 450.634C275.251 451.796 275.055 452.797 274.663 453.637C274.278 454.477 273.721 455.125 272.993 455.58C272.265 456.028 271.401 456.252 270.4 456.252ZM270.4 453.742C271.107 453.742 271.656 453.469 272.048 452.923C272.44 452.377 272.636 451.614 272.636 450.634C272.636 449.654 272.437 448.891 272.038 448.345C271.646 447.792 271.1 447.516 270.4 447.516C269.693 447.516 269.14 447.792 268.741 448.345C268.342 448.898 268.142 449.665 268.142 450.645C268.142 451.611 268.342 452.37 268.741 452.923C269.14 453.469 269.693 453.742 270.4 453.742ZM281.633 456.252C280.436 456.252 279.508 455.881 278.85 455.139C278.192 454.39 277.863 453.333 277.863 451.968V445.269H280.488V451.149C280.488 452.052 280.642 452.71 280.95 453.123C281.258 453.536 281.745 453.742 282.41 453.742C283.124 453.742 283.649 453.536 283.985 453.123C284.328 452.703 284.499 452.059 284.499 451.191V445.269H287.114V456H284.499V454.992C284.17 455.412 283.764 455.727 283.281 455.937C282.805 456.147 282.256 456.252 281.633 456.252ZM290.416 456V445.269H293.041V446.424C293.237 446.011 293.545 445.675 293.965 445.416C294.385 445.15 294.826 445.017 295.288 445.017C296.051 445.017 296.695 445.279 297.22 445.804L296.853 448.209C296.566 447.971 296.286 447.803 296.013 447.705C295.74 447.607 295.439 447.558 295.11 447.558C294.676 447.558 294.305 447.659 293.997 447.862C293.689 448.065 293.451 448.359 293.283 448.744C293.122 449.129 293.041 449.591 293.041 450.13V456H290.416ZM91.409 483V472.269H94.034V483H91.409ZM92.7215 470.925C92.3015 470.925 91.9375 470.774 91.6295 470.473C91.3285 470.165 91.178 469.801 91.178 469.381C91.178 468.961 91.3285 468.604 91.6295 468.31C91.9305 468.009 92.2945 467.859 92.7215 467.859C93.1625 467.859 93.53 468.006 93.824 468.3C94.118 468.594 94.265 468.954 94.265 469.381C94.265 469.808 94.1145 470.172 93.8135 470.473C93.5195 470.774 93.1555 470.925 92.7215 470.925ZM97.3353 483V472.269H99.9603V473.298C100.303 472.871 100.713 472.552 101.189 472.342C101.672 472.125 102.221 472.017 102.837 472.017C104.034 472.017 104.958 472.388 105.609 473.13C106.26 473.865 106.586 474.925 106.586 476.311V483H103.971V477.12C103.971 476.217 103.814 475.559 103.499 475.146C103.191 474.726 102.708 474.516 102.05 474.516C101.336 474.516 100.807 474.726 100.464 475.146C100.128 475.559 99.9603 476.203 99.9603 477.078V483H97.3353ZM112.584 483.252C111.73 483.252 111.09 483.017 110.663 482.548C110.236 482.079 110.022 481.379 110.022 480.448V474.568H108.458V472.269H110.022V469.087L112.626 467.838V472.269H115.062V474.568H112.626V479.976C112.626 480.312 112.693 480.56 112.826 480.721C112.966 480.882 113.183 480.963 113.477 480.963C113.995 480.963 114.562 480.802 115.178 480.48L114.873 482.769C114.551 482.93 114.201 483.049 113.823 483.126C113.445 483.21 113.032 483.252 112.584 483.252ZM122.017 483.252C120.988 483.252 120.099 483.021 119.35 482.559C118.608 482.097 118.034 481.446 117.628 480.606C117.229 479.759 117.03 478.765 117.03 477.624C117.03 476.469 117.233 475.471 117.639 474.631C118.052 473.791 118.629 473.147 119.371 472.699C120.12 472.244 121.002 472.017 122.017 472.017C122.885 472.017 123.673 472.199 124.38 472.563C125.087 472.927 125.65 473.487 126.07 474.243C126.49 474.992 126.7 475.947 126.7 477.109C126.7 477.291 126.693 477.515 126.679 477.781C126.672 478.04 126.655 478.303 126.627 478.569H119.623C119.651 479.059 119.763 479.489 119.959 479.86C120.162 480.224 120.439 480.508 120.789 480.711C121.139 480.914 121.552 481.015 122.028 481.015C122.539 481.015 122.983 480.931 123.361 480.763C123.739 480.588 124.096 480.312 124.432 479.934L125.944 481.498C125.482 482.023 124.926 482.447 124.275 482.769C123.624 483.091 122.871 483.252 122.017 483.252ZM119.634 476.521H124.159C124.124 476.052 124.019 475.65 123.844 475.314C123.669 474.971 123.424 474.708 123.109 474.526C122.794 474.344 122.413 474.253 121.965 474.253C121.349 474.253 120.824 474.442 120.39 474.82C119.956 475.198 119.704 475.765 119.634 476.521ZM129.348 483V472.269H131.973V473.424C132.169 473.011 132.477 472.675 132.897 472.416C133.317 472.15 133.758 472.017 134.22 472.017C134.983 472.017 135.627 472.279 136.152 472.804L135.784 475.209C135.497 474.971 135.217 474.803 134.944 474.705C134.671 474.607 134.37 474.558 134.041 474.558C133.607 474.558 133.236 474.659 132.928 474.862C132.62 475.065 132.382 475.359 132.214 475.744C132.053 476.129 131.973 476.591 131.973 477.13V483H129.348ZM137.818 483V472.269H140.443V473.298C140.786 472.871 141.195 472.552 141.671 472.342C142.154 472.125 142.704 472.017 143.32 472.017C144.517 472.017 145.441 472.388 146.092 473.13C146.743 473.865 147.068 474.925 147.068 476.311V483H144.454V477.12C144.454 476.217 144.296 475.559 143.981 475.146C143.673 474.726 143.19 474.516 142.532 474.516C141.818 474.516 141.29 474.726 140.947 475.146C140.611 475.559 140.443 476.203 140.443 477.078V483H137.818ZM153.437 483.252C152.268 483.252 151.34 482.937 150.654 482.307C149.975 481.67 149.636 480.809 149.636 479.724C149.636 479.024 149.811 478.411 150.161 477.886C150.518 477.354 151.011 476.945 151.641 476.658C152.278 476.364 153.02 476.217 153.867 476.217C154.336 476.217 154.788 476.262 155.222 476.353C155.663 476.437 156.048 476.56 156.377 476.721V476.049C156.377 475.447 156.205 474.995 155.862 474.694C155.526 474.386 155.029 474.232 154.371 474.232C153.846 474.232 153.307 474.327 152.754 474.516C152.201 474.705 151.641 474.985 151.074 475.356L150.287 473.287C150.903 472.881 151.589 472.57 152.345 472.353C153.101 472.129 153.864 472.017 154.634 472.017C156.076 472.017 157.154 472.36 157.868 473.046C158.582 473.725 158.939 474.74 158.939 476.091V483H156.377V482.139C156.013 482.503 155.579 482.779 155.075 482.968C154.578 483.158 154.032 483.252 153.437 483.252ZM154.046 481.036C154.48 481.036 154.896 480.952 155.295 480.784C155.701 480.609 156.062 480.364 156.377 480.049V478.779C156.076 478.632 155.74 478.52 155.369 478.443C155.005 478.359 154.641 478.317 154.277 478.317C153.626 478.317 153.111 478.443 152.733 478.695C152.362 478.94 152.177 479.283 152.177 479.724C152.177 480.137 152.341 480.459 152.67 480.69C152.999 480.921 153.458 481.036 154.046 481.036ZM164.777 483.252C163.923 483.252 163.282 483.017 162.855 482.548C162.428 482.079 162.215 481.379 162.215 480.448V474.568H160.65V472.269H162.215V469.087L164.819 467.838V472.269H167.255V474.568H164.819V479.976C164.819 480.312 164.885 480.56 165.018 480.721C165.158 480.882 165.375 480.963 165.669 480.963C166.187 480.963 166.754 480.802 167.37 480.48L167.066 482.769C166.744 482.93 166.394 483.049 166.016 483.126C165.638 483.21 165.225 483.252 164.777 483.252ZM169.503 483V472.269H172.128V483H169.503ZM170.815 470.925C170.395 470.925 170.031 470.774 169.723 470.473C169.422 470.165 169.272 469.801 169.272 469.381C169.272 468.961 169.422 468.604 169.723 468.31C170.024 468.009 170.388 467.859 170.815 467.859C171.256 467.859 171.624 468.006 171.918 468.3C172.212 468.594 172.359 468.954 172.359 469.381C172.359 469.808 172.208 470.172 171.907 470.473C171.613 470.774 171.249 470.925 170.815 470.925ZM179.755 483.252C178.243 483.252 177.05 482.751 176.175 481.75C175.3 480.749 174.862 479.381 174.862 477.645C174.862 476.497 175.062 475.503 175.461 474.663C175.86 473.816 176.423 473.165 177.151 472.71C177.886 472.248 178.754 472.017 179.755 472.017C180.749 472.017 181.61 472.244 182.338 472.699C183.066 473.154 183.626 473.802 184.018 474.642C184.41 475.482 184.606 476.479 184.606 477.634C184.606 478.796 184.41 479.797 184.018 480.637C183.633 481.477 183.077 482.125 182.349 482.58C181.621 483.028 180.756 483.252 179.755 483.252ZM179.755 480.742C180.462 480.742 181.012 480.469 181.404 479.923C181.796 479.377 181.992 478.614 181.992 477.634C181.992 476.654 181.792 475.891 181.393 475.345C181.001 474.792 180.455 474.516 179.755 474.516C179.048 474.516 178.495 474.792 178.096 475.345C177.697 475.898 177.498 476.665 177.498 477.645C177.498 478.611 177.697 479.37 178.096 479.923C178.495 480.469 179.048 480.742 179.755 480.742ZM187.118 483V472.269H189.743V473.298C190.086 472.871 190.496 472.552 190.972 472.342C191.455 472.125 192.004 472.017 192.62 472.017C193.817 472.017 194.741 472.388 195.392 473.13C196.043 473.865 196.369 474.925 196.369 476.311V483H193.754V477.12C193.754 476.217 193.597 475.559 193.282 475.146C192.974 474.726 192.491 474.516 191.833 474.516C191.119 474.516 190.59 474.726 190.247 475.146C189.911 475.559 189.743 476.203 189.743 477.078V483H187.118ZM202.738 483.252C201.569 483.252 200.641 482.937 199.955 482.307C199.276 481.67 198.937 480.809 198.937 479.724C198.937 479.024 199.112 478.411 199.462 477.886C199.819 477.354 200.312 476.945 200.942 476.658C201.579 476.364 202.321 476.217 203.168 476.217C203.637 476.217 204.089 476.262 204.523 476.353C204.964 476.437 205.349 476.56 205.678 476.721V476.049C205.678 475.447 205.506 474.995 205.163 474.694C204.827 474.386 204.33 474.232 203.672 474.232C203.147 474.232 202.608 474.327 202.055 474.516C201.502 474.705 200.942 474.985 200.375 475.356L199.588 473.287C200.204 472.881 200.89 472.57 201.646 472.353C202.402 472.129 203.165 472.017 203.935 472.017C205.377 472.017 206.455 472.36 207.169 473.046C207.883 473.725 208.24 474.74 208.24 476.091V483H205.678V482.139C205.314 482.503 204.88 482.779 204.376 482.968C203.879 483.158 203.333 483.252 202.738 483.252ZM203.347 481.036C203.781 481.036 204.197 480.952 204.596 480.784C205.002 480.609 205.363 480.364 205.678 480.049V478.779C205.377 478.632 205.041 478.52 204.67 478.443C204.306 478.359 203.942 478.317 203.578 478.317C202.927 478.317 202.412 478.443 202.034 478.695C201.663 478.94 201.478 479.283 201.478 479.724C201.478 480.137 201.642 480.459 201.971 480.69C202.3 480.921 202.759 481.036 203.347 481.036ZM211.361 483V469.024L213.986 467.838V483H211.361ZM225.788 483.252C224.619 483.252 223.692 482.937 223.006 482.307C222.327 481.67 221.987 480.809 221.987 479.724C221.987 479.024 222.162 478.411 222.512 477.886C222.869 477.354 223.363 476.945 223.993 476.658C224.63 476.364 225.372 476.217 226.219 476.217C226.688 476.217 227.139 476.262 227.573 476.353C228.014 476.437 228.399 476.56 228.728 476.721V476.049C228.728 475.447 228.557 474.995 228.214 474.694C227.878 474.386 227.381 474.232 226.723 474.232C226.198 474.232 225.659 474.327 225.106 474.516C224.553 474.705 223.993 474.985 223.426 475.356L222.638 473.287C223.254 472.881 223.94 472.57 224.696 472.353C225.452 472.129 226.215 472.017 226.985 472.017C228.427 472.017 229.505 472.36 230.219 473.046C230.933 473.725 231.29 474.74 231.29 476.091V483H228.728V482.139C228.364 482.503 227.93 482.779 227.426 482.968C226.929 483.158 226.383 483.252 225.788 483.252ZM226.397 481.036C226.831 481.036 227.248 480.952 227.647 480.784C228.053 480.609 228.413 480.364 228.728 480.049V478.779C228.427 478.632 228.091 478.52 227.72 478.443C227.356 478.359 226.992 478.317 226.628 478.317C225.977 478.317 225.463 478.443 225.085 478.695C224.714 478.94 224.528 479.283 224.528 479.724C224.528 480.137 224.693 480.459 225.022 480.69C225.351 480.921 225.809 481.036 226.397 481.036ZM237.971 483.252C236.774 483.252 235.847 482.881 235.189 482.139C234.531 481.39 234.202 480.333 234.202 478.968V472.269H236.827V478.149C236.827 479.052 236.981 479.71 237.289 480.123C237.597 480.536 238.083 480.742 238.748 480.742C239.462 480.742 239.987 480.536 240.323 480.123C240.666 479.703 240.838 479.059 240.838 478.191V472.269H243.452V483H240.838V481.992C240.509 482.412 240.103 482.727 239.62 482.937C239.144 483.147 238.594 483.252 237.971 483.252ZM250.383 483.252C249.004 483.252 247.923 482.755 247.139 481.761C246.355 480.767 245.963 479.388 245.963 477.624C245.963 476.504 246.148 475.524 246.519 474.684C246.89 473.844 247.408 473.189 248.073 472.72C248.745 472.251 249.526 472.017 250.415 472.017C251.367 472.017 252.147 472.367 252.756 473.067V469.024L255.371 467.838V483H252.756V482.118C252.238 482.874 251.447 483.252 250.383 483.252ZM250.814 480.742C251.262 480.742 251.643 480.665 251.958 480.511C252.273 480.35 252.539 480.112 252.756 479.797V475.461C252.539 475.167 252.256 474.936 251.906 474.768C251.563 474.6 251.199 474.516 250.814 474.516C250.107 474.516 249.561 474.785 249.176 475.324C248.791 475.856 248.598 476.623 248.598 477.624C248.598 478.282 248.686 478.845 248.861 479.314C249.036 479.776 249.288 480.13 249.617 480.375C249.946 480.62 250.345 480.742 250.814 480.742ZM258.671 483V472.269H261.296V483H258.671ZM259.983 470.925C259.563 470.925 259.199 470.774 258.891 470.473C258.59 470.165 258.44 469.801 258.44 469.381C258.44 468.961 258.59 468.604 258.891 468.31C259.192 468.009 259.556 467.859 259.983 467.859C260.424 467.859 260.792 468.006 261.086 468.3C261.38 468.594 261.527 468.954 261.527 469.381C261.527 469.808 261.376 470.172 261.075 470.473C260.781 470.774 260.417 470.925 259.983 470.925ZM269.017 483.252C267.988 483.252 267.099 483.021 266.35 482.559C265.608 482.097 265.034 481.446 264.628 480.606C264.229 479.759 264.03 478.765 264.03 477.624C264.03 476.469 264.233 475.471 264.639 474.631C265.052 473.791 265.629 473.147 266.371 472.699C267.12 472.244 268.002 472.017 269.017 472.017C269.885 472.017 270.673 472.199 271.38 472.563C272.087 472.927 272.65 473.487 273.07 474.243C273.49 474.992 273.7 475.947 273.7 477.109C273.7 477.291 273.693 477.515 273.679 477.781C273.672 478.04 273.655 478.303 273.627 478.569H266.623C266.651 479.059 266.763 479.489 266.959 479.86C267.162 480.224 267.439 480.508 267.789 480.711C268.139 480.914 268.552 481.015 269.028 481.015C269.539 481.015 269.983 480.931 270.361 480.763C270.739 480.588 271.096 480.312 271.432 479.934L272.944 481.498C272.482 482.023 271.926 482.447 271.275 482.769C270.624 483.091 269.871 483.252 269.017 483.252ZM266.634 476.521H271.159C271.124 476.052 271.019 475.65 270.844 475.314C270.669 474.971 270.424 474.708 270.109 474.526C269.794 474.344 269.413 474.253 268.965 474.253C268.349 474.253 267.824 474.442 267.39 474.82C266.956 475.198 266.704 475.765 266.634 476.521ZM276.348 483V472.269H278.973V473.298C279.316 472.871 279.725 472.552 280.201 472.342C280.684 472.125 281.234 472.017 281.85 472.017C283.047 472.017 283.971 472.388 284.622 473.13C285.273 473.865 285.598 474.925 285.598 476.311V483H282.984V477.12C282.984 476.217 282.826 475.559 282.511 475.146C282.203 474.726 281.72 474.516 281.062 474.516C280.348 474.516 279.82 474.726 279.477 475.146C279.141 475.559 278.973 476.203 278.973 477.078V483H276.348ZM293.131 483.252C292.144 483.252 291.29 483.024 290.569 482.569C289.848 482.114 289.291 481.47 288.899 480.637C288.507 479.797 288.311 478.8 288.311 477.645C288.311 476.49 288.507 475.492 288.899 474.652C289.298 473.812 289.862 473.165 290.59 472.71C291.318 472.248 292.175 472.017 293.162 472.017C294.275 472.017 295.199 472.276 295.934 472.794C296.676 473.305 297.212 474.064 297.541 475.072L295.052 475.912C294.884 475.464 294.639 475.121 294.317 474.883C293.995 474.638 293.624 474.516 293.204 474.516C292.525 474.516 291.983 474.796 291.577 475.356C291.178 475.916 290.978 476.679 290.978 477.645C290.978 478.597 291.174 479.353 291.566 479.913C291.958 480.473 292.487 480.753 293.152 480.753C293.621 480.753 294.02 480.62 294.349 480.354C294.685 480.088 294.933 479.699 295.094 479.188L297.572 479.934C297.257 481.033 296.722 481.862 295.966 482.422C295.217 482.975 294.272 483.252 293.131 483.252ZM304.619 483.252C303.59 483.252 302.701 483.021 301.952 482.559C301.21 482.097 300.636 481.446 300.23 480.606C299.831 479.759 299.632 478.765 299.632 477.624C299.632 476.469 299.835 475.471 300.241 474.631C300.654 473.791 301.231 473.147 301.973 472.699C302.722 472.244 303.604 472.017 304.619 472.017C305.487 472.017 306.275 472.199 306.982 472.563C307.689 472.927 308.252 473.487 308.672 474.243C309.092 474.992 309.302 475.947 309.302 477.109C309.302 477.291 309.295 477.515 309.281 477.781C309.274 478.04 309.257 478.303 309.229 478.569H302.225C302.253 479.059 302.365 479.489 302.561 479.86C302.764 480.224 303.041 480.508 303.391 480.711C303.741 480.914 304.154 481.015 304.63 481.015C305.141 481.015 305.585 480.931 305.963 480.763C306.341 480.588 306.698 480.312 307.034 479.934L308.546 481.498C308.084 482.023 307.528 482.447 306.877 482.769C306.226 483.091 305.473 483.252 304.619 483.252ZM302.236 476.521H306.761C306.726 476.052 306.621 475.65 306.446 475.314C306.271 474.971 306.026 474.708 305.711 474.526C305.396 474.344 305.015 474.253 304.567 474.253C303.951 474.253 303.426 474.442 302.992 474.82C302.558 475.198 302.306 475.765 302.236 476.521Z" fill="white"/>
</svg>
