<svg width="380" height="483" viewBox="0 0 380 483" fill="none" xmlns="http://www.w3.org/2000/svg">
<path d="M55.2031 19.6856C53.9711 19.6856 52.9176 19.4581 52.0426 19.0031C51.1746 18.5411 50.5096 17.8726 50.0476 16.9976C49.5926 16.1226 49.3651 15.0656 49.3651 13.8266V4.73359H52.0846V13.8266C52.0846 14.9396 52.3331 15.7586 52.8301 16.2836C53.3271 16.8086 54.1181 17.0711 55.2031 17.0711C55.8891 17.0711 56.4631 16.9626 56.9251 16.7456C57.3871 16.5286 57.7336 16.1821 57.9646 15.7061C58.1956 15.2231 58.3111 14.5966 58.3111 13.8266V4.73359H61.0411V13.8266C61.0411 14.8626 60.8871 15.7516 60.5791 16.4936C60.2781 17.2356 59.8581 17.8446 59.3191 18.3206C58.7871 18.7896 58.1676 19.1361 57.4606 19.3601C56.7536 19.5771 56.0011 19.6856 55.2031 19.6856ZM64.3152 23.6966V8.70259H66.9402V9.49009C67.5282 8.79709 68.3157 8.45059 69.3027 8.45059C70.2197 8.45059 71.0107 8.67809 71.6757 9.13309C72.3407 9.58109 72.8517 10.2251 73.2087 11.0651C73.5657 11.9051 73.7442 12.9061 73.7442 14.0681C73.7442 15.1951 73.5587 16.1821 73.1877 17.0291C72.8167 17.8691 72.2952 18.5236 71.6232 18.9926C70.9512 19.4546 70.1672 19.6856 69.2712 19.6856C68.7812 19.6856 68.3402 19.5981 67.9482 19.4231C67.5562 19.2411 67.2202 18.9751 66.9402 18.6251V22.5101L64.3152 23.6966ZM68.8827 17.1761C69.5967 17.1761 70.1462 16.9066 70.5312 16.3676C70.9162 15.8216 71.1087 15.0551 71.1087 14.0681C71.1087 13.0811 70.9127 12.3146 70.5207 11.7686C70.1287 11.2226 69.5827 10.9496 68.8827 10.9496C68.4557 10.9496 68.0812 11.0266 67.7592 11.1806C67.4442 11.3346 67.1712 11.5691 66.9402 11.8841V16.2206C67.1292 16.5216 67.3952 16.7561 67.7382 16.9241C68.0882 17.0921 68.4697 17.1761 68.8827 17.1761ZM76.5609 19.4336V5.45809L79.1859 4.27159V19.4336H76.5609ZM86.8932 19.6856C85.3812 19.6856 84.1877 19.1851 83.3127 18.1841C82.4377 17.1831 82.0002 15.8146 82.0002 14.0786C82.0002 12.9306 82.1997 11.9366 82.5987 11.0966C82.9977 10.2496 83.5612 9.59859 84.2892 9.14359C85.0242 8.68159 85.8922 8.45059 86.8932 8.45059C87.8872 8.45059 88.7482 8.67809 89.4762 9.13309C90.2042 9.58809 90.7642 10.2356 91.1562 11.0756C91.5482 11.9156 91.7442 12.9131 91.7442 14.0681C91.7442 15.2301 91.5482 16.2311 91.1562 17.0711C90.7712 17.9111 90.2147 18.5586 89.4867 19.0136C88.7587 19.4616 87.8942 19.6856 86.8932 19.6856ZM86.8932 17.1761C87.6002 17.1761 88.1497 16.9031 88.5417 16.3571C88.9337 15.8111 89.1297 15.0481 89.1297 14.0681C89.1297 13.0881 88.9302 12.3251 88.5312 11.7791C88.1392 11.2261 87.5932 10.9496 86.8932 10.9496C86.1862 10.9496 85.6332 11.2261 85.2342 11.7791C84.8352 12.3321 84.6357 13.0986 84.6357 14.0786C84.6357 15.0446 84.8352 15.8041 85.2342 16.3571C85.6332 16.9031 86.1862 17.1761 86.8932 17.1761ZM97.7148 19.6856C96.5458 19.6856 95.6183 19.3706 94.9323 18.7406C94.2533 18.1036 93.9138 17.2426 93.9138 16.1576C93.9138 15.4576 94.0888 14.8451 94.4388 14.3201C94.7958 13.7881 95.2893 13.3786 95.9193 13.0916C96.5563 12.7976 97.2983 12.6506 98.1453 12.6506C98.6143 12.6506 99.0658 12.6961 99.4998 12.7871C99.9408 12.8711 100.326 12.9936 100.655 13.1546V12.4826C100.655 11.8806 100.483 11.4291 100.14 11.1281C99.8043 10.8201 99.3073 10.6661 98.6493 10.6661C98.1243 10.6661 97.5853 10.7606 97.0323 10.9496C96.4793 11.1386 95.9193 11.4186 95.3523 11.7896L94.5648 9.72109C95.1808 9.31509 95.8668 9.00359 96.6228 8.78659C97.3788 8.56259 98.1418 8.45059 98.9118 8.45059C100.354 8.45059 101.432 8.79359 102.146 9.47959C102.86 10.1586 103.217 11.1736 103.217 12.5246V19.4336H100.655V18.5726C100.291 18.9366 99.8568 19.2131 99.3528 19.4021C98.8558 19.5911 98.3098 19.6856 97.7148 19.6856ZM98.3238 17.4701C98.7578 17.4701 99.1743 17.3861 99.5733 17.2181C99.9793 17.0431 100.34 16.7981 100.655 16.4831V15.2126C100.354 15.0656 100.018 14.9536 99.6468 14.8766C99.2828 14.7926 98.9188 14.7506 98.5548 14.7506C97.9038 14.7506 97.3893 14.8766 97.0113 15.1286C96.6403 15.3736 96.4548 15.7166 96.4548 16.1576C96.4548 16.5706 96.6193 16.8926 96.9483 17.1236C97.2773 17.3546 97.7358 17.4701 98.3238 17.4701ZM110.189 19.6856C108.81 19.6856 107.729 19.1886 106.945 18.1946C106.161 17.2006 105.769 15.8216 105.769 14.0576C105.769 12.9376 105.954 11.9576 106.325 11.1176C106.696 10.2776 107.214 9.62309 107.879 9.15409C108.551 8.68509 109.332 8.45059 110.221 8.45059C111.173 8.45059 111.953 8.80059 112.562 9.50059V5.45809L115.177 4.27159V19.4336H112.562V18.5516C112.044 19.3076 111.253 19.6856 110.189 19.6856ZM110.62 17.1761C111.068 17.1761 111.449 17.0991 111.764 16.9451C112.079 16.7841 112.345 16.5461 112.562 16.2311V11.8946C112.345 11.6006 112.062 11.3696 111.712 11.2016C111.369 11.0336 111.005 10.9496 110.62 10.9496C109.913 10.9496 109.367 11.2191 108.982 11.7581C108.597 12.2901 108.404 13.0566 108.404 14.0576C108.404 14.7156 108.492 15.2791 108.667 15.7481C108.842 16.2101 109.094 16.5636 109.423 16.8086C109.752 17.0536 110.151 17.1761 110.62 17.1761ZM126.877 19.6856C125.708 19.6856 124.78 19.3706 124.094 18.7406C123.415 18.1036 123.076 17.2426 123.076 16.1576C123.076 15.4576 123.251 14.8451 123.601 14.3201C123.958 13.7881 124.451 13.3786 125.081 13.0916C125.718 12.7976 126.46 12.6506 127.307 12.6506C127.776 12.6506 128.228 12.6961 128.662 12.7871C129.103 12.8711 129.488 12.9936 129.817 13.1546V12.4826C129.817 11.8806 129.645 11.4291 129.302 11.1281C128.966 10.8201 128.469 10.6661 127.811 10.6661C127.286 10.6661 126.747 10.7606 126.194 10.9496C125.641 11.1386 125.081 11.4186 124.514 11.7896L123.727 9.72109C124.343 9.31509 125.029 9.00359 125.785 8.78659C126.541 8.56259 127.304 8.45059 128.074 8.45059C129.516 8.45059 130.594 8.79359 131.308 9.47959C132.022 10.1586 132.379 11.1736 132.379 12.5246V19.4336H129.817V18.5726C129.453 18.9366 129.019 19.2131 128.515 19.4021C128.018 19.5911 127.472 19.6856 126.877 19.6856ZM127.486 17.4701C127.92 17.4701 128.336 17.3861 128.735 17.2181C129.141 17.0431 129.502 16.7981 129.817 16.4831V15.2126C129.516 15.0656 129.18 14.9536 128.809 14.8766C128.445 14.7926 128.081 14.7506 127.717 14.7506C127.066 14.7506 126.551 14.8766 126.173 15.1286C125.802 15.3736 125.617 15.7166 125.617 16.1576C125.617 16.5706 125.781 16.8926 126.11 17.1236C126.439 17.3546 126.898 17.4701 127.486 17.4701ZM135.518 19.4336V8.70259H138.143V9.73159C138.486 9.30459 138.896 8.98609 139.372 8.77609C139.855 8.55909 140.404 8.45059 141.02 8.45059C142.217 8.45059 143.141 8.82159 143.792 9.56359C144.443 10.2986 144.769 11.3591 144.769 12.7451V19.4336H142.154V13.5536C142.154 12.6506 141.997 11.9926 141.682 11.5796C141.374 11.1596 140.891 10.9496 140.233 10.9496C139.519 10.9496 138.99 11.1596 138.647 11.5796C138.311 11.9926 138.143 12.6366 138.143 13.5116V19.4336H135.518ZM151.902 19.6856C150.523 19.6856 149.442 19.1886 148.658 18.1946C147.874 17.2006 147.482 15.8216 147.482 14.0576C147.482 12.9376 147.667 11.9576 148.038 11.1176C148.409 10.2776 148.927 9.62309 149.592 9.15409C150.264 8.68509 151.045 8.45059 151.934 8.45059C152.886 8.45059 153.666 8.80059 154.275 9.50059V5.45809L156.89 4.27159V19.4336H154.275V18.5516C153.757 19.3076 152.966 19.6856 151.902 19.6856ZM152.333 17.1761C152.781 17.1761 153.162 17.0991 153.477 16.9451C153.792 16.7841 154.058 16.5461 154.275 16.2311V11.8946C154.058 11.6006 153.775 11.3696 153.425 11.2016C153.082 11.0336 152.718 10.9496 152.333 10.9496C151.626 10.9496 151.08 11.2191 150.695 11.7581C150.31 12.2901 150.117 13.0566 150.117 14.0576C150.117 14.7156 150.205 15.2791 150.38 15.7481C150.555 16.2101 150.807 16.5636 151.136 16.8086C151.465 17.0536 151.864 17.1761 152.333 17.1761ZM168.926 19.6856C168.086 19.6856 167.281 19.5071 166.511 19.1501C165.748 18.7931 165.142 18.3136 164.694 17.7116L166.416 16.2626C166.773 16.6406 167.186 16.9416 167.655 17.1656C168.124 17.3826 168.572 17.4911 168.999 17.4911C169.531 17.4911 169.941 17.4036 170.228 17.2286C170.515 17.0466 170.658 16.7946 170.658 16.4726C170.658 16.2626 170.588 16.0771 170.448 15.9161C170.315 15.7481 170.077 15.5801 169.734 15.4121C169.391 15.2371 168.908 15.0376 168.285 14.8136C167.081 14.3726 166.227 13.8966 165.723 13.3856C165.219 12.8676 164.967 12.2131 164.967 11.4221C164.967 10.5401 165.324 9.82609 166.038 9.28009C166.752 8.72709 167.683 8.45059 168.831 8.45059C169.615 8.45059 170.336 8.59759 170.994 8.89159C171.659 9.18559 172.23 9.61609 172.706 10.1831L170.994 11.6006C170.364 10.9636 169.629 10.6451 168.789 10.6451C168.362 10.6451 168.019 10.7256 167.76 10.8866C167.501 11.0406 167.372 11.2506 167.372 11.5166C167.372 11.7756 167.522 12.0066 167.823 12.2096C168.131 12.4126 168.702 12.6506 169.535 12.9236C170.361 13.1826 171.029 13.4766 171.54 13.8056C172.058 14.1346 172.436 14.5161 172.674 14.9501C172.919 15.3841 173.042 15.8846 173.042 16.4516C173.042 17.4596 172.674 18.2506 171.939 18.8246C171.211 19.3986 170.207 19.6856 168.926 19.6856ZM179.991 19.6856C178.962 19.6856 178.073 19.4546 177.324 18.9926C176.582 18.5306 176.008 17.8796 175.602 17.0396C175.203 16.1926 175.003 15.1986 175.003 14.0576C175.003 12.9026 175.206 11.9051 175.612 11.0651C176.025 10.2251 176.603 9.58109 177.345 9.13309C178.094 8.67809 178.976 8.45059 179.991 8.45059C180.859 8.45059 181.646 8.63259 182.353 8.99659C183.06 9.36059 183.624 9.92059 184.044 10.6766C184.464 11.4256 184.674 12.3811 184.674 13.5431C184.674 13.7251 184.667 13.9491 184.653 14.2151C184.646 14.4741 184.628 14.7366 184.6 15.0026H177.597C177.625 15.4926 177.737 15.9231 177.933 16.2941C178.136 16.6581 178.412 16.9416 178.762 17.1446C179.112 17.3476 179.525 17.4491 180.001 17.4491C180.512 17.4491 180.957 17.3651 181.335 17.1971C181.713 17.0221 182.07 16.7456 182.406 16.3676L183.918 17.9321C183.456 18.4571 182.899 18.8806 182.248 19.2026C181.597 19.5246 180.845 19.6856 179.991 19.6856ZM177.607 12.9551H182.133C182.098 12.4861 181.993 12.0836 181.818 11.7476C181.643 11.4046 181.398 11.1421 181.083 10.9601C180.768 10.7781 180.386 10.6871 179.938 10.6871C179.322 10.6871 178.797 10.8761 178.363 11.2541C177.929 11.6321 177.677 12.1991 177.607 12.9551ZM187.365 19.4336V5.45809L189.99 4.27159V19.4336H187.365ZM197.791 19.6856C196.762 19.6856 195.873 19.4546 195.124 18.9926C194.382 18.5306 193.808 17.8796 193.402 17.0396C193.003 16.1926 192.804 15.1986 192.804 14.0576C192.804 12.9026 193.007 11.9051 193.413 11.0651C193.826 10.2251 194.403 9.58109 195.145 9.13309C195.894 8.67809 196.776 8.45059 197.791 8.45059C198.659 8.45059 199.447 8.63259 200.154 8.99659C200.861 9.36059 201.424 9.92059 201.844 10.6766C202.264 11.4256 202.474 12.3811 202.474 13.5431C202.474 13.7251 202.467 13.9491 202.453 14.2151C202.446 14.4741 202.429 14.7366 202.401 15.0026H195.397C195.425 15.4926 195.537 15.9231 195.733 16.2941C195.936 16.6581 196.213 16.9416 196.563 17.1446C196.913 17.3476 197.326 17.4491 197.802 17.4491C198.313 17.4491 198.757 17.3651 199.135 17.1971C199.513 17.0221 199.87 16.7456 200.206 16.3676L201.718 17.9321C201.256 18.4571 200.7 18.8806 200.049 19.2026C199.398 19.5246 198.645 19.6856 197.791 19.6856ZM195.408 12.9551H199.933C199.898 12.4861 199.793 12.0836 199.618 11.7476C199.443 11.4046 199.198 11.1421 198.883 10.9601C198.568 10.7781 198.187 10.6871 197.739 10.6871C197.123 10.6871 196.598 10.8761 196.164 11.2541C195.73 11.6321 195.478 12.1991 195.408 12.9551ZM209.682 19.6856C208.695 19.6856 207.841 19.4581 207.12 19.0031C206.399 18.5481 205.843 17.9041 205.451 17.0711C205.059 16.2311 204.863 15.2336 204.863 14.0786C204.863 12.9236 205.059 11.9261 205.451 11.0861C205.85 10.2461 206.413 9.59859 207.141 9.14359C207.869 8.68159 208.727 8.45059 209.714 8.45059C210.827 8.45059 211.751 8.70959 212.486 9.22759C213.228 9.73859 213.763 10.4981 214.092 11.5061L211.604 12.3461C211.436 11.8981 211.191 11.5551 210.869 11.3171C210.547 11.0721 210.176 10.9496 209.756 10.9496C209.077 10.9496 208.534 11.2296 208.128 11.7896C207.729 12.3496 207.53 13.1126 207.53 14.0786C207.53 15.0306 207.726 15.7866 208.118 16.3466C208.51 16.9066 209.038 17.1866 209.703 17.1866C210.172 17.1866 210.571 17.0536 210.9 16.7876C211.236 16.5216 211.485 16.1331 211.646 15.6221L214.124 16.3676C213.809 17.4666 213.273 18.2961 212.517 18.8561C211.768 19.4091 210.823 19.6856 209.682 19.6856ZM219.817 19.6856C218.963 19.6856 218.323 19.4511 217.896 18.9821C217.469 18.5131 217.255 17.8131 217.255 16.8821V11.0021H215.691V8.70259H217.255V5.52109L219.859 4.27159V8.70259H222.295V11.0021H219.859V16.4096C219.859 16.7456 219.926 16.9941 220.059 17.1551C220.199 17.3161 220.416 17.3966 220.71 17.3966C221.228 17.3966 221.795 17.2356 222.411 16.9136L222.106 19.2026C221.784 19.3636 221.434 19.4826 221.056 19.5596C220.678 19.6436 220.265 19.6856 219.817 19.6856ZM231.526 23.5076L233.154 19.2446L229.132 8.70259H231.831L234.172 14.9816C234.235 15.1286 234.295 15.2896 234.351 15.4646C234.407 15.6396 234.459 15.8146 234.508 15.9896C234.55 15.8146 234.599 15.6431 234.655 15.4751C234.718 15.3001 234.781 15.1356 234.844 14.9816L237.186 8.70259H239.884L234.235 23.5076H231.526ZM246.177 19.6856C244.665 19.6856 243.472 19.1851 242.597 18.1841C241.722 17.1831 241.284 15.8146 241.284 14.0786C241.284 12.9306 241.484 11.9366 241.883 11.0966C242.282 10.2496 242.845 9.59859 243.573 9.14359C244.308 8.68159 245.176 8.45059 246.177 8.45059C247.171 8.45059 248.032 8.67809 248.76 9.13309C249.488 9.58809 250.048 10.2356 250.44 11.0756C250.832 11.9156 251.028 12.9131 251.028 14.0681C251.028 15.2301 250.832 16.2311 250.44 17.0711C250.055 17.9111 249.499 18.5586 248.771 19.0136C248.043 19.4616 247.178 19.6856 246.177 19.6856ZM246.177 17.1761C246.884 17.1761 247.434 16.9031 247.826 16.3571C248.218 15.8111 248.414 15.0481 248.414 14.0681C248.414 13.0881 248.214 12.3251 247.815 11.7791C247.423 11.2261 246.877 10.9496 246.177 10.9496C245.47 10.9496 244.917 11.2261 244.518 11.7791C244.119 12.3321 243.92 13.0986 243.92 14.0786C243.92 15.0446 244.119 15.8041 244.518 16.3571C244.917 16.9031 245.47 17.1761 246.177 17.1761ZM257.41 19.6856C256.213 19.6856 255.286 19.3146 254.628 18.5726C253.97 17.8236 253.641 16.7666 253.641 15.4016V8.70259H256.266V14.5826C256.266 15.4856 256.42 16.1436 256.728 16.5566C257.036 16.9696 257.522 17.1761 258.187 17.1761C258.901 17.1761 259.426 16.9696 259.762 16.5566C260.105 16.1366 260.277 15.4926 260.277 14.6246V8.70259H262.891V19.4336H260.277V18.4256C259.948 18.8456 259.542 19.1606 259.059 19.3706C258.583 19.5806 258.033 19.6856 257.41 19.6856ZM266.194 19.4336V8.70259H268.819V9.85759C269.015 9.44459 269.323 9.10859 269.743 8.84959C270.163 8.58359 270.604 8.45059 271.066 8.45059C271.829 8.45059 272.473 8.71309 272.998 9.23809L272.631 11.6426C272.344 11.4046 272.064 11.2366 271.791 11.1386C271.518 11.0406 271.217 10.9916 270.888 10.9916C270.454 10.9916 270.083 11.0931 269.775 11.2961C269.467 11.4991 269.229 11.7931 269.061 12.1781C268.9 12.5631 268.819 13.0251 268.819 13.5641V19.4336H266.194ZM283.057 19.4336L279.13 8.70259H281.85L284.097 15.0866C284.16 15.2406 284.216 15.4051 284.265 15.5801C284.314 15.7551 284.363 15.9301 284.412 16.1051C284.461 15.9301 284.51 15.7551 284.559 15.5801C284.615 15.4051 284.667 15.2406 284.716 15.0866L286.953 8.70259H289.662L285.735 19.4336H283.057ZM291.911 19.4336V8.70259H294.536V19.4336H291.911ZM293.224 7.35859C292.804 7.35859 292.44 7.20809 292.132 6.90709C291.831 6.59909 291.68 6.23509 291.68 5.81509C291.68 5.39509 291.831 5.03809 292.132 4.74409C292.433 4.44309 292.797 4.29259 293.224 4.29259C293.665 4.29259 294.032 4.43959 294.326 4.73359C294.62 5.02759 294.767 5.38809 294.767 5.81509C294.767 6.24209 294.617 6.60609 294.316 6.90709C294.022 7.20809 293.658 7.35859 293.224 7.35859ZM301.691 19.6856C300.312 19.6856 299.231 19.1886 298.447 18.1946C297.663 17.2006 297.271 15.8216 297.271 14.0576C297.271 12.9376 297.456 11.9576 297.827 11.1176C298.198 10.2776 298.716 9.62309 299.381 9.15409C300.053 8.68509 300.834 8.45059 301.723 8.45059C302.675 8.45059 303.455 8.80059 304.064 9.50059V5.45809L306.679 4.27159V19.4336H304.064V18.5516C303.546 19.3076 302.755 19.6856 301.691 19.6856ZM302.122 17.1761C302.57 17.1761 302.951 17.0991 303.266 16.9451C303.581 16.7841 303.847 16.5461 304.064 16.2311V11.8946C303.847 11.6006 303.564 11.3696 303.214 11.2016C302.871 11.0336 302.507 10.9496 302.122 10.9496C301.415 10.9496 300.869 11.2191 300.484 11.7581C300.099 12.2901 299.906 13.0566 299.906 14.0576C299.906 14.7156 299.994 15.2791 300.169 15.7481C300.344 16.2101 300.596 16.5636 300.925 16.8086C301.254 17.0536 301.653 17.1761 302.122 17.1761ZM314.378 19.6856C313.349 19.6856 312.46 19.4546 311.711 18.9926C310.969 18.5306 310.395 17.8796 309.989 17.0396C309.59 16.1926 309.391 15.1986 309.391 14.0576C309.391 12.9026 309.594 11.9051 310 11.0651C310.413 10.2251 310.99 9.58109 311.732 9.13309C312.481 8.67809 313.363 8.45059 314.378 8.45059C315.246 8.45059 316.034 8.63259 316.741 8.99659C317.448 9.36059 318.011 9.92059 318.431 10.6766C318.851 11.4256 319.061 12.3811 319.061 13.5431C319.061 13.7251 319.054 13.9491 319.04 14.2151C319.033 14.4741 319.016 14.7366 318.988 15.0026H311.984C312.012 15.4926 312.124 15.9231 312.32 16.2941C312.523 16.6581 312.8 16.9416 313.15 17.1446C313.5 17.3476 313.913 17.4491 314.389 17.4491C314.9 17.4491 315.344 17.3651 315.722 17.1971C316.1 17.0221 316.457 16.7456 316.793 16.3676L318.305 17.9321C317.843 18.4571 317.287 18.8806 316.636 19.2026C315.985 19.5246 315.232 19.6856 314.378 19.6856ZM311.995 12.9551H316.52C316.485 12.4861 316.38 12.0836 316.205 11.7476C316.03 11.4046 315.785 11.1421 315.47 10.9601C315.155 10.7781 314.774 10.6871 314.326 10.6871C313.71 10.6871 313.185 10.8761 312.751 11.2541C312.317 11.6321 312.065 12.1991 311.995 12.9551ZM326.342 19.6856C324.83 19.6856 323.637 19.1851 322.762 18.1841C321.887 17.1831 321.449 15.8146 321.449 14.0786C321.449 12.9306 321.649 11.9366 322.048 11.0966C322.447 10.2496 323.01 9.59859 323.738 9.14359C324.473 8.68159 325.341 8.45059 326.342 8.45059C327.336 8.45059 328.197 8.67809 328.925 9.13309C329.653 9.58809 330.213 10.2356 330.605 11.0756C330.997 11.9156 331.193 12.9131 331.193 14.0681C331.193 15.2301 330.997 16.2311 330.605 17.0711C330.22 17.9111 329.664 18.5586 328.936 19.0136C328.208 19.4616 327.343 19.6856 326.342 19.6856ZM326.342 17.1761C327.049 17.1761 327.599 16.9031 327.991 16.3571C328.383 15.8111 328.579 15.0481 328.579 14.0681C328.579 13.0881 328.379 12.3251 327.98 11.7791C327.588 11.2261 327.042 10.9496 326.342 10.9496C325.635 10.9496 325.082 11.2261 324.683 11.7791C324.284 12.3321 324.085 13.0986 324.085 14.0786C324.085 15.0446 324.284 15.8041 324.683 16.3571C325.082 16.9031 325.635 17.1761 326.342 17.1761ZM158.197 46.6856C157.21 46.6856 156.356 46.4581 155.635 46.0031C154.914 45.5481 154.358 44.9041 153.966 44.0711C153.574 43.2311 153.378 42.2336 153.378 41.0786C153.378 39.9236 153.574 38.9261 153.966 38.0861C154.365 37.2461 154.928 36.5986 155.656 36.1436C156.384 35.6816 157.242 35.4506 158.229 35.4506C159.342 35.4506 160.266 35.7096 161.001 36.2276C161.743 36.7386 162.278 37.4981 162.607 38.5061L160.119 39.3461C159.951 38.8981 159.706 38.5551 159.384 38.3171C159.062 38.0721 158.691 37.9496 158.271 37.9496C157.592 37.9496 157.049 38.2296 156.643 38.7896C156.244 39.3496 156.045 40.1126 156.045 41.0786C156.045 42.0306 156.241 42.7866 156.633 43.3466C157.025 43.9066 157.553 44.1866 158.218 44.1866C158.687 44.1866 159.086 44.0536 159.415 43.7876C159.751 43.5216 160 43.1331 160.161 42.6221L162.639 43.3676C162.324 44.4666 161.788 45.2961 161.032 45.8561C160.283 46.4091 159.338 46.6856 158.197 46.6856ZM169.591 46.6856C168.079 46.6856 166.885 46.1851 166.01 45.1841C165.135 44.1831 164.698 42.8146 164.698 41.0786C164.698 39.9306 164.897 38.9366 165.296 38.0966C165.695 37.2496 166.259 36.5986 166.987 36.1436C167.722 35.6816 168.59 35.4506 169.591 35.4506C170.585 35.4506 171.446 35.6781 172.174 36.1331C172.902 36.5881 173.462 37.2356 173.854 38.0756C174.246 38.9156 174.442 39.9131 174.442 41.0681C174.442 42.2301 174.246 43.2311 173.854 44.0711C173.469 44.9111 172.912 45.5586 172.184 46.0136C171.456 46.4616 170.592 46.6856 169.591 46.6856ZM169.591 44.1761C170.298 44.1761 170.847 43.9031 171.239 43.3571C171.631 42.8111 171.827 42.0481 171.827 41.0681C171.827 40.0881 171.628 39.3251 171.229 38.7791C170.837 38.2261 170.291 37.9496 169.591 37.9496C168.884 37.9496 168.331 38.2261 167.932 38.7791C167.533 39.3321 167.333 40.0986 167.333 41.0786C167.333 42.0446 167.533 42.8041 167.932 43.3571C168.331 43.9031 168.884 44.1761 169.591 44.1761ZM176.954 46.4336V35.7026H179.579V36.7316C179.922 36.3046 180.332 35.9861 180.808 35.7761C181.291 35.5591 181.84 35.4506 182.456 35.4506C183.653 35.4506 184.577 35.8216 185.228 36.5636C185.879 37.2986 186.205 38.3591 186.205 39.7451V46.4336H183.59V40.5536C183.59 39.6506 183.433 38.9926 183.118 38.5796C182.81 38.1596 182.327 37.9496 181.669 37.9496C180.955 37.9496 180.426 38.1596 180.083 38.5796C179.747 38.9926 179.579 39.6366 179.579 40.5116V46.4336H176.954ZM192.204 46.6856C191.35 46.6856 190.709 46.4511 190.282 45.9821C189.855 45.5131 189.642 44.8131 189.642 43.8821V38.0021H188.077V35.7026H189.642V32.5211L192.246 31.2716V35.7026H194.682V38.0021H192.246V43.4096C192.246 43.7456 192.312 43.9941 192.445 44.1551C192.585 44.3161 192.802 44.3966 193.096 44.3966C193.614 44.3966 194.181 44.2356 194.797 43.9136L194.493 46.2026C194.171 46.3636 193.821 46.4826 193.443 46.5596C193.065 46.6436 192.652 46.6856 192.204 46.6856ZM201.637 46.6856C200.608 46.6856 199.719 46.4546 198.97 45.9926C198.228 45.5306 197.654 44.8796 197.248 44.0396C196.849 43.1926 196.649 42.1986 196.649 41.0576C196.649 39.9026 196.852 38.9051 197.258 38.0651C197.671 37.2251 198.249 36.5811 198.991 36.1331C199.74 35.6781 200.622 35.4506 201.637 35.4506C202.505 35.4506 203.292 35.6326 203.999 35.9966C204.706 36.3606 205.27 36.9206 205.69 37.6766C206.11 38.4256 206.32 39.3811 206.32 40.5431C206.32 40.7251 206.313 40.9491 206.299 41.2151C206.292 41.4741 206.274 41.7366 206.246 42.0026H199.243C199.271 42.4926 199.383 42.9231 199.579 43.2941C199.782 43.6581 200.058 43.9416 200.408 44.1446C200.758 44.3476 201.171 44.4491 201.647 44.4491C202.158 44.4491 202.603 44.3651 202.981 44.1971C203.359 44.0221 203.716 43.7456 204.052 43.3676L205.564 44.9321C205.102 45.4571 204.545 45.8806 203.894 46.2026C203.243 46.5246 202.491 46.6856 201.637 46.6856ZM199.253 39.9551H203.779C203.744 39.4861 203.639 39.0836 203.464 38.7476C203.289 38.4046 203.044 38.1421 202.729 37.9601C202.414 37.7781 202.032 37.6871 201.584 37.6871C200.968 37.6871 200.443 37.8761 200.009 38.2541C199.575 38.6321 199.323 39.1991 199.253 39.9551ZM208.967 46.4336V35.7026H211.592V36.7316C211.935 36.3046 212.345 35.9861 212.821 35.7761C213.304 35.5591 213.853 35.4506 214.469 35.4506C215.666 35.4506 216.59 35.8216 217.241 36.5636C217.892 37.2986 218.218 38.3591 218.218 39.7451V46.4336H215.603V40.5536C215.603 39.6506 215.446 38.9926 215.131 38.5796C214.823 38.1596 214.34 37.9496 213.682 37.9496C212.968 37.9496 212.439 38.1596 212.096 38.5796C211.76 38.9926 211.592 39.6366 211.592 40.5116V46.4336H208.967ZM224.216 46.6856C223.362 46.6856 222.722 46.4511 222.295 45.9821C221.868 45.5131 221.654 44.8131 221.654 43.8821V38.0021H220.09V35.7026H221.654V32.5211L224.258 31.2716V35.7026H226.694V38.0021H224.258V43.4096C224.258 43.7456 224.325 43.9941 224.458 44.1551C224.598 44.3161 224.815 44.3966 225.109 44.3966C225.627 44.3966 226.194 44.2356 226.81 43.9136L226.505 46.2026C226.183 46.3636 225.833 46.4826 225.455 46.5596C225.077 46.6436 224.664 46.6856 224.216 46.6856Z" fill="white"/>
<path d="M185.56 164.434C185.008 164.434 184.617 165.11 184.893 165.588L189.333 173.279C189.609 173.757 190.391 173.757 190.667 173.279L195.107 165.588C195.383 165.11 194.992 164.434 194.44 164.434H185.56ZM189 94.4336V165.434H191V94.4336H189Z" fill="#FC00FF"/>
<path d="M59.5942 233.434V221.348H55.4257V218.734H66.5032V221.348H62.3137V233.434H59.5942ZM67.535 233.434V222.703H70.16V223.858C70.356 223.445 70.664 223.109 71.084 222.85C71.504 222.584 71.945 222.451 72.407 222.451C73.17 222.451 73.814 222.713 74.339 223.238L73.9715 225.643C73.6845 225.405 73.4045 225.237 73.1315 225.139C72.8585 225.041 72.5575 224.992 72.2285 224.992C71.7945 224.992 71.4235 225.093 71.1155 225.296C70.8075 225.499 70.5695 225.793 70.4015 226.178C70.2405 226.563 70.16 227.025 70.16 227.564V233.434H67.535ZM79.2167 233.686C78.0477 233.686 77.1202 233.371 76.4342 232.741C75.7552 232.104 75.4157 231.243 75.4157 230.158C75.4157 229.458 75.5907 228.845 75.9407 228.32C76.2977 227.788 76.7912 227.379 77.4212 227.092C78.0582 226.798 78.8002 226.651 79.6472 226.651C80.1162 226.651 80.5677 226.696 81.0017 226.787C81.4427 226.871 81.8277 226.994 82.1567 227.155V226.483C82.1567 225.881 81.9852 225.429 81.6422 225.128C81.3062 224.82 80.8092 224.666 80.1512 224.666C79.6262 224.666 79.0872 224.761 78.5342 224.95C77.9812 225.139 77.4212 225.419 76.8542 225.79L76.0667 223.721C76.6827 223.315 77.3687 223.004 78.1247 222.787C78.8807 222.563 79.6437 222.451 80.4137 222.451C81.8557 222.451 82.9337 222.794 83.6477 223.48C84.3617 224.159 84.7187 225.174 84.7187 226.525V233.434H82.1567V232.573C81.7927 232.937 81.3587 233.213 80.8547 233.402C80.3577 233.591 79.8117 233.686 79.2167 233.686ZM79.8257 231.47C80.2597 231.47 80.6762 231.386 81.0752 231.218C81.4812 231.043 81.8417 230.798 82.1567 230.483V229.213C81.8557 229.066 81.5197 228.954 81.1487 228.877C80.7847 228.793 80.4207 228.751 80.0567 228.751C79.4057 228.751 78.8912 228.877 78.5132 229.129C78.1422 229.374 77.9567 229.717 77.9567 230.158C77.9567 230.571 78.1212 230.893 78.4502 231.124C78.7792 231.355 79.2377 231.47 79.8257 231.47ZM87.8582 233.434V222.703H90.4832V223.732C90.8262 223.305 91.2357 222.986 91.7117 222.776C92.1947 222.559 92.7442 222.451 93.3602 222.451C94.5572 222.451 95.4812 222.822 96.1322 223.564C96.7832 224.299 97.1087 225.359 97.1087 226.745V233.434H94.4942V227.554C94.4942 226.651 94.3367 225.993 94.0217 225.58C93.7137 225.16 93.2307 224.95 92.5727 224.95C91.8587 224.95 91.3302 225.16 90.9872 225.58C90.6512 225.993 90.4832 226.637 90.4832 227.512V233.434H87.8582ZM103.793 233.686C102.953 233.686 102.148 233.507 101.378 233.15C100.615 232.793 100.009 232.314 99.5614 231.712L101.283 230.263C101.64 230.641 102.053 230.942 102.522 231.166C102.991 231.383 103.439 231.491 103.866 231.491C104.398 231.491 104.808 231.404 105.095 231.229C105.382 231.047 105.525 230.795 105.525 230.473C105.525 230.263 105.455 230.077 105.315 229.916C105.182 229.748 104.944 229.58 104.601 229.412C104.258 229.237 103.775 229.038 103.152 228.814C101.948 228.373 101.094 227.897 100.59 227.386C100.086 226.868 99.8344 226.213 99.8344 225.422C99.8344 224.54 100.191 223.826 100.905 223.28C101.619 222.727 102.55 222.451 103.698 222.451C104.482 222.451 105.203 222.598 105.861 222.892C106.526 223.186 107.097 223.616 107.573 224.183L105.861 225.601C105.231 224.964 104.496 224.645 103.656 224.645C103.229 224.645 102.886 224.726 102.627 224.887C102.368 225.041 102.239 225.251 102.239 225.517C102.239 225.776 102.389 226.007 102.69 226.21C102.998 226.413 103.569 226.651 104.402 226.924C105.228 227.183 105.896 227.477 106.407 227.806C106.925 228.135 107.303 228.516 107.541 228.95C107.786 229.384 107.909 229.885 107.909 230.452C107.909 231.46 107.541 232.251 106.806 232.825C106.078 233.399 105.074 233.686 103.793 233.686ZM110.727 233.434V219.458L113.352 218.272V233.434H110.727ZM119.904 233.686C118.735 233.686 117.808 233.371 117.122 232.741C116.443 232.104 116.103 231.243 116.103 230.158C116.103 229.458 116.278 228.845 116.628 228.32C116.985 227.788 117.479 227.379 118.109 227.092C118.746 226.798 119.488 226.651 120.335 226.651C120.804 226.651 121.255 226.696 121.689 226.787C122.13 226.871 122.515 226.994 122.844 227.155V226.483C122.844 225.881 122.673 225.429 122.33 225.128C121.994 224.82 121.497 224.666 120.839 224.666C120.314 224.666 119.775 224.761 119.222 224.95C118.669 225.139 118.109 225.419 117.542 225.79L116.754 223.721C117.37 223.315 118.056 223.004 118.812 222.787C119.568 222.563 120.331 222.451 121.101 222.451C122.543 222.451 123.621 222.794 124.335 223.48C125.049 224.159 125.406 225.174 125.406 226.525V233.434H122.844V232.573C122.48 232.937 122.046 233.213 121.542 233.402C121.045 233.591 120.499 233.686 119.904 233.686ZM120.513 231.47C120.947 231.47 121.364 231.386 121.763 231.218C122.169 231.043 122.529 230.798 122.844 230.483V229.213C122.543 229.066 122.207 228.954 121.836 228.877C121.472 228.793 121.108 228.751 120.744 228.751C120.093 228.751 119.579 228.877 119.201 229.129C118.83 229.374 118.644 229.717 118.644 230.158C118.644 230.571 118.809 230.893 119.138 231.124C119.467 231.355 119.925 231.47 120.513 231.47ZM131.244 233.686C130.39 233.686 129.75 233.451 129.323 232.982C128.896 232.513 128.682 231.813 128.682 230.882V225.002H127.118V222.703H128.682V219.521L131.286 218.272V222.703H133.722V225.002H131.286V230.41C131.286 230.746 131.353 230.994 131.486 231.155C131.626 231.316 131.843 231.397 132.137 231.397C132.655 231.397 133.222 231.236 133.838 230.914L133.533 233.203C133.211 233.364 132.861 233.483 132.483 233.56C132.105 233.644 131.692 233.686 131.244 233.686ZM135.97 233.434V222.703H138.595V233.434H135.97ZM137.283 221.359C136.863 221.359 136.499 221.208 136.191 220.907C135.89 220.599 135.739 220.235 135.739 219.815C135.739 219.395 135.89 219.038 136.191 218.744C136.492 218.443 136.856 218.293 137.283 218.293C137.724 218.293 138.091 218.44 138.385 218.734C138.679 219.028 138.826 219.388 138.826 219.815C138.826 220.242 138.676 220.606 138.375 220.907C138.081 221.208 137.717 221.359 137.283 221.359ZM146.222 233.686C144.71 233.686 143.517 233.185 142.642 232.184C141.767 231.183 141.329 229.815 141.329 228.079C141.329 226.931 141.529 225.937 141.928 225.097C142.327 224.25 142.89 223.599 143.618 223.144C144.353 222.682 145.221 222.451 146.222 222.451C147.216 222.451 148.077 222.678 148.805 223.133C149.533 223.588 150.093 224.236 150.485 225.076C150.877 225.916 151.073 226.913 151.073 228.068C151.073 229.23 150.877 230.231 150.485 231.071C150.1 231.911 149.544 232.559 148.816 233.014C148.088 233.462 147.223 233.686 146.222 233.686ZM146.222 231.176C146.929 231.176 147.479 230.903 147.871 230.357C148.263 229.811 148.459 229.048 148.459 228.068C148.459 227.088 148.259 226.325 147.86 225.779C147.468 225.226 146.922 224.95 146.222 224.95C145.515 224.95 144.962 225.226 144.563 225.779C144.164 226.332 143.965 227.099 143.965 228.079C143.965 229.045 144.164 229.804 144.563 230.357C144.962 230.903 145.515 231.176 146.222 231.176ZM153.586 233.434V222.703H156.211V223.732C156.554 223.305 156.963 222.986 157.439 222.776C157.922 222.559 158.472 222.451 159.088 222.451C160.285 222.451 161.209 222.822 161.86 223.564C162.511 224.299 162.836 225.359 162.836 226.745V233.434H160.222V227.554C160.222 226.651 160.064 225.993 159.749 225.58C159.441 225.16 158.958 224.95 158.3 224.95C157.586 224.95 157.058 225.16 156.715 225.58C156.379 225.993 156.211 226.637 156.211 227.512V233.434H153.586ZM169.52 233.686C168.68 233.686 167.875 233.507 167.105 233.15C166.342 232.793 165.737 232.314 165.289 231.712L167.011 230.263C167.368 230.641 167.781 230.942 168.25 231.166C168.719 231.383 169.167 231.491 169.594 231.491C170.126 231.491 170.535 231.404 170.822 231.229C171.109 231.047 171.253 230.795 171.253 230.473C171.253 230.263 171.183 230.077 171.043 229.916C170.91 229.748 170.672 229.58 170.329 229.412C169.986 229.237 169.503 229.038 168.88 228.814C167.676 228.373 166.822 227.897 166.318 227.386C165.814 226.868 165.562 226.213 165.562 225.422C165.562 224.54 165.919 223.826 166.633 223.28C167.347 222.727 168.278 222.451 169.426 222.451C170.21 222.451 170.931 222.598 171.589 222.892C172.254 223.186 172.824 223.616 173.3 224.183L171.589 225.601C170.959 224.964 170.224 224.645 169.384 224.645C168.957 224.645 168.614 224.726 168.355 224.887C168.096 225.041 167.966 225.251 167.966 225.517C167.966 225.776 168.117 226.007 168.418 226.21C168.726 226.413 169.296 226.651 170.129 226.924C170.955 227.183 171.624 227.477 172.135 227.806C172.653 228.135 173.031 228.516 173.269 228.95C173.514 229.384 173.636 229.885 173.636 230.452C173.636 231.46 173.269 232.251 172.534 232.825C171.806 233.399 170.801 233.686 169.52 233.686ZM185.852 233.686C184.865 233.686 184.011 233.458 183.29 233.003C182.569 232.548 182.012 231.904 181.62 231.071C181.228 230.231 181.032 229.234 181.032 228.079C181.032 226.924 181.228 225.926 181.62 225.086C182.019 224.246 182.583 223.599 183.311 223.144C184.039 222.682 184.896 222.451 185.883 222.451C186.996 222.451 187.92 222.71 188.655 223.228C189.397 223.739 189.933 224.498 190.262 225.506L187.773 226.346C187.605 225.898 187.36 225.555 187.038 225.317C186.716 225.072 186.345 224.95 185.925 224.95C185.246 224.95 184.704 225.23 184.298 225.79C183.899 226.35 183.699 227.113 183.699 228.079C183.699 229.031 183.895 229.787 184.287 230.347C184.679 230.907 185.208 231.187 185.873 231.187C186.342 231.187 186.741 231.054 187.07 230.788C187.406 230.522 187.654 230.133 187.815 229.622L190.293 230.368C189.978 231.467 189.443 232.296 188.687 232.856C187.938 233.409 186.993 233.686 185.852 233.686ZM197.246 233.686C195.734 233.686 194.54 233.185 193.665 232.184C192.79 231.183 192.353 229.815 192.353 228.079C192.353 226.931 192.552 225.937 192.951 225.097C193.35 224.25 193.914 223.599 194.642 223.144C195.377 222.682 196.245 222.451 197.246 222.451C198.24 222.451 199.101 222.678 199.829 223.133C200.557 223.588 201.117 224.236 201.509 225.076C201.901 225.916 202.097 226.913 202.097 228.068C202.097 229.23 201.901 230.231 201.509 231.071C201.124 231.911 200.567 232.559 199.839 233.014C199.111 233.462 198.247 233.686 197.246 233.686ZM197.246 231.176C197.953 231.176 198.502 230.903 198.894 230.357C199.286 229.811 199.482 229.048 199.482 228.068C199.482 227.088 199.283 226.325 198.884 225.779C198.492 225.226 197.946 224.95 197.246 224.95C196.539 224.95 195.986 225.226 195.587 225.779C195.188 226.332 194.988 227.099 194.988 228.079C194.988 229.045 195.188 229.804 195.587 230.357C195.986 230.903 196.539 231.176 197.246 231.176ZM204.609 233.434V222.703H207.234V223.7C207.577 223.266 207.962 222.951 208.389 222.755C208.823 222.552 209.313 222.451 209.859 222.451C210.496 222.451 211.042 222.58 211.497 222.839C211.952 223.098 212.306 223.476 212.558 223.973C212.915 223.483 213.373 223.109 213.933 222.85C214.493 222.584 215.127 222.451 215.834 222.451C217.15 222.451 218.144 222.804 218.816 223.511C219.488 224.218 219.824 225.268 219.824 226.661V233.434H217.209V227.564C217.209 226.668 217.062 226.01 216.768 225.59C216.474 225.163 216.019 224.95 215.403 224.95C214.983 224.95 214.633 225.044 214.353 225.233C214.08 225.422 213.874 225.709 213.734 226.094C213.594 226.472 213.524 226.952 213.524 227.533V233.434H210.909V227.564C210.909 226.661 210.766 226 210.479 225.58C210.192 225.16 209.737 224.95 209.114 224.95C208.477 224.95 208.004 225.156 207.696 225.569C207.388 225.982 207.234 226.623 207.234 227.491V233.434H204.609ZM223.128 237.697V222.703H225.753V223.49C226.341 222.797 227.128 222.451 228.115 222.451C229.032 222.451 229.823 222.678 230.488 223.133C231.153 223.581 231.664 224.225 232.021 225.065C232.378 225.905 232.557 226.906 232.557 228.068C232.557 229.195 232.371 230.182 232 231.029C231.629 231.869 231.108 232.524 230.436 232.993C229.764 233.455 228.98 233.686 228.084 233.686C227.594 233.686 227.153 233.598 226.761 233.423C226.369 233.241 226.033 232.975 225.753 232.625V236.51L223.128 237.697ZM227.695 231.176C228.409 231.176 228.959 230.907 229.344 230.368C229.729 229.822 229.921 229.055 229.921 228.068C229.921 227.081 229.725 226.315 229.333 225.769C228.941 225.223 228.395 224.95 227.695 224.95C227.268 224.95 226.894 225.027 226.572 225.181C226.257 225.335 225.984 225.569 225.753 225.884V230.221C225.942 230.522 226.208 230.756 226.551 230.924C226.901 231.092 227.282 231.176 227.695 231.176ZM235.373 233.434V219.458L237.998 218.272V233.434H235.373ZM245.8 233.686C244.771 233.686 243.882 233.455 243.133 232.993C242.391 232.531 241.817 231.88 241.411 231.04C241.012 230.193 240.813 229.199 240.813 228.058C240.813 226.903 241.016 225.905 241.422 225.065C241.835 224.225 242.412 223.581 243.154 223.133C243.903 222.678 244.785 222.451 245.8 222.451C246.668 222.451 247.456 222.633 248.163 222.997C248.87 223.361 249.433 223.921 249.853 224.677C250.273 225.426 250.483 226.381 250.483 227.543C250.483 227.725 250.476 227.949 250.462 228.215C250.455 228.474 250.438 228.737 250.41 229.003H243.406C243.434 229.493 243.546 229.923 243.742 230.294C243.945 230.658 244.222 230.942 244.572 231.145C244.922 231.348 245.335 231.449 245.811 231.449C246.322 231.449 246.766 231.365 247.144 231.197C247.522 231.022 247.879 230.746 248.215 230.368L249.727 231.932C249.265 232.457 248.709 232.881 248.058 233.203C247.407 233.525 246.654 233.686 245.8 233.686ZM243.417 226.955H247.942C247.907 226.486 247.802 226.084 247.627 225.748C247.452 225.405 247.207 225.142 246.892 224.96C246.577 224.778 246.196 224.687 245.748 224.687C245.132 224.687 244.607 224.876 244.173 225.254C243.739 225.632 243.487 226.199 243.417 226.955ZM256.096 233.686C255.242 233.686 254.601 233.451 254.174 232.982C253.747 232.513 253.534 231.813 253.534 230.882V225.002H251.969V222.703H253.534V219.521L256.138 218.272V222.703H258.574V225.002H256.138V230.41C256.138 230.746 256.204 230.994 256.337 231.155C256.477 231.316 256.694 231.397 256.988 231.397C257.506 231.397 258.073 231.236 258.689 230.914L258.385 233.203C258.063 233.364 257.713 233.483 257.335 233.56C256.957 233.644 256.544 233.686 256.096 233.686ZM265.529 233.686C264.5 233.686 263.611 233.455 262.862 232.993C262.12 232.531 261.546 231.88 261.14 231.04C260.741 230.193 260.541 229.199 260.541 228.058C260.541 226.903 260.744 225.905 261.15 225.065C261.563 224.225 262.141 223.581 262.883 223.133C263.632 222.678 264.514 222.451 265.529 222.451C266.397 222.451 267.184 222.633 267.891 222.997C268.598 223.361 269.162 223.921 269.582 224.677C270.002 225.426 270.212 226.381 270.212 227.543C270.212 227.725 270.205 227.949 270.191 228.215C270.184 228.474 270.166 228.737 270.138 229.003H263.135C263.163 229.493 263.275 229.923 263.471 230.294C263.674 230.658 263.95 230.942 264.3 231.145C264.65 231.348 265.063 231.449 265.539 231.449C266.05 231.449 266.495 231.365 266.873 231.197C267.251 231.022 267.608 230.746 267.944 230.368L269.456 231.932C268.994 232.457 268.437 232.881 267.786 233.203C267.135 233.525 266.383 233.686 265.529 233.686ZM263.145 226.955H267.671C267.636 226.486 267.531 226.084 267.356 225.748C267.181 225.405 266.936 225.142 266.621 224.96C266.306 224.778 265.924 224.687 265.476 224.687C264.86 224.687 264.335 224.876 263.901 225.254C263.467 225.632 263.215 226.199 263.145 226.955ZM277.02 233.686C275.641 233.686 274.56 233.189 273.776 232.195C272.992 231.201 272.6 229.822 272.6 228.058C272.6 226.938 272.785 225.958 273.156 225.118C273.527 224.278 274.045 223.623 274.71 223.154C275.382 222.685 276.163 222.451 277.052 222.451C278.004 222.451 278.784 222.801 279.393 223.501V219.458L282.008 218.272V233.434H279.393V232.552C278.875 233.308 278.084 233.686 277.02 233.686ZM277.451 231.176C277.899 231.176 278.28 231.099 278.595 230.945C278.91 230.784 279.176 230.546 279.393 230.231V225.895C279.176 225.601 278.893 225.37 278.543 225.202C278.2 225.034 277.836 224.95 277.451 224.95C276.744 224.95 276.198 225.219 275.813 225.758C275.428 226.29 275.235 227.057 275.235 228.058C275.235 228.716 275.323 229.279 275.498 229.748C275.673 230.21 275.925 230.564 276.254 230.809C276.583 231.054 276.982 231.176 277.451 231.176ZM293.708 233.686C292.539 233.686 291.611 233.371 290.925 232.741C290.246 232.104 289.907 231.243 289.907 230.158C289.907 229.458 290.082 228.845 290.432 228.32C290.789 227.788 291.282 227.379 291.912 227.092C292.549 226.798 293.291 226.651 294.138 226.651C294.607 226.651 295.059 226.696 295.493 226.787C295.934 226.871 296.319 226.994 296.648 227.155V226.483C296.648 225.881 296.476 225.429 296.133 225.128C295.797 224.82 295.3 224.666 294.642 224.666C294.117 224.666 293.578 224.761 293.025 224.95C292.472 225.139 291.912 225.419 291.345 225.79L290.558 223.721C291.174 223.315 291.86 223.004 292.616 222.787C293.372 222.563 294.135 222.451 294.905 222.451C296.347 222.451 297.425 222.794 298.139 223.48C298.853 224.159 299.21 225.174 299.21 226.525V233.434H296.648V232.573C296.284 232.937 295.85 233.213 295.346 233.402C294.849 233.591 294.303 233.686 293.708 233.686ZM294.317 231.47C294.751 231.47 295.167 231.386 295.566 231.218C295.972 231.043 296.333 230.798 296.648 230.483V229.213C296.347 229.066 296.011 228.954 295.64 228.877C295.276 228.793 294.912 228.751 294.548 228.751C293.897 228.751 293.382 228.877 293.004 229.129C292.633 229.374 292.448 229.717 292.448 230.158C292.448 230.571 292.612 230.893 292.941 231.124C293.27 231.355 293.729 231.47 294.317 231.47ZM302.349 233.434V222.703H304.974V223.732C305.317 223.305 305.727 222.986 306.203 222.776C306.686 222.559 307.235 222.451 307.851 222.451C309.048 222.451 309.972 222.822 310.623 223.564C311.274 224.299 311.6 225.359 311.6 226.745V233.434H308.985V227.554C308.985 226.651 308.828 225.993 308.513 225.58C308.205 225.16 307.722 224.95 307.064 224.95C306.35 224.95 305.821 225.16 305.478 225.58C305.142 225.993 304.974 226.637 304.974 227.512V233.434H302.349ZM318.733 233.686C317.354 233.686 316.273 233.189 315.489 232.195C314.705 231.201 314.313 229.822 314.313 228.058C314.313 226.938 314.498 225.958 314.869 225.118C315.24 224.278 315.758 223.623 316.423 223.154C317.095 222.685 317.876 222.451 318.765 222.451C319.717 222.451 320.497 222.801 321.106 223.501V219.458L323.721 218.272V233.434H321.106V232.552C320.588 233.308 319.797 233.686 318.733 233.686ZM319.164 231.176C319.612 231.176 319.993 231.099 320.308 230.945C320.623 230.784 320.889 230.546 321.106 230.231V225.895C320.889 225.601 320.606 225.37 320.256 225.202C319.913 225.034 319.549 224.95 319.164 224.95C318.457 224.95 317.911 225.219 317.526 225.758C317.141 226.29 316.948 227.057 316.948 228.058C316.948 228.716 317.036 229.279 317.211 229.748C317.386 230.21 317.638 230.564 317.967 230.809C318.296 231.054 318.695 231.176 319.164 231.176ZM70.3997 260.686C69.2027 260.686 68.2752 260.315 67.6172 259.573C66.9592 258.824 66.6302 257.767 66.6302 256.402V249.703H69.2552V255.583C69.2552 256.486 69.4092 257.144 69.7172 257.557C70.0252 257.97 70.5117 258.176 71.1767 258.176C71.8907 258.176 72.4157 257.97 72.7517 257.557C73.0947 257.137 73.2662 256.493 73.2662 255.625V249.703H75.8807V260.434H73.2662V259.426C72.9372 259.846 72.5312 260.161 72.0482 260.371C71.5722 260.581 71.0227 260.686 70.3997 260.686ZM79.1834 264.697V249.703H81.8084V250.49C82.3964 249.797 83.1839 249.451 84.1709 249.451C85.0879 249.451 85.8789 249.678 86.5439 250.133C87.2089 250.581 87.7199 251.225 88.0769 252.065C88.4339 252.905 88.6124 253.906 88.6124 255.068C88.6124 256.195 88.4269 257.182 88.0559 258.029C87.6849 258.869 87.1634 259.524 86.4914 259.993C85.8194 260.455 85.0354 260.686 84.1394 260.686C83.6494 260.686 83.2084 260.598 82.8164 260.423C82.4244 260.241 82.0884 259.975 81.8084 259.625V263.51L79.1834 264.697ZM83.7509 258.176C84.4649 258.176 85.0144 257.907 85.3994 257.368C85.7844 256.822 85.9769 256.055 85.9769 255.068C85.9769 254.081 85.7809 253.315 85.3889 252.769C84.9969 252.223 84.4509 251.95 83.7509 251.95C83.3239 251.95 82.9494 252.027 82.6274 252.181C82.3124 252.335 82.0394 252.569 81.8084 252.884V257.221C81.9974 257.522 82.2634 257.756 82.6064 257.924C82.9564 258.092 83.3379 258.176 83.7509 258.176ZM91.429 260.434V246.458L94.054 245.272V260.434H91.429ZM101.761 260.686C100.249 260.686 99.0559 260.185 98.1809 259.184C97.3059 258.183 96.8684 256.815 96.8684 255.079C96.8684 253.931 97.0679 252.937 97.4669 252.097C97.8659 251.25 98.4294 250.599 99.1574 250.144C99.8924 249.682 100.76 249.451 101.761 249.451C102.755 249.451 103.616 249.678 104.344 250.133C105.072 250.588 105.632 251.236 106.024 252.076C106.416 252.916 106.612 253.913 106.612 255.068C106.612 256.23 106.416 257.231 106.024 258.071C105.639 258.911 105.083 259.559 104.355 260.014C103.627 260.462 102.762 260.686 101.761 260.686ZM101.761 258.176C102.468 258.176 103.018 257.903 103.41 257.357C103.802 256.811 103.998 256.048 103.998 255.068C103.998 254.088 103.798 253.325 103.399 252.779C103.007 252.226 102.461 251.95 101.761 251.95C101.054 251.95 100.501 252.226 100.102 252.779C99.7034 253.332 99.5039 254.099 99.5039 255.079C99.5039 256.045 99.7034 256.804 100.102 257.357C100.501 257.903 101.054 258.176 101.761 258.176ZM112.583 260.686C111.414 260.686 110.486 260.371 109.8 259.741C109.121 259.104 108.782 258.243 108.782 257.158C108.782 256.458 108.957 255.845 109.307 255.32C109.664 254.788 110.157 254.379 110.787 254.092C111.424 253.798 112.166 253.651 113.013 253.651C113.482 253.651 113.934 253.696 114.368 253.787C114.809 253.871 115.194 253.994 115.523 254.155V253.483C115.523 252.881 115.351 252.429 115.008 252.128C114.672 251.82 114.175 251.666 113.517 251.666C112.992 251.666 112.453 251.761 111.9 251.95C111.347 252.139 110.787 252.419 110.22 252.79L109.433 250.721C110.049 250.315 110.735 250.004 111.491 249.787C112.247 249.563 113.01 249.451 113.78 249.451C115.222 249.451 116.3 249.794 117.014 250.48C117.728 251.159 118.085 252.174 118.085 253.525V260.434H115.523V259.573C115.159 259.937 114.725 260.213 114.221 260.402C113.724 260.591 113.178 260.686 112.583 260.686ZM113.192 258.47C113.626 258.47 114.042 258.386 114.441 258.218C114.847 258.043 115.208 257.798 115.523 257.483V256.213C115.222 256.066 114.886 255.954 114.515 255.877C114.151 255.793 113.787 255.751 113.423 255.751C112.772 255.751 112.257 255.877 111.879 256.129C111.508 256.374 111.323 256.717 111.323 257.158C111.323 257.571 111.487 257.893 111.816 258.124C112.145 258.355 112.604 258.47 113.192 258.47ZM125.057 260.686C123.678 260.686 122.597 260.189 121.813 259.195C121.029 258.201 120.637 256.822 120.637 255.058C120.637 253.938 120.822 252.958 121.193 252.118C121.564 251.278 122.082 250.623 122.747 250.154C123.419 249.685 124.2 249.451 125.089 249.451C126.041 249.451 126.821 249.801 127.43 250.501V246.458L130.045 245.272V260.434H127.43V259.552C126.912 260.308 126.121 260.686 125.057 260.686ZM125.488 258.176C125.936 258.176 126.317 258.099 126.632 257.945C126.947 257.784 127.213 257.546 127.43 257.231V252.895C127.213 252.601 126.93 252.37 126.58 252.202C126.237 252.034 125.873 251.95 125.488 251.95C124.781 251.95 124.235 252.219 123.85 252.758C123.465 253.29 123.272 254.057 123.272 255.058C123.272 255.716 123.36 256.279 123.535 256.748C123.71 257.21 123.962 257.564 124.291 257.809C124.62 258.054 125.019 258.176 125.488 258.176ZM137.745 260.686C136.716 260.686 135.827 260.455 135.078 259.993C134.336 259.531 133.762 258.88 133.356 258.04C132.957 257.193 132.757 256.199 132.757 255.058C132.757 253.903 132.96 252.905 133.366 252.065C133.779 251.225 134.357 250.581 135.099 250.133C135.848 249.678 136.73 249.451 137.745 249.451C138.613 249.451 139.4 249.633 140.107 249.997C140.814 250.361 141.378 250.921 141.798 251.677C142.218 252.426 142.428 253.381 142.428 254.543C142.428 254.725 142.421 254.949 142.407 255.215C142.4 255.474 142.382 255.737 142.354 256.003H135.351C135.379 256.493 135.491 256.923 135.687 257.294C135.89 257.658 136.166 257.942 136.516 258.145C136.866 258.348 137.279 258.449 137.755 258.449C138.266 258.449 138.711 258.365 139.089 258.197C139.467 258.022 139.824 257.746 140.16 257.368L141.672 258.932C141.21 259.457 140.653 259.881 140.002 260.203C139.351 260.525 138.599 260.686 137.745 260.686ZM135.361 253.955H139.887C139.852 253.486 139.747 253.084 139.572 252.748C139.397 252.405 139.152 252.142 138.837 251.96C138.522 251.778 138.14 251.687 137.692 251.687C137.076 251.687 136.551 251.876 136.117 252.254C135.683 252.632 135.431 253.199 135.361 253.955ZM149.236 260.686C147.857 260.686 146.776 260.189 145.992 259.195C145.208 258.201 144.816 256.822 144.816 255.058C144.816 253.938 145.001 252.958 145.372 252.118C145.743 251.278 146.261 250.623 146.926 250.154C147.598 249.685 148.379 249.451 149.268 249.451C150.22 249.451 151 249.801 151.609 250.501V246.458L154.224 245.272V260.434H151.609V259.552C151.091 260.308 150.3 260.686 149.236 260.686ZM149.667 258.176C150.115 258.176 150.496 258.099 150.811 257.945C151.126 257.784 151.392 257.546 151.609 257.231V252.895C151.392 252.601 151.109 252.37 150.759 252.202C150.416 252.034 150.052 251.95 149.667 251.95C148.96 251.95 148.414 252.219 148.029 252.758C147.644 253.29 147.451 254.057 147.451 255.058C147.451 255.716 147.539 256.279 147.714 256.748C147.889 257.21 148.141 257.564 148.47 257.809C148.799 258.054 149.198 258.176 149.667 258.176ZM165.882 260.686C165.028 260.686 164.387 260.451 163.96 259.982C163.533 259.513 163.32 258.813 163.32 257.882V252.002H161.755V249.703H163.32V246.521L165.924 245.272V249.703H168.36V252.002H165.924V257.41C165.924 257.746 165.99 257.994 166.123 258.155C166.263 258.316 166.48 258.397 166.774 258.397C167.292 258.397 167.859 258.236 168.475 257.914L168.171 260.203C167.849 260.364 167.499 260.483 167.121 260.56C166.743 260.644 166.33 260.686 165.882 260.686ZM175.22 260.686C173.708 260.686 172.515 260.185 171.64 259.184C170.765 258.183 170.327 256.815 170.327 255.079C170.327 253.931 170.527 252.937 170.926 252.097C171.325 251.25 171.888 250.599 172.616 250.144C173.351 249.682 174.219 249.451 175.22 249.451C176.214 249.451 177.075 249.678 177.803 250.133C178.531 250.588 179.091 251.236 179.483 252.076C179.875 252.916 180.071 253.913 180.071 255.068C180.071 256.23 179.875 257.231 179.483 258.071C179.098 258.911 178.542 259.559 177.814 260.014C177.086 260.462 176.221 260.686 175.22 260.686ZM175.22 258.176C175.927 258.176 176.477 257.903 176.869 257.357C177.261 256.811 177.457 256.048 177.457 255.068C177.457 254.088 177.257 253.325 176.858 252.779C176.466 252.226 175.92 251.95 175.22 251.95C174.513 251.95 173.96 252.226 173.561 252.779C173.162 253.332 172.963 254.099 172.963 255.079C172.963 256.045 173.162 256.804 173.561 257.357C173.96 257.903 174.513 258.176 175.22 258.176ZM189.383 264.508L191.01 260.245L186.989 249.703H189.687L192.029 255.982C192.092 256.129 192.151 256.29 192.207 256.465C192.263 256.64 192.316 256.815 192.365 256.99C192.407 256.815 192.456 256.643 192.512 256.475C192.575 256.3 192.638 256.136 192.701 255.982L195.042 249.703H197.741L192.092 264.508H189.383ZM204.034 260.686C202.522 260.686 201.328 260.185 200.453 259.184C199.578 258.183 199.141 256.815 199.141 255.079C199.141 253.931 199.34 252.937 199.739 252.097C200.138 251.25 200.702 250.599 201.43 250.144C202.165 249.682 203.033 249.451 204.034 249.451C205.028 249.451 205.889 249.678 206.617 250.133C207.345 250.588 207.905 251.236 208.297 252.076C208.689 252.916 208.885 253.913 208.885 255.068C208.885 256.23 208.689 257.231 208.297 258.071C207.912 258.911 207.355 259.559 206.627 260.014C205.899 260.462 205.035 260.686 204.034 260.686ZM204.034 258.176C204.741 258.176 205.29 257.903 205.682 257.357C206.074 256.811 206.27 256.048 206.27 255.068C206.27 254.088 206.071 253.325 205.672 252.779C205.28 252.226 204.734 251.95 204.034 251.95C203.327 251.95 202.774 252.226 202.375 252.779C201.976 253.332 201.776 254.099 201.776 255.079C201.776 256.045 201.976 256.804 202.375 257.357C202.774 257.903 203.327 258.176 204.034 258.176ZM215.267 260.686C214.07 260.686 213.142 260.315 212.484 259.573C211.826 258.824 211.497 257.767 211.497 256.402V249.703H214.122V255.583C214.122 256.486 214.276 257.144 214.584 257.557C214.892 257.97 215.379 258.176 216.044 258.176C216.758 258.176 217.283 257.97 217.619 257.557C217.962 257.137 218.133 256.493 218.133 255.625V249.703H220.748V260.434H218.133V259.426C217.804 259.846 217.398 260.161 216.915 260.371C216.439 260.581 215.89 260.686 215.267 260.686ZM224.051 260.434V249.703H226.676V250.858C226.872 250.445 227.18 250.109 227.6 249.85C228.02 249.584 228.461 249.451 228.923 249.451C229.686 249.451 230.33 249.713 230.855 250.238L230.487 252.643C230.2 252.405 229.92 252.237 229.647 252.139C229.374 252.041 229.073 251.992 228.744 251.992C228.31 251.992 227.939 252.093 227.631 252.296C227.323 252.499 227.085 252.793 226.917 253.178C226.756 253.563 226.676 254.025 226.676 254.564V260.434H224.051ZM242.289 260.686C241.302 260.686 240.448 260.458 239.727 260.003C239.006 259.548 238.45 258.904 238.058 258.071C237.666 257.231 237.47 256.234 237.47 255.079C237.47 253.924 237.666 252.926 238.058 252.086C238.457 251.246 239.02 250.599 239.748 250.144C240.476 249.682 241.334 249.451 242.321 249.451C243.434 249.451 244.358 249.71 245.093 250.228C245.835 250.739 246.37 251.498 246.699 252.506L244.211 253.346C244.043 252.898 243.798 252.555 243.476 252.317C243.154 252.072 242.783 251.95 242.363 251.95C241.684 251.95 241.141 252.23 240.735 252.79C240.336 253.35 240.137 254.113 240.137 255.079C240.137 256.031 240.333 256.787 240.725 257.347C241.117 257.907 241.645 258.187 242.31 258.187C242.779 258.187 243.178 258.054 243.507 257.788C243.843 257.522 244.092 257.133 244.253 256.622L246.731 257.368C246.416 258.467 245.88 259.296 245.124 259.856C244.375 260.409 243.43 260.686 242.289 260.686ZM249.398 260.434V246.479L252.023 245.272V250.742C252.366 250.308 252.776 249.986 253.252 249.776C253.735 249.559 254.284 249.451 254.9 249.451C255.726 249.451 256.416 249.626 256.969 249.976C257.529 250.319 257.949 250.812 258.229 251.456C258.509 252.093 258.649 252.856 258.649 253.745V260.434H256.034V254.554C256.034 253.672 255.884 253.017 255.583 252.59C255.282 252.163 254.792 251.95 254.113 251.95C253.399 251.95 252.87 252.16 252.527 252.58C252.191 252.993 252.023 253.637 252.023 254.512V260.434H249.398ZM265.017 260.686C263.848 260.686 262.921 260.371 262.235 259.741C261.556 259.104 261.216 258.243 261.216 257.158C261.216 256.458 261.391 255.845 261.741 255.32C262.098 254.788 262.592 254.379 263.222 254.092C263.859 253.798 264.601 253.651 265.448 253.651C265.917 253.651 266.368 253.696 266.802 253.787C267.243 253.871 267.628 253.994 267.957 254.155V253.483C267.957 252.881 267.786 252.429 267.443 252.128C267.107 251.82 266.61 251.666 265.952 251.666C265.427 251.666 264.888 251.761 264.335 251.95C263.782 252.139 263.222 252.419 262.655 252.79L261.867 250.721C262.483 250.315 263.169 250.004 263.925 249.787C264.681 249.563 265.444 249.451 266.214 249.451C267.656 249.451 268.734 249.794 269.448 250.48C270.162 251.159 270.519 252.174 270.519 253.525V260.434H267.957V259.573C267.593 259.937 267.159 260.213 266.655 260.402C266.158 260.591 265.612 260.686 265.017 260.686ZM265.626 258.47C266.06 258.47 266.477 258.386 266.876 258.218C267.282 258.043 267.642 257.798 267.957 257.483V256.213C267.656 256.066 267.32 255.954 266.949 255.877C266.585 255.793 266.221 255.751 265.857 255.751C265.206 255.751 264.692 255.877 264.314 256.129C263.943 256.374 263.757 256.717 263.757 257.158C263.757 257.571 263.922 257.893 264.251 258.124C264.58 258.355 265.038 258.47 265.626 258.47ZM273.659 260.434V249.703H276.284V250.732C276.627 250.305 277.036 249.986 277.512 249.776C277.995 249.559 278.545 249.451 279.161 249.451C280.358 249.451 281.282 249.822 281.933 250.564C282.584 251.299 282.909 252.359 282.909 253.745V260.434H280.295V254.554C280.295 253.651 280.137 252.993 279.822 252.58C279.514 252.16 279.031 251.95 278.373 251.95C277.659 251.95 277.131 252.16 276.788 252.58C276.452 252.993 276.284 253.637 276.284 254.512V260.434H273.659ZM286.21 260.434V249.703H288.835V250.732C289.178 250.305 289.587 249.986 290.063 249.776C290.546 249.559 291.096 249.451 291.712 249.451C292.909 249.451 293.833 249.822 294.484 250.564C295.135 251.299 295.46 252.359 295.46 253.745V260.434H292.846V254.554C292.846 253.651 292.688 252.993 292.373 252.58C292.065 252.16 291.582 251.95 290.924 251.95C290.21 251.95 289.682 252.16 289.339 252.58C289.003 252.993 288.835 253.637 288.835 254.512V260.434H286.21ZM303.161 260.686C302.132 260.686 301.243 260.455 300.494 259.993C299.752 259.531 299.178 258.88 298.772 258.04C298.373 257.193 298.173 256.199 298.173 255.058C298.173 253.903 298.376 252.905 298.782 252.065C299.195 251.225 299.773 250.581 300.515 250.133C301.264 249.678 302.146 249.451 303.161 249.451C304.029 249.451 304.816 249.633 305.523 249.997C306.23 250.361 306.794 250.921 307.214 251.677C307.634 252.426 307.844 253.381 307.844 254.543C307.844 254.725 307.837 254.949 307.823 255.215C307.816 255.474 307.798 255.737 307.77 256.003H300.767C300.795 256.493 300.907 256.923 301.103 257.294C301.306 257.658 301.582 257.942 301.932 258.145C302.282 258.348 302.695 258.449 303.171 258.449C303.682 258.449 304.127 258.365 304.505 258.197C304.883 258.022 305.24 257.746 305.576 257.368L307.088 258.932C306.626 259.457 306.069 259.881 305.418 260.203C304.767 260.525 304.015 260.686 303.161 260.686ZM300.777 253.955H305.303C305.268 253.486 305.163 253.084 304.988 252.748C304.813 252.405 304.568 252.142 304.253 251.96C303.938 251.778 303.556 251.687 303.108 251.687C302.492 251.687 301.967 251.876 301.533 252.254C301.099 252.632 300.847 253.199 300.777 253.955ZM310.535 260.434V246.458L313.16 245.272V260.434H310.535Z" fill="white"/>
<path d="M185.56 378.434C185.008 378.434 184.617 379.11 184.893 379.588L189.333 387.279C189.609 387.757 190.391 387.757 190.667 387.279L195.107 379.588C195.383 379.11 194.992 378.434 194.44 378.434H185.56ZM189 308.434V379.434H191V308.434H189Z" fill="#FC00FF"/>
<path d="M99.0164 447.686C98.0994 447.686 97.2664 447.525 96.5174 447.203C95.7684 446.881 95.1244 446.426 94.5854 445.838C94.0534 445.243 93.6544 444.543 93.3884 443.738L95.8559 442.824C96.1709 443.496 96.6084 444.049 97.1684 444.483C97.7354 444.91 98.3724 445.124 99.0794 445.124C99.8284 445.124 100.423 444.966 100.864 444.651C101.312 444.336 101.536 443.878 101.536 443.276C101.536 442.863 101.403 442.52 101.137 442.247C100.878 441.967 100.525 441.729 100.077 441.533C99.6359 441.33 99.1354 441.134 98.5754 440.945C98.0364 440.763 97.4939 440.56 96.9479 440.336C96.4019 440.112 95.9014 439.839 95.4464 439.517C94.9914 439.188 94.6239 438.775 94.3439 438.278C94.0709 437.781 93.9344 437.172 93.9344 436.451C93.9344 435.73 94.1269 435.068 94.5119 434.466C94.8969 433.864 95.4534 433.385 96.1814 433.028C96.9164 432.664 97.8054 432.482 98.8484 432.482C99.7024 432.482 100.458 432.629 101.116 432.923C101.781 433.21 102.331 433.602 102.765 434.099C103.199 434.596 103.5 435.159 103.668 435.789L101.232 436.598C101.036 436.157 100.735 435.789 100.329 435.495C99.9299 435.194 99.3874 435.044 98.7014 435.044C98.0574 435.044 97.5569 435.17 97.1999 435.422C96.8429 435.674 96.6644 436.031 96.6644 436.493C96.6644 436.808 96.7834 437.077 97.0214 437.301C97.2664 437.518 97.5919 437.714 97.9979 437.889C98.4109 438.064 98.8764 438.243 99.3944 438.425C99.9754 438.621 100.553 438.845 101.127 439.097C101.708 439.342 102.233 439.643 102.702 440C103.178 440.357 103.559 440.801 103.846 441.333C104.133 441.858 104.277 442.502 104.277 443.265C104.277 444.203 104.042 445.001 103.573 445.659C103.111 446.317 102.485 446.821 101.694 447.171C100.903 447.514 100.01 447.686 99.0164 447.686ZM109.926 447.686C109.072 447.686 108.432 447.451 108.005 446.982C107.578 446.513 107.364 445.813 107.364 444.882V439.002H105.8V436.703H107.364V433.521L109.968 432.272V436.703H112.404V439.002H109.968V444.41C109.968 444.746 110.035 444.994 110.168 445.155C110.308 445.316 110.525 445.397 110.819 445.397C111.337 445.397 111.904 445.236 112.52 444.914L112.215 447.203C111.893 447.364 111.543 447.483 111.165 447.56C110.787 447.644 110.374 447.686 109.926 447.686ZM118.11 447.686C116.941 447.686 116.013 447.371 115.327 446.741C114.648 446.104 114.309 445.243 114.309 444.158C114.309 443.458 114.484 442.845 114.834 442.32C115.191 441.788 115.684 441.379 116.314 441.092C116.951 440.798 117.693 440.651 118.54 440.651C119.009 440.651 119.461 440.696 119.895 440.787C120.336 440.871 120.721 440.994 121.05 441.155V440.483C121.05 439.881 120.878 439.429 120.535 439.128C120.199 438.82 119.702 438.666 119.044 438.666C118.519 438.666 117.98 438.761 117.427 438.95C116.874 439.139 116.314 439.419 115.747 439.79L114.96 437.721C115.576 437.315 116.262 437.004 117.018 436.787C117.774 436.563 118.537 436.451 119.307 436.451C120.749 436.451 121.827 436.794 122.541 437.48C123.255 438.159 123.612 439.174 123.612 440.525V447.434H121.05V446.573C120.686 446.937 120.252 447.213 119.748 447.402C119.251 447.591 118.705 447.686 118.11 447.686ZM118.719 445.47C119.153 445.47 119.569 445.386 119.968 445.218C120.374 445.043 120.735 444.798 121.05 444.483V443.213C120.749 443.066 120.413 442.954 120.042 442.877C119.678 442.793 119.314 442.751 118.95 442.751C118.299 442.751 117.784 442.877 117.406 443.129C117.035 443.374 116.85 443.717 116.85 444.158C116.85 444.571 117.014 444.893 117.343 445.124C117.672 445.355 118.131 445.47 118.719 445.47ZM126.751 447.434V436.703H129.376V437.858C129.572 437.445 129.88 437.109 130.3 436.85C130.72 436.584 131.161 436.451 131.623 436.451C132.386 436.451 133.03 436.713 133.555 437.238L133.188 439.643C132.901 439.405 132.621 439.237 132.348 439.139C132.075 439.041 131.774 438.992 131.445 438.992C131.011 438.992 130.64 439.093 130.332 439.296C130.024 439.499 129.786 439.793 129.618 440.178C129.457 440.563 129.376 441.025 129.376 441.564V447.434H126.751ZM138.719 447.686C137.865 447.686 137.225 447.451 136.798 446.982C136.371 446.513 136.157 445.813 136.157 444.882V439.002H134.593V436.703H136.157V433.521L138.761 432.272V436.703H141.197V439.002H138.761V444.41C138.761 444.746 138.828 444.994 138.961 445.155C139.101 445.316 139.318 445.397 139.612 445.397C140.13 445.397 140.697 445.236 141.313 444.914L141.008 447.203C140.686 447.364 140.336 447.483 139.958 447.56C139.58 447.644 139.167 447.686 138.719 447.686ZM152.213 447.686C151.359 447.686 150.719 447.451 150.292 446.982C149.865 446.513 149.651 445.813 149.651 444.882V439.002H148.087V436.703H149.651V433.521L152.255 432.272V436.703H154.691V439.002H152.255V444.41C152.255 444.746 152.322 444.994 152.455 445.155C152.595 445.316 152.812 445.397 153.106 445.397C153.624 445.397 154.191 445.236 154.807 444.914L154.502 447.203C154.18 447.364 153.83 447.483 153.452 447.56C153.074 447.644 152.661 447.686 152.213 447.686ZM160.397 447.686C159.228 447.686 158.3 447.371 157.614 446.741C156.935 446.104 156.596 445.243 156.596 444.158C156.596 443.458 156.771 442.845 157.121 442.32C157.478 441.788 157.971 441.379 158.601 441.092C159.238 440.798 159.98 440.651 160.827 440.651C161.296 440.651 161.748 440.696 162.182 440.787C162.623 440.871 163.008 440.994 163.337 441.155V440.483C163.337 439.881 163.165 439.429 162.822 439.128C162.486 438.82 161.989 438.666 161.331 438.666C160.806 438.666 160.267 438.761 159.714 438.95C159.161 439.139 158.601 439.419 158.034 439.79L157.247 437.721C157.863 437.315 158.549 437.004 159.305 436.787C160.061 436.563 160.824 436.451 161.594 436.451C163.036 436.451 164.114 436.794 164.828 437.48C165.542 438.159 165.899 439.174 165.899 440.525V447.434H163.337V446.573C162.973 446.937 162.539 447.213 162.035 447.402C161.538 447.591 160.992 447.686 160.397 447.686ZM161.006 445.47C161.44 445.47 161.856 445.386 162.255 445.218C162.661 445.043 163.022 444.798 163.337 444.483V443.213C163.036 443.066 162.7 442.954 162.329 442.877C161.965 442.793 161.601 442.751 161.237 442.751C160.586 442.751 160.071 442.877 159.693 443.129C159.322 443.374 159.137 443.717 159.137 444.158C159.137 444.571 159.301 444.893 159.63 445.124C159.959 445.355 160.418 445.47 161.006 445.47ZM169.038 447.434V436.703H171.663V437.858C171.859 437.445 172.167 437.109 172.587 436.85C173.007 436.584 173.448 436.451 173.91 436.451C174.673 436.451 175.317 436.713 175.842 437.238L175.475 439.643C175.188 439.405 174.908 439.237 174.635 439.139C174.362 439.041 174.061 438.992 173.732 438.992C173.298 438.992 172.927 439.093 172.619 439.296C172.311 439.499 172.073 439.793 171.905 440.178C171.744 440.563 171.663 441.025 171.663 441.564V447.434H169.038ZM181.012 451.907L179.563 449.712C180.585 449.635 181.376 449.52 181.936 449.366C182.503 449.212 182.898 448.991 183.122 448.704C183.346 448.417 183.458 448.043 183.458 447.581V446.804C182.912 447.392 182.142 447.686 181.148 447.686C180.217 447.686 179.416 447.462 178.744 447.014C178.072 446.559 177.554 445.911 177.19 445.071C176.833 444.224 176.654 443.22 176.654 442.058C176.654 440.924 176.84 439.937 177.211 439.097C177.589 438.257 178.114 437.606 178.786 437.144C179.465 436.682 180.259 436.451 181.169 436.451C181.645 436.451 182.079 436.524 182.471 436.671C182.87 436.818 183.199 437.032 183.458 437.312V436.703H186.073V446.468C186.073 447.42 185.985 448.225 185.81 448.883C185.635 449.541 185.348 450.08 184.949 450.5C184.557 450.92 184.039 451.238 183.395 451.455C182.751 451.679 181.957 451.83 181.012 451.907ZM181.579 445.176C181.95 445.176 182.296 445.092 182.618 444.924C182.947 444.749 183.227 444.515 183.458 444.221V439.895C183.262 439.622 182.993 439.398 182.65 439.223C182.307 439.041 181.96 438.95 181.61 438.95C180.854 438.95 180.277 439.216 179.878 439.748C179.486 440.273 179.29 441.043 179.29 442.058C179.29 442.716 179.377 443.279 179.552 443.748C179.734 444.21 179.997 444.564 180.34 444.809C180.683 445.054 181.096 445.176 181.579 445.176ZM193.557 447.686C192.528 447.686 191.639 447.455 190.89 446.993C190.148 446.531 189.574 445.88 189.168 445.04C188.769 444.193 188.569 443.199 188.569 442.058C188.569 440.903 188.772 439.905 189.178 439.065C189.591 438.225 190.169 437.581 190.911 437.133C191.66 436.678 192.542 436.451 193.557 436.451C194.425 436.451 195.212 436.633 195.919 436.997C196.626 437.361 197.19 437.921 197.61 438.677C198.03 439.426 198.24 440.381 198.24 441.543C198.24 441.725 198.233 441.949 198.219 442.215C198.212 442.474 198.194 442.737 198.166 443.003H191.163C191.191 443.493 191.303 443.923 191.499 444.294C191.702 444.658 191.978 444.942 192.328 445.145C192.678 445.348 193.091 445.449 193.567 445.449C194.078 445.449 194.523 445.365 194.901 445.197C195.279 445.022 195.636 444.746 195.972 444.368L197.484 445.932C197.022 446.457 196.465 446.881 195.814 447.203C195.163 447.525 194.411 447.686 193.557 447.686ZM191.173 440.955H195.699C195.664 440.486 195.559 440.084 195.384 439.748C195.209 439.405 194.964 439.142 194.649 438.96C194.334 438.778 193.952 438.687 193.504 438.687C192.888 438.687 192.363 438.876 191.929 439.254C191.495 439.632 191.243 440.199 191.173 440.955ZM203.852 447.686C202.998 447.686 202.357 447.451 201.93 446.982C201.503 446.513 201.29 445.813 201.29 444.882V439.002H199.725V436.703H201.29V433.521L203.894 432.272V436.703H206.33V439.002H203.894V444.41C203.894 444.746 203.96 444.994 204.093 445.155C204.233 445.316 204.45 445.397 204.744 445.397C205.262 445.397 205.829 445.236 206.445 444.914L206.141 447.203C205.819 447.364 205.469 447.483 205.091 447.56C204.713 447.644 204.3 447.686 203.852 447.686ZM208.578 447.434V436.703H211.203V447.434H208.578ZM209.89 435.359C209.47 435.359 209.106 435.208 208.798 434.907C208.497 434.599 208.347 434.235 208.347 433.815C208.347 433.395 208.497 433.038 208.798 432.744C209.099 432.443 209.463 432.293 209.89 432.293C210.331 432.293 210.699 432.44 210.993 432.734C211.287 433.028 211.434 433.388 211.434 433.815C211.434 434.242 211.283 434.606 210.982 434.907C210.688 435.208 210.324 435.359 209.89 435.359ZM214.504 447.434V436.703H217.129V437.732C217.472 437.305 217.882 436.986 218.358 436.776C218.841 436.559 219.39 436.451 220.006 436.451C221.203 436.451 222.127 436.822 222.778 437.564C223.429 438.299 223.755 439.359 223.755 440.745V447.434H221.14V441.554C221.14 440.651 220.983 439.993 220.668 439.58C220.36 439.16 219.877 438.95 219.219 438.95C218.505 438.95 217.976 439.16 217.633 439.58C217.297 439.993 217.129 440.637 217.129 441.512V447.434H214.504ZM230.825 451.907L229.376 449.712C230.398 449.635 231.189 449.52 231.749 449.366C232.316 449.212 232.711 448.991 232.935 448.704C233.159 448.417 233.271 448.043 233.271 447.581V446.804C232.725 447.392 231.955 447.686 230.961 447.686C230.03 447.686 229.229 447.462 228.557 447.014C227.885 446.559 227.367 445.911 227.003 445.071C226.646 444.224 226.467 443.22 226.467 442.058C226.467 440.924 226.653 439.937 227.024 439.097C227.402 438.257 227.927 437.606 228.599 437.144C229.278 436.682 230.072 436.451 230.982 436.451C231.458 436.451 231.892 436.524 232.284 436.671C232.683 436.818 233.012 437.032 233.271 437.312V436.703H235.886V446.468C235.886 447.42 235.798 448.225 235.623 448.883C235.448 449.541 235.161 450.08 234.762 450.5C234.37 450.92 233.852 451.238 233.208 451.455C232.564 451.679 231.77 451.83 230.825 451.907ZM231.392 445.176C231.763 445.176 232.109 445.092 232.431 444.924C232.76 444.749 233.04 444.515 233.271 444.221V439.895C233.075 439.622 232.806 439.398 232.463 439.223C232.12 439.041 231.773 438.95 231.423 438.95C230.667 438.95 230.09 439.216 229.691 439.748C229.299 440.273 229.103 441.043 229.103 442.058C229.103 442.716 229.19 443.279 229.365 443.748C229.547 444.21 229.81 444.564 230.153 444.809C230.496 445.054 230.909 445.176 231.392 445.176ZM245.749 451.508L247.376 447.245L243.355 436.703H246.053L248.395 442.982C248.458 443.129 248.517 443.29 248.573 443.465C248.629 443.64 248.682 443.815 248.731 443.99C248.773 443.815 248.822 443.643 248.878 443.475C248.941 443.3 249.004 443.136 249.067 442.982L251.408 436.703H254.107L248.458 451.508H245.749ZM260.4 447.686C258.888 447.686 257.694 447.185 256.819 446.184C255.944 445.183 255.507 443.815 255.507 442.079C255.507 440.931 255.706 439.937 256.105 439.097C256.504 438.25 257.068 437.599 257.796 437.144C258.531 436.682 259.399 436.451 260.4 436.451C261.394 436.451 262.255 436.678 262.983 437.133C263.711 437.588 264.271 438.236 264.663 439.076C265.055 439.916 265.251 440.913 265.251 442.068C265.251 443.23 265.055 444.231 264.663 445.071C264.278 445.911 263.721 446.559 262.993 447.014C262.265 447.462 261.401 447.686 260.4 447.686ZM260.4 445.176C261.107 445.176 261.656 444.903 262.048 444.357C262.44 443.811 262.636 443.048 262.636 442.068C262.636 441.088 262.437 440.325 262.038 439.779C261.646 439.226 261.1 438.95 260.4 438.95C259.693 438.95 259.14 439.226 258.741 439.779C258.342 440.332 258.142 441.099 258.142 442.079C258.142 443.045 258.342 443.804 258.741 444.357C259.14 444.903 259.693 445.176 260.4 445.176ZM271.633 447.686C270.436 447.686 269.508 447.315 268.85 446.573C268.192 445.824 267.863 444.767 267.863 443.402V436.703H270.488V442.583C270.488 443.486 270.642 444.144 270.95 444.557C271.258 444.97 271.745 445.176 272.41 445.176C273.124 445.176 273.649 444.97 273.985 444.557C274.328 444.137 274.499 443.493 274.499 442.625V436.703H277.114V447.434H274.499V446.426C274.17 446.846 273.764 447.161 273.281 447.371C272.805 447.581 272.256 447.686 271.633 447.686ZM280.416 447.434V436.703H283.041V437.858C283.237 437.445 283.545 437.109 283.965 436.85C284.385 436.584 284.826 436.451 285.288 436.451C286.051 436.451 286.695 436.713 287.22 437.238L286.853 439.643C286.566 439.405 286.286 439.237 286.013 439.139C285.74 439.041 285.439 438.992 285.11 438.992C284.676 438.992 284.305 439.093 283.997 439.296C283.689 439.499 283.451 439.793 283.283 440.178C283.122 440.563 283.041 441.025 283.041 441.564V447.434H280.416ZM81.409 474.434V463.703H84.034V474.434H81.409ZM82.7215 462.359C82.3015 462.359 81.9375 462.208 81.6295 461.907C81.3285 461.599 81.178 461.235 81.178 460.815C81.178 460.395 81.3285 460.038 81.6295 459.744C81.9305 459.443 82.2945 459.293 82.7215 459.293C83.1625 459.293 83.53 459.44 83.824 459.734C84.118 460.028 84.265 460.388 84.265 460.815C84.265 461.242 84.1145 461.606 83.8135 461.907C83.5195 462.208 83.1555 462.359 82.7215 462.359ZM87.3353 474.434V463.703H89.9603V464.732C90.3033 464.305 90.7128 463.986 91.1888 463.776C91.6718 463.559 92.2213 463.451 92.8373 463.451C94.0343 463.451 94.9583 463.822 95.6093 464.564C96.2603 465.299 96.5858 466.359 96.5858 467.745V474.434H93.9713V468.554C93.9713 467.651 93.8138 466.993 93.4988 466.58C93.1908 466.16 92.7078 465.95 92.0498 465.95C91.3358 465.95 90.8073 466.16 90.4643 466.58C90.1283 466.993 89.9603 467.637 89.9603 468.512V474.434H87.3353ZM102.584 474.686C101.73 474.686 101.09 474.451 100.663 473.982C100.236 473.513 100.022 472.813 100.022 471.882V466.002H98.4579V463.703H100.022V460.521L102.626 459.272V463.703H105.062V466.002H102.626V471.41C102.626 471.746 102.693 471.994 102.826 472.155C102.966 472.316 103.183 472.397 103.477 472.397C103.995 472.397 104.562 472.236 105.178 471.914L104.873 474.203C104.551 474.364 104.201 474.483 103.823 474.56C103.445 474.644 103.032 474.686 102.584 474.686ZM112.017 474.686C110.988 474.686 110.099 474.455 109.35 473.993C108.608 473.531 108.034 472.88 107.628 472.04C107.229 471.193 107.03 470.199 107.03 469.058C107.03 467.903 107.233 466.905 107.639 466.065C108.052 465.225 108.629 464.581 109.371 464.133C110.12 463.678 111.002 463.451 112.017 463.451C112.885 463.451 113.673 463.633 114.38 463.997C115.087 464.361 115.65 464.921 116.07 465.677C116.49 466.426 116.7 467.381 116.7 468.543C116.7 468.725 116.693 468.949 116.679 469.215C116.672 469.474 116.655 469.737 116.627 470.003H109.623C109.651 470.493 109.763 470.923 109.959 471.294C110.162 471.658 110.439 471.942 110.789 472.145C111.139 472.348 111.552 472.449 112.028 472.449C112.539 472.449 112.983 472.365 113.361 472.197C113.739 472.022 114.096 471.746 114.432 471.368L115.944 472.932C115.482 473.457 114.926 473.881 114.275 474.203C113.624 474.525 112.871 474.686 112.017 474.686ZM109.634 467.955H114.159C114.124 467.486 114.019 467.084 113.844 466.748C113.669 466.405 113.424 466.142 113.109 465.96C112.794 465.778 112.413 465.687 111.965 465.687C111.349 465.687 110.824 465.876 110.39 466.254C109.956 466.632 109.704 467.199 109.634 467.955ZM119.348 474.434V463.703H121.973V464.858C122.169 464.445 122.477 464.109 122.897 463.85C123.317 463.584 123.758 463.451 124.22 463.451C124.983 463.451 125.627 463.713 126.152 464.238L125.784 466.643C125.497 466.405 125.217 466.237 124.944 466.139C124.671 466.041 124.37 465.992 124.041 465.992C123.607 465.992 123.236 466.093 122.928 466.296C122.62 466.499 122.382 466.793 122.214 467.178C122.053 467.563 121.973 468.025 121.973 468.564V474.434H119.348ZM127.818 474.434V463.703H130.443V464.732C130.786 464.305 131.195 463.986 131.671 463.776C132.154 463.559 132.704 463.451 133.32 463.451C134.517 463.451 135.441 463.822 136.092 464.564C136.743 465.299 137.068 466.359 137.068 467.745V474.434H134.454V468.554C134.454 467.651 134.296 466.993 133.981 466.58C133.673 466.16 133.19 465.95 132.532 465.95C131.818 465.95 131.29 466.16 130.947 466.58C130.611 466.993 130.443 467.637 130.443 468.512V474.434H127.818ZM143.437 474.686C142.268 474.686 141.34 474.371 140.654 473.741C139.975 473.104 139.636 472.243 139.636 471.158C139.636 470.458 139.811 469.845 140.161 469.32C140.518 468.788 141.011 468.379 141.641 468.092C142.278 467.798 143.02 467.651 143.867 467.651C144.336 467.651 144.788 467.696 145.222 467.787C145.663 467.871 146.048 467.994 146.377 468.155V467.483C146.377 466.881 146.205 466.429 145.862 466.128C145.526 465.82 145.029 465.666 144.371 465.666C143.846 465.666 143.307 465.761 142.754 465.95C142.201 466.139 141.641 466.419 141.074 466.79L140.287 464.721C140.903 464.315 141.589 464.004 142.345 463.787C143.101 463.563 143.864 463.451 144.634 463.451C146.076 463.451 147.154 463.794 147.868 464.48C148.582 465.159 148.939 466.174 148.939 467.525V474.434H146.377V473.573C146.013 473.937 145.579 474.213 145.075 474.402C144.578 474.591 144.032 474.686 143.437 474.686ZM144.046 472.47C144.48 472.47 144.896 472.386 145.295 472.218C145.701 472.043 146.062 471.798 146.377 471.483V470.213C146.076 470.066 145.74 469.954 145.369 469.877C145.005 469.793 144.641 469.751 144.277 469.751C143.626 469.751 143.111 469.877 142.733 470.129C142.362 470.374 142.177 470.717 142.177 471.158C142.177 471.571 142.341 471.893 142.67 472.124C142.999 472.355 143.458 472.47 144.046 472.47ZM154.777 474.686C153.923 474.686 153.282 474.451 152.855 473.982C152.428 473.513 152.215 472.813 152.215 471.882V466.002H150.65V463.703H152.215V460.521L154.819 459.272V463.703H157.255V466.002H154.819V471.41C154.819 471.746 154.885 471.994 155.018 472.155C155.158 472.316 155.375 472.397 155.669 472.397C156.187 472.397 156.754 472.236 157.37 471.914L157.066 474.203C156.744 474.364 156.394 474.483 156.016 474.56C155.638 474.644 155.225 474.686 154.777 474.686ZM159.503 474.434V463.703H162.128V474.434H159.503ZM160.815 462.359C160.395 462.359 160.031 462.208 159.723 461.907C159.422 461.599 159.272 461.235 159.272 460.815C159.272 460.395 159.422 460.038 159.723 459.744C160.024 459.443 160.388 459.293 160.815 459.293C161.256 459.293 161.624 459.44 161.918 459.734C162.212 460.028 162.359 460.388 162.359 460.815C162.359 461.242 162.208 461.606 161.907 461.907C161.613 462.208 161.249 462.359 160.815 462.359ZM169.755 474.686C168.243 474.686 167.05 474.185 166.175 473.184C165.3 472.183 164.862 470.815 164.862 469.079C164.862 467.931 165.062 466.937 165.461 466.097C165.86 465.25 166.423 464.599 167.151 464.144C167.886 463.682 168.754 463.451 169.755 463.451C170.749 463.451 171.61 463.678 172.338 464.133C173.066 464.588 173.626 465.236 174.018 466.076C174.41 466.916 174.606 467.913 174.606 469.068C174.606 470.23 174.41 471.231 174.018 472.071C173.633 472.911 173.077 473.559 172.349 474.014C171.621 474.462 170.756 474.686 169.755 474.686ZM169.755 472.176C170.462 472.176 171.012 471.903 171.404 471.357C171.796 470.811 171.992 470.048 171.992 469.068C171.992 468.088 171.792 467.325 171.393 466.779C171.001 466.226 170.455 465.95 169.755 465.95C169.048 465.95 168.495 466.226 168.096 466.779C167.697 467.332 167.498 468.099 167.498 469.079C167.498 470.045 167.697 470.804 168.096 471.357C168.495 471.903 169.048 472.176 169.755 472.176ZM177.118 474.434V463.703H179.743V464.732C180.086 464.305 180.496 463.986 180.972 463.776C181.455 463.559 182.004 463.451 182.62 463.451C183.817 463.451 184.741 463.822 185.392 464.564C186.043 465.299 186.369 466.359 186.369 467.745V474.434H183.754V468.554C183.754 467.651 183.597 466.993 183.282 466.58C182.974 466.16 182.491 465.95 181.833 465.95C181.119 465.95 180.59 466.16 180.247 466.58C179.911 466.993 179.743 467.637 179.743 468.512V474.434H177.118ZM192.738 474.686C191.569 474.686 190.641 474.371 189.955 473.741C189.276 473.104 188.937 472.243 188.937 471.158C188.937 470.458 189.112 469.845 189.462 469.32C189.819 468.788 190.312 468.379 190.942 468.092C191.579 467.798 192.321 467.651 193.168 467.651C193.637 467.651 194.089 467.696 194.523 467.787C194.964 467.871 195.349 467.994 195.678 468.155V467.483C195.678 466.881 195.506 466.429 195.163 466.128C194.827 465.82 194.33 465.666 193.672 465.666C193.147 465.666 192.608 465.761 192.055 465.95C191.502 466.139 190.942 466.419 190.375 466.79L189.588 464.721C190.204 464.315 190.89 464.004 191.646 463.787C192.402 463.563 193.165 463.451 193.935 463.451C195.377 463.451 196.455 463.794 197.169 464.48C197.883 465.159 198.24 466.174 198.24 467.525V474.434H195.678V473.573C195.314 473.937 194.88 474.213 194.376 474.402C193.879 474.591 193.333 474.686 192.738 474.686ZM193.347 472.47C193.781 472.47 194.197 472.386 194.596 472.218C195.002 472.043 195.363 471.798 195.678 471.483V470.213C195.377 470.066 195.041 469.954 194.67 469.877C194.306 469.793 193.942 469.751 193.578 469.751C192.927 469.751 192.412 469.877 192.034 470.129C191.663 470.374 191.478 470.717 191.478 471.158C191.478 471.571 191.642 471.893 191.971 472.124C192.3 472.355 192.759 472.47 193.347 472.47ZM201.361 474.434V460.458L203.986 459.272V474.434H201.361ZM215.788 474.686C214.619 474.686 213.692 474.371 213.006 473.741C212.327 473.104 211.987 472.243 211.987 471.158C211.987 470.458 212.162 469.845 212.512 469.32C212.869 468.788 213.363 468.379 213.993 468.092C214.63 467.798 215.372 467.651 216.219 467.651C216.688 467.651 217.139 467.696 217.573 467.787C218.014 467.871 218.399 467.994 218.728 468.155V467.483C218.728 466.881 218.557 466.429 218.214 466.128C217.878 465.82 217.381 465.666 216.723 465.666C216.198 465.666 215.659 465.761 215.106 465.95C214.553 466.139 213.993 466.419 213.426 466.79L212.638 464.721C213.254 464.315 213.94 464.004 214.696 463.787C215.452 463.563 216.215 463.451 216.985 463.451C218.427 463.451 219.505 463.794 220.219 464.48C220.933 465.159 221.29 466.174 221.29 467.525V474.434H218.728V473.573C218.364 473.937 217.93 474.213 217.426 474.402C216.929 474.591 216.383 474.686 215.788 474.686ZM216.397 472.47C216.831 472.47 217.248 472.386 217.647 472.218C218.053 472.043 218.413 471.798 218.728 471.483V470.213C218.427 470.066 218.091 469.954 217.72 469.877C217.356 469.793 216.992 469.751 216.628 469.751C215.977 469.751 215.463 469.877 215.085 470.129C214.714 470.374 214.528 470.717 214.528 471.158C214.528 471.571 214.693 471.893 215.022 472.124C215.351 472.355 215.809 472.47 216.397 472.47ZM227.971 474.686C226.774 474.686 225.847 474.315 225.189 473.573C224.531 472.824 224.202 471.767 224.202 470.402V463.703H226.827V469.583C226.827 470.486 226.981 471.144 227.289 471.557C227.597 471.97 228.083 472.176 228.748 472.176C229.462 472.176 229.987 471.97 230.323 471.557C230.666 471.137 230.838 470.493 230.838 469.625V463.703H233.452V474.434H230.838V473.426C230.509 473.846 230.103 474.161 229.62 474.371C229.144 474.581 228.594 474.686 227.971 474.686ZM240.383 474.686C239.004 474.686 237.923 474.189 237.139 473.195C236.355 472.201 235.963 470.822 235.963 469.058C235.963 467.938 236.148 466.958 236.519 466.118C236.89 465.278 237.408 464.623 238.073 464.154C238.745 463.685 239.526 463.451 240.415 463.451C241.367 463.451 242.147 463.801 242.756 464.501V460.458L245.371 459.272V474.434H242.756V473.552C242.238 474.308 241.447 474.686 240.383 474.686ZM240.814 472.176C241.262 472.176 241.643 472.099 241.958 471.945C242.273 471.784 242.539 471.546 242.756 471.231V466.895C242.539 466.601 242.256 466.37 241.906 466.202C241.563 466.034 241.199 465.95 240.814 465.95C240.107 465.95 239.561 466.219 239.176 466.758C238.791 467.29 238.598 468.057 238.598 469.058C238.598 469.716 238.686 470.279 238.861 470.748C239.036 471.21 239.288 471.564 239.617 471.809C239.946 472.054 240.345 472.176 240.814 472.176ZM248.671 474.434V463.703H251.296V474.434H248.671ZM249.983 462.359C249.563 462.359 249.199 462.208 248.891 461.907C248.59 461.599 248.44 461.235 248.44 460.815C248.44 460.395 248.59 460.038 248.891 459.744C249.192 459.443 249.556 459.293 249.983 459.293C250.424 459.293 250.792 459.44 251.086 459.734C251.38 460.028 251.527 460.388 251.527 460.815C251.527 461.242 251.376 461.606 251.075 461.907C250.781 462.208 250.417 462.359 249.983 462.359ZM259.017 474.686C257.988 474.686 257.099 474.455 256.35 473.993C255.608 473.531 255.034 472.88 254.628 472.04C254.229 471.193 254.03 470.199 254.03 469.058C254.03 467.903 254.233 466.905 254.639 466.065C255.052 465.225 255.629 464.581 256.371 464.133C257.12 463.678 258.002 463.451 259.017 463.451C259.885 463.451 260.673 463.633 261.38 463.997C262.087 464.361 262.65 464.921 263.07 465.677C263.49 466.426 263.7 467.381 263.7 468.543C263.7 468.725 263.693 468.949 263.679 469.215C263.672 469.474 263.655 469.737 263.627 470.003H256.623C256.651 470.493 256.763 470.923 256.959 471.294C257.162 471.658 257.439 471.942 257.789 472.145C258.139 472.348 258.552 472.449 259.028 472.449C259.539 472.449 259.983 472.365 260.361 472.197C260.739 472.022 261.096 471.746 261.432 471.368L262.944 472.932C262.482 473.457 261.926 473.881 261.275 474.203C260.624 474.525 259.871 474.686 259.017 474.686ZM256.634 467.955H261.159C261.124 467.486 261.019 467.084 260.844 466.748C260.669 466.405 260.424 466.142 260.109 465.96C259.794 465.778 259.413 465.687 258.965 465.687C258.349 465.687 257.824 465.876 257.39 466.254C256.956 466.632 256.704 467.199 256.634 467.955ZM266.348 474.434V463.703H268.973V464.732C269.316 464.305 269.725 463.986 270.201 463.776C270.684 463.559 271.234 463.451 271.85 463.451C273.047 463.451 273.971 463.822 274.622 464.564C275.273 465.299 275.598 466.359 275.598 467.745V474.434H272.984V468.554C272.984 467.651 272.826 466.993 272.511 466.58C272.203 466.16 271.72 465.95 271.062 465.95C270.348 465.95 269.82 466.16 269.477 466.58C269.141 466.993 268.973 467.637 268.973 468.512V474.434H266.348ZM283.131 474.686C282.144 474.686 281.29 474.458 280.569 474.003C279.848 473.548 279.291 472.904 278.899 472.071C278.507 471.231 278.311 470.234 278.311 469.079C278.311 467.924 278.507 466.926 278.899 466.086C279.298 465.246 279.862 464.599 280.59 464.144C281.318 463.682 282.175 463.451 283.162 463.451C284.275 463.451 285.199 463.71 285.934 464.228C286.676 464.739 287.212 465.498 287.541 466.506L285.052 467.346C284.884 466.898 284.639 466.555 284.317 466.317C283.995 466.072 283.624 465.95 283.204 465.95C282.525 465.95 281.983 466.23 281.577 466.79C281.178 467.35 280.978 468.113 280.978 469.079C280.978 470.031 281.174 470.787 281.566 471.347C281.958 471.907 282.487 472.187 283.152 472.187C283.621 472.187 284.02 472.054 284.349 471.788C284.685 471.522 284.933 471.133 285.094 470.622L287.572 471.368C287.257 472.467 286.722 473.296 285.966 473.856C285.217 474.409 284.272 474.686 283.131 474.686ZM294.619 474.686C293.59 474.686 292.701 474.455 291.952 473.993C291.21 473.531 290.636 472.88 290.23 472.04C289.831 471.193 289.632 470.199 289.632 469.058C289.632 467.903 289.835 466.905 290.241 466.065C290.654 465.225 291.231 464.581 291.973 464.133C292.722 463.678 293.604 463.451 294.619 463.451C295.487 463.451 296.275 463.633 296.982 463.997C297.689 464.361 298.252 464.921 298.672 465.677C299.092 466.426 299.302 467.381 299.302 468.543C299.302 468.725 299.295 468.949 299.281 469.215C299.274 469.474 299.257 469.737 299.229 470.003H292.225C292.253 470.493 292.365 470.923 292.561 471.294C292.764 471.658 293.041 471.942 293.391 472.145C293.741 472.348 294.154 472.449 294.63 472.449C295.141 472.449 295.585 472.365 295.963 472.197C296.341 472.022 296.698 471.746 297.034 471.368L298.546 472.932C298.084 473.457 297.528 473.881 296.877 474.203C296.226 474.525 295.473 474.686 294.619 474.686ZM292.236 467.955H296.761C296.726 467.486 296.621 467.084 296.446 466.748C296.271 466.405 296.026 466.142 295.711 465.96C295.396 465.778 295.015 465.687 294.567 465.687C293.951 465.687 293.426 465.876 292.992 466.254C292.558 466.632 292.306 467.199 292.236 467.955Z" fill="white"/>
</svg>
